<svg width="13" height="17" viewBox="0 0 13 17" fill="none" xmlns="http://www.w3.org/2000/svg">
<path d="M9.2164 0H0.442302C0.198023 0 0 0.198023 0 0.582279V16.6279C0 16.7322 0.198023 16.9302 0.442302 16.9302H12.5577C12.802 16.9302 13 16.7322 13 16.6279V3.92358C13 3.71316 12.9719 3.64544 12.9223 3.59556L9.40444 0.0776977C9.35456 0.0281163 9.28684 0 9.2164 0Z" fill="#E5E5E5"/>
<path d="M9.37207 0.0449219V3.62718H12.9543L9.37207 0.0449219Z" fill="#C4C4C4"/>
<path d="M3.93439 10.0741C3.82918 10.0741 3.7282 10.04 3.64204 9.97556C3.32732 9.73945 3.28499 9.47673 3.30494 9.29775C3.35997 8.80556 3.96855 8.2904 5.11436 7.76556C5.56906 6.7691 6.00169 5.54136 6.25957 4.51556C5.95785 3.85891 5.6646 3.00696 5.87834 2.50722C5.95332 2.33217 6.04673 2.19794 6.22118 2.13989C6.29011 2.11691 6.46425 2.08789 6.52834 2.08789C6.68071 2.08789 6.81464 2.2841 6.90957 2.40503C6.99876 2.5187 7.20101 2.75966 6.79681 4.46145C7.20434 5.30312 7.78178 6.16052 8.33504 6.74763C8.73139 6.67598 9.07241 6.6394 9.35025 6.6394C9.82369 6.6394 10.1106 6.74975 10.2276 6.9771C10.3243 7.16515 10.2847 7.38494 10.1097 7.63012C9.94129 7.86563 9.70911 7.99019 9.43853 7.99019C9.0709 7.99019 8.6428 7.75801 8.16543 7.29938C7.30773 7.47866 6.30613 7.79852 5.4965 8.15254C5.24376 8.68887 5.0016 9.12089 4.77606 9.43773C4.46618 9.87157 4.19892 10.0741 3.93439 10.0741ZM4.73918 8.5244C4.09311 8.8875 3.82978 9.18589 3.81074 9.35398C3.80771 9.3818 3.79955 9.45496 3.94104 9.56319C3.98608 9.54898 4.24911 9.42896 4.73918 8.5244ZM8.86199 7.18147C9.10839 7.37103 9.16855 7.46687 9.32969 7.46687C9.40043 7.46687 9.60208 7.46384 9.6955 7.33354C9.74055 7.27036 9.75808 7.22984 9.76504 7.20808C9.72785 7.18843 9.67857 7.14852 9.4098 7.14852C9.25713 7.14882 9.06515 7.15547 8.86199 7.18147ZM6.60362 5.19157C6.38746 5.93952 6.10206 6.74703 5.7952 7.47836C6.42706 7.23317 7.11394 7.01912 7.75911 6.86766C7.35097 6.39361 6.94313 5.80166 6.60362 5.19157ZM6.42011 2.63329C6.39048 2.64326 6.01801 3.16447 6.44913 3.60557C6.73604 2.96615 6.43311 2.62905 6.42011 2.63329Z" fill="#FB4C2F"/>
<path d="M12.5577 16.9306H0.442302C0.198023 16.9306 0 16.7325 0 16.4882V11.791H13V16.4882C13 16.7325 12.802 16.9306 12.5577 16.9306Z" fill="#EA4335"/>
<path d="M3.29055 16.0228H2.79443V12.9766H3.67057C3.79997 12.9766 3.92815 12.9971 4.05483 13.0385C4.1815 13.08 4.29518 13.1419 4.39585 13.2245C4.49653 13.307 4.57785 13.4071 4.63983 13.5241C4.70181 13.6411 4.73295 13.7726 4.73295 13.9189C4.73295 14.0734 4.70664 14.2131 4.65434 14.3385C4.60204 14.464 4.52888 14.5695 4.43515 14.6548C4.34143 14.74 4.22836 14.8062 4.09625 14.8531C3.96413 14.9 3.81781 14.9232 3.65818 14.9232H3.29025V16.0228H3.29055ZM3.29055 13.3527V14.5595H3.74525C3.80571 14.5595 3.86557 14.5493 3.92513 14.5284C3.98439 14.5078 4.03881 14.474 4.08839 14.4271C4.13797 14.3803 4.17788 14.315 4.20811 14.2309C4.23834 14.1469 4.25346 14.0429 4.25346 13.9189C4.25346 13.8693 4.2465 13.8119 4.2329 13.7475C4.21899 13.6828 4.19088 13.6208 4.14825 13.5616C4.10532 13.5023 4.04546 13.4527 3.96836 13.4128C3.89127 13.3729 3.78908 13.353 3.66241 13.353H3.29055V13.3527Z" fill="white"/>
<path d="M7.77534 14.415C7.77534 14.6657 7.74843 14.88 7.69462 15.0578C7.6408 15.2355 7.57278 15.3843 7.48994 15.5043C7.4071 15.6243 7.31429 15.7187 7.21089 15.7876C7.1075 15.8565 7.00773 15.9079 6.91129 15.9427C6.81485 15.9771 6.72657 15.9992 6.64676 16.0089C6.56694 16.018 6.50769 16.0228 6.46899 16.0228H5.31592V12.9766H6.23348C6.48985 12.9766 6.71508 13.0174 6.90917 13.0984C7.10327 13.1794 7.26471 13.288 7.39289 13.4228C7.52108 13.5576 7.61662 13.7115 7.6801 13.8835C7.74359 14.0559 7.77534 14.233 7.77534 14.415ZM6.30392 15.6591C6.6401 15.6591 6.88257 15.5518 7.03131 15.3368C7.18006 15.1219 7.25443 14.8105 7.25443 14.4026C7.25443 14.276 7.23931 14.1505 7.20908 14.0265C7.17855 13.9026 7.1202 13.7904 7.03343 13.6897C6.94666 13.5891 6.82876 13.5077 6.68001 13.4458C6.53127 13.3838 6.33838 13.3527 6.10136 13.3527H5.81203V15.6591H6.30392Z" fill="white"/>
<path d="M8.99891 13.3527V14.3116H10.272V14.6505H8.99891V16.0228H8.49463V12.9766H10.3999V13.3527H8.99891Z" fill="white"/>
</svg>
