<svg width="20" height="20" viewBox="0 0 20 20" fill="none" xmlns="http://www.w3.org/2000/svg">
<rect x="0.833496" y="0.833984" width="18.3333" height="18.3333" rx="4.5" fill="#F0A30A"/>
<path d="M1.6665 6.16602C1.6665 3.68073 3.68122 1.66602 6.1665 1.66602H13.8332C16.3185 1.66602 18.3332 3.68073 18.3332 6.16602V11.666H1.6665V6.16602Z" fill="white"/>
<rect x="9.1665" y="4.16602" width="7.5" height="0.833333" rx="0.416667" fill="#F0A30A"/>
<rect x="9.1665" y="6.66602" width="7.5" height="0.833333" rx="0.416667" fill="#F0A30A"/>
<rect x="9.1665" y="9.16602" width="7.5" height="0.833333" rx="0.416667" fill="#F0A30A"/>
<path fill-rule="evenodd" clip-rule="evenodd" d="M4.16602 11.666V14.2181C4.16602 14.6706 4.34706 15.096 4.67579 15.416C5.00451 15.736 5.44158 15.9122 5.9065 15.9122C6.38634 15.9122 6.82145 15.7222 7.13661 15.4154C7.45176 15.1087 7.64695 14.6852 7.64696 14.2181L7.64696 11.666H7.1903L7.1903 14.2181C7.19029 14.9071 6.61438 15.4677 5.90648 15.4677C5.56356 15.4677 5.24118 15.3377 4.99868 15.1017C4.7562 14.8657 4.62267 14.5519 4.62267 14.2181L4.62267 11.666H4.16602ZM5.52839 11.666L5.52838 13.2864C5.52839 13.4893 5.69799 13.6544 5.90647 13.6544C6.11497 13.6544 6.28456 13.4893 6.28456 13.2864L6.28457 11.666H6.74124L6.74124 13.2864C6.74122 13.7344 6.36677 14.0988 5.90648 14.0989C5.4462 14.0989 5.07174 13.7344 5.07173 13.2864V11.666H5.52839Z" fill="white"/>
<mask id="path-7-inside-1_8207_27058" fill="white">
<path fill-rule="evenodd" clip-rule="evenodd" d="M4.16602 11.6658V5.47991C4.166 5.12895 4.29993 4.79901 4.54314 4.55084C4.78633 4.30268 5.10969 4.166 5.45363 4.16602C5.79756 4.16602 6.12091 4.30268 6.36411 4.55085C6.60731 4.79901 6.74125 5.12896 6.74125 5.47991L6.74124 11.6658H6.28456L6.28457 5.47991C6.28457 5.25342 6.19813 5.0405 6.0412 4.88036C5.88425 4.72021 5.67558 4.632 5.45363 4.63201C4.99544 4.63201 4.62268 5.01238 4.62268 5.47993L4.62267 11.6658H4.16602ZM5.07173 11.6658H5.52838L5.5284 7.32371C5.5284 7.19502 5.42617 7.0907 5.30007 7.09071C5.17397 7.09072 5.07173 7.19504 5.07173 7.32371L5.07173 11.6658ZM7.1903 11.6658L7.19029 7.30921C7.19029 7.18055 7.29252 7.07623 7.41863 7.07622C7.54473 7.07621 7.64696 7.18053 7.64696 7.30921L7.64696 11.6658H7.1903Z"/>
</mask>
<path fill-rule="evenodd" clip-rule="evenodd" d="M4.16602 11.6658V5.47991C4.166 5.12895 4.29993 4.79901 4.54314 4.55084C4.78633 4.30268 5.10969 4.166 5.45363 4.16602C5.79756 4.16602 6.12091 4.30268 6.36411 4.55085C6.60731 4.79901 6.74125 5.12896 6.74125 5.47991L6.74124 11.6658H6.28456L6.28457 5.47991C6.28457 5.25342 6.19813 5.0405 6.0412 4.88036C5.88425 4.72021 5.67558 4.632 5.45363 4.63201C4.99544 4.63201 4.62268 5.01238 4.62268 5.47993L4.62267 11.6658H4.16602ZM5.07173 11.6658H5.52838L5.5284 7.32371C5.5284 7.19502 5.42617 7.0907 5.30007 7.09071C5.17397 7.09072 5.07173 7.19504 5.07173 7.32371L5.07173 11.6658ZM7.1903 11.6658L7.19029 7.30921C7.19029 7.18055 7.29252 7.07623 7.41863 7.07622C7.54473 7.07621 7.64696 7.18053 7.64696 7.30921L7.64696 11.6658H7.1903Z" fill="#F0A30A"/>
<path d="M4.16602 11.6658H2.16602V13.6658H4.16602V11.6658ZM4.16602 5.47991H6.16602V5.47985L4.16602 5.47991ZM4.54314 4.55084L3.11471 3.15098L4.54314 4.55084ZM5.45363 4.16602L5.45357 6.16602H5.45363V4.16602ZM6.36411 4.55085L7.79254 3.15099L7.79254 3.15099L6.36411 4.55085ZM6.74125 5.47991L8.74125 5.47992V5.47991H6.74125ZM6.74124 11.6658V13.6658H8.74123L8.74124 11.6658L6.74124 11.6658ZM6.28456 11.6658L4.28456 11.6658L4.28456 13.6658H6.28456V11.6658ZM6.28457 5.47991L8.28457 5.47992V5.47991H6.28457ZM6.0412 4.88036L4.61277 6.28021L4.61277 6.28021L6.0412 4.88036ZM5.45363 4.63201V6.63201H5.45374L5.45363 4.63201ZM4.62268 5.47993L6.62268 5.47993V5.47993H4.62268ZM4.62267 11.6658V13.6658H6.62266L6.62267 11.6658L4.62267 11.6658ZM5.07173 11.6658H3.07173L3.07173 13.6658H5.07173V11.6658ZM5.52838 11.6658V13.6658H7.52837L7.52838 11.6658L5.52838 11.6658ZM5.5284 7.32371L7.5284 7.32372V7.32371H5.5284ZM5.30007 7.09071L5.30025 9.09071L5.30007 7.09071ZM5.07173 7.32371L7.07173 7.32371V7.32371H5.07173ZM7.1903 11.6658L5.1903 11.6658L5.1903 13.6658H7.1903V11.6658ZM7.19029 7.30921H5.19029V7.30922L7.19029 7.30921ZM7.41863 7.07622L7.41881 9.07622L7.41863 7.07622ZM7.64696 7.30921H5.64696H7.64696ZM7.64696 11.6658V13.6658H9.64696V11.6658H7.64696ZM6.16602 11.6658V5.47991H2.16602V11.6658H6.16602ZM6.16602 5.47985C6.16602 5.64646 6.09884 5.82082 5.97157 5.95069L3.11471 3.15098C2.50102 3.7772 2.16599 4.61144 2.16602 5.47998L6.16602 5.47985ZM5.97157 5.95069C5.84295 6.08194 5.65329 6.16602 5.45357 6.16602L5.4537 2.16602C4.56608 2.16599 3.72972 2.52342 3.11471 3.15098L5.97157 5.95069ZM5.45363 6.16602C5.25394 6.16602 5.0643 6.08194 4.93568 5.9507L7.79254 3.15099C7.17752 2.52342 6.34118 2.16602 5.45363 2.16602V6.16602ZM4.93568 5.9507C4.80841 5.82083 4.74125 5.64651 4.74125 5.47991H8.74125C8.74125 4.61142 8.4062 3.77718 7.79254 3.15099L4.93568 5.9507ZM4.74125 5.47991L4.74124 11.6658L8.74124 11.6658L8.74125 5.47992L4.74125 5.47991ZM6.28456 13.6658H6.74124V9.66576H6.28456V13.6658ZM8.28456 11.6658L8.28457 5.47992L4.28457 5.47991L4.28456 11.6658L8.28456 11.6658ZM8.28457 5.47991C8.28457 4.73585 7.99701 4.01865 7.46962 3.4805L4.61277 6.28021C4.39926 6.06234 4.28457 5.771 4.28457 5.47991H8.28457ZM7.46962 3.4805C6.94092 2.941 6.21925 2.63197 5.45353 2.63201L5.45374 6.63201C5.13191 6.63203 4.82758 6.49941 4.61277 6.28021L7.46962 3.4805ZM5.45363 2.63201C3.85296 2.63201 2.62268 3.9461 2.62268 5.47993H6.62268C6.62268 6.07866 6.13791 6.63201 5.45363 6.63201V2.63201ZM2.62268 5.47992L2.62267 11.6658L6.62267 11.6658L6.62268 5.47993L2.62268 5.47992ZM4.16602 13.6658H4.62267V9.66576H4.16602V13.6658ZM5.07173 13.6658H5.52838V9.66576H5.07173V13.6658ZM3.5284 7.3237L3.52838 11.6658L7.52838 11.6658L7.5284 7.32372L3.5284 7.3237ZM5.30025 9.09071C4.28363 9.0908 3.5284 8.26119 3.5284 7.32371H7.5284C7.5284 6.12885 6.56871 5.09059 5.29988 5.09071L5.30025 9.09071ZM7.07173 7.32371C7.07173 8.26142 6.31638 9.09061 5.30025 9.09071L5.29988 5.09071C4.03155 5.09083 3.07173 6.12866 3.07173 7.32371H7.07173ZM7.07173 11.6658L7.07173 7.32371L3.07173 7.32371L3.07173 11.6658H7.07173ZM9.1903 11.6658L9.19029 7.30921L5.19029 7.30922L5.1903 11.6658L9.1903 11.6658ZM9.19029 7.30921C9.19029 8.24693 8.43494 9.07612 7.41881 9.07622L7.41844 5.07622C6.15011 5.07633 5.19029 6.11417 5.19029 7.30921H9.19029ZM7.41881 9.07622C6.40219 9.07631 5.64696 8.2467 5.64696 7.30921H9.64696C9.64696 6.11435 8.68727 5.0761 7.41844 5.07622L7.41881 9.07622ZM5.64696 7.30921L5.64696 11.6658H9.64696L9.64696 7.30921H5.64696ZM7.1903 13.6658H7.64696V9.66576H7.1903V13.6658Z" fill="#F0A30A" mask="url(#path-7-inside-1_8207_27058)"/>
</svg>
