<svg width="18" height="18" viewBox="0 0 18 18" fill="none" xmlns="http://www.w3.org/2000/svg">
<path d="M17.8499 10.2388L16.9438 11.1448L15.1316 9.33267L16.0377 8.42659C16.1283 8.33598 16.2189 8.24537 16.4001 8.24537C16.4907 8.24537 16.672 8.33598 16.7626 8.42659L17.9405 9.6045C18.0311 9.78572 18.0311 10.0575 17.8499 10.2388ZM9.06085 15.3128V17.2156H10.9636L16.4907 11.6885L14.6786 9.87633L9.06085 15.3128ZM16.3095 1.81217C16.3095 0.815476 15.4941 0 14.4974 0H1.81217C0.815477 0 0 0.815476 0 1.81217V14.4974C0 15.4941 0.815477 16.3095 1.81217 16.3095H7.24868V14.588L8.24537 13.5913H1.81217L4.98347 9.51389L7.24868 12.2321L10.42 8.15476L11.8697 10.0575L16.3095 5.52712V1.81217Z" fill="white"/>
</svg>
