<svg width="32" height="32" viewBox="0 0 32 32" fill="none" xmlns="http://www.w3.org/2000/svg">
<path fill-rule="evenodd" clip-rule="evenodd" d="M7.40406 22.601C7.01363 22.9916 7.01452 23.624 7.40605 24.0135L7.86178 24.4669C8.25331 24.8564 8.88723 24.8555 9.27767 24.4649L15.912 17.8277L22.5462 24.4649C22.9367 24.8555 23.5706 24.8564 23.9621 24.4669L24.4179 24.0135C24.8094 23.624 24.8103 22.9916 24.4198 22.601L17.7803 15.9586L24.4194 9.31662C24.8098 8.92601 24.8089 8.2936 24.4174 7.90409L23.9617 7.45073C23.5701 7.06122 22.9362 7.06211 22.5458 7.45272L15.912 14.0894L9.27815 7.45272C8.88771 7.06211 8.2538 7.06122 7.86226 7.45073L7.40654 7.90409C7.015 8.2936 7.01411 8.92601 7.40455 9.31662L14.0436 15.9586L7.40406 22.601Z" fill="#E53935"/>
</svg>
