<?xml version="1.0"?>
<svg xmlns="http://www.w3.org/2000/svg" xmlns:xlink="http://www.w3.org/1999/xlink" xmlns:svgjs="http://svgjs.com/svgjs" version="1.1" width="512" height="512" x="0" y="0" viewBox="0 0 511.449 511.449" style="enable-background:new 0 0 512 512" xml:space="preserve" class=""><g><path xmlns="http://www.w3.org/2000/svg" d="m436.508 74.941c-99.913-99.913-261.639-99.928-361.566 0-99.914 99.912-99.93 261.64 0 361.567 99.913 99.913 261.639 99.928 361.566 0 99.913-99.912 99.929-261.64 0-361.567z" fill="#66000000" data-original="#ffebd2" style="" class=""/><path xmlns="http://www.w3.org/2000/svg" d="m231.345 1.208c-120.675 11.425-217.175 106.927-229.875 227.456-1.381 13.105 9.531 24.245 22.666 23.125 121.129-10.309 218.471-106.245 230.092-227.673 1.256-13.12-9.762-24.148-22.883-22.908z" fill="#66000000" data-original="#fff3e4" style="" class=""/><path xmlns="http://www.w3.org/2000/svg" d="m332.617 239.148-96-74.667c-13.774-10.715-33.893-.863-33.893 16.577v149.333c0 17.563 20.25 27.186 33.893 16.577l96-74.667c10.796-8.398 10.809-24.745 0-33.153z" fill="#ffffff" data-original="#99d856" style="" class=""/></g></svg>
