<svg width="36" height="36" viewBox="0 0 36 36" fill="none" xmlns="http://www.w3.org/2000/svg">
<circle cx="18" cy="18" r="18" fill="#FF6600"/>
<path d="M17.9732 18C16.2745 18 14.8978 16.6232 14.8978 14.9246C14.8978 13.2261 16.2746 11.8493 17.9732 11.8493C19.6717 11.8493 21.0485 13.2261 21.0485 14.9246C21.0485 16.6229 19.6717 18 17.9732 18ZM13.1893 22.4422V23.809H22.7573V22.4422C22.7573 20.5549 21.2276 19.0252 19.3403 19.0252H16.6066C14.7191 19.0249 13.1893 20.5549 13.1893 22.4422ZM28.5643 12.3602C26.4909 8.47335 22.4161 6 17.9732 6C13.271 6 8.97855 8.76834 7.03725 13.053C6.83588 13.497 7.03299 14.0202 7.47746 14.222C7.92119 14.4223 8.44478 14.2265 8.64646 13.7818C10.302 10.1278 13.9627 7.76673 17.9732 7.76673C21.7243 7.76673 25.1688 9.83308 26.9536 13.0904L25.379 13.8036L29.6735 16.8815L30.1921 11.6232L28.5643 12.3602ZM28.3201 22.1684C27.8838 21.9497 27.3532 22.1282 27.1352 22.564C25.3896 26.0609 21.8787 28.2336 17.9728 28.2336C14.3255 28.2336 11.024 26.3382 9.18132 23.24L10.7283 22.468L6.32185 19.5527L6 24.8269L7.59788 24.0298C9.74481 27.7305 13.6514 30 17.9728 30C22.5524 30 26.6689 27.4529 28.7155 23.353C28.9338 22.9162 28.7565 22.386 28.3201 22.1684Z" fill="white"/>
</svg>
