<svg width="36" height="36" viewBox="0 0 36 36" fill="none" xmlns="http://www.w3.org/2000/svg">
<circle cx="18" cy="18" r="18" fill="#DD4B39"/>
<path d="M24.2584 16.0542H23.7833V13.9065C23.8011 13.1374 23.6649 12.3725 23.3827 11.6567C23.1005 10.9409 22.678 10.2887 22.14 9.73838C21.6019 9.1881 20.9592 8.75084 20.2497 8.45231C19.5401 8.15378 18.778 8 18.0082 8C17.2383 8 16.4762 8.15378 15.7666 8.45231C15.0571 8.75084 14.4144 9.1881 13.8764 9.73838C13.3383 10.2887 12.9158 10.9409 12.6336 11.6567C12.3514 12.3725 12.2152 13.1374 12.233 13.9065V16.0542H11.7579C11.5262 16.055 11.297 16.1014 11.0833 16.1908C10.8696 16.2801 10.6755 16.4107 10.5123 16.5749C10.3491 16.7392 10.2198 16.934 10.1319 17.1482C10.044 17.3624 9.99921 17.5918 10 17.8233V26.2279C9.9988 26.4596 10.0433 26.6893 10.131 26.9039C10.2187 27.1184 10.3479 27.3136 10.5112 27.4782C10.6745 27.6428 10.8686 27.7736 11.0825 27.8632C11.2965 27.9527 11.5259 27.9992 11.7579 28H24.2584C24.4904 27.9992 24.7198 27.9527 24.9338 27.8632C25.1477 27.7736 25.3418 27.6428 25.5051 27.4782C25.6684 27.3136 25.7976 27.1184 25.8853 26.9039C25.973 26.6893 26.0175 26.4596 26.0163 26.2279V17.8233C26.0171 17.5918 25.9723 17.3624 25.8844 17.1482C25.7965 16.934 25.6672 16.7392 25.504 16.5749C25.3408 16.4107 25.1468 16.2801 24.933 16.1908C24.7193 16.1014 24.4901 16.055 24.2584 16.0542ZM18.7458 22.1466V23.2484C18.7459 23.3281 18.7153 23.4048 18.6604 23.4625C18.6054 23.5203 18.5304 23.5548 18.4507 23.5587H17.5656C17.4832 23.5587 17.4042 23.526 17.346 23.4678C17.2877 23.4096 17.255 23.3307 17.255 23.2484V22.1466C16.9933 21.986 16.7911 21.7445 16.6793 21.4586C16.5675 21.1727 16.5522 20.8582 16.6357 20.5628C16.7192 20.2674 16.8969 20.0073 17.1418 19.8221C17.3867 19.6369 17.6855 19.5367 17.9926 19.5367C18.2998 19.5367 18.5985 19.6369 18.8434 19.8221C19.0884 20.0073 19.2661 20.2674 19.3496 20.5628C19.433 20.8582 19.4177 21.1727 19.3059 21.4586C19.1941 21.7445 18.992 21.986 18.7302 22.1466H18.7458ZM21.2521 16.0604H14.7642V13.9127C14.7508 13.4786 14.8247 13.0462 14.9817 12.6411C15.1387 12.2361 15.3755 11.8667 15.678 11.5548C15.9806 11.243 16.3427 10.995 16.743 10.8257C17.1433 10.6564 17.5735 10.5692 18.0082 10.5692C18.4428 10.5692 18.873 10.6564 19.2733 10.8257C19.6736 10.995 20.0357 11.243 20.3383 11.5548C20.6408 11.8667 20.8776 12.2361 21.0346 12.6411C21.1916 13.0462 21.2655 13.4786 21.2521 13.9127V16.0604Z" fill="white"/>
</svg>
