<svg width="29" height="33" viewBox="0 0 29 33" fill="none" xmlns="http://www.w3.org/2000/svg">
<g filter="url(#filter0_d)">
<path d="M19.9516 10.508C19.605 11.8332 18.7962 12.1252 18.3646 12.1837C18.0987 12.7152 17.5144 13.8014 16.9298 14.3471C16.6962 14.5652 16.3926 14.7493 16.0274 14.8942C15.5612 15.0792 15.0688 15.173 14.5641 15.173C14.0594 15.173 13.5671 15.0792 13.1009 14.8942C12.7358 14.7494 12.4321 14.5653 12.1984 14.3471C11.6138 13.8015 11.0294 12.7152 10.7636 12.1837C10.3321 12.1252 9.52328 11.8333 9.17666 10.508C8.99128 9.79927 9.03875 9.22155 9.31783 8.7908C9.44118 8.60043 9.59071 8.47076 9.72994 8.38296C9.73035 8.24149 9.73626 8.06436 9.75266 7.86289C9.50199 7.51454 9.16118 6.76294 9.58327 5.54637C10.0294 4.26023 11.0381 4.06162 11.525 4.0444C11.6896 3.73843 12.0005 3.30401 12.5652 2.90463C13.192 2.46105 14.0105 2.2168 14.8699 2.2168C15.9274 2.2168 16.9915 2.58898 17.9471 3.29311C19.4964 4.43471 19.3637 6.96706 19.3257 7.42684C19.3819 7.81226 19.3975 8.14656 19.3982 8.38286C19.5375 8.47066 19.687 8.60032 19.8103 8.79069C20.0894 9.22155 20.1369 9.79917 19.9516 10.508ZM24.4828 20.3767V23.9713C24.4828 24.2526 24.2547 24.4806 23.9735 24.4806H5.15467C4.87344 24.4806 4.64539 24.2526 4.64539 23.9713V20.3767C4.64539 18.9041 5.52889 17.5991 6.8962 17.0521L11.3488 15.2711C11.477 15.22 11.6204 15.2227 11.7464 15.2793C11.8723 15.3358 11.97 15.441 12.0168 15.5707L13.1362 18.6654L13.3579 18.0282L13.0052 17.1662C12.9411 17.0092 12.9592 16.8304 13.0538 16.6895C13.1484 16.5487 13.3069 16.4641 13.4766 16.4641H15.6517C15.8213 16.4641 15.9799 16.5487 16.0745 16.6895C16.1691 16.8304 16.1872 17.0092 16.123 17.1662L15.7704 18.0282L15.9921 18.6654L17.1115 15.5707C17.1583 15.441 17.256 15.3358 17.3819 15.2793C17.5079 15.2228 17.6514 15.2201 17.7794 15.2711L22.2321 17.0521C23.5994 17.5991 24.4828 18.9041 24.4828 20.3767ZM21.7718 20.7675C21.7718 20.4863 21.5437 20.2583 21.2625 20.2583H17.8432C17.562 20.2583 17.3339 20.4863 17.3339 20.7675V22.3555C17.3339 22.6367 17.562 22.8648 17.8432 22.8648H21.2625C21.5437 22.8648 21.7718 22.6367 21.7718 22.3555V20.7675Z" fill="#3D8AD8"/>
</g>
<path fill-rule="evenodd" clip-rule="evenodd" d="M8.27216 16.502L8.32264 16.6765C7.77815 18.7148 7.98053 22.9107 12.6659 24.4804H5.15564C4.87442 24.4804 4.64636 24.2524 4.64636 23.9711V20.5025L4.74258 19.5453C5.00615 18.4275 5.79427 17.4931 6.89718 17.0519L8.27216 16.502Z" fill="#3D8AD8"/>
<defs>
<filter id="filter0_d" x="0.645386" y="2.2168" width="27.8374" height="30.2638" filterUnits="userSpaceOnUse" color-interpolation-filters="sRGB">
<feFlood flood-opacity="0" result="BackgroundImageFix"/>
<feColorMatrix in="SourceAlpha" type="matrix" values="0 0 0 0 0 0 0 0 0 0 0 0 0 0 0 0 0 0 127 0"/>
<feOffset dy="4"/>
<feGaussianBlur stdDeviation="2"/>
<feColorMatrix type="matrix" values="0 0 0 0 0 0 0 0 0 0 0 0 0 0 0 0 0 0 0.1 0"/>
<feBlend mode="normal" in2="BackgroundImageFix" result="effect1_dropShadow"/>
<feBlend mode="normal" in="SourceGraphic" in2="effect1_dropShadow" result="shape"/>
</filter>
</defs>
</svg>
