<svg width="28" height="33" viewBox="0 0 28 33" fill="none" xmlns="http://www.w3.org/2000/svg">
<g filter="url(#filter0_d)">
<path d="M19.3867 10.5099C19.0401 11.8352 18.2312 12.1271 17.7997 12.1857C17.5338 12.7172 16.9495 13.8034 16.3649 14.3491C16.1312 14.5672 15.8276 14.7512 15.4625 14.8962C14.9963 15.0811 14.5039 15.175 13.9992 15.175C13.4945 15.175 13.0021 15.0811 12.5359 14.8962C12.1709 14.7513 11.8671 14.5673 11.6335 14.3491C11.0488 13.8035 10.4645 12.7172 10.1986 12.1857C9.76717 12.1271 8.95833 11.8353 8.61172 10.5099C8.42634 9.80123 8.47381 9.2235 8.75289 8.79275C8.87624 8.60238 9.02576 8.47272 9.165 8.38492C9.16541 8.24344 9.17132 8.06631 9.18772 7.86484C8.93705 7.51649 8.59624 6.76489 9.01833 5.54833C9.46446 4.26219 10.4731 4.06357 10.96 4.04635C11.1246 3.74038 11.4356 3.30596 12.0003 2.90658C12.6271 2.463 13.4456 2.21875 14.305 2.21875C15.3624 2.21875 16.4265 2.59093 17.3821 3.29506C18.9315 4.43667 18.7988 6.96901 18.7608 7.42879C18.817 7.81422 18.8326 8.14851 18.8333 8.38481C18.9725 8.47261 19.1221 8.60228 19.2454 8.79265C19.5245 9.2235 19.5719 9.80112 19.3867 10.5099ZM23.9178 20.3787V23.9733C23.9178 24.2545 23.6898 24.4826 23.4086 24.4826H4.58972C4.3085 24.4826 4.08044 24.2545 4.08044 23.9733V20.3787C4.08044 18.906 4.96394 17.6011 6.33126 17.0541L10.7839 15.273C10.912 15.2219 11.0555 15.2247 11.1814 15.2813C11.3073 15.3377 11.405 15.4429 11.4519 15.5727L12.5713 18.6674L12.7929 18.0302L12.4403 17.1682C12.3761 17.0111 12.3942 16.8324 12.4889 16.6915C12.5835 16.5506 12.742 16.4661 12.9117 16.4661H15.0867C15.2564 16.4661 15.415 16.5506 15.5095 16.6915C15.6041 16.8324 15.6223 17.0111 15.5581 17.1682L15.2055 18.0302L15.4271 18.6674L16.5465 15.5727C16.5934 15.4429 16.691 15.3377 16.8169 15.2813C16.9429 15.2248 17.0865 15.222 17.2145 15.273L21.6671 17.0541C23.0344 17.6011 23.9178 18.906 23.9178 20.3787ZM21.2068 20.7695C21.2068 20.4883 20.9788 20.2602 20.6976 20.2602H17.2782C16.997 20.2602 16.769 20.4883 16.769 20.7695V22.3574C16.769 22.6387 16.997 22.8667 17.2782 22.8667H20.6976C20.9788 22.8667 21.2068 22.6387 21.2068 22.3574V20.7695Z" fill="#FF9B17"/>
</g>
<path fill-rule="evenodd" clip-rule="evenodd" d="M7.70601 16.5059L7.75623 16.6796C7.21163 18.7182 7.41421 22.9154 12.1024 24.4844H4.58924C4.30801 24.4844 4.07996 24.2564 4.07996 23.9751V20.5055L4.176 19.55C4.43939 18.432 5.22762 17.4972 6.33077 17.056L7.70601 16.5059Z" fill="#FF9B17"/>
<defs>
<filter id="filter0_d" x="0.0804443" y="2.21875" width="27.8374" height="30.2638" filterUnits="userSpaceOnUse" color-interpolation-filters="sRGB">
<feFlood flood-opacity="0" result="BackgroundImageFix"/>
<feColorMatrix in="SourceAlpha" type="matrix" values="0 0 0 0 0 0 0 0 0 0 0 0 0 0 0 0 0 0 127 0"/>
<feOffset dy="4"/>
<feGaussianBlur stdDeviation="2"/>
<feColorMatrix type="matrix" values="0 0 0 0 0 0 0 0 0 0 0 0 0 0 0 0 0 0 0.1 0"/>
<feBlend mode="normal" in2="BackgroundImageFix" result="effect1_dropShadow"/>
<feBlend mode="normal" in="SourceGraphic" in2="effect1_dropShadow" result="shape"/>
</filter>
</defs>
</svg>
