<svg width="27" height="27" viewBox="0 0 27 27" fill="none" xmlns="http://www.w3.org/2000/svg">
<path d="M8.3062 9.75302C9.91391 9.75302 11.2218 8.44502 11.2218 6.83745C11.2218 5.22974 9.91377 3.92188 8.3062 3.92188C6.69863 3.92188 5.39062 5.22974 5.39062 6.83745C5.39062 8.44502 6.69849 9.75302 8.3062 9.75302Z" fill="#109A4F"/>
<path d="M18.3347 11.5545C19.138 11.5545 19.7912 10.9013 19.7912 10.0985V9.11833C18.7759 9.08079 17.7649 8.93893 16.7783 8.69531V9.99804C16.7782 10.8579 17.4739 11.5545 18.3347 11.5545Z" fill="#109A4F"/>
<path d="M13.2951 17.5273C11.3748 17.5273 9.81262 19.0897 9.81262 21.0099V22.0797C9.81262 22.3825 10.058 22.6278 10.3607 22.6278H16.2306C16.5333 22.6278 16.7787 22.3825 16.7787 22.0797V21.0105C16.7787 19.09 15.2162 17.5273 13.2951 17.5273Z" fill="#109A4F"/>
<path d="M8.71655 21.0109C8.71655 19.2203 9.74996 17.6666 11.2516 16.9145C10.2438 16.2486 9.57756 15.1059 9.57756 13.8103C9.57756 12.8989 9.90738 12.0633 10.4536 11.4159C9.81918 11.0557 9.08633 10.8496 8.30609 10.8496C5.90002 10.8498 3.9425 12.8071 3.9425 15.2132V22.0808C3.9425 22.3835 4.18784 22.6288 4.49054 22.6288H8.81074C8.74994 22.4572 8.71655 22.2729 8.71655 22.0808V21.0109Z" fill="#109A4F"/>
<path d="M13.2961 16.4315C14.7419 16.4315 15.9181 15.2552 15.9181 13.8095C15.9181 12.3638 14.7419 11.1875 13.2961 11.1875C11.8502 11.1875 10.6741 12.3638 10.6741 13.8095C10.6741 15.2554 11.8502 16.4315 13.2961 16.4315Z" fill="#109A4F"/>
<path opacity="0.2" d="M13.2951 17.5273C11.3748 17.5273 9.81262 19.0897 9.81262 21.0099V22.0797C9.81262 22.3825 10.058 22.6278 10.3607 22.6278H16.2306C16.5333 22.6278 16.7787 22.3825 16.7787 22.0797V21.0105C16.7787 19.09 15.2162 17.5273 13.2951 17.5273Z" fill="#109A4F"/>
<path opacity="0.2" d="M13.2961 16.4315C14.7419 16.4315 15.9181 15.2552 15.9181 13.8095C15.9181 12.3638 14.7419 11.1875 13.2961 11.1875C11.8502 11.1875 10.6741 12.3638 10.6741 13.8095C10.6741 15.2554 11.8502 16.4315 13.2961 16.4315Z" fill="#109A4F"/>
<path d="M18.2849 12.6484C17.7991 12.6484 17.3316 12.7284 16.8947 12.8755C16.9722 13.1739 17.0135 13.4866 17.0135 13.8089C17.0135 15.1046 16.3471 16.2475 15.3391 16.9133C16.8409 17.6657 17.8745 19.2193 17.8745 21.0101V22.0793C17.8745 22.2714 17.8411 22.4558 17.7803 22.6274H22.1005C22.4032 22.6274 22.6485 22.3821 22.6485 22.0793V17.012C22.6485 14.6059 20.691 12.6484 18.2849 12.6484Z" fill="#109A4F"/>
<path d="M18.2857 3.92188C15.8795 3.92188 13.9219 5.87939 13.9219 8.28575V10.1445C14.7374 10.2832 15.4631 10.6884 16.0063 11.267C15.7953 10.8818 15.6829 10.4479 15.6829 9.99664V7.99189C15.6829 7.8232 15.7608 7.66393 15.8938 7.56003C16.0267 7.45627 16.2002 7.41945 16.3639 7.46041L17.0037 7.6204C18.0939 7.89299 19.2163 8.031 20.3402 8.031C20.6426 8.031 20.8882 8.27661 20.8882 8.57903V10.0971C20.8882 10.7917 20.6086 11.4227 20.1571 11.8834C20.6653 12.0698 21.1381 12.3291 21.5634 12.6492H22.1012C22.4037 12.6492 22.6492 12.4036 22.6492 12.1012V8.28575C22.6492 5.87939 20.6917 3.92188 18.2857 3.92188Z" fill="#109A4F"/>
</svg>
