<svg width="32" height="33" viewBox="0 0 32 33" fill="none" xmlns="http://www.w3.org/2000/svg">
<g filter="url(#filter0_d)">
<path fill-rule="evenodd" clip-rule="evenodd" d="M23.4263 20.3911H24.8939V20.8446H23.4263V20.3911ZM23.4263 19.4812H25.5446V19.9348H23.4263V19.4812ZM23.4263 18.5742H25.5446V19.0277H23.4263V18.5742ZM22.5079 17.0474V22.9631H26.4517V17.0474H22.5079ZM17.9782 17.0474V22.9631H21.922V17.0474H17.9782ZM17.0711 16.1544H27.3701V23.8701H23.4263C23.4255 23.9907 23.3771 24.106 23.2916 24.191C23.2061 24.276 23.0905 24.3237 22.9699 24.3237H21.4572C21.3389 24.3208 21.2264 24.2717 21.1437 24.1869C21.0611 24.1022 21.0149 23.9885 21.0149 23.8701H17.0711V16.1544ZM17.3528 12.774C18.6132 12.7786 19.8661 12.9684 21.0713 13.3374C22.5703 13.733 23.9836 14.4015 25.2404 15.3093H16.226V21.7884H8.9835C9.46227 21.5428 9.84565 21.1448 10.0732 20.6572C10.3007 20.1695 10.3593 19.62 10.2399 19.0954C10.1227 18.6537 9.88123 18.2549 9.54421 17.9463C9.20718 17.6378 8.78872 17.4323 8.33845 17.3544V17.2812C8.34571 16.9327 8.43036 16.5901 8.58626 16.2783C8.74216 15.9665 8.96542 15.6933 9.23989 15.4784C10.573 14.5211 12.0589 13.7971 13.6344 13.3374C14.8433 12.9852 16.0938 12.7957 17.3528 12.774ZM4.60164 10.0175C4.67263 9.99402 4.75005 9.99967 4.81688 10.0332C4.88371 10.0668 4.93447 10.1255 4.95801 10.1965L7.51022 17.8981C7.74844 17.8436 7.99517 17.8373 8.23586 17.8796C8.47655 17.9219 8.70634 18.012 8.91169 18.1445C9.11704 18.277 9.29379 18.4492 9.43154 18.6511C9.56929 18.8529 9.66524 19.0803 9.71375 19.3199C9.76225 19.5594 9.76233 19.8062 9.71398 20.0457C9.66562 20.2853 9.56981 20.5127 9.43219 20.7147C9.29457 20.9166 9.11793 21.089 8.91266 21.2216C8.7074 21.3542 8.47767 21.4444 8.237 21.4869C7.18063 21.749 6.59751 21.8955 6.15242 20.1208C5.76648 18.5657 6.16369 18.2587 6.97499 18.0306L4.42278 10.3739C4.41112 10.3387 4.40651 10.3016 4.40919 10.2647C4.41187 10.2278 4.4218 10.1917 4.43841 10.1586C4.45502 10.1256 4.47799 10.0961 4.506 10.0718C4.53401 10.0476 4.56649 10.0292 4.60164 10.0175ZM17.3528 2.63281C18.2443 2.63281 19.1157 2.89715 19.8569 3.39241C20.5981 3.88767 21.1758 4.5916 21.5169 5.41518C21.8581 6.23876 21.9473 7.14501 21.7734 8.01932C21.5995 8.89363 21.1702 9.69673 20.5399 10.3271C19.9095 10.9574 19.1064 11.3867 18.2321 11.5606C17.3578 11.7345 16.4516 11.6453 15.628 11.3041C14.8044 10.963 14.1005 10.3853 13.6052 9.64407C13.11 8.90287 12.8456 8.03145 12.8456 7.14001C12.8456 5.94462 13.3205 4.7982 14.1657 3.95294C15.011 3.10768 16.1574 2.63281 17.3528 2.63281Z" fill="#DC7B62"/>
</g>
<defs>
<filter id="filter0_d" x="0.408447" y="2.63281" width="30.9616" height="29.6909" filterUnits="userSpaceOnUse" color-interpolation-filters="sRGB">
<feFlood flood-opacity="0" result="BackgroundImageFix"/>
<feColorMatrix in="SourceAlpha" type="matrix" values="0 0 0 0 0 0 0 0 0 0 0 0 0 0 0 0 0 0 127 0"/>
<feOffset dy="4"/>
<feGaussianBlur stdDeviation="2"/>
<feColorMatrix type="matrix" values="0 0 0 0 0 0 0 0 0 0 0 0 0 0 0 0 0 0 0.1 0"/>
<feBlend mode="normal" in2="BackgroundImageFix" result="effect1_dropShadow"/>
<feBlend mode="normal" in="SourceGraphic" in2="effect1_dropShadow" result="shape"/>
</filter>
</defs>
</svg>
