<svg width="40" height="40" viewBox="0 0 40 40" fill="none" xmlns="http://www.w3.org/2000/svg">
<g filter="url(#filter0_d_8692_5853)">
<circle cx="20" cy="16" r="15" fill="#1A2030" stroke="#F8F8F8" stroke-width="2"/>
<path d="M19.53 16.85C20.3 15.46 21.78 14.64 22.64 13.41C23.55 12.12 23.04 9.71 20.46 9.71C18.77 9.71 17.94 10.99 17.59 12.05L15 10.96C15.71 8.83 17.64 7 20.45 7C22.8 7 24.41 8.07 25.23 9.41C25.93 10.56 26.34 12.71 25.26 14.31C24.06 16.08 22.91 16.62 22.29 17.76C22.04 18.22 21.94 18.52 21.94 20H19.05C19.04 19.22 18.92 17.95 19.53 16.85ZM22.46 24C22.46 25.1 21.56 26 20.46 26C19.36 26 18.46 25.1 18.46 24C18.46 22.9 19.36 22 20.46 22C21.56 22 22.46 22.9 22.46 24Z" fill="#F8F8F8"/>
</g>
<defs>
<filter id="filter0_d_8692_5853" x="0" y="0" width="40" height="40" filterUnits="userSpaceOnUse" color-interpolation-filters="sRGB">
<feFlood flood-opacity="0" result="BackgroundImageFix"/>
<feColorMatrix in="SourceAlpha" type="matrix" values="0 0 0 0 0 0 0 0 0 0 0 0 0 0 0 0 0 0 127 0" result="hardAlpha"/>
<feOffset dy="4"/>
<feGaussianBlur stdDeviation="2"/>
<feComposite in2="hardAlpha" operator="out"/>
<feColorMatrix type="matrix" values="0 0 0 0 0 0 0 0 0 0 0 0 0 0 0 0 0 0 0.25 0"/>
<feBlend mode="normal" in2="BackgroundImageFix" result="effect1_dropShadow_8692_5853"/>
<feBlend mode="normal" in="SourceGraphic" in2="effect1_dropShadow_8692_5853" result="shape"/>
</filter>
</defs>
</svg>
