<svg width="28" height="25" viewBox="0 0 28 25" fill="none" xmlns="http://www.w3.org/2000/svg">
<path d="M26.1215 21.8182H16.9267L26.9786 11.7662C27.452 11.2929 27.452 10.5254 26.9786 10.052L17.2817 0.35503C16.8084 -0.118343 16.0409 -0.118343 15.5675 0.35503L1.02206 14.9004C0.794669 15.1277 0.666992 15.436 0.666992 15.7575C0.666992 16.079 0.794669 16.3873 1.02206 16.6146L8.29478 23.8874C8.52209 24.1147 8.83037 24.2423 9.15183 24.2423L14.0003 24.2424C14.0008 24.2424 14.0012 24.2423 14.0017 24.2423L26.1215 24.2424C26.7908 24.2424 27.3336 23.6997 27.3336 23.0303C27.3336 22.3609 26.7909 21.8182 26.1215 21.8182ZM16.4245 2.92634L24.4073 10.9091L17.3942 17.9222L9.41146 9.93942L16.4245 2.92634Z" fill="white"/>
</svg>
