<svg width="20" height="20" viewBox="0 0 20 20" fill="none" xmlns="http://www.w3.org/2000/svg">
<rect width="20" height="20" fill="#C4C4C4" fill-opacity="0.02"/>
<path d="M4.69039 7.79199C4.57387 7.8127 4.46694 7.86988 4.38503 7.95529L2.07275 10.2259M15.9709 7.79199C16.0875 7.81248 16.1945 7.86969 16.2762 7.95529L18.5893 10.2243L15.9709 7.79199Z" stroke="#69686B" stroke-width="0.8" stroke-miterlimit="2.61"/>
<path d="M4.63171 10.0635V5.49839C4.63171 4.67525 5.04016 4 5.54249 4H15.0949C15.594 4 16.0008 4.6741 16.0008 5.49839V10.0635" stroke="#69686B" stroke-width="0.8" stroke-miterlimit="2.61"/>
<path d="M4.96619 4.30176L10.3305 7.96449L15.6947 4.30176" stroke="#69686B" stroke-width="1.1" stroke-miterlimit="2.61"/>
<path d="M3.06964 9.83398H7.00589L7.63132 11.4669C7.69255 11.6302 7.77175 11.7797 7.94321 11.7797H12.7172C12.8894 11.7797 12.9686 11.6278 13.0299 11.4669L13.6545 9.83398H17.5916C17.9813 9.83398 18.3552 9.98882 18.6308 10.2644C18.9064 10.5401 19.0612 10.9139 19.0612 11.3036V16.9308C19.0612 17.3206 18.9064 17.6944 18.6308 17.97C18.3552 18.2457 17.9813 18.4005 17.5916 18.4005H3.06964C2.67986 18.4005 2.30605 18.2457 2.03043 17.97C1.75481 17.6944 1.59998 17.3206 1.59998 16.9308V11.3036C1.59998 10.9139 1.75481 10.5401 2.03043 10.2644C2.30605 9.98882 2.67986 9.83398 3.06964 9.83398Z" fill="#E5E6EB" stroke="#69686B" stroke-width="0.8" stroke-miterlimit="2.61"/>
</svg>
