<svg width="24" height="24" viewBox="0 0 24 24" fill="none" xmlns="http://www.w3.org/2000/svg">
<path d="M14.978 13.4782H16.583C16.8202 13.4782 17.01 13.6515 17.01 13.8671V15.4603C17.01 15.6758 16.8202 15.8491 16.583 15.8491H14.978C14.7418 15.8491 14.5511 15.6758 14.5511 15.4603V13.8671C14.5511 13.6517 14.7418 13.4782 14.978 13.4782ZM11.437 13.4782H13.0419C13.2791 13.4782 13.4689 13.6515 13.4689 13.8671V15.4603C13.4689 15.6758 13.2791 15.8491 13.0419 15.8491H11.437C11.2009 15.8491 11.01 15.6758 11.01 15.4603V13.8671C11.01 13.6517 11.2009 13.4782 11.437 13.4782ZM7.8959 13.4782H9.50106C9.73712 13.4782 9.92782 13.6515 9.92782 13.8671V15.4603C9.92782 15.6758 9.73712 15.8491 9.50106 15.8491H7.8959C7.6587 15.8491 7.46894 15.6758 7.46894 15.4603V13.8671C7.46894 13.6517 7.6587 13.4782 7.8959 13.4782ZM14.978 10.0634H16.583C16.8202 10.0634 17.01 10.2367 17.01 10.4523V12.0459C17.01 12.261 16.8202 12.4347 16.583 12.4347H14.978C14.7418 12.4347 14.5511 12.261 14.5511 12.0459V10.4523C14.5511 10.2369 14.7418 10.0634 14.978 10.0634ZM11.437 10.0634H13.0419C13.2791 10.0634 13.4689 10.2367 13.4689 10.4523V12.0459C13.4689 12.261 13.2791 12.4347 13.0419 12.4347H11.437C11.2009 12.4347 11.01 12.261 11.01 12.0459V10.4523C11.01 10.2369 11.2009 10.0634 11.437 10.0634ZM8.52342 5C8.17066 5 7.88603 5.27447 7.88603 5.61427V6.06916H6.55374C5.693 6.06916 5 6.75826 5 7.61406V16.8347C5 17.6903 5.69281 18.3792 6.55374 18.3792H17.9252C18.7859 18.3792 19.4787 17.6901 19.4787 16.8347V7.61443C19.4787 6.75845 18.7861 6.06952 17.9252 6.06952H16.5929V6.55168C16.5929 7.40876 15.8101 7.60949 15.3139 7.60949V5.61445C15.3139 5.27465 15.0293 5.00018 14.6765 5.00018H13.8839C13.5311 5.00018 13.2465 5.27465 13.2465 5.61445V6.06934H11.2324V6.55149C11.2324 7.40858 10.4497 7.60931 9.95363 7.60931V5.61445C9.95363 5.27465 9.66899 5.00018 9.31623 5.00018H8.52342V5Z" fill="#69686B"/>
</svg>
