<svg width="24" height="24" viewBox="0 0 24 24" fill="none" xmlns="http://www.w3.org/2000/svg">
<path d="M16.8293 13.9626V10.7262C16.8293 9.54574 16.4618 8.42559 15.7666 7.48683C15.1855 6.70228 14.393 6.08933 13.5027 5.72866C13.3787 4.75463 12.5623 4 11.5767 4C10.5911 4 9.7746 4.75463 9.65069 5.72866C8.76036 6.08933 7.9679 6.70228 7.38683 7.48683C6.69157 8.42559 6.32409 9.54574 6.32409 10.7262V13.9626L5.06524 16.5375C4.96947 16.7334 4.97969 16.9662 5.09227 17.1526C5.20489 17.339 5.40388 17.4524 5.61808 17.4524H17.5353C17.7495 17.4524 17.9485 17.339 18.0611 17.1526C18.1737 16.9662 18.184 16.7335 18.0882 16.5375L16.8293 13.9626Z" fill="#69686B"/>
<path d="M11.5766 20.161C12.6894 20.161 13.6735 19.5885 14.2635 18.7168H8.88965C9.4797 19.5885 10.4638 20.161 11.5766 20.161Z" fill="#69686B"/>
</svg>
