<svg width="24" height="24" viewBox="0 0 24 24" fill="none" xmlns="http://www.w3.org/2000/svg">
<path d="M18.363 16.9999C19.6141 16.9999 18.3833 15.7305 18.3833 15.7305L15.1936 12.2251C14.8834 11.8842 14.2847 11.3668 13.9347 11.6522C13.5847 11.9376 13.1173 12.5161 12.7918 12.8424L12.1322 13.5026C11.7786 13.8156 11.5065 13.5026 11.5065 13.5026L10.8316 12.8377C10.5033 12.5141 10.0331 11.9496 9.68257 11.687C9.33204 11.4244 8.73583 11.9238 8.42647 12.2654L5.25545 15.7692C4.0038 17 5.23515 17 5.23515 17H18.363V16.9999ZM17.8216 14.116C18.1318 14.4571 18.585 15.0502 18.8913 15.3946C19.2371 15.7833 19.6324 16.0785 19.6324 15.3977L19.6174 8.55901C19.6163 8.09799 19.6291 7.21887 19.3141 7.37661C19.197 7.43533 19.0367 7.55743 18.8192 7.77528L16.238 9.88718C15.8813 10.179 15.3786 10.5362 15.2141 10.7741C15.1103 10.9241 15.0628 11.0985 15.213 11.2493L17.8216 14.116ZM10.8641 11.6864C11.2205 11.9788 11.6078 12.3936 11.8056 12.3942C12.0034 12.3944 12.3979 11.9891 12.7559 11.6986L18.3724 7.14265C18.7305 6.85247 19.3472 6.26798 19.0407 6.11131C18.8193 5.99806 18.4323 6 18.4323 6H5.23397C4.04575 6 4.64999 6.58675 4.64999 6.58675L10.8641 11.6864ZM4.74206 15.3946C5.04891 15.0505 5.50241 14.4571 5.81233 14.116L8.41941 11.249C8.57046 11.0982 8.5232 10.9238 8.41941 10.7738C8.25501 10.536 7.752 10.179 7.39502 9.88718L5.45924 8.30361C5.10256 8.01175 4.63352 7.53436 4.31884 7.37661C4.00416 7.21887 4.01782 8.09829 4.01669 8.55901L4.00002 15.3977C3.99981 16.0785 4.39572 15.7833 4.74206 15.3946Z" fill="#69686B"/>
</svg>
