<svg width="40" height="40" viewBox="0 0 40 40" fill="none" xmlns="http://www.w3.org/2000/svg">
<rect width="40" height="40" fill="#C4C4C4" fill-opacity="0.02"/>
<mask id="path-2-inside-1" fill="white">
<path fill-rule="evenodd" clip-rule="evenodd" d="M30.0257 15.5314C30.0257 9.24835 23.8638 4.16602 16.2615 4.16602C8.66191 4.16602 2.5 9.2547 2.5 15.5314C2.5 19.0763 4.46321 22.2432 7.5428 24.327L7.5782 24.3873C7.65772 24.518 7.70849 24.6695 7.72606 24.8285C7.74363 24.9875 7.72745 25.149 7.67894 25.299C7.07442 26.5437 6.30527 27.6693 5.39988 28.6343C4.07111 30.0319 4.71916 30.3972 6.58162 30.0319C9.05128 29.314 11.5019 28.107 13.9525 26.7411C14.7188 26.8474 15.4898 26.9005 16.2615 26.8999C23.8638 26.8999 30.0257 21.8144 30.0257 15.5314ZM14.8645 29.8892C17.2606 31.56 20.3566 32.567 23.7384 32.567C24.5092 32.5676 25.2793 32.5146 26.0447 32.4082C28.4953 33.7772 30.9459 34.9811 33.4183 35.699C35.2808 36.0674 35.9288 35.699 34.5973 34.3045C33.6928 33.3382 32.9246 32.2116 32.321 30.966C32.2718 30.8164 32.2551 30.6549 32.2722 30.4959C32.2893 30.3369 32.3397 30.1853 32.419 30.0544L32.4571 29.9941C35.5367 27.9103 37.4999 24.7434 37.4999 21.2016C37.4999 17.5551 35.4223 14.3119 32.1957 12.2345C32.5607 13.4479 32.7449 14.7253 32.7403 16.0113C32.7403 23.7746 25.8949 30.0671 17.4485 30.0671C16.5908 30.0664 15.734 30.0006 14.8836 29.8702L14.8645 29.8892ZM10.8334 15.8328C10.8334 16.7532 10.0872 17.4994 9.16676 17.4994C8.24628 17.4994 7.50008 16.7532 7.50008 15.8328C7.50008 14.9123 8.24628 14.1661 9.16676 14.1661C10.0872 14.1661 10.8334 14.9123 10.8334 15.8328ZM15.8334 17.4994C16.7539 17.4994 17.5001 16.7532 17.5001 15.8328C17.5001 14.9123 16.7539 14.1661 15.8334 14.1661C14.9129 14.1661 14.1667 14.9123 14.1667 15.8328C14.1667 16.7532 14.9129 17.4994 15.8334 17.4994ZM22.5001 17.4994C23.4206 17.4994 24.1668 16.7532 24.1668 15.8328C24.1668 14.9123 23.4206 14.1661 22.5001 14.1661C21.5796 14.1661 20.8334 14.9123 20.8334 15.8328C20.8334 16.7532 21.5796 17.4994 22.5001 17.4994Z"/>
</mask>
<path fill-rule="evenodd" clip-rule="evenodd" d="M30.0257 15.5314C30.0257 9.24835 23.8638 4.16602 16.2615 4.16602C8.66191 4.16602 2.5 9.2547 2.5 15.5314C2.5 19.0763 4.46321 22.2432 7.5428 24.327L7.5782 24.3873C7.65772 24.518 7.70849 24.6695 7.72606 24.8285C7.74363 24.9875 7.72745 25.149 7.67894 25.299C7.07442 26.5437 6.30527 27.6693 5.39988 28.6343C4.07111 30.0319 4.71916 30.3972 6.58162 30.0319C9.05128 29.314 11.5019 28.107 13.9525 26.7411C14.7188 26.8474 15.4898 26.9005 16.2615 26.8999C23.8638 26.8999 30.0257 21.8144 30.0257 15.5314ZM14.8645 29.8892C17.2606 31.56 20.3566 32.567 23.7384 32.567C24.5092 32.5676 25.2793 32.5146 26.0447 32.4082C28.4953 33.7772 30.9459 34.9811 33.4183 35.699C35.2808 36.0674 35.9288 35.699 34.5973 34.3045C33.6928 33.3382 32.9246 32.2116 32.321 30.966C32.2718 30.8164 32.2551 30.6549 32.2722 30.4959C32.2893 30.3369 32.3397 30.1853 32.419 30.0544L32.4571 29.9941C35.5367 27.9103 37.4999 24.7434 37.4999 21.2016C37.4999 17.5551 35.4223 14.3119 32.1957 12.2345C32.5607 13.4479 32.7449 14.7253 32.7403 16.0113C32.7403 23.7746 25.8949 30.0671 17.4485 30.0671C16.5908 30.0664 15.734 30.0006 14.8836 29.8702L14.8645 29.8892ZM10.8334 15.8328C10.8334 16.7532 10.0872 17.4994 9.16676 17.4994C8.24628 17.4994 7.50008 16.7532 7.50008 15.8328C7.50008 14.9123 8.24628 14.1661 9.16676 14.1661C10.0872 14.1661 10.8334 14.9123 10.8334 15.8328ZM15.8334 17.4994C16.7539 17.4994 17.5001 16.7532 17.5001 15.8328C17.5001 14.9123 16.7539 14.1661 15.8334 14.1661C14.9129 14.1661 14.1667 14.9123 14.1667 15.8328C14.1667 16.7532 14.9129 17.4994 15.8334 17.4994ZM22.5001 17.4994C23.4206 17.4994 24.1668 16.7532 24.1668 15.8328C24.1668 14.9123 23.4206 14.1661 22.5001 14.1661C21.5796 14.1661 20.8334 14.9123 20.8334 15.8328C20.8334 16.7532 21.5796 17.4994 22.5001 17.4994Z" fill="white"/>
<path d="M7.5428 24.327L8.40538 23.8211L8.29079 23.6257L8.1032 23.4988L7.5428 24.327ZM7.5782 24.3873L6.71562 24.8932L6.7197 24.9002L6.72389 24.9071L7.5782 24.3873ZM7.72606 24.8285L8.72001 24.7187L8.72001 24.7186L7.72606 24.8285ZM7.67894 25.299L8.57847 25.7358L8.60894 25.6731L8.63041 25.6067L7.67894 25.299ZM5.39988 28.6343L6.12463 29.3233L6.12914 29.3185L5.39988 28.6343ZM6.58162 30.0319L6.77408 31.0132L6.81788 31.0046L6.86074 30.9921L6.58162 30.0319ZM13.9525 26.7411L14.09 25.7506L13.7582 25.7045L13.4656 25.8676L13.9525 26.7411ZM16.2615 26.8999V25.8999H16.2608L16.2615 26.8999ZM23.7384 32.567L23.7393 31.567H23.7384V32.567ZM14.8645 29.8892L14.1574 29.1821L13.313 30.0265L14.2925 30.7095L14.8645 29.8892ZM26.0447 32.4082L26.5324 31.5352L26.2394 31.3715L25.907 31.4177L26.0447 32.4082ZM33.4183 35.699L33.1395 36.6593L33.1814 36.6715L33.2242 36.68L33.4183 35.699ZM34.5973 34.3045L33.8672 34.9879L33.8741 34.9951L34.5973 34.3045ZM32.321 30.966L31.3709 31.278L31.3918 31.3417L31.4211 31.4021L32.321 30.966ZM32.419 30.0544L31.5735 29.5204L31.5686 29.5282L31.5637 29.5362L32.419 30.0544ZM32.4571 29.9941L31.8967 29.1658L31.7234 29.2831L31.6116 29.46L32.4571 29.9941ZM32.1957 12.2345L32.7371 11.3937L30.457 9.92569L31.2381 12.5226L32.1957 12.2345ZM32.7403 16.0113L31.7403 16.0077V16.0113H32.7403ZM17.4485 30.0671L17.4477 31.0671H17.4485V30.0671ZM14.8836 29.8702L15.0351 28.8817L14.5346 28.805L14.1765 29.163L14.8836 29.8702ZM16.2615 5.16602C23.4996 5.16602 29.0257 9.97157 29.0257 15.5314H31.0257C31.0257 8.52512 24.228 3.16602 16.2615 3.16602V5.16602ZM3.5 15.5314C3.5 9.97749 9.02665 5.16602 16.2615 5.16602V3.16602C8.29716 3.16602 1.5 8.53191 1.5 15.5314H3.5ZM8.1032 23.4988C5.24415 21.5642 3.5 18.6837 3.5 15.5314H1.5C1.5 19.4689 3.68227 22.9222 6.9824 25.1552L8.1032 23.4988ZM8.44078 23.8814L8.40538 23.8211L6.68022 24.8329L6.71562 24.8932L8.44078 23.8814ZM8.72001 24.7186C8.68714 24.4212 8.59141 24.1287 8.4325 23.8676L6.72389 24.9071C6.72369 24.9068 6.72526 24.9093 6.7272 24.9151C6.72914 24.9209 6.73105 24.9287 6.73211 24.9383L8.72001 24.7186ZM8.63041 25.6067C8.72312 25.3201 8.75288 25.0161 8.72001 24.7187L6.73211 24.9383C6.73437 24.9588 6.73178 24.9779 6.72748 24.9912L8.63041 25.6067ZM6.12914 29.3185C7.1065 28.2768 7.93198 27.067 8.57847 25.7358L6.77942 24.8621C6.21685 26.0204 5.50403 27.0618 4.67063 27.95L6.12914 29.3185ZM6.38915 29.0506C5.95446 29.1358 5.64207 29.1674 5.44 29.1643C5.39247 29.1635 5.35668 29.1609 5.3312 29.1579C5.30536 29.1549 5.29485 29.152 5.29644 29.1525C5.29767 29.1528 5.3182 29.1582 5.35073 29.1747C5.38378 29.1915 5.43402 29.2222 5.48787 29.274C5.54335 29.3275 5.59587 29.3971 5.63498 29.4818C5.67394 29.5661 5.69148 29.6478 5.69634 29.7171C5.7054 29.8466 5.66981 29.9139 5.68039 29.8894C5.68896 29.8695 5.71951 29.8096 5.7967 29.7053C5.87186 29.6037 5.97857 29.4769 6.12462 29.3233L4.67514 27.9452C4.31886 28.32 4.01175 28.7079 3.8437 29.0979C3.67186 29.4966 3.5501 30.1843 4.10021 30.7143C4.50924 31.1084 5.07132 31.1588 5.40877 31.164C5.81051 31.1703 6.27754 31.1106 6.77408 31.0132L6.38915 29.0506ZM13.4656 25.8676C11.0353 27.2222 8.66285 28.3855 6.30249 29.0716L6.86074 30.9921C9.43972 30.2425 11.9685 28.9917 14.4393 27.6146L13.4656 25.8676ZM16.2608 25.8999C15.5354 25.9004 14.8106 25.8506 14.09 25.7506L13.815 27.7316C14.627 27.8443 15.4442 27.9005 16.2622 27.8999L16.2608 25.8999ZM29.0257 15.5314C29.0257 21.0915 23.4992 25.8999 16.2615 25.8999V27.8999C24.2284 27.8999 31.0257 22.5373 31.0257 15.5314H29.0257ZM23.7384 31.567C20.5529 31.567 17.6582 30.6182 15.4365 29.069L14.2925 30.7095C16.8631 32.5019 20.1602 33.567 23.7384 33.567V31.567ZM25.907 31.4177C25.1874 31.5178 24.4636 31.5676 23.7393 31.567L23.7376 33.567C24.5548 33.5677 25.3713 33.5114 26.1824 33.3986L25.907 31.4177ZM33.6971 34.7386C31.3339 34.0524 28.9613 32.892 26.5324 31.5352L25.557 33.2812C28.0294 34.6624 30.558 35.9097 33.1395 36.6593L33.6971 34.7386ZM33.8741 34.9951C34.0203 35.1483 34.1272 35.2748 34.2025 35.3762C34.2799 35.4803 34.3105 35.5401 34.3191 35.5599C34.3297 35.5844 34.2939 35.517 34.3028 35.3874C34.3076 35.3179 34.325 35.2361 34.3639 35.1516C34.403 35.0667 34.4556 34.9969 34.5112 34.9432C34.5651 34.8911 34.6155 34.8604 34.6487 34.8435C34.6814 34.8269 34.7021 34.8214 34.7034 34.8211C34.7052 34.8206 34.6948 34.8234 34.669 34.8265C34.6437 34.8294 34.608 34.832 34.5605 34.8327C34.3589 34.8358 34.0467 34.8039 33.6124 34.718L33.2242 36.68C33.7211 36.7783 34.1884 36.8385 34.5904 36.8325C34.9281 36.8275 35.4907 36.7773 35.8999 36.3825C36.4502 35.8515 36.3268 35.1632 36.1544 34.7651C35.9856 34.3754 35.6777 33.988 35.3206 33.6139L33.8741 34.9951ZM31.4211 31.4021C32.0665 32.734 32.8909 33.9449 33.8673 34.9879L35.3274 33.6211C34.4946 32.7316 33.7826 31.6891 33.2209 30.53L31.4211 31.4021ZM31.2779 30.389C31.2459 30.6869 31.2768 30.9913 31.3709 31.278L33.2711 30.6541C33.2669 30.6415 33.2643 30.6229 33.2665 30.6028L31.2779 30.389ZM31.5637 29.5362C31.4051 29.798 31.3099 30.0911 31.2779 30.389L33.2665 30.6028C33.2675 30.5934 33.2693 30.5858 33.2712 30.5801C33.2731 30.5745 33.2745 30.5721 33.2743 30.5726L31.5637 29.5362ZM31.6116 29.46L31.5735 29.5204L33.2645 30.5884L33.3026 30.5281L31.6116 29.46ZM36.4999 21.2016C36.4999 24.3506 34.7559 27.2312 31.8967 29.1658L33.0175 30.8223C36.3175 28.5894 38.4999 25.1361 38.4999 21.2016H36.4999ZM31.6544 13.0753C34.6541 15.0066 36.4999 17.9597 36.4999 21.2016H38.4999C38.4999 17.1504 36.1906 13.6172 32.7371 11.3937L31.6544 13.0753ZM33.7403 16.0149C33.7453 14.6316 33.5472 13.2559 33.1533 11.9464L31.2381 12.5226C31.5742 13.64 31.7446 14.819 31.7403 16.0077L33.7403 16.0149ZM17.4485 31.0671C26.3662 31.0671 33.7403 24.4045 33.7403 16.0113H31.7403C31.7403 23.1446 25.4236 29.0671 17.4485 29.0671V31.0671ZM14.732 30.8586C15.6321 30.9966 16.5393 31.0663 17.4477 31.0671L17.4494 29.0671C16.6423 29.0664 15.8358 29.0045 15.0351 28.8817L14.732 30.8586ZM15.5716 30.5964L15.5906 30.5773L14.1765 29.163L14.1574 29.1821L15.5716 30.5964ZM9.16676 18.4994C10.6395 18.4994 11.8334 17.3055 11.8334 15.8328H9.83343C9.83343 16.2009 9.53495 16.4994 9.16676 16.4994V18.4994ZM6.50008 15.8328C6.50008 17.3055 7.69399 18.4994 9.16676 18.4994V16.4994C8.79856 16.4994 8.50008 16.2009 8.50008 15.8328H6.50008ZM9.16676 13.1661C7.69399 13.1661 6.50008 14.36 6.50008 15.8328H8.50008C8.50008 15.4646 8.79856 15.1661 9.16676 15.1661V13.1661ZM11.8334 15.8328C11.8334 14.36 10.6395 13.1661 9.16676 13.1661V15.1661C9.53495 15.1661 9.83343 15.4646 9.83343 15.8328H11.8334ZM16.5001 15.8328C16.5001 16.2009 16.2016 16.4994 15.8334 16.4994V18.4994C17.3062 18.4994 18.5001 17.3055 18.5001 15.8328H16.5001ZM15.8334 15.1661C16.2016 15.1661 16.5001 15.4646 16.5001 15.8328H18.5001C18.5001 14.36 17.3062 13.1661 15.8334 13.1661V15.1661ZM15.1667 15.8328C15.1667 15.4646 15.4652 15.1661 15.8334 15.1661V13.1661C14.3607 13.1661 13.1667 14.36 13.1667 15.8328H15.1667ZM15.8334 16.4994C15.4652 16.4994 15.1667 16.2009 15.1667 15.8328H13.1667C13.1667 17.3055 14.3607 18.4994 15.8334 18.4994V16.4994ZM23.1668 15.8328C23.1668 16.2009 22.8683 16.4994 22.5001 16.4994V18.4994C23.9729 18.4994 25.1668 17.3055 25.1668 15.8328H23.1668ZM22.5001 15.1661C22.8683 15.1661 23.1668 15.4646 23.1668 15.8328H25.1668C25.1668 14.36 23.9729 13.1661 22.5001 13.1661V15.1661ZM21.8334 15.8328C21.8334 15.4646 22.1319 15.1661 22.5001 15.1661V13.1661C21.0273 13.1661 19.8334 14.36 19.8334 15.8328H21.8334ZM22.5001 16.4994C22.1319 16.4994 21.8334 16.2009 21.8334 15.8328H19.8334C19.8334 17.3055 21.0273 18.4994 22.5001 18.4994V16.4994Z" fill="#616161" mask="url(#path-2-inside-1)"/>
</svg>
