<svg width="38" height="40" viewBox="0 0 38 40" fill="none" xmlns="http://www.w3.org/2000/svg">
<path d="M18.9504 15.054L18.9519 15.054C19.5429 15.0522 20.1283 15.1678 20.6741 15.3942C21.22 15.6205 21.7155 15.9531 22.1317 16.3725L22.1322 16.3731C22.9834 17.2283 23.453 18.3537 23.453 19.5566C23.453 20.759 22.9838 21.8841 22.1331 22.7392C21.2779 23.5899 20.1529 24.0591 18.9504 24.0591C17.7479 24.0591 16.6228 23.5899 15.7676 22.7392C14.917 21.884 14.4478 20.759 14.4478 19.5566C14.4478 18.354 14.9171 17.2288 15.768 16.3736C16.6221 15.5196 17.7466 15.054 18.9504 15.054ZM33.9654 22.5026L33.9201 22.7804L34.134 22.9632L37.0563 25.461C37.0564 25.4612 37.0566 25.4613 37.0567 25.4614C37.353 25.7169 37.4597 26.1232 37.3349 26.4831L37.3348 26.4834L37.2966 26.5939C37.2963 26.5948 37.2959 26.5958 37.2956 26.5968C36.5068 28.7878 35.3438 30.8042 33.8278 32.595C33.8275 32.5953 33.8272 32.5957 33.8269 32.596L33.7484 32.6876L33.7463 32.6901C33.6243 32.8343 33.4613 32.9379 33.279 32.9873C33.0969 33.0366 32.9042 33.0293 32.7263 32.9666C32.726 32.9665 32.7258 32.9664 32.7256 32.9663L29.0964 31.6747L28.8302 31.5799L28.6117 31.7591C27.3125 32.8244 25.867 33.6596 24.3002 34.2483L24.0357 34.3476L23.9844 34.6254L23.2825 38.4208C23.2825 38.4208 23.2825 38.4209 23.2825 38.4209C23.248 38.607 23.1577 38.7782 23.0236 38.9118C22.8895 39.0454 22.7179 39.135 22.5316 39.1688L22.5297 39.1691L22.4115 39.191C22.4113 39.1911 22.4111 39.1911 22.4109 39.1911C20.1225 39.6029 17.779 39.603 15.4906 39.1913C15.4902 39.1912 15.4897 39.1911 15.4893 39.191L15.3711 39.1691L15.3692 39.1688C15.1829 39.135 15.0113 39.0454 14.8772 38.9118C14.7431 38.7782 14.6528 38.6069 14.6183 38.4208L14.1266 38.5118L14.6183 38.4208L13.9119 34.6074L13.8604 34.329L13.5951 34.23C12.0441 33.6511 10.6077 32.8122 9.31642 31.7506L9.09787 31.5709L8.8313 31.6657L5.17644 32.9659C5.17612 32.966 5.1758 32.9661 5.17548 32.9662C4.99726 33.0286 4.80436 33.0355 4.6221 32.9862C4.43952 32.9368 4.2762 32.8332 4.15366 32.6891L4.1524 32.6876L4.07311 32.5951C4.0729 32.5949 4.07268 32.5946 4.07247 32.5944C2.5574 30.8135 1.39433 28.7886 0.605212 26.5967L0.565979 26.4834L0.566018 26.4833L0.563822 26.4773C0.499617 26.2993 0.491117 26.1059 0.539451 25.923C0.587786 25.74 0.690665 25.5762 0.834408 25.4531L3.78499 22.9272L3.99944 22.7436L3.95303 22.4652C3.81926 21.6626 3.75419 20.8318 3.75419 19.9992C3.75419 19.1758 3.81921 18.3447 3.95317 17.5323L3.99909 17.2538L3.78442 17.0706L0.826629 14.5462C0.826372 14.546 0.826115 14.5458 0.825858 14.5455C0.531135 14.2911 0.424443 13.8834 0.554987 13.5208L0.555023 13.5208L0.557037 13.515L0.596322 13.4015C1.38362 11.2106 2.55811 9.17907 4.06384 7.40358C4.06412 7.40325 4.0644 7.40292 4.06468 7.40259L4.14346 7.31068L4.14347 7.31069L4.14555 7.30823C4.26755 7.16403 4.43054 7.06037 4.61286 7.01103C4.79506 6.96171 4.98794 6.96897 5.16592 7.03184C5.16604 7.03188 5.16616 7.03192 5.16628 7.03196L8.82236 8.3326L9.08875 8.42737L9.30726 8.24793C10.5904 7.19425 12.0365 6.35644 13.5888 5.76735L13.8518 5.66754L13.903 5.39094L14.6093 1.57753L14.6093 1.57752C14.6438 1.39137 14.7341 1.22012 14.8682 1.08651L14.5183 0.735193L14.8682 1.08651C15.0024 0.952905 15.174 0.863271 15.3603 0.829522L15.3622 0.82917L15.4808 0.807202C15.4811 0.80714 15.4814 0.807078 15.4818 0.807016C17.747 0.39766 20.1359 0.397661 22.4011 0.807019C22.4015 0.80708 22.4018 0.807141 22.4022 0.807202L22.5208 0.829174L22.5227 0.829518C22.709 0.863271 22.8806 0.952904 23.0147 1.08651C23.1488 1.22008 23.2391 1.39129 23.2736 1.57739C23.2736 1.57743 23.2736 1.57748 23.2736 1.57752L23.9754 5.37291L24.027 5.65149L24.2924 5.75048C25.8576 6.3342 27.303 7.17338 28.6028 8.23921L28.8213 8.41838L29.0875 8.32363L32.7154 7.03239C32.7157 7.03229 32.716 7.03219 32.7163 7.03209C32.8945 6.96976 33.0875 6.9628 33.2698 7.01213C33.4523 7.06155 33.6157 7.16513 33.7382 7.30922L33.7395 7.31068L33.8187 7.40312C33.8189 7.40335 33.8191 7.40358 33.8193 7.4038C35.3276 9.17722 36.5023 11.2091 37.2865 13.4012C37.2868 13.4019 37.2871 13.4027 37.2873 13.4035L37.3259 13.5149L37.3258 13.515L37.328 13.5211C37.3922 13.699 37.4007 13.8924 37.3524 14.0753C37.3041 14.2583 37.2012 14.4222 37.0575 14.5452L34.134 17.044L33.9199 17.227L33.9654 17.505C34.0997 18.3233 34.169 19.168 34.169 20.0036C34.169 20.839 34.0997 21.6794 33.9654 22.5026ZM10.5911 19.5566C10.5911 24.1736 14.3333 27.9158 18.9504 27.9158C23.5675 27.9158 27.3097 24.1736 27.3097 19.5566C27.3097 14.9395 23.5675 11.1973 18.9504 11.1973C14.3333 11.1973 10.5911 14.9395 10.5911 19.5566Z" fill="white" stroke="#616161"/>
</svg>
