<svg width="40" height="40" viewBox="0 0 40 40" fill="none" xmlns="http://www.w3.org/2000/svg">
<rect width="40" height="40" fill="#C4C4C4" fill-opacity="0.02"/>
<path d="M9.38273 13.9824C9.1497 14.0238 8.93584 14.1382 8.77201 14.309L4.14746 18.8503M31.9437 13.9824C32.1769 14.0234 32.3909 14.1378 32.5544 14.309L37.1806 18.847L31.9437 13.9824Z" stroke="white" stroke-width="1.1" stroke-miterlimit="2.61"/>
<path d="M9.26465 18.5254V9.39522C9.26465 7.74894 10.0815 6.39844 11.0862 6.39844H30.1911C31.1892 6.39844 32.0028 7.74665 32.0028 9.39522V18.5254" fill="white"/>
<path d="M9.26465 18.5254V9.39522C9.26465 7.74894 10.0815 6.39844 11.0862 6.39844H30.1911C31.1892 6.39844 32.0028 7.74665 32.0028 9.39522V18.5254" stroke="#007DC2" stroke-width="1.1" stroke-miterlimit="2.61"/>
<path d="M9.93262 7L20.6612 14.3255L31.3897 7" stroke="#007DC2" stroke-width="1.1" stroke-miterlimit="2.61"/>
<path d="M6.1405 18.0645H14.013L15.2639 21.3304C15.3863 21.657 15.5447 21.9558 15.8876 21.9558H25.4356C25.7801 21.9558 25.9385 21.6521 26.061 21.3304L27.3102 18.0645H35.1843C35.9639 18.0645 36.7115 18.3741 37.2628 18.9254C37.814 19.4766 38.1237 20.2242 38.1237 21.0038V32.2581C38.1237 33.0377 37.814 33.7853 37.2628 34.3366C36.7115 34.8878 35.9639 35.1975 35.1843 35.1975H6.1405C5.36094 35.1975 4.61331 34.8878 4.06208 34.3366C3.51085 33.7853 3.20117 33.0377 3.20117 32.2581V21.0038C3.20117 20.2242 3.51085 19.4766 4.06208 18.9254C4.61331 18.3741 5.36094 18.0645 6.1405 18.0645Z" fill="white" stroke="#007DC2" stroke-width="1.1" stroke-miterlimit="2.61"/>
</svg>
