<svg width="40" height="40" viewBox="0 0 40 40" fill="none" xmlns="http://www.w3.org/2000/svg">
<rect width="40" height="40" fill="#C4C4C4" fill-opacity="0.02"/>
<path fill-rule="evenodd" clip-rule="evenodd" d="M30.5263 6.45034H35.1217H35.1508H35.1709H35.1977H35.2245H35.2535H35.2803H35.3049H35.3317H35.3585H35.3831H35.4099H35.4345L35.4591 6.46151H35.4836L35.5082 6.47268L35.5306 6.48609L35.5551 6.49949L35.5775 6.5129L35.602 6.5263L35.6222 6.54194L35.6445 6.55758L35.6668 6.57321L35.6892 6.58885L35.7093 6.60673L35.7294 6.6246L35.7495 6.64024L35.7696 6.66034C35.7766 6.66511 35.7827 6.67118 35.7875 6.67821L35.8076 6.69832L35.8255 6.71619L35.8433 6.7363L35.8612 6.75641C35.8659 6.76422 35.8711 6.77168 35.8768 6.77875L35.8925 6.79886L35.9103 6.82119L35.9238 6.84354L35.9394 6.86588L35.9528 6.88822L35.9662 6.91056L35.9796 6.93513L35.993 6.95971V6.98205L36.0064 7.00662V7.03119V7.05801C36.0064 7.05801 36.0064 7.07364 36.0064 7.08258V7.10939C36.0077 7.11753 36.0077 7.12582 36.0064 7.13396V7.16077V7.18758V7.21439V7.2412V7.268C36.0064 7.268 36.0064 7.28588 36.0064 7.29481C36.0064 7.30375 36.0064 7.31492 36.0064 7.32385V7.35067C36.0075 7.36031 36.0075 7.37006 36.0064 7.37971C36.0075 7.38861 36.0075 7.39761 36.0064 7.40652C36.0052 7.41616 36.0052 7.42591 36.0064 7.43556V11.9461C36.0064 12.2424 35.8887 12.5265 35.6792 12.736C35.4698 12.9454 35.1856 13.0631 34.8894 13.0631C34.5931 13.0631 34.309 12.9454 34.0995 12.736C33.8901 12.5265 33.7724 12.2424 33.7724 11.9461V9.83269L26.1878 17.2051C25.2428 18.0093 24.376 17.9445 23.5695 17.2051L16.8673 11.6333L6.73145 21.7558V18.9074C8.96549 16.7314 13.6927 12.1159 15.9179 9.93993C16.6953 9.30322 17.3655 9.35684 18.0558 9.93993L25.0104 15.7172L32.2666 8.67545H30.5308C30.2345 8.67545 29.9504 8.55777 29.7409 8.34829C29.5314 8.1388 29.4137 7.85468 29.4137 7.55843C29.4137 7.26218 29.5314 6.97806 29.7409 6.76857C29.9504 6.55909 30.2345 6.44141 30.5308 6.44141" fill="white"/>
<path fill-rule="evenodd" clip-rule="evenodd" d="M15.4734 18.6934H19.5706C19.7902 18.6939 20.0007 18.7815 20.156 18.9368C20.3113 19.0921 20.3988 19.3026 20.3994 19.5222V33.1141H14.6445V19.5222C14.6451 19.3026 14.7326 19.0921 14.8879 18.9368C15.0433 18.7815 15.2537 18.6939 15.4734 18.6934Z" fill="white"/>
<path fill-rule="evenodd" clip-rule="evenodd" d="M23.4001 22.5156H27.4951C27.7148 22.5162 27.9252 22.6037 28.0806 22.759C28.2359 22.9143 28.3234 23.1248 28.324 23.3445V33.1162H22.5713V23.3445C22.5719 23.1248 22.6594 22.9143 22.8147 22.759C22.97 22.6037 23.1805 22.5162 23.4001 22.5156Z" fill="white"/>
<path fill-rule="evenodd" clip-rule="evenodd" d="M31.1911 16.2695H35.2884C35.508 16.2701 35.7185 16.3576 35.8738 16.5129C36.0291 16.6682 36.1166 16.8787 36.1172 17.0984V33.1143H30.3623V17.0984C30.3629 16.8787 30.4504 16.6682 30.6057 16.5129C30.761 16.3576 30.9715 16.2701 31.1911 16.2695Z" fill="white"/>
<path fill-rule="evenodd" clip-rule="evenodd" d="M7.54953 24.2402H11.6445C11.8642 24.2408 12.0747 24.3283 12.23 24.4836C12.3853 24.639 12.4728 24.8494 12.4734 25.0691V33.1116H6.7207V25.0691C6.72129 24.8494 6.80881 24.639 6.96411 24.4836C7.11942 24.3283 7.3299 24.2408 7.54953 24.2402Z" fill="white"/>
<path fill-rule="evenodd" clip-rule="evenodd" d="M35.7043 36.9128H8.11608C6.81256 36.9128 5.56244 36.395 4.64071 35.4732C3.71899 34.5515 3.20117 33.3014 3.20117 31.9979V7.24908C3.20117 6.10302 4.9616 6.13206 4.98841 7.24908V32.0068C4.98841 32.8363 5.31793 33.6318 5.90448 34.2184C6.49103 34.8049 7.28657 35.1345 8.11608 35.1345H35.7043C37.2056 35.1479 37.1274 36.9217 35.7043 36.9217" fill="white"/>
</svg>
