<svg width="26" height="21" viewBox="0 0 26 21" fill="none" xmlns="http://www.w3.org/2000/svg">
<path fill-rule="evenodd" clip-rule="evenodd" d="M2.44871 7.51953H8.71474L9.54904 9.8385C9.62447 10.0479 9.69898 10.2561 9.88295 10.2561H16.6898C16.8738 10.2561 16.9446 10.0467 17.0228 9.8385L17.8995 7.51953H24.1995C24.4117 7.52044 24.615 7.62633 24.7649 7.81406C24.9149 8.00178 24.9993 8.25609 24.9998 8.52143V18.5737C24.9993 18.839 24.9148 19.0932 24.7649 19.2807C24.6149 19.4683 24.4116 19.5739 24.1995 19.5745H2.44871C2.23669 19.5736 2.03356 19.4679 1.88363 19.2804C1.73371 19.0929 1.64916 18.8389 1.64844 18.5737V8.52143C1.64892 8.25609 1.73336 8.00178 1.88331 7.81406C2.03326 7.62633 2.23653 7.52044 2.44871 7.51953Z" fill="#0078D4"/>
<path d="M24.3514 7.8961L20.6896 4.96469C20.5366 4.84241 20.3261 4.71484 19.8827 4.71484H5.47605C5.03179 4.71484 4.82681 4.84241 4.66914 4.96469L1 7.89912" fill="white"/>
<path d="M24.3514 7.8961L20.6896 4.96469C20.5366 4.84241 20.3261 4.71484 19.8827 4.71484H5.47605C5.03179 4.71484 4.82681 4.84241 4.66914 4.96469L1 7.89912" stroke="white" stroke-width="1.3" stroke-miterlimit="2.61"/>
<path d="M18.3178 1H7.02476C6.4321 1 5.95166 1.62623 5.95166 2.39873V11.9845C5.95166 12.757 6.4321 13.3833 7.02476 13.3833H18.3178C18.9104 13.3833 19.3909 12.757 19.3909 11.9845V2.39873C19.3909 1.62623 18.9104 1 18.3178 1Z" fill="#0078D4"/>
<path d="M18.3178 1H7.02476C6.4321 1 5.95166 1.5815 5.95166 2.29882V11.1999C5.95166 11.9172 6.4321 12.4987 7.02476 12.4987H18.3178C18.9104 12.4987 19.3909 11.9172 19.3909 11.1999V2.29882C19.3909 1.5815 18.9104 1 18.3178 1Z" stroke="white" stroke-width="1.3" stroke-miterlimit="2.61"/>
<path d="M6.30713 1.53125L12.6719 7.89983L19.0442 1.53125" stroke="white" stroke-width="1.3" stroke-miterlimit="2.61"/>
<path d="M1.80027 7.51953H8.0663L8.9006 9.8385C8.97603 10.0479 9.05054 10.2561 9.23451 10.2561H16.0414C16.2254 10.2561 16.2962 10.0467 16.3744 9.8385L17.251 7.51953H23.5511C23.7633 7.52044 23.9665 7.62633 24.1165 7.81406C24.2664 8.00178 24.3509 8.25609 24.3514 8.52143V18.5737C24.3509 18.839 24.2664 19.0932 24.1164 19.2807C23.9664 19.4683 23.7632 19.5739 23.5511 19.5745H1.80027C1.58825 19.5736 1.38512 19.4679 1.2352 19.2804C1.08527 19.0929 1.00073 18.8389 1 18.5737V8.52143C1.00048 8.25609 1.08493 8.00178 1.23487 7.81406C1.38482 7.62633 1.58809 7.52044 1.80027 7.51953Z" fill="#0078D4" stroke="white" stroke-width="1.3" stroke-miterlimit="2.61"/>
<path d="M15.4239 13.4199H9.92502C9.81326 13.4199 9.72266 13.5332 9.72266 13.673V16.2151C9.72266 16.3549 9.81326 16.4682 9.92502 16.4682H15.4239C15.5357 16.4682 15.6263 16.3549 15.6263 16.2151V13.673C15.6263 13.5332 15.5357 13.4199 15.4239 13.4199Z" stroke="white" stroke-width="1.3" stroke-miterlimit="2.61"/>
</svg>
