<svg width="24" height="24" viewBox="0 0 24 24" fill="none" xmlns="http://www.w3.org/2000/svg">
<rect width="24" height="24" fill="#C4C4C4" fill-opacity="0.02"/>
<path d="M2.88037 3.91797C2.88037 2.8134 3.7758 1.91797 4.88037 1.91797H16.8004C19.0095 1.91797 20.8004 3.70883 20.8004 5.91797V18.078C20.8004 20.2871 19.0095 22.078 16.8004 22.078H4.88037C3.7758 22.078 2.88037 21.1825 2.88037 20.078V3.91797Z" fill="#0078D4"/>
<path fill-rule="evenodd" clip-rule="evenodd" d="M14.4235 8.23952C14.4235 9.50333 13.399 10.5279 12.1352 10.5279C10.8714 10.5279 9.84684 9.50333 9.84684 8.23952C9.84684 6.9757 10.8714 5.95117 12.1352 5.95117C13.399 5.95117 14.4235 6.9757 14.4235 8.23952ZM13.8689 11.0245H10.3798C9.72748 11.0246 9.10192 11.2839 8.64071 11.7452C8.17951 12.2065 7.92041 12.8321 7.92041 13.4845V16.346C7.92041 16.53 7.99347 16.7063 8.12351 16.8364C8.25356 16.9664 8.42994 17.0395 8.61385 17.0395H15.6355C15.8194 17.0395 15.9958 16.9664 16.1258 16.8364C16.2559 16.7063 16.3289 16.53 16.3289 16.346V13.4845C16.3289 12.832 16.0697 12.2063 15.6084 11.745C15.1471 11.2837 14.5214 11.0245 13.8689 11.0245Z" fill="white"/>
</svg>
