<svg width="35" height="40" viewBox="0 0 35 40" fill="none" xmlns="http://www.w3.org/2000/svg">
<path d="M32.5 39.5H2.5C1.95609 39.5 1.49451 39.312 1.091 38.9191C0.694829 38.5334 0.5 38.071 0.5 37.5V2.53906C0.5 1.9681 0.694829 1.5057 1.091 1.11995C1.49451 0.727057 1.95609 0.539062 2.5 0.539062H19.5V13.7891C19.5 14.2651 19.6799 14.6839 20.0175 15.0215C20.3552 15.3592 20.774 15.5391 21.25 15.5391H34.5V37.5C34.5 38.0753 34.3085 38.5391 33.9238 38.9238C33.5391 39.3085 33.0753 39.5 32.5 39.5ZM28.75 32H28V23.75C28 23.274 27.8201 22.8552 27.4825 22.5175C27.1448 22.1799 26.726 22 26.25 22H23.75C23.274 22 22.8552 22.1799 22.5175 22.5175C22.1799 22.8552 22 23.274 22 23.75V32H20.5V18.75C20.5 18.274 20.3201 17.8552 19.9825 17.5175C19.6448 17.1799 19.226 17 18.75 17H16.25C15.774 17 15.3552 17.1799 15.0175 17.5175C14.6799 17.8552 14.5 18.274 14.5 18.75V32H13V26.25C13 25.774 12.8201 25.3552 12.4825 25.0175C12.1448 24.6799 11.726 24.5 11.25 24.5H8.75C8.27397 24.5 7.8552 24.6799 7.51754 25.0175C7.17988 25.3552 7 25.774 7 26.25V32H6.25C5.77397 32 5.3552 32.1799 5.01754 32.5175C4.67988 32.8552 4.5 33.274 4.5 33.75C4.5 34.226 4.67988 34.6448 5.01754 34.9825C5.3552 35.3201 5.77397 35.5 6.25 35.5H28.75C29.2412 35.5 29.6755 35.3274 30.0114 34.9728C30.3331 34.6332 30.5 34.2174 30.5 33.75C30.5 33.274 30.3201 32.8552 29.9825 32.5175C29.6448 32.1799 29.226 32 28.75 32ZM23 0.557849C23.3277 0.638676 23.613 0.804444 23.8652 1.05668L33.9043 11.0957C34.1815 11.373 34.3604 11.6843 34.4442 12.0391H23V0.557849Z" fill="white" stroke="#616161"/>
</svg>
