<svg width="40" height="40" viewBox="0 0 40 40" fill="none" xmlns="http://www.w3.org/2000/svg">
<rect width="40" height="40" fill="#C4C4C4" fill-opacity="0.02"/>
<path fill-rule="evenodd" clip-rule="evenodd" d="M6.7998 3.19922C5.69524 3.19922 4.7998 4.09465 4.7998 5.19922V34.7992C4.7998 35.9038 5.69524 36.7992 6.79981 36.7992H28.6665C31.9802 36.7992 34.6665 34.1129 34.6665 30.7992V8.19922C34.6665 5.43779 32.4279 3.19922 29.6665 3.19922H6.7998ZM20.2241 17.5477C22.3304 17.5477 24.038 15.8402 24.038 13.7338C24.038 11.6275 22.3304 9.91992 20.2241 9.91992C18.1177 9.91992 16.4102 11.6275 16.4102 13.7338C16.4102 15.8402 18.1177 17.5477 20.2241 17.5477ZM17.2982 18.3749H23.1134C24.2008 18.3749 25.2437 18.8068 26.0126 19.5757C26.7814 20.3446 27.2134 21.3875 27.2134 22.4748V27.2441C27.2134 27.5507 27.0916 27.8446 26.8749 28.0614C26.6582 28.2781 26.3642 28.3999 26.0577 28.3999H14.3549C14.0484 28.3999 13.7545 28.2781 13.5377 28.0614C13.321 27.8446 13.1992 27.5507 13.1992 27.2441V22.4748C13.1992 21.3876 13.631 20.3449 14.3997 19.5761C15.1684 18.8072 16.211 18.3751 17.2982 18.3749Z" fill="white"/>
</svg>
