<svg width="38" height="40" viewBox="0 0 38 40" fill="none" xmlns="http://www.w3.org/2000/svg">
<path d="M18.9504 14.554C17.6137 14.554 16.3619 15.0726 15.4142 16.0203C14.4709 16.9681 13.9478 18.2199 13.9478 19.5566C13.9478 20.8933 14.4709 22.145 15.4142 23.0928C16.3619 24.0361 17.6137 24.5591 18.9504 24.5591C20.2871 24.5591 21.5389 24.0361 22.4866 23.0928C23.4299 22.145 23.953 20.8933 23.953 19.5566C23.953 18.2199 23.4299 16.9681 22.4866 16.0203C22.0237 15.5539 21.4727 15.184 20.8657 14.9323C20.2586 14.6806 19.6076 14.552 18.9504 14.554V14.554ZM37.3826 25.0822L34.4589 22.5832C34.5974 21.7337 34.669 20.8664 34.669 20.0036C34.669 19.1408 34.5974 18.269 34.4589 17.4241L37.3826 14.925C37.6035 14.736 37.7616 14.4841 37.8358 14.203C37.9101 13.9219 37.897 13.6249 37.7984 13.3514L37.7581 13.2352C36.9535 10.9851 35.7478 8.89939 34.1996 7.07917L34.1191 6.98529C33.9311 6.76422 33.6805 6.60532 33.4004 6.5295C33.1203 6.45368 32.8238 6.46452 32.5499 6.56058L28.9198 7.85258C27.5786 6.75282 26.0855 5.88552 24.4671 5.28199L23.7652 1.48647C23.7123 1.20054 23.5736 0.937492 23.3675 0.732272C23.1615 0.527051 22.8979 0.389373 22.6118 0.337529L22.4911 0.315176C20.1664 -0.105059 17.7165 -0.105059 15.3918 0.315176L15.2711 0.337529C14.985 0.389373 14.7214 0.527051 14.5154 0.732272C14.3094 0.937492 14.1707 1.20054 14.1177 1.48647L13.4114 5.29988C11.8083 5.90822 10.315 6.77341 8.98995 7.86152L5.33301 6.56058C5.05925 6.46376 4.76252 6.45253 4.48223 6.52839C4.20195 6.60425 3.95138 6.76361 3.76383 6.98529L3.68336 7.07917C2.13785 8.90133 0.932485 10.9865 0.124779 13.2352L0.0845436 13.3514C-0.116633 13.9102 0.048779 14.5361 0.500308 14.925L3.45983 17.4509C3.32125 18.2914 3.25419 19.1497 3.25419 19.9992C3.25419 20.8575 3.32125 21.7159 3.45983 22.5474L0.509249 25.0733C0.288383 25.2623 0.130306 25.5142 0.056039 25.7953C-0.0182285 26.0764 -0.00516782 26.3734 0.0934846 26.6469L0.13372 26.7631C0.942895 29.0118 2.13654 31.0907 3.6923 32.9191L3.77277 33.013C3.96078 33.2341 4.21136 33.393 4.49147 33.4688C4.77159 33.5446 5.06811 33.5338 5.34195 33.4377L8.99889 32.1368C10.3311 33.2321 11.8154 34.0994 13.4203 34.6984L14.1266 38.5118C14.1796 38.7978 14.3183 39.0608 14.5243 39.266C14.7303 39.4713 14.9939 39.6089 15.2801 39.6608L15.4008 39.6831C17.7483 40.1056 20.1525 40.1056 22.5 39.6831L22.6207 39.6608C22.9069 39.6089 23.1705 39.4713 23.3765 39.266C23.5825 39.0608 23.7212 38.7978 23.7742 38.5118L24.476 34.7163C26.0944 34.1083 27.5876 33.2455 28.9287 32.1457L32.5589 33.4377C32.8326 33.5345 33.1293 33.5458 33.4096 33.4699C33.6899 33.3941 33.9405 33.2347 34.128 33.013L34.2085 32.9191C35.7643 31.0817 36.9579 29.0118 37.7671 26.7631L37.8073 26.6469C37.9996 26.0926 37.8341 25.4711 37.3826 25.0822ZM18.9504 27.4159C14.6095 27.4159 11.0911 23.8975 11.0911 19.5566C11.0911 15.2156 14.6095 11.6973 18.9504 11.6973C23.2913 11.6973 26.8097 15.2156 26.8097 19.5566C26.8097 23.8975 23.2913 27.4159 18.9504 27.4159Z" fill="white"/>
</svg>
