<svg width="35" height="40" viewBox="0 0 35 40" fill="none" xmlns="http://www.w3.org/2000/svg">
<path d="M32.5 40H2.5C1.82292 40 1.23698 39.7591 0.742188 39.2773C0.247396 38.7956 0 38.2031 0 37.5V2.53906C0 1.83594 0.247396 1.24349 0.742188 0.761719C1.23698 0.279948 1.82292 0.0390625 2.5 0.0390625H20V13.7891C20 14.1276 20.1237 14.4206 20.3711 14.668C20.6185 14.9154 20.9115 15.0391 21.25 15.0391H35V37.5C35 38.2031 34.7591 38.7956 34.2773 39.2773C33.7956 39.7591 33.2031 40 32.5 40ZM28.75 32.5H27.5V23.75C27.5 23.4115 27.3763 23.1185 27.1289 22.8711C26.8815 22.6237 26.5885 22.5 26.25 22.5H23.75C23.4115 22.5 23.1185 22.6237 22.8711 22.8711C22.6237 23.1185 22.5 23.4115 22.5 23.75V32.5H20V18.75C20 18.4115 19.8763 18.1185 19.6289 17.8711C19.3815 17.6237 19.0885 17.5 18.75 17.5H16.25C15.9115 17.5 15.6185 17.6237 15.3711 17.8711C15.1237 18.1185 15 18.4115 15 18.75V32.5H12.5V26.25C12.5 25.9115 12.3763 25.6185 12.1289 25.3711C11.8815 25.1237 11.5885 25 11.25 25H8.75C8.41146 25 8.11849 25.1237 7.87109 25.3711C7.6237 25.6185 7.5 25.9115 7.5 26.25V32.5H6.25C5.91146 32.5 5.61849 32.6237 5.37109 32.8711C5.1237 33.1185 5 33.4115 5 33.75C5 34.0885 5.1237 34.3815 5.37109 34.6289C5.61849 34.8763 5.91146 35 6.25 35H28.75C29.1146 35 29.4141 34.8763 29.6484 34.6289C29.8828 34.3815 30 34.0885 30 33.75C30 33.4115 29.8763 33.1185 29.6289 32.8711C29.3815 32.6237 29.0885 32.5 28.75 32.5ZM22.5 0C23.1771 0 23.75 0.234375 24.2188 0.703125L34.2578 10.7422C34.7526 11.237 35 11.8359 35 12.5391H22.5V0Z" fill="white"/>
</svg>
