<svg width="40" height="40" viewBox="0 0 40 40" fill="none" xmlns="http://www.w3.org/2000/svg">
<rect width="40" height="40" fill="#C4C4C4" fill-opacity="0.02"/>
<path fill-rule="evenodd" clip-rule="evenodd" d="M30.5263 6.45034H35.1217H35.1508H35.1709H35.1977H35.2245H35.2535H35.2803H35.3049H35.3317H35.3585H35.3831H35.4099H35.4345L35.4591 6.46151H35.4836L35.5082 6.47268L35.5306 6.48609L35.5551 6.49949L35.5775 6.5129L35.602 6.5263L35.6222 6.54194L35.6445 6.55758L35.6668 6.57321L35.6892 6.58885L35.7093 6.60673L35.7294 6.6246L35.7495 6.64024L35.7696 6.66034C35.7766 6.66511 35.7827 6.67118 35.7875 6.67821L35.8076 6.69832L35.8255 6.71619L35.8433 6.7363L35.8612 6.75641C35.8659 6.76422 35.8711 6.77168 35.8768 6.77875L35.8925 6.79886L35.9103 6.82119L35.9238 6.84354L35.9394 6.86588L35.9528 6.88822L35.9662 6.91056L35.9796 6.93513L35.993 6.95971V6.98205L36.0064 7.00662V7.03119V7.05801C36.0064 7.05801 36.0064 7.07364 36.0064 7.08258V7.10939C36.0077 7.11753 36.0077 7.12582 36.0064 7.13396V7.16077V7.18758V7.21439V7.2412V7.268C36.0064 7.268 36.0064 7.28588 36.0064 7.29481C36.0064 7.30375 36.0064 7.31492 36.0064 7.32385V7.35067C36.0075 7.36031 36.0075 7.37006 36.0064 7.37971C36.0075 7.38861 36.0075 7.39761 36.0064 7.40652C36.0052 7.41616 36.0052 7.42591 36.0064 7.43556V11.9461C36.0064 12.2424 35.8887 12.5265 35.6792 12.736C35.4698 12.9454 35.1856 13.0631 34.8894 13.0631C34.5931 13.0631 34.309 12.9454 34.0995 12.736C33.8901 12.5265 33.7724 12.2424 33.7724 11.9461V9.83269L26.1878 17.2051C25.2428 18.0093 24.376 17.9445 23.5695 17.2051L16.8673 11.6333L6.73145 21.7558V18.9074C8.96549 16.7314 13.6927 12.1159 15.9179 9.93993C16.6953 9.30322 17.3655 9.35684 18.0558 9.93993L25.0104 15.7172L32.2666 8.67545H30.5308C30.2345 8.67545 29.9504 8.55777 29.7409 8.34829C29.5314 8.1388 29.4137 7.85468 29.4137 7.55843C29.4137 7.26218 29.5314 6.97806 29.7409 6.76857C29.9504 6.55909 30.2345 6.44141 30.5308 6.44141" fill="#616161"/>
<mask id="path-3-inside-1" fill="white">
<path fill-rule="evenodd" clip-rule="evenodd" d="M15.4734 18.6934H19.5706C19.7902 18.6939 20.0007 18.7815 20.156 18.9368C20.3113 19.0921 20.3988 19.3026 20.3994 19.5222V33.1141H14.6445V19.5222C14.6451 19.3026 14.7326 19.0921 14.8879 18.9368C15.0433 18.7815 15.2537 18.6939 15.4734 18.6934Z"/>
</mask>
<path d="M19.5706 18.6934L19.5733 17.6934H19.5706V18.6934ZM20.3994 19.5222H21.3994L21.3994 19.5195L20.3994 19.5222ZM20.3994 33.1141V34.1141H21.3994V33.1141H20.3994ZM14.6445 33.1141H13.6445V34.1141H14.6445V33.1141ZM14.6445 19.5222L13.6445 19.5195V19.5222H14.6445ZM15.4734 19.6934H19.5706V17.6934H15.4734V19.6934ZM19.5679 19.6934C19.5233 19.6932 19.4805 19.6754 19.4489 19.6439L20.8631 18.2297C20.521 17.8875 20.0572 17.6947 19.5733 17.6934L19.5679 19.6934ZM19.4489 19.6439C19.4174 19.6123 19.3996 19.5695 19.3994 19.5249L21.3994 19.5195C21.3981 19.0356 21.2053 18.5719 20.8631 18.2297L19.4489 19.6439ZM19.3994 19.5222V33.1141H21.3994V19.5222H19.3994ZM20.3994 32.1141H14.6445V34.1141H20.3994V32.1141ZM15.6445 33.1141V19.5222H13.6445V33.1141H15.6445ZM15.6445 19.5249C15.6444 19.5695 15.6266 19.6123 15.595 19.6439L14.1808 18.2297C13.8387 18.5719 13.6458 19.0356 13.6445 19.5195L15.6445 19.5249ZM15.595 19.6439C15.5635 19.6754 15.5207 19.6932 15.476 19.6934L15.4707 17.6934C14.9867 17.6947 14.523 17.8875 14.1808 18.2297L15.595 19.6439Z" fill="#616161" mask="url(#path-3-inside-1)"/>
<mask id="path-5-inside-2" fill="white">
<path fill-rule="evenodd" clip-rule="evenodd" d="M23.4001 22.5156H27.4951C27.7148 22.5162 27.9252 22.6037 28.0806 22.759C28.2359 22.9143 28.3234 23.1248 28.324 23.3445V33.1162H22.5713V23.3445C22.5719 23.1248 22.6594 22.9143 22.8147 22.759C22.97 22.6037 23.1805 22.5162 23.4001 22.5156Z"/>
</mask>
<path d="M27.4951 22.5156L27.4978 21.5156H27.4951V22.5156ZM28.324 23.3445H29.324L29.324 23.3418L28.324 23.3445ZM28.324 33.1162V34.1162H29.324V33.1162H28.324ZM22.5713 33.1162H21.5713V34.1162H22.5713V33.1162ZM22.5713 23.3445L21.5713 23.3418V23.3445H22.5713ZM23.4001 23.5156H27.4951V21.5156H23.4001V23.5156ZM27.4924 23.5156C27.4478 23.5155 27.405 23.4977 27.3734 23.4661L28.7877 22.0519C28.4455 21.7098 27.9818 21.5169 27.4978 21.5156L27.4924 23.5156ZM27.3734 23.4661C27.3419 23.4346 27.3241 23.3918 27.324 23.3471L29.324 23.3418C29.3227 22.8578 29.1298 22.3941 28.7877 22.0519L27.3734 23.4661ZM27.324 23.3445V33.1162H29.324V23.3445H27.324ZM28.324 32.1162H22.5713V34.1162H28.324V32.1162ZM23.5713 33.1162V23.3445H21.5713V33.1162H23.5713ZM23.5713 23.3471C23.5712 23.3918 23.5534 23.4346 23.5218 23.4661L22.1076 22.0519C21.7654 22.3941 21.5726 22.8578 21.5713 23.3418L23.5713 23.3471ZM23.5218 23.4661C23.4902 23.4977 23.4475 23.5155 23.4028 23.5156L23.3974 21.5156C22.9135 21.5169 22.4498 21.7098 22.1076 22.0519L23.5218 23.4661Z" fill="#616161" mask="url(#path-5-inside-2)"/>
<mask id="path-7-inside-3" fill="white">
<path fill-rule="evenodd" clip-rule="evenodd" d="M31.1911 16.2695H35.2884C35.508 16.2701 35.7185 16.3576 35.8738 16.5129C36.0291 16.6682 36.1166 16.8787 36.1172 17.0984V33.1143H30.3623V17.0984C30.3629 16.8787 30.4504 16.6682 30.6057 16.5129C30.761 16.3576 30.9715 16.2701 31.1911 16.2695Z"/>
</mask>
<path d="M35.2884 16.2695L35.2911 15.2695H35.2884V16.2695ZM36.1172 17.0984H37.1172L37.1172 17.0957L36.1172 17.0984ZM36.1172 33.1143V34.1143H37.1172V33.1143H36.1172ZM30.3623 33.1143H29.3623V34.1143H30.3623V33.1143ZM30.3623 17.0984L29.3623 17.0957V17.0984H30.3623ZM31.1911 17.2695H35.2884V15.2695H31.1911V17.2695ZM35.2857 17.2695C35.2411 17.2694 35.1983 17.2516 35.1667 17.22L36.5809 15.8058C36.2387 15.4636 35.775 15.2708 35.2911 15.2695L35.2857 17.2695ZM35.1667 17.22C35.1351 17.1885 35.1173 17.1457 35.1172 17.101L37.1172 17.0957C37.1159 16.6118 36.9231 16.148 36.5809 15.8058L35.1667 17.22ZM35.1172 17.0984V33.1143H37.1172V17.0984H35.1172ZM36.1172 32.1143H30.3623V34.1143H36.1172V32.1143ZM31.3623 33.1143V17.0984H29.3623V33.1143H31.3623ZM31.3623 17.101C31.3622 17.1457 31.3444 17.1885 31.3128 17.22L29.8986 15.8058C29.5564 16.148 29.3636 16.6118 29.3623 17.0957L31.3623 17.101ZM31.3128 17.22C31.2812 17.2516 31.2385 17.2694 31.1938 17.2695L31.1884 15.2695C30.7045 15.2708 30.2408 15.4636 29.8986 15.8058L31.3128 17.22Z" fill="#616161" mask="url(#path-7-inside-3)"/>
<path d="M7.31767 24.8372C7.37941 24.7755 7.46305 24.7406 7.55036 24.7402H11.6437C11.731 24.7406 11.8147 24.7755 11.8764 24.8372C11.9382 24.8989 11.973 24.9826 11.9734 25.0699V32.6116H7.2207V25.0699C7.22107 24.9826 7.25592 24.8989 7.31767 24.8372Z" stroke="#616161"/>
<path fill-rule="evenodd" clip-rule="evenodd" d="M35.7043 36.9128H8.11608C6.81256 36.9128 5.56244 36.395 4.64071 35.4732C3.71899 34.5515 3.20117 33.3014 3.20117 31.9979V7.24908C3.20117 6.10302 4.9616 6.13206 4.98841 7.24908V32.0068C4.98841 32.8363 5.31793 33.6318 5.90448 34.2184C6.49103 34.8049 7.28657 35.1345 8.11608 35.1345H35.7043C37.2056 35.1479 37.1274 36.9217 35.7043 36.9217" fill="#616161"/>
</svg>
