<svg width="40" height="40" viewBox="0 0 40 40" fill="none" xmlns="http://www.w3.org/2000/svg">
<rect width="40" height="40" fill="#C4C4C4" fill-opacity="0.02"/>
<path fill-rule="evenodd" clip-rule="evenodd" d="M30.0257 15.5314C30.0257 9.24835 23.8638 4.16602 16.2615 4.16602C8.66191 4.16602 2.5 9.2547 2.5 15.5314C2.5 19.0763 4.46321 22.2432 7.5428 24.327L7.5782 24.3873C7.65772 24.518 7.70849 24.6695 7.72606 24.8285C7.74363 24.9875 7.72745 25.149 7.67894 25.299C7.07442 26.5437 6.30527 27.6693 5.39988 28.6343C4.07111 30.0319 4.71916 30.3972 6.58162 30.0319C9.05128 29.314 11.5019 28.107 13.9525 26.7411C14.7188 26.8474 15.4898 26.9005 16.2615 26.8999C23.8638 26.8999 30.0257 21.8144 30.0257 15.5314ZM14.8645 29.8892C17.2606 31.56 20.3566 32.567 23.7384 32.567C24.5092 32.5676 25.2793 32.5146 26.0447 32.4082C28.4953 33.7772 30.9459 34.9811 33.4183 35.699C35.2808 36.0674 35.9288 35.699 34.5973 34.3045C33.6928 33.3382 32.9246 32.2116 32.321 30.966C32.2718 30.8164 32.2551 30.6549 32.2722 30.4959C32.2893 30.3369 32.3397 30.1853 32.419 30.0544L32.4571 29.9941C35.5367 27.9103 37.4999 24.7434 37.4999 21.2016C37.4999 17.5551 35.4223 14.3119 32.1957 12.2345C32.5607 13.4479 32.7449 14.7253 32.7403 16.0113C32.7403 23.7746 25.8949 30.0671 17.4485 30.0671C16.5908 30.0664 15.734 30.0006 14.8836 29.8702L14.8645 29.8892ZM10.8334 15.8328C10.8334 16.7532 10.0872 17.4994 9.16676 17.4994C8.24628 17.4994 7.50008 16.7532 7.50008 15.8328C7.50008 14.9123 8.24628 14.1661 9.16676 14.1661C10.0872 14.1661 10.8334 14.9123 10.8334 15.8328ZM15.8334 17.4994C16.7539 17.4994 17.5001 16.7532 17.5001 15.8328C17.5001 14.9123 16.7539 14.1661 15.8334 14.1661C14.9129 14.1661 14.1667 14.9123 14.1667 15.8328C14.1667 16.7532 14.9129 17.4994 15.8334 17.4994ZM22.5001 17.4994C23.4206 17.4994 24.1668 16.7532 24.1668 15.8328C24.1668 14.9123 23.4206 14.1661 22.5001 14.1661C21.5796 14.1661 20.8334 14.9123 20.8334 15.8328C20.8334 16.7532 21.5796 17.4994 22.5001 17.4994Z" fill="white"/>
</svg>
