<svg width="24" height="24" viewBox="0 0 24 24" fill="none" xmlns="http://www.w3.org/2000/svg">
<rect x="2" y="2" width="20" height="20" fill="#C4C4C4" fill-opacity="0.02"/>
<path d="M6.69039 8.99219C6.57387 9.01289 6.46694 9.07007 6.38503 9.15548L4.07275 11.4261M17.9709 8.99219C18.0875 9.01267 18.1945 9.06989 18.2762 9.15548L20.5893 11.4245L17.9709 8.99219Z" stroke="white" stroke-width="0.8" stroke-miterlimit="2.61"/>
<path d="M6.63184 11.2637V6.69859C6.63184 5.87545 7.04029 5.2002 7.54261 5.2002H17.0951C17.5941 5.2002 18.0009 5.8743 18.0009 6.69859V11.2637" stroke="white" stroke-width="0.8" stroke-miterlimit="2.61"/>
<path d="M6.96631 5.50195L12.3306 9.16468L17.6949 5.50195" stroke="white" stroke-width="0.8" stroke-miterlimit="2.61"/>
<path d="M5.06976 11.0342H9.00601L9.63144 12.6671C9.69267 12.8304 9.77187 12.9799 9.94333 12.9799H14.7173C14.8896 12.9799 14.9688 12.828 15.03 12.6671L15.6546 11.0342H19.5917C19.9815 11.0342 20.3553 11.189 20.6309 11.4646C20.9065 11.7403 21.0613 12.1141 21.0613 12.5038V18.131C21.0613 18.5208 20.9065 18.8946 20.6309 19.1702C20.3553 19.4459 19.9815 19.6007 19.5917 19.6007H5.06976C4.67998 19.6007 4.30617 19.4459 4.03055 19.1702C3.75494 18.8946 3.6001 18.5208 3.6001 18.131V12.5038C3.6001 12.1141 3.75494 11.7403 4.03055 11.4646C4.30617 11.189 4.67998 11.0342 5.06976 11.0342V11.0342Z" fill="white" stroke="white" stroke-width="0.8" stroke-miterlimit="2.61"/>
</svg>
