<svg width="20" height="20" viewBox="0 0 20 20" fill="none" xmlns="http://www.w3.org/2000/svg">
<path fill-rule="evenodd" clip-rule="evenodd" d="M9.06348 8.53894C9.13574 8.53894 9.20508 8.52332 9.26758 8.49524C9.44238 8.41711 9.56348 8.24219 9.56348 8.03894V3.5C9.56348 3.22388 9.78711 3 10.0635 3H16.0205C16.2969 3 16.5205 3.22388 16.5205 3.5V16C16.5205 16.2761 16.2969 16.5 16.0205 16.5H4.5C4.38574 16.5 4.28027 16.4615 4.19531 16.3969C4.07617 16.3055 4 16.1617 4 16V9.03894C4 8.76282 4.22363 8.53894 4.5 8.53894H9.06348ZM12.0156 5.07947H14.1006C14.291 5.07947 14.4453 5.23389 14.4453 5.42444C14.4453 5.53174 14.3965 5.62756 14.3193 5.6908C14.2598 5.73987 14.1836 5.76941 14.1006 5.76941H12.0156C11.8252 5.76941 11.6709 5.61499 11.6709 5.42444C11.6709 5.23389 11.8252 5.07947 12.0156 5.07947ZM12.0156 7.849H14.1006C14.291 7.849 14.4453 8.00342 14.4453 8.19397C14.4453 8.38452 14.291 8.53894 14.1006 8.53894H12.0156C11.8252 8.53894 11.6709 8.38452 11.6709 8.19397C11.6709 8.00342 11.8252 7.849 12.0156 7.849ZM14.1006 10.6426H6.44824C6.25781 10.6426 6.10352 10.797 6.10352 10.9875C6.10352 11.0753 6.13672 11.1554 6.19043 11.2163C6.25391 11.2876 6.3457 11.3325 6.44824 11.3325H14.1006C14.291 11.3325 14.4453 11.1781 14.4453 10.9875L14.4424 10.941L14.4336 10.8972C14.3936 10.7506 14.2598 10.6426 14.1006 10.6426ZM6.44824 13.4409H14.1006C14.291 13.4409 14.4453 13.5953 14.4453 13.7859C14.4453 13.9764 14.291 14.1309 14.1006 14.1309H6.44824C6.33691 14.1309 6.2373 14.0776 6.17383 13.9951C6.12988 13.9371 6.10352 13.8646 6.10352 13.7859C6.10352 13.5953 6.25781 13.4409 6.44824 13.4409ZM8.87305 7.849V3.27979L4.28418 7.849H8.87305Z" fill="white"/>
</svg>
