<svg width="24" height="24" viewBox="0 0 24 24" fill="none" xmlns="http://www.w3.org/2000/svg">
<path d="M16.911 4H6.08899C3.83459 4 2 5.87464 2 8.17829V12.3172C2 14.6208 3.83459 16.4954 6.08899 16.4954H12.9293L17.902 20.5758V16.3696C19.7006 15.9116 21 14.2555 21 12.3172V8.17829C21 5.87464 19.1654 4 16.911 4ZM6.37543 12.0325C5.89128 12.0325 5.45986 11.9269 5.18041 11.7756L5.38452 10.9511C5.59616 11.0798 6.0351 11.2312 6.37547 11.2312C6.72336 11.2312 6.86718 11.11 6.86718 10.921C6.86718 10.7313 6.75353 10.6409 6.32273 10.4971C5.55851 10.2397 5.26339 9.82393 5.27091 9.38499C5.27091 8.69672 5.86119 8.17488 6.77617 8.17488C7.20755 8.17488 7.59376 8.27287 7.82044 8.38652L7.61632 9.18087C7.4499 9.08983 7.13217 8.96865 6.81441 8.96865C6.53433 8.96865 6.37547 9.08231 6.37547 9.27134C6.37547 9.44528 6.51925 9.53633 6.97327 9.69519C7.67662 9.937 7.97174 10.293 7.9793 10.8375C7.97926 11.5257 7.43478 12.0325 6.37543 12.0325ZM14.2652 11.9571H13.1456V9.94506C13.1456 9.40755 12.9711 9.09735 12.6006 9.09735C12.3362 9.09735 12.1465 9.27882 12.0712 9.4986C12.041 9.5815 12.026 9.70271 12.026 9.79372V11.9571H10.9063V9.88418C10.9063 9.41508 10.7399 9.09735 10.3763 9.09735C10.0818 9.09735 9.90722 9.32465 9.8394 9.51368C9.80171 9.60415 9.79419 9.71024 9.79419 9.80128V11.9571H8.67454V9.43776C8.67454 8.9768 8.65946 8.58307 8.64438 8.25778H9.61272L9.66549 8.75702H9.6881C9.84696 8.52277 10.1722 8.17488 10.8077 8.17488C11.2844 8.17488 11.6624 8.41669 11.8213 8.80227H11.8364C11.9726 8.61324 12.1391 8.4619 12.313 8.35639C12.5177 8.23522 12.7444 8.17492 13.0169 8.17492C13.7278 8.17492 14.2653 8.67415 14.2653 9.77817V11.9571H14.2652ZM16.1624 12.0325C15.6783 12.0325 15.2469 11.9269 14.9674 11.7756L15.1715 10.9511C15.3832 11.0798 15.8221 11.2312 16.1625 11.2312C16.5104 11.2312 16.6542 11.11 16.6542 10.921C16.6542 10.7313 16.5405 10.6409 16.1097 10.4971C15.3455 10.2397 15.0504 9.82393 15.0579 9.38499C15.0579 8.69672 15.6482 8.17488 16.5632 8.17488C16.9945 8.17488 17.3802 8.27287 17.6074 8.38652L17.4033 9.18087C17.2369 9.08983 16.9191 8.96865 16.6014 8.96865C16.3213 8.96865 16.1624 9.08231 16.1624 9.27134C16.1624 9.44528 16.3062 9.53633 16.7602 9.69519C17.4636 9.937 17.7587 10.293 17.7663 10.8375C17.7663 11.5257 17.2218 12.0325 16.1624 12.0325Z" fill="white"/>
</svg>
