<svg width="20" height="20" viewBox="0 0 20 20" fill="none" xmlns="http://www.w3.org/2000/svg">
<path fill-rule="evenodd" clip-rule="evenodd" d="M4.21998 4.32129H4.83631V4.67166C4.83631 4.89557 4.92525 5.11032 5.08358 5.26865C5.24191 5.42698 5.45667 5.51594 5.68058 5.51594C5.9045 5.51594 6.11923 5.42698 6.27756 5.26865C6.43589 5.11032 6.52486 4.89557 6.52486 4.67166V4.32129H11.105V4.67166C11.105 4.89557 11.194 5.11032 11.3523 5.26865C11.5107 5.42698 11.7254 5.51594 11.9493 5.51594C12.1732 5.51594 12.388 5.42698 12.5463 5.26865C12.7046 5.11032 12.7936 4.89557 12.7936 4.67166V4.32129H13.4099C13.7331 4.3224 14.0428 4.45129 14.2713 4.67984C14.4999 4.90839 14.6288 5.21805 14.6299 5.54127V10.3578C14.499 10.303 14.2077 10.2565 14.0769 10.2143V7.44088H3.56567V14.423C3.56567 14.5516 3.591 14.679 3.64021 14.7978C3.68943 14.9166 3.76158 15.0246 3.85252 15.1155C3.94346 15.2065 4.05143 15.2786 4.17025 15.3278C4.28907 15.377 4.41642 15.4024 4.54503 15.4024H9.61067C9.67821 15.5417 9.74996 15.8245 9.83017 15.9554H4.21998C3.89677 15.9543 3.5871 15.8254 3.35855 15.5968C3.13 15.3683 3.00111 15.0586 3 14.7354V5.54127C3.00111 5.21805 3.13 4.90839 3.35855 4.67984C3.5871 4.45129 3.89677 4.3224 4.21998 4.32129" fill="white"/>
<path fill-rule="evenodd" clip-rule="evenodd" d="M5.67617 3C5.8094 3 5.93716 3.05292 6.03137 3.14713C6.12558 3.24134 6.17852 3.36911 6.17852 3.50234V4.73076C6.17852 4.86399 6.12558 4.99175 6.03137 5.08596C5.93716 5.18017 5.8094 5.23309 5.67617 5.23309C5.54294 5.23309 5.41515 5.18017 5.32095 5.08596C5.22674 4.99175 5.17383 4.86399 5.17383 4.73076V3.50234C5.17493 3.36946 5.22821 3.24231 5.32218 3.14834C5.41615 3.05437 5.54328 3.0011 5.67617 3" fill="white"/>
<path fill-rule="evenodd" clip-rule="evenodd" d="M11.9369 3C12.0701 3 12.1979 3.05292 12.2921 3.14713C12.3863 3.24134 12.4393 3.36911 12.4393 3.50234V4.73076C12.4393 4.86399 12.3863 4.99175 12.2921 5.08596C12.1979 5.18017 12.0701 5.23309 11.9369 5.23309C11.8037 5.23309 11.6759 5.18017 11.5817 5.08596C11.4875 4.99175 11.4346 4.86399 11.4346 4.73076V3.50234C11.4357 3.36946 11.4889 3.24231 11.5829 3.14834C11.6769 3.05437 11.804 3.0011 11.9369 3" fill="white"/>
<path fill-rule="evenodd" clip-rule="evenodd" d="M4.92939 8.18799H6.38999C6.4191 8.18799 6.44701 8.19956 6.4676 8.22014C6.48818 8.24073 6.49975 8.26864 6.49975 8.29775V9.75835C6.49977 9.78786 6.48832 9.81622 6.46785 9.83747C6.44738 9.85873 6.41948 9.87122 6.38999 9.87231H4.92939C4.89916 9.87231 4.87017 9.86032 4.8488 9.83894C4.82742 9.81757 4.81543 9.78858 4.81543 9.75835V8.29775C4.81652 8.26826 4.82901 8.24033 4.85026 8.21986C4.87152 8.19939 4.89988 8.18797 4.92939 8.18799" fill="white"/>
<path fill-rule="evenodd" clip-rule="evenodd" d="M7.86301 8.18799H9.32361C9.35272 8.18799 9.38063 8.19956 9.40121 8.22014C9.4218 8.24073 9.43334 8.26864 9.43334 8.29775V9.75835C9.43336 9.78786 9.42194 9.81622 9.40147 9.83747C9.381 9.85873 9.3531 9.87122 9.32361 9.87231H7.86301C7.83278 9.87231 7.80379 9.86032 7.78242 9.83894C7.76104 9.81757 7.74902 9.78858 7.74902 9.75835V8.29775C7.75012 8.26826 7.76263 8.24033 7.78388 8.21986C7.80514 8.19939 7.8335 8.18797 7.86301 8.18799" fill="white"/>
<path fill-rule="evenodd" clip-rule="evenodd" d="M10.8178 8.18799H12.2826C12.3117 8.18799 12.3396 8.19956 12.3602 8.22014C12.3808 8.24073 12.3923 8.26864 12.3923 8.29775V9.75835C12.3923 9.78786 12.3809 9.81622 12.3605 9.83747C12.34 9.85873 12.3121 9.87122 12.2826 9.87231H10.8178C10.7883 9.87122 10.7603 9.85873 10.7399 9.83747C10.7194 9.81622 10.708 9.78786 10.708 9.75835V8.29775C10.708 8.26864 10.7196 8.24073 10.7402 8.22014C10.7607 8.19956 10.7887 8.18799 10.8178 8.18799" fill="white"/>
<path fill-rule="evenodd" clip-rule="evenodd" d="M4.92939 10.4464H6.38999C6.4191 10.4464 6.44701 10.458 6.4676 10.4785C6.48818 10.4991 6.49975 10.527 6.49975 10.5561V12.021C6.49975 12.0501 6.48818 12.078 6.4676 12.0986C6.44701 12.1192 6.4191 12.1307 6.38999 12.1307H4.92939C4.89988 12.1308 4.87152 12.1193 4.85026 12.0989C4.82901 12.0784 4.81652 12.0505 4.81543 12.021V10.5561C4.81652 10.5267 4.82901 10.4988 4.85026 10.4783C4.87152 10.4578 4.89988 10.4464 4.92939 10.4464" fill="white"/>
<path fill-rule="evenodd" clip-rule="evenodd" d="M7.86301 10.4464H9.32361C9.35272 10.4464 9.38063 10.458 9.40121 10.4785C9.4218 10.4991 9.43334 10.527 9.43334 10.5561V12.021C9.43334 12.0501 9.4218 12.078 9.40121 12.0986C9.38063 12.1192 9.35272 12.1307 9.32361 12.1307H7.86301C7.8335 12.1308 7.80514 12.1193 7.78388 12.0989C7.76263 12.0784 7.75012 12.0505 7.74902 12.021V10.5561C7.75012 10.5267 7.76263 10.4988 7.78388 10.4783C7.80514 10.4578 7.8335 10.4464 7.86301 10.4464" fill="white"/>
<path fill-rule="evenodd" clip-rule="evenodd" d="M4.92939 12.726H6.38999C6.41948 12.727 6.44738 12.7395 6.46785 12.7608C6.48832 12.782 6.49977 12.8104 6.49975 12.8399V14.3005C6.49975 14.3296 6.48818 14.3576 6.4676 14.3781C6.44701 14.3987 6.4191 14.4103 6.38999 14.4103H4.92939C4.89988 14.4103 4.87152 14.3989 4.85026 14.3784C4.82901 14.3579 4.81652 14.33 4.81543 14.3005V12.8399C4.81543 12.8097 4.82742 12.7807 4.8488 12.7593C4.87017 12.738 4.89916 12.726 4.92939 12.726" fill="white"/>
<path fill-rule="evenodd" clip-rule="evenodd" d="M10.8178 10.4464H11.3792C11.1425 10.5653 10.9177 10.7067 10.708 10.8686V10.5477C10.708 10.5186 10.7196 10.4907 10.7402 10.4701C10.7607 10.4496 10.7887 10.438 10.8178 10.438" fill="white"/>
<path fill-rule="evenodd" clip-rule="evenodd" d="M7.86301 12.726H9.32361C9.33894 12.7261 9.35405 12.7295 9.3679 12.7361C9.38175 12.7427 9.39401 12.7522 9.40382 12.764C9.29138 13.1363 9.23448 13.5232 9.23495 13.9122C9.23415 14.0787 9.24402 14.245 9.2645 14.4103H7.86301C7.8335 14.4103 7.80514 14.3989 7.78388 14.3784C7.76263 14.3579 7.75012 14.33 7.74902 14.3005V12.8399C7.74902 12.8097 7.76104 12.7807 7.78242 12.7593C7.80379 12.738 7.83278 12.726 7.86301 12.726" fill="white"/>
<path fill-rule="evenodd" clip-rule="evenodd" d="M14.3137 13.4816L13.2499 14.5454C13.2273 14.572 13.1982 14.5924 13.1654 14.6045C13.1332 14.6175 13.0989 14.6247 13.0641 14.6256C13.0293 14.6256 12.9948 14.6184 12.9628 14.6045C12.9294 14.5913 12.8992 14.5712 12.8742 14.5454L12.0848 13.7349C12.0603 13.7113 12.0415 13.6824 12.0299 13.6505C12.0169 13.6182 12.0097 13.5839 12.0088 13.5492C12.0093 13.513 12.0165 13.4772 12.0299 13.4436C12.0426 13.4122 12.0613 13.3836 12.0848 13.3592C12.1109 13.3347 12.1408 13.3148 12.1734 13.3001C12.2069 13.294 12.2412 13.294 12.2747 13.3001C12.308 13.292 12.3428 13.292 12.376 13.3001C12.4086 13.3148 12.4386 13.3347 12.4647 13.3592L13.0726 13.9713L13.9464 13.0932C13.9705 13.0686 13.9995 13.0491 14.0314 13.0361C14.0633 13.023 14.0976 13.0166 14.1321 13.0173C14.1672 13.0168 14.2021 13.0232 14.2347 13.0362C14.2673 13.0493 14.297 13.0687 14.3221 13.0932C14.3729 13.1435 14.4017 13.2118 14.4023 13.2832C14.4024 13.318 14.3954 13.3525 14.3816 13.3844C14.3678 13.4164 14.3475 13.4452 14.3221 13.4689" fill="white"/>
<path fill-rule="evenodd" clip-rule="evenodd" d="M13.1232 11.0544C13.6886 11.0536 14.2415 11.2205 14.7121 11.534C15.1826 11.8475 15.5496 12.2936 15.7665 12.8157C15.9835 13.3378 16.0407 13.9126 15.9309 14.4672C15.8211 15.0219 15.5492 15.5315 15.1497 15.9316C14.7502 16.3317 14.241 16.6043 13.6865 16.7149C13.132 16.8255 12.5572 16.7692 12.0347 16.553C11.5123 16.3368 11.0657 15.9705 10.7515 15.5004C10.4373 15.0304 10.2695 14.4777 10.2695 13.9123C10.269 13.5371 10.3424 13.1656 10.4856 12.8189C10.6287 12.4722 10.8388 12.1571 11.1038 11.8917C11.3689 11.6263 11.6837 11.4157 12.0301 11.272C12.3766 11.1283 12.7481 11.0544 13.1232 11.0544V11.0544ZM13.1232 10.5267C13.7911 10.5267 14.444 10.7248 14.9994 11.0959C15.5547 11.4669 15.9876 11.9944 16.2432 12.6115C16.4988 13.2286 16.5657 13.9075 16.4354 14.5626C16.3051 15.2177 15.9834 15.8195 15.5112 16.2918C15.0389 16.7641 14.4371 17.0857 13.782 17.216C13.1269 17.3463 12.4479 17.2794 11.8308 17.0238C11.2137 16.7682 10.6863 16.3354 10.3152 15.78C9.94414 15.2247 9.74609 14.5718 9.74609 13.9038C9.74609 13.0082 10.1019 12.1492 10.7352 11.5159C11.3685 10.8825 12.2275 10.5267 13.1232 10.5267Z" fill="white"/>
</svg>
