<svg width="24" height="24" viewBox="0 0 24 24" fill="none" xmlns="http://www.w3.org/2000/svg">
<path d="M16.6875 6.58398H16.2781V16.6411C16.2781 17.3093 15.7343 17.8531 15.0661 17.8531H10.9184H7.62012V18.2259C7.62012 18.6528 7.96661 18.9993 8.39352 18.9993H12.5398H16.686C17.1129 18.9993 17.4594 18.6528 17.4594 18.2259V7.35739C17.4594 6.93048 17.1144 6.58398 16.6875 6.58398Z" fill="white"/>
<path d="M10.9182 17.4153H15.0644C15.4914 17.4153 15.8379 17.0689 15.8379 16.642V6.58482V5.7734C15.8379 5.3465 15.4914 5 15.0644 5H10.9182H9.53952V5.25585C9.54243 5.28217 9.54391 5.30995 9.54391 5.33772V7.02342V7.45617C9.54391 8.05706 9.0556 8.54537 8.45471 8.54537H8.02196H6.33626C6.31433 8.54537 6.29094 8.5439 6.26901 8.54244H6V16.642C6 17.0689 6.3465 17.4153 6.7734 17.4153H7.62137H10.9182ZM11.0746 14.7867H8.37138C8.16962 14.7867 8.00587 14.6229 8.00587 14.4212C8.00587 14.2194 8.16962 14.0557 8.37138 14.0557H11.0761C11.2778 14.0557 11.4416 14.2194 11.4416 14.4212C11.4416 14.6229 11.2764 14.7867 11.0746 14.7867ZM13.7793 12.9212H8.37138C8.16962 12.9212 8.00587 12.7574 8.00587 12.5557C8.00587 12.3539 8.16962 12.1902 8.37138 12.1902H13.7793C13.9811 12.1902 14.1448 12.3539 14.1448 12.5557C14.1448 12.7574 13.9811 12.9212 13.7793 12.9212ZM8.37138 10.2091H13.7793C13.9811 10.2091 14.1448 10.3729 14.1448 10.5746C14.1448 10.7764 13.9811 10.9401 13.7793 10.9401H8.37138C8.16962 10.9401 8.00587 10.7764 8.00587 10.5746C8.00587 10.3729 8.16962 10.2091 8.37138 10.2091Z" fill="white"/>
<path d="M6.33542 8.10581H8.45387C8.45533 8.10581 8.45826 8.10581 8.45972 8.10581C8.81353 8.10289 9.10008 7.81633 9.103 7.46253C9.103 7.46107 9.103 7.45814 9.103 7.45668V5.33677C9.103 5.14086 8.94218 5.01074 8.77553 5.01074C8.69512 5.01074 8.61471 5.03998 8.54746 5.10723L6.10443 7.55025C5.89975 7.75493 6.04448 8.10581 6.33542 8.10581Z" fill="white"/>
</svg>
