<svg width="47" height="51" viewBox="0 0 47 51" fill="none" xmlns="http://www.w3.org/2000/svg">
<path fill-rule="evenodd" clip-rule="evenodd" d="M27.7048 17.2473H27.5604C26.5144 17.2569 25.4726 17.3811 24.4537 17.6176C24.0464 17.7102 23.6502 17.8213 23.2577 17.9472C22.8652 18.0731 22.4764 18.2212 22.1061 18.3767C20.2999 19.1438 18.669 20.271 17.3129 21.6894C15.9569 23.1079 14.9041 24.7878 14.219 26.6267C14.0783 26.997 13.9524 27.4006 13.8487 27.7931C13.5041 29.0363 13.3297 30.3206 13.3303 31.6107V31.8255C13.3454 32.8479 13.4695 33.8658 13.7006 34.8618C13.7969 35.2692 13.908 35.6691 14.0339 36.0579C14.1597 36.4541 14.3042 36.8392 14.4634 37.2132C15.2287 39.0201 16.3553 40.6515 17.774 42.0071C19.1927 43.3628 20.8736 44.4141 22.7134 45.0966C23.1034 45.2422 23.4922 45.3656 23.8798 45.4668C25.1249 45.8082 26.4101 45.9813 27.7011 45.9815H27.9566C29.5767 45.9531 31.1803 45.6514 32.7 45.0891C32.9999 44.9744 33.2999 44.8522 33.5961 44.7189C33.8923 44.5856 34.1774 44.4449 34.4551 44.2967C34.7366 44.1486 35.0143 43.9857 35.2883 43.8154L35.4438 43.7154L35.4919 43.6821L35.5993 43.6117C35.8585 43.4414 36.114 43.2414 36.3695 43.0674L36.5102 42.96L36.6546 42.8452H36.6769C36.7967 42.7667 36.9051 42.672 36.999 42.5638C37.0183 42.5445 37.0356 42.5234 37.0508 42.5009L37.099 42.4379L37.1471 42.3638V42.3453C37.2175 42.2209 37.271 42.0877 37.3064 41.9491C37.3078 41.9208 37.3078 41.8923 37.3064 41.864C37.3243 41.7775 37.333 41.6894 37.3323 41.6011V41.5418C37.3287 41.4344 37.3138 41.3277 37.2878 41.2234C37.2788 41.1857 37.2677 41.1487 37.2545 41.1123C37.23 41.0369 37.199 40.9638 37.1619 40.8938C37.0903 40.7579 36.9993 40.6331 36.8916 40.5235C36.7365 40.3708 36.5511 40.2522 36.3473 40.1755L36.2251 40.1347C36.0131 40.07 35.7892 40.0537 35.57 40.087C35.3509 40.1203 35.142 40.2024 34.9587 40.3273L34.781 40.468C34.1941 40.9448 33.5601 41.3604 32.8888 41.7084L32.4926 41.9084L32.0853 42.0898L31.6706 42.2565L31.5928 42.2861L31.5151 42.312C30.9132 42.5298 30.2938 42.6958 29.6636 42.8082L29.2934 42.8674C28.8454 42.9309 28.3941 42.968 27.9418 42.9785H27.4567C26.2582 42.9507 25.0713 42.7358 23.939 42.3416C23.5946 42.2194 23.2577 42.0824 22.9355 41.9306C22.6134 41.7788 22.2912 41.6122 21.9765 41.4307C21.1399 40.9398 20.3696 40.3437 19.6844 39.6571L19.5067 39.4793C18.5491 38.4788 17.7823 37.3118 17.2442 36.0357C17.1331 35.7727 17.0295 35.5024 16.9406 35.2284C16.582 34.1528 16.3872 33.0294 16.363 31.8959V31.6404V31.3886C16.3875 30.1921 16.6025 29.0071 16.9998 27.8782C17.1183 27.5339 17.259 27.2006 17.4072 26.8711C17.5553 26.5415 17.7256 26.2305 17.9107 25.9157C18.4016 25.0789 18.9963 24.3075 19.6807 23.62C20.7205 22.5814 21.9515 21.754 23.3058 21.1835C23.5724 21.0724 23.8427 20.9687 24.1167 20.8761C25.2716 20.4926 26.4806 20.2976 27.6974 20.2985H27.9529C29.6249 20.3327 31.2686 20.7365 32.766 21.4811C34.2635 22.2256 35.5775 23.2924 36.6139 24.6049C36.9532 25.0333 37.2602 25.4863 37.5322 25.9602C37.808 26.4349 38.0469 26.93 38.2469 27.4413C38.2839 27.5339 38.3209 27.6339 38.3617 27.7486C38.4024 27.8634 38.4394 27.9634 38.469 28.056C38.6019 28.463 38.7119 28.8771 38.7986 29.2964C38.7986 29.3742 38.8319 29.4557 38.8467 29.5445L38.8912 29.7926L38.9393 30.0814H23.4206C23.0937 30.0795 22.7716 30.1597 22.4838 30.3147C22.4313 30.3423 22.3806 30.3732 22.332 30.4073C22.2875 30.4369 22.2394 30.474 22.1987 30.5073C22.1541 30.5425 22.112 30.5809 22.0728 30.6221L22.0506 30.648L22.0246 30.6776L21.9691 30.7406C21.8723 30.864 21.7972 31.003 21.7469 31.1516C21.7469 31.1812 21.7284 31.2182 21.7173 31.2516C21.6908 31.3594 21.6771 31.47 21.6766 31.5811V31.67C21.6956 31.9391 21.7935 32.1967 21.958 32.4105C21.995 32.455 22.032 32.5031 22.0728 32.5439C22.1135 32.5846 22.1579 32.629 22.1987 32.666C22.2424 32.702 22.2881 32.7353 22.3357 32.766L22.369 32.7882H22.3986C22.5631 32.8883 22.7415 32.9632 22.9281 33.0104L23.0392 33.0363C23.1614 33.0586 23.2853 33.0698 23.4095 33.0697H41.9942V32.8364C41.9942 32.7438 41.9942 32.6364 42.0201 32.5142C42.046 32.392 42.0201 32.2921 42.0201 32.1995C42.0201 32.1069 42.0201 31.9625 42.0201 31.8588V31.5478C42.02 30.4548 41.8957 29.3653 41.6498 28.3004C41.5572 27.8968 41.4461 27.4968 41.3203 27.108C41.1944 26.7192 41.0462 26.3267 40.8907 25.9528C40.122 24.1649 38.9999 22.5509 37.5917 21.2076C36.1835 19.8644 34.5184 18.8196 32.6963 18.136C32.3063 17.9904 31.9174 17.8669 31.5299 17.7657C30.2848 17.4244 28.9996 17.2513 27.7085 17.251L27.7048 17.2473ZM14.1449 18.4656C16.9465 15.5111 20.6415 13.5595 24.6611 12.9113L24.2908 12.1485C20.2764 12.7945 16.582 14.7314 13.7672 17.6657L14.1709 18.4359L14.1449 18.4656ZM2.39575 22.6313L3.50661 20.3799C3.311 20.2443 3.15184 20.0626 3.04323 19.8508C2.93462 19.6389 2.87991 19.4036 2.88394 19.1656C2.88796 18.9276 2.95061 18.6943 3.06632 18.4863C3.18204 18.2783 3.34725 18.102 3.54734 17.9731V15.2996L0 15.2811L12.275 0.166016H30.6116L25.0795 6.56827C18.5402 5.59071 11.9677 8.50857 8.04632 15.3181H5.08403V17.9398C5.29711 18.0675 5.47354 18.2482 5.59617 18.4642C5.7188 18.6803 5.78346 18.9244 5.78387 19.1728C5.78295 19.2812 5.77054 19.3892 5.74684 19.495C5.728 19.5997 5.69302 19.7009 5.64316 19.7949C5.52581 20.0361 5.34378 20.2399 5.11736 20.3836L6.09491 22.5869L2.39575 22.6313ZM27.69 12.6336C27.3197 12.6336 26.9494 12.6336 26.5792 12.6669L24.313 7.91241C18.3884 7.74578 13.6265 9.81938 10.4458 15.0367L12.923 19.669L12.96 19.6431C10.2367 22.9905 8.73324 27.165 8.69688 31.4802C8.66052 35.7954 10.0934 39.9945 12.76 43.3874C15.4265 46.7803 19.1681 49.165 23.3696 50.1495C27.5712 51.134 31.9827 50.6597 35.879 48.8046C39.7752 46.9496 42.9244 43.8241 44.8088 39.9419C46.6933 36.0597 47.2008 31.652 46.2481 27.4431C45.2953 23.2343 42.9389 19.4748 39.5663 16.7827C36.1936 14.0906 32.0054 12.6261 27.69 12.6299V12.6336Z" fill="#0078D4"/>
</svg>
