<svg width="151" height="36" viewBox="0 0 151 36" fill="none" xmlns="http://www.w3.org/2000/svg">
<path d="M69.4572 7.60038C69.4591 7.62873 69.4591 7.65719 69.4572 7.68554V7.73739C69.4443 7.93514 69.4019 8.12985 69.3313 8.31503C69.2389 8.54816 69.0945 8.75712 68.9092 8.926C68.7445 9.08125 68.5541 9.20656 68.3463 9.29629C68.1356 9.38063 67.9105 9.42339 67.6835 9.42219H57.9117V33.6908C57.9127 34.0316 57.8164 34.3656 57.634 34.6535C57.6007 34.7079 57.5635 34.7599 57.5229 34.809C57.483 34.8612 57.4397 34.9107 57.3933 34.9571C57.2545 35.108 57.0903 35.2333 56.9082 35.3274L56.8008 35.3756C56.5749 35.4663 56.3333 35.5116 56.0899 35.5089C55.7728 35.5081 55.4623 35.4183 55.1938 35.2497C55.1419 35.22 55.0938 35.183 55.0419 35.146L54.9012 35.0349C54.7494 34.8999 54.6238 34.738 54.531 34.5572L54.4791 34.4498C54.3827 34.2149 54.3336 33.9632 54.3347 33.7093V9.4407H51.1243C50.8698 9.44393 50.6174 9.39346 50.3837 9.29259C50.1506 9.19211 49.9449 9.0372 49.7839 8.84084C49.6355 8.67254 49.5176 8.47954 49.4358 8.2706C49.3558 8.06132 49.3144 7.83925 49.3136 7.61519C49.3041 7.25533 49.4021 6.90081 49.595 6.5969C49.6334 6.53874 49.6755 6.48309 49.7209 6.43027C49.7678 6.37606 49.8185 6.32532 49.8727 6.27846C50.0126 6.15497 50.1698 6.05267 50.3393 5.97482H50.3615L50.4282 5.9489C50.6433 5.86661 50.8718 5.82517 51.1021 5.82671H54.3088V2.12385C54.3077 1.79918 54.3919 1.47994 54.5532 1.19813C54.5865 1.13888 54.6198 1.08334 54.6531 1.0352C54.6865 0.987065 54.7272 0.935225 54.7716 0.883385C54.9307 0.690671 55.1322 0.537333 55.3604 0.435339C55.5877 0.33487 55.8339 0.284361 56.0825 0.287225C56.3065 0.287961 56.5286 0.329364 56.7379 0.409419C56.9468 0.493502 57.1407 0.611064 57.3118 0.757488C57.4767 0.895658 57.6137 1.06407 57.7154 1.25367C57.7361 1.28955 57.7547 1.32665 57.771 1.36476C57.87 1.59903 57.9204 1.85099 57.9191 2.10533V5.80819H67.7576C68.0895 5.81869 68.4106 5.92831 68.6796 6.12294C68.7368 6.16368 68.7912 6.20822 68.8425 6.25624L68.861 6.27475C69.0451 6.44334 69.1923 6.64808 69.2936 6.87617C69.3949 7.10427 69.4481 7.35081 69.4498 7.60038" fill="white"/>
<path d="M20.1838 33.7085C20.1878 33.9617 20.1425 34.2132 20.0504 34.4491C19.9574 34.6862 19.8133 34.8999 19.6283 35.0749C19.5831 35.1189 19.5348 35.1598 19.4839 35.1971L19.3284 35.3082C19.0566 35.4897 18.7403 35.5934 18.4138 35.6081C18.1692 35.6213 17.9246 35.5835 17.6954 35.497C17.4657 35.4078 17.2602 35.2657 17.0956 35.0823C17.0549 35.0374 17.0166 34.9905 16.9808 34.9416C16.9441 34.892 16.9107 34.84 16.8808 34.7861C16.7207 34.5107 16.6376 34.1974 16.6401 33.8789L16.5994 15.7348C16.5995 15.2873 16.5561 14.8409 16.4698 14.4018C16.4698 14.3203 16.4365 14.25 16.4253 14.1945C16.3442 13.848 16.2352 13.5088 16.0995 13.1799C15.9323 12.7914 15.7289 12.4195 15.4922 12.069C15.2659 11.7286 15.0053 11.4122 14.7146 11.1248C14.4261 10.8393 14.1084 10.5848 13.7667 10.3657C13.4172 10.1396 13.0449 9.95092 12.6558 9.80286C12.541 9.75842 12.43 9.71769 12.3226 9.68436C12.2226 9.65104 12.1078 9.61771 11.9893 9.58809C11.3909 9.43597 10.7732 9.37357 10.1564 9.40295C9.71919 9.42266 9.28504 9.48592 8.86039 9.59179C8.44475 9.69721 8.04138 9.84615 7.65696 10.0361C7.2674 10.2259 6.89563 10.4502 6.5461 10.7064C6.20134 10.9579 5.88144 11.2418 5.59076 11.5543C5.29837 11.8662 5.03557 12.2047 4.80576 12.5652C4.57045 12.9302 4.36845 13.3156 4.20219 13.7168C4.16516 13.8131 4.12073 13.9278 4.0763 14.0611C4.03186 14.1945 3.99113 14.3055 3.96151 14.4092C3.7904 15.024 3.70566 15.6596 3.70972 16.2977V33.7011C3.71316 33.955 3.6653 34.2068 3.56901 34.4417L3.51717 34.5528C3.42373 34.7408 3.29845 34.9112 3.14688 35.0564C3.10244 35.0971 3.05431 35.1416 3.00247 35.1823C2.95063 35.223 2.90619 35.2563 2.84695 35.2971C2.61138 35.4557 2.34156 35.5562 2.05963 35.5903C1.77769 35.6244 1.49169 35.5912 1.22509 35.4933C0.992735 35.4068 0.784496 35.2659 0.617822 35.0823C0.45949 34.923 0.333718 34.7343 0.247536 34.5269C0.166137 34.3167 0.124695 34.0932 0.125341 33.8678V7.96994C0.12038 7.71563 0.169608 7.46318 0.269752 7.22937L0.321592 7.11828C0.421936 6.93198 0.554873 6.76518 0.714095 6.6258C0.76248 6.58238 0.81316 6.54159 0.865914 6.5036L1.02143 6.40363C1.29756 6.23391 1.61226 6.13708 1.93604 6.12221C2.17396 6.10838 2.41219 6.14367 2.63588 6.22589C2.85383 6.31099 3.04995 6.44385 3.20983 6.61469C3.25118 6.65899 3.28952 6.706 3.32461 6.7554C3.54568 7.06152 3.66486 7.42942 3.66528 7.80701V8.41799C3.81339 8.28468 3.96151 8.15508 4.11703 8.0477C4.39474 7.82182 4.68357 7.61076 4.97609 7.41451C5.26862 7.21826 5.57966 7.04422 5.90181 6.86278L6.16101 6.72948L6.43502 6.59618C6.91458 6.38332 7.40974 6.20754 7.91617 6.07037C8.26831 5.97202 8.62555 5.8929 8.9863 5.83339C9.35658 5.77784 9.72687 5.74081 10.0972 5.7223C10.7706 5.68981 11.4457 5.72704 12.1115 5.83339L12.43 5.89263C12.9693 5.99977 13.4974 6.15721 14.0074 6.3629C14.1703 6.42955 14.3332 6.4999 14.4999 6.57766C14.6665 6.65542 14.8368 6.74059 14.9849 6.81835C15.8172 7.23858 16.5832 7.77879 17.2585 8.42169C17.3807 8.54018 17.5029 8.66608 17.6288 8.79197C17.7547 8.91787 17.8584 9.05117 17.9731 9.19559C18.557 9.92161 19.0368 10.7255 19.3987 11.5839C19.4691 11.758 19.5394 11.9283 19.5987 12.1023C19.6579 12.2764 19.7135 12.443 19.769 12.6355C20.0425 13.5763 20.1797 14.5515 20.1763 15.5312V33.6752L20.1838 33.7085Z" fill="white"/>
<path d="M150.835 7.60064V7.74505C150.82 7.94299 150.777 8.1377 150.705 8.3227C150.611 8.556 150.466 8.76492 150.279 8.93367C150.114 9.08977 149.922 9.21516 149.713 9.30396C149.5 9.38797 149.274 9.4307 149.046 9.42986H137.937V33.6984C137.94 34.0389 137.845 34.3729 137.663 34.6612C137.629 34.713 137.592 34.7648 137.552 34.8167C137.515 34.8648 137.471 34.913 137.423 34.9648C137.283 35.1148 137.119 35.2401 136.938 35.3351L136.83 35.3832C136.603 35.4744 136.36 35.5198 136.116 35.5165C135.797 35.5153 135.486 35.4255 135.216 35.2573L135.064 35.1536C135.014 35.1192 134.966 35.0821 134.92 35.0426C134.768 34.9074 134.642 34.7455 134.549 34.5649C134.527 34.5205 134.512 34.4834 134.498 34.4575C134.4 34.2229 134.352 33.9708 134.357 33.7169V9.44097H131.143C130.888 9.44376 130.636 9.3933 130.402 9.29285C130.171 9.19125 129.966 9.03648 129.806 8.8411C129.658 8.6728 129.54 8.4798 129.458 8.27086C129.375 8.0624 129.332 7.83995 129.332 7.61545C129.324 7.25524 129.423 6.90076 129.617 6.59717C129.654 6.53815 129.696 6.48241 129.743 6.43054C129.789 6.37639 129.838 6.32565 129.891 6.27872C130.032 6.15514 130.191 6.05285 130.361 5.97509H130.38L130.447 5.94917H130.465C130.68 5.86688 130.909 5.82544 131.139 5.82697H134.353V2.12411C134.352 1.79945 134.436 1.4802 134.597 1.19839C134.631 1.13915 134.668 1.0836 134.701 1.03547C134.734 0.987329 134.775 0.935489 134.816 0.883649C134.977 0.692523 135.178 0.539485 135.405 0.435603C135.638 0.332733 135.891 0.282177 136.145 0.287489C136.369 0.288225 136.591 0.329628 136.801 0.409683C137.009 0.492969 137.202 0.610628 137.371 0.757752C137.535 0.896007 137.671 1.06445 137.771 1.25394C137.79 1.28994 137.808 1.32703 137.823 1.36502C137.925 1.59851 137.976 1.85083 137.975 2.10559V5.80846H149.172C149.504 5.81827 149.825 5.92796 150.094 6.1232C150.152 6.16301 150.206 6.2076 150.257 6.2565L150.279 6.27502C150.462 6.44435 150.608 6.64931 150.709 6.8773C150.809 7.10528 150.862 7.35145 150.864 7.60064" fill="white"/>
<path d="M83.8721 34.4385C83.7997 34.6022 83.7036 34.7544 83.587 34.8902C83.471 35.0177 83.339 35.1297 83.1945 35.2235L83.15 35.2494L83.0241 35.3198L82.8945 35.379C82.6916 35.46 82.4761 35.5051 82.2576 35.5123H82.191C82.0286 35.5148 81.8666 35.4949 81.7096 35.4531H81.6578C81.5359 35.414 81.4181 35.3631 81.306 35.3013C81.1364 35.2062 80.9857 35.0807 80.8617 34.931C80.7433 34.7849 80.646 34.6228 80.5728 34.4496L69.6124 8.42217C69.5084 8.18859 69.4506 7.93712 69.442 7.6816C69.4346 7.4238 69.4946 7.16852 69.6161 6.94102C69.8188 6.55383 70.1519 6.25083 70.5566 6.08566C70.7629 5.99714 70.9839 5.94815 71.2083 5.94125C71.424 5.93619 71.6391 5.9662 71.8452 6.03012C71.9151 6.04867 71.9833 6.07345 72.0488 6.10418C72.1141 6.13573 72.1772 6.1716 72.2377 6.21156C72.5484 6.41703 72.7868 6.71495 72.919 7.06322L82.1984 29.0582L91.4259 7.06322C91.5218 6.82903 91.6599 6.61442 91.8332 6.43003C92.0164 6.24047 92.2463 6.10253 92.4998 6.03012L92.5738 6.0079C92.6322 5.99082 92.6916 5.97722 92.7516 5.96717C92.8103 5.95612 92.8696 5.9487 92.9293 5.94495C93.2176 5.9224 93.5071 5.96939 93.7735 6.08196C93.9752 6.16551 94.1616 6.28187 94.3253 6.42633C94.4859 6.57292 94.6221 6.74416 94.7289 6.93362C94.8544 7.16015 94.9195 7.41521 94.9177 7.67419C94.9112 7.93752 94.852 8.19688 94.7437 8.43698L83.8239 34.4385H83.8721Z" fill="white"/>
<path fill-rule="evenodd" clip-rule="evenodd" d="M45.8814 32.5385C45.6222 32.7384 45.3482 32.931 45.0668 33.1161C44.6965 33.3605 44.3262 33.5938 43.9041 33.8085C41.7887 34.9393 39.4265 35.5296 37.0279 35.5267C35.1077 35.5276 33.206 35.1502 31.4318 34.4159C29.6575 33.6816 28.0453 32.6049 26.6873 31.2473C25.3293 29.8897 24.2522 28.2777 23.5174 26.5036C22.7827 24.7295 22.4048 22.828 22.4053 20.9078C22.4043 18.9875 22.7817 17.0859 23.516 15.3116C24.2503 13.5373 25.327 11.9251 26.6847 10.5672C28.0423 9.20918 29.6542 8.13205 31.4283 7.39732C33.2024 6.66259 35.104 6.28467 37.0242 6.28516C40.9017 6.28516 44.6205 7.82524 47.3626 10.5667C50.1048 13.3082 51.6458 17.0265 51.6468 20.9041C51.6468 21.1003 51.6468 21.3225 51.6468 21.5632C51.6468 21.8039 51.6209 21.989 51.6024 22.2112L51.5579 22.674H31.4847C31.0592 22.6746 30.6479 22.5212 30.3266 22.2421C30.0054 21.9631 29.7959 21.5773 29.7369 21.1559C29.722 21.074 29.7146 20.991 29.7147 20.9078V20.8744C29.7244 20.4121 29.9146 19.9719 30.2447 19.648C30.5748 19.3242 31.0186 19.1424 31.481 19.1415H47.9772C47.7647 17.8158 47.313 16.5399 46.6442 15.3757C45.6704 13.6844 44.2673 12.2802 42.5768 11.3049C40.8864 10.3296 38.9684 9.81788 37.0168 9.82139C34.0738 9.82139 31.2511 10.9892 29.1684 13.0685C27.0856 15.1477 25.9131 17.9685 25.9082 20.9115C25.906 22.3685 26.1922 23.8116 26.7502 25.1576C27.3081 26.5036 28.1269 27.7259 29.1593 28.7541C30.1879 29.7849 31.4098 30.6027 32.7549 31.1606C34.1001 31.7185 35.542 32.0055 36.9983 32.0052C38.2795 32.0052 39.551 31.7834 40.7567 31.3498C40.9344 31.2832 41.127 31.2091 41.3195 31.1277C42.0954 30.7982 42.8309 30.3807 43.5116 29.8835C43.6745 29.7835 44.8891 28.8208 45.9851 29.9131C46.3141 30.2459 46.4987 30.6949 46.4987 31.1628C46.4987 31.6308 46.3141 32.0798 45.9851 32.4126L45.8481 32.5496" fill="white"/>
<path d="M100.106 33.7086C100.11 33.9624 100.062 34.2145 99.9651 34.4491C99.9651 34.4788 99.9355 34.5121 99.9133 34.5565C99.8203 34.7393 99.6949 34.9037 99.543 35.0416C99.382 35.1961 99.1953 35.3214 98.9913 35.4119C98.7852 35.4996 98.5635 35.5449 98.3396 35.5452C98.0931 35.5465 97.8489 35.4987 97.6212 35.4045C97.3897 35.3062 97.1843 35.1553 97.0213 34.9638C96.8647 34.7975 96.7393 34.6043 96.6511 34.3936C96.5697 34.1808 96.5282 33.9549 96.5289 33.7271V7.48858C96.5272 7.23492 96.575 6.98337 96.6696 6.74801C96.7689 6.51601 96.9181 6.30869 97.1065 6.14074C97.1472 6.10371 97.1991 6.06298 97.2583 6.01854L97.4212 5.90746C97.7014 5.73396 98.0248 5.64285 98.3544 5.64455C98.5974 5.64484 98.8379 5.69395 99.0616 5.78897L99.169 5.84081C99.3462 5.93577 99.5054 6.0611 99.6393 6.21109C99.6831 6.26038 99.7239 6.31232 99.7615 6.36661C99.7998 6.421 99.8344 6.4779 99.8651 6.53694C100.019 6.83066 100.087 7.16173 100.061 7.49228V33.69L100.106 33.7086Z" fill="white"/>
<path fill-rule="evenodd" clip-rule="evenodd" d="M125.97 32.5381C125.707 32.738 125.433 32.9306 125.152 33.1157C124.781 33.3601 124.393 33.5934 123.989 33.8081C121.874 34.9389 119.512 35.5292 117.113 35.5263C113.235 35.5263 109.517 33.9862 106.774 31.2447C104.032 28.5032 102.491 24.7849 102.49 20.9074C102.489 18.9868 102.867 17.0848 103.601 15.3101C104.335 13.5354 105.412 11.9227 106.769 10.5641C108.127 9.20556 109.739 8.12773 111.513 7.39219C113.287 6.65666 115.189 6.27783 117.109 6.27734C120.987 6.27734 124.705 7.81743 127.448 10.5589C130.19 13.3004 131.731 17.0187 131.732 20.8962C131.732 21.0925 131.732 21.3147 131.732 21.5554C131.732 21.796 131.706 21.9812 131.687 22.2034L131.647 22.6662H111.577C111.152 22.6668 110.74 22.5133 110.419 22.2343C110.098 21.9553 109.888 21.5694 109.829 21.148C109.814 21.0662 109.807 20.9832 109.807 20.9V20.8666C109.817 20.4043 110.007 19.9641 110.337 19.6402C110.667 19.3164 111.111 19.1346 111.573 19.1337H128.066C127.975 18.5541 127.837 17.9831 127.651 17.4267C127.417 16.7107 127.109 16.0208 126.733 15.3679C125.759 13.6766 124.356 12.2723 122.665 11.2971C120.975 10.3218 119.057 9.81007 117.105 9.81358C114.166 9.81847 111.348 10.9885 109.269 13.0672C107.19 15.1459 106.02 17.9639 106.015 20.9037C106.014 22.3606 106.301 23.8035 106.858 25.1493C107.416 26.4952 108.235 27.7176 109.266 28.7463C110.294 29.777 111.516 30.5947 112.86 31.1526C114.205 31.7105 115.646 31.9976 117.102 31.9974C118.382 31.9977 119.652 31.776 120.856 31.342C121.034 31.2754 121.227 31.2013 121.419 31.1199C122.196 30.7912 122.931 30.3737 123.611 29.8757C123.778 29.7757 124.993 28.813 126.089 29.9053C126.416 30.239 126.599 30.6877 126.599 31.155C126.599 31.6224 126.416 32.0711 126.089 32.4047C126.089 32.4047 125.955 32.5418 125.952 32.5418" fill="white"/>
</svg>
