<svg width="218" height="78" viewBox="0 0 218 78" fill="none" xmlns="http://www.w3.org/2000/svg">
<path fill-rule="evenodd" clip-rule="evenodd" d="M30.1534 18.591H29.9963C28.8578 18.6014 27.724 18.7366 26.615 18.994C26.1717 19.0948 25.7405 19.2157 25.3133 19.3527C24.8861 19.4897 24.4629 19.6509 24.0599 19.8202C22.094 20.6551 20.319 21.8819 18.8431 23.4257C17.3672 24.9695 16.2214 26.7979 15.4757 28.7993C15.3226 29.2023 15.1855 29.6416 15.0727 30.0688C14.6976 31.422 14.5078 32.8197 14.5085 34.2239V34.4576C14.5249 35.5704 14.66 36.6782 14.9115 37.7623C15.0163 38.2056 15.1372 38.6409 15.2742 39.0641C15.4112 39.4953 15.5684 39.9144 15.7417 40.3215C16.5746 42.2881 17.8008 44.0636 19.3449 45.5391C20.889 47.0146 22.7184 48.1589 24.7208 48.9016C25.1453 49.0601 25.5685 49.1945 25.9903 49.3046C27.3455 49.6761 28.7443 49.8646 30.1494 49.8648H30.4275C32.1907 49.8338 33.9361 49.5055 35.5901 48.8936C35.9165 48.7686 36.243 48.6356 36.5654 48.4905C36.8878 48.3455 37.1981 48.1923 37.5004 48.0311C37.8067 47.8699 38.1089 47.6926 38.4072 47.5072L38.5764 47.3984L38.6288 47.3621L38.7457 47.2855C39.0278 47.1002 39.3059 46.8825 39.584 46.6931L39.7371 46.5762L39.8943 46.4513H39.9185C40.0489 46.3658 40.1669 46.2628 40.2691 46.145C40.29 46.124 40.3089 46.1011 40.3255 46.0765L40.3779 46.008L40.4303 45.9274V45.9072C40.5069 45.7718 40.5652 45.6268 40.6036 45.476C40.6052 45.4451 40.6052 45.4142 40.6036 45.3833C40.6231 45.2892 40.6326 45.1933 40.6318 45.0972V45.0327C40.6279 44.9158 40.6116 44.7996 40.5834 44.6861C40.5736 44.6452 40.5615 44.6048 40.5472 44.5652C40.5205 44.4832 40.4868 44.4036 40.4464 44.3274C40.3685 44.1795 40.2694 44.0437 40.1522 43.9244C39.9833 43.7581 39.7815 43.6291 39.5598 43.5456L39.4268 43.5012C39.196 43.4308 38.9524 43.4131 38.7138 43.4493C38.4753 43.4856 38.2479 43.575 38.0485 43.7108L37.855 43.864C37.2163 44.3829 36.5263 44.8353 35.7956 45.2141L35.3644 45.4317L34.9211 45.6292L34.4697 45.8105L34.3851 45.8427L34.3004 45.871C33.6453 46.108 32.9712 46.2886 32.2854 46.411L31.8824 46.4755C31.3948 46.5446 30.9037 46.585 30.4114 46.5964H29.8834C28.5789 46.5661 27.2871 46.3322 26.0548 45.9032C25.68 45.7702 25.3133 45.6211 24.9626 45.4559C24.612 45.2906 24.2614 45.1093 23.9188 44.9118C23.0083 44.3775 22.1699 43.7287 21.4242 42.9814L21.2307 42.7879C20.1885 41.699 19.354 40.4288 18.7683 39.0399C18.6474 38.7537 18.5346 38.4595 18.4379 38.1613C18.0475 36.9907 17.8356 35.7679 17.8092 34.5342V34.2561V33.9821C17.8359 32.6798 18.0698 31.3901 18.5023 30.1615C18.6313 29.7867 18.7844 29.424 18.9456 29.0653C19.1069 28.7066 19.2922 28.3681 19.4937 28.0255C20.0279 27.1147 20.6752 26.2752 21.4202 25.5269C22.5518 24.3965 23.8916 23.496 25.3656 22.875C25.6558 22.7541 25.95 22.6413 26.2482 22.5405C27.5051 22.1231 28.821 21.9108 30.1454 21.9118H30.4235C32.2432 21.949 34.0322 22.3886 35.662 23.1989C37.2918 24.0093 38.722 25.1704 39.8499 26.5989C40.2192 27.0651 40.5533 27.5581 40.8494 28.0739C41.1495 28.5906 41.4095 29.1295 41.6272 29.686C41.6675 29.7867 41.7078 29.8955 41.7522 30.0205C41.7965 30.1454 41.8368 30.2542 41.869 30.355C42.0136 30.798 42.1333 31.2487 42.2277 31.705C42.2277 31.7897 42.264 31.8783 42.2801 31.9751L42.3285 32.2451L42.3809 32.5594H25.4906C25.1348 32.5573 24.7842 32.6446 24.471 32.8133C24.4138 32.8434 24.3586 32.877 24.3057 32.9141C24.2574 32.9463 24.205 32.9866 24.1606 33.0229C24.1121 33.0613 24.0663 33.103 24.0236 33.1478L23.9994 33.176L23.9712 33.2083L23.9108 33.2768C23.8054 33.4111 23.7236 33.5624 23.669 33.7241C23.669 33.7564 23.6488 33.7967 23.6367 33.833C23.6078 33.9503 23.593 34.0707 23.5924 34.1916V34.2884C23.6131 34.5813 23.7196 34.8616 23.8987 35.0944C23.939 35.1427 23.9793 35.1951 24.0236 35.2395C24.0679 35.2838 24.1163 35.3322 24.1606 35.3725C24.2082 35.4116 24.258 35.4479 24.3098 35.4813L24.346 35.5055H24.3783C24.5572 35.6144 24.7515 35.6959 24.9546 35.7473L25.0755 35.7755C25.2084 35.7997 25.3433 35.8119 25.4785 35.8118H45.7057V35.5579C45.7057 35.4571 45.7057 35.3402 45.7339 35.2072C45.7621 35.0742 45.7339 34.9654 45.7339 34.8647C45.7339 34.7639 45.7339 34.6067 45.7339 34.4939V34.1554C45.7338 32.9658 45.5986 31.78 45.3309 30.6209C45.2302 30.1817 45.1093 29.7464 44.9722 29.3232C44.8352 28.9001 44.674 28.4729 44.5047 28.0658C43.6681 26.12 42.4468 24.3633 40.9141 22.9013C39.3815 21.4393 37.5692 20.3022 35.5861 19.5582C35.1616 19.3997 34.7384 19.2654 34.3166 19.1552C32.9614 18.7837 31.5626 18.5953 30.1575 18.595L30.1534 18.591ZM15.3951 19.9169C18.4442 16.7014 22.4658 14.5773 26.8407 13.8717L26.4377 13.0415C22.0685 13.7447 18.0475 15.8528 14.984 19.0464L15.4233 19.8847L15.3951 19.9169ZM2.6075 24.4508L3.81653 22.0005C3.60363 21.8529 3.43041 21.6551 3.3122 21.4245C3.19399 21.194 3.13444 20.9379 3.13883 20.6789C3.14321 20.4198 3.21139 20.1659 3.33733 19.9395C3.46327 19.7131 3.64309 19.5212 3.86087 19.3809V16.4711L0 16.451L13.3599 0H33.3171L27.2961 6.9681C20.1789 5.90414 13.0254 9.07989 8.75748 16.4913H5.53337V19.3446C5.76529 19.4837 5.95731 19.6803 6.09077 19.9154C6.22424 20.1506 6.29461 20.4163 6.29507 20.6867C6.29407 20.8046 6.28056 20.9222 6.25476 21.0373C6.23425 21.1513 6.19618 21.2614 6.14192 21.3637C6.01419 21.6262 5.81607 21.8481 5.56964 22.0045L6.6336 24.4024L2.6075 24.4508ZM30.1373 13.5695C29.7343 13.5695 29.3313 13.5695 28.9283 13.6057L26.4618 8.43104C20.0136 8.24968 14.8309 10.5066 11.369 16.185L14.0652 21.2267L14.1055 21.1985C11.1414 24.8418 9.5051 29.3852 9.46553 34.0818C9.42596 38.7784 10.9855 43.3487 13.8877 47.0414C16.79 50.7342 20.8622 53.3296 25.4351 54.4012C30.008 55.4727 34.8094 54.9565 39.05 52.9374C43.2907 50.9184 46.7182 47.5167 48.7692 43.2914C50.8202 39.0661 51.3726 34.2688 50.3356 29.6879C49.2986 25.1071 46.734 21.0153 43.0632 18.0853C39.3925 15.1553 34.8341 13.5613 30.1373 13.5654V13.5695Z" fill="#006BD6"/>
<path fill-rule="evenodd" clip-rule="evenodd" d="M161.788 11.4501C161.36 11.1648 160.857 11.0129 160.342 11.0137C159.654 11.0137 158.994 11.2871 158.507 11.7739C158.02 12.2606 157.747 12.9207 157.747 13.6091C157.746 14.1235 157.898 14.6267 158.183 15.0548C158.469 15.4829 158.874 15.8167 159.35 16.0139C159.825 16.2111 160.348 16.263 160.852 16.1628C161.357 16.0626 161.821 15.815 162.184 15.4512C162.548 15.0874 162.796 14.6239 162.896 14.1192C162.996 13.6146 162.944 13.0916 162.747 12.6165C162.55 12.1413 162.216 11.7354 161.788 11.4501ZM217.497 20.2181V20.0609H217.53C217.528 19.7897 217.47 19.5218 217.361 19.2736C217.251 19.0255 217.092 18.8024 216.893 18.6181L216.869 18.598C216.814 18.5448 216.754 18.4962 216.691 18.4529C216.399 18.2404 216.049 18.121 215.688 18.1103H203.501V14.0802C203.503 13.8029 203.446 13.5283 203.336 13.2742C203.319 13.2328 203.3 13.1925 203.279 13.1533C203.17 12.947 203.022 12.7637 202.844 12.6132C202.66 12.4531 202.45 12.325 202.223 12.2344C201.995 12.1473 201.754 12.1022 201.51 12.1014C201.233 12.0956 200.958 12.1506 200.704 12.2626C200.457 12.3757 200.238 12.5422 200.063 12.7503L200.063 12.7508C200.018 12.807 199.974 12.8633 199.938 12.9155C199.902 12.9679 199.862 13.0283 199.825 13.0928C199.65 13.3995 199.558 13.747 199.559 14.1004V18.1305H196.061C195.811 18.1288 195.562 18.1739 195.328 18.2635H195.308L195.235 18.2917H195.215C195.029 18.3763 194.857 18.4877 194.703 18.6222C194.645 18.6732 194.591 18.7285 194.542 18.7874C194.491 18.8438 194.445 18.9045 194.405 18.9687C194.194 19.2992 194.086 19.685 194.094 20.077C194.094 20.3214 194.141 20.5635 194.231 20.7904C194.321 21.0178 194.449 21.2278 194.61 21.411C194.785 21.6237 195.007 21.7921 195.259 21.9027C195.514 22.012 195.788 22.0669 196.065 22.0639H199.563V48.4854C199.559 48.7618 199.611 49.0361 199.716 49.2915C199.72 49.2971 199.723 49.3032 199.726 49.3098L199.734 49.3256L199.745 49.3499C199.753 49.3676 199.762 49.3872 199.773 49.4083C199.874 49.6049 200.011 49.7811 200.176 49.9282C200.226 49.9713 200.279 50.0116 200.333 50.0491L200.498 50.162C200.792 50.3451 201.131 50.4427 201.478 50.4441C201.744 50.4476 202.008 50.3983 202.255 50.299L202.372 50.2466C202.57 50.1432 202.748 50.0069 202.9 49.8436C202.953 49.7872 203.001 49.7348 203.041 49.6824C203.084 49.626 203.125 49.5695 203.162 49.5131C203.359 49.1993 203.463 48.8358 203.46 48.4653V22.0518H215.551C215.799 22.0527 216.045 22.0062 216.276 21.9148C216.504 21.8181 216.713 21.6817 216.893 21.5118C217.096 21.3281 217.254 21.1007 217.356 20.8468C217.435 20.6454 217.482 20.4335 217.497 20.2181ZM129.101 19.3441C128.998 19.5367 128.935 19.7477 128.917 19.964C128.903 19.7259 128.847 19.4919 128.75 19.2735C128.639 19.0252 128.479 18.8024 128.279 18.6189L128.259 18.5988C128.203 18.5465 128.144 18.498 128.081 18.4537C127.789 18.2418 127.439 18.1225 127.078 18.1111H116.37V14.081C116.371 13.8042 116.316 13.5299 116.209 13.2749C116.191 13.2335 116.171 13.1931 116.148 13.154C116.037 12.9477 115.888 12.7644 115.709 12.614C115.523 12.4546 115.312 12.3267 115.084 12.2352C114.856 12.148 114.615 12.103 114.371 12.1022C114.1 12.0991 113.832 12.154 113.585 12.2634C113.337 12.3744 113.117 12.5413 112.944 12.751C112.896 12.8075 112.852 12.8639 112.815 12.9163C112.779 12.9687 112.743 13.0291 112.706 13.0936C112.531 13.4003 112.439 13.7478 112.44 14.1011V18.1313H108.95C108.7 18.1296 108.451 18.1747 108.217 18.2643L108.144 18.2925H108.12C107.936 18.3772 107.765 18.4885 107.612 18.6229C107.553 18.6739 107.498 18.7292 107.447 18.7882C107.398 18.8456 107.352 18.9062 107.31 18.9695C107.1 19.3003 106.993 19.6861 107.004 20.0778C107.005 20.3217 107.05 20.5634 107.137 20.7911C107.226 21.0186 107.354 21.2286 107.516 21.4118C107.691 21.6255 107.915 21.7941 108.169 21.9035C108.423 22.0133 108.698 22.0682 108.975 22.0647H112.469V48.4781C112.467 48.7546 112.521 49.0285 112.626 49.2842L112.682 49.4011C112.783 49.5978 112.92 49.774 113.085 49.9209L113.238 50.0418L113.273 50.0671L113.274 50.0672L113.274 50.0674C113.317 50.0988 113.359 50.1293 113.404 50.1547C113.696 50.3382 114.034 50.436 114.379 50.4368C114.644 50.4398 114.907 50.3905 115.153 50.2917L115.27 50.2393C115.468 50.1369 115.647 50.0005 115.798 49.8363C115.848 49.7858 115.895 49.7319 115.939 49.6751C115.983 49.6216 116.023 49.565 116.06 49.5058C116.258 49.1925 116.363 48.8289 116.362 48.458V22.0445H126.997C127.244 22.0458 127.489 21.9993 127.719 21.9075C127.945 21.8098 128.152 21.6734 128.331 21.5045C128.533 21.3207 128.69 21.0932 128.791 20.8395C128.858 20.6637 128.901 20.4801 128.921 20.2932C128.944 20.5218 129.003 20.7456 129.097 20.9561L141.026 49.2839C141.105 49.4724 141.211 49.6488 141.34 49.8078C141.475 49.9708 141.639 50.1074 141.824 50.2108C141.946 50.2782 142.074 50.3335 142.207 50.3761H142.263C142.434 50.4216 142.61 50.4433 142.787 50.4406H142.86C143.097 50.4328 143.332 50.3837 143.553 50.2955L143.694 50.231L143.831 50.1544L143.879 50.1262C144.036 50.0241 144.18 49.9022 144.306 49.7635C144.433 49.6157 144.538 49.45 144.617 49.2718H144.564L156.449 20.9722C156.567 20.7109 156.631 20.4286 156.639 20.142C156.64 19.8602 156.57 19.5826 156.433 19.336C156.317 19.1298 156.169 18.9434 155.994 18.7839C155.816 18.6266 155.613 18.5 155.393 18.4091C155.103 18.2865 154.788 18.2354 154.474 18.26C154.409 18.264 154.345 18.2721 154.281 18.2841C154.216 18.2951 154.151 18.3099 154.087 18.3285L154.007 18.3526C153.731 18.4315 153.481 18.5816 153.281 18.7879C153.093 18.9886 152.943 19.2222 152.838 19.4771L142.795 43.416L132.696 19.4771C132.552 19.098 132.292 18.7738 131.954 18.5501C131.888 18.5066 131.819 18.4676 131.748 18.4332C131.677 18.3998 131.603 18.3728 131.527 18.3526C131.302 18.2831 131.068 18.2504 130.834 18.2559C130.589 18.2634 130.349 18.3167 130.124 18.4131C129.684 18.5929 129.321 18.9226 129.101 19.3441ZM75.2994 48.4774C75.3038 48.7529 75.2545 49.0267 75.1543 49.2834C75.053 49.5414 74.8962 49.774 74.6948 49.9645C74.6456 50.0124 74.5931 50.0568 74.5377 50.0975L74.3684 50.2184C74.0726 50.4159 73.7283 50.5288 73.373 50.5448C73.1068 50.5592 72.8405 50.518 72.5911 50.4239C72.3411 50.3268 72.1174 50.1722 71.9382 49.9725C71.894 49.9237 71.8523 49.8726 71.8133 49.8194C71.7734 49.7654 71.7371 49.7088 71.7045 49.6501C71.5303 49.3504 71.4398 49.0094 71.4425 48.6627L71.3982 28.9151C71.3984 28.4281 71.3511 27.9421 71.2571 27.4643C71.2571 27.4045 71.2407 27.3502 71.2262 27.3026L71.2262 27.3026C71.2192 27.2796 71.2127 27.2582 71.2088 27.2386C71.1204 26.8615 71.0018 26.4923 70.8541 26.1343C70.6721 25.7115 70.4508 25.3067 70.1932 24.9253C69.9469 24.5547 69.6633 24.2104 69.3469 23.8976C69.0328 23.5868 68.687 23.3099 68.3151 23.0714C67.9348 22.8253 67.5295 22.62 67.1061 22.4588C66.9812 22.4105 66.8603 22.3661 66.7434 22.3299C66.6346 22.2936 66.5097 22.2573 66.3807 22.2251C65.7294 22.0595 65.0571 21.9916 64.3858 22.0236C63.9099 22.045 63.4374 22.1139 62.9752 22.2291C62.5228 22.3438 62.0838 22.5059 61.6654 22.7127C61.2414 22.9193 60.8368 23.1634 60.4564 23.4422C60.0812 23.7159 59.733 24.025 59.4166 24.3651C59.0984 24.7046 58.8124 25.0729 58.5622 25.4653C58.3061 25.8626 58.0863 26.282 57.9053 26.7187L57.9007 26.7307C57.8613 26.833 57.8148 26.9539 57.7683 27.0935C57.7532 27.1387 57.7386 27.1815 57.7245 27.2225L57.7243 27.2231L57.7243 27.2231C57.6934 27.3135 57.6655 27.3948 57.6434 27.4723C57.4571 28.1414 57.3649 28.8332 57.3693 29.5277V48.4693C57.3731 48.7455 57.321 49.0197 57.2162 49.2753L57.1597 49.3962C57.0581 49.6008 56.9217 49.7863 56.7567 49.9443L56.7507 49.9498C56.704 49.9926 56.6536 50.0388 56.5996 50.0813C56.5431 50.1257 56.4948 50.162 56.4303 50.2063C56.1739 50.3789 55.8802 50.4883 55.5734 50.5254C55.2665 50.5626 54.9553 50.5264 54.6651 50.4199C54.4122 50.3257 54.1856 50.1723 54.0042 49.9725C53.8318 49.7991 53.6949 49.5938 53.6011 49.368C53.5125 49.1393 53.4674 48.896 53.4681 48.6507V20.4639C53.4627 20.1871 53.5163 19.9124 53.6253 19.6579L53.6817 19.537C53.791 19.3342 53.9356 19.1527 54.1089 19.001C54.1616 18.9537 54.2168 18.9093 54.2742 18.868L54.4434 18.7592C54.744 18.5744 55.0865 18.4691 55.4389 18.4529C55.6978 18.4378 55.9571 18.4762 56.2006 18.5657C56.4378 18.6583 56.6512 18.8029 56.8252 18.9889C56.8702 19.0371 56.912 19.0883 56.9502 19.142C57.1908 19.4752 57.3205 19.8756 57.3209 20.2866V20.9516C57.4822 20.8065 57.6434 20.6654 57.8126 20.5485C58.1149 20.3027 58.4292 20.073 58.7476 19.8594C59.0552 19.6531 59.3815 19.4693 59.7194 19.2791L59.7552 19.2589L60.0373 19.1138L60.3355 18.9687C60.8574 18.7371 61.3964 18.5457 61.9475 18.3965C62.3308 18.2894 62.7196 18.2033 63.1123 18.1385C63.5153 18.0781 63.9183 18.0378 64.3213 18.0176C65.0543 17.9823 65.789 18.0228 66.5137 18.1385L66.8603 18.203C67.4473 18.3196 68.0221 18.491 68.5771 18.7148C68.7544 18.7874 68.9318 18.8639 69.1131 18.9486C69.2945 19.0332 69.4799 19.1259 69.6411 19.2105C70.5469 19.6679 71.3806 20.2559 72.1156 20.9556C72.2039 21.0413 72.2923 21.1305 72.3818 21.221L72.3819 21.221L72.3819 21.221C72.4271 21.2667 72.4726 21.3126 72.5186 21.3586C72.6453 21.4853 72.7513 21.6189 72.8653 21.7625L72.8934 21.7979C73.5288 22.5881 74.0511 23.463 74.445 24.3973L74.4694 24.4576L74.4694 24.4576C74.5377 24.6262 74.605 24.7923 74.6626 24.9615C74.7271 25.151 74.7875 25.3323 74.848 25.5419C75.1457 26.5658 75.295 27.6271 75.2913 28.6934V48.4411L75.2994 48.4774ZM102.382 47.8326C102.688 47.6311 102.986 47.4215 103.268 47.2039L103.232 47.216L103.381 47.0668C103.739 46.7047 103.94 46.216 103.94 45.7067C103.94 45.1974 103.739 44.7086 103.381 44.3465C102.272 43.2413 101.052 44.069 100.743 44.2784C100.72 44.2943 100.701 44.3066 100.689 44.3143C99.9481 44.8554 99.1476 45.3098 98.3032 45.6684C98.0936 45.757 97.884 45.8376 97.6906 45.9102C96.3784 46.3821 94.9944 46.6234 93.6 46.6235C92.015 46.6238 90.4456 46.3114 88.9816 45.7042C87.5176 45.097 86.1877 44.207 85.0682 43.0851C83.9446 41.966 83.0534 40.6357 82.4461 39.1707C81.8388 37.7057 81.5274 36.1351 81.5297 34.5492C81.5351 31.3462 82.8112 28.2761 85.0781 26.0131C87.3449 23.75 90.4171 22.479 93.6201 22.479C95.7443 22.4752 97.8317 23.0321 99.6716 24.0936C101.511 25.1551 103.039 26.6834 104.098 28.5242C104.826 29.7913 105.318 31.18 105.549 32.6228H87.5951C87.0918 32.6238 86.6088 32.8217 86.2496 33.1742C85.8903 33.5266 85.6833 34.0057 85.6727 34.5089V34.5452C85.6726 34.6358 85.6807 34.7261 85.6969 34.8152C85.7611 35.2739 85.9891 35.6938 86.3387 35.9975C86.6883 36.3012 87.136 36.4682 87.5991 36.4676H109.446L109.495 35.9638C109.5 35.901 109.506 35.8409 109.512 35.7818C109.528 35.6133 109.543 35.4525 109.543 35.2585V34.5412C109.542 30.321 107.865 26.274 104.88 23.2902C101.896 20.3064 97.8484 18.6302 93.6282 18.6302C91.5383 18.6297 89.4687 19.041 87.5378 19.8407C85.6069 20.6403 83.8525 21.8127 82.3748 23.2907C80.8972 24.7687 79.7253 26.5234 78.9262 28.4545C78.127 30.3856 77.7162 32.4553 77.7172 34.5452C77.7167 36.6352 78.128 38.7047 78.9277 40.6356C79.7274 42.5665 80.8997 44.3209 82.3777 45.7986C83.8557 47.2762 85.6104 48.4481 87.5415 49.2473C89.4726 50.0464 91.5423 50.4572 93.6322 50.4562C96.2429 50.4593 98.8138 49.8169 101.116 48.5862C101.576 48.3524 101.979 48.0986 102.382 47.8326ZM162.285 48.4784C162.29 48.7548 162.238 49.0291 162.132 49.2845C162.132 49.3057 162.118 49.3287 162.102 49.3557L162.102 49.3558L162.095 49.3668L162.087 49.3806C162.083 49.3873 162.079 49.3942 162.076 49.4013C161.974 49.6003 161.838 49.7792 161.673 49.9293C161.497 50.0975 161.294 50.2338 161.072 50.3323C160.848 50.4277 160.607 50.4771 160.363 50.4774C160.095 50.4789 159.829 50.4268 159.581 50.3242C159.329 50.2173 159.105 50.0531 158.928 49.8447C158.758 49.6636 158.621 49.4534 158.525 49.224C158.436 48.9924 158.391 48.7465 158.392 48.4986V19.9411C158.39 19.665 158.442 19.3912 158.545 19.135C158.653 18.8825 158.816 18.6569 159.021 18.4741C159.065 18.4338 159.121 18.3895 159.186 18.3411L159.363 18.2202C159.668 18.0314 160.02 17.9322 160.379 17.9341C160.643 17.9344 160.905 17.9878 161.149 18.0912L161.266 18.1477C161.458 18.251 161.632 18.3874 161.777 18.5507C161.825 18.6043 161.87 18.6609 161.91 18.7199C161.952 18.7791 161.99 18.8411 162.023 18.9053C162.191 19.225 162.265 19.5853 162.237 19.9451V48.4583L162.285 48.4784ZM190.435 47.2045C190.149 47.4221 189.851 47.6317 189.545 47.8332C189.142 48.0992 188.719 48.3531 188.279 48.5868C185.977 49.8176 183.406 50.4599 180.795 50.4568C176.575 50.4568 172.528 48.7806 169.543 45.7968C166.559 42.8131 164.881 38.7661 164.88 34.5458C164.879 32.4555 165.29 30.3854 166.089 28.4539C166.888 26.5223 168.06 24.7671 169.537 23.2885C171.015 21.8098 172.769 20.6367 174.7 19.8362C176.631 19.0356 178.701 18.6233 180.791 18.6228C185.011 18.6228 189.059 20.299 192.043 23.2828C195.028 26.2665 196.705 30.3135 196.706 34.5337V35.2511C196.706 35.4449 196.691 35.6056 196.675 35.7741L196.675 35.7744L196.674 35.7777C196.669 35.8358 196.663 35.8948 196.658 35.9564L196.614 36.4601H174.77C174.307 36.4607 173.859 36.2938 173.51 35.9901C173.16 35.6864 172.932 35.2664 172.868 34.8078C172.852 34.7187 172.844 34.6283 172.844 34.5378V34.5015C172.854 33.9983 173.061 33.5192 173.421 33.1667C173.78 32.8142 174.263 32.6163 174.766 32.6154H192.716C192.618 31.9846 192.467 31.3632 192.265 30.7575C192.01 29.9782 191.675 29.2274 191.266 28.5168C190.206 26.676 188.679 25.1476 186.839 24.0862C184.999 23.0247 182.911 22.4677 180.787 22.4716C177.588 22.4769 174.521 23.7503 172.258 26.0127C169.996 28.2752 168.722 31.3422 168.717 34.5418C168.716 36.1275 169.027 37.6979 169.635 39.1627C170.242 40.6276 171.133 41.958 172.255 43.0776C173.374 44.1994 174.703 45.0894 176.167 45.6966C177.63 46.3038 179.199 46.6163 180.783 46.6161C182.176 46.6164 183.559 46.375 184.87 45.9027C185.063 45.8302 185.273 45.7496 185.482 45.6609C186.327 45.3032 187.128 44.8488 187.868 44.3068C187.882 44.2987 187.902 44.2853 187.927 44.2681C188.246 44.0541 189.46 43.2389 190.564 44.3391C190.921 44.7022 191.12 45.1906 191.12 45.6992C191.12 46.2079 190.921 46.6962 190.564 47.0594C190.564 47.0594 190.419 47.2085 190.415 47.2085L190.435 47.2045ZM202.042 63.172V73.8236H203.404V63.172H202.042ZM202.042 59.4079V61.8662H203.404V59.4079H202.042ZM197.986 66.8495C198.193 67.3786 198.294 67.9437 198.282 68.5119C198.289 69.0715 198.186 69.6271 197.978 70.1466C197.77 70.6661 197.461 71.1392 197.069 71.5386C196.678 71.9519 196.206 72.2793 195.682 72.5C195.158 72.7206 194.594 72.8297 194.026 72.8201C193.451 72.8393 192.879 72.7421 192.343 72.5343C191.807 72.3265 191.318 72.0125 190.907 71.6111C190.497 71.2077 190.175 70.7244 189.96 70.1913C189.745 69.6581 189.642 69.0865 189.657 68.5119C189.644 67.9334 189.746 67.3581 189.96 66.8201C190.173 66.2822 190.492 65.7926 190.898 65.3805C191.306 64.9675 191.795 64.643 192.333 64.4273C192.872 64.2117 193.45 64.1095 194.03 64.1271C194.6 64.1164 195.167 64.2269 195.691 64.4513C196.216 64.6757 196.686 65.0089 197.073 65.4289C197.468 65.8375 197.778 66.3203 197.986 66.8495ZM198.197 71.9537V73.8277L199.555 73.8236V63.172H198.185V65.038H198.145C197.242 63.6113 195.861 62.898 194.002 62.898C193.258 62.8841 192.52 63.0172 191.828 63.2897C191.137 63.5622 190.506 63.9687 189.972 64.4858C189.425 64.9932 188.992 65.6108 188.701 66.2979C188.411 66.985 188.27 67.7259 188.287 68.4716C188.269 69.2179 188.409 69.9596 188.695 70.6489C188.982 71.3382 189.41 71.9597 189.951 72.4735C190.486 73.0004 191.121 73.4145 191.819 73.6914C192.517 73.9684 193.263 74.1024 194.014 74.0856C194.831 74.1264 195.644 73.9508 196.372 73.5764C197.099 73.2021 197.715 72.6423 198.157 71.9537H198.197ZM184.845 59.4079V73.8277L186.207 73.8236V59.4079H184.845ZM174.367 65.441C175.16 66.2643 175.595 67.3686 175.576 68.5119H175.604C175.61 69.0765 175.503 69.6365 175.289 70.1591C175.075 70.6816 174.759 71.1561 174.359 71.5547C173.974 71.9653 173.51 72.2925 172.993 72.5163C172.477 72.7401 171.921 72.8555 171.358 72.8555C170.796 72.8555 170.239 72.7401 169.723 72.5163C169.207 72.2925 168.742 71.9653 168.358 71.5547C167.966 71.1523 167.657 70.6763 167.449 70.1541C167.242 69.6319 167.14 69.0738 167.149 68.5119C167.129 67.3684 167.564 66.2638 168.358 65.441C168.741 65.0264 169.206 64.6956 169.723 64.4694C170.24 64.2432 170.798 64.1264 171.362 64.1264C171.927 64.1264 172.485 64.2432 173.002 64.4694C173.519 64.6956 173.984 65.0264 174.367 65.441ZM176.829 73.1788C176.862 72.8927 176.862 72.5421 176.862 72.139L176.853 63.1599H175.491V65.0621H175.451C175.023 64.3656 174.417 63.7963 173.695 63.4136C172.972 63.0308 172.161 62.8486 171.344 62.8859C170.606 62.8736 169.872 63.0148 169.191 63.3006C168.51 63.5864 167.895 64.0106 167.387 64.5463C166.864 65.0685 166.452 65.6905 166.175 66.3753C165.899 67.0601 165.762 67.7935 165.775 68.5321C165.762 69.2644 165.901 69.9914 166.183 70.6675C166.464 71.3437 166.882 71.9544 167.411 72.4615C167.923 72.9839 168.536 73.3964 169.213 73.6736C169.89 73.9507 170.617 74.0868 171.348 74.0735C172.171 74.0803 172.983 73.891 173.718 73.5214C174.46 73.1697 175.069 72.589 175.455 71.865H175.495V72.808C175.522 73.3305 175.445 73.853 175.268 74.3454C175.092 74.8379 174.82 75.2906 174.468 75.6775C174.1 76.0475 173.659 76.3363 173.173 76.5251C172.687 76.714 172.167 76.7986 171.647 76.7737C169.701 76.7737 168.374 75.8803 167.665 74.0937H166.222C166.536 75.2712 167.259 76.2985 168.261 76.9913C169.263 77.6748 170.454 78.0271 171.667 77.9989C173.484 77.9989 174.903 77.346 175.902 76.0322C176.306 75.4807 176.582 74.8459 176.708 74.1743C176.769 73.8452 176.809 73.5128 176.829 73.1788ZM162.458 67.9638V73.8156L163.816 73.8075V67.9477C163.874 66.6309 163.443 65.3392 162.607 64.3206C161.763 63.3722 160.6 62.898 159.117 62.898C157.634 62.898 156.539 63.4434 155.832 64.5342H155.796V63.172H154.438V73.8236H155.796V67.859C155.793 67.3472 155.866 66.8378 156.014 66.3477C156.157 65.8512 156.427 65.4001 156.795 65.038C157.423 64.4497 158.251 64.1224 159.111 64.1224C159.971 64.1224 160.799 64.4497 161.426 65.038C161.809 65.4094 162.087 65.875 162.232 66.388C162.389 66.8984 162.465 67.43 162.458 67.9638ZM152.431 68.6121C152.447 67.139 151.877 65.72 150.847 64.6672L150.875 64.6752C151.028 64.5866 151.149 64.51 151.222 64.4375C151.365 64.3411 151.499 64.2333 151.625 64.1151C151.781 63.9656 151.909 63.7896 152.004 63.5952C152.121 63.3515 152.197 63.09 152.229 62.8214V61.0522H150.553V62.765H151.133C151.115 62.899 151.069 63.028 151 63.1443C150.931 63.2606 150.839 63.3619 150.73 63.442C150.568 63.5791 150.393 63.6993 150.206 63.8007L149.985 63.9055C148.915 63.1437 147.608 62.7917 146.3 62.9138C144.993 63.0359 143.773 63.6238 142.863 64.5705C142.342 65.0933 141.93 65.7154 141.653 66.4C141.376 67.0846 141.24 67.8178 141.251 68.5563C141.245 69.2824 141.389 70.0019 141.674 70.6697C141.959 71.3376 142.379 71.9393 142.908 72.4373C143.938 73.4901 145.344 74.0905 146.817 74.1064C148.291 74.1222 149.71 73.5523 150.762 72.5219C151.815 71.4915 152.416 70.0851 152.431 68.6121ZM150.728 66.7883C150.936 67.3079 151.038 67.8637 151.028 68.4233L151.057 68.4313C151.074 69.5824 150.644 70.6953 149.856 71.5345C149.471 71.9456 149.007 72.2738 148.492 72.499C147.976 72.7243 147.42 72.8419 146.857 72.8445C146.295 72.8471 145.737 72.7348 145.22 72.5144C144.702 72.294 144.235 71.9702 143.847 71.5627C143.451 71.1654 143.138 70.693 142.927 70.1733C142.716 69.6536 142.611 69.097 142.617 68.5361C142.599 67.387 143.034 66.2769 143.827 65.445C144.203 65.0189 144.668 64.6795 145.188 64.4499C145.709 64.2203 146.272 64.1061 146.841 64.1151C147.399 64.1108 147.952 64.2225 148.465 64.4431C148.977 64.6637 149.439 64.9884 149.819 65.3966C150.212 65.7955 150.521 66.2686 150.728 66.7883ZM139.119 73.8156V64.7437L139.152 64.7478C139.377 64.6228 139.555 64.5181 139.671 64.4415C139.813 64.3405 139.948 64.2301 140.074 64.111C140.231 63.9616 140.359 63.7855 140.453 63.5911C140.569 63.3467 140.645 63.0856 140.679 62.8173V61.0481H139.002V62.7609H139.583C139.565 62.8951 139.52 63.0243 139.451 63.1407C139.381 63.257 139.289 63.3582 139.18 63.438L139.131 63.4743V63.1599H137.773V68.8021C137.789 69.3829 137.718 69.9629 137.564 70.523C137.397 71.0829 137.086 71.589 136.661 71.9899C136.359 72.2755 136.003 72.4987 135.614 72.6466C135.226 72.7946 134.812 72.8645 134.396 72.8524C133.251 72.8524 132.405 72.4937 131.869 71.7683C131.398 71.1355 131.164 70.2368 131.164 69.0278V63.172H129.802V69.0399C129.796 69.6479 129.856 70.2547 129.983 70.8494C130.114 71.4352 130.371 71.9854 130.737 72.4615C131.58 73.5362 132.8 74.0735 134.396 74.0735C135.096 74.0875 135.789 73.9268 136.411 73.606C137.033 73.2973 137.533 72.7875 137.83 72.1592H137.838V73.8156H139.119ZM125.864 73.8156V64.3931L128.444 64.4012V63.172H125.892V59.4079H124.53V63.172H122.289V64.4012H124.53V73.8156H125.864ZM113.979 63.172V73.8156L115.338 73.8236V63.172H113.979ZM113.979 59.3998V61.8582H115.338V59.3998H113.979ZM106.387 59.9479L108.059 61.3665H109.792L107.003 58.9484H105.718L102.897 61.3665H104.674L106.387 59.9479ZM108.325 58.9121L108.962 60.0366L112.827 57.953L112.198 56.7842L108.325 58.9121ZM110.244 66.786C110.455 67.3058 110.561 67.8624 110.554 68.4233L110.582 68.4313C110.594 69.5852 110.156 70.6985 109.361 71.5345C108.977 71.9456 108.512 72.2738 107.997 72.499C107.481 72.7243 106.925 72.8419 106.362 72.8445C105.8 72.8471 105.243 72.7348 104.725 72.5144C104.207 72.294 103.74 71.9702 103.352 71.5627C102.956 71.1654 102.643 70.693 102.432 70.1733C102.221 69.6536 102.116 69.097 102.123 68.5361C102.106 67.3873 102.54 66.2778 103.332 65.445C103.709 65.0188 104.175 64.6794 104.696 64.4498C105.217 64.2203 105.781 64.1061 106.35 64.1151C106.908 64.1094 107.461 64.2205 107.973 64.4412C108.485 64.6619 108.946 64.9874 109.325 65.3966C109.721 65.794 110.033 66.2663 110.244 66.786ZM110.993 71.5818C111.6 70.662 111.92 69.582 111.912 68.4797H111.908C111.894 67.0028 111.302 65.5901 110.258 64.545C109.215 63.4999 107.803 62.9057 106.326 62.8899C105.589 62.879 104.857 63.023 104.179 63.3125C103.501 63.6019 102.891 64.0305 102.389 64.5705C101.866 65.0927 101.454 65.7147 101.177 66.3995C100.901 67.0842 100.764 67.8177 100.777 68.5563C100.771 69.282 100.914 70.0012 101.198 70.669C101.483 71.3367 101.902 71.9387 102.429 72.4373C103.207 73.2187 104.199 73.7508 105.281 73.9657C106.362 74.1806 107.483 74.0687 108.5 73.6441C109.517 73.2195 110.385 72.5015 110.993 71.5818ZM97.351 67.9638V73.8156L98.7374 73.8075V67.9477C98.7955 66.6309 98.3649 65.3392 97.5284 64.3206C96.6713 63.3722 95.5026 62.898 94.0221 62.898C92.5417 62.898 91.4482 63.4434 90.7416 64.5342H90.7054V63.172H89.3432V73.8236H90.7054V67.859C90.7019 67.3472 90.7752 66.8378 90.923 66.3477C91.0668 65.8522 91.3345 65.4014 91.7008 65.038C92.3294 64.4504 93.1577 64.1235 94.0181 64.1235C94.8786 64.1235 95.7069 64.4504 96.3354 65.038C96.7122 65.4105 96.9834 65.8764 97.1213 66.388C97.2791 66.8982 97.3566 67.4298 97.351 67.9638ZM79.9852 73.8236V64.4012H82.5363V63.172H79.9852V59.4079H78.623V63.172H76.3823V64.4012H78.623V73.8236H79.9852ZM69.8212 59.956L71.4937 61.3746H73.2226L70.4338 58.9565H69.1522L66.3311 61.3746H68.1084L69.8212 59.956ZM71.5783 58.8396L72.2151 59.9479L76.08 57.8764L75.4513 56.7077L71.5783 58.8396ZM72.4932 65.1589C73.2556 65.836 73.7574 66.7584 73.9118 67.7663H65.5855C65.7351 66.7586 66.2345 65.8355 66.9961 65.1589C67.7559 64.4909 68.733 64.1226 69.7446 64.1226C70.7563 64.1226 71.7333 64.4909 72.4932 65.1589ZM65.5855 68.9754H75.2901V68.6087C75.3016 67.8672 75.1649 67.131 74.8881 66.4431C74.6113 65.7552 74.1999 65.1295 73.678 64.6027C73.1718 64.0688 72.5627 63.6429 71.8875 63.3506C71.2123 63.0583 70.4849 62.9057 69.7492 62.9019C69.0135 62.8982 68.2846 63.0433 67.6064 63.3287C66.9282 63.6141 66.3149 64.0337 65.8032 64.5624C65.2836 65.0791 64.8731 65.695 64.5962 66.3735C64.3192 67.052 64.1815 67.7792 64.1911 68.5119C64.1869 69.5313 64.4635 70.5321 64.9906 71.4045C65.5178 72.277 66.275 72.9875 67.1793 73.4579C68.0836 73.9284 69.1 74.1407 70.117 74.0715C71.134 74.0024 72.1123 73.6545 72.9446 73.066C73.8918 72.3989 74.6041 71.4497 74.9798 70.3537H73.533C73.2527 71.1232 72.7218 71.7761 72.0257 72.2076C71.3377 72.6474 70.537 72.8784 69.7205 72.8725C68.6677 72.8767 67.6552 72.4688 66.8994 71.736C66.5049 71.3888 66.185 70.9651 65.9592 70.4905C65.7333 70.016 65.6062 69.5005 65.5855 68.9754ZM56.824 67.5729L61.64 73.8115L63.4496 73.8398L57.7429 66.4606L63.4496 59.424H61.6038L55.0024 67.7059H54.9661V59.4079H53.5193V73.8236H54.9621V69.8661L56.824 67.5729Z" fill="#006BD6"/>
</svg>
