<svg width="50" height="50" viewBox="0 0 50 50" fill="none" xmlns="http://www.w3.org/2000/svg">
<path d="M13.5798 16.799L24.987 25.343L36.3943 16.799H13.5798ZM38.0791 17.8161L25.5752 27.1699C25.4032 27.286 25.1981 27.35 24.987 27.3534C24.7794 27.3526 24.5775 27.2882 24.4114 27.1699L11.9075 17.8002V32.1599C11.9038 32.2968 11.931 32.4328 11.9874 32.5588C12.0685 32.7455 12.2059 32.9053 12.3823 33.0181C12.5587 33.131 12.7662 33.1918 12.9789 33.1931H37.0161C37.1605 33.1949 37.3037 33.1677 37.4363 33.1133C37.5657 33.0611 37.6839 32.9867 37.785 32.8939C37.8863 32.7984 37.9664 32.6844 38.0203 32.5588C38.0745 32.4322 38.1017 32.2966 38.1001 32.1599V17.8002L38.0791 17.8161ZM12.9705 15H37.0077C37.7941 15.0011 38.5479 15.2981 39.104 15.826C39.66 16.3539 39.9729 17.0696 39.974 17.8161V32.1759C39.9757 32.5465 39.8997 32.9137 39.7504 33.2561C39.601 33.5985 39.3814 33.9093 39.1043 34.1703C38.5475 34.7003 37.7919 34.9987 37.0035 35H12.9705C12.1821 34.9987 11.4265 34.7003 10.8698 34.1703C10.5926 33.9093 10.373 33.5985 10.2237 33.2561C10.0744 32.9137 9.99833 32.5465 10 32.1759V17.8161C10.0011 17.0696 10.314 16.3539 10.8701 15.826C11.4261 15.2981 12.18 15.0011 12.9663 15H12.9705Z" fill="#0095DA"/>
<path fill-rule="evenodd" clip-rule="evenodd" d="M25 2.18038C29.5135 2.17954 33.9258 3.51717 37.6791 6.02412C41.4323 8.53106 44.3578 12.0947 46.0856 16.2644C47.8134 20.434 48.2659 25.0224 47.3859 29.4493C46.5059 33.8761 44.3329 37.9426 41.1416 41.1344C37.9504 44.3262 33.8844 46.5 29.4577 47.3808C25.031 48.2617 20.4425 47.81 16.2726 46.083C12.1026 44.3559 8.53836 41.4311 6.03072 37.6783C3.52308 33.9256 2.18464 29.5135 2.18464 25C2.18464 18.9486 4.58826 13.145 8.86685 8.8656C13.1454 4.58621 18.9486 2.18151 25 2.18038ZM25 3.61449e-07C29.9445 3.61449e-07 34.778 1.46623 38.8892 4.21326C43.0005 6.9603 46.2048 10.8648 48.097 15.4329C49.9892 20.0011 50.4843 25.0277 49.5196 29.8773C48.555 34.7268 46.174 39.1814 42.6777 42.6777C39.1814 46.174 34.7268 48.555 29.8773 49.5196C25.0277 50.4843 20.0011 49.9892 15.4329 48.097C10.8648 46.2048 6.9603 43.0005 4.21326 38.8893C1.46623 34.778 3.61449e-07 29.9445 3.61449e-07 25C-0.000557959 21.7168 0.645705 18.4656 1.90187 15.4323C3.15804 12.3989 4.9995 9.64266 7.32108 7.32109C9.64265 4.99951 12.3989 3.15804 15.4323 1.90188C18.4656 0.645706 21.7168 -0.000557959 25 3.61449e-07Z" fill="#0095DA"/>
</svg>
