<svg width="43" height="44" viewBox="0 0 43 44" fill="none" xmlns="http://www.w3.org/2000/svg">
<path d="M38.6406 11.7363H37.3281V10.3926C37.3281 8.16615 35.5653 6.36133 33.3906 6.36133H32.0781V5.01758C32.0781 2.79115 30.3153 0.986328 28.1406 0.986328H4.51562C2.34098 0.986328 0.578125 2.79115 0.578125 5.01758V29.2051C0.578125 31.4315 2.34098 33.2363 4.51562 33.2363H5.82812V34.5801C5.82812 36.8065 7.59098 38.6113 9.76562 38.6113H11.0781V39.9551C11.0781 42.1815 12.841 43.9863 15.0156 43.9863H38.6406C40.8153 43.9863 42.5781 42.1815 42.5781 39.9551V15.7676C42.5781 13.5412 40.8153 11.7363 38.6406 11.7363ZM3.20312 23.2791V5.01758C3.20312 4.27541 3.79071 3.67383 4.51562 3.67383H28.1406C28.8655 3.67383 29.4531 4.27541 29.4531 5.01758V17.9041L26.4475 14.827C25.9355 14.3059 25.1088 14.3059 24.5969 14.827L18.9531 20.5916L13.3225 14.8135C12.8105 14.2925 11.9838 14.2925 11.4719 14.8135L3.20312 23.2791ZM9.76562 35.9238C9.04072 35.9238 8.45312 35.3222 8.45312 34.5801V33.2363H28.1406C30.3153 33.2363 32.0781 31.4315 32.0781 29.2051V9.04883H33.3906C34.1155 9.04883 34.7031 9.65041 34.7031 10.3926V34.5801C34.7031 35.3222 34.1155 35.9238 33.3906 35.9238H9.76562ZM39.9531 39.9551C39.9531 40.6972 39.3655 41.2988 38.6406 41.2988H15.0156C14.2907 41.2988 13.7031 40.6972 13.7031 39.9551V38.6113H33.3906C35.5653 38.6113 37.3281 36.8065 37.3281 34.5801V14.4238H38.6406C39.3655 14.4238 39.9531 15.0254 39.9531 15.7676V39.9551Z" fill="#3D8AD8"/>
</svg>
