<svg width="47" height="41" viewBox="0 0 47 41" fill="none" xmlns="http://www.w3.org/2000/svg">
<path d="M36.8851 0H10.1149C4.53819 0 0 4.63691 0 10.335V20.5724C0 26.2706 4.53819 30.9074 10.1149 30.9074H27.0356L39.3364 41V30.5962C43.7857 29.4632 47 25.367 47 20.5724V10.335C47 4.63691 42.4618 0 36.8851 0ZM10.8234 19.8682C9.62579 19.8682 8.5586 19.6072 7.86732 19.2329L8.37224 17.1935C8.89576 17.5119 9.98155 17.8862 10.8235 17.8862C11.6841 17.8862 12.0399 17.5865 12.0399 17.1189C12.0399 16.6499 11.7587 16.4262 10.6931 16.0705C8.80262 15.4338 8.07259 14.4054 8.09119 13.3197C8.09119 11.6173 9.55136 10.3265 11.8147 10.3265C12.8818 10.3265 13.8372 10.5689 14.3979 10.85L13.893 12.8148C13.4813 12.5897 12.6954 12.2899 11.9093 12.2899C11.2165 12.2899 10.8235 12.571 10.8235 13.0386C10.8235 13.4689 11.1792 13.6941 12.3023 14.087C14.0422 14.6851 14.7722 15.5657 14.7909 16.9125C14.7908 18.6148 13.4439 19.8682 10.8234 19.8682ZM30.3403 19.6818H27.5707V14.7051C27.5707 13.3755 27.139 12.6083 26.2225 12.6083C25.5684 12.6083 25.0993 13.0571 24.9129 13.6007C24.8383 13.8058 24.801 14.1056 24.801 14.3307V19.6818H22.0314V14.5545C22.0314 13.3942 21.6197 12.6083 20.7204 12.6083C19.9918 12.6083 19.56 13.1705 19.3922 13.6381C19.299 13.8618 19.2804 14.1242 19.2804 14.3494V19.6819H16.5107V13.4503C16.5107 12.3101 16.4734 11.3362 16.4361 10.5316H18.8315L18.962 11.7664H19.0179C19.4109 11.187 20.2156 10.3265 21.7876 10.3265C22.9666 10.3265 23.9018 10.9246 24.2948 11.8784H24.3321C24.6691 11.4108 25.0808 11.0365 25.5111 10.7755C26.0175 10.4758 26.5782 10.3266 27.2524 10.3266C29.0109 10.3266 30.3405 11.5615 30.3405 14.2923V19.6818H30.3403ZM35.0334 19.8682C33.8358 19.8682 32.7686 19.6072 32.0773 19.2329L32.5822 17.1935C33.1057 17.5119 34.1915 17.8862 35.0335 17.8862C35.8941 17.8862 36.2499 17.5865 36.2499 17.1189C36.2499 16.6499 35.9687 16.4262 34.903 16.0705C33.0125 15.4338 32.2825 14.4054 32.3011 13.3197C32.3011 11.6173 33.7612 10.3265 36.0246 10.3265C37.0917 10.3265 38.0456 10.5689 38.6078 10.85L38.1029 12.8148C37.6912 12.5897 36.9053 12.2899 36.1192 12.2899C35.4264 12.2899 35.0334 12.571 35.0334 13.0386C35.0334 13.4689 35.3891 13.6941 36.5122 14.087C38.2521 14.6851 38.9821 15.5657 39.0008 16.9125C39.0008 18.6148 37.6539 19.8682 35.0334 19.8682Z" fill="#539F55"/>
</svg>
