<svg width="32" height="32" viewBox="0 0 32 32" fill="none" xmlns="http://www.w3.org/2000/svg">
<path d="M10.2933 14.1575L8.76583 12.6192C7.79083 13.8758 7.18417 15.3275 7 16.8333H9.18833C9.34 15.8908 9.71917 14.97 10.2933 14.1575ZM9.18833 19H7C7.18417 20.5058 7.78 21.9575 8.755 23.2142L10.2825 21.6758C9.71917 20.8633 9.34 19.9533 9.18833 19ZM10.2825 24.7633C11.5392 25.7383 13.0017 26.3233 14.5075 26.5075V24.3083C13.565 24.1458 12.655 23.7775 11.8425 23.1925L10.2825 24.7633ZM16.6742 9.32583V6L11.745 10.9292L16.6742 15.75V11.5142C19.7508 12.0342 22.0908 14.6992 22.0908 17.9167C22.0908 21.1342 19.7508 23.7992 16.6742 24.3192V26.5075C20.9533 25.9767 24.2575 22.3367 24.2575 17.9167C24.2575 13.4967 20.9533 9.85667 16.6742 9.32583Z" fill="#3D8AD8"/>
</svg>
