<svg width="68" height="68" viewBox="0 0 68 68" fill="none" xmlns="http://www.w3.org/2000/svg">
<path d="M34 68C52.7777 68 68 52.7777 68 34C68 15.2223 52.7777 0 34 0C15.2223 0 0 15.2223 0 34C0 52.7777 15.2223 68 34 68Z" fill="#DD2E53"/>
<path d="M18.8189 9.53197L17.8039 10.257L17.4634 9.91655C17.3815 9.83459 17.3184 9.79046 17.2743 9.79676C17.1854 9.81884 17.1032 9.86211 17.0347 9.92285C16.8897 10.0237 16.8204 10.1309 16.833 10.2444C16.8703 10.3671 16.9325 10.4809 17.0158 10.5785L18.1443 12.1546C18.2893 12.3627 18.428 12.4699 18.5415 12.4699C18.6817 12.448 18.8129 12.3868 18.9198 12.2933C19.0143 12.2177 19.0269 12.0979 18.9198 11.9277L18.6739 11.3918L19.733 10.6542L20.8048 12.3879L19.0837 13.611C18.9456 13.7269 18.7875 13.8166 18.6171 13.8758C18.3916 13.914 18.1611 13.9119 17.9363 13.8694C17.717 13.8544 17.5028 13.7966 17.3058 13.6992C17.1618 13.5866 17.0381 13.4501 16.9402 13.2957L15.5027 11.2783C15.406 11.1536 15.3373 11.0095 15.301 10.8559C15.282 10.6448 15.2969 10.4319 15.3451 10.2255C15.3728 10.0303 15.4258 9.83955 15.5027 9.65806C15.607 9.52242 15.7352 9.40703 15.881 9.31762L17.6526 8.06934L18.8189 9.53197Z" fill="white"/>
<path d="M20.4072 7.84207L21.1826 7.4575C21.3027 7.38504 21.4353 7.33585 21.5735 7.3125C21.7456 7.31714 21.9158 7.34906 22.0779 7.40707C22.266 7.45808 22.4462 7.53443 22.6137 7.63403C22.7259 7.74027 22.814 7.86924 22.8722 8.0123L23.6351 9.53167C23.709 9.65843 23.7602 9.7971 23.7864 9.94146C23.7727 10.1059 23.7344 10.2675 23.6729 10.4206C23.6245 10.6086 23.5503 10.789 23.4522 10.9565C23.3517 11.0635 23.229 11.1474 23.0929 11.2024L22.2229 11.6437C22.1108 11.7039 21.9893 11.7444 21.8635 11.7635C21.6791 11.7462 21.4972 11.7081 21.3213 11.65C21.1412 11.605 20.969 11.5327 20.8107 11.4356C20.7095 11.3267 20.6284 11.2008 20.5711 11.0637L19.7011 9.34254C19.6654 9.2701 19.648 9.18999 19.6506 9.10927C19.6679 8.93795 19.7104 8.77011 19.7767 8.61122C19.8303 8.42561 19.9156 8.2507 20.0289 8.09425C20.1387 7.98797 20.2669 7.90252 20.4072 7.84207ZM22.3427 9.97929L21.7122 8.7184C21.6708 8.62154 21.6108 8.53373 21.5357 8.45991C21.4832 8.42547 21.4219 8.40712 21.3592 8.40712C21.2964 8.40712 21.2351 8.42547 21.1826 8.45991C20.9683 8.56709 20.9305 8.76253 21.0628 9.03362L21.6933 10.2945C21.8446 10.5908 22.0274 10.6854 22.2355 10.5782C22.4435 10.471 22.494 10.2756 22.3427 9.97929Z" fill="white"/>
<path d="M23.4458 7.42018L23.1621 6.52495L25.4002 5.80624C25.5436 5.75415 25.6953 5.72851 25.8478 5.73058C26.0374 5.78611 26.2179 5.86894 26.3837 5.97646C26.5467 6.06305 26.6972 6.1712 26.8313 6.29799C26.9064 6.41951 26.9637 6.55113 27.0015 6.68886L27.5942 8.52977L27.8148 8.46042L28.1048 9.35565L26.5917 9.83479L25.7848 7.22474C25.7522 7.11002 25.7011 7.0014 25.6335 6.90322C25.6046 6.87258 25.5692 6.84876 25.5299 6.83349C25.4907 6.81823 25.4485 6.81189 25.4065 6.81495C25.2541 6.84185 25.1043 6.88193 24.9589 6.93474L25.955 10.0491L24.4482 10.5346L24.1582 9.63936L24.3789 9.57001L23.6665 7.35083L23.4458 7.42018Z" fill="white"/>
<path d="M31.8685 2.37626L33.2113 2.27539L33.2744 3.06345H33.6148L33.659 3.6939H33.3185L33.6337 7.75397H33.8607L33.9364 8.68073L31.5596 8.82573C31.4175 8.84816 31.2729 8.84816 31.1309 8.82573C30.9553 8.7562 30.7947 8.65345 30.658 8.52312C30.5163 8.41819 30.391 8.29284 30.2861 8.15116C30.2305 8.00613 30.2006 7.85252 30.1978 7.69723L30.0654 5.98872C30.0472 5.85907 30.0472 5.7275 30.0654 5.59785C30.2009 5.31331 30.3967 5.06163 30.6391 4.86022C30.7114 4.79234 30.7974 4.74074 30.8913 4.70892C31.0106 4.67599 31.1333 4.65695 31.257 4.65218L32.0576 4.59544L31.9757 3.78216L30.8913 3.88933L30.8472 3.25889L31.9315 3.15171L31.8685 2.37626ZM32.3035 8.15116L32.1144 5.73024H31.7802C31.6037 5.73024 31.4965 5.80589 31.4587 5.91307C31.4334 6.04001 31.4334 6.1707 31.4587 6.29764L31.5659 7.72245C31.5618 7.79017 31.5714 7.85801 31.5942 7.92193C31.6169 7.98584 31.6523 8.04451 31.6983 8.09442C31.7471 8.12716 31.8036 8.14671 31.8622 8.15116H32.3035Z" fill="white"/>
<path d="M35.7908 4.57714L36.6545 4.64649C36.7946 4.6462 36.9335 4.67185 37.0643 4.72214C37.2127 4.8025 37.3435 4.91184 37.4489 5.04367C37.5814 5.18582 37.6977 5.3423 37.7956 5.5102C37.8257 5.66214 37.8257 5.81849 37.7956 5.97043L37.6695 7.66003C37.6717 7.80906 37.6438 7.95701 37.5876 8.09503C37.4949 8.23112 37.3797 8.35049 37.2471 8.44808C37.108 8.58149 36.9535 8.69788 36.7869 8.79483C36.6413 8.82455 36.4912 8.82455 36.3456 8.79483L35.3747 8.72548C35.2483 8.72505 35.1235 8.69708 35.009 8.64352C34.8556 8.5394 34.7177 8.41418 34.5992 8.27156C34.4678 8.13996 34.3572 7.98901 34.2714 7.82394C34.2455 7.67798 34.2455 7.52859 34.2714 7.38263L34.4164 5.49129C34.4193 5.41087 34.4432 5.33262 34.4858 5.26433C34.5924 5.12805 34.7151 5.00526 34.8514 4.89867C34.9917 4.76829 35.1539 4.66371 35.3306 4.58975C35.482 4.55831 35.6378 4.55404 35.7908 4.57714ZM35.1603 9.28027L36.5158 9.38115L36.4654 10.0116L35.1162 9.91072L35.1603 9.28027ZM36.3645 7.38893L36.4654 5.98304C36.4876 5.88126 36.4876 5.7759 36.4654 5.67412C36.438 5.61806 36.3947 5.57137 36.3408 5.53994C36.287 5.50852 36.225 5.49378 36.1628 5.49759C35.9148 5.49759 35.7824 5.6426 35.7656 5.9326L35.6584 7.33219C35.6584 7.66633 35.7404 7.84286 35.9799 7.85546C36.2195 7.86807 36.333 7.73568 36.3582 7.40785L36.3645 7.38893Z" fill="white"/>
<path d="M40.0898 5.15763L41.8172 5.5422L41.6092 6.99854L40.6194 6.77788C40.6194 6.64549 40.6194 6.49418 40.6194 6.33026C40.6141 6.29029 40.5959 6.25316 40.5673 6.22466C40.5388 6.19616 40.5017 6.17787 40.4617 6.17265C40.3386 6.13393 40.2066 6.13393 40.0835 6.17265C39.9782 6.26682 39.9128 6.39759 39.9006 6.53831L39.5728 8.02616C39.535 8.20269 39.5728 8.32878 39.6106 8.39813C39.7161 8.46863 39.8374 8.51195 39.9637 8.52422C40.0835 8.52422 40.1717 8.4927 40.2222 8.354L40.405 7.90008L41.42 8.12073L40.9787 9.66533L39.1882 9.26815C39.0494 9.24646 38.9152 9.20171 38.7911 9.13575C38.6691 9.01766 38.5632 8.88413 38.4758 8.73857C38.3568 8.58663 38.2592 8.41904 38.1858 8.24052C38.1542 8.10149 38.1542 7.95714 38.1858 7.81812L38.5641 6.1033C38.5905 5.94802 38.6532 5.80115 38.7469 5.6746C38.876 5.53952 39.0248 5.42474 39.1882 5.33416C39.3347 5.22395 39.502 5.1446 39.68 5.10089C39.8189 5.09425 39.9579 5.11349 40.0898 5.15763Z" fill="white"/>
<path d="M46.1994 7.16849L46.9812 7.50893L46.6155 8.33481L45.8338 7.98807L45.0962 9.66506C45.0016 9.88571 44.9764 10.0307 45.0142 10.1127C45.2019 10.3045 45.4367 10.4436 45.6951 10.5162L45.3168 11.3483L44.4342 10.9638C44.2843 10.9079 44.1439 10.8293 44.0181 10.7305C43.904 10.5894 43.8203 10.4263 43.7722 10.2514C43.7088 10.0925 43.6726 9.92417 43.665 9.75332C43.6938 9.60049 43.7425 9.45211 43.81 9.31201L44.6359 7.42066L44.327 7.28197L44.5666 6.73978L46.2814 6.3426C46.3439 6.33111 46.408 6.33111 46.4705 6.3426C46.5147 6.3426 46.5084 6.44347 46.4705 6.58847L46.1994 7.16849Z" fill="white"/>
<path d="M48.7464 8.48016L49.4903 8.92778C49.6137 8.99164 49.7247 9.07704 49.8181 9.17996C49.9118 9.32647 49.9781 9.48884 50.0136 9.6591C50.0686 9.84595 50.1024 10.0384 50.1144 10.2328C50.0781 10.383 50.0163 10.5259 49.9316 10.6552L49.0616 12.1052C48.9908 12.2367 48.8993 12.356 48.7905 12.4583C48.6442 12.5362 48.4869 12.5915 48.324 12.6222C48.1401 12.6808 47.9493 12.7148 47.7566 12.7231C47.6116 12.6952 47.4742 12.6372 47.3531 12.5528L46.5209 12.0485C46.4079 11.9907 46.3073 11.9115 46.2246 11.8152C46.1364 11.6525 46.0706 11.4786 46.0291 11.2983C45.9734 11.1204 45.9416 10.936 45.9346 10.7498C45.9721 10.6058 46.0339 10.4694 46.1174 10.3463L47.1072 8.69451C47.1448 8.62354 47.2016 8.56456 47.2711 8.52429C47.4275 8.44912 47.5927 8.39404 47.7629 8.36038C47.9469 8.30633 48.1389 8.285 48.3303 8.29733C48.4786 8.33347 48.6194 8.39535 48.7464 8.48016ZM47.9835 11.2604L48.7085 10.0878C48.7683 10.0006 48.8091 9.90177 48.8283 9.7978C48.8269 9.73503 48.8078 9.67395 48.7732 9.62154C48.7386 9.56914 48.69 9.52753 48.6329 9.50149C48.4248 9.3817 48.242 9.45105 48.0844 9.71584L47.3657 10.92C47.1955 11.21 47.2081 11.4117 47.4098 11.5504C47.6116 11.6891 47.8133 11.5504 47.9835 11.2604ZM49.7425 7.56601L50.6188 8.65669L50.2531 8.97821L49.4462 8.03885L48.2294 7.76776L48.3366 7.29492L49.7425 7.56601ZM50.5242 7.49667L52.0184 7.80558L51.8166 8.43603L50.3918 7.93798L50.5242 7.49667Z" fill="white"/>
<path d="M52.4344 11.0022L53.1089 11.5318L52.5542 12.2442L51.8796 11.7146L50.7511 13.1583C50.6061 13.3474 50.543 13.4798 50.5682 13.5681C50.5935 13.6564 50.7889 13.8833 51.123 14.1292L50.5493 14.8731L49.8054 14.2742C49.6727 14.1824 49.5538 14.072 49.4524 13.9464C49.3812 13.7831 49.3427 13.6075 49.3389 13.4294C49.3141 13.2601 49.3141 13.0881 49.3389 12.9187C49.4055 12.778 49.4902 12.6466 49.5911 12.5279L50.8519 10.9076L50.5809 10.7185L50.9402 10.252L52.6992 10.2898C52.7637 10.2775 52.83 10.2775 52.8946 10.2898C52.9324 10.3213 52.8946 10.397 52.8063 10.523L52.4344 11.0022Z" fill="white"/>
<path d="M11.9406 54.2184L10.6797 52.8629L11.5245 52.0623L11.701 52.2514L13.8697 50.152L13.6932 49.9692L14.5317 49.1748L16.4924 51.2427C16.6258 51.3709 16.7404 51.5174 16.8328 51.6777C16.8929 51.8372 16.9269 52.0054 16.9337 52.1757C16.9493 52.3561 16.9493 52.5375 16.9337 52.7179C16.9249 52.8189 16.897 52.9173 16.8518 53.0079C16.767 53.1156 16.672 53.2149 16.5681 53.3042L16.2907 53.569C16.2066 53.6544 16.1136 53.7305 16.0133 53.796C15.9222 53.8187 15.8269 53.8187 15.7359 53.796C15.4927 53.7634 15.2551 53.6976 15.0298 53.6005C15.1221 53.8553 15.1855 54.1197 15.2189 54.3886C15.2254 54.4716 15.2079 54.5548 15.1685 54.6282C15.1017 54.7237 15.0234 54.8105 14.9352 54.8867L14.5506 55.246L14.7272 55.4351L13.8697 56.2547L12.6089 54.8488L13.6743 53.8401C13.8015 53.7448 13.8997 53.616 13.958 53.4681C13.958 53.3547 13.9076 53.2034 13.7374 53.0205L13.4726 52.7431L11.9406 54.2184ZM14.973 51.3498L14.1976 52.0812L14.4372 52.3333C14.5323 52.4557 14.6692 52.5388 14.8217 52.5666C14.9783 52.5481 15.1222 52.4716 15.2252 52.3523C15.4522 52.1379 15.4837 51.9278 15.3198 51.7218L14.973 51.3498Z" fill="white"/>
<path d="M17.9172 58.1526L18.1063 58.2913L17.5452 59.0352L15.5278 57.5222C15.4151 57.4459 15.3151 57.3523 15.2315 57.2448C15.1653 57.1069 15.1186 56.9605 15.0928 56.8098C15.0509 56.6558 15.0402 56.4951 15.0613 56.3369C15.1096 56.208 15.18 56.0886 15.2693 55.9839L15.635 55.4795C15.7863 55.2715 15.9187 55.1517 16.0259 55.1328C16.2265 55.14 16.4218 55.1986 16.5933 55.303L17.8542 55.9334L17.9487 55.801C18.0392 55.7036 18.0966 55.58 18.1127 55.448C18.1127 55.3597 18.0244 55.2589 17.8668 55.1454C17.7092 55.0319 17.7344 55.0508 17.7029 55.0571C17.6402 55.0698 17.5817 55.098 17.5326 55.1391L17.2931 55.3093L16.3978 54.6347L17.3372 53.6386L18.9133 54.7797C19.0246 54.8529 19.1245 54.9421 19.2096 55.0445C19.2744 55.1775 19.317 55.3202 19.3357 55.4669C19.3757 55.6384 19.3947 55.8141 19.3925 55.9902C19.3989 56.076 19.386 56.1622 19.3546 56.2423C19.2831 56.3634 19.203 56.4793 19.1151 56.5891L17.9172 58.1526ZM17.3813 56.5954L16.9337 56.3874C16.7635 56.3117 16.6374 56.3369 16.5554 56.4504C16.4423 56.5682 16.3582 56.7106 16.3096 56.8665C16.3096 56.9548 16.3852 57.0619 16.5618 57.1943L16.795 57.3708L17.3813 56.5954ZM19.3862 53.4432L20.1742 54.6599L19.777 54.9373L19.0394 53.9097L17.8605 53.5188L18.0118 53.0586L19.3862 53.4432ZM20.1679 53.4432L21.6179 53.8971L21.3595 54.4897L19.9977 53.8593L20.1679 53.4432Z" fill="white"/>
<path d="M21.6311 56.5249L22.375 56.9473L21.9274 57.7354L21.1835 57.3067L20.2756 58.9017C20.1621 59.1034 20.118 59.2484 20.1558 59.3304C20.1937 59.4124 20.4143 59.6141 20.7863 59.8095L20.3261 60.6228L19.4813 60.1437C19.3401 60.0701 19.2087 59.979 19.0904 59.8726C18.9957 59.7203 18.9315 59.5512 18.9012 59.3745C18.8513 59.2092 18.832 59.0361 18.8445 58.8639C18.8851 58.7141 18.949 58.5715 19.0336 58.4415L20.0487 56.6636L19.7524 56.4934L20.0424 55.9764L21.7887 55.7558C21.8531 55.7416 21.9198 55.7416 21.9841 55.7558C22.0283 55.7558 21.9841 55.8566 21.9337 55.9953L21.6311 56.5249Z" fill="white"/>
<path d="M27.0329 56.4189L28.2937 56.835L28.0479 57.5916L28.3694 57.6988L28.174 58.3292L27.8524 58.222L26.5915 62.093L26.8122 62.1686L26.5222 63.0512L24.2589 62.3199C24.118 62.2847 23.9853 62.2226 23.868 62.1371C23.7305 62.0098 23.621 61.8552 23.5465 61.6832C23.4505 61.5349 23.3821 61.3704 23.3447 61.1977C23.3441 61.0401 23.374 60.8837 23.433 60.7375L23.9563 59.111C23.991 58.983 24.0463 58.8617 24.1202 58.7516C24.3516 58.54 24.6273 58.3828 24.9272 58.2914C25.0104 58.2531 25.1004 58.2316 25.1919 58.2283C25.3149 58.2431 25.4355 58.2728 25.5513 58.3166L26.3141 58.5625L26.56 57.8059L25.4946 57.4655L25.69 56.835L26.7555 57.1755L27.0329 56.4189ZM25.2487 61.9291L25.9926 59.6153L25.6711 59.5144C25.6123 59.4843 25.5457 59.4729 25.4803 59.482C25.4149 59.491 25.3538 59.5199 25.3054 59.5649C25.2298 59.6685 25.1761 59.7865 25.1478 59.9116L24.7065 61.2734C24.6567 61.3989 24.6567 61.5387 24.7065 61.6643C24.7379 61.7148 24.7842 61.7544 24.8389 61.7777C24.8641 61.784 25.0091 61.8471 25.2487 61.9291Z" fill="white"/>
<path d="M31.0174 62.861L31.2507 62.8989L31.1057 63.8193L28.5839 63.4221C28.4463 63.4095 28.312 63.3732 28.1867 63.315C28.0633 63.2253 27.9548 63.1168 27.8652 62.9934C27.7557 62.879 27.67 62.744 27.613 62.5963C27.5899 62.4585 27.5899 62.3179 27.613 62.1802L27.7076 61.5875C27.7168 61.4088 27.7807 61.2372 27.8904 61.0958C28.0733 61.0096 28.2748 60.9706 28.4767 60.9823L29.8952 60.9256V60.7617C29.9415 60.6355 29.9415 60.497 29.8952 60.3708C29.8511 60.2951 29.7313 60.2447 29.5422 60.2132C29.4799 60.1993 29.4153 60.1993 29.353 60.2132C29.3059 60.2559 29.2674 60.3073 29.2395 60.3645L29.1071 60.6293L28.0039 60.4527L28.3695 59.1288L30.2609 59.4314C30.3954 59.4418 30.5273 59.4738 30.6517 59.526C30.7704 59.6145 30.8746 59.7208 30.9607 59.8412C31.0743 59.9755 31.1736 60.1213 31.257 60.2762C31.3022 60.3483 31.3283 60.4308 31.3326 60.5158C31.3298 60.6576 31.3151 60.7989 31.2885 60.9382L31.0174 62.861ZM29.8195 61.7389H29.3215C29.1387 61.7389 29.0378 61.8271 29.0189 61.9721C28.9864 62.1323 28.9864 62.2974 29.0189 62.4576C29.0189 62.5332 29.1765 62.5963 29.3972 62.6278L29.6872 62.6782L29.8195 61.7389ZM29.4539 58.5362L30.9544 58.2588L30.9985 58.8892L29.4917 58.9523L29.4539 58.5362Z" fill="white"/>
<path d="M31.995 60.6241V59.691H34.3466C34.5072 59.6828 34.6679 59.7064 34.8194 59.7604C34.9826 59.8714 35.1291 60.0051 35.2544 60.1576C35.3841 60.2884 35.4945 60.437 35.5823 60.5989C35.6134 60.7396 35.6261 60.8837 35.6201 61.0276V62.9631H35.8534V63.9024H34.2646V61.1537C34.2749 61.0347 34.2621 60.9148 34.2268 60.8006C34.2084 60.763 34.1819 60.7299 34.1492 60.7038C34.1165 60.6776 34.0784 60.659 34.0377 60.6493C33.8826 60.6339 33.7263 60.6339 33.5711 60.6493V63.9213H31.9824V62.9568H32.2094V60.6304L31.995 60.6241Z" fill="white"/>
<path d="M37.4677 59.4582L39.6743 59.124L39.813 60.0319L39.586 60.0697L40.04 63.0706C40.0682 63.2053 40.0788 63.343 40.0715 63.4804C40.0214 63.6786 39.9289 63.8636 39.8004 64.0226C39.7013 64.1835 39.5755 64.3263 39.4284 64.445C39.2908 64.514 39.1407 64.5547 38.9871 64.5648L37.0958 64.8485L36.7679 63.5308L37.8775 63.3669L37.9847 63.6885C38.0061 63.7205 38.0352 63.7465 38.0694 63.7642C38.1036 63.7818 38.1417 63.7905 38.1801 63.7893H38.3314C38.3856 63.7904 38.4393 63.7788 38.4882 63.7553C38.5371 63.7319 38.5797 63.6974 38.6129 63.6544C38.646 63.6115 38.6685 63.5615 38.6788 63.5082C38.689 63.455 38.6867 63.4002 38.6719 63.348L38.6151 62.9445L37.8838 63.0517C37.7437 63.0709 37.6016 63.0709 37.4614 63.0517C37.2923 62.9871 37.1348 62.8956 36.9949 62.7806C36.8312 62.6777 36.6862 62.5477 36.5662 62.396C36.4993 62.2643 36.4586 62.1209 36.4464 61.9736L36.2888 60.9082C36.2696 60.7638 36.2696 60.6175 36.2888 60.4732C36.3574 60.2995 36.4532 60.1377 36.5725 59.994C36.678 59.8317 36.8153 59.6923 36.976 59.5843C37.1309 59.5127 37.2975 59.47 37.4677 59.4582ZM37.6758 60.8073L37.8271 61.6584C37.8649 61.8854 37.9153 62.0178 37.9973 62.0493C38.1741 62.0853 38.3564 62.0853 38.5332 62.0493L38.2684 60.2903C38.0899 60.3011 37.9148 60.3438 37.7514 60.4164C37.6569 60.4543 37.6443 60.593 37.6758 60.8073Z" fill="white"/>
<path d="M43.9859 57.6855L45.2468 57.1749L45.5936 58.0449L45.3414 58.1457L45.2594 59.1734C45.354 59.1734 45.499 59.1734 45.6881 59.2301C45.7791 59.2442 45.8643 59.2835 45.934 59.3436C45.9995 59.4439 46.0524 59.5519 46.0916 59.6651L46.3312 60.2956L46.5456 60.2073L46.8923 61.0773L45.4423 61.6573L45.0262 60.5225C44.919 60.264 44.8307 60.1317 44.7425 60.1064C44.5357 60.1145 44.3333 60.1683 44.1499 60.264L44.7803 61.8654L43.3177 62.4517L42.9709 61.5817L43.1853 61.4934L41.9244 58.2655L41.71 58.3538L41.3633 57.4838L42.8196 56.8975L43.8409 59.4192L44.049 59.331L43.9859 57.6855Z" fill="white"/>
<path d="M44.9824 56.0535L46.3379 55.2402L46.9242 56.2174L47.6051 55.8076C47.7207 55.7272 47.8516 55.6714 47.9897 55.6437C48.1769 55.6303 48.365 55.6517 48.5444 55.7068C48.7395 55.7456 48.9243 55.8251 49.0866 55.94C49.1917 56.0441 49.281 56.163 49.3514 56.2931L50.3538 58.0016L50.5556 57.8818L51.0662 58.632L49.6793 59.4705L48.2544 57.0874C48.2069 56.9876 48.138 56.8993 48.0527 56.829C48.0167 56.8102 47.9767 56.8004 47.9361 56.8004C47.8955 56.8004 47.8554 56.8102 47.8194 56.829C47.6783 56.8961 47.5414 56.9719 47.4096 57.0559L49.0866 59.8551L47.7312 60.6684L47.2457 59.8677L47.4412 59.7479L45.657 56.7407L45.4616 56.8542L44.9824 56.0535Z" fill="white"/>
<path d="M52.5226 55.643L53.4178 54.899L54.2185 56.0717L52.6108 57.4019C52.55 57.4582 52.4796 57.5031 52.4028 57.5343C52.3127 57.5433 52.2218 57.5433 52.1317 57.5343C52.0056 57.5343 51.7976 57.5343 51.5013 57.4902C51.4026 57.4768 51.308 57.4424 51.2239 57.3893C51.1078 57.2907 51.0041 57.1786 50.9149 57.0552L49.8999 55.8321C49.8008 55.726 49.716 55.6073 49.6477 55.479C49.6164 55.3706 49.6057 55.2573 49.6162 55.1449C49.6162 55.0566 49.6162 54.9747 49.6162 54.8864C49.631 54.7098 49.6692 54.536 49.7297 54.3694C49.8178 54.2335 49.9312 54.1157 50.0638 54.0227L50.6943 53.5247C50.7944 53.4293 50.9122 53.3543 51.041 53.304C51.2274 53.2815 51.4158 53.2815 51.6021 53.304C51.7793 53.3095 51.9543 53.3458 52.1191 53.4112C52.2431 53.5022 52.3535 53.6105 52.4469 53.7327L53.1404 54.5712L51.6967 55.8195L52.0182 56.2041C52.1317 56.3427 52.2263 56.4184 52.3082 56.4247C52.3902 56.431 52.4847 56.3869 52.6108 56.286C52.6701 56.2396 52.7194 56.1817 52.7558 56.1158C52.7619 56.041 52.7394 55.9666 52.6928 55.9077L52.5226 55.643ZM51.1482 55.1953L51.6273 54.7982L51.413 54.5397C51.3931 54.5016 51.3645 54.4689 51.3295 54.444C51.2945 54.4192 51.2541 54.4031 51.2116 54.3969C51.1691 54.3908 51.1258 54.3948 51.0852 54.4086C51.0446 54.4225 51.0078 54.4458 50.978 54.4766C50.9332 54.5047 50.8963 54.5437 50.8709 54.5901C50.8455 54.6365 50.8325 54.6886 50.833 54.7414C50.8699 54.848 50.9303 54.9449 51.0095 55.0251L51.1482 55.1953Z" fill="white"/>
<path d="M52.566 53.1907L51.8662 52.5603L53.436 50.8013C53.5336 50.6742 53.6586 50.5708 53.8017 50.4987C53.9954 50.4503 54.1948 50.4291 54.3943 50.4356C54.5765 50.4251 54.7593 50.4421 54.9365 50.4861C55.0656 50.5497 55.1829 50.635 55.2832 50.7383L56.727 51.9992L56.8846 51.8226L57.5844 52.4531L56.5315 53.6383L54.4826 51.81C54.4047 51.7369 54.3152 51.6773 54.2178 51.6335C54.1785 51.6222 54.1372 51.6198 54.0969 51.6263C54.0566 51.6329 54.0182 51.6482 53.9845 51.6713C53.8674 51.7747 53.7578 51.8864 53.6567 52.0055L56.0965 54.1805L55.0374 55.3657L54.3376 54.7353L54.4952 54.5588L52.7551 53.0079L52.566 53.1907Z" fill="white"/>
<path d="M61.0774 23.6415L58.9907 23.0489C58.9424 23.0339 58.8911 23.0312 58.8416 23.0412C58.792 23.0511 58.7457 23.0732 58.707 23.1056L57.03 24.4926C56.9844 24.5287 56.9298 24.5515 56.8722 24.5585C56.8145 24.5655 56.7561 24.5564 56.7033 24.5323C56.6504 24.5081 56.6053 24.4699 56.5728 24.4217C56.5404 24.3736 56.5219 24.3174 56.5193 24.2593L56.4373 22.0654C56.4363 22.0146 56.4225 21.9648 56.3971 21.9207C56.3718 21.8767 56.3358 21.8397 56.2923 21.8132L54.464 20.6532C54.4146 20.6219 54.3748 20.5774 54.3492 20.5248C54.3235 20.4721 54.3131 20.4134 54.319 20.3551C54.3249 20.2968 54.3469 20.2414 54.3825 20.1949C54.4182 20.1485 54.466 20.1129 54.5208 20.0921L56.5571 19.3482C56.6045 19.3307 56.647 19.3021 56.681 19.2648C56.715 19.2275 56.7395 19.1826 56.7526 19.1338L57.2948 17.0281C57.3103 16.9724 57.3409 16.9221 57.3832 16.8826C57.4255 16.8432 57.4778 16.8161 57.5345 16.8044C57.5911 16.7927 57.6498 16.7968 57.7043 16.8162C57.7588 16.8357 57.8068 16.8697 57.8432 16.9146L59.1861 18.6232C59.217 18.6633 59.2573 18.6952 59.3035 18.7161C59.3497 18.737 59.4003 18.7462 59.4509 18.7429L61.6133 18.6042C61.6715 18.6008 61.7294 18.6135 61.7808 18.641C61.8321 18.6684 61.8748 18.7096 61.9042 18.7599C61.9336 18.8101 61.9485 18.8676 61.9472 18.9258C61.9459 18.984 61.9286 19.0407 61.897 19.0897L60.6866 20.8928C60.6583 20.935 60.6407 20.9834 60.6352 21.0339C60.6297 21.0844 60.6365 21.1355 60.655 21.1828L61.4557 23.2002C61.4835 23.2557 61.4943 23.3182 61.4868 23.3798C61.4792 23.4414 61.4536 23.4994 61.4132 23.5465C61.3728 23.5937 61.3194 23.6278 61.2597 23.6447C61.1999 23.6616 61.1365 23.6605 61.0774 23.6415Z" fill="#F5B2D0"/>
<path d="M17.9173 36.6668L16.026 36.1309C15.9819 36.1183 15.9356 36.1163 15.8907 36.1251C15.8457 36.1338 15.8035 36.1531 15.7675 36.1813L14.2544 37.4422C14.2136 37.4748 14.1645 37.4954 14.1127 37.5019C14.0609 37.5084 14.0083 37.5004 13.9607 37.4789C13.9131 37.4574 13.8724 37.4232 13.843 37.38C13.8136 37.3368 13.7967 37.2863 13.7942 37.2342L13.7185 35.2735C13.7181 35.2274 13.7057 35.1822 13.6825 35.1424C13.6592 35.1026 13.626 35.0696 13.5861 35.0465L11.9344 33.9937C11.89 33.9655 11.8543 33.9255 11.8313 33.8783C11.8083 33.831 11.7989 33.7783 11.8041 33.726C11.8094 33.6736 11.829 33.6238 11.8609 33.582C11.8928 33.5403 11.9357 33.5082 11.9848 33.4893L13.832 32.7832C13.8753 32.7678 13.9141 32.7419 13.9449 32.7078C13.9757 32.6737 13.9976 32.6324 14.0085 32.5878L14.5003 30.6964C14.5118 30.6448 14.5378 30.5976 14.5753 30.5602C14.6129 30.5229 14.6602 30.4971 14.7119 30.4859C14.7636 30.4746 14.8174 30.4783 14.8671 30.4967C14.9167 30.515 14.9601 30.5471 14.992 30.5893L16.2088 32.1528C16.2364 32.1895 16.2728 32.2185 16.3147 32.2373C16.3566 32.256 16.4026 32.2638 16.4483 32.2599L18.4027 32.1402C18.4553 32.1355 18.5082 32.1459 18.5551 32.1702C18.6019 32.1945 18.6409 32.2317 18.6674 32.2773C18.6939 32.323 18.7068 32.3753 18.7046 32.4281C18.7023 32.4808 18.6851 32.5319 18.6549 32.5752L17.5642 34.208C17.5377 34.245 17.5209 34.2881 17.5154 34.3332C17.5099 34.3784 17.5159 34.4242 17.5327 34.4665L18.2829 36.2885C18.3059 36.3402 18.3129 36.3975 18.3031 36.4532C18.2933 36.5089 18.267 36.5603 18.2277 36.601C18.1884 36.6416 18.1379 36.6696 18.0826 36.6813C18.0273 36.693 17.9697 36.688 17.9173 36.6668Z" fill="#DD2E53"/>
<path d="M63.5234 33.413L62.2057 33.0347C62.1753 33.0282 62.1438 33.0282 62.1134 33.0348C62.083 33.0413 62.0543 33.0542 62.0292 33.0726L60.9764 33.9489C60.9482 33.9727 60.9138 33.988 60.8773 33.9932C60.8408 33.9983 60.8035 33.9929 60.7699 33.9778C60.7362 33.9626 60.7076 33.9382 60.6872 33.9074C60.6669 33.8767 60.6556 33.8408 60.6548 33.8039L60.6044 32.4358C60.6022 32.4039 60.5925 32.373 60.5761 32.3456C60.5597 32.3182 60.537 32.2951 60.5098 32.2782L59.3561 31.5469C59.3261 31.5263 59.3022 31.4979 59.287 31.4649C59.2718 31.4318 59.2658 31.3953 59.2697 31.3591C59.2736 31.3229 59.2872 31.2884 59.309 31.2593C59.3309 31.2302 59.3603 31.2076 59.3939 31.1938L60.6548 30.7273C60.6843 30.7153 60.7106 30.6964 60.7314 30.6723C60.7522 30.6482 60.767 30.6195 60.7746 30.5886L61.1151 29.2647C61.124 29.2287 61.1429 29.196 61.1697 29.1704C61.1965 29.1447 61.2301 29.1273 61.2664 29.12C61.3028 29.1127 61.3405 29.116 61.3751 29.1293C61.4096 29.1426 61.4397 29.1655 61.4618 29.1953L62.3318 30.2608C62.3507 30.286 62.3755 30.3062 62.4042 30.3194C62.4328 30.3326 62.4643 30.3385 62.4957 30.3364L63.8638 30.2608C63.9006 30.2586 63.9373 30.267 63.9696 30.2848C64.0019 30.3026 64.0285 30.3292 64.0463 30.3616C64.0641 30.3939 64.0724 30.4306 64.0702 30.4674C64.0681 30.5042 64.0555 30.5397 64.034 30.5697L63.2775 31.7045C63.262 31.7325 63.2539 31.7639 63.2539 31.7959C63.2539 31.8279 63.262 31.8593 63.2775 31.8873L63.7755 33.1482C63.7928 33.184 63.7987 33.2242 63.7925 33.2634C63.7863 33.3026 63.7684 33.339 63.741 33.3678C63.7136 33.3965 63.6781 33.4162 63.6392 33.4243C63.6004 33.4324 63.5599 33.4285 63.5234 33.413Z" fill="#D4EEF8"/>
<path d="M5.51605 30.4621C5.24706 30.4116 5.12727 30.2918 5.15669 30.1027C5.19644 29.9549 5.26738 29.8173 5.36474 29.6992L5.99519 28.9427L6.68868 28.1231L9.21047 25.2356L9.56982 24.7943C9.89922 24.6256 10.2813 24.5917 10.6353 24.6998C10.8559 24.7691 10.9442 24.9835 10.8938 25.3302L10.7172 26.2191C10.7172 26.2191 10.7172 26.2822 10.7172 26.3137L10.3957 28.8355C10.3355 29.2952 10.3123 29.759 10.3264 30.2225C10.3095 30.533 10.3888 30.8412 10.5533 31.1051C10.2251 31.2629 9.85034 31.2943 9.50047 31.1934C9.21047 31.1177 9.07807 30.8151 9.10329 30.3044C9.10329 30.1153 9.1159 29.8883 9.14112 29.6236L9.21047 28.949C9.09202 29.0099 8.95605 29.0278 8.8259 28.9994C8.37828 28.9364 7.93697 28.867 7.50826 28.7851C7.33081 28.8395 7.17449 28.9474 7.06064 29.094C6.97633 29.1785 6.89836 29.2691 6.82738 29.3651L6.65085 29.6046C6.63417 29.6287 6.61942 29.654 6.60672 29.6803C6.52461 29.8012 6.45088 29.9276 6.38607 30.0586C6.32554 30.191 6.29538 30.3353 6.2978 30.481C6.03802 30.5188 5.7737 30.5124 5.51605 30.4621ZM9.09068 28.369H9.20416H9.29873C9.45004 27.4737 9.56982 26.5911 9.65808 25.74L7.76674 28.1168L9.09068 28.369Z" fill="#F8D62D"/>
<path d="M62.1556 41.6598C62.1556 40.9663 61.834 40.5691 61.2982 40.4745C60.978 40.4238 60.6507 40.4983 60.384 40.6826C60.0742 40.8919 59.8103 41.1622 59.6086 41.477C59.3728 41.8186 59.1781 42.1868 59.0285 42.5739C58.8814 42.9359 58.7716 43.3119 58.7007 43.6961C58.5179 44.6985 58.8142 45.2722 59.5896 45.4109C60.2654 45.481 60.9424 45.2892 61.481 44.8751C61.5057 45.0275 61.5057 45.1829 61.481 45.3353C61.4242 45.6379 61.1216 45.8649 60.5542 46.0288C60.003 46.1984 59.4187 46.2308 58.852 46.1233C57.5911 45.8922 57.0889 45.0348 57.3453 43.5511C57.5313 42.4584 58.1014 41.468 58.9529 40.7582C59.342 40.4158 59.7967 40.1562 60.2894 39.9954C60.7743 39.8318 61.293 39.7949 61.7962 39.8882C62.1364 39.9318 62.4609 40.0572 62.7419 40.2539C62.8604 40.3293 62.9529 40.4393 63.007 40.5689C63.0611 40.6985 63.0742 40.8416 63.0445 40.9789C63.0067 41.2941 62.7041 41.5274 62.1556 41.6598Z" fill="#F8D62D"/>
<path d="M6.51222 38.5075L6.36091 38.0473L6.14656 37.379L5.88177 36.5657C5.79351 36.2757 5.69264 35.9794 5.59807 35.6768C5.5035 35.3742 5.39632 35.0464 5.30176 34.7627L6.2033 34.4727L6.93462 36.6603C7.07034 36.5316 7.21578 36.4136 7.36962 36.3073C7.55222 36.1842 7.75189 36.0886 7.96224 36.0236C8.26013 35.9212 8.57421 35.8742 8.889 35.8849C9.14615 35.8983 9.39659 35.9717 9.62032 36.0992C9.83825 36.2323 10.027 36.4082 10.1751 36.6162C10.5219 37.0921 10.7075 37.6665 10.7047 38.2553C10.7094 38.506 10.6554 38.7543 10.5471 38.9804C10.4387 39.2091 10.2791 39.4097 10.0805 39.5667C9.8313 39.7572 9.54924 39.9003 9.24836 39.9891C8.9391 40.0999 8.61221 40.1533 8.28377 40.1467C8.02206 40.1454 7.76458 40.0805 7.53354 39.9575C7.31129 39.836 7.11946 39.6658 6.97244 39.4595C6.80402 39.2234 6.67027 38.9644 6.57526 38.6903L6.51222 38.5075ZM7.52093 38.539C7.5867 38.761 7.68213 38.9731 7.80463 39.1695C7.89617 39.3112 8.01914 39.4298 8.16399 39.5162C8.29381 39.5862 8.43891 39.623 8.58639 39.6234C8.74547 39.6233 8.90332 39.5956 9.05292 39.5414C9.19731 39.4962 9.33353 39.428 9.4564 39.3397C9.57481 39.2553 9.67018 39.1426 9.7338 39.0119C9.80139 38.8549 9.83161 38.6844 9.82206 38.5138C9.81761 38.281 9.78156 38.0498 9.71489 37.8266L9.62032 37.5492C9.55316 37.3267 9.45557 37.1146 9.33031 36.9188C9.23568 36.7707 9.11113 36.644 8.96465 36.5468C8.83359 36.4718 8.68675 36.4286 8.53595 36.4207C8.37625 36.4203 8.21794 36.4503 8.06942 36.509C7.91582 36.5486 7.77202 36.6194 7.64702 36.717C7.5244 36.8076 7.42855 36.9295 7.36962 37.0701C7.30946 37.2333 7.2837 37.4071 7.29397 37.5808C7.30589 37.8154 7.35263 38.047 7.43267 38.2679L7.52093 38.539Z" fill="#D4EEF8"/>
<path fill-rule="evenodd" clip-rule="evenodd" d="M32.2661 20.4526C34.1575 17.9308 37.3728 17.9308 39.201 20.1815C39.6148 20.7578 39.8728 21.4311 39.9502 22.1363C40.0276 22.8415 39.9217 23.5548 39.6427 24.2071C39.3638 24.8594 38.9213 25.4287 38.358 25.8599C37.7946 26.2912 37.1296 26.5698 36.4271 26.6688C36.3199 27.9297 36.0299 30.3632 35.0464 31.7439C36.156 33.9 40.9159 30.0039 45.392 32.4689C47.1699 33.4461 48.2669 35.4509 48.7586 36.6551C50.7193 38.2438 55.3216 38.6662 54.5335 35.7283C54.0481 33.9189 51.8415 34.19 50.4104 32.0087C49.3702 30.4263 49.6665 28.5601 50.1645 28.1756C51.5515 27.0975 50.9967 30.5839 51.7406 31.4413C53.26 33.2002 54.6281 33.0048 55.8511 34.5935C56.1651 35.0489 56.3635 35.5738 56.4294 36.1229C56.4953 36.6721 56.4267 37.229 56.2294 37.7457C55.2901 40.3054 51.4065 40.898 48.5064 39.5551C48.8183 40.5435 48.8575 41.5977 48.6199 42.6065C48.3804 43.9683 49.2125 44.9013 49.2504 45.9605C49.2504 47.4672 48.229 48.6525 46.5079 49.056C44.6607 49.4847 42.0948 49.0055 41.6472 47.1268C39.6297 47.7572 38.766 45.8218 36.5595 46.3198C35.9858 50.878 28.37 52.4162 26.9326 47.5366C22.5888 47.1331 23.4525 43.0793 26.2264 41.2006C25.9464 40.2436 25.7959 39.2534 25.7788 38.2564C20.8676 38.5086 17.375 36.0183 16.4545 32.0969C16.1567 30.6944 16.1432 29.2464 16.4151 27.8386C16.6869 26.4309 17.2384 25.0919 18.0369 23.9011C18.3596 23.3567 18.7355 22.8456 19.1591 22.3754C17.9361 20.2824 18.5917 18.7252 19.6131 17.9623C21.1324 16.8653 23.6984 17.4201 24.0766 19.5763C26.2769 18.6306 30.0848 18.6306 32.2724 20.4085L32.2661 20.4526Z" fill="url(#paint0_linear_7926_32597)"/>
<path fill-rule="evenodd" clip-rule="evenodd" d="M32.5631 21.228C33.679 19.3871 36.6484 18.1199 38.4073 20.131C40.1663 22.1421 39.3782 25.6916 35.9864 26.1392C35.1857 30.8864 34.0951 32.6958 31.8065 34.9213C32.2453 33.8235 32.3761 32.6268 32.1848 31.4601C33.4457 30.6406 31.1887 30.1362 30.9933 31.1323C32.2541 31.4538 31.7057 34.3854 30.9428 35.2933C29.2721 37.2792 25.1238 38.3446 22.3183 37.3044C21.0574 36.2894 20.137 34.4674 20.9628 32.6328C23.0307 33.2632 25.3318 32.368 26.908 28.0494C23.7557 27.2298 19.3426 26.1581 18.0817 26.9966C17.8295 29.1086 18.9895 31.8825 20.4459 32.3806C19.7461 33.7928 19.9352 35.8985 20.8809 36.7937C17.8232 35.8859 15.8373 31.2836 16.9784 27.5262C18.3213 23.0248 20.9124 21.0136 24.4051 19.9608C28.1878 18.8323 30.8356 19.6645 32.5694 21.2217L32.5631 21.228Z" fill="url(#paint1_linear_7926_32597)"/>
<path fill-rule="evenodd" clip-rule="evenodd" d="M24.1458 20.0289L24.398 19.9532C25.5943 19.5775 26.8452 19.4048 28.0987 19.4426C26.6831 20.2113 25.3147 21.0639 24.0008 21.9959C23.9468 21.3367 23.9957 20.6731 24.1458 20.0289Z" fill="url(#paint2_linear_7926_32597)"/>
<path fill-rule="evenodd" clip-rule="evenodd" d="M29.3849 19.6064C30.2064 19.778 30.9888 20.1008 31.6923 20.5584C30.4115 21.1272 29.2302 21.8977 28.1934 22.8406C28.3756 21.6951 28.7804 20.5964 29.3849 19.6064Z" fill="url(#paint3_linear_7926_32597)"/>
<path fill-rule="evenodd" clip-rule="evenodd" d="M36.0487 26.1312H35.9856C35.91 26.5978 35.828 27.0265 35.7461 27.4362C35.1593 27.8428 34.4981 28.1295 33.8003 28.2799C33.1024 28.4303 32.3818 28.4414 31.6797 28.3126C33.8799 27.348 35.0904 24.4858 35.4624 22.834C35.7956 23.9038 36.0071 25.0077 36.0928 26.1249L36.0487 26.1312Z" fill="url(#paint4_linear_7926_32597)"/>
<path fill-rule="evenodd" clip-rule="evenodd" d="M33.5276 32.9968C33.0075 33.674 32.4318 34.3066 31.8065 34.8882C32.2453 33.7904 32.3761 32.5936 32.1848 31.427C33.4457 30.6074 31.1887 30.1031 30.9933 31.0992C32.2541 31.4207 31.7057 34.3523 30.9428 35.2601C29.2721 37.246 25.1238 38.3115 22.3183 37.2712C21.0574 36.2562 20.137 34.4342 20.9628 32.5996C23.0307 33.2301 25.3318 32.3348 26.908 28.0163C23.7557 27.1967 19.3426 26.1249 18.0817 26.9634C17.8295 29.0754 18.9895 31.8494 20.4459 32.3475C19.7461 33.7597 19.9352 35.8653 20.8809 36.7606C17.8232 35.8527 15.8373 31.2505 16.9784 27.493C17.2047 26.7267 17.4935 25.9802 17.8421 25.2612C19.2517 24.8781 20.7063 24.6852 22.167 24.6875C28.4715 24.6875 33.5718 28.1172 33.5718 32.3411C33.571 32.5518 33.5583 32.7623 33.534 32.9716L33.5276 32.9968Z" fill="url(#paint5_linear_7926_32597)"/>
<path fill-rule="evenodd" clip-rule="evenodd" d="M23.6607 19.7008C22.2812 20.2374 20.9744 20.9448 19.7708 21.8065C18.8189 21.3526 18.5793 18.9191 20.3572 18.1436C22.135 17.3682 23.2887 18.7173 23.6607 19.7008Z" fill="url(#paint6_linear_7926_32597)"/>
<path fill-rule="evenodd" clip-rule="evenodd" d="M26.3592 28.5287C25.5396 29.6509 25.0983 30.5146 23.705 31.5296C22.6143 32.3177 20.4141 32.5698 19.5378 31.0378C18.7749 30.1111 18.5291 28.7998 18.4219 27.3245C20.66 26.858 22.7341 27.4695 26.3592 28.5287Z" fill="url(#paint7_linear_7926_32597)"/>
<path fill-rule="evenodd" clip-rule="evenodd" d="M55.0759 35.2485C55.3122 35.6106 55.4577 36.0243 55.5003 36.4546C55.5428 36.8849 55.481 37.3191 55.3202 37.7205C55.1594 38.1219 54.9043 38.4786 54.5765 38.7605C54.2486 39.0424 53.8577 39.2412 53.4368 39.3401C51.3563 39.9705 49.0236 39.1384 47.7628 38.4386C48.8156 40.6199 46.5019 44.1126 48.3932 45.8022C48.286 47.6053 46.3379 48.0844 44.7681 47.9646C42.2463 47.7755 41.7042 45.6509 42.1139 43.148C41.9626 43.3434 41.8176 43.211 41.5718 43.3119C41.0737 44.9637 38.3313 46.1426 36.6984 44.8817C36.6984 44.1378 36.9632 43.3182 36.7551 42.713C36.6139 42.7551 36.4876 42.8369 36.3915 42.9486C36.2954 43.0604 36.2334 43.1974 36.213 43.3434C35.7653 45.5626 35.8095 47.2711 34.3216 48.4879C33.0166 49.547 30.6272 49.7488 28.7422 48.759C27.0274 46.5776 30.2678 43.8541 28.5846 41.1936C28.2189 41.5593 28.5846 42.3095 28.4774 42.9273C27.7714 42.3784 27.2172 41.6583 26.8675 40.8352C26.5177 40.0122 26.384 39.1134 26.4789 38.2242C30.3813 37.0705 32.7833 35.5952 34.7566 32.2665C36.2319 33.8489 38.6276 32.7267 41.1431 32.3358C44.7618 31.7747 46.6216 33.6976 48.1788 37.0894C48.7021 37.7955 51.4824 38.9807 53.3485 38.5205C53.699 38.4554 54.0303 38.3124 54.3182 38.1022C54.6061 37.892 54.8432 37.6199 55.012 37.3059C55.1807 36.992 55.2769 36.6441 55.2935 36.2881C55.31 35.932 55.2464 35.5767 55.1075 35.2485H55.0759Z" fill="url(#paint8_linear_7926_32597)"/>
<path fill-rule="evenodd" clip-rule="evenodd" d="M42.7126 47.0388C42.3962 46.654 42.1796 46.1971 42.0822 45.7085C43.4595 45.9236 44.8697 45.7353 46.1423 45.1664C45.3479 46.0679 43.6835 46.7109 42.7063 47.0577L42.7126 47.0388ZM42.0192 45.3114C41.9796 45.0337 41.9628 44.7533 41.9687 44.4729C43.0342 44.4729 44.667 44.3909 45.6631 43.6028C45.2188 44.1382 44.6619 44.5688 44.032 44.8642C43.4021 45.1595 42.7148 45.3122 42.0192 45.3114ZM41.6787 32.2674C42.7646 32.1378 43.8643 32.3423 44.8309 32.8537C44.9129 35.5583 44.8688 40.6208 43.5701 43.357C43.9294 40.1606 42.8892 34.6505 41.6787 32.2674ZM46.0918 33.8561C46.9002 34.7531 47.5581 35.7751 48.0399 36.8823C47.5734 39.0888 46.7286 41.8565 45.2407 43.8676C46.2476 40.6319 46.5423 37.2165 46.1044 33.8561H46.0918Z" fill="url(#paint9_linear_7926_32597)"/>
<path fill-rule="evenodd" clip-rule="evenodd" d="M28.4834 45.6565C28.6347 45.1206 28.8175 44.5784 28.9373 44.0236C30.8695 44.715 32.923 45.0025 34.9707 44.8684C33.2307 45.7195 29.8136 45.7006 28.4834 45.6565ZM29.0382 43.3869C29.0973 42.8796 29.0457 42.3655 28.8869 41.8801C30.5008 42.5105 32.9722 43.2419 34.7059 42.5105C32.8839 44.0993 30.4441 43.7714 29.0319 43.3806L29.0382 43.3869ZM35.4435 32.7827C35.8374 32.9703 36.2682 33.0673 36.7044 33.0665V33.2051C36.1812 34.6173 34.5987 36.7672 32.1652 37.2526C33.7602 36.2628 34.7879 34.5228 35.4435 32.7827ZM37.1394 33.0601C37.6379 33.0187 38.133 32.9429 38.621 32.8332L38.6588 32.871C38.8164 33.7032 39.1253 36.9689 35.6264 40.6381C36.8361 38.3102 37.3607 35.6869 37.1394 33.0728V33.0601ZM39.1253 32.726C39.6864 32.5999 40.2665 32.4612 40.8528 32.3604C41.4013 34.6489 42.1515 39.4151 40.0584 42.9203C40.9095 39.8753 39.9575 35.5378 39.1253 32.726Z" fill="url(#paint10_linear_7926_32597)"/>
<path fill-rule="evenodd" clip-rule="evenodd" d="M26.5541 41.9052C27.0268 42.6806 27.6431 43.3589 28.3697 43.9037C28.2596 44.9575 27.7687 45.9349 26.9891 46.6525C23.9692 46.5768 24.9212 42.7122 26.5541 41.8926V41.9052Z" fill="url(#paint11_linear_7926_32597)"/>
<path fill-rule="evenodd" clip-rule="evenodd" d="M41.1114 44.9893C41.1681 45.5314 41.332 46.0736 41.4392 46.6158C41.1056 46.7216 40.7481 46.7266 40.4117 46.6302C40.0752 46.5337 39.7747 46.3401 39.5479 46.0736C40.1525 45.8472 40.6918 45.4746 41.1177 44.9893H41.1114Z" fill="#F58040"/>
<path fill-rule="evenodd" clip-rule="evenodd" d="M27.9665 29.1133C28.1092 29.1149 28.2455 29.1728 28.3458 29.2743C28.4461 29.3758 28.5023 29.5128 28.5023 29.6555C28.5023 29.7993 28.4452 29.9372 28.3435 30.0388C28.2419 30.1405 28.1039 30.1977 27.9602 30.1977C27.8164 30.1977 27.6785 30.1405 27.5768 30.0388C27.4751 29.9372 27.418 29.7993 27.418 29.6555C27.4179 29.584 27.4322 29.5133 27.4599 29.4474C27.4876 29.3816 27.5282 29.3219 27.5794 29.272C27.6305 29.2221 27.691 29.1829 27.7575 29.1567C27.824 29.1305 27.895 29.1179 27.9665 29.1196V29.1133Z" fill="white"/>
<path fill-rule="evenodd" clip-rule="evenodd" d="M27.5887 26.4785C27.7726 26.4785 27.949 26.5516 28.079 26.6816C28.2091 26.8117 28.2822 26.9881 28.2822 27.172C28.2822 27.3559 28.2091 27.5323 28.079 27.6624C27.949 27.7924 27.7726 27.8655 27.5887 27.8655C27.4974 27.8655 27.407 27.8473 27.3228 27.812C27.2385 27.7767 27.1622 27.7249 27.0982 27.6598C27.0343 27.5946 26.9839 27.5174 26.9501 27.4326C26.9163 27.3477 26.8998 27.257 26.9015 27.1657C26.9031 26.984 26.9761 26.8101 27.1046 26.6816C27.2331 26.5531 27.4069 26.4802 27.5887 26.4785Z" fill="white"/>
<path fill-rule="evenodd" clip-rule="evenodd" d="M29.7503 28.3712C29.8139 28.3712 29.8761 28.39 29.9289 28.4253C29.9818 28.4607 30.023 28.5109 30.0474 28.5696C30.0717 28.6284 30.0781 28.693 30.0657 28.7554C30.0532 28.8178 30.0226 28.8751 29.9777 28.92C29.9327 28.965 29.8754 28.9956 29.813 29.008C29.7507 29.0204 29.686 29.0141 29.6273 28.9897C29.5685 28.9654 29.5183 28.9242 29.483 28.8713C29.4476 28.8184 29.4288 28.7563 29.4288 28.6927C29.4279 28.6502 29.4356 28.608 29.4515 28.5686C29.4674 28.5292 29.491 28.4934 29.521 28.4634C29.5511 28.4334 29.5869 28.4097 29.6263 28.3939C29.6656 28.378 29.7078 28.3703 29.7503 28.3712Z" fill="white"/>
<path fill-rule="evenodd" clip-rule="evenodd" d="M25.6022 25.0473C25.132 24.6443 24.5632 24.3735 23.9538 24.2627C23.3445 24.1519 22.7167 24.2051 22.1348 24.4169C22.1348 23.6603 22.1726 22.7147 22.803 22.4625C23.4335 22.2103 23.9568 22.7399 23.9568 23.5595C24.061 22.969 24.3555 22.4287 24.7953 22.0212C25.3437 21.6051 26.2327 21.542 26.4722 22.2923C26.7118 23.0425 26.2011 24.3286 25.6022 25.0473Z" fill="#231F20"/>
<path fill-rule="evenodd" clip-rule="evenodd" d="M25.2617 22.0656C26.3965 21.5361 26.5226 22.8537 26.1002 23.5913C26.2452 22.7465 26.2263 22.053 25.2617 22.0656Z" fill="white"/>
<path fill-rule="evenodd" clip-rule="evenodd" d="M24.5874 22.5576C24.2822 23.0031 24.1076 23.525 24.083 24.0644C24.3793 23.9509 25.5078 24.6192 25.3943 24.6948C25.243 24.222 24.6945 23.9824 24.5621 23.6231C24.4684 23.2762 24.4684 22.9108 24.5621 22.5639L24.5874 22.5576Z" fill="#52555B"/>
<path fill-rule="evenodd" clip-rule="evenodd" d="M22.5139 22.9095C22.314 23.2975 22.2455 23.74 22.3184 24.1703C22.6187 24.0736 22.9302 24.0164 23.2452 24.0001C22.9552 23.8425 22.7093 24.0001 22.5769 23.6471C22.4815 23.4023 22.4596 23.135 22.5139 22.8779V22.9095Z" fill="#52555B"/>
<path fill-rule="evenodd" clip-rule="evenodd" d="M25.5579 22.4248C25.6556 22.4344 25.7455 22.4822 25.8081 22.5577C25.8707 22.6333 25.9009 22.7306 25.8921 22.8283C25.8921 22.8768 25.8824 22.9249 25.8637 22.9697C25.8449 23.0145 25.8174 23.0551 25.7828 23.0891C25.7481 23.1231 25.7071 23.1499 25.662 23.1679C25.6169 23.1859 25.5687 23.1948 25.5201 23.194C25.422 23.1843 25.3315 23.1368 25.2679 23.0614C25.2043 22.986 25.1726 22.8888 25.1797 22.7905C25.183 22.6923 25.2242 22.5993 25.2948 22.5311C25.3654 22.4629 25.4598 22.4248 25.5579 22.4248Z" fill="white"/>
<path fill-rule="evenodd" clip-rule="evenodd" d="M23.2321 22.7842C23.2658 22.7865 23.2988 22.7957 23.3289 22.811C23.359 22.8263 23.3858 22.8476 23.4075 22.8734C23.4293 22.8993 23.4456 22.9293 23.4556 22.9616C23.4655 22.994 23.4688 23.0279 23.4654 23.0616C23.4654 23.1268 23.4395 23.1893 23.3934 23.2354C23.3473 23.2815 23.2847 23.3075 23.2195 23.3075C23.1543 23.3075 23.0918 23.2815 23.0456 23.2354C22.9995 23.1893 22.9736 23.1268 22.9736 23.0616C22.9736 23.0279 22.9803 22.9946 22.9934 22.9636C23.0065 22.9326 23.0256 22.9045 23.0497 22.881C23.0738 22.8575 23.1023 22.8391 23.1337 22.8268C23.165 22.8145 23.1985 22.8086 23.2321 22.8094V22.7842Z" fill="white"/>
<path fill-rule="evenodd" clip-rule="evenodd" d="M19.3035 35.9356C18.1154 33.6557 17.6974 31.0524 18.1119 28.5152C18.0337 28.0125 18.021 27.5018 18.0741 26.9958C18.2489 26.8896 18.4409 26.8149 18.6415 26.7752C20.4887 22.2044 24.3723 19.0207 30.2985 19.9222C28.5433 19.3532 26.6619 19.2985 24.8766 19.7646C20.0726 20.9625 17.7148 23.9319 16.7124 27.9604C16.3813 29.3998 16.4474 30.9021 16.9038 32.3067C17.3602 33.7114 18.1896 34.9657 19.3035 35.9356Z" fill="white"/>
<path fill-rule="evenodd" clip-rule="evenodd" d="M29.2656 19.8085C29.6061 19.8085 29.9465 19.8716 30.2996 19.922C29.9969 19.8211 29.6817 19.7329 29.3539 19.6572C29.3224 19.7077 29.2908 19.7581 29.2656 19.8085Z" fill="#9BA2AB"/>
<path fill-rule="evenodd" clip-rule="evenodd" d="M24.0332 20.6907C25.0953 20.196 26.2379 19.897 27.4061 19.8081C27.6204 19.6883 27.8285 19.5748 28.0365 19.4739C26.9771 19.4082 25.9139 19.506 24.8843 19.7639L24.1656 19.9657C24.1089 20.2116 24.071 20.4574 24.0395 20.6907H24.0332Z" fill="#9BA2AB"/>
<path fill-rule="evenodd" clip-rule="evenodd" d="M22.3115 37.2966C26.7247 37.2588 29.6814 35.7773 31.7052 33.2113C31.6324 33.9624 31.3699 34.6827 30.9423 35.3044C29.2717 37.2903 25.1233 38.3558 22.3178 37.3155L22.3115 37.2966ZM32.2915 32.3981C33.71 30.2608 35.4437 27.7706 36.0742 24.5742C36.112 29.0504 34.29 32.9024 31.8124 34.9199C32.1088 34.1109 32.2727 33.2593 32.2978 32.3981H32.2915Z" fill="url(#paint12_linear_7926_32597)"/>
<path fill-rule="evenodd" clip-rule="evenodd" d="M36.0047 26.1389C35.9291 26.6054 35.8471 27.0341 35.7652 27.4439C35.5211 27.6255 35.2591 27.7818 34.9834 27.9104C35.3886 27.0292 35.7074 26.1107 35.9354 25.168C35.9669 25.4012 35.9921 25.6408 36.0173 25.8867V26.1389H36.0047Z" fill="#231F20"/>
<path fill-rule="evenodd" clip-rule="evenodd" d="M22.3115 37.2966C26.7247 37.2587 29.6814 35.7772 31.7052 33.2113C31.6542 33.5911 31.5655 33.9649 31.4404 34.3272V34.365V34.4217V34.4722V34.5226V34.573V34.6235V34.655V34.6865V34.718V34.7559C31.4371 34.7704 31.4371 34.7855 31.4404 34.8V34.8378L31.4089 34.882C29.7382 36.8679 25.5898 37.9333 22.7844 36.8931L22.3115 37.2966ZM33.5272 32.9969C33.007 33.6741 32.4313 34.3068 31.8061 34.8883V34.8567V34.8189C31.8061 34.7874 31.8061 34.7559 31.8376 34.7243V34.655V34.6172V34.5793V34.5289V34.4974V34.4343V34.3524L31.9132 34.0498V34.0119V33.9741C32.014 33.512 32.0689 33.0411 32.0771 32.5682C32.4176 32.0576 32.7706 31.5343 33.1237 30.9795C33.2748 31.4761 33.3513 31.9924 33.3506 32.5115C33.3498 32.7222 33.3372 32.9326 33.3128 33.1419L33.5272 32.9969Z" fill="url(#paint13_linear_7926_32597)"/>
<path fill-rule="evenodd" clip-rule="evenodd" d="M36.8059 43.2372C39.4349 43.3885 41.6415 43.0543 43.3626 42.1465C45.5692 40.9802 46.9751 38.8871 47.4416 35.6907C47.6875 36.1257 47.9207 36.5923 48.1477 37.0903C48.671 37.7964 51.4512 38.9817 53.3174 38.5214C53.7062 38.4413 54.0701 38.2689 54.3784 38.0188C54.6867 37.7686 54.9304 37.448 55.0889 37.084C55.1957 36.651 55.1941 36.1984 55.0841 35.7662C54.9741 35.334 54.7592 34.9356 54.4585 34.6064C53.5191 33.585 51.5332 32.9987 50.6758 31.6307C49.8184 30.2626 50.0453 28.6865 50.329 28.4784C50.9595 28.0749 50.7136 29.878 51.2558 31.2713C51.8484 32.8159 54.1432 33.2698 55.0385 34.4235C55.3688 34.8545 55.6061 35.3493 55.7353 35.8768C55.8644 36.4042 55.8826 36.9527 55.7887 37.4875C55.5977 37.9714 55.2947 38.4031 54.9045 38.7472C54.5144 39.0913 54.0483 39.338 53.5443 39.4671C51.4638 40.066 49.0429 39.1393 47.7694 38.4395C48.8223 40.6208 46.5085 44.1135 48.3999 45.8031C48.2927 47.6062 46.3446 48.0853 44.7748 47.9655C42.253 47.7764 41.7108 45.6518 42.1206 43.1489C41.9693 43.3444 41.8243 43.212 41.5784 43.3128C41.0804 44.9646 38.3379 46.1435 36.7051 44.8826C36.7051 44.3342 36.8438 43.7541 36.8375 43.2372H36.8059Z" fill="url(#paint14_linear_7926_32597)"/>
<path fill-rule="evenodd" clip-rule="evenodd" d="M48.6838 37.5366C49.0803 37.7912 49.5031 38.0026 49.9447 38.1671C49.7675 38.5038 49.6219 38.8563 49.5097 39.2199C49.2007 39.1127 48.8792 38.9993 48.6396 38.8858C48.6396 38.3499 48.6712 37.8771 48.6964 37.5618L48.6838 37.5366ZM50.4742 38.3247C50.7967 38.4219 51.1253 38.4977 51.4577 38.5516C51.3392 38.8919 51.2423 39.2394 51.1677 39.5919C50.8903 39.5541 50.6129 39.5036 50.3482 39.4406C50.3489 39.0651 50.3912 38.6909 50.4742 38.3247ZM51.8423 38.6021C52.2623 38.6494 52.6868 38.6367 53.1032 38.5643C53.1126 38.8954 53.1548 39.2249 53.2293 39.5477C52.9651 39.6003 52.6976 39.634 52.4286 39.6486C52.1681 39.3394 51.9672 38.9845 51.836 38.6021H51.8423ZM53.4563 38.4571C53.7963 38.3568 54.1148 38.1943 54.3956 37.9779C54.5015 38.2654 54.6389 38.5403 54.8054 38.7975C54.5795 38.9724 54.3341 39.1204 54.0741 39.2388C53.8163 39.0205 53.6024 38.7552 53.4437 38.4571H53.4563ZM54.6226 37.8266C54.8153 37.6525 54.9651 37.436 55.0603 37.1943C55.1554 36.9526 55.1934 36.6922 55.1711 36.4333C55.3753 36.6146 55.6046 36.7654 55.852 36.881C55.8501 37.0926 55.829 37.3036 55.7889 37.5114C55.7573 37.6174 55.7172 37.7207 55.6691 37.8203C55.3207 37.8458 54.971 37.8458 54.6226 37.8203V37.8266ZM55.1522 36.1686C55.1289 35.7958 55.0257 35.4324 54.8495 35.1031C55.0324 35.1031 55.2278 35.0338 55.4233 34.9833C55.5715 35.2644 55.6838 35.5631 55.7574 35.8722C55.5729 35.9829 55.3761 36.0718 55.1711 36.137L55.1522 36.1686ZM54.7487 34.9896C54.6661 34.8645 54.5734 34.7464 54.4713 34.6366C54.2306 34.3952 53.9618 34.1835 53.6706 34.0061C53.8167 33.9143 53.952 33.8065 54.0741 33.6846C54.402 33.8772 54.7012 34.1149 54.963 34.3907C54.9032 34.6046 54.8317 34.8151 54.7487 35.0211V34.9896ZM53.1726 33.6594C52.8069 33.4324 52.4286 33.2118 52.063 32.9722C52.2269 32.9154 52.4034 32.8461 52.5862 32.7641C52.8889 32.9659 53.2167 33.1487 53.5319 33.3315C53.4201 33.4493 53.3 33.5589 53.1726 33.6594ZM51.6469 32.6696C51.3163 32.4281 51.0231 32.1392 50.7769 31.8122C50.993 31.8161 51.2077 31.7753 51.4073 31.6924C51.5475 31.9288 51.7241 32.1415 51.9306 32.3228C51.8171 32.4678 51.7099 32.5939 51.6154 32.7011L51.6469 32.6696Z" fill="url(#paint15_linear_7926_32597)"/>
<path fill-rule="evenodd" clip-rule="evenodd" d="M43.6332 41.9939C43.8098 41.8931 43.9863 41.7796 44.1502 41.6661C44.0086 42.2465 43.8123 42.8123 43.5639 43.3557C43.6106 42.9033 43.6338 42.4487 43.6332 41.9939ZM46.155 39.4721C46.8211 38.3069 47.2497 37.0213 47.4159 35.6895C47.6303 36.0677 47.832 36.4649 48.0464 36.881C47.5798 39.0876 46.735 41.8552 45.2472 43.8664C45.7141 42.4487 46.0208 40.9833 46.1613 39.4974L46.155 39.4721ZM42.7002 47.0375C42.3837 46.6527 42.1672 46.1958 42.0697 45.7073C43.447 45.9223 44.8572 45.734 46.1298 45.1651C45.3354 46.0666 43.6711 46.7097 42.6939 47.0564L42.7002 47.0375ZM42.0067 45.3101C41.9671 45.0324 41.9503 44.752 41.9562 44.4716C43.0217 44.4716 44.6546 44.3896 45.6507 43.6016C45.2064 44.1369 44.6494 44.5676 44.0195 44.8629C43.3896 45.1582 42.7024 45.3109 42.0067 45.3101Z" fill="url(#paint16_linear_7926_32597)"/>
<path fill-rule="evenodd" clip-rule="evenodd" d="M34.6748 21.2647C34.8206 21.2817 34.9584 21.3401 35.0721 21.4329C35.1858 21.5257 35.2705 21.6491 35.3164 21.7885C35.3622 21.928 35.3671 22.0776 35.3307 22.2197C35.2942 22.3619 35.2179 22.4907 35.1106 22.5908C35.0033 22.691 34.8697 22.7584 34.7253 22.785C34.581 22.8117 34.4321 22.7965 34.2961 22.7412C34.1602 22.686 34.0428 22.593 33.958 22.4733C33.8732 22.3535 33.8244 22.212 33.8174 22.0654C33.8171 21.9553 33.8395 21.8463 33.8833 21.7453C33.927 21.6442 33.9911 21.5533 34.0716 21.4782C34.1521 21.403 34.2472 21.3453 34.3509 21.3086C34.4547 21.2718 34.565 21.2569 34.6748 21.2647Z" fill="white"/>
<path fill-rule="evenodd" clip-rule="evenodd" d="M29.9269 45.4941C30.2382 45.5007 30.5452 45.5685 30.8303 45.6937C31.1154 45.819 31.373 45.9991 31.5885 46.2239C31.8039 46.4488 31.9729 46.7138 32.0859 47.004C32.1989 47.2942 32.2536 47.6037 32.2469 47.9151C32.2492 48.4513 32.0766 48.9736 31.7552 49.4029C30.7041 49.4686 29.6546 49.2509 28.7164 48.7725C28.4481 48.3925 28.2754 47.9534 28.2128 47.4925C28.1503 47.0316 28.1997 46.5623 28.3571 46.1246C28.7806 45.7217 29.3423 45.4961 29.9269 45.4941Z" fill="url(#paint17_linear_7926_32597)"/>
<path fill-rule="evenodd" clip-rule="evenodd" d="M25.2867 43.4375C25.7438 43.473 26.1695 43.6836 26.4749 44.0255C26.7803 44.3673 26.9419 44.814 26.9259 45.2721C26.9323 45.7638 26.7468 46.2387 26.4089 46.596C24.9148 46.2493 24.7824 44.7047 25.2867 43.4438V43.4375Z" fill="url(#paint18_linear_7926_32597)"/>
<path fill-rule="evenodd" clip-rule="evenodd" d="M18.6484 27.4932C19.1906 30.3113 19.5248 32.6187 23.3642 31.0804C20.5209 31.2948 20.1237 29.4097 18.6484 27.4932Z" fill="white"/>
<defs>
<linearGradient id="paint0_linear_7926_32597" x1="16.2023" y1="34.0009" x2="56.4438" y2="34.0009" gradientUnits="userSpaceOnUse">
<stop stop-color="#F6881F"/>
<stop offset="1" stop-color="#F15F23"/>
</linearGradient>
<linearGradient id="paint1_linear_7926_32597" x1="16.6506" y1="28.4088" x2="39.3404" y2="28.4088" gradientUnits="userSpaceOnUse">
<stop stop-color="#FFC610"/>
<stop offset="1" stop-color="#F6851F"/>
</linearGradient>
<linearGradient id="paint2_linear_7926_32597" x1="23.9756" y1="20.7161" x2="28.0987" y2="20.7161" gradientUnits="userSpaceOnUse">
<stop stop-color="#36474F"/>
<stop offset="1" stop-color="#1C313C"/>
</linearGradient>
<linearGradient id="paint3_linear_7926_32597" x1="184.668" y1="128.469" x2="204.087" y2="128.469" gradientUnits="userSpaceOnUse">
<stop stop-color="#36474F"/>
<stop offset="1" stop-color="#1C313C"/>
</linearGradient>
<linearGradient id="paint4_linear_7926_32597" x1="253.439" y1="249.045" x2="284.022" y2="249.045" gradientUnits="userSpaceOnUse">
<stop stop-color="#36474F"/>
<stop offset="1" stop-color="#1C313C"/>
</linearGradient>
<linearGradient id="paint5_linear_7926_32597" x1="16.6506" y1="31.2" x2="33.5655" y2="31.2" gradientUnits="userSpaceOnUse">
<stop stop-color="#FFE6AE"/>
<stop offset="1" stop-color="#FEC87A"/>
</linearGradient>
<linearGradient id="paint6_linear_7926_32597" x1="158.698" y1="140.634" x2="192.596" y2="140.634" gradientUnits="userSpaceOnUse">
<stop stop-color="#FFC610"/>
<stop offset="1" stop-color="#F6851F"/>
</linearGradient>
<linearGradient id="paint7_linear_7926_32597" x1="250.351" y1="261.949" x2="350.282" y2="261.949" gradientUnits="userSpaceOnUse">
<stop stop-color="#36474F"/>
<stop offset="1" stop-color="#1C313C"/>
</linearGradient>
<linearGradient id="paint8_linear_7926_32597" x1="1244.23" y1="1143.7" x2="2585.54" y2="1143.7" gradientUnits="userSpaceOnUse">
<stop stop-color="#FFC610"/>
<stop offset="1" stop-color="#F6851F"/>
</linearGradient>
<linearGradient id="paint9_linear_7926_32597" x1="41.6787" y1="39.6373" x2="48.0525" y2="39.6373" gradientUnits="userSpaceOnUse">
<stop stop-color="#263239"/>
<stop offset="1" stop-color="#1C313C"/>
</linearGradient>
<linearGradient id="paint10_linear_7926_32597" x1="631.385" y1="856.424" x2="661.2" y2="856.424" gradientUnits="userSpaceOnUse">
<stop stop-color="#36474F"/>
<stop offset="1" stop-color="#1C313C"/>
</linearGradient>
<linearGradient id="paint11_linear_7926_32597" x1="157.914" y1="376.226" x2="175.827" y2="376.226" gradientUnits="userSpaceOnUse">
<stop stop-color="#FFC610"/>
<stop offset="1" stop-color="#F6851F"/>
</linearGradient>
<linearGradient id="paint12_linear_7926_32597" x1="22.3115" y1="31.1435" x2="36.0679" y2="31.1435" gradientUnits="userSpaceOnUse">
<stop stop-color="#FCB017"/>
<stop offset="1" stop-color="#F15C23"/>
</linearGradient>
<linearGradient id="paint13_linear_7926_32597" x1="22.3115" y1="34.2578" x2="33.565" y2="34.2578" gradientUnits="userSpaceOnUse">
<stop stop-color="#FFD991"/>
<stop offset="1" stop-color="#FCB24E"/>
</linearGradient>
<linearGradient id="paint14_linear_7926_32597" x1="1150.24" y1="1214.07" x2="1732.56" y2="1214.07" gradientUnits="userSpaceOnUse">
<stop stop-color="#FCB017"/>
<stop offset="1" stop-color="#F15C23"/>
</linearGradient>
<linearGradient id="paint15_linear_7926_32597" x1="604.925" y1="481.618" x2="687.578" y2="481.618" gradientUnits="userSpaceOnUse">
<stop stop-color="#263239"/>
<stop offset="1" stop-color="#1C313C"/>
</linearGradient>
<linearGradient id="paint16_linear_7926_32597" x1="41.9689" y1="41.3635" x2="48.0527" y2="41.3635" gradientUnits="userSpaceOnUse">
<stop offset="0.01" stop-color="#212C33"/>
<stop offset="1" stop-color="#1C313C"/>
</linearGradient>
<linearGradient id="paint17_linear_7926_32597" x1="209.833" y1="340.569" x2="235.904" y2="340.569" gradientUnits="userSpaceOnUse">
<stop stop-color="#FFE6AE"/>
<stop offset="1" stop-color="#FEC87A"/>
</linearGradient>
<linearGradient id="paint18_linear_7926_32597" x1="100.651" y1="268.989" x2="106.405" y2="268.989" gradientUnits="userSpaceOnUse">
<stop stop-color="#FFE6AE"/>
<stop offset="1" stop-color="#FEC87A"/>
</linearGradient>
</defs>
</svg>
