<svg width="68" height="68" viewBox="0 0 68 68" fill="none" xmlns="http://www.w3.org/2000/svg">
<path d="M34 68C52.7777 68 68 52.7777 68 34C68 15.2223 52.7777 0 34 0C15.2223 0 0 15.2223 0 34C0 52.7777 15.2223 68 34 68Z" fill="#FAA935"/>
<path d="M4.8262 26.1961C4.84567 25.9352 4.89463 25.6773 4.97216 25.4274C5.14196 24.8201 5.50383 24.2841 6.00364 23.8996C6.35061 23.7176 6.74173 23.6367 7.13244 23.666C7.73569 23.6423 8.33843 23.7246 8.91321 23.9093C9.59979 24.0991 10.2028 24.5137 10.6259 25.0868C10.7986 25.3802 10.8736 25.721 10.8399 26.0599C10.8304 26.4079 10.7681 26.7524 10.655 27.0816C10.6085 27.3115 10.5165 27.5297 10.3845 27.7236C10.2525 27.9174 10.0831 28.0829 9.8863 28.2104C8.74362 28.1587 7.61959 27.9016 6.56804 27.4514C6.03415 27.3088 5.51584 27.1132 5.02082 26.8675C4.88458 26.78 4.80674 26.5464 4.8262 26.1961ZM8.31962 26.3129C8.47531 26.3129 8.58235 26.2058 8.64074 26.0209C8.66883 25.9401 8.67461 25.8531 8.65749 25.7692C8.64037 25.6853 8.60096 25.6075 8.54342 25.5441C8.43242 25.4178 8.28703 25.3265 8.125 25.2814C8.02765 25.2311 7.91997 25.2039 7.81039 25.2021C7.70082 25.2003 7.5923 25.2239 7.49335 25.271C7.39441 25.3182 7.3077 25.3875 7.24003 25.4737C7.17235 25.5599 7.12553 25.6606 7.10324 25.7679C7.05459 25.9139 7.10324 26.0112 7.26867 26.0696L7.5606 26.1377L7.84279 26.2156C7.99435 26.2772 8.15603 26.3102 8.31962 26.3129Z" fill="white"/>
<path d="M7.02551 22.1475C6.90751 22.0917 6.8035 22.0102 6.72107 21.9089C6.63864 21.8077 6.5799 21.6893 6.54911 21.5625C6.51833 21.4356 6.51629 21.3035 6.54316 21.1757C6.57002 21.048 6.62511 20.9278 6.70438 20.8241C6.77981 20.6401 6.91762 20.4885 7.09363 20.396C7.28666 20.3342 7.49418 20.3342 7.68722 20.396C7.77212 20.4132 7.85407 20.4427 7.93049 20.4836C8.04781 20.5339 8.15238 20.6098 8.23656 20.7058C8.32074 20.8018 8.38241 20.9153 8.41704 21.0382C8.47691 21.2989 8.43881 21.5725 8.31 21.807C8.26055 21.9208 8.18427 22.021 8.08768 22.0989C7.99109 22.1769 7.87705 22.2303 7.75533 22.2546C7.63291 22.2884 7.5048 22.2963 7.37915 22.2779C7.2535 22.2595 7.13306 22.2151 7.02551 22.1475ZM8.563 22.7022C8.44623 22.5368 8.46569 22.2838 8.64085 21.9335C8.81601 21.5831 9.03009 21.3691 9.26363 21.3593C9.79748 21.4769 10.3097 21.6772 10.7817 21.9529C11.2678 22.162 11.7282 22.4265 12.1537 22.7411C12.2802 22.8871 12.2413 23.1596 12.0467 23.5683C11.8521 23.977 11.6769 24.1229 11.5018 24.1229C10.9119 24.0034 10.344 23.7933 9.8183 23.5001C9.34927 23.3237 8.92186 23.052 8.563 22.7022Z" fill="white"/>
<path d="M7.54137 16.3284C7.52202 16.3885 7.52202 16.4532 7.54137 16.5133C7.54516 16.5586 7.54516 16.6042 7.54137 16.6495C7.5665 16.7028 7.57954 16.7609 7.57954 16.8198C7.57954 16.8787 7.5665 16.9368 7.54137 16.9901C7.52037 17.0227 7.49159 17.0496 7.45761 17.0682C7.42363 17.0869 7.38553 17.0969 7.34675 17.0971C7.26702 17.0973 7.18907 17.0736 7.12294 17.029C6.95273 16.8872 6.83602 16.6915 6.7921 16.4744C6.77243 16.3748 6.77243 16.2723 6.7921 16.1727C6.79446 16.0753 6.82487 15.9807 6.87967 15.9002C6.95078 15.7765 7.05533 15.6753 7.18133 15.6083H7.4246C7.4667 15.6067 7.50767 15.5942 7.54349 15.572C7.57931 15.5499 7.60877 15.5188 7.62896 15.4818C7.64603 15.4487 7.65493 15.412 7.65493 15.3748C7.65493 15.3375 7.64603 15.3008 7.62896 15.2677L7.54137 15.0439C7.54009 14.9623 7.56022 14.8818 7.59975 14.8104C7.62673 14.7754 7.66044 14.7462 7.69888 14.7245C7.73732 14.7028 7.77972 14.6889 7.82358 14.6839C7.86895 14.6733 7.9161 14.6731 7.96158 14.6832C8.00705 14.6933 8.04966 14.7135 8.0863 14.7422C8.17104 14.8052 8.23809 14.889 8.28093 14.9855C8.33973 15.1221 8.37903 15.2662 8.3977 15.4137C8.40414 15.5966 8.3531 15.777 8.25174 15.9294C8.18792 16.0401 8.08843 16.1259 7.96953 16.1727H7.70679C7.66863 16.1832 7.63363 16.2029 7.6048 16.23C7.57597 16.2572 7.55419 16.2909 7.54137 16.3284ZM7.989 17.8367C7.92115 17.6085 7.87872 17.3736 7.86249 17.1361C7.80937 16.894 7.8367 16.6411 7.94034 16.416C8.14103 16.213 8.40579 16.0858 8.68963 16.0559C8.96699 15.982 9.25886 15.982 9.53622 16.0559C9.61473 16.108 9.67042 16.188 9.69192 16.2797C9.71323 16.3202 9.72436 16.3653 9.72436 16.4111C9.72436 16.4569 9.71323 16.502 9.69192 16.5425C9.6529 16.5961 9.59865 16.6368 9.53622 16.6592C9.36078 16.7026 9.18153 16.7286 9.00101 16.7371C8.93248 16.7313 8.86348 16.7395 8.79823 16.7612C8.73298 16.783 8.67285 16.8178 8.62151 16.8636C8.57395 17.0388 8.57395 17.2236 8.62151 17.3988C8.67569 17.5784 8.69874 17.766 8.68963 17.9535C8.66503 17.9954 8.63123 18.0312 8.59077 18.0582C8.55032 18.0852 8.50426 18.1026 8.45608 18.1092C8.40621 18.1173 8.35518 18.1146 8.30647 18.1011C8.25776 18.0877 8.21253 18.0639 8.17389 18.0313C8.09673 17.9832 8.0331 17.9162 7.989 17.8367ZM9.61407 17.5253C9.50703 17.6907 9.38053 17.9048 9.23456 18.187C9.10501 18.5975 9.10459 19.0378 9.23338 19.4485C9.36216 19.8592 9.61393 20.2205 9.95466 20.4835C10.0928 20.6284 10.2425 20.7619 10.4023 20.8825C10.8584 21.2305 11.4259 21.4001 11.9982 21.3593C12.2372 21.337 12.4708 21.2745 12.6891 21.1744C12.7474 21.1744 12.9713 20.9895 13.38 20.6976C13.5846 20.5191 13.7704 20.3202 13.9346 20.104C14.0758 19.8948 14.175 19.6602 14.2266 19.4131C14.2931 19.1348 14.2931 18.8448 14.2266 18.5665C14.1332 18.3347 13.9743 18.1352 13.7692 17.9924C13.7144 17.9427 13.6495 17.9057 13.5789 17.8838C13.5083 17.862 13.4337 17.8558 13.3605 17.8659C13.2862 17.8732 13.2147 17.8982 13.1521 17.9389C13.0894 17.9795 13.0374 18.0346 13.0004 18.0994C12.942 18.1806 12.9021 18.2736 12.8837 18.3719C12.8813 18.6167 12.8105 18.856 12.6793 19.0628C12.5016 19.2617 12.3061 19.4441 12.0955 19.6077C12.0235 19.6751 11.931 19.7163 11.8327 19.7245C11.7379 19.7367 11.6417 19.7161 11.5603 19.6661C11.519 19.6391 11.4862 19.6011 11.4656 19.5564C11.4449 19.5116 11.4373 19.462 11.4435 19.4131C11.4369 19.3876 11.4369 19.3608 11.4435 19.3353C11.5428 19.2026 11.6535 19.0789 11.7743 18.9655C11.9038 18.8478 12.0212 18.7174 12.1247 18.5762C12.2119 18.4554 12.2741 18.3184 12.3076 18.1732C12.3411 18.028 12.3454 17.8776 12.32 17.7307C12.2946 17.5839 12.2401 17.4436 12.1598 17.3181C12.0795 17.1926 11.9749 17.0844 11.8522 16.9998C10.9472 16.3868 10.2466 16.4646 9.73084 17.2236C9.7503 17.2334 9.7503 17.3307 9.61407 17.5253ZM10.4315 18.586C10.3908 18.5626 10.3574 18.5284 10.3351 18.4871C10.3128 18.4459 10.3023 18.3993 10.305 18.3524C10.3087 18.2492 10.3389 18.1487 10.3926 18.0605C10.4527 17.9816 10.5335 17.921 10.6261 17.8853C10.6648 17.859 10.7106 17.8449 10.7575 17.8449C10.8043 17.8449 10.8501 17.859 10.8888 17.8853C10.927 17.9107 10.9578 17.9456 10.9783 17.9866C10.9988 18.0275 11.0082 18.0732 11.0056 18.1189C11.0064 18.2184 10.9794 18.3161 10.9278 18.4011C10.8712 18.4856 10.7895 18.5503 10.6942 18.586C10.6555 18.6123 10.6097 18.6264 10.5628 18.6264C10.516 18.6264 10.4702 18.6123 10.4315 18.586Z" fill="white"/>
<path d="M16.0368 17.0967C16.1925 17.2427 16.1049 17.4957 15.7546 17.8363C15.4043 18.1769 15.1513 18.3034 14.9956 18.1866C14.3028 17.6785 13.652 17.1155 13.0494 16.5031C12.561 16.0783 12.1467 15.5751 11.8233 15.0143C11.7715 14.9016 11.7596 14.7747 11.7897 14.6544C11.8198 14.5341 11.89 14.4276 11.9887 14.3526C12.0765 14.2627 12.1827 14.193 12.3001 14.1482C12.3549 14.1166 12.417 14.1 12.4802 14.1C12.5434 14.1 12.6055 14.1166 12.6602 14.1482L12.7672 14.2358C12.7672 14.2358 12.8353 14.2358 12.8937 14.2358C12.9365 14.2001 12.9708 14.1555 12.9943 14.105C13.0179 14.0546 13.03 13.9996 13.03 13.9439C13.0294 13.8071 13.0559 13.6715 13.1078 13.5449C13.1823 13.3393 13.302 13.1531 13.4581 13C13.7157 12.7352 14.0626 12.5757 14.4312 12.5524C14.6119 12.5433 14.7924 12.5734 14.9603 12.6406C15.1283 12.7077 15.2797 12.8104 15.4043 12.9416C15.7441 13.2193 16.069 13.5149 16.3774 13.8271C16.9012 14.3163 17.3621 14.8687 17.7495 15.4716C17.7949 15.6338 17.6781 15.8576 17.3992 16.1431C17.1462 16.4058 16.9321 16.4837 16.7764 16.3864C16.6124 16.3111 16.4664 16.2016 16.3482 16.0652L15.959 15.6468L15.56 15.2381C14.947 14.6251 14.5869 14.4304 14.402 14.6445L14.1588 15.0143C14.0809 15.1213 14.1004 15.2673 14.2269 15.423C14.3229 15.5464 14.4304 15.6604 14.548 15.7636L16.0368 17.0967Z" fill="white"/>
<path d="M20.1526 8.28175C20.0042 8.11067 19.8738 7.92481 19.7634 7.72709C19.7581 7.69487 19.7581 7.662 19.7634 7.62978C19.7147 7.42543 19.8802 7.21135 20.2694 7.007C20.6586 6.80265 20.9116 6.77345 21.0771 6.92915C21.2695 7.11728 21.4364 7.32995 21.5733 7.56166L21.7193 7.49355C21.7486 7.47557 21.7816 7.4643 21.8158 7.46053C21.85 7.45676 21.8846 7.46059 21.9171 7.47175C21.9496 7.48291 21.9793 7.50111 22.004 7.52506C22.0287 7.54902 22.0478 7.57813 22.0599 7.61032C22.093 7.66096 22.1106 7.72013 22.1106 7.78061C22.1106 7.84109 22.093 7.90027 22.0599 7.9509L21.9237 8.03848C22.1669 8.41799 22.4102 8.82669 22.6535 9.28404C23.064 9.93047 23.3541 10.6459 23.5098 11.3957C23.5098 11.6162 23.3638 11.8692 23.0719 12.1547C22.8487 12.3605 22.6002 12.5371 22.3324 12.6802C22.0265 12.8498 21.6992 12.9775 21.3593 13.0597C21.0997 13.1424 20.8209 13.1424 20.5613 13.0597C20.0811 12.8802 19.6808 12.5351 19.4325 12.0866C19.3101 11.8804 19.2336 11.6501 19.2084 11.4116C19.1832 11.1731 19.2099 10.932 19.2866 10.7048C19.4478 10.426 19.6793 10.1945 19.958 10.0333C20.1416 9.94483 20.3391 9.88885 20.5419 9.86791C20.6832 9.85843 20.8233 9.83563 20.9603 9.79979C20.9783 9.78977 20.9937 9.7758 21.0055 9.75895C21.0173 9.7421 21.0251 9.72279 21.0284 9.70248C21.0259 9.48308 20.9655 9.26824 20.8533 9.07969C20.7884 8.97157 20.7169 8.86757 20.6392 8.7683C20.3181 8.93373 20.065 9.06996 19.8704 9.14781C19.8151 9.15882 19.7577 9.15029 19.708 9.12367C19.6583 9.09704 19.6194 9.05399 19.598 9.00185C19.5577 8.95047 19.5358 8.88709 19.5358 8.82182C19.5358 8.75656 19.5577 8.69318 19.598 8.6418C19.7742 8.50899 19.9596 8.38868 20.1526 8.28175ZM21.6998 11.0064C21.5636 10.7534 21.3885 10.6658 21.1841 10.7437L20.8922 10.8605C20.8004 10.9012 20.7269 10.9744 20.6856 11.0659C20.6443 11.1574 20.6382 11.261 20.6684 11.3567C20.6846 11.4098 20.7041 11.4618 20.7268 11.5124C20.8338 11.6876 21.0576 11.7265 21.4079 11.6098C21.5292 11.5619 21.6294 11.4721 21.6901 11.3567C21.7224 11.3043 21.7402 11.2444 21.7419 11.1829C21.7437 11.1214 21.7291 11.0605 21.6998 11.0064Z" fill="white"/>
<path d="M23.1397 6.76286C23.4789 6.26742 23.9937 5.91953 24.5799 5.78976C24.8477 5.66326 25.1401 5.59766 25.4362 5.59766C25.7324 5.59766 26.0248 5.66326 26.2926 5.78976C26.5456 5.84815 26.8278 6.19847 27.1294 6.84071C27.3384 7.28773 27.514 7.74959 27.6549 8.22251C27.8721 8.78101 27.9843 9.37483 27.9858 9.97408C27.9858 10.2368 27.8593 10.4217 27.5187 10.5287C27.1781 10.6358 27.0516 10.5871 26.964 10.4412C26.7394 10.6344 26.4778 10.7801 26.1953 10.8693C25.6572 11.0799 25.0596 11.0799 24.5215 10.8693C24.1548 10.6108 23.8844 10.2376 23.7528 9.80865C23.6905 9.6521 23.6635 9.48377 23.6736 9.3156C23.6837 9.14743 23.7307 8.98354 23.8112 8.83555C23.903 8.65627 24.0294 8.49691 24.183 8.36665C24.3367 8.23638 24.5145 8.13779 24.7064 8.07654C25.0691 7.9881 25.4437 7.95853 25.8158 7.98896C26.0201 7.93058 26.0785 7.78461 26.0104 7.5608C25.9617 7.41143 25.8662 7.28175 25.7379 7.19103C25.6126 7.10007 25.4642 7.04612 25.3098 7.03533C25.1245 7.03434 24.9404 7.06394 24.7648 7.12291C24.5607 7.1957 24.3748 7.31189 24.2199 7.46349C24.1091 7.58639 23.9773 7.68854 23.8306 7.76515C23.7071 7.80399 23.5747 7.80399 23.4511 7.76515C23.2873 7.653 23.1616 7.49341 23.0911 7.30779C23.0565 7.2194 23.0428 7.12417 23.0513 7.0296C23.0597 6.93504 23.09 6.84372 23.1397 6.76286ZM25.0859 9.52645C25.0984 9.57508 25.1214 9.62036 25.1533 9.65905C25.1853 9.69774 25.2254 9.72889 25.2708 9.75027C25.3708 9.76595 25.4725 9.76595 25.5725 9.75027C25.7107 9.72738 25.8411 9.67054 25.952 9.58484C26.0128 9.55 26.059 9.49445 26.0822 9.42835C26.1054 9.36225 26.1041 9.29 26.0785 9.22479C26.0104 9.00098 25.7768 8.9134 25.3876 8.98152C25.3269 8.98807 25.2686 9.00919 25.2178 9.04307C25.167 9.07696 25.1251 9.12261 25.0957 9.17614C25.0378 9.28326 25.0206 9.40763 25.047 9.52645H25.0859ZM26.312 11.278C26.3779 11.2297 26.4499 11.1904 26.5261 11.1613C26.6382 11.1287 26.7573 11.1287 26.8693 11.1615C26.9814 11.1942 27.0817 11.2583 27.1586 11.3461C27.2194 11.4008 27.2633 11.4717 27.2851 11.5505C27.3252 11.695 27.3081 11.8493 27.2375 11.9816C27.1668 12.1138 27.048 12.2138 26.9056 12.2609C26.831 12.2878 26.7516 12.2991 26.6725 12.2938C26.5933 12.2886 26.5161 12.267 26.4457 12.2304C26.3753 12.1939 26.3132 12.1431 26.2634 12.0813C26.2136 12.0196 26.1772 11.9482 26.1563 11.8716C26.1115 11.7713 26.1006 11.6591 26.1252 11.552C26.1497 11.4449 26.2085 11.3488 26.2926 11.278H26.312Z" fill="white"/>
<path d="M28.1318 6.03255C28.1318 5.63358 28.1318 5.39031 28.3459 5.31246C28.421 5.26863 28.5034 5.23894 28.5892 5.22488C28.709 5.21495 28.8294 5.21495 28.9492 5.22488C29.069 5.236 29.1895 5.236 29.3093 5.22488C29.377 5.22429 29.4423 5.20021 29.4942 5.15676C29.5304 5.08696 29.5535 5.0111 29.5623 4.93295C29.4883 4.73214 29.4392 4.52297 29.4163 4.31017C29.4163 4.12528 29.6304 4.00851 30.078 3.95012C30.2331 3.93069 30.39 3.93069 30.5451 3.95012C30.7689 3.95012 30.8857 4.05716 30.9052 4.17393C30.9202 4.33902 30.9202 4.50513 30.9052 4.67021C30.9052 4.91349 30.9052 4.97188 30.9052 4.8551C30.9052 5.00107 31.1095 5.02053 31.4793 4.93295C31.6873 4.8551 31.9117 4.83165 32.1313 4.86484C32.2188 4.86484 32.287 4.99133 32.3453 5.18595C32.3949 5.31082 32.4276 5.44171 32.4427 5.57519C32.4427 5.85739 32.4427 6.04228 32.3356 6.12986C32.1198 6.25073 31.8695 6.2953 31.6253 6.25637C31.2652 6.25637 31.0706 6.25636 31.0414 6.38287C30.9526 6.70115 30.9526 7.03768 31.0414 7.35596C31.1095 7.8717 31.2166 8.1539 31.3625 8.19283C31.414 8.20192 31.4667 8.20192 31.5182 8.19283C31.5863 8.19283 31.6739 8.13444 31.7907 8.0274C31.8915 7.93391 32.016 7.86995 32.1507 7.84251C32.2185 7.8328 32.2873 7.8328 32.3551 7.84251C32.4963 7.87762 32.6225 7.95703 32.7154 8.0691C32.8082 8.18117 32.8626 8.32001 32.8708 8.46529C32.8797 8.63881 32.842 8.81154 32.7616 8.96555C32.6811 9.11955 32.5609 9.24923 32.4135 9.34108C32.052 9.60181 31.63 9.76593 31.1874 9.8179C30.9568 9.86483 30.7176 9.84278 30.4995 9.75452C30.2815 9.66625 30.0942 9.51568 29.9613 9.32162C29.8308 9.09912 29.7541 8.84919 29.7374 8.59179C29.718 8.29045 29.718 7.98816 29.7374 7.68681C29.756 7.38219 29.756 7.07673 29.7374 6.77211C29.7374 6.62614 29.6888 6.54829 29.6401 6.53856C29.5383 6.50987 29.4306 6.50987 29.3287 6.53856L29.0465 6.62614C28.955 6.67199 28.8563 6.70161 28.7546 6.71372H28.6087C28.307 6.6456 28.1805 6.43152 28.1318 6.03255Z" fill="white"/>
<path d="M36.9969 4.73919C37.1487 4.71975 37.3024 4.71975 37.4542 4.73919C37.8435 4.79758 38.0381 4.92409 38.0283 5.10897C38.0505 5.15097 38.0621 5.19773 38.0621 5.24521C38.0621 5.29269 38.0505 5.33945 38.0283 5.38144L37.9408 5.62471C37.9408 5.69283 37.9894 5.72202 38.1159 5.72202C38.6348 5.51663 39.1981 5.44956 39.7507 5.52741C39.8762 5.54624 39.9999 5.57554 40.1205 5.61498C40.1951 5.61767 40.267 5.64346 40.3262 5.68878C40.3855 5.73411 40.4292 5.79673 40.4513 5.86799C40.492 6.01443 40.492 6.16917 40.4513 6.31561C40.4332 6.43831 40.3937 6.55688 40.3346 6.66593C40.247 6.80216 40.1497 6.87027 40.0427 6.86054L38.8166 6.92866C38.4689 6.90352 38.1237 7.00362 37.8435 7.21086C37.7344 7.31228 37.6683 7.45152 37.6586 7.6001C37.6372 7.8689 37.6372 8.13897 37.6586 8.40777C37.6809 8.67328 37.6809 8.9402 37.6586 9.20571C37.6567 9.26819 37.6409 9.32947 37.6123 9.38504C37.5837 9.44061 37.543 9.48906 37.4932 9.52683C37.3569 9.74091 37.0942 9.81876 36.7049 9.75064C36.3157 9.68253 36.0821 9.53656 36.0335 9.30302C35.9848 9.06948 35.8778 8.74835 35.9265 7.94068C35.9265 7.37629 36.014 6.88 36.0822 6.4713C36.1086 5.90874 36.2796 5.36249 36.5784 4.88516C36.6076 4.80731 36.7439 4.75865 36.9969 4.73919Z" fill="white"/>
<path d="M44.6068 7.2501C44.871 7.90937 44.9154 8.63629 44.7333 9.32279C44.6 9.78097 44.4 10.2171 44.1397 10.617C43.8845 10.9147 43.5453 11.1284 43.1666 11.2301C42.7168 11.2138 42.2714 11.1352 41.8432 10.9965C41.4789 10.8685 41.1468 10.6627 40.8701 10.3932C40.7099 10.0897 40.6045 9.76026 40.5587 9.42011C40.5379 9.06427 40.5978 8.70833 40.7339 8.3789C40.8119 8.15498 40.9063 7.93707 41.0161 7.72691C41.2656 7.34501 41.5455 6.98379 41.8529 6.64678C41.9988 6.47565 42.177 6.33509 42.3774 6.23321C42.5779 6.13133 42.7965 6.07015 43.0207 6.05319C43.6821 6.2365 44.2491 6.66436 44.6068 7.2501ZM42.5049 9.19629C42.9136 9.35199 43.2153 9.1963 43.4002 8.65136C43.4266 8.56114 43.4279 8.46541 43.4039 8.37451C43.3799 8.28361 43.3315 8.201 43.2639 8.13562C43.1349 7.99627 42.9699 7.89525 42.7871 7.84369C42.6898 7.84369 42.5536 7.93126 42.3784 8.10642C42.2593 8.23302 42.1609 8.3775 42.0865 8.53459C41.96 8.83625 42.0962 9.06006 42.5049 9.19629ZM43.9938 5.22606C44.0521 5.37202 44.1008 5.44987 44.1105 5.47906C44.1882 5.58045 44.298 5.65249 44.4219 5.68341C44.5923 5.74125 44.777 5.74125 44.9474 5.68341C45.0885 5.62634 45.2199 5.54754 45.3366 5.44987C45.4223 5.39024 45.487 5.30512 45.5215 5.2066C45.5505 5.11809 45.5505 5.02264 45.5215 4.93413C45.505 4.8918 45.4787 4.85391 45.4449 4.8235C45.4112 4.79309 45.3707 4.771 45.3269 4.75897C45.2518 4.72966 45.1685 4.72966 45.0934 4.75897L44.8987 4.88547C44.8707 4.9122 44.8364 4.93153 44.7991 4.94172C44.7617 4.95191 44.7224 4.95264 44.6847 4.94386C44.6442 4.93154 44.6077 4.90891 44.5787 4.8782C44.5497 4.84749 44.5292 4.80975 44.5192 4.7687C44.5192 4.63247 44.4609 4.56435 44.4511 4.54489C44.3576 4.43226 44.232 4.35079 44.0911 4.31135C43.9981 4.29075 43.9018 4.29075 43.8089 4.31135C43.7104 4.31714 43.6142 4.34366 43.5267 4.38919C43.3265 4.48504 43.1652 4.64641 43.0693 4.84655C43.0402 4.92504 43.0402 5.01134 43.0693 5.08982C43.0785 5.12492 43.0969 5.15694 43.1225 5.18259C43.1482 5.20825 43.1802 5.22661 43.2153 5.23579C43.2685 5.26092 43.3267 5.27396 43.3856 5.27396C43.4445 5.27396 43.5026 5.26092 43.5559 5.23579L43.6824 5.16767C43.7395 5.15035 43.8004 5.15035 43.8575 5.16767C43.9084 5.17029 43.9568 5.19099 43.9938 5.22606Z" fill="white"/>
<path d="M49.7646 9.19575C49.9085 9.25145 50.0456 9.32327 50.1733 9.40983C50.4944 9.64337 50.6015 9.83799 50.5139 10.0034C50.5147 10.0517 50.5046 10.0994 50.4844 10.1432C50.4642 10.187 50.4343 10.2257 50.3971 10.2564L50.2122 10.4316C50.2122 10.4316 50.2122 10.5386 50.3193 10.597C50.8748 10.6496 51.4076 10.8439 51.8665 11.1614C51.9698 11.2314 52.0674 11.3095 52.1584 11.3949C52.2225 11.4337 52.274 11.4901 52.3068 11.5575C52.3396 11.6248 52.3522 11.7001 52.3433 11.7745C52.3172 11.9224 52.2573 12.0623 52.1681 12.1832C52.0951 12.2901 52.0027 12.3825 51.8957 12.4556C51.8446 12.4876 51.7856 12.5045 51.7254 12.5045C51.6652 12.5045 51.6061 12.4876 51.5551 12.4556L50.4263 11.9593C50.1325 11.7885 49.7892 11.7232 49.4532 11.7745C49.3144 11.8185 49.1967 11.912 49.1223 12.0372C48.9796 12.265 48.8529 12.5023 48.7429 12.7476C48.6413 12.995 48.5175 13.2328 48.3731 13.4579C48.3426 13.5134 48.3009 13.5619 48.2506 13.6005C48.2004 13.639 48.1427 13.6667 48.0812 13.6817C47.9458 13.7361 47.7976 13.7504 47.6544 13.7228C47.5111 13.6952 47.3789 13.6268 47.2735 13.526C46.9523 13.2828 46.8161 13.0492 46.8745 12.8157C46.9329 12.5821 46.9913 12.2513 47.4 11.5506C47.6822 11.0641 47.9449 10.6457 48.1882 10.3051C48.7039 9.58499 49.0932 9.18602 49.3462 9.10817C49.4182 9.09381 49.4924 9.09416 49.5643 9.10921C49.6362 9.12426 49.7044 9.1537 49.7646 9.19575Z" fill="white"/>
<path d="M53.7156 12.3291C54.3111 12.4128 54.8514 12.723 55.2239 13.1951C55.4512 13.3857 55.6335 13.624 55.758 13.8931C55.8825 14.1623 55.946 14.4556 55.944 14.7521C56.0024 15.0051 55.8078 15.4041 55.3602 15.9587C55.0605 16.3342 54.7354 16.6886 54.3871 17.0194C53.9815 17.4602 53.4962 17.8201 52.9566 18.0801C52.7425 18.226 52.4993 18.1677 52.2463 17.9049C51.9933 17.6422 51.9932 17.5157 52.0906 17.3697C51.815 17.2582 51.5687 17.0851 51.3704 16.8637C50.9459 16.4708 50.6853 15.9322 50.6406 15.3554C50.7071 14.9136 50.9236 14.5082 51.2537 14.2072C51.3684 14.0825 51.5086 13.9841 51.6648 13.9186C51.8209 13.8531 51.9894 13.8221 52.1587 13.8277C52.3597 13.8328 52.5577 13.8775 52.7414 13.9594C52.9251 14.0412 53.0908 14.1585 53.2291 14.3045C53.4731 14.5947 53.6672 14.9236 53.8032 15.2776C53.9394 15.4333 54.1049 15.4235 54.2703 15.2776C54.3834 15.1689 54.4556 15.0246 54.4746 14.8689C54.5088 14.7184 54.4917 14.5608 54.426 14.4212C54.3511 14.251 54.2455 14.096 54.1146 13.9639C53.9588 13.8158 53.7729 13.703 53.5697 13.633C53.4087 13.5801 53.2575 13.5012 53.122 13.3995C53.0394 13.3037 52.9884 13.1848 52.9761 13.0589C53.0047 12.862 53.093 12.6786 53.2291 12.5334C53.2898 12.4653 53.3651 12.4116 53.4492 12.3762C53.5334 12.3409 53.6244 12.3248 53.7156 12.3291ZM52.0614 15.2484C52.0228 15.2801 51.9922 15.3203 51.9719 15.3659C51.9517 15.4115 51.9423 15.4612 51.9446 15.5111C51.9822 15.6034 52.0348 15.6889 52.1003 15.7641C52.1861 15.8773 52.2958 15.9703 52.4214 16.0366C52.4751 16.08 52.5421 16.1037 52.6112 16.1037C52.6802 16.1037 52.7472 16.08 52.8009 16.0366C52.9663 15.8712 52.9469 15.6279 52.7133 15.3068C52.682 15.2544 52.6379 15.2108 52.5851 15.1802C52.5324 15.1496 52.4727 15.1328 52.4117 15.1316C52.3478 15.1286 52.284 15.1383 52.2239 15.16C52.1638 15.1817 52.1086 15.215 52.0614 15.2581V15.2484ZM55.8662 11.5798C56.0021 11.8283 56.1223 12.0851 56.2262 12.3485C56.3581 12.6651 56.4686 12.9902 56.5571 13.3216C56.5571 13.4384 56.4987 13.5357 56.3138 13.6136C56.1289 13.6914 56.0413 13.672 55.9829 13.6136C55.8467 13.3508 55.6813 12.9908 55.5061 12.5529C55.4034 12.3164 55.3189 12.0724 55.2531 11.8231C55.2718 11.7647 55.3048 11.712 55.3489 11.6695C55.3931 11.627 55.4471 11.5962 55.5061 11.5798C55.5606 11.5465 55.6237 11.5296 55.6876 11.5314C55.7515 11.5331 55.8135 11.5533 55.8662 11.5895V11.5798Z" fill="white"/>
<path d="M54.299 20.0469C54.1141 20.1637 53.9 20.0469 53.6373 19.609C53.3745 19.1711 53.3064 18.9181 53.4524 18.7916C54.0965 18.2203 54.7865 17.7028 55.5153 17.2444C56.0294 16.8559 56.605 16.5566 57.2183 16.3589C57.3395 16.3317 57.4664 16.3468 57.5779 16.4017C57.6894 16.4566 57.7788 16.5479 57.8313 16.6605C57.9058 16.7638 57.9526 16.8844 57.9675 17.0108C57.9818 17.0729 57.9785 17.1376 57.9579 17.1978C57.9372 17.258 57.9001 17.3112 57.8508 17.3514C57.7924 17.3514 57.7535 17.4196 57.7535 17.439C57.7535 17.4585 57.7535 17.5071 57.7535 17.5752C57.7784 17.6245 57.8141 17.6676 57.8579 17.7013C57.9017 17.7349 57.9524 17.7584 58.0065 17.7699C58.1392 17.7955 58.2651 17.8485 58.3763 17.9256C58.5608 18.0422 58.717 18.1984 58.8336 18.3829C59.0463 18.7036 59.1265 19.0942 59.0574 19.4728C59.0316 19.6568 58.9648 19.8328 58.8621 19.9877C58.7594 20.1426 58.6233 20.2726 58.4638 20.368C58.122 20.6445 57.7646 20.9012 57.3934 21.1368C56.7922 21.5486 56.1374 21.876 55.4472 22.1099C55.2721 22.1099 55.0774 21.9639 54.8634 21.6331C54.6493 21.3022 54.6396 21.1076 54.7661 20.9714C54.8926 20.8351 54.912 20.7865 55.1748 20.621L55.6516 20.3194L56.1381 20.0274C56.868 19.5506 57.1112 19.2198 56.9652 19.0543C56.9652 19.0543 56.8193 18.9084 56.6636 18.743C56.5079 18.5775 56.4203 18.6359 56.2354 18.743C56.0961 18.8133 55.9627 18.8946 55.8365 18.9862L54.299 20.0469Z" fill="white"/>
<path d="M55.7288 22.8194C55.8444 22.6935 55.9752 22.5823 56.1181 22.4885C56.2671 22.462 56.4206 22.4859 56.5546 22.5564C56.6885 22.6269 56.7951 22.74 56.8576 22.8778C56.8777 22.9675 56.8777 23.0605 56.8576 23.1502C56.7642 23.428 56.7642 23.7288 56.8576 24.0066C56.9567 24.2622 57.1337 24.4801 57.3636 24.6293C57.4697 24.7119 57.5951 24.766 57.728 24.7864C57.8608 24.8069 57.9967 24.793 58.1227 24.7461C58.2125 24.7099 58.2878 24.6448 58.3367 24.5612C58.3487 24.5405 58.355 24.517 58.355 24.4931C58.355 24.4692 58.3487 24.4457 58.3367 24.425C58.2478 24.2927 58.1468 24.1689 58.0351 24.0552C57.8776 23.8955 57.7521 23.7073 57.6653 23.5005C57.5437 23.1914 57.51 22.8546 57.568 22.5274C57.6514 22.3052 57.7814 22.1034 57.9492 21.9356C58.1171 21.7678 58.3189 21.6378 58.5411 21.5544C59.0243 21.3738 59.5564 21.3738 60.0397 21.5544C60.2948 21.6627 60.522 21.8276 60.7041 22.0367C60.8861 22.2457 61.0183 22.4934 61.0906 22.761C61.2178 23.0721 61.2998 23.3998 61.3339 23.7341C61.3956 24.0611 61.3618 24.3989 61.2366 24.7072C61.0378 25.021 60.759 25.2763 60.4289 25.4467C60.1219 25.6442 59.7959 25.8105 59.4558 25.943C58.7413 26.2609 57.9577 26.3915 57.1787 26.3225C56.8075 26.2962 56.4516 26.1639 56.1532 25.9414C55.8548 25.7189 55.6265 25.4155 55.4953 25.0672C55.3602 24.7123 55.2846 24.3375 55.2715 23.9579C55.3443 23.5511 55.5 23.1636 55.7288 22.8194ZM60.0883 23.666C60.104 23.6036 60.107 23.5387 60.0969 23.4751C60.0869 23.4116 60.0641 23.3507 60.0299 23.2962C59.8353 22.9848 59.6407 22.868 59.4461 22.9459C59.3937 22.9643 59.3445 22.9905 59.3001 23.0237C59.2177 23.0777 59.1576 23.1596 59.1308 23.2543C59.1039 23.3491 59.1122 23.4503 59.1541 23.5395C59.2 23.6336 59.252 23.7246 59.3098 23.8119C59.4169 24.0066 59.6115 24.0455 59.8742 23.9384C59.9344 23.9158 59.9867 23.8762 60.0247 23.8244C60.0628 23.7725 60.0849 23.7107 60.0883 23.6465V23.666Z" fill="white"/>
<path d="M25.7772 57.6074C25.7425 57.9406 25.664 58.2678 25.5436 58.5805C25.3782 59.1059 25.1641 59.6703 24.9014 60.2834C24.6559 61.0102 24.2799 61.6862 23.7921 62.2782C23.6676 62.3655 23.5245 62.4224 23.3741 62.4443C23.2237 62.4663 23.0702 62.4527 22.926 62.4047C22.6209 62.36 22.3232 62.2749 22.0405 62.1517C21.7205 62.0204 21.4194 61.8469 21.1452 61.636C20.9166 61.4871 20.7371 61.2737 20.6295 61.0229C20.4662 60.5322 20.4904 59.9983 20.6976 59.5244C20.7775 59.3002 20.9063 59.0966 21.0746 58.9283C21.2429 58.76 21.4465 58.6312 21.6707 58.5513C21.9988 58.4989 22.335 58.5359 22.6438 58.6583C22.826 58.7445 22.9909 58.8632 23.1304 59.0086C23.2241 59.1132 23.3285 59.2078 23.4418 59.2908C23.4606 59.303 23.4826 59.3094 23.505 59.3094C23.5274 59.3094 23.5494 59.303 23.5682 59.2908C23.7415 59.1568 23.8704 58.9737 23.938 58.7654C24.0397 58.5017 24.1115 58.2276 24.1521 57.948C24.1962 57.6691 24.2679 57.3952 24.3662 57.1306C24.3789 57.0945 24.3987 57.0614 24.4246 57.0332C24.5608 56.8678 24.8235 56.8678 25.2225 57.0332C25.6215 57.1987 25.7869 57.3836 25.7772 57.6074ZM23.0136 60.6824C23.1206 60.4099 23.0817 60.2153 22.8968 60.1082L22.6146 59.9525C22.527 59.9076 22.4258 59.8966 22.3306 59.9218C22.2354 59.9469 22.1529 60.0064 22.0989 60.0888L22.0113 60.2347C21.9335 60.4294 22.0113 60.624 22.3616 60.8283C22.4716 60.8878 22.5985 60.9084 22.7217 60.8867C22.7841 60.8819 22.8442 60.8604 22.8955 60.8244C22.9469 60.7885 22.9877 60.7394 23.0136 60.6824Z" fill="white"/>
<path d="M28.7556 58.9214C29.6508 59.1257 29.972 59.7582 29.7287 60.8676C29.6958 61.0136 29.6337 61.1515 29.5462 61.2729C29.4586 61.3943 29.3474 61.4967 29.2192 61.574C29.091 61.6512 28.9485 61.7018 28.8002 61.7225C28.652 61.7433 28.5011 61.7338 28.3566 61.6947C28.188 61.656 28.0247 61.5972 27.8701 61.5196C27.7213 61.4442 27.5646 61.3854 27.403 61.3444H27.3251C27.2766 61.3564 27.2325 61.382 27.1981 61.4182C27.1636 61.4544 27.1402 61.4997 27.1305 61.5487C27.0985 61.6368 27.0985 61.7332 27.1305 61.8212C27.177 61.9047 27.244 61.975 27.3251 62.0256C27.5566 62.1563 27.7973 62.2701 28.0452 62.3661C28.286 62.4144 28.5355 62.3941 28.7653 62.3078C28.8649 62.2883 28.9674 62.2883 29.067 62.3078C29.1409 62.3201 29.211 62.3494 29.2718 62.3932C29.3325 62.4371 29.3823 62.4945 29.4173 62.5608C29.4468 62.6283 29.462 62.7012 29.462 62.7748C29.462 62.8485 29.4468 62.9214 29.4173 62.9889C29.3597 63.2318 29.2309 63.4521 29.0475 63.6214C28.81 63.7748 28.5403 63.8714 28.2593 63.9036C28.0092 63.9573 27.7505 63.9573 27.5003 63.9036C27.2408 63.8333 26.9896 63.7355 26.751 63.6117L26.0504 63.1446C25.8814 62.9766 25.7401 62.7828 25.632 62.5705C25.3816 62.0523 25.3297 61.4604 25.486 60.9065C25.5374 60.7127 25.6057 60.5238 25.6903 60.3421C26.1477 59.369 26.7705 58.8338 27.5684 58.8241L28.3274 58.9408L28.7556 58.9214ZM27.4127 57.705C27.3929 57.7511 27.3827 57.8008 27.3827 57.851C27.3827 57.9012 27.3929 57.9508 27.4127 57.9969C27.4388 58.0405 27.4741 58.0779 27.5161 58.1064C27.5581 58.135 27.6059 58.1541 27.656 58.1624C27.8287 58.0918 27.9921 58.0003 28.1425 57.8899C28.2827 57.7745 28.4503 57.6974 28.6291 57.6661C28.7069 57.6661 28.7945 57.7926 28.8821 57.9775C28.9561 58.1424 29.0474 58.299 29.1546 58.4446C29.1967 58.4972 29.2547 58.5348 29.32 58.5516C29.3638 58.5613 29.4093 58.5611 29.4531 58.551C29.4969 58.5409 29.5378 58.5212 29.573 58.4932C29.6491 58.4346 29.7038 58.3525 29.7287 58.2597C29.6967 57.9752 29.5854 57.7055 29.4076 57.4812C29.1837 57.1406 28.9794 56.9557 28.7945 56.9168C28.5469 56.899 28.3005 56.9641 28.0939 57.1017C27.878 57.2031 27.6754 57.3305 27.4906 57.4812C27.4498 57.5498 27.4234 57.6259 27.4127 57.705ZM27.7922 60.274C27.863 60.3481 27.9546 60.399 28.055 60.4199C28.1507 60.4442 28.2511 60.4442 28.3469 60.4199C28.3915 60.4047 28.4313 60.3782 28.4626 60.3429C28.4938 60.3077 28.5154 60.2649 28.5252 60.2189C28.535 60.1728 28.5327 60.125 28.5185 60.08C28.5043 60.0351 28.4787 59.9947 28.4442 59.9626C28.3942 59.8882 28.323 59.8306 28.2398 59.7972C28.1441 59.7729 28.0437 59.7729 27.9479 59.7972C27.9012 59.8108 27.8592 59.8371 27.8265 59.8732C27.7939 59.9092 27.7719 59.9537 27.763 60.0015C27.7443 60.0457 27.7372 60.0939 27.7423 60.1415C27.7474 60.1892 27.7646 60.2348 27.7922 60.274ZM28.9308 56.6443C28.9748 56.7218 29.0236 56.7966 29.0767 56.8681C29.1643 56.9619 29.2808 57.0235 29.4076 57.0433C29.5785 57.0977 29.7621 57.0977 29.933 57.0433C30.0638 56.9676 30.1847 56.8761 30.2931 56.7708C30.3681 56.6953 30.4218 56.6013 30.4488 56.4984C30.4829 56.4141 30.4829 56.3199 30.4488 56.2356C30.4283 56.1962 30.3993 56.1619 30.364 56.1349C30.3287 56.108 30.2878 56.0892 30.2444 56.0799C30.1658 56.0517 30.0798 56.0517 30.0012 56.0799L29.826 56.2356C29.8004 56.2633 29.7683 56.284 29.7326 56.2959C29.6968 56.3078 29.6587 56.3105 29.6216 56.3038C29.5803 56.299 29.5411 56.2828 29.5084 56.2571C29.4758 56.2313 29.451 56.1969 29.4368 56.1578C29.4137 56.0825 29.381 56.0106 29.3395 55.9437C29.2353 55.844 29.1026 55.7793 28.9599 55.7588C28.8673 55.7353 28.7703 55.7353 28.6777 55.7588C28.5774 55.7803 28.4818 55.8199 28.3955 55.8756C28.2086 55.9914 28.0703 56.1712 28.0063 56.3816C27.9818 56.4575 27.9818 56.5392 28.0063 56.6151C28.0203 56.6517 28.044 56.6837 28.0749 56.7077C28.1057 56.7317 28.1426 56.7468 28.1815 56.7514C28.2396 56.7637 28.2999 56.7622 28.3573 56.747C28.4148 56.7318 28.4679 56.7033 28.5123 56.6638L28.6194 56.5762C28.6699 56.5371 28.7308 56.5134 28.7945 56.5081C28.8267 56.5178 28.8559 56.5354 28.8797 56.5592C28.9035 56.5829 28.921 56.6122 28.9308 56.6443Z" fill="white"/>
<path d="M33.1051 59.0584C33.1051 58.8151 33.3289 58.6886 33.6987 58.6692C33.8409 58.6519 33.9846 58.6519 34.1268 58.6692C34.3507 58.6692 34.4577 58.7665 34.4577 58.8346C34.5363 58.9449 34.5741 59.079 34.5647 59.2141C34.5841 59.4927 34.5841 59.7723 34.5647 60.051C34.5293 60.3317 34.513 60.6146 34.5161 60.8976C34.5161 61.1506 34.5842 61.2868 34.6718 61.2771C34.8213 61.2532 34.9681 61.2141 35.1097 61.1603C35.2947 61.0913 35.4875 61.0455 35.6838 61.0241C35.961 61.02 36.2381 61.0428 36.5109 61.0922C37.0169 61.2576 37.2894 61.8804 37.3381 62.9411C37.3949 63.3881 37.3584 63.842 37.231 64.2742C37.1824 64.4007 36.9975 64.4688 36.6861 64.4883C36.49 64.5174 36.2901 64.476 36.1217 64.3715C36.0012 64.2203 35.9421 64.0292 35.9563 63.8363C35.9563 63.7487 35.9563 63.6125 35.9563 63.4373C35.9663 63.3045 35.9663 63.1712 35.9563 63.0384C35.9563 62.6394 35.7908 62.4448 35.5086 62.4545C35.315 62.4745 35.1269 62.5306 34.954 62.6199C34.8372 62.6199 34.7885 62.7951 34.7983 63.0578C34.7983 63.1552 34.7983 63.3011 34.8469 63.486C34.8956 63.6709 34.8469 63.8168 34.8469 63.9142C34.8772 64.0421 34.8772 64.1754 34.8469 64.3034C34.8469 64.4786 34.6329 64.5759 34.2047 64.5953C33.796 64.5953 33.5624 64.5369 33.5041 64.3715C33.2997 62.6783 33.1732 61.3938 33.1343 60.4791C33.0916 60.0068 33.0818 59.5321 33.1051 59.0584Z" fill="white"/>
<path d="M37.3085 59.3001C37.2404 58.7163 37.5323 58.327 38.1843 58.2589C38.3807 58.2103 38.5882 58.2345 38.7681 58.327C38.9336 58.4417 39.0594 58.6049 39.1282 58.7941C39.163 58.8755 39.1891 58.9603 39.206 59.0471C39.2331 59.1704 39.2324 59.2981 39.2037 59.421C39.1751 59.5439 39.1194 59.6589 39.0406 59.7575C38.8642 59.9589 38.6235 60.093 38.3594 60.137C38.2377 60.1585 38.1129 60.153 37.9935 60.1211C37.8741 60.0891 37.7632 60.0315 37.6685 59.9521C37.5687 59.8724 37.4854 59.7738 37.4237 59.6619C37.3619 59.5501 37.3228 59.4271 37.3085 59.3001ZM37.7756 60.8765C37.8437 60.6722 38.0578 60.5457 38.4373 60.4776C38.8168 60.4094 39.1282 60.4776 39.2741 60.6333C39.4946 61.1372 39.6357 61.6723 39.6926 62.2194C39.8102 62.7333 39.869 63.2589 39.8677 63.7861C39.8191 63.971 39.5758 64.1072 39.1282 64.1851C38.6806 64.2629 38.4665 64.1851 38.3692 64.078C38.1122 63.5309 37.9446 62.9461 37.8729 62.3459C37.7393 61.8681 37.7061 61.3678 37.7756 60.8765Z" fill="white"/>
<path d="M42.0765 58.1533C42.9523 57.8711 43.5556 58.2506 43.8864 59.2821C43.9312 59.4246 43.947 59.5745 43.9329 59.7232C43.9188 59.8718 43.8751 60.0161 43.8043 60.1476C43.7336 60.2791 43.6373 60.3951 43.521 60.4888C43.4048 60.5825 43.2709 60.6519 43.1274 60.6931C42.9622 60.7414 42.7928 60.774 42.6214 60.7904C42.4539 60.8005 42.2877 60.8266 42.1251 60.8683H42.0473C42.0148 60.9048 41.9924 60.949 41.9821 60.9968C41.9719 61.0445 41.9742 61.0942 41.9889 61.1407C42.0021 61.1864 42.0243 61.229 42.0545 61.2658C42.0846 61.3026 42.1219 61.3329 42.1641 61.3548C42.2468 61.4117 42.3461 61.4391 42.4463 61.4327C42.7105 61.4329 42.9742 61.4101 43.2345 61.3646C43.468 61.2841 43.6738 61.139 43.8281 60.9461C43.904 60.879 43.9937 60.8292 44.0908 60.8002C44.1578 60.7689 44.2309 60.7526 44.3049 60.7526C44.3789 60.7526 44.4519 60.7689 44.519 60.8002C44.5822 60.8378 44.6365 60.8886 44.6785 60.949C44.7205 61.0094 44.749 61.0781 44.7623 61.1505C44.8315 61.3921 44.8315 61.6484 44.7623 61.89C44.6347 62.1418 44.4517 62.3614 44.227 62.5323C44.0317 62.6961 43.8072 62.8216 43.5653 62.902C43.3038 62.9686 43.0367 63.011 42.7674 63.0286L41.9305 62.9799C41.6964 62.9215 41.4731 62.8262 41.2688 62.6977C40.7947 62.3718 40.4502 61.8896 40.2957 61.3354C40.2382 61.1421 40.2023 60.943 40.1887 60.7418C40.0839 60.324 40.1089 59.8843 40.2601 59.481C40.4113 59.0777 40.6817 58.7301 41.0353 58.4842C41.3272 58.3577 41.5608 58.2701 41.7456 58.202L42.0765 58.1533ZM40.3055 57.7835C40.3167 57.8325 40.3382 57.8787 40.3683 57.9189C40.3985 57.9591 40.4367 57.9926 40.4806 58.0171C40.5251 58.0367 40.5731 58.0468 40.6217 58.0468C40.6703 58.0468 40.7183 58.0367 40.7628 58.0171C40.881 57.8719 40.9792 57.7116 41.0548 57.5403C41.191 57.2678 41.2883 57.1218 41.3564 57.1024C41.4245 57.0829 41.5607 57.1024 41.7359 57.2289C41.8773 57.3422 42.0347 57.434 42.203 57.5014C42.2665 57.5203 42.3341 57.5203 42.3976 57.5014C42.4412 57.4858 42.481 57.4614 42.5145 57.4295C42.548 57.3977 42.5745 57.3592 42.5922 57.3165C42.626 57.2288 42.626 57.1317 42.5922 57.044C42.4215 56.8123 42.1887 56.6335 41.9208 56.5283C41.8216 56.4346 41.7002 56.3676 41.5681 56.3335C41.4359 56.2995 41.2973 56.2994 41.1651 56.3334C41.033 56.3675 40.9116 56.4344 40.8123 56.528C40.713 56.6216 40.6391 56.7389 40.5974 56.8688C40.4656 57.0662 40.3578 57.2785 40.2763 57.5014C40.2551 57.5961 40.2654 57.6951 40.3055 57.7835ZM40.6655 55.3411C40.7044 55.4579 40.8212 55.487 41.0158 55.4287C41.044 55.3336 41.0938 55.2464 41.1613 55.1738C41.2289 55.1012 41.3123 55.0452 41.4051 55.0102C41.4614 54.9918 41.5215 54.9884 41.5795 55.0004C41.6375 55.0123 41.6914 55.0392 41.7359 55.0783C41.7866 55.1139 41.8243 55.1652 41.843 55.2243C41.843 55.3119 41.8429 55.4092 41.7262 55.5454L41.551 55.7498C41.522 55.8283 41.522 55.9146 41.551 55.9931C41.5725 56.052 41.6019 56.1076 41.6386 56.1585C41.6686 56.1975 41.7102 56.226 41.7573 56.24C41.8045 56.254 41.8549 56.2527 41.9013 56.2363C41.9407 56.221 41.9747 56.1943 41.9989 56.1596C42.0232 56.125 42.0366 56.084 42.0376 56.0417L42.1446 55.8276C42.169 55.7799 42.202 55.737 42.2419 55.7011C42.349 55.5958 42.4204 55.4598 42.4463 55.3119C42.4795 55.1678 42.4795 55.0181 42.4463 54.874C42.4213 54.7869 42.3818 54.7047 42.3295 54.6307C42.2826 54.5532 42.2171 54.4885 42.139 54.4426C42.0608 54.3968 41.9724 54.3711 41.8819 54.368C41.7083 54.3344 41.53 54.3344 41.3564 54.368C41.1752 54.423 41.011 54.5235 40.8796 54.6599C40.7532 54.8019 40.6839 54.9856 40.685 55.1757C40.669 55.1998 40.6589 55.2273 40.6555 55.2561C40.6522 55.2848 40.6556 55.3139 40.6655 55.3411ZM41.9305 59.7979C42.0289 59.8273 42.1338 59.8273 42.2322 59.7979C42.3276 59.7675 42.4122 59.71 42.4755 59.6324C42.5039 59.5957 42.5232 59.5527 42.5316 59.507C42.5401 59.4613 42.5375 59.4142 42.5241 59.3697C42.5113 59.3242 42.4865 59.2831 42.4522 59.2505C42.418 59.218 42.3756 59.1953 42.3295 59.1848C42.2344 59.1555 42.1327 59.1555 42.0376 59.1848C41.9417 59.2193 41.8574 59.28 41.7943 59.36C41.7618 59.3944 41.7392 59.437 41.7289 59.4833C41.7186 59.5295 41.721 59.5777 41.7359 59.6227C41.751 59.6659 41.7768 59.7046 41.8108 59.7352C41.8448 59.7658 41.886 59.7874 41.9305 59.7979Z" fill="white"/>
<path d="M45.8529 57.1125C45.9696 57.398 46.0864 57.7223 46.2032 58.0856C46.3043 58.3881 46.4245 58.6839 46.5632 58.9711C46.7708 59.3539 47.0043 59.4804 47.2638 59.3506C47.5363 59.2241 47.5558 58.942 47.3222 58.5235C47.1598 58.2365 46.9743 57.9631 46.7676 57.7061L46.2129 56.9666C46.1599 56.8947 46.1314 56.8077 46.1314 56.7184C46.1314 56.6291 46.1599 56.5422 46.2129 56.4703C46.3283 56.33 46.4705 56.2142 46.6313 56.1297C46.8163 56.0258 47.0227 55.9658 47.2346 55.9545C47.3347 55.9482 47.4351 55.9631 47.529 55.9984C47.6229 56.0336 47.7083 56.0883 47.7796 56.1589C48.0461 56.4559 48.278 56.7824 48.4705 57.132C48.7206 57.616 48.9195 58.1248 49.0641 58.65C49.2781 59.409 49.2976 59.9248 49.1127 60.1875C49.1127 60.4405 48.7624 60.7422 48.1396 61.0828C47.5169 61.4234 47.0206 61.5499 46.8162 61.3942C46.3268 61.2909 45.8894 61.0188 45.5804 60.6254C45.2435 60.2516 44.9557 59.8363 44.7241 59.3896C44.503 58.9771 44.333 58.5393 44.2181 58.0856C44.1884 57.9842 44.1817 57.8773 44.1985 57.773C44.2154 57.6686 44.2552 57.5693 44.3153 57.4823C44.445 57.2929 44.6231 57.1417 44.8311 57.0444C44.9863 56.9604 45.1538 56.9013 45.3274 56.8693C45.5706 56.8693 45.7264 56.8693 45.7945 57.0055L45.8529 57.1125Z" fill="white"/>
<path d="M62.7844 35.8596L61.4707 35.4801C61.4436 35.4664 61.4136 35.4593 61.3831 35.4593C61.3527 35.4593 61.3227 35.4664 61.2956 35.4801L60.2446 36.3559C60.2155 36.379 60.1805 36.3937 60.1436 36.3985C60.1067 36.4032 60.0692 36.3978 60.0352 36.3827C60.0011 36.3677 59.9718 36.3437 59.9504 36.3132C59.929 36.2828 59.9163 36.247 59.9138 36.2099L59.8651 34.8378C59.8649 34.8066 59.8567 34.7759 59.8414 34.7487C59.8261 34.7215 59.8041 34.6986 59.7775 34.6822L58.6196 33.9523C58.5866 33.9364 58.5589 33.9115 58.5395 33.8805C58.5201 33.8496 58.5098 33.8137 58.5098 33.7772C58.5098 33.7406 58.5201 33.7048 58.5395 33.6738C58.5589 33.6428 58.5866 33.618 58.6196 33.602L59.904 33.1252C59.9333 33.1151 59.96 33.0984 59.9819 33.0765C60.0038 33.0546 60.0204 33.028 60.0306 32.9987L60.3711 31.6753C60.3795 31.6399 60.3976 31.6075 60.4234 31.5819C60.4492 31.5563 60.4817 31.5384 60.5172 31.5303C60.5526 31.5222 60.5897 31.5242 60.624 31.536C60.6584 31.5479 60.6888 31.5692 60.7117 31.5974L61.5583 32.6776C61.5772 32.7027 61.6026 32.7224 61.6317 32.7343C61.6608 32.7463 61.6926 32.7502 61.7237 32.7457L63.0861 32.6581C63.1238 32.6542 63.162 32.6613 63.1957 32.6788C63.2294 32.6962 63.2573 32.7232 63.2759 32.7563C63.2946 32.7894 63.3031 32.8272 63.3005 32.8651C63.2979 32.903 63.2842 32.9393 63.2612 32.9695L62.5022 34.0983C62.486 34.1264 62.4774 34.1583 62.4774 34.1907C62.4774 34.2232 62.486 34.2551 62.5022 34.2832L63.0082 35.5579C63.0284 35.5925 63.0379 35.6322 63.0357 35.6721C63.0335 35.712 63.0196 35.7504 62.9958 35.7825C62.9719 35.8147 62.9392 35.8391 62.9016 35.8528C62.8641 35.8665 62.8233 35.8688 62.7844 35.8596Z" fill="white"/>
<path d="M35.362 32.5493C35.362 32.5493 40.3248 26.3702 47.8469 25.1635C55.3689 23.9569 57.6849 32.5202 54.1428 39.0788C50.6007 45.6375 41.4925 42.5333 41.0644 42.2511C41.0644 42.2511 45.6963 45.6083 42.4559 49.9386C39.2155 54.2689 34.6711 47.9924 34.0094 45.7056C33.3477 43.4188 35.362 32.5493 35.362 32.5493Z" fill="#C64C27"/>
<path d="M37.2112 36.7347C36.1505 33.8155 42.174 27.4222 46.0664 29.709C49.9588 31.9958 48.1196 40.8607 44.2564 41.0261C42.7924 41.0711 41.3469 40.6894 40.096 39.9275C38.8451 39.1655 37.8428 38.0563 37.2112 36.7347Z" fill="#ED7524"/>
<path d="M36.0236 43.868C36.6269 42.1165 40.9864 42.2138 41.8621 44.9676C42.7379 47.7215 39.1083 49.2979 38.1838 48.5584C37.2594 47.8188 35.3911 45.8142 36.0236 43.868Z" fill="#ED7524"/>
<path d="M48.509 29.893C48.801 28.6669 51.2143 28.5501 52.0998 29.0561C53.6567 29.9611 51.2921 31.158 50.3774 31.1482C49.6962 31.1385 48.2755 30.8758 48.509 29.893Z" fill="#F69343"/>
<path d="M49.1513 34.7097C49.3751 33.5809 51.623 33.5517 52.4599 34.048C53.939 34.9335 51.7787 35.9942 50.9224 35.9261C50.2899 35.8969 48.9664 35.605 49.1513 34.7097Z" fill="#F69343"/>
<path d="M48.2656 37.8239C49.0539 36.9773 50.9806 38.1255 51.438 38.9916C52.2359 40.5193 49.8615 40.2663 49.1512 39.7798C48.6744 39.4295 47.6429 38.4953 48.2656 37.8239Z" fill="#F69343"/>
<path d="M35.0505 33.1144C35.0505 33.1144 35.5078 25.2031 30.7202 19.277C25.9326 13.3508 18.4884 18.1579 16.7271 25.3977C14.9658 32.6376 23.8404 36.4424 24.3172 36.5105C24.3172 36.5105 18.6343 35.8974 18.1478 41.2884C17.6612 46.6794 25.2319 45.1127 27.2462 43.7893C29.2606 42.4659 35.0505 33.1144 35.0505 33.1144Z" fill="#C64C27"/>
<path d="M30.8079 35.0214C33.5521 33.5618 33.3477 24.7845 28.9299 23.8697C24.512 22.955 19.9482 30.7885 22.6923 33.4937C23.7526 34.5057 25.0835 35.1886 26.5238 35.4597C27.9642 35.7309 29.4523 35.5786 30.8079 35.0214Z" fill="#ED7524"/>
<path d="M26.8875 41.0843C27.6173 39.3813 24.299 36.5399 21.8468 38.0385C19.3946 39.537 21.0002 43.0986 22.1874 43.1667C23.3746 43.2348 26.0798 42.9818 26.8875 41.0843Z" fill="#ED7524"/>
<path d="M32.1318 36.2286C32.4296 35.7858 32.8303 35.4219 33.2995 35.168L35.7615 37.0071C35.3581 37.4103 35.0287 37.8813 34.7884 38.3986C34.1701 38.3742 33.5765 38.1493 33.0973 37.7578C32.6181 37.3664 32.2792 36.8296 32.1318 36.2286Z" fill="#EFC11D"/>
<path d="M30.7783 38.7683C31.1118 37.8716 31.5529 37.0188 32.092 36.2285C32.2379 36.8249 32.5724 37.3582 33.0458 37.7492C33.5192 38.1402 34.1062 38.3679 34.7194 38.3985C34.407 39.0798 34.2413 39.8191 34.2328 40.5685C33.537 40.7272 32.8075 40.6333 32.1746 40.3034C31.5418 39.9736 31.0468 39.4295 30.7783 38.7683Z" fill="#FFD772"/>
<path d="M29.3779 42.8254C29.6017 42.0566 29.8645 41.3074 30.0883 40.6165C30.2732 40.1104 30.497 39.4585 30.7792 38.7676C31.0477 39.4288 31.5426 39.9729 32.1755 40.3027C32.8084 40.6325 33.5379 40.7265 34.2337 40.5678C34.2337 41.2879 34.2337 42.0567 34.2337 42.8935C34.2337 43.2341 34.2337 43.5941 34.2337 43.9542C33.4161 44.3436 32.4905 44.444 31.6084 44.2389C30.7263 44.0338 29.9399 43.5355 29.3779 42.8254Z" fill="#EFC11D"/>
<path d="M34.3117 43.954C34.3117 45.5012 34.3117 47.1749 33.0077 48.148C31.227 49.5493 29.4559 48.4692 29.1154 46.4451C28.9071 45.2324 29.0109 43.9867 29.417 42.8252C29.9811 43.5443 30.7745 44.0485 31.665 44.2539C32.5556 44.4593 33.4897 44.3534 34.3117 43.954Z" fill="#FFD772"/>
<path d="M32.5207 29.5528C34.175 26.9254 37.6879 27.772 39.7411 29.5528C40.3141 29.9093 40.79 30.4021 41.1261 30.9873C41.4623 31.5725 41.6483 32.2318 41.6676 32.9064C41.6869 33.581 41.5388 34.2498 41.2366 34.8532C40.9344 35.4567 40.4874 35.9759 39.9357 36.3645C37.7657 37.6879 33.5717 37.6684 32.5596 34.7394C32.1397 33.9407 31.9171 33.0531 31.9103 32.1508C31.9035 31.2485 32.1128 30.3577 32.5207 29.5528Z" fill="#FFD772"/>
<path d="M37.2595 34.5558C36.1404 34.4293 33.9996 34.2055 33.0654 33.2324C33.2017 33.8065 34.0385 36.0544 34.8462 36.2977C35.4884 36.4923 37.0648 35.2662 37.2595 34.5558Z" fill="#5C2F22"/>
<path d="M35.7321 28.0151C35.801 27.1808 35.6535 26.3429 35.3039 25.5823C35.0931 25.1777 34.7728 24.8405 34.3795 24.6092C34.2554 24.5251 34.1135 24.4708 33.965 24.4506C33.8164 24.4303 33.6652 24.4446 33.5231 24.4925C33.309 24.5643 33.1244 24.7045 32.9977 24.8914C32.9101 25.5726 33.1436 25.7186 33.708 25.339C33.708 25.5823 33.309 25.5823 33.3285 25.339C33.3772 24.5606 34.3016 24.9304 34.107 25.5629C33.8443 26.536 32.3359 25.8743 32.55 25.0179C32.6302 24.7885 32.7683 24.5836 32.9509 24.4232C33.1335 24.2628 33.3544 24.1523 33.5923 24.1023C33.8301 24.0524 34.0769 24.0648 34.3086 24.1383C34.5402 24.2117 34.749 24.3438 34.9147 24.5217C35.372 24.9729 35.7182 25.5242 35.9259 26.1322C36.1336 26.7401 36.1972 27.3881 36.1116 28.0248C36.1116 28.2681 35.7223 28.2681 35.7321 28.0248V28.0151Z" fill="#EFC11D"/>
<path d="M39.1085 29.1841C39.5612 28.5494 39.9094 27.8463 40.14 27.1016C40.285 26.6966 40.3252 26.2614 40.2567 25.8366C40.2093 25.6153 40.0861 25.4174 39.9085 25.2771C39.7309 25.1368 39.5099 25.0628 39.2836 25.0679C38.6706 25.0679 38.6609 25.3501 39.2836 25.8171C39.3615 26.0507 38.9917 26.148 38.9236 25.9144C38.7192 25.2625 39.8967 25.2819 39.7313 26.0701C39.4782 27.1308 37.7072 26.2842 38.3397 25.1652C38.9722 24.0461 40.4221 24.844 40.6752 25.7296C41.0157 26.907 40.14 28.4542 39.488 29.3787C39.3517 29.583 39.0209 29.3787 39.1571 29.1841H39.1085Z" fill="#EFC11D"/>
<path d="M39.3027 33.7574C38.6366 33.5522 38.0157 33.2219 37.4732 32.7843C36.9867 32.3951 38.1641 30.1667 39.507 30.8381C40.8499 31.5096 40.0228 33.5239 39.3027 33.7574Z" fill="white"/>
<path d="M35.1194 31.655C34.4525 31.6522 33.7922 31.5234 33.1732 31.2755C32.6185 31.0419 33.1245 28.6481 34.555 28.8914C35.9854 29.1346 35.7324 31.256 35.1194 31.655Z" fill="white"/>
<path d="M38.1843 32.0733C38.7877 31.9468 39.4202 32.2095 39.4007 32.8907C39.4007 32.9397 39.4202 32.9867 39.4548 33.0214C39.4895 33.0561 39.5366 33.0755 39.5856 33.0755C39.6346 33.0755 39.6816 33.0561 39.7163 33.0214C39.751 32.9867 39.7705 32.9397 39.7705 32.8907C39.7705 31.9176 38.9239 31.5381 38.087 31.7132C37.8535 31.7132 37.9508 32.1219 38.1843 32.0733Z" fill="#5C2F22"/>
<path d="M33.6598 30.3409C33.762 30.259 33.8852 30.2074 34.0153 30.192C34.1454 30.1765 34.2772 30.1979 34.3958 30.2537C34.5144 30.3094 34.6149 30.3973 34.6861 30.5073C34.7572 30.6173 34.7961 30.7451 34.7983 30.8761C34.7983 31.1096 35.1972 31.0123 35.1583 30.7788C35.1379 30.5846 35.0648 30.3998 34.9469 30.2442C34.829 30.0886 34.6708 29.9683 34.4894 29.8961C34.308 29.824 34.1104 29.8028 33.9179 29.8349C33.7253 29.867 33.5452 29.9511 33.397 30.0781C33.2121 30.2241 33.4749 30.4868 33.6598 30.3409Z" fill="#5C2F22"/>
<path d="M26.9939 22.3814C27.5972 21.272 25.8845 19.5691 24.8822 19.355C23.1112 18.9852 24.0746 21.4472 24.7655 22.0602C25.3201 22.5079 26.5073 23.2669 26.9939 22.3814Z" fill="#F69343"/>
<path d="M23.2962 25.5346C23.88 24.5616 22.2355 23.0143 21.2721 22.8294C19.5789 22.4889 20.5034 24.6978 21.1651 25.2427C21.6516 25.6514 22.8291 26.3229 23.2962 25.5346Z" fill="#F69343"/>
<path d="M21.865 28.4341C21.865 27.2761 19.6366 26.8382 18.7219 27.1788C17.1065 27.7821 19.043 29.1834 19.8993 29.3001C20.5221 29.3877 21.8844 29.3488 21.865 28.4341Z" fill="#F69343"/>
<path d="M11.9502 45.415V50.9812" stroke="white" stroke-miterlimit="10" stroke-linecap="round"/>
<path d="M9.53613 46.8066L14.3627 49.5897" stroke="white" stroke-miterlimit="10" stroke-linecap="round"/>
<path d="M9.53613 49.5897L14.3627 46.8066" stroke="white" stroke-miterlimit="10" stroke-linecap="round"/>
<path d="M12.7674 33.416C12.4108 33.3877 12.0528 33.4464 11.7239 33.5871C11.3951 33.7278 11.1053 33.9462 10.8796 34.2236C10.8346 34.2758 10.7795 34.3182 10.7176 34.3483C10.6557 34.3785 10.5883 34.3956 10.5195 34.3988C10.4506 34.3865 10.3853 34.3592 10.3281 34.3189C10.2709 34.2785 10.2233 34.2261 10.1887 34.1652C9.94844 33.7567 9.58372 33.4359 9.14793 33.2497C8.71213 33.0635 8.22816 33.0218 7.76692 33.1305C7.30567 33.2393 6.89138 33.4929 6.58471 33.8542C6.27805 34.2155 6.09513 34.6655 6.06275 35.1383C6.04263 35.4171 6.07229 35.6971 6.15032 35.9655C6.61741 37.9117 9.18639 40.4028 10.0427 40.5585C10.8796 40.5585 13.8281 38.515 14.5968 36.6661C14.7278 36.4193 14.8042 36.1471 14.8206 35.8682C14.8446 35.5787 14.8112 35.2873 14.7224 35.0107C14.6336 34.7341 14.4912 34.4777 14.3031 34.2563C14.1151 34.0348 13.8853 33.8526 13.6268 33.7201C13.3682 33.5876 13.0861 33.5074 12.7966 33.4841L12.7674 33.416Z" fill="#FCD527"/>
<path d="M54.7858 54.0372H54.6982C54.6539 54.0226 54.6148 53.9955 54.5855 53.9593C54.5562 53.9231 54.5378 53.8792 54.5327 53.8329L54.2506 51.6337L52.3044 50.6119C52.2619 50.5899 52.2265 50.5562 52.2024 50.5149C52.1783 50.4735 52.1664 50.4262 52.1681 50.3784C52.168 50.3309 52.1817 50.2844 52.2076 50.2446C52.2336 50.2049 52.2706 50.1735 52.3141 50.1546L54.3187 49.1815L54.6787 46.992C54.6877 46.9457 54.7086 46.9025 54.7393 46.8667C54.77 46.8309 54.8095 46.8036 54.8539 46.7876C54.8996 46.7729 54.9486 46.7714 54.9952 46.7835C55.0417 46.7956 55.0838 46.8206 55.1166 46.8558L56.6444 48.4711L58.8338 48.1402C58.8818 48.133 58.9308 48.1392 58.9754 48.1581C59.0201 48.177 59.0587 48.2078 59.0869 48.2473C59.1129 48.288 59.1267 48.3352 59.1267 48.3835C59.1267 48.4318 59.1129 48.4791 59.0869 48.5198L58.0262 50.4659L58.9993 52.4121C59.0253 52.4528 59.0391 52.5001 59.0391 52.5484C59.0391 52.5967 59.0253 52.6439 58.9993 52.6846C58.9699 52.7223 58.9309 52.7513 58.8863 52.7684C58.8417 52.7856 58.7933 52.7902 58.7463 52.7819L56.5665 52.3732L54.9901 53.9302C54.9664 53.9624 54.9357 53.9888 54.9003 54.0073C54.8649 54.0259 54.8257 54.0361 54.7858 54.0372ZM52.9758 50.3784L54.6106 51.2152C54.647 51.2347 54.6783 51.2625 54.702 51.2963C54.7257 51.3301 54.741 51.369 54.7468 51.4099L54.9804 53.2295L56.2746 51.9353C56.3047 51.9053 56.3418 51.8833 56.3826 51.8714C56.4235 51.8594 56.4666 51.858 56.5081 51.8672L58.3084 52.2078L57.4812 50.573C57.4624 50.5352 57.4526 50.4936 57.4526 50.4514C57.4526 50.4091 57.4624 50.3675 57.4812 50.3297L58.3668 48.7241L56.5568 49.0063C56.516 49.0118 56.4745 49.0076 56.4356 48.994C56.3967 48.9805 56.3616 48.9581 56.333 48.9285L55.0777 47.5953L54.776 49.4053C54.7703 49.4449 54.7549 49.4825 54.7311 49.5148C54.7074 49.5471 54.676 49.5729 54.6398 49.5902L52.9758 50.3784Z" fill="#F5CB15"/>
</svg>
