<svg width="32" height="32" viewBox="0 0 32 32" fill="none" xmlns="http://www.w3.org/2000/svg">
<path d="M16.063 14.4199L15.7822 15.4307H12.9746L11.7168 20.1025C11.6943 20.1924 11.6532 20.3346 11.5933 20.5293C11.5334 20.724 11.4884 20.8924 11.4585 21.0347C11.4285 21.1694 11.4136 21.2967 11.4136 21.4165C11.4136 21.7609 11.5371 21.9818 11.7842 22.0791C12.0312 22.1689 12.3607 22.2139 12.7725 22.2139C14.1576 22.2139 15.3143 21.8545 16.2427 21.1357C17.1785 20.4095 17.8936 19.526 18.3877 18.4854C18.8818 17.4372 19.2262 16.389 19.4209 15.3408C19.623 14.2926 19.7241 13.3717 19.7241 12.5781C19.7241 11.9417 19.6567 11.3241 19.522 10.7251C19.3872 10.1261 19.0428 9.57585 18.4888 9.07422C17.9422 8.57259 17.1112 8.32178 15.9956 8.32178C15.6512 8.32178 15.3667 8.37419 15.1421 8.479C14.925 8.58382 14.764 8.8234 14.6592 9.19775L13.2554 14.4199H16.063ZM7.22461 15.4307L7.50537 14.4199H9.85254C10.1221 13.4017 10.3579 12.5295 10.5601 11.8032C10.7622 11.0695 10.897 10.5604 10.9644 10.2759C11.0392 9.99137 11.0954 9.76302 11.1328 9.59082C11.1702 9.41113 11.189 9.28011 11.189 9.19775C11.189 8.9432 11.1478 8.75977 11.0654 8.64746C10.9831 8.53516 10.8296 8.44906 10.605 8.38916C10.3879 8.32926 10.021 8.26188 9.50439 8.18701V7.61426H16.1753C17.6053 7.61426 18.8407 7.86133 19.8813 8.35547C20.922 8.84212 21.7194 9.56836 22.2734 10.5342C22.8275 11.4925 23.1045 12.6493 23.1045 14.0044C23.1045 15.0151 22.9061 16.0371 22.5093 17.0703C22.12 18.1035 21.506 19.0656 20.6675 19.9565C19.8364 20.8475 18.7658 21.57 17.4556 22.124C16.1453 22.6781 14.6143 22.9701 12.8623 23H6.29248V22.4272C6.77913 22.3524 7.16097 22.2176 7.43799 22.0229C7.72249 21.8283 7.95085 21.409 8.12305 20.7651C9.06641 17.3062 9.54932 15.528 9.57178 15.4307H7.22461Z" fill="#E53935"/>
</svg>
