<svg width="32" height="32" viewBox="0 0 32 32" fill="none" xmlns="http://www.w3.org/2000/svg">
<path d="M4 18C4 21.1826 5.26428 24.2348 7.51472 26.4853C9.76515 28.7357 12.8174 30 16 30C16 23.3333 10.6267 18 4 18ZM16 8C16.8841 8 17.7319 8.35119 18.357 8.97631C18.9821 9.60143 19.3333 10.4493 19.3333 11.3333C19.3333 12.2174 18.9821 13.0652 18.357 13.6904C17.7319 14.3155 16.8841 14.6667 16 14.6667C15.1159 14.6667 14.2681 14.3155 13.643 13.6904C13.0179 13.0652 12.6667 12.2174 12.6667 11.3333C12.6667 10.4493 13.0179 9.60143 13.643 8.97631C14.2681 8.35119 15.1159 8 16 8ZM7.46667 14.3333C7.46667 15.2174 7.81786 16.0652 8.44298 16.6904C9.0681 17.3155 9.91595 17.6667 10.8 17.6667C11.5067 17.6667 12.16 17.44 12.6667 17.08C12.6667 17.16 12.6667 17.24 12.6667 17.3333C12.6667 18.2174 13.0179 19.0652 13.643 19.6904C14.2681 20.3155 15.1159 20.6667 16 20.6667C16.8841 20.6667 17.7319 20.3155 18.357 19.6904C18.9821 19.0652 19.3333 18.2174 19.3333 17.3333C19.3333 17.24 19.3333 17.16 19.3333 17.08C19.84 17.44 20.4933 17.6667 21.2 17.6667C23.04 17.6667 24.5333 16.1733 24.5333 14.3333C24.5333 13 23.7467 11.8667 22.6267 11.3333C23.7467 10.8 24.5333 9.65333 24.5333 8.33333C24.5333 6.49333 23.04 5 21.2 5C20.4933 5 19.84 5.21333 19.3333 5.58667C19.3333 5.50667 19.3333 5.41333 19.3333 5.33333C19.3333 4.44928 18.9821 3.60143 18.357 2.97631C17.7319 2.35119 16.8841 2 16 2C15.1159 2 14.2681 2.35119 13.643 2.97631C13.0179 3.60143 12.6667 4.44928 12.6667 5.33333C12.6667 5.41333 12.6667 5.50667 12.6667 5.58667C12.16 5.21333 11.5067 5 10.8 5C9.91595 5 9.0681 5.35119 8.44298 5.97631C7.81786 6.60143 7.46667 7.44928 7.46667 8.33333C7.46667 9.65333 8.25333 10.8 9.37333 11.3333C8.25333 11.8667 7.46667 13 7.46667 14.3333ZM16 30C19.1826 30 22.2348 28.7357 24.4853 26.4853C26.7357 24.2348 28 21.1826 28 18C21.3333 18 16 23.3333 16 30Z" fill="#3D8AD8"/>
</svg>
