<svg width="32" height="32" viewBox="0 0 32 32" fill="none" xmlns="http://www.w3.org/2000/svg">
<path d="M18.1333 19.04C18.0533 18.8133 18 18.5867 18 18.3333C18 17.2267 18.8933 16.3333 20 16.3333C20.2533 16.3333 20.48 16.3867 20.7067 16.4667L23.8533 13.32C24.2533 12.92 24.7333 12.6533 25.2533 12.4933C24.9467 12.3333 24.6667 12.3333 24.6667 12.3333H22V11C22 9.66667 20.6667 9.66667 20.6667 9.66667H18V8.33333C18 7 16.6667 7 16.6667 7H15.3333V4.33333C15.3333 3 14 3 14 3C7.37333 3 2 8.37333 2 15C2 21.1733 6.66667 26.2533 12.6667 26.92V24.5067L12.8533 24.3333C12.8 24.3333 12.7333 24.3333 12.6667 24.3333C11.56 24.3333 10.6667 23.44 10.6667 22.3333C10.6667 21.2267 11.56 20.3333 12.6667 20.3333C13.7733 20.3333 14.6667 21.2267 14.6667 22.3333C14.6667 22.4 14.6667 22.4667 14.6667 22.52L18.1333 19.04ZM6.66667 16.3333C5.56 16.3333 4.66667 15.44 4.66667 14.3333C4.66667 13.2267 5.56 12.3333 6.66667 12.3333C7.77333 12.3333 8.66667 13.2267 8.66667 14.3333C8.66667 15.44 7.77333 16.3333 6.66667 16.3333ZM10.6667 11C9.56 11 8.66667 10.1067 8.66667 9C8.66667 7.89333 9.56 7 10.6667 7C11.7733 7 12.6667 7.89333 12.6667 9C12.6667 10.1067 11.7733 11 10.6667 11ZM13.3333 17.6667C12.2267 17.6667 11.3333 16.7733 11.3333 15.6667C11.3333 14.56 12.2267 13.6667 13.3333 13.6667C14.44 13.6667 15.3333 14.56 15.3333 15.6667C15.3333 16.7733 14.44 17.6667 13.3333 17.6667ZM28.4667 17.92L27.16 19.2267L24.44 16.5067L25.7467 15.2C26 14.9333 26.44 14.9333 26.7067 15.2L28.4667 16.96C28.7333 17.2267 28.7333 17.6667 28.4667 17.92ZM23.5067 17.44L26.2267 20.16L18.0533 28.3333H15.3333V25.6133L23.5067 17.44Z" fill="#3D8AD8"/>
</svg>
