<svg width="32" height="32" viewBox="0 0 32 32" fill="none" xmlns="http://www.w3.org/2000/svg">
<path d="M9.04492 23.4155L9.87598 18.2607L10.5386 18.3057C10.606 20.0127 11.014 21.1619 11.7627 21.7534C12.5114 22.3374 13.2938 22.6294 14.1099 22.6294C14.8735 22.6294 15.4688 22.4422 15.8955 22.0679C16.3298 21.686 16.618 21.2743 16.7603 20.8325C16.91 20.3833 16.9849 20.0164 16.9849 19.7319C16.9849 19.0656 16.7603 18.4816 16.311 17.98C15.8693 17.4784 15.1655 16.8307 14.1997 16.0371C13.2414 15.2435 12.5264 14.5397 12.0547 13.9258C11.583 13.3118 11.3472 12.5968 11.3472 11.7808C11.3472 11.1893 11.4482 10.6203 11.6504 10.0737C11.86 9.52718 12.167 9.04053 12.5713 8.61377C12.9756 8.18701 13.4697 7.85384 14.0537 7.61426C14.6377 7.36719 15.3078 7.24365 16.064 7.24365C16.4233 7.24365 16.7266 7.2736 16.9736 7.3335C17.2207 7.39339 17.6437 7.50944 18.2427 7.68164C18.8416 7.85384 19.2272 7.93994 19.3994 7.93994C19.8861 7.93994 20.223 7.73779 20.4102 7.3335H21.0952L20.1743 11.9604L19.5566 11.8706C19.4518 10.8224 19.201 9.92399 18.8042 9.17529C18.4149 8.4266 17.6475 8.05225 16.502 8.05225C15.5137 8.05225 14.8698 8.34424 14.5703 8.92822C14.2783 9.50472 14.1323 10.0326 14.1323 10.5117C14.1323 11.0508 14.2596 11.485 14.5142 11.8145C14.7762 12.1439 15.2629 12.5856 15.9741 13.1396C16.6929 13.6862 17.2731 14.1729 17.7148 14.5996C19.0775 15.9473 19.7588 17.2612 19.7588 18.5415C19.7588 19.5597 19.5566 20.432 19.1523 21.1582C18.748 21.8844 18.1379 22.4422 17.3218 22.8315C16.5132 23.2209 15.5249 23.4155 14.3569 23.4155C13.8553 23.4155 13.3949 23.3631 12.9756 23.2583C12.5638 23.1535 12.1146 23.0187 11.6279 22.854C11.1413 22.6893 10.8156 22.6069 10.6509 22.6069C10.3888 22.6069 10.2017 22.6668 10.0894 22.7866C9.98454 22.8989 9.86849 23.1086 9.74121 23.4155H9.04492Z" fill="#F82B26"/>
</svg>
