<svg width="32" height="32" viewBox="0 0 32 32" fill="none" xmlns="http://www.w3.org/2000/svg">
<path d="M25.2604 6.71704C22.8338 4.26119 19.5008 2.91633 16.051 3.00404C9.18046 3.20869 3.801 8.90975 4.00565 15.7803C4.03489 17.2128 4.32725 18.6162 4.8535 19.9318C5.29204 21.0428 5.87677 22.066 6.60767 23.0016L5.58441 25.4282C5.1751 26.3638 5.61364 27.4455 6.5492 27.8548C6.8708 28.001 7.25087 28.0302 7.60171 27.9718L12.338 27.1532C14.0337 27.7379 15.8171 27.9425 17.6005 27.7671C23.7109 27.1532 28.4764 22.1538 28.798 16.0142C28.9734 12.535 27.687 9.17288 25.2604 6.71704ZM15.4955 20.3703H12.2503C11.7532 20.3703 11.3147 19.961 11.3147 19.4348C11.3147 18.9378 11.724 18.4992 12.2503 18.4992H15.4955C15.9925 18.4992 16.431 18.9085 16.431 19.4348C16.431 19.961 16.0217 20.3703 15.4955 20.3703ZM20.5534 16.5696H12.2503C11.7532 16.5696 11.3147 16.1603 11.3147 15.6341C11.3147 15.1078 11.724 14.6985 12.2503 14.6985H20.5534C21.0504 14.6985 21.4889 15.1078 21.4889 15.6341C21.4889 16.1603 21.0504 16.5696 20.5534 16.5696ZM20.5534 12.7397H12.2503C11.7532 12.7397 11.3147 12.3304 11.3147 11.8041C11.3147 11.3071 11.724 10.8686 12.2503 10.8686H20.5534C21.0504 10.8686 21.4889 11.2779 21.4889 11.8041C21.4889 12.3012 21.0504 12.7397 20.5534 12.7397Z" fill="#3D8AD8"/>
</svg>
