<svg width="68" height="68" viewBox="0 0 68 68" fill="none" xmlns="http://www.w3.org/2000/svg">
<path d="M34 68C52.7777 68 68 52.7777 68 34C68 15.2223 52.7777 0 34 0C15.2223 0 0 15.2223 0 34C0 52.7777 15.2223 68 34 68Z" fill="#D1335D"/>
<path d="M10.3439 26.5852C10.3941 27.157 10.3447 27.7332 10.1979 28.2881C10.1325 28.6181 10.0448 28.9432 9.93518 29.2612C9.79742 29.6397 9.5857 29.9871 9.31238 30.283C9.08663 30.5709 8.78431 30.7893 8.44008 30.9132C8.09584 31.0371 7.72365 31.0616 7.36619 30.9836C6.95078 30.8883 6.57815 30.6592 6.30552 30.3316C5.93599 29.8803 5.72714 29.3188 5.71191 28.7357C5.7125 28.2069 5.7812 27.6803 5.91629 27.1691C6.03302 26.6028 6.23652 26.0579 6.5196 25.5537L6.96722 25.9138C6.73514 26.2219 6.55742 26.5675 6.44174 26.9355C6.33913 27.249 6.30269 27.5803 6.33471 27.9086C6.3522 28.0263 6.40705 28.1352 6.49115 28.2193C6.57525 28.3034 6.68416 28.3582 6.80181 28.3757L8.748 28.8136C8.84825 28.8449 8.95457 28.8515 9.05791 28.8328C9.16126 28.8142 9.25857 28.7709 9.34158 28.7065C9.56496 28.4251 9.70938 28.0892 9.76 27.7334C9.83264 27.2757 9.83264 26.8094 9.76 26.3517L10.3439 26.5852Z" fill="white"/>
<path d="M10.9959 21.3687C11.2432 21.482 11.4572 21.6569 11.6174 21.8768C11.7776 22.0966 11.8785 22.3539 11.9106 22.624C11.9941 23.2186 11.8922 23.8245 11.6188 24.3592C11.3454 24.8938 10.9138 25.331 10.3828 25.6114C10.1637 25.7146 9.92442 25.7681 9.68219 25.7681C9.43995 25.7681 9.20071 25.7146 8.98156 25.6114C8.74192 25.4992 8.53485 25.3277 8.37991 25.1131C8.22497 24.8986 8.12727 24.6481 8.09604 24.3853C8.02526 23.8849 8.08176 23.3747 8.26035 22.9018C8.43893 22.429 8.73383 22.0088 9.11778 21.6801C9.43939 21.4034 9.84262 21.2394 10.2661 21.213C10.5179 21.2097 10.7673 21.2629 10.9959 21.3687ZM11.21 23.4706L9.26377 22.5754C9.07888 22.4878 8.94262 22.5754 8.84531 22.7505L8.6799 23.1008C8.59232 23.3052 8.6799 23.4512 8.82586 23.529L10.7721 24.434C10.9667 24.5216 11.1126 24.434 11.21 24.2394L11.3559 23.9377C11.3826 23.8988 11.4 23.8545 11.407 23.8079C11.414 23.7613 11.4104 23.7137 11.3963 23.6687C11.3823 23.6238 11.3582 23.5826 11.3259 23.5483C11.2936 23.5139 11.254 23.4874 11.21 23.4706Z" fill="white"/>
<path d="M11.502 17.4962C12.1346 16.7177 12.66 16.5231 13.059 16.7664L15.2095 18.2942L14.2364 19.6468L12.1929 18.1969C12.1355 18.1394 12.0622 18.1004 11.9825 18.0848C11.9027 18.0692 11.8202 18.0777 11.7453 18.1093C11.634 18.1728 11.5404 18.2631 11.4728 18.372C11.3908 18.4854 11.3253 18.6099 11.2782 18.7418L13.6721 20.4447L12.699 21.7973L9.87695 19.7927L10.85 18.4596H10.9377C11.0407 18.1821 11.1815 17.9201 11.3561 17.6811C11.4002 17.616 11.4489 17.5542 11.502 17.4962Z" fill="white"/>
<path d="M19.3939 14.3636L17.6131 15.5994L15.1025 11.9601L17.798 10.0917C18.8587 9.36192 19.6469 9.38138 20.1724 10.1501C20.2104 10.1983 20.2431 10.2505 20.2697 10.3058C20.3525 10.4262 20.4095 10.5623 20.4372 10.7057C20.4649 10.8491 20.4627 10.9967 20.4308 11.1392C20.3988 11.2817 20.3377 11.4161 20.2514 11.5339C20.1651 11.6517 20.0553 11.7504 19.9291 11.8239L20.7757 11.24C20.8265 11.2016 20.8847 11.174 20.9466 11.159C21.0086 11.1439 21.0729 11.1417 21.1357 11.1524C21.1982 11.1579 21.2586 11.1774 21.3125 11.2094C21.3664 11.2414 21.4124 11.2851 21.4471 11.3373L22.1964 12.4272L20.4254 13.663L19.6956 12.6121C19.6748 12.5809 19.6451 12.5568 19.6103 12.5429C19.5756 12.529 19.5374 12.5259 19.5009 12.5342C19.4253 12.5313 19.3505 12.5517 19.2868 12.5926L18.5376 13.1181L19.3939 14.3636ZM18.3137 12.7386L18.5668 12.5634C18.6203 12.539 18.6677 12.5029 18.7052 12.4576C18.7428 12.4123 18.7696 12.3591 18.7837 12.302C18.7977 12.2449 18.7986 12.1853 18.7863 12.1277C18.774 12.0702 18.7489 12.0162 18.7127 11.9698L18.0121 10.9967C17.9869 10.9493 17.9509 10.9085 17.907 10.8777C17.8631 10.8468 17.8125 10.8268 17.7594 10.8192C17.7063 10.8116 17.6521 10.8167 17.6014 10.834C17.5506 10.8513 17.5046 10.8804 17.4672 10.9189L17.1752 11.1232L18.3137 12.7386Z" fill="white"/>
<path d="M23.2564 8.16352C23.6334 8.00174 24.0497 7.95435 24.4534 8.02727C24.5655 8.05363 24.6698 8.10617 24.7578 8.18059C24.8457 8.25501 24.9148 8.34919 24.9594 8.45543L25.9325 10.8493L23.2759 11.9683C23.1332 12.0308 22.9792 12.063 22.8234 12.063C22.6677 12.063 22.5136 12.0308 22.371 11.9683C22.2152 11.9159 22.0731 11.8293 21.9552 11.7148C21.8374 11.6003 21.7467 11.4608 21.6898 11.3066C21.6398 11.1458 21.6236 10.9763 21.642 10.8089C21.6604 10.6415 21.7131 10.4797 21.7968 10.3335C21.929 10.0291 22.1678 9.78345 22.4682 9.64261L23.4413 9.23393L23.383 9.10742C23.2954 8.88361 23.0521 8.85442 22.6726 9.01985C22.4304 9.12912 22.2018 9.26627 21.9914 9.42853C21.8242 9.53651 21.6789 9.6752 21.5633 9.83724L21.2324 9.39934C21.734 8.97879 22.2906 8.62852 22.8867 8.35815L23.2564 8.16352ZM21.5243 8.38734L22.0304 6.84983L22.3904 6.70387L23.8403 7.41424L23.3149 7.63804L22.4585 7.35583L22.0693 8.16352L21.5243 8.38734ZM23.9279 4.99121L23.5095 6.47034L22.8672 6.7428V5.41938L23.9279 4.99121ZM24.3074 11.1509L23.6165 9.50639L23.3051 9.64261C23.0716 9.73992 22.9937 9.89564 23.091 10.1194L23.4997 11.0925C23.597 11.3261 23.7819 11.3845 24.0447 11.2774L24.3074 11.1509Z" fill="white"/>
<path d="M29.2415 9.55636V10.0137C28.9853 10.1172 28.7219 10.2017 28.4533 10.2667L28.1516 10.3251C27.754 10.4109 27.3426 10.4109 26.945 10.3251C26.8352 10.3003 26.734 10.2466 26.6519 10.1696C26.5698 10.0927 26.5098 9.99516 26.4779 9.88721L25.9232 7.62965L25.281 7.78532L25.2031 7.44476L25.8357 7.28906L25.6118 6.31597L27.2272 5.91699L27.4607 6.89009L28.6187 6.60788L28.6966 6.94847L27.5386 7.23068L28.0738 9.40067C28.0899 9.47716 28.1239 9.54876 28.1729 9.60964C28.2219 9.67052 28.2847 9.71896 28.356 9.751C28.5 9.80647 28.6595 9.80647 28.8036 9.751C28.9599 9.7125 29.1082 9.6466 29.2415 9.55636Z" fill="white"/>
<path d="M38.1154 9.57558C37.5598 9.69888 36.9875 9.72848 36.4221 9.66316C36.076 9.64245 35.7315 9.6002 35.3907 9.53665C34.9985 9.4542 34.6275 9.29187 34.3008 9.05982C33.9843 8.87822 33.7253 8.61133 33.5532 8.28958C33.3812 7.96782 33.303 7.60416 33.3277 7.24013C33.3623 6.81319 33.5367 6.40959 33.824 6.09188C34.2147 5.66382 34.74 5.38226 35.3128 5.29394C36.415 5.14587 37.5366 5.26606 38.5824 5.64427L38.2905 6.13081C37.9505 5.95329 37.5867 5.82547 37.2104 5.75129C36.89 5.67896 36.5576 5.67896 36.2373 5.75129C36.1233 5.7813 36.0223 5.84815 35.9502 5.94141C35.878 6.03467 35.8387 6.14912 35.8383 6.26703L35.6729 8.28135C35.6588 8.38558 35.669 8.49166 35.7028 8.59126C35.7366 8.69087 35.7929 8.7813 35.8675 8.85547C36.1644 9.02519 36.4987 9.11879 36.8406 9.12794C37.3064 9.14499 37.7721 9.09251 38.2224 8.97224L38.1154 9.57558Z" fill="white"/>
<path d="M43.3798 9.49805C43.3052 9.75921 43.1635 9.99631 42.9689 10.1858C42.7743 10.3753 42.5335 10.5106 42.2705 10.5782C41.7355 10.7482 41.1609 10.7482 40.6259 10.5782C39.9999 10.4154 39.4559 10.0273 39.0982 9.48831C38.963 9.28611 38.8737 9.05673 38.8367 8.81631C38.7997 8.57589 38.8159 8.33028 38.8841 8.09679C38.9636 7.84559 39.1051 7.61851 39.2956 7.43652C39.4861 7.25452 39.7194 7.12348 39.974 7.05557C40.4598 6.91711 40.9725 6.90244 41.4654 7.01292C41.9583 7.1234 42.4157 7.35554 42.796 7.6881C43.1182 7.97264 43.3372 8.35587 43.4187 8.77797C43.4675 9.01738 43.4541 9.26528 43.3798 9.49805ZM41.3266 9.99434L41.9494 7.92164C42.0078 7.72702 41.9494 7.60052 41.7158 7.53241L41.3461 7.42535C41.132 7.35723 40.9957 7.42536 40.9373 7.61998L40.3145 9.69268C40.2562 9.90676 40.3146 10.043 40.5676 10.1111L40.8887 10.2084C41.1222 10.2765 41.2682 10.2084 41.3266 9.99434ZM40.5189 6.47173L41.8812 5.60566L42.2607 5.72243L42.9225 7.19182L42.3775 7.02638L41.891 6.26736L41.0833 6.63714L40.5189 6.47173ZM44.4697 5.40132L43.1949 6.2771L42.5332 6.08247L43.3993 5.10938L44.4697 5.40132Z" fill="white"/>
<path d="M50.0076 15.2772C49.5699 15.0668 49.1529 14.816 48.762 14.5279C48.486 14.3237 48.2228 14.1027 47.9738 13.8662C47.6894 13.5881 47.4614 13.2577 47.3024 12.8931C47.1378 12.5679 47.0679 12.203 47.1006 11.84C47.1333 11.477 47.2673 11.1305 47.4873 10.8399C47.7401 10.4964 48.1049 10.252 48.5187 10.149C49.0778 9.99716 49.6721 10.0418 50.2022 10.2755C50.6891 10.4914 51.1442 10.773 51.5548 11.1123C52.0188 11.4585 52.4287 11.8717 52.7712 12.3384L52.2554 12.5914C52.1911 12.4715 52.1162 12.3575 52.0316 12.2509C51.8985 12.0395 51.7345 11.8492 51.5451 11.6865C51.3106 11.4676 51.0318 11.3016 50.7277 11.1999C50.615 11.166 50.4944 11.1695 50.3839 11.2099C50.2734 11.2502 50.1789 11.3253 50.1146 11.4237L48.8885 13.0293C48.8204 13.1086 48.7718 13.2026 48.7465 13.304C48.7211 13.4054 48.7198 13.5112 48.7425 13.6132C48.9067 13.9276 49.1477 14.1954 49.4432 14.3917L49.5113 14.4403L50.825 12.7179L52.5474 14.0316L51.224 15.7637C50.9709 15.6372 50.5622 15.4815 50.0076 15.2772Z" fill="white"/>
<path d="M55.4278 15.9974C55.7001 16.3008 55.8703 16.682 55.9143 17.0873C55.9236 17.2036 55.9055 17.3205 55.8616 17.4287C55.8176 17.5368 55.7491 17.6332 55.6613 17.7101L53.7151 19.3936L51.8176 17.2235C51.7193 17.1017 51.6463 16.9615 51.6029 16.8111C51.5595 16.6607 51.5464 16.5032 51.5646 16.3478C51.5701 16.1826 51.6113 16.0206 51.6852 15.8728C51.7591 15.7251 51.8639 15.595 51.9927 15.4914C52.1334 15.3951 52.2922 15.3282 52.4594 15.2947C52.6266 15.2613 52.7989 15.262 52.9658 15.2968C53.2937 15.3312 53.5979 15.4833 53.8222 15.725L54.5033 16.5229L54.6104 16.4256C54.7952 16.2699 54.7466 16.0364 54.4741 15.725C54.3026 15.5257 54.1064 15.3492 53.8903 15.1995C53.7324 15.0763 53.5547 14.9808 53.3648 14.9173L53.6762 14.4697C54.2358 14.8146 54.7409 15.2409 55.1748 15.7347C55.2915 15.8028 55.3499 15.9001 55.4278 15.9974ZM52.8977 17.9436L54.2503 16.7856L54.0362 16.5229C54.0101 16.4788 53.9741 16.4414 53.931 16.4135C53.888 16.3857 53.839 16.3683 53.7881 16.3626C53.7371 16.3569 53.6855 16.3632 53.6374 16.3809C53.5893 16.3986 53.5459 16.4272 53.5108 16.4645L52.7128 17.1457C52.5182 17.3111 52.5182 17.5057 52.7128 17.7198L52.8977 17.9436ZM55.6224 14.3821C55.6045 14.5087 55.6136 14.6376 55.6491 14.7604C55.6847 14.8832 55.7459 14.9971 55.8286 15.0946C55.9113 15.192 56.0138 15.2708 56.1292 15.3258C56.2446 15.3808 56.3704 15.4107 56.4982 15.4136L56.8777 15.8515C56.6155 15.9672 56.3229 15.9948 56.0437 15.93C55.7646 15.8652 55.514 15.7115 55.3297 15.4921C55.1454 15.2726 55.0372 14.9993 55.0216 14.7132C55.0059 14.427 55.0836 14.1435 55.2429 13.9053L55.6224 14.3821ZM57.9481 15.0535H56.4009L55.9435 14.5183L57.2183 14.1485L57.9481 15.0535Z" fill="white"/>
<path d="M58.3367 20.2502C58.7843 21.1519 58.7843 21.7261 58.3367 21.9726L56.0597 23.3057L55.2228 21.8753L57.3831 20.6103C57.568 20.5032 57.6555 20.3767 57.6458 20.2405C57.6378 20.1111 57.594 19.9864 57.5193 19.8804C57.4524 19.7578 57.3671 19.6463 57.2663 19.5496L54.7265 21.0287L53.8896 19.5982L56.8771 17.8467L57.7042 19.2577L57.6458 19.3258C57.8593 19.5327 58.0427 19.7686 58.1907 20.0264C58.2589 20.1432 58.3075 20.1432 58.3367 20.2502Z" fill="white"/>
<path d="M60.8379 26.0796L57.2374 27.3835C57.1385 27.416 57.0325 27.4205 56.9312 27.3964C56.8298 27.3724 56.7371 27.3208 56.6633 27.2473C56.3573 26.9751 56.1091 26.6442 55.9335 26.2742C55.8153 26.0386 55.7145 25.7947 55.6318 25.5444C55.4673 25.1352 55.3751 24.7006 55.3594 24.2599L55.7389 24.0263C55.7412 24.383 55.797 24.7372 55.9043 25.0773C55.9697 25.3428 56.1118 25.583 56.313 25.7682C56.3822 25.804 56.4589 25.8227 56.5368 25.8227C56.6147 25.8227 56.6915 25.804 56.7606 25.7682L56.9942 25.6806L56.7217 24.9411C56.5465 24.5173 56.5465 24.0414 56.7217 23.6177C56.8425 23.3793 57.0125 23.1693 57.2205 23.0015C57.4286 22.8338 57.6698 22.7121 57.9283 22.6446C58.1632 22.5553 58.4175 22.5298 58.6654 22.5708C58.9132 22.6119 59.1458 22.7179 59.3393 22.8781C59.6353 23.1105 59.861 23.4204 59.9913 23.7734L60.8379 26.0796ZM57.4807 25.5444L59.9037 24.6686L59.8064 24.3961C59.7091 24.1237 59.5339 24.0361 59.2907 24.1237L57.5683 24.7465C57.5196 24.7603 57.4747 24.7851 57.4371 24.8189C57.3995 24.8528 57.3702 24.8949 57.3514 24.9419C57.3326 24.9889 57.3248 25.0395 57.3287 25.09C57.3325 25.1405 57.348 25.1894 57.3737 25.233L57.4807 25.5444Z" fill="white"/>
<path d="M11.7357 53.7348C11.2698 53.4056 10.8621 53.0011 10.5291 52.5379C10.3133 52.2687 10.1151 51.9859 9.9355 51.6913C9.73427 51.341 9.60521 50.9538 9.55598 50.5528C9.47911 50.1944 9.505 49.8216 9.63067 49.4773C9.75634 49.133 9.9767 48.8312 10.2664 48.6066C10.599 48.338 11.0164 48.1966 11.4438 48.2076C12.0249 48.2062 12.5887 48.4056 13.0397 48.772C13.889 49.4954 14.5558 50.4089 14.9858 51.4383L14.4215 51.5453C14.3343 51.1687 14.1828 50.8099 13.9738 50.4847C13.8027 50.2144 13.5774 49.9824 13.3121 49.8035C13.2139 49.7368 13.096 49.7053 12.9776 49.7141C12.8593 49.7229 12.7474 49.7716 12.6602 49.8522L11.0546 51.0783C10.9692 51.1402 10.8988 51.2204 10.8483 51.313C10.7978 51.4055 10.7685 51.5082 10.7626 51.6135C10.8391 51.9556 10.9997 52.2733 11.2297 52.5379C11.5289 52.8962 11.8798 53.2077 12.2709 53.4623L11.7357 53.7348Z" fill="white"/>
<path d="M16.6405 53.861C16.9485 54.1309 17.1687 54.4867 17.273 54.8828C17.2944 54.9954 17.2907 55.1114 17.2621 55.2224C17.2335 55.3334 17.1807 55.4367 17.1076 55.525L15.3852 57.4712L13.2249 55.525C13.1108 55.4197 13.0198 55.2917 12.9578 55.1493C12.8958 55.0069 12.8642 54.8532 12.8648 54.6979C12.8432 54.534 12.8591 54.3674 12.9114 54.2106C12.9637 54.0538 13.0509 53.911 13.1665 53.7929C13.295 53.6699 13.4483 53.576 13.6162 53.5172C13.784 53.4585 13.9625 53.4363 14.1396 53.4523C14.473 53.4471 14.7973 53.561 15.0543 53.7734L15.8328 54.4643L15.9301 54.3573C16.0858 54.1821 16.0079 53.9486 15.6966 53.6761C15.4949 53.508 15.2764 53.3613 15.0446 53.2382C14.8718 53.1389 14.6847 53.0667 14.4899 53.0242L14.7332 52.5376C15.3291 52.8124 15.8855 53.1658 16.3874 53.5885L16.6405 53.861ZM14.4218 56.1478L15.609 54.8049L15.356 54.5811C15.3251 54.5408 15.2853 54.5081 15.2398 54.4856C15.1942 54.463 15.1441 54.4513 15.0932 54.4513C15.0424 54.4513 14.9923 54.463 14.9467 54.4856C14.9011 54.5081 14.8614 54.5408 14.8305 54.5811L14.1299 55.3596C13.9645 55.5542 13.9839 55.7391 14.2077 55.9337L14.4218 56.1478ZM15.7063 52.4305L17.3022 52.2262L17.6038 52.4792V54.0946L17.1659 53.715L17.0589 52.8198H16.1636L15.7063 52.4305ZM18.684 52.3138L18.2947 53.5691L17.779 53.1117L17.8471 51.5742L18.684 52.3138Z" fill="white"/>
<path d="M20.4156 56.6542C21.2233 57.2381 21.5055 57.7441 21.2428 58.1626L19.8512 60.4104L18.4402 59.5346L19.7636 57.4035C19.8131 57.3413 19.8447 57.2667 19.8549 57.1878C19.8652 57.109 19.8538 57.0288 19.822 56.9559C19.75 56.8473 19.6533 56.7573 19.5398 56.6932C19.4207 56.6224 19.2932 56.5669 19.1603 56.5278L17.6131 59.0675L16.1924 58.1918L18.0218 55.2725L19.4133 56.1288V56.2164C19.6989 56.3001 19.9709 56.4247 20.221 56.5861L20.4156 56.6542Z" fill="white"/>
<path d="M26.6331 62.9594L24.5215 62.4632L25.4946 58.1523L28.4139 58.8335C29.8054 59.1644 30.3601 59.8066 30.1849 60.877C29.9319 62.0934 29.0269 62.5313 27.4797 62.1712L26.7985 62.0252L26.6331 62.9594ZM26.964 61.5193L27.2656 61.5874C27.5576 61.6555 27.7327 61.5874 27.8008 61.2954L28.19 59.612C28.2484 59.3687 28.19 59.213 27.8787 59.1547L27.5283 59.0768L26.964 61.5193Z" fill="white"/>
<path d="M33.5521 60.4193C34.5252 60.5166 35.041 60.8183 35.0215 61.3048L34.9436 63.9419H33.2797L33.3575 61.4411C33.3736 61.3604 33.3656 61.2767 33.3345 61.2006C33.3033 61.1244 33.2504 61.0592 33.1823 61.0129C33.0674 60.957 32.9403 60.9302 32.8126 60.935C32.677 60.9159 32.5394 60.9159 32.4039 60.935L32.3066 63.8543H30.6426L30.7788 59.4268H32.4428V60.4777C32.7323 60.4067 33.0305 60.3772 33.3283 60.3901L33.5521 60.4193Z" fill="white"/>
<path d="M37.8824 60.0894C38.2867 60.0213 38.7022 60.0826 39.0696 60.2646C39.1725 60.3176 39.2608 60.395 39.327 60.49C39.3931 60.5849 39.4351 60.6946 39.4491 60.8095L39.8189 63.3688L36.9678 63.7775C36.8123 63.7968 36.6544 63.7843 36.5039 63.7408C36.3534 63.6973 36.2132 63.6237 36.0919 63.5245C35.9538 63.4344 35.8382 63.3139 35.7539 63.1722C35.6695 63.0305 35.6187 62.8714 35.6054 62.7071C35.5913 62.5285 35.6162 62.3489 35.6784 62.1809C35.7405 62.0129 35.8385 61.8604 35.9655 61.734C36.1753 61.4795 36.4682 61.3072 36.7926 61.2474L37.8338 61.1015V60.9555C37.8338 60.722 37.61 60.6344 37.1624 60.6927C36.9054 60.7362 36.6542 60.808 36.4131 60.9069C36.2242 60.9771 36.047 61.0755 35.8876 61.1988L35.6833 60.6927C36.2755 60.4134 36.9047 60.2201 37.5516 60.1186L37.8824 60.0894ZM38.4177 58.3281L37.6295 59.6613L36.9386 59.7586L37.3083 58.4838L38.4177 58.3281ZM38.1355 63.1936L37.8824 61.4323H37.5516C37.2986 61.4323 37.1818 61.6074 37.2207 61.841L37.3667 62.8822C37.3667 63.1352 37.5613 63.2423 37.8435 63.2033L38.1355 63.1936Z" fill="white"/>
<path d="M43.7117 61.8496V62.307C43.462 62.4207 43.2052 62.5182 42.9429 62.599L42.6413 62.6768C42.2475 62.7675 41.8382 62.7675 41.4444 62.6768C41.3319 62.6613 41.226 62.6149 41.1384 62.5427C41.0508 62.4705 40.9849 62.3755 40.9481 62.2681L40.2767 60.0397L39.6442 60.2343L39.5371 59.8937L40.1696 59.6991L39.8874 58.7844L41.4833 58.2979L41.7655 59.271L42.904 58.9206L43.0111 59.2612L41.8628 59.6115L42.5148 61.7426C42.5335 61.8197 42.5708 61.891 42.6234 61.9503C42.6759 62.0097 42.7422 62.0553 42.8164 62.0832C42.9616 62.1321 43.1189 62.1321 43.2641 62.0832C43.425 62.0302 43.5762 61.9513 43.7117 61.8496Z" fill="white"/>
<path d="M53.6072 56.7323L51.8459 57.9876L50.1041 55.5549L48.7418 56.528L50.4934 58.9607L48.7321 60.2257L46.1533 56.6252L47.9147 55.37L48.4498 56.1193L49.8122 55.1462L49.2672 54.3969L51.0285 53.1318L53.6072 56.7323Z" fill="white"/>
<path d="M55.6611 54.6601C54.941 55.3607 54.396 55.5553 54.0263 55.2245L52.0801 53.4729L53.1894 52.2273L55.0578 53.8913C55.1066 53.955 55.1743 54.0015 55.2513 54.0242C55.3282 54.0469 55.4103 54.0447 55.4859 54.0178C55.6057 53.9734 55.7104 53.8958 55.7876 53.794C55.8808 53.6883 55.9594 53.5705 56.0211 53.4437L53.8414 51.4975L54.941 50.252L57.5294 52.5679L56.4298 53.794L56.352 53.7454C56.2184 54.0141 56.0481 54.263 55.846 54.4849L55.6611 54.6601Z" fill="white"/>
<path d="M60.0979 51.1752L59.7281 51.7785L59.0469 50.3286L55.2227 49.9783L56.1958 48.4311L58.2879 48.7327L57.237 46.7087L57.6165 46.0762L60.0979 51.1752Z" fill="white"/>
<path d="M60.877 40.1992V45.7653" stroke="white" stroke-miterlimit="10" stroke-linecap="round"/>
<path d="M58.4736 41.5908L63.2905 44.3739" stroke="white" stroke-miterlimit="10" stroke-linecap="round"/>
<path d="M58.4736 44.3739L63.2905 41.5908" stroke="white" stroke-miterlimit="10" stroke-linecap="round"/>
<path d="M63.0758 29.9317C62.7488 29.9062 62.4206 29.9601 62.119 30.0888C61.8174 30.2176 61.5514 30.4174 61.3437 30.6712C61.3039 30.7205 61.2535 30.7602 61.1961 30.7871C61.1388 30.8141 61.0762 30.8277 61.0128 30.8269C60.95 30.8154 60.8904 30.7903 60.8383 30.7533C60.7862 30.7163 60.7428 30.6684 60.7112 30.6128C60.4924 30.2429 60.1621 29.9518 59.7677 29.7813C59.3732 29.6107 58.9349 29.5695 58.5156 29.6635C58.0963 29.7576 57.7175 29.982 57.4336 30.3046C57.1498 30.6273 56.9754 31.0315 56.9356 31.4594C56.9112 31.7151 56.9376 31.9731 57.0134 32.2184C57.4415 34.0187 59.7965 36.2957 60.5555 36.4319C61.3145 36.5682 64.0197 34.5636 64.7301 32.851C64.8776 32.5543 64.9501 32.2261 64.9411 31.8949C64.9322 31.5638 64.8421 31.2399 64.6788 30.9517C64.5155 30.6634 64.2839 30.4197 64.0044 30.2419C63.7249 30.064 63.4061 29.9575 63.0758 29.9317Z" fill="#FCD527"/>
<path d="M8.51504 44.3246H8.4372C8.39099 44.3088 8.3501 44.2803 8.31916 44.2425C8.28822 44.2047 8.26845 44.159 8.26205 44.1105L7.97985 41.9113L6.03365 40.8896C5.9901 40.868 5.95338 40.8347 5.92761 40.7935C5.90184 40.7522 5.88803 40.7047 5.8877 40.656C5.88957 40.6078 5.90521 40.561 5.9328 40.5214C5.9604 40.4817 5.99878 40.4508 6.04339 40.4322L8.04797 39.4591L8.39827 37.2794C8.40654 37.2302 8.42815 37.1842 8.46075 37.1465C8.49336 37.1087 8.5357 37.0807 8.58316 37.0653C8.62971 37.0504 8.67967 37.0498 8.72654 37.0637C8.7734 37.0776 8.81498 37.1053 8.84589 37.1432L10.3639 38.7585L12.5534 38.4179C12.6013 38.4107 12.6504 38.4168 12.695 38.4357C12.7397 38.4546 12.7782 38.4855 12.8064 38.525C12.8324 38.5657 12.8462 38.6129 12.8462 38.6612C12.8462 38.7095 12.8324 38.7568 12.8064 38.7974L11.736 40.7436L12.7091 42.6898C12.733 42.7312 12.7456 42.7782 12.7456 42.826C12.7456 42.8739 12.733 42.9209 12.7091 42.9623C12.6805 43.0008 12.6415 43.0304 12.5967 43.0477C12.5519 43.0649 12.5032 43.069 12.4561 43.0596L10.2763 42.6509L8.69993 44.2079C8.6793 44.2395 8.65213 44.2662 8.62022 44.2864C8.58832 44.3065 8.55243 44.3196 8.51504 44.3246ZM6.7148 40.6658L8.33989 41.5026C8.37679 41.5215 8.40852 41.549 8.43227 41.5829C8.45603 41.6169 8.47109 41.6561 8.47614 41.6973L8.70967 43.5169L10.0136 42.2227C10.0435 42.1955 10.0791 42.1752 10.1179 42.1634C10.1566 42.1516 10.1974 42.1486 10.2374 42.1546L12.0376 42.4952L11.2105 40.8604C11.1939 40.8237 11.1852 40.7839 11.1852 40.7436C11.1852 40.7034 11.1939 40.6635 11.2105 40.6268L12.0863 39.0212L10.2763 39.2937C10.2355 39.303 10.1929 39.3006 10.1533 39.2868C10.1137 39.2731 10.0788 39.2485 10.0525 39.2159L8.79724 37.8827L8.50533 39.6927C8.49642 39.7337 8.47876 39.7723 8.45357 39.8059C8.42838 39.8395 8.39623 39.8673 8.35934 39.8873L6.7148 40.6658Z" fill="#F5CB15"/>
<path d="M34.3993 33.0078C37.5326 35.4114 45.1812 30.6821 47.575 27.5487C48.1804 26.8077 48.6306 25.9525 48.8991 25.0341C49.1675 24.1156 49.2487 23.1525 49.1377 22.2021C49.0268 21.2517 48.726 20.3332 48.2532 19.5013C47.7804 18.6693 47.1453 17.9409 46.3855 17.3591C45.6258 16.7774 44.7569 16.3543 43.8304 16.1149C42.904 15.8755 41.9388 15.8246 40.9923 15.9654C40.0459 16.1062 39.1373 16.4358 38.3207 16.9346C37.5041 17.4333 36.796 18.091 36.2384 18.8687C33.8835 22.0021 31.2659 30.614 34.3993 33.0078Z" fill="#FDB515"/>
<path d="M35.4009 31.6931C35.87 32.0387 36.4338 32.2323 37.0163 32.2478V31.9656C36.4875 31.953 35.975 31.7799 35.5469 31.4693L35.4009 31.6931ZM34.1748 28.5987C34.1847 29.1668 34.2764 29.7305 34.4473 30.2724L34.7197 30.1848C34.5568 29.6714 34.4683 29.1372 34.457 28.5987H34.1748ZM34.5738 25.2804C34.4372 25.8219 34.3332 26.371 34.2624 26.925H34.5446C34.6169 26.3816 34.7176 25.8424 34.8462 25.3096L34.5738 25.2804ZM35.6442 22.1179C35.4301 22.6044 35.2258 23.091 35.0409 23.6748L35.3036 23.7624C35.4885 23.2272 35.6928 22.7114 35.9069 22.2346L35.6442 22.1179ZM37.4639 19.3056C37.2494 19.5078 37.0539 19.7293 36.88 19.9673C36.713 20.1775 36.5602 20.3985 36.4227 20.629L36.6659 20.775C36.8087 20.5414 36.9546 20.3273 37.1038 20.1327C37.2734 19.912 37.4588 19.7038 37.6585 19.51L37.4639 19.3056ZM40.4318 17.7389C39.8751 17.8527 39.3376 18.046 38.8359 18.313L38.9722 18.5563C39.4518 18.3105 39.9625 18.1305 40.4902 18.0211L40.4318 17.7389ZM43.7696 18.0308C43.2434 17.8212 42.6893 17.6901 42.125 17.6416V17.9335C42.6628 17.9711 43.1914 18.0926 43.6917 18.2936L43.7696 18.0308ZM46.4261 20.0646C46.0941 19.6043 45.6938 19.1974 45.2389 18.858L45.0735 19.0818C45.4997 19.412 45.8794 19.7983 46.2023 20.23L46.4261 20.0646ZM47.5646 23.2175C47.5339 22.649 47.4192 22.0883 47.224 21.5535L46.9613 21.6508C47.1399 22.1591 47.2479 22.6895 47.2824 23.2272L47.5646 23.2175ZM46.8348 26.4773C47.1112 25.9839 47.3144 25.4528 47.4381 24.9009L47.1559 24.8425C47.0444 25.3691 46.8506 25.8748 46.5818 26.3411L46.8348 26.4773ZM44.587 28.9685C45.0252 28.6186 45.4382 28.2381 45.8228 27.8299L45.6184 27.6353C45.2388 28.0319 44.8358 28.4056 44.4118 28.7544L44.587 28.9685ZM41.8136 30.8465C42.3131 30.5741 42.79 30.2821 43.2441 29.9707L43.0884 29.7372C42.631 30.0388 42.1639 30.3308 41.6774 30.5935L41.8136 30.8465ZM38.7484 32.0824C39.293 31.9485 39.8266 31.7728 40.3443 31.5569L40.2372 31.2941C39.7326 31.5068 39.212 31.6792 38.6802 31.8099L38.7484 32.0824Z" fill="#FDB515"/>
<path d="M34.1167 33.0748C30.1757 32.9969 26.8088 41.3266 26.7212 45.2677C26.702 46.2056 26.8678 47.1382 27.209 48.0121C27.5503 48.886 28.0603 49.6841 28.71 50.3609C29.3597 51.0377 30.1363 51.5799 30.9956 51.9566C31.8548 52.3333 32.7798 52.537 33.7178 52.5561C34.6557 52.5753 35.5883 52.4096 36.4622 52.0683C37.3361 51.7271 38.1342 51.2171 38.811 50.5674C39.4878 49.9177 40.0301 49.141 40.4067 48.2818C40.7834 47.4226 40.9871 46.4975 41.0063 45.5596C41.0841 41.6185 38.0578 33.1526 34.1167 33.0748Z" fill="#FDB515"/>
<path d="M34.0864 34.7402C33.5032 34.7418 32.9338 34.918 32.4517 35.2462L32.5976 35.4895C33.0329 35.1896 33.5481 35.0269 34.0767 35.0224L34.0864 34.7402ZM36.9084 36.5015C36.564 36.0539 36.1577 35.6575 35.7018 35.3241L35.5364 35.5576C35.9728 35.8713 36.3598 36.2485 36.6846 36.6767L36.9084 36.5015ZM38.553 39.4208C38.3352 38.9061 38.0916 38.4027 37.8231 37.9125L37.5799 38.0488C37.8418 38.5293 38.0789 39.023 38.2902 39.5279L38.553 39.4208ZM39.5261 42.6028C39.4093 42.0871 39.273 41.5422 39.0979 40.9875L38.8254 41.0751C38.9908 41.62 39.1368 42.1552 39.2439 42.671L39.5261 42.6028ZM39.7304 45.9503C39.7813 45.6579 39.8074 45.3616 39.8083 45.0648C39.827 44.7991 39.827 44.5325 39.8083 44.2669H39.5261C39.5261 44.5491 39.5261 44.802 39.5261 45.0453C39.5199 45.3258 39.4939 45.6054 39.4482 45.8822L39.7304 45.9503ZM38.261 48.9669C38.6515 48.5494 38.9793 48.0774 39.2341 47.5656L38.9811 47.4391C38.7447 47.9244 38.4399 48.3734 38.0761 48.7723L38.261 48.9669ZM35.4001 50.7088C35.9484 50.56 36.4726 50.3339 36.9571 50.0373L36.8014 49.794C36.342 50.0785 35.8438 50.2949 35.3223 50.4363L35.4001 50.7088ZM32.0527 50.6406C32.5914 50.8107 33.1518 50.9025 33.7167 50.9131V50.6309C33.1781 50.6196 32.644 50.5311 32.1305 50.3682L32.0527 50.6406ZM29.2696 48.7723C29.6328 49.2086 30.0553 49.5918 30.5249 49.9108L30.6806 49.6675C30.2352 49.3663 29.8326 49.0062 29.4837 48.5971L29.2696 48.7723ZM27.9268 45.707C27.9941 46.268 28.1449 46.8158 28.3744 47.3321L28.6371 47.2251C28.4198 46.7295 28.2757 46.2051 28.209 45.6681L27.9268 45.707ZM28.2673 42.3693C28.1225 42.91 28.012 43.4592 27.9365 44.0138H28.2187C28.2947 43.4729 28.4019 42.9368 28.5398 42.4082L28.2673 42.3693ZM29.3961 39.2262C29.1626 39.7322 28.9485 40.2577 28.7636 40.7734L29.0264 40.8707C29.2113 40.355 29.4253 39.849 29.6589 39.3527L29.3961 39.2262ZM31.1672 36.3848C30.8066 36.8119 30.4812 37.2675 30.1941 37.7471L30.4373 37.9028C30.725 37.4328 31.0504 36.9869 31.4104 36.5697L31.1672 36.3848Z" fill="#FDB515"/>
<path d="M34.5157 32.7932C37.7755 30.5648 35.6834 21.8264 33.4647 18.5665C32.9363 17.7915 32.2604 17.1281 31.4757 16.6142C30.6909 16.1004 29.8126 15.7462 28.8909 15.5718C27.9692 15.3974 27.0222 15.4063 26.104 15.5978C25.1857 15.7894 24.3142 16.16 23.5391 16.6884C22.7641 17.2168 22.1007 17.8927 21.5869 18.6775C21.0731 19.4623 20.7189 20.3406 20.5445 21.2623C20.3701 22.1839 20.3789 23.1309 20.5705 24.0492C20.7621 24.9674 21.1327 25.8389 21.6611 26.614C23.8797 29.8739 31.2558 35.0021 34.5157 32.7932Z" fill="#FDB515"/>
<path d="M33.5709 31.4124C34.0429 31.0713 34.4021 30.5969 34.6024 30.0501L34.3397 29.943C34.1514 30.446 33.8113 30.8778 33.3666 31.1789L33.5709 31.4124ZM30.2527 31.6168C30.796 31.7803 31.3591 31.8687 31.9264 31.8795V31.5973C31.3852 31.5882 30.848 31.5031 30.3305 31.3443L30.2527 31.6168ZM27.2263 30.196C27.6991 30.4895 28.1862 30.7591 28.686 31.0037L28.8125 30.741C28.3184 30.5047 27.8377 30.2415 27.3723 29.9528L27.2263 30.196ZM24.5601 28.1817C24.959 28.5418 25.3872 28.9018 25.8445 29.2521L26.0197 29.0186C25.5777 28.6935 25.1553 28.3426 24.7547 27.9677L24.5601 28.1817ZM22.4582 25.5738C22.5851 25.8373 22.7315 26.091 22.896 26.3328C23.0492 26.5562 23.2149 26.7706 23.3923 26.9751L23.6064 26.7902C23.4401 26.5942 23.2842 26.3896 23.1393 26.1772C22.9745 25.9475 22.8312 25.7032 22.7112 25.4473L22.4582 25.5738ZM21.9035 22.2653C21.8212 22.8267 21.8212 23.3971 21.9035 23.9585L22.1857 23.9098C22.1129 23.3771 22.1129 22.837 22.1857 22.3042L21.9035 22.2653ZM23.1783 19.1709C22.8226 19.6127 22.5281 20.1004 22.3025 20.6208L22.5652 20.7375C22.7756 20.2388 23.0575 19.7733 23.4021 19.3558L23.1783 19.1709ZM25.9516 17.2928C25.4129 17.4656 24.9017 17.7146 24.4336 18.0323L24.5893 18.2756C25.0322 17.964 25.5215 17.7243 26.0392 17.5653L25.9516 17.2928ZM29.299 17.1955C28.7497 17.0525 28.1831 16.987 27.6156 17.0008V17.2831C28.1567 17.2713 28.6969 17.3335 29.2212 17.4679L29.299 17.1955ZM32.1697 18.9178C31.7869 18.4982 31.3443 18.1376 30.856 17.8475L30.71 18.0907C31.1769 18.3671 31.6 18.7114 31.9653 19.1125L32.1697 18.9178ZM33.8337 21.8371C33.6359 21.3138 33.4051 20.8035 33.1428 20.3094L32.8898 20.4456C33.1473 20.9293 33.3717 21.43 33.5612 21.9442L33.8337 21.8371ZM34.7289 25.0581C34.6323 24.5066 34.5057 23.9609 34.3494 23.4233L34.0769 23.5012C34.2229 24.0266 34.3494 24.5716 34.4467 25.1068L34.7289 25.0581ZM34.943 28.3958C34.9916 27.839 34.9916 27.2789 34.943 26.7221H34.6608C34.7046 27.2662 34.7046 27.8128 34.6608 28.3569L34.943 28.3958Z" fill="#FDB515"/>
<path d="M34.1753 33.3379C33.2022 29.5234 24.2302 28.5698 20.4157 29.5818C18.6299 30.1047 17.1187 31.3038 16.2036 32.924C15.2886 34.5442 15.0419 36.4576 15.5162 38.2569C15.9904 40.0562 17.1481 41.5994 18.7428 42.5581C20.3376 43.5168 22.2436 43.8153 24.0551 43.39C27.8696 42.3877 35.1776 37.1525 34.1753 33.3379Z" fill="#FDB515"/>
<path d="M32.5787 33.766C32.4046 33.2053 32.0655 32.7102 31.6056 32.3452L31.4207 32.5496C31.8268 32.8859 32.1219 33.337 32.2673 33.8438L32.5787 33.766ZM31.6056 36.9577C31.9458 36.5033 32.2179 36.0018 32.4133 35.4689L32.1408 35.3813C31.9572 35.8877 31.698 36.3634 31.3721 36.7923L31.6056 36.9577ZM29.2507 39.3418C29.6912 38.9978 30.1104 38.6273 30.506 38.2325L30.3017 38.0281C29.9159 38.4164 29.5064 38.7804 29.0756 39.118L29.2507 39.3418ZM26.4677 41.1809C26.9348 40.9279 27.4408 40.6457 27.8981 40.3246L27.7424 40.0911C27.2874 40.395 26.8164 40.6744 26.3314 40.9279L26.4677 41.1809ZM23.3051 42.2903C23.5976 42.262 23.8872 42.21 24.1712 42.1346C24.4316 42.0636 24.6882 41.9791 24.9399 41.8816L24.8426 41.6189C24.6005 41.7102 24.3537 41.7881 24.1031 41.8524C23.829 41.9277 23.549 41.9798 23.2662 42.0081L23.3051 42.2903ZM20.0063 41.7064C20.5141 41.9584 21.0545 42.1386 21.6119 42.2416L21.6606 41.9594C21.1294 41.8662 20.6147 41.6957 20.1328 41.4534L20.0063 41.7064ZM17.5444 39.4391C17.8354 39.9267 18.196 40.3693 18.6148 40.7528L18.7997 40.5387C18.4166 40.1729 18.0888 39.7533 17.8266 39.2931L17.5444 39.4391ZM16.688 36.1987C16.6715 36.7663 16.7371 37.3333 16.8827 37.8822L17.1551 37.8043C17.0223 37.283 16.9601 36.7463 16.9702 36.2084L16.688 36.1987ZM17.7196 33.0167C17.3974 33.4836 17.1449 33.995 16.9702 34.5347L17.2427 34.6223C17.4099 34.1079 17.6491 33.6197 17.9531 33.1724L17.7196 33.0167ZM20.2983 30.8759C19.779 31.102 19.2942 31.4001 18.8581 31.7614L19.0332 31.9755C19.4528 31.6338 19.9179 31.3522 20.415 31.1386L20.2983 30.8759ZM23.597 30.292C23.0399 30.2999 22.484 30.3454 21.933 30.4282V30.7104C22.4741 30.6267 23.0204 30.5812 23.5678 30.5742L23.597 30.292ZM26.9347 30.5158C26.3837 30.4254 25.8283 30.3637 25.2708 30.3309V30.6131C25.8157 30.6131 26.3606 30.7104 26.9056 30.798L26.9347 30.5158ZM30.1557 31.4305C29.643 31.2002 29.1126 31.0114 28.5696 30.8661L28.4917 31.1386C29.0205 31.285 29.5376 31.4704 30.0389 31.6933L30.1557 31.4305Z" fill="#FDB515"/>
<path d="M33.7375 33.2905C32.8519 37.1342 40.3058 42.1457 44.1496 43.0215C45.9949 43.4499 47.9348 43.1277 49.5425 42.1258C51.1502 41.1239 52.2941 39.5244 52.7226 37.6792C53.151 35.8339 52.8288 33.894 51.8269 32.2863C50.8251 30.6785 49.2255 29.5346 47.3803 29.1062C43.5365 28.2304 34.6327 29.4468 33.7375 33.2905Z" fill="#FDB515"/>
<path d="M35.3528 33.6597C35.2335 34.2302 35.2878 34.8233 35.5085 35.3626L35.7809 35.2556C35.5784 34.7697 35.5242 34.2347 35.6252 33.7181L35.3528 33.6597ZM37.659 31.2659C37.1468 31.5249 36.6722 31.8523 36.248 32.239L36.4426 32.4531C36.8444 32.091 37.2968 31.7894 37.7855 31.5578L37.659 31.2659ZM40.8508 30.2928C40.2961 30.3998 39.7512 30.5361 39.2257 30.6918L39.3133 30.9642C39.8349 30.8071 40.3643 30.6772 40.8994 30.575L40.8508 30.2928ZM44.1787 29.9717C43.6197 29.9727 43.0611 30.002 42.505 30.0593V30.3415C43.0513 30.2842 43.6002 30.255 44.1496 30.2539L44.1787 29.9717ZM47.4873 30.4582C47.2113 30.3519 46.9284 30.2641 46.6407 30.1955C46.3974 30.1468 46.1347 30.0982 45.8525 30.0593V30.3415C46.1249 30.3415 46.3877 30.4193 46.6212 30.4777C46.8961 30.5428 47.166 30.6273 47.4289 30.7307L47.4873 30.4582ZM50.1341 32.5212C49.8028 32.0607 49.4061 31.6509 48.9567 31.3048L48.7912 31.5286C49.2162 31.8577 49.59 32.2479 49.9006 32.6866L50.1341 32.5212ZM51.2532 35.674C51.2236 35.1095 51.1121 34.5523 50.9223 34.0198L50.6499 34.1171C50.8359 34.6233 50.9441 35.1548 50.971 35.6935L51.2532 35.674ZM50.4942 38.9436C50.7739 38.4507 50.9805 37.9197 51.1072 37.3672L50.8347 37.2991C50.7091 37.8228 50.5127 38.327 50.2509 38.7977L50.4942 38.9436ZM48.1003 41.2791C48.5982 41.0208 49.0569 40.6932 49.4627 40.306L49.268 40.1113C48.88 40.4939 48.4413 40.8213 47.9641 41.0844L48.1003 41.2791ZM44.821 41.9602C45.3843 42.0081 45.9517 41.972 46.5045 41.8532L46.4461 41.5807C45.9179 41.6871 45.3776 41.7198 44.8405 41.678L44.821 41.9602ZM41.6682 40.8995C42.1671 41.1504 42.6805 41.3714 43.2056 41.5613L43.303 41.2888C42.7844 41.1058 42.2774 40.8913 41.7849 40.6466L41.6682 40.8995ZM38.8267 39.148C39.2646 39.4788 39.7317 39.7999 40.2085 40.1211L40.3545 39.8778C39.8874 39.5859 39.43 39.2745 38.9922 38.9047L38.8267 39.148ZM36.4037 36.832C36.7462 37.2765 37.1272 37.6901 37.5422 38.0679L37.7368 37.8635C37.3338 37.4932 36.9627 37.0895 36.6275 36.6568L36.4037 36.832Z" fill="#FDB515"/>
<path d="M20.853 22.9643C20.9556 22.8427 21.006 22.6855 20.9932 22.5269C20.9805 22.3684 20.9056 22.2213 20.785 22.1177C20.6851 22.0307 20.5573 21.9824 20.4249 21.9814C20.3909 22.3797 20.3909 22.7801 20.4249 23.1783C20.5075 23.1756 20.5885 23.155 20.6624 23.1181C20.7363 23.0811 20.8013 23.0286 20.853 22.9643Z" fill="#FFCF01"/>
<path d="M17.2524 31.5669C17.3443 31.4547 17.3926 31.313 17.3886 31.168C17.1849 31.357 16.9931 31.5585 16.8145 31.7713C16.8976 31.7693 16.9794 31.7501 17.0548 31.7149C17.1301 31.6797 17.1974 31.6293 17.2524 31.5669Z" fill="#FFCF01"/>
<path d="M21.7775 26.2639C21.8652 26.1536 21.9115 26.016 21.9084 25.8751C21.9052 25.7343 21.8529 25.5989 21.7604 25.4926C21.668 25.3863 21.5412 25.3156 21.4021 25.293C21.263 25.2704 21.1204 25.2971 20.999 25.3686C21.1563 25.7346 21.3451 26.0863 21.5634 26.4196C21.6444 26.3824 21.7172 26.3295 21.7775 26.2639Z" fill="#FFCF01"/>
<path d="M23.1205 22.8284C23.0174 22.9516 22.9667 23.1103 22.9795 23.2705C22.9922 23.4306 23.0673 23.5794 23.1886 23.6847C23.3102 23.7872 23.4674 23.8376 23.6259 23.8248C23.7845 23.8121 23.9315 23.7372 24.0352 23.6166C24.1383 23.4934 24.1889 23.3346 24.1762 23.1745C24.1634 23.0143 24.0884 22.8656 23.9671 22.7602C23.8455 22.6577 23.6883 22.6074 23.5297 22.6201C23.3712 22.6329 23.2241 22.7077 23.1205 22.8284Z" fill="#FFCF01"/>
<path d="M15.774 37.2203C15.8771 37.0971 15.9277 36.9383 15.915 36.7782C15.9023 36.618 15.8272 36.4693 15.7059 36.364C15.6196 36.2947 15.5167 36.2493 15.4075 36.2322C15.2982 36.2151 15.1863 36.227 15.0831 36.2666C15.0767 36.6473 15.0995 37.0279 15.1512 37.4051C15.262 37.4346 15.3787 37.433 15.4886 37.4003C15.5985 37.3677 15.6973 37.3054 15.774 37.2203Z" fill="#FFCF01"/>
<path d="M17.2529 33.6301C17.1997 33.6892 17.159 33.7585 17.1335 33.8338C17.1079 33.9091 17.098 33.9889 17.1044 34.0681C17.1108 34.1474 17.1333 34.2245 17.1706 34.2948C17.2078 34.3651 17.259 34.427 17.3211 34.4767C17.3801 34.5293 17.449 34.5696 17.5238 34.5951C17.5986 34.6207 17.6778 34.631 17.7566 34.6256C17.8355 34.6201 17.9125 34.599 17.9831 34.5634C18.0536 34.5278 18.1164 34.4785 18.1676 34.4184C18.2708 34.2952 18.3214 34.1364 18.3086 33.9763C18.2959 33.8161 18.2208 33.6674 18.0995 33.562C17.9779 33.4595 17.8208 33.4091 17.6622 33.4219C17.5037 33.4346 17.3566 33.5095 17.2529 33.6301Z" fill="#FFCF01"/>
<path d="M19.5104 30.9837C19.4501 31.0422 19.4026 31.1127 19.3711 31.1907C19.3396 31.2686 19.3247 31.3523 19.3275 31.4363C19.3302 31.5204 19.3505 31.6029 19.387 31.6787C19.4235 31.7544 19.4754 31.8217 19.5394 31.8762C19.6035 31.9307 19.6782 31.9712 19.7588 31.9951C19.8394 32.019 19.9241 32.0259 20.0075 32.0151C20.0909 32.0044 20.1712 31.9763 20.2431 31.9328C20.315 31.8892 20.377 31.8311 20.4251 31.7621C20.4771 31.7025 20.5167 31.633 20.5414 31.5579C20.5662 31.4827 20.5757 31.4034 20.5693 31.3245C20.563 31.2456 20.541 31.1688 20.5045 31.0986C20.468 31.0283 20.4179 30.9661 20.357 30.9155C20.2354 30.813 20.0783 30.7626 19.9197 30.7754C19.7612 30.7881 19.6141 30.863 19.5104 30.9837Z" fill="#FFCF01"/>
<path d="M22.6051 29.1924L21.9434 29.2508C22.0465 29.3094 22.1651 29.3353 22.2833 29.3249C22.4015 29.3144 22.5138 29.2682 22.6051 29.1924Z" fill="#FFCF01"/>
<path d="M24.0347 25.6799C23.9322 25.8015 23.8818 25.9587 23.8945 26.1172C23.9073 26.2758 23.9822 26.4229 24.1028 26.5265C24.1618 26.5791 24.2308 26.6193 24.3056 26.6449C24.3804 26.6705 24.4595 26.6808 24.5384 26.6754C24.6172 26.67 24.6942 26.6488 24.7648 26.6132C24.8354 26.5776 24.8981 26.5283 24.9494 26.4681C25.0525 26.3449 25.1031 26.1862 25.0904 26.026C25.0777 25.8659 25.0026 25.7172 24.8813 25.6118C24.7597 25.5093 24.6025 25.4589 24.444 25.4717C24.2854 25.4844 24.1383 25.5593 24.0347 25.6799Z" fill="#FFCF01"/>
<path d="M16.5714 40.413C16.6745 40.2898 16.7252 40.1311 16.7124 39.971C16.6997 39.8108 16.6246 39.6621 16.5033 39.5567C16.3992 39.4793 16.273 39.4375 16.1432 39.4375C16.0135 39.4375 15.8873 39.4793 15.7832 39.5567C15.9482 39.9134 16.1435 40.2552 16.3671 40.5785C16.4493 40.5436 16.5201 40.4862 16.5714 40.413Z" fill="#FFCF01"/>
<path d="M18.838 37.7562C18.9406 37.6346 18.9909 37.4774 18.9782 37.3188C18.9654 37.1603 18.8906 37.0132 18.7699 36.9096C18.6467 36.8065 18.488 36.7558 18.3278 36.7685C18.1677 36.7813 18.0189 36.8564 17.9136 36.9777C17.811 37.0993 17.7607 37.2564 17.7734 37.415C17.7862 37.5735 17.861 37.7206 17.9817 37.8243C18.1049 37.9274 18.2636 37.978 18.4238 37.9653C18.5839 37.9525 18.7327 37.8774 18.838 37.7562Z" fill="#FFCF01"/>
<path d="M20.3082 34.1761C20.2479 34.2346 20.2005 34.3051 20.1689 34.383C20.1374 34.461 20.1226 34.5447 20.1253 34.6287C20.1281 34.7128 20.1483 34.7953 20.1848 34.871C20.2213 34.9468 20.2733 35.0141 20.3373 35.0686C20.4013 35.1231 20.476 35.1636 20.5566 35.1875C20.6372 35.2114 20.722 35.2182 20.8054 35.2075C20.8888 35.1968 20.969 35.1687 21.0409 35.1252C21.1128 35.0816 21.1748 35.0235 21.223 34.9545C21.275 34.8949 21.3145 34.8254 21.3393 34.7503C21.3641 34.6751 21.3735 34.5958 21.3672 34.5169C21.3609 34.438 21.3388 34.3612 21.3023 34.291C21.2658 34.2207 21.2157 34.1585 21.1549 34.1079C21.0333 34.0054 20.8761 33.955 20.7175 33.9678C20.559 33.9805 20.4119 34.0554 20.3082 34.1761Z" fill="#FFCF01"/>
<path d="M22.5761 31.5276C22.5235 31.5866 22.4832 31.6555 22.4577 31.7303C22.4321 31.8051 22.4217 31.8843 22.4272 31.9631C22.4326 32.042 22.4538 32.119 22.4893 32.1896C22.5249 32.2602 22.5743 32.3229 22.6344 32.3742C22.6951 32.4259 22.7655 32.4652 22.8413 32.4898C22.9172 32.5144 22.9972 32.5238 23.0767 32.5175C23.1562 32.5111 23.2337 32.4892 23.3048 32.4529C23.3758 32.4167 23.439 32.3667 23.4908 32.306C23.5425 32.2453 23.5818 32.175 23.6064 32.0991C23.631 32.0233 23.6404 31.9433 23.6341 31.8638C23.6277 31.7843 23.6058 31.7068 23.5695 31.6357C23.5333 31.5647 23.4833 31.5015 23.4226 31.4497C23.3624 31.3983 23.2924 31.3594 23.2169 31.3354C23.1414 31.3115 23.0618 31.3029 22.9829 31.3101C22.904 31.3174 22.8274 31.3404 22.7575 31.3777C22.6876 31.415 22.6259 31.466 22.5761 31.5276Z" fill="#FFCF01"/>
<path d="M24.8334 28.9016C24.7303 29.0248 24.6796 29.1836 24.6924 29.3437C24.7051 29.5039 24.7802 29.6526 24.9015 29.7579C25.0231 29.8605 25.1802 29.9108 25.3388 29.8981C25.4973 29.8853 25.6445 29.8105 25.7481 29.6898C25.8512 29.5666 25.9018 29.4079 25.8891 29.2477C25.8764 29.0876 25.8013 28.9388 25.68 28.8335C25.5584 28.731 25.4012 28.6806 25.2427 28.6934C25.0841 28.7061 24.937 28.781 24.8334 28.9016Z" fill="#FFCF01"/>
<path d="M27.0708 26.2257C26.9683 26.3473 26.9179 26.5045 26.9307 26.663C26.9434 26.8216 27.0183 26.9687 27.1389 27.0723C27.2621 27.1754 27.4209 27.226 27.581 27.2133C27.7412 27.2006 27.8899 27.1255 27.9952 27.0042C28.0978 26.8826 28.1481 26.7254 28.1354 26.5669C28.1226 26.4083 28.0478 26.2612 27.9271 26.1576C27.8039 26.0545 27.6452 26.0038 27.485 26.0166C27.3249 26.0293 27.1761 26.1044 27.0708 26.2257Z" fill="#FFCF01"/>
<path d="M19.754 40.5784C19.8566 40.4568 19.9069 40.2996 19.8942 40.1411C19.8814 39.9825 19.8066 39.8354 19.6859 39.7318C19.5627 39.6287 19.404 39.5781 19.2438 39.5908C19.0837 39.6035 18.9349 39.6786 18.8296 39.7999C18.727 39.9215 18.6767 40.0787 18.6894 40.2372C18.7022 40.3958 18.777 40.5429 18.8977 40.6465C19.0209 40.7496 19.1797 40.8002 19.3398 40.7875C19.4999 40.7748 19.6487 40.6997 19.754 40.5784Z" fill="#FFCF01"/>
<path d="M21.2331 37.0266C21.1727 37.0852 21.1253 37.1557 21.0938 37.2336C21.0623 37.3116 21.0474 37.3953 21.0501 37.4793C21.0529 37.5633 21.0731 37.6459 21.1096 37.7216C21.1461 37.7974 21.1981 37.8646 21.2621 37.9191C21.3261 37.9736 21.4009 38.0142 21.4815 38.0381C21.5621 38.062 21.6468 38.0688 21.7302 38.0581C21.8136 38.0473 21.8938 38.0193 21.9657 37.9757C22.0376 37.9321 22.0997 37.874 22.1478 37.8051C22.1998 37.7454 22.2393 37.676 22.2641 37.6008C22.2889 37.5257 22.2983 37.4463 22.292 37.3674C22.2857 37.2886 22.2636 37.2117 22.2271 37.1415C22.1907 37.0713 22.1405 37.0091 22.0797 36.9585C21.9581 36.856 21.8009 36.8056 21.6424 36.8184C21.4838 36.8311 21.3367 36.906 21.2331 37.0266Z" fill="#FFCF01"/>
<path d="M23.4899 34.3704C23.4371 34.4302 23.3967 34.4999 23.371 34.5755C23.3453 34.6511 23.3348 34.7311 23.3403 34.8107C23.3457 34.8904 23.3669 34.9682 23.4026 35.0396C23.4383 35.111 23.4878 35.1746 23.5483 35.2267C23.6709 35.3312 23.83 35.3828 23.9906 35.37C24.1512 35.3572 24.3001 35.2812 24.4046 35.1586C24.5092 35.036 24.5607 34.8769 24.5479 34.7163C24.5352 34.5557 24.4591 34.4068 24.3365 34.3022C24.2149 34.1997 24.0578 34.1493 23.8992 34.1621C23.7407 34.1749 23.5936 34.2497 23.4899 34.3704Z" fill="#FFCF01"/>
<path d="M25.7476 31.7229C25.645 31.8445 25.5947 32.0017 25.6074 32.1602C25.6202 32.3188 25.695 32.4659 25.8157 32.5695C25.8747 32.6221 25.9436 32.6623 26.0184 32.6879C26.0932 32.7134 26.1724 32.7238 26.2513 32.7184C26.3301 32.7129 26.4071 32.6918 26.4777 32.6562C26.5483 32.6206 26.611 32.5713 26.6623 32.5111C26.7654 32.3879 26.816 32.2292 26.8033 32.069C26.7906 31.9089 26.7155 31.7601 26.5942 31.6548C26.4726 31.5522 26.3154 31.5019 26.1569 31.5146C25.9983 31.5274 25.8512 31.6022 25.7476 31.7229Z" fill="#FFCF01"/>
<path d="M28.0444 29.0753C27.9419 29.1969 27.8915 29.3541 27.9043 29.5126C27.917 29.6712 27.9919 29.8183 28.1126 29.9219C28.2357 30.025 28.3945 30.0757 28.5546 30.0629C28.7148 30.0502 28.8635 29.9751 28.9689 29.8538C29.0714 29.7322 29.1218 29.575 29.109 29.4165C29.0963 29.258 29.0214 29.1108 28.9008 29.0072C28.7776 28.9041 28.6188 28.8535 28.4587 28.8662C28.2985 28.8789 28.1498 28.954 28.0444 29.0753Z" fill="#FFCF01"/>
<path d="M19.7051 43.0791C20.0558 43.2154 20.417 43.3228 20.7852 43.4002C20.7688 43.2416 20.6922 43.0953 20.5711 42.9915C20.5092 42.9388 20.4373 42.8992 20.3597 42.875C20.2821 42.8508 20.2003 42.8425 20.1194 42.8507C20.0385 42.8589 19.9602 42.8833 19.889 42.9226C19.8178 42.9618 19.7552 43.0151 19.7051 43.0791Z" fill="#FFCF01"/>
<path d="M22.8868 41.2112C22.9894 41.0896 23.0397 40.9324 23.027 40.7739C23.0142 40.6153 22.9394 40.4683 22.8187 40.3646C22.6955 40.2615 22.5367 40.2109 22.3766 40.2236C22.2165 40.2364 22.0677 40.3114 21.9624 40.4327C21.8591 40.5553 21.8088 40.7139 21.8225 40.8736C21.8362 41.0333 21.9128 41.181 22.0354 41.2842C22.1579 41.3874 22.3165 41.4377 22.4762 41.424C22.6359 41.4103 22.7836 41.3338 22.8868 41.2112Z" fill="#FFCF01"/>
<path d="M24.356 37.6583C24.2534 37.7799 24.2031 37.9371 24.2158 38.0956C24.2286 38.2542 24.3034 38.4013 24.4241 38.5049C24.5454 38.6094 24.7032 38.6615 24.8629 38.6496C25.0226 38.6378 25.171 38.563 25.2755 38.4417C25.3801 38.3204 25.4321 38.1625 25.4202 38.0028C25.4084 37.8432 25.3336 37.6947 25.2123 37.5902C25.0891 37.4871 24.9303 37.4365 24.7702 37.4492C24.61 37.4619 24.4613 37.537 24.356 37.6583Z" fill="#FFCF01"/>
<path d="M26.6237 34.982C26.5717 35.0416 26.5321 35.1111 26.5074 35.1862C26.4826 35.2614 26.4731 35.3407 26.4795 35.4196C26.4858 35.4985 26.5079 35.5753 26.5443 35.6455C26.5808 35.7158 26.6309 35.778 26.6918 35.8286C26.7825 35.9065 26.8943 35.9557 27.013 35.9699C27.1317 35.9842 27.252 35.9628 27.3585 35.9086C27.4651 35.8544 27.5531 35.7697 27.6115 35.6654C27.6698 35.561 27.6959 35.4417 27.6863 35.3225C27.6767 35.2033 27.6319 35.0897 27.5576 34.996C27.4833 34.9023 27.3829 34.8329 27.269 34.7964C27.1552 34.7599 27.0331 34.758 26.9182 34.7911C26.8033 34.8241 26.7008 34.8906 26.6237 34.982Z" fill="#FFCF01"/>
<path d="M28.8812 32.3269C28.7781 32.4501 28.7275 32.6089 28.7402 32.769C28.753 32.9292 28.828 33.0779 28.9493 33.1832C29.0404 33.2598 29.1521 33.3078 29.2703 33.321C29.3885 33.3343 29.5081 33.3123 29.6138 33.2579C29.7196 33.2034 29.8069 33.1189 29.8648 33.015C29.9227 32.911 29.9485 32.7923 29.9391 32.6737C29.9296 32.5551 29.8853 32.4419 29.8118 32.3484C29.7382 32.2549 29.6386 32.1852 29.5255 32.1482C29.4125 32.1111 29.291 32.1083 29.1764 32.1401C29.0617 32.1719 28.959 32.2369 28.8812 32.3269Z" fill="#FFCF01"/>
<path d="M31.1386 29.6798C31.0621 29.7709 31.0141 29.8825 31.0008 30.0008C30.9876 30.119 31.0095 30.2385 31.064 30.3443C31.1185 30.4501 31.203 30.5374 31.307 30.5953C31.4109 30.6531 31.5296 30.679 31.6482 30.6695C31.7668 30.6601 31.88 30.6158 31.9735 30.5422C32.067 30.4686 32.1366 30.3691 32.1737 30.256C32.2108 30.143 32.2136 30.0215 32.1818 29.9068C32.1499 29.7922 32.085 29.6895 31.995 29.6117C31.8718 29.5086 31.713 29.4579 31.5529 29.4707C31.3927 29.4834 31.244 29.5585 31.1386 29.6798Z" fill="#FFCF01"/>
<path d="M22.8775 43.2833C22.8141 43.359 22.7706 43.4493 22.751 43.546C23.125 43.5243 23.4963 43.469 23.8603 43.3806C23.8269 43.3193 23.7842 43.2635 23.7338 43.2152C23.6106 43.1121 23.4519 43.0615 23.2917 43.0742C23.1316 43.0869 22.9828 43.162 22.8775 43.2833Z" fill="#FFCF01"/>
<path d="M25.2712 40.4806C25.2108 40.5391 25.1634 40.6096 25.1319 40.6876C25.1004 40.7656 25.0855 40.8492 25.0882 40.9333C25.0909 41.0173 25.1112 41.0999 25.1477 41.1756C25.1842 41.2514 25.2362 41.3186 25.3002 41.3731C25.3642 41.4276 25.4389 41.4681 25.5196 41.4921C25.6002 41.516 25.6849 41.5228 25.7683 41.512C25.8517 41.5013 25.9319 41.4733 26.0038 41.4297C26.0757 41.3861 26.1377 41.328 26.1859 41.2591C26.2384 41.2 26.2787 41.1311 26.3043 41.0563C26.3298 40.9815 26.3402 40.9024 26.3348 40.8235C26.3293 40.7446 26.3082 40.6677 26.2726 40.5971C26.237 40.5265 26.1877 40.4637 26.1275 40.4125C26.0043 40.3094 25.8456 40.2587 25.6854 40.2715C25.5253 40.2842 25.3765 40.3593 25.2712 40.4806Z" fill="#FFCF01"/>
<path d="M27.5381 37.8338C27.4848 37.8928 27.4442 37.9621 27.4186 38.0374C27.3931 38.1127 27.3832 38.1925 27.3896 38.2717C27.396 38.351 27.4185 38.4282 27.4557 38.4984C27.493 38.5687 27.5442 38.6306 27.6062 38.6803C27.6648 38.7407 27.7353 38.7882 27.8132 38.8197C27.8912 38.8512 27.9749 38.866 28.0589 38.8633C28.1429 38.8606 28.2255 38.8403 28.3012 38.8038C28.377 38.7673 28.4442 38.7154 28.4987 38.6513C28.5532 38.5873 28.5938 38.5126 28.6177 38.432C28.6416 38.3514 28.6484 38.2666 28.6377 38.1833C28.627 38.0999 28.5989 38.0196 28.5553 37.9477C28.5117 37.8758 28.4536 37.8138 28.3847 37.7656C28.3257 37.7123 28.2564 37.6717 28.181 37.6462C28.1057 37.6206 28.026 37.6107 27.9467 37.6171C27.8674 37.6235 27.7903 37.646 27.72 37.6832C27.6498 37.7205 27.5879 37.7717 27.5381 37.8338Z" fill="#FFCF01"/>
<path d="M29.7963 35.179C29.6931 35.3022 29.6425 35.4609 29.6553 35.621C29.668 35.7812 29.7431 35.9299 29.8644 36.0353C29.986 36.1378 30.1431 36.1882 30.3017 36.1755C30.4602 36.1627 30.6073 36.0879 30.711 35.9672C30.8141 35.844 30.8647 35.6852 30.852 35.5251C30.8393 35.365 30.7642 35.2162 30.6429 35.1109C30.5213 35.0083 30.3641 34.9579 30.2055 34.9707C30.047 34.9835 29.8999 35.0583 29.7963 35.179Z" fill="#FFCF01"/>
<path d="M32.0532 32.5304C31.9507 32.652 31.9003 32.8092 31.9131 32.9677C31.9258 33.1262 32.0007 33.2733 32.1213 33.377C32.2445 33.4801 32.4033 33.5307 32.5634 33.518C32.7236 33.5052 32.8723 33.4301 32.9777 33.3089C33.0802 33.1873 33.1306 33.0301 33.1178 32.8715C33.1051 32.713 33.0302 32.5659 32.9095 32.4623C32.7864 32.3592 32.6276 32.3085 32.4675 32.3213C32.3073 32.334 32.1586 32.4091 32.0532 32.5304Z" fill="#FFCF01"/>
<path d="M26.857 44.6066C26.9515 44.497 27.0035 44.3571 27.0035 44.2125C27.0035 44.0678 26.9515 43.9279 26.857 43.8184C26.857 44.1298 26.7695 44.4314 26.75 44.7136C26.79 44.6825 26.8259 44.6466 26.857 44.6066Z" fill="#FFCF01"/>
<path d="M28.3365 41.0261C28.2846 41.0858 28.245 41.1552 28.2203 41.2304C28.1955 41.3055 28.186 41.3849 28.1923 41.4638C28.1987 41.5427 28.2207 41.6195 28.2572 41.6897C28.2937 41.7599 28.3438 41.8222 28.4047 41.8727C28.4632 41.9331 28.5337 41.9806 28.6117 42.0121C28.6896 42.0436 28.7733 42.0584 28.8574 42.0557C28.9414 42.053 29.0239 42.0327 29.0997 41.9962C29.1754 41.9597 29.2427 41.9077 29.2972 41.8437C29.3517 41.7797 29.3922 41.705 29.4161 41.6244C29.4401 41.5438 29.4469 41.459 29.4361 41.3756C29.4254 41.2922 29.3973 41.212 29.3538 41.1401C29.3102 41.0682 29.2521 41.0062 29.1832 40.958C29.1241 40.9048 29.0548 40.8641 28.9795 40.8385C28.9042 40.813 28.8244 40.8031 28.7452 40.8095C28.6659 40.8159 28.5888 40.8384 28.5185 40.8756C28.4482 40.9129 28.3863 40.9641 28.3365 41.0261Z" fill="#FFCF01"/>
<path d="M30.5941 38.3683C30.491 38.4915 30.4404 38.6502 30.4531 38.8103C30.4658 38.9705 30.5409 39.1192 30.6622 39.2246C30.7229 39.2763 30.7932 39.3156 30.8691 39.3402C30.945 39.3648 31.025 39.3742 31.1045 39.3679C31.184 39.3616 31.2615 39.3396 31.3325 39.3034C31.4036 39.2671 31.4668 39.2172 31.5186 39.1565C31.5703 39.0958 31.6096 39.0255 31.6342 38.9496C31.6588 38.8737 31.6682 38.7937 31.6618 38.7142C31.6555 38.6347 31.6336 38.5572 31.5973 38.4861C31.561 38.4151 31.5111 38.3519 31.4504 38.3002C31.3272 38.197 31.1685 38.1464 31.0083 38.1592C30.8482 38.1719 30.6994 38.247 30.5941 38.3683Z" fill="#FFCF01"/>
<path d="M32.91 35.7132C32.8575 35.7722 32.8172 35.8412 32.7917 35.916C32.7661 35.9908 32.7557 36.0699 32.7612 36.1488C32.7666 36.2277 32.7877 36.3046 32.8233 36.3752C32.8589 36.4458 32.9083 36.5085 32.9684 36.5598C33.0916 36.6629 33.2504 36.7135 33.4105 36.7008C33.5707 36.6881 33.7194 36.613 33.8248 36.4917C33.9107 36.3687 33.9476 36.2181 33.9285 36.0692C33.9093 35.9204 33.8354 35.7841 33.7211 35.6868C33.6068 35.5896 33.4604 35.5384 33.3105 35.5433C33.1605 35.5482 33.0177 35.6087 32.91 35.7132Z" fill="#FFCF01"/>
<path d="M35.1193 33.0756C35.0414 33.1663 34.9922 33.2781 34.9779 33.3968C34.9637 33.5155 34.985 33.6357 35.0393 33.7423C35.0935 33.8488 35.1782 33.9369 35.2825 33.9952C35.3869 34.0536 35.5062 34.0796 35.6253 34.0701C35.7445 34.0605 35.8582 34.0157 35.9518 33.9414C36.0455 33.8671 36.115 33.7667 36.1515 33.6528C36.188 33.539 36.1898 33.4168 36.1568 33.3019C36.1237 33.187 36.0573 33.0845 35.9659 33.0074C35.9063 32.9555 35.8368 32.9159 35.7616 32.8911C35.6865 32.8664 35.6071 32.8569 35.5282 32.8632C35.4494 32.8696 35.3726 32.8916 35.3023 32.9281C35.2321 32.9646 35.1699 33.0147 35.1193 33.0756Z" fill="#FFCF01"/>
<path d="M26.8574 46.6785C26.9146 46.9883 26.9926 47.2939 27.091 47.5932C27.2178 47.6416 27.3574 47.645 27.4864 47.603C27.6155 47.5609 27.7262 47.4759 27.8002 47.3621C27.8742 47.2483 27.9069 47.1125 27.8929 46.9775C27.879 46.8425 27.8192 46.7164 27.7235 46.6201C27.6648 46.5631 27.5947 46.519 27.5179 46.4908C27.441 46.4626 27.3591 46.4509 27.2774 46.4564C27.1958 46.4619 27.1162 46.4845 27.0438 46.5228C26.9715 46.5611 26.908 46.6141 26.8574 46.6785Z" fill="#FFCF01"/>
<path d="M29.2509 43.8678C29.1991 43.9279 29.1597 43.9976 29.1349 44.0729C29.11 44.1482 29.1003 44.2276 29.1062 44.3067C29.112 44.3857 29.1334 44.4629 29.1691 44.5337C29.2048 44.6045 29.2541 44.6675 29.3141 44.7193C29.3742 44.7711 29.4438 44.8105 29.5191 44.8353C29.5944 44.8601 29.6739 44.8699 29.7529 44.864C29.832 44.8581 29.9091 44.8367 29.9799 44.8011C30.0507 44.7654 30.1138 44.7161 30.1656 44.656C30.2681 44.5344 30.3185 44.3773 30.3057 44.2187C30.293 44.0602 30.2181 43.9131 30.0975 43.8095C30.0384 43.7569 29.9695 43.7166 29.8947 43.6911C29.8199 43.6655 29.7408 43.6551 29.6619 43.6606C29.583 43.666 29.5061 43.6872 29.4355 43.7227C29.3649 43.7583 29.3021 43.8077 29.2509 43.8678Z" fill="#FFCF01"/>
<path d="M31.5083 41.2213C31.4058 41.3429 31.3554 41.5001 31.3682 41.6587C31.3809 41.8172 31.4558 41.9643 31.5764 42.0679C31.6355 42.1205 31.7044 42.1607 31.7792 42.1863C31.854 42.2119 31.9331 42.2222 32.012 42.2168C32.0908 42.2114 32.1678 42.1902 32.2384 42.1546C32.309 42.1191 32.3717 42.0697 32.423 42.0095C32.4748 41.9495 32.5142 41.8798 32.539 41.8045C32.5638 41.7292 32.5736 41.6498 32.5677 41.5707C32.5618 41.4917 32.5405 41.4145 32.5048 41.3437C32.4691 41.2729 32.4198 41.2098 32.3598 41.1581C32.2997 41.1063 32.23 41.0669 32.1547 41.0421C32.0794 41.0173 32 41.0075 31.9209 41.0134C31.8419 41.0193 31.7647 41.0406 31.6939 41.0763C31.6231 41.112 31.56 41.1613 31.5083 41.2213Z" fill="#FFCF01"/>
<path d="M33.7661 38.5734C33.6636 38.695 33.6132 38.8521 33.626 39.0107C33.6387 39.1692 33.7136 39.3163 33.8343 39.4199C33.9575 39.5231 34.1162 39.5737 34.2763 39.5609C34.4365 39.5482 34.5852 39.4731 34.6906 39.3518C34.7931 39.2302 34.8435 39.0731 34.8307 38.9145C34.818 38.756 34.7431 38.6089 34.6225 38.5052C34.4993 38.4021 34.3405 38.3515 34.1804 38.3642C34.0202 38.377 33.8715 38.4521 33.7661 38.5734Z" fill="#FFCF01"/>
<path d="M36.0343 35.9271C35.9564 36.0178 35.9072 36.1296 35.893 36.2483C35.8787 36.367 35.9001 36.4873 35.9543 36.5938C36.0085 36.7004 36.0932 36.7884 36.1975 36.8468C36.3019 36.9052 36.4212 36.9312 36.5404 36.9216C36.6596 36.912 36.7732 36.8673 36.8669 36.793C36.9605 36.7187 37.0301 36.6182 37.0666 36.5044C37.103 36.3905 37.1049 36.2684 37.0718 36.1535C37.0388 36.0386 36.9723 35.9361 36.8809 35.859C36.8213 35.807 36.7518 35.7675 36.6767 35.7427C36.6015 35.718 36.5222 35.7085 36.4433 35.7148C36.3644 35.7211 36.2876 35.7432 36.2174 35.7797C36.1471 35.8161 36.0849 35.8663 36.0343 35.9271Z" fill="#FFCF01"/>
<path d="M22.3618 19.3459C22.2593 19.4675 22.2089 19.6247 22.2217 19.7832C22.2344 19.9418 22.3093 20.0889 22.4299 20.1925C22.5531 20.2956 22.7119 20.3463 22.872 20.3335C23.0321 20.3208 23.1809 20.2457 23.2862 20.1244C23.3895 20.0018 23.4398 19.8432 23.4261 19.6836C23.4124 19.5239 23.3359 19.3762 23.2133 19.2729C23.0907 19.1697 22.9321 19.1194 22.7724 19.1331C22.6127 19.1468 22.465 19.2233 22.3618 19.3459Z" fill="#FFCF01"/>
<path d="M25.544 17.477C25.6471 17.3538 25.6977 17.195 25.685 17.0349C25.6722 16.8747 25.5971 16.726 25.4758 16.6206C25.3543 16.5181 25.1971 16.4677 25.0385 16.4805C24.88 16.4932 24.7329 16.5681 24.6293 16.6888C24.5261 16.8119 24.4755 16.9707 24.4883 17.1308C24.501 17.291 24.5761 17.4397 24.6974 17.5451C24.819 17.6476 24.9761 17.698 25.1347 17.6852C25.2932 17.6725 25.4403 17.5976 25.544 17.477Z" fill="#FFCF01"/>
<path d="M25.5435 19.9874C25.4409 20.109 25.3906 20.2662 25.4033 20.4247C25.4161 20.5833 25.4909 20.7304 25.6116 20.834C25.7348 20.9371 25.8935 20.9878 26.0537 20.975C26.2138 20.9623 26.3626 20.8872 26.4679 20.7659C26.5704 20.6443 26.6208 20.4871 26.608 20.3286C26.5953 20.17 26.5204 20.0229 26.3998 19.9193C26.2766 19.8162 26.1178 19.7656 25.9577 19.7783C25.7975 19.791 25.6488 19.8661 25.5435 19.9874Z" fill="#FFCF01"/>
<path d="M27.8107 17.3406C27.7328 17.4313 27.6836 17.5431 27.6693 17.6618C27.6551 17.7805 27.6764 17.9008 27.7306 18.0073C27.7849 18.1139 27.8695 18.2019 27.9739 18.2603C28.0782 18.3186 28.1976 18.3447 28.3167 18.3351C28.4359 18.3255 28.5496 18.2807 28.6432 18.2064C28.7369 18.1321 28.8064 18.0317 28.8429 17.9178C28.8794 17.804 28.8812 17.6818 28.8482 17.5669C28.8151 17.452 28.7487 17.3495 28.6573 17.2725C28.5982 17.2192 28.5289 17.1785 28.4536 17.153C28.3783 17.1275 28.2986 17.1176 28.2193 17.124C28.14 17.1303 28.0629 17.1528 27.9926 17.1901C27.9224 17.2273 27.8605 17.2786 27.8107 17.3406Z" fill="#FFCF01"/>
<path d="M26.4585 22.839C26.356 22.9606 26.3056 23.1177 26.3184 23.2763C26.3311 23.4348 26.406 23.582 26.5266 23.6856C26.6498 23.7887 26.8086 23.8393 26.9687 23.8266C27.1289 23.8139 27.2776 23.7388 27.3829 23.6175C27.4855 23.4959 27.5358 23.3387 27.5231 23.1802C27.5103 23.0216 27.4355 22.8745 27.3148 22.7709C27.1916 22.6678 27.0329 22.6171 26.8727 22.6299C26.7126 22.6426 26.5638 22.7177 26.4585 22.839Z" fill="#FFCF01"/>
<path d="M29.6407 20.9695C29.7432 20.8479 29.7936 20.6908 29.7808 20.5322C29.7681 20.3737 29.6932 20.2266 29.5726 20.1229C29.5135 20.0704 29.4446 20.0301 29.3698 20.0046C29.295 19.979 29.2158 19.9686 29.137 19.9741C29.0581 19.9795 28.9811 20.0006 28.9106 20.0362C28.84 20.0718 28.7772 20.1211 28.726 20.1813C28.6229 20.3045 28.5722 20.4633 28.5849 20.6234C28.5977 20.7836 28.6728 20.9323 28.7941 21.0376C28.9157 21.1402 29.0728 21.1905 29.2314 21.1778C29.3899 21.165 29.537 21.0902 29.6407 20.9695Z" fill="#FFCF01"/>
<path d="M30.9634 17.5363C30.8608 17.6578 30.8105 17.815 30.8232 17.9736C30.836 18.1321 30.9108 18.2792 31.0315 18.3828C31.0905 18.4354 31.1595 18.4756 31.2343 18.5012C31.3091 18.5268 31.3882 18.5371 31.4671 18.5317C31.5459 18.5263 31.6229 18.5051 31.6935 18.4696C31.7641 18.434 31.8268 18.3846 31.8781 18.3245C31.9309 18.2646 31.9714 18.1949 31.997 18.1193C32.0227 18.0437 32.0332 17.9637 32.0278 17.8841C32.0223 17.8044 32.0011 17.7266 31.9654 17.6552C31.9297 17.5838 31.8802 17.5202 31.8197 17.4681C31.6965 17.365 31.5378 17.3144 31.3776 17.3271C31.2175 17.3399 31.0687 17.415 30.9634 17.5363Z" fill="#FFCF01"/>
<path d="M29.5238 23.3737C29.4207 23.4969 29.3701 23.6556 29.3828 23.8158C29.3955 23.9759 29.4706 24.1247 29.5919 24.23C29.7149 24.3159 29.8656 24.3529 30.0144 24.3337C30.1632 24.3146 30.2995 24.2406 30.3968 24.1264C30.494 24.0121 30.5452 23.8657 30.5403 23.7157C30.5354 23.5658 30.4749 23.423 30.3704 23.3153C30.3114 23.2627 30.2424 23.2225 30.1676 23.1969C30.0928 23.1714 30.0137 23.161 29.9348 23.1664C29.856 23.1719 29.779 23.193 29.7084 23.2286C29.6378 23.2642 29.5751 23.3135 29.5238 23.3737Z" fill="#FFCF01"/>
<path d="M32.7057 21.5151C32.7823 21.424 32.8302 21.3123 32.8435 21.1941C32.8568 21.0759 32.8348 20.9564 32.7803 20.8506C32.7259 20.7448 32.6413 20.6575 32.5374 20.5996C32.4334 20.5417 32.3147 20.5159 32.1961 20.5253C32.0775 20.5348 31.9643 20.5791 31.8708 20.6526C31.7773 20.7262 31.7077 20.8258 31.6706 20.9389C31.6336 21.0519 31.6308 21.1734 31.6626 21.288C31.6944 21.4027 31.7594 21.5054 31.8494 21.5832C31.9726 21.6863 32.1313 21.7369 32.2915 21.7242C32.4516 21.7114 32.6004 21.6364 32.7057 21.5151Z" fill="#FFCF01"/>
<path d="M30.4379 26.2249C30.3347 26.3481 30.2841 26.5068 30.2969 26.6669C30.3096 26.8271 30.3847 26.9758 30.506 27.0812C30.6276 27.1837 30.7847 27.2341 30.9433 27.2213C31.1018 27.2086 31.2489 27.1337 31.3526 27.0131C31.4557 26.8899 31.5063 26.7311 31.4936 26.571C31.4808 26.4108 31.4057 26.2621 31.2844 26.1567C31.1628 26.0542 31.0057 26.0038 30.8471 26.0166C30.6886 26.0294 30.5415 26.1042 30.4379 26.2249Z" fill="#FFCF01"/>
<path d="M33.6195 24.3679C33.7241 24.2388 33.773 24.0736 33.7557 23.9084C33.7384 23.7433 33.6561 23.5918 33.5271 23.4872C33.3981 23.3827 33.2328 23.3337 33.0676 23.3511C32.9024 23.3684 32.751 23.4506 32.6464 23.5797C32.5947 23.6436 32.556 23.717 32.5326 23.7959C32.5093 23.8747 32.5017 23.9574 32.5103 24.0391C32.5188 24.1209 32.5435 24.2002 32.5827 24.2725C32.6219 24.3447 32.675 24.4086 32.7389 24.4603C32.8028 24.5121 32.8762 24.5508 32.9551 24.5741C33.0339 24.5975 33.1166 24.6051 33.1984 24.5965C33.2801 24.5879 33.3594 24.5633 33.4317 24.5241C33.5039 24.4849 33.5678 24.4318 33.6195 24.3679Z" fill="#FFCF01"/>
<path d="M35.0313 21.7781C35.1214 21.8558 35.2326 21.9051 35.3507 21.9198C35.4688 21.9345 35.5886 21.9139 35.695 21.8607C35.8015 21.8075 35.8898 21.7239 35.9489 21.6206C36.008 21.5173 36.0352 21.3988 36.0271 21.2801C36.019 21.1613 35.976 21.0476 35.9034 20.9533C35.8309 20.8589 35.732 20.7882 35.6193 20.7499C35.5066 20.7116 35.3851 20.7075 35.2701 20.738C35.1551 20.7686 35.0517 20.8326 34.9729 20.9218L34.8269 21.2234C34.8106 21.3257 34.8207 21.4304 34.8565 21.5275C34.8923 21.6247 34.9525 21.711 35.0313 21.7781Z" fill="#FFCF01"/>
<path d="M37.2211 18.2741C37.1179 18.3973 37.0673 18.556 37.0801 18.7162C37.0928 18.8763 37.1679 19.025 37.2892 19.1304C37.4108 19.2329 37.5679 19.2833 37.7265 19.2706C37.885 19.2578 38.0321 19.183 38.1358 19.0623C38.1891 19.0033 38.2297 18.9339 38.2552 18.8586C38.2808 18.7833 38.2907 18.7036 38.2843 18.6243C38.2779 18.545 38.2554 18.4679 38.2181 18.3976C38.1809 18.3274 38.1297 18.2654 38.0676 18.2157C38.0086 18.1631 37.9397 18.1229 37.8649 18.0973C37.7901 18.0717 37.7109 18.0614 37.6321 18.0668C37.5532 18.0723 37.4762 18.0934 37.4056 18.129C37.3351 18.1646 37.2723 18.2139 37.2211 18.2741Z" fill="#FFCF01"/>
<path d="M40.5293 16.2505C40.5641 16.2089 40.5935 16.1631 40.6169 16.1143C40.3138 16.1726 40.0147 16.2507 39.7217 16.3478C39.8442 16.4353 39.9949 16.4738 40.1444 16.4558C40.2938 16.4378 40.4311 16.3645 40.5293 16.2505Z" fill="#FFCF01"/>
<path d="M33.5714 26.8381C33.4935 26.9288 33.4443 27.0406 33.4301 27.1593C33.4158 27.278 33.4372 27.3983 33.4914 27.5049C33.5456 27.6114 33.6303 27.6995 33.7346 27.7578C33.839 27.8162 33.9583 27.8422 34.0775 27.8326C34.1967 27.823 34.3103 27.7783 34.404 27.704C34.4977 27.6297 34.5672 27.5292 34.6037 27.4154C34.6401 27.3015 34.642 27.1794 34.6089 27.0645C34.5759 26.9496 34.5094 26.8471 34.418 26.77C34.2964 26.6675 34.1393 26.6171 33.9807 26.6299C33.8222 26.6426 33.6751 26.7175 33.5714 26.8381Z" fill="#FFCF01"/>
<path d="M36.8024 25.0082C36.879 24.9172 36.9269 24.8055 36.9402 24.6873C36.9535 24.569 36.9315 24.4495 36.877 24.3437C36.8225 24.238 36.738 24.1507 36.6341 24.0928C36.5301 24.0349 36.4114 24.0091 36.2928 24.0185C36.1742 24.0279 36.061 24.0722 35.9675 24.1458C35.874 24.2194 35.8044 24.319 35.7673 24.432C35.7303 24.5451 35.7275 24.6666 35.7593 24.7812C35.7911 24.8958 35.8561 24.9985 35.9461 25.0764C36.0692 25.1795 36.228 25.2301 36.3881 25.2174C36.5483 25.2046 36.697 25.1295 36.8024 25.0082Z" fill="#FFCF01"/>
<path d="M38.0962 21.5355C37.9936 21.6571 37.9433 21.8142 37.956 21.9728C37.9688 22.1313 38.0436 22.2784 38.1643 22.3821C38.224 22.4341 38.2934 22.4736 38.3686 22.4984C38.4437 22.5232 38.5231 22.5326 38.6019 22.5263C38.6808 22.52 38.7576 22.4979 38.8279 22.4614C38.8981 22.425 38.9603 22.3748 39.0109 22.314C39.0968 22.1909 39.1338 22.0403 39.1146 21.8915C39.0955 21.7427 39.0215 21.6064 38.9073 21.5091C38.793 21.4119 38.6466 21.3607 38.4966 21.3656C38.3467 21.3704 38.2039 21.431 38.0962 21.5355Z" fill="#FFCF01"/>
<path d="M40.354 18.8878C40.2515 19.0094 40.2011 19.1666 40.2139 19.3251C40.2266 19.4837 40.3015 19.6308 40.4221 19.7344C40.5453 19.8375 40.7041 19.8882 40.8642 19.8754C41.0244 19.8627 41.1731 19.7876 41.2785 19.6663C41.381 19.5447 41.4313 19.3875 41.4186 19.229C41.4058 19.0704 41.331 18.9234 41.2103 18.8197C41.0871 18.7166 40.9284 18.666 40.7682 18.6787C40.6081 18.6914 40.4593 18.7665 40.354 18.8878Z" fill="#FFCF01"/>
<path d="M42.816 16.9325C42.9163 17.0288 43.0468 17.0876 43.1854 17.0988C43.324 17.11 43.4623 17.073 43.5767 16.994C43.6912 16.915 43.7748 16.799 43.8135 16.6654C43.8523 16.5318 43.8436 16.389 43.7891 16.261C43.4696 16.1741 43.1445 16.1091 42.816 16.0664C42.7581 16.1226 42.712 16.19 42.6805 16.2643C42.649 16.3387 42.6328 16.4187 42.6328 16.4994C42.6328 16.5802 42.649 16.6602 42.6805 16.7345C42.712 16.8089 42.7581 16.8762 42.816 16.9325Z" fill="#FFCF01"/>
<path d="M34.4867 29.6803C34.3836 29.8035 34.3329 29.9623 34.3457 30.1224C34.3584 30.2826 34.4335 30.4313 34.5548 30.5367C34.6764 30.6392 34.8336 30.6896 34.9921 30.6768C35.1507 30.6641 35.2978 30.5892 35.4014 30.4685C35.5059 30.3472 35.558 30.1894 35.5461 30.0297C35.5342 29.87 35.4594 29.7216 35.3381 29.6171C35.2168 29.5126 35.059 29.4605 34.8993 29.4724C34.7396 29.4842 34.5912 29.559 34.4867 29.6803Z" fill="#FFCF01"/>
<path d="M37.6686 27.8207C37.7452 27.7297 37.7931 27.618 37.8064 27.4998C37.8197 27.3815 37.7977 27.262 37.7432 27.1562C37.6888 27.0505 37.6042 26.9631 37.5003 26.9053C37.3963 26.8474 37.2776 26.8216 37.159 26.831C37.0404 26.8404 36.9272 26.8847 36.8338 26.9583C36.7403 27.0319 36.6706 27.1314 36.6335 27.2445C36.5965 27.3576 36.5937 27.4791 36.6255 27.5937C36.6573 27.7083 36.7223 27.811 36.8123 27.8888C36.9355 27.9919 37.0942 28.0426 37.2544 28.0299C37.4145 28.0171 37.5633 27.942 37.6686 27.8207Z" fill="#FFCF01"/>
<path d="M39.0112 24.386C38.9087 24.5076 38.8583 24.6648 38.8711 24.8234C38.8838 24.9819 38.9587 25.129 39.0793 25.2327C39.139 25.2846 39.2084 25.3242 39.2836 25.3489C39.3588 25.3737 39.4381 25.3832 39.517 25.3769C39.5959 25.3705 39.6727 25.3485 39.7429 25.312C39.8131 25.2755 39.8754 25.2254 39.9259 25.1645C40.0118 25.0415 40.0488 24.8909 40.0297 24.7421C40.0105 24.5933 39.9366 24.4569 39.8223 24.3597C39.708 24.2624 39.5616 24.2113 39.4117 24.2161C39.2617 24.221 39.1189 24.2816 39.0112 24.386Z" fill="#FFCF01"/>
<path d="M41.2692 21.7385C41.2089 21.797 41.1614 21.8675 41.1299 21.9455C41.0984 22.0234 41.0835 22.1071 41.0863 22.1911C41.089 22.2752 41.1093 22.3577 41.1458 22.4335C41.1823 22.5092 41.2342 22.5765 41.2982 22.631C41.3623 22.6855 41.437 22.726 41.5176 22.7499C41.5982 22.7738 41.6829 22.7807 41.7663 22.7699C41.8497 22.7592 41.9299 22.7311 42.0019 22.6876C42.0738 22.644 42.1358 22.5859 42.1839 22.5169C42.2365 22.4579 42.2767 22.389 42.3023 22.3142C42.3279 22.2394 42.3382 22.1602 42.3328 22.0813C42.3274 22.0025 42.3062 21.9255 42.2706 21.8549C42.2351 21.7844 42.1857 21.7216 42.1255 21.6703C42.0651 21.6181 41.9948 21.5783 41.9189 21.5534C41.8429 21.5285 41.7628 21.519 41.6831 21.5253C41.6035 21.5317 41.5258 21.5538 41.4548 21.5904C41.3837 21.627 41.3207 21.6773 41.2692 21.7385Z" fill="#FFCF01"/>
<path d="M43.6622 18.9369C43.5843 19.0276 43.5352 19.1394 43.5209 19.2581C43.5067 19.3768 43.528 19.4971 43.5822 19.6036C43.6364 19.7102 43.7211 19.7982 43.8254 19.8566C43.9298 19.9149 44.0491 19.941 44.1683 19.9314C44.2875 19.9218 44.4011 19.877 44.4948 19.8027C44.5885 19.7284 44.658 19.628 44.6945 19.5141C44.7309 19.4003 44.7328 19.2781 44.6997 19.1632C44.6667 19.0483 44.6003 18.9459 44.5088 18.8688C44.4492 18.8168 44.3797 18.7772 44.3046 18.7525C44.2294 18.7277 44.1501 18.7182 44.0712 18.7246C43.9923 18.7309 43.9155 18.753 43.8453 18.7894C43.775 18.8259 43.7128 18.876 43.6622 18.9369Z" fill="#FFCF01"/>
<path d="M37.542 30.2257C37.4654 30.3168 37.4174 30.4284 37.4042 30.5467C37.3909 30.6649 37.4128 30.7844 37.4673 30.8902C37.5218 30.996 37.6063 31.0833 37.7102 31.1412C37.8142 31.199 37.9329 31.2249 38.0515 31.2154C38.1701 31.206 38.2833 31.1617 38.3768 31.0881C38.4703 31.0145 38.54 30.915 38.577 30.8019C38.6141 30.6889 38.6169 30.5674 38.5851 30.4527C38.5533 30.3381 38.4883 30.2354 38.3983 30.1576C38.2751 30.0545 38.1163 30.0038 37.9562 30.0166C37.796 30.0293 37.6473 30.1044 37.542 30.2257Z" fill="#FFCF01"/>
<path d="M40.6948 28.3558C40.7727 28.2651 40.8219 28.1533 40.8361 28.0346C40.8504 27.9159 40.829 27.7956 40.7748 27.6891C40.7206 27.5825 40.6359 27.4945 40.5316 27.4361C40.4272 27.3778 40.3079 27.3517 40.1887 27.3613C40.0695 27.3709 39.9559 27.4157 39.8622 27.49C39.7685 27.5643 39.6991 27.6647 39.6626 27.7786C39.6261 27.8924 39.6242 28.0145 39.6573 28.1294C39.6903 28.2444 39.7568 28.3468 39.8482 28.4239C39.9698 28.5265 40.1269 28.5768 40.2855 28.5641C40.444 28.5513 40.5911 28.4765 40.6948 28.3558Z" fill="#FFCF01"/>
<path d="M42.0669 24.9309C41.9644 25.0525 41.914 25.2096 41.9267 25.3682C41.9395 25.5267 42.0144 25.6738 42.135 25.7775C42.2582 25.8806 42.4169 25.9312 42.5771 25.9185C42.7372 25.9057 42.886 25.8306 42.9913 25.7093C43.0945 25.5867 43.1449 25.4282 43.1312 25.2685C43.1175 25.1088 43.0409 24.9611 42.9183 24.8579C42.7958 24.7546 42.6372 24.7043 42.4775 24.718C42.3178 24.7317 42.1701 24.8083 42.0669 24.9309Z" fill="#FFCF01"/>
<path d="M44.3339 22.2737C44.2821 22.3337 44.2427 22.4034 44.2179 22.4787C44.193 22.554 44.1833 22.6334 44.1892 22.7125C44.195 22.7916 44.2164 22.8687 44.2521 22.9395C44.2878 23.0103 44.3371 23.0734 44.3971 23.1251C44.4572 23.1769 44.5269 23.2163 44.6021 23.2411C44.6774 23.266 44.7569 23.2757 44.8359 23.2699C44.915 23.264 44.9922 23.2426 45.063 23.2069C45.1337 23.1712 45.1968 23.122 45.2486 23.0619C45.3517 22.9387 45.4023 22.7799 45.3896 22.6198C45.3768 22.4597 45.3018 22.3109 45.1805 22.2056C45.0589 22.103 44.9017 22.0527 44.7431 22.0654C44.5846 22.0782 44.4375 22.153 44.3339 22.2737Z" fill="#FFCF01"/>
<path d="M47.6429 20.2603C47.746 20.1371 47.7966 19.9784 47.7839 19.8182C47.7712 19.6581 47.6961 19.5093 47.5748 19.404C47.5141 19.3522 47.4438 19.313 47.3679 19.2884C47.292 19.2638 47.212 19.2544 47.1325 19.2607C47.053 19.267 46.9755 19.289 46.9044 19.3252C46.8334 19.3615 46.7702 19.4114 46.7184 19.4721C46.6667 19.5328 46.6274 19.6031 46.6028 19.679C46.5782 19.7549 46.5688 19.8349 46.5752 19.9144C46.5815 19.9939 46.6034 20.0714 46.6397 20.1424C46.6759 20.2135 46.7259 20.2767 46.7866 20.3284C46.9098 20.4316 47.0685 20.4822 47.2287 20.4694C47.3888 20.4567 47.5376 20.3816 47.6429 20.2603Z" fill="#FFCF01"/>
<path d="M38.457 33.0753C38.3804 33.1664 38.3325 33.278 38.3192 33.3963C38.3059 33.5145 38.3279 33.634 38.3823 33.7398C38.4368 33.8455 38.5213 33.9329 38.6253 33.9907C38.7292 34.0486 38.848 34.0744 38.9666 34.065C39.0852 34.0556 39.1984 34.0113 39.2919 33.9377C39.3854 33.8642 39.455 33.7646 39.492 33.6515C39.5291 33.5385 39.5319 33.417 39.5001 33.3023C39.4683 33.1877 39.4033 33.085 39.3133 33.0072C39.1901 32.9041 39.0314 32.8535 38.8712 32.8662C38.7111 32.8789 38.5623 32.954 38.457 33.0753Z" fill="#FFCF01"/>
<path d="M41.6674 31.2074C41.7453 31.1167 41.7945 31.0049 41.8088 30.8862C41.823 30.7675 41.8017 30.6472 41.7475 30.5406C41.6932 30.4341 41.6086 30.346 41.5042 30.2877C41.3999 30.2293 41.2805 30.2033 41.1614 30.2129C41.0422 30.2225 40.9286 30.2672 40.8349 30.3415C40.7412 30.4158 40.6717 30.5163 40.6352 30.6301C40.5987 30.744 40.5969 30.8661 40.6299 30.981C40.663 31.0959 40.7294 31.1984 40.8208 31.2755C40.9424 31.378 41.0996 31.4284 41.2581 31.4156C41.4167 31.4029 41.5638 31.328 41.6674 31.2074Z" fill="#FFCF01"/>
<path d="M42.982 27.7815C42.8794 27.903 42.829 28.0602 42.8418 28.2188C42.8545 28.3773 42.9294 28.5244 43.0501 28.628C43.1733 28.7312 43.332 28.7818 43.4921 28.769C43.6523 28.7563 43.801 28.6812 43.9064 28.5599C44.0096 28.4373 44.0599 28.2788 44.0463 28.1191C44.0326 27.9594 43.956 27.8117 43.8334 27.7085C43.7108 27.6052 43.5522 27.5549 43.3926 27.5686C43.2329 27.5823 43.0852 27.6589 42.982 27.7815Z" fill="#FFCF01"/>
<path d="M46.1632 25.9139C46.2663 25.7907 46.317 25.632 46.3042 25.4718C46.2915 25.3117 46.2164 25.1629 46.0951 25.0576C46.0041 24.981 45.8924 24.9331 45.7742 24.9198C45.656 24.9065 45.5364 24.9285 45.4307 24.9829C45.3249 25.0374 45.2376 25.1219 45.1797 25.2259C45.1218 25.3298 45.096 25.4486 45.1054 25.5672C45.1149 25.6858 45.1591 25.7989 45.2327 25.8924C45.3063 25.9859 45.4059 26.0556 45.5189 26.0927C45.632 26.1297 45.7535 26.1325 45.8681 26.1007C45.9828 26.0689 46.0854 26.0039 46.1632 25.9139Z" fill="#FFCF01"/>
<path d="M47.6423 22.3235C47.5894 22.3833 47.549 22.4531 47.5233 22.5287C47.4976 22.6043 47.4872 22.6842 47.4926 22.7639C47.498 22.8435 47.5192 22.9213 47.5549 22.9927C47.5907 23.0641 47.6402 23.1277 47.7007 23.1798C47.7614 23.2316 47.8316 23.2709 47.9075 23.2955C47.9834 23.32 48.0634 23.3294 48.1429 23.3231C48.2225 23.3168 48.2999 23.2949 48.371 23.2586C48.442 23.2223 48.5052 23.1724 48.557 23.1117C48.6087 23.051 48.648 22.9807 48.6726 22.9048C48.6972 22.8289 48.7066 22.7489 48.7003 22.6694C48.694 22.5899 48.672 22.5124 48.6357 22.4414C48.5995 22.3703 48.5496 22.3071 48.4889 22.2554C48.3673 22.1529 48.2101 22.1025 48.0516 22.1152C47.893 22.128 47.7459 22.2028 47.6423 22.3235Z" fill="#FFCF01"/>
<path d="M28.2969 49.6187C28.2175 49.5553 28.1241 49.5119 28.0244 49.4922C28.1704 49.6965 28.3358 49.9009 28.5012 50.0955C28.5041 50.0059 28.4873 49.9168 28.452 49.8344C28.4166 49.752 28.3637 49.6784 28.2969 49.6187Z" fill="#FFCF01"/>
<path d="M29.7086 47.0406C29.6566 47.1002 29.6171 47.1697 29.5923 47.2448C29.5676 47.32 29.5581 47.3993 29.5644 47.4782C29.5708 47.5571 29.5928 47.6339 29.6293 47.7041C29.6657 47.7743 29.7159 47.8366 29.7767 47.8872C29.8674 47.9651 29.9792 48.0143 30.0979 48.0285C30.2166 48.0428 30.3369 48.0214 30.4435 47.9672C30.55 47.913 30.6381 47.8283 30.6964 47.724C30.7548 47.6196 30.7808 47.5003 30.7712 47.3811C30.7616 47.2619 30.7169 47.1483 30.6426 47.0546C30.5683 46.9609 30.4678 46.8914 30.354 46.8549C30.2401 46.8185 30.118 46.8166 30.0031 46.8497C29.8882 46.8827 29.7857 46.9492 29.7086 47.0406Z" fill="#FFCF01"/>
<path d="M32.1024 44.2376C32.0499 44.2967 32.0096 44.3656 31.984 44.4404C31.9585 44.5152 31.9481 44.5943 31.9536 44.6732C31.959 44.752 31.9801 44.829 32.0157 44.8996C32.0513 44.9702 32.1006 45.033 32.1608 45.0842C32.284 45.1873 32.4427 45.238 32.6029 45.2252C32.763 45.2125 32.9118 45.1374 33.0171 45.0161C33.103 44.8931 33.14 44.7424 33.1208 44.5936C33.1017 44.4448 33.0277 44.3085 32.9135 44.2113C32.7992 44.114 32.6528 44.0628 32.5029 44.0677C32.3529 44.0726 32.2101 44.1332 32.1024 44.2376Z" fill="#FFCF01"/>
<path d="M34.3597 41.552C34.2566 41.6752 34.206 41.834 34.2187 41.9941C34.2315 42.1542 34.3066 42.303 34.4279 42.4083C34.5494 42.5109 34.7066 42.5612 34.8652 42.5485C35.0237 42.5357 35.1708 42.4609 35.2744 42.3402C35.3776 42.217 35.4282 42.0583 35.4154 41.8981C35.4027 41.738 35.3276 41.5892 35.2063 41.4839C35.0847 41.3813 34.9276 41.331 34.769 41.3437C34.6105 41.3565 34.4634 41.4313 34.3597 41.552Z" fill="#FFCF01"/>
<path d="M36.6179 38.934C36.5133 39.0566 36.4618 39.2157 36.4746 39.3763C36.4873 39.5369 36.5634 39.6858 36.686 39.7904C36.8086 39.8949 36.9677 39.9464 37.1283 39.9336C37.2888 39.9209 37.4378 39.8448 37.5423 39.7222C37.5941 39.6615 37.6333 39.5912 37.6579 39.5154C37.6825 39.4395 37.6919 39.3595 37.6856 39.28C37.6793 39.2004 37.6573 39.123 37.6211 39.0519C37.5848 38.9809 37.5349 38.9177 37.4742 38.8659C37.4135 38.8141 37.3432 38.7749 37.2673 38.7503C37.1914 38.7257 37.1114 38.7163 37.0319 38.7226C36.9524 38.7289 36.8749 38.7509 36.8038 38.7871C36.7328 38.8234 36.6696 38.8733 36.6179 38.934Z" fill="#FFCF01"/>
<path d="M38.8849 36.2864C38.807 36.3771 38.7578 36.4889 38.7436 36.6076C38.7293 36.7263 38.7506 36.8465 38.8049 36.9531C38.8591 37.0597 38.9437 37.1477 39.0481 37.2061C39.1524 37.2644 39.2718 37.2904 39.3909 37.2809C39.5101 37.2713 39.6238 37.2265 39.7175 37.1522C39.8111 37.0779 39.8806 36.9775 39.9171 36.8636C39.9536 36.7498 39.9554 36.6276 39.9224 36.5127C39.8893 36.3978 39.8229 36.2953 39.7315 36.2183C39.6099 36.1157 39.4527 36.0654 39.2942 36.0781C39.1356 36.0909 38.9886 36.1657 38.8849 36.2864Z" fill="#FFCF01"/>
<path d="M30.623 49.89C30.5698 49.9491 30.5291 50.0184 30.5036 50.0937C30.478 50.169 30.4682 50.2487 30.4745 50.328C30.4809 50.4073 30.5034 50.4844 30.5407 50.5547C30.5779 50.6249 30.6291 50.6869 30.6912 50.7366C30.7497 50.797 30.8202 50.8444 30.8982 50.8759C30.9761 50.9074 31.0598 50.9223 31.1439 50.9196C31.2279 50.9168 31.3104 50.8966 31.3862 50.8601C31.4619 50.8236 31.5292 50.7716 31.5837 50.7076C31.6382 50.6436 31.6787 50.5688 31.7026 50.4882C31.7266 50.4076 31.7334 50.3229 31.7226 50.2395C31.7119 50.1561 31.6838 50.0759 31.6403 50.004C31.5967 49.9321 31.5386 49.87 31.4696 49.8219C31.41 49.7699 31.3405 49.7303 31.2654 49.7056C31.1902 49.6808 31.1109 49.6713 31.032 49.6777C30.9531 49.684 30.8763 49.7061 30.8061 49.7426C30.7359 49.779 30.6736 49.8292 30.623 49.89Z" fill="#FFCF01"/>
<path d="M33.0073 47.0881C32.9048 47.2097 32.8544 47.3669 32.8672 47.5254C32.8799 47.6839 32.9548 47.831 33.0755 47.9347C33.1987 48.0378 33.3574 48.0884 33.5175 48.0757C33.6777 48.0629 33.8264 47.9878 33.9318 47.8666C34.035 47.744 34.0853 47.5854 34.0716 47.4257C34.058 47.266 33.9814 47.1183 33.8588 47.0151C33.7362 46.9119 33.5776 46.8616 33.418 46.8753C33.2583 46.8889 33.1106 46.9655 33.0073 47.0881Z" fill="#FFCF01"/>
<path d="M35.2748 44.4709C35.1717 44.5941 35.121 44.7529 35.1338 44.913C35.1465 45.0732 35.2216 45.2219 35.3429 45.3273C35.4645 45.4298 35.6217 45.4802 35.7802 45.4674C35.9387 45.4547 36.0858 45.3798 36.1895 45.2592C36.2926 45.136 36.3432 44.9772 36.3305 44.8171C36.3177 44.6569 36.2426 44.5082 36.1214 44.4028C35.9998 44.3003 35.8426 44.2499 35.684 44.2627C35.5255 44.2754 35.3784 44.3503 35.2748 44.4709Z" fill="#FFCF01"/>
<path d="M38.3885 41.7172C38.2653 41.6141 38.1066 41.5634 37.9464 41.5761C37.7863 41.5889 37.6375 41.664 37.5322 41.7853C37.4556 41.8763 37.4077 41.988 37.3944 42.1062C37.3811 42.2245 37.4031 42.344 37.4576 42.4498C37.512 42.5555 37.5965 42.6429 37.7005 42.7007C37.8044 42.7586 37.9232 42.7844 38.0418 42.775C38.1604 42.7656 38.2735 42.7213 38.367 42.6477C38.4605 42.5741 38.5302 42.4746 38.5673 42.3615C38.6043 42.2484 38.6071 42.1269 38.5753 42.0123C38.5435 41.8977 38.4785 41.795 38.3885 41.7172Z" fill="#FFCF01"/>
<path d="M39.7989 39.1379C39.721 39.2286 39.6719 39.3404 39.6576 39.4591C39.6434 39.5778 39.6647 39.6981 39.7189 39.8047C39.7731 39.9112 39.8578 39.9993 39.9622 40.0576C40.0665 40.116 40.1858 40.142 40.305 40.1324C40.4242 40.1229 40.5378 40.0781 40.6315 40.0038C40.7252 39.9295 40.7947 39.829 40.8312 39.7152C40.8677 39.6013 40.8695 39.4792 40.8365 39.3643C40.8034 39.2494 40.737 39.1469 40.6456 39.0698C40.524 38.9673 40.3668 38.9169 40.2083 38.9297C40.0497 38.9424 39.9026 39.0173 39.7989 39.1379Z" fill="#FFCF01"/>
<path d="M33.6791 50.4269C33.576 50.5501 33.5253 50.7088 33.5381 50.869C33.5508 51.0291 33.6259 51.1779 33.7472 51.2832C33.8079 51.335 33.8782 51.3743 33.9541 51.3988C34.03 51.4234 34.1099 51.4328 34.1895 51.4265C34.269 51.4202 34.3465 51.3982 34.4175 51.362C34.4886 51.3257 34.5518 51.2758 34.6035 51.2151C34.6553 51.1544 34.6946 51.0841 34.7192 51.0082C34.7437 50.9323 34.7532 50.8523 34.7468 50.7728C34.7405 50.6933 34.7186 50.6158 34.6823 50.5448C34.646 50.4737 34.5961 50.4105 34.5354 50.3588C34.4122 50.2556 34.2535 50.205 34.0933 50.2178C33.9332 50.2305 33.7844 50.3056 33.6791 50.4269Z" fill="#FFCF01"/>
<path d="M36.0716 47.6243C35.9685 47.7475 35.9179 47.9062 35.9306 48.0664C35.9434 48.2265 36.0185 48.3753 36.1398 48.4806C36.2614 48.5831 36.4185 48.6335 36.5771 48.6208C36.7356 48.608 36.8827 48.5331 36.9864 48.4125C37.0895 48.2893 37.1401 48.1306 37.1274 47.9704C37.1146 47.8103 37.0395 47.6615 36.9182 47.5562C36.7966 47.4536 36.6395 47.4033 36.4809 47.416C36.3224 47.4288 36.1753 47.5036 36.0716 47.6243Z" fill="#FFCF01"/>
<path d="M38.33 44.9757C38.2535 45.0668 38.2055 45.1784 38.1922 45.2967C38.179 45.4149 38.2009 45.5344 38.2554 45.6402C38.3099 45.746 38.3944 45.8333 38.4983 45.8912C38.6023 45.949 38.721 45.9749 38.8396 45.9654C38.9582 45.956 39.0714 45.9117 39.1649 45.8381C39.2584 45.7645 39.3281 45.665 39.3651 45.5519C39.4022 45.4389 39.405 45.3174 39.3732 45.2027C39.3414 45.0881 39.2764 44.9854 39.1864 44.9076C39.0632 44.8045 38.9044 44.7538 38.7443 44.7666C38.5841 44.7793 38.4354 44.8544 38.33 44.9757Z" fill="#FFCF01"/>
<path d="M40.5972 42.3299C40.4946 42.4515 40.4443 42.6087 40.457 42.7672C40.4698 42.9258 40.5446 43.0729 40.6653 43.1765C40.7012 43.2115 40.7444 43.238 40.7918 43.2543C40.7334 42.9527 40.675 42.6413 40.6069 42.2812L40.5972 42.3299Z" fill="#FFCF01"/>
<path d="M42.8554 39.6739C42.7789 39.765 42.7309 39.8767 42.7176 39.9949C42.7044 40.1131 42.7263 40.2326 42.7808 40.3384C42.8353 40.4442 42.9198 40.5315 43.0237 40.5894C43.1277 40.6472 43.2464 40.6731 43.365 40.6636C43.4836 40.6542 43.5968 40.6099 43.6903 40.5364C43.7838 40.4628 43.8534 40.3632 43.8905 40.2501C43.9276 40.1371 43.9304 40.0156 43.8986 39.9009C43.8667 39.7863 43.8018 39.6836 43.7118 39.6058C43.5886 39.5027 43.4298 39.4521 43.2697 39.4648C43.1095 39.4776 42.9608 39.5527 42.8554 39.6739Z" fill="#FFCF01"/>
<path d="M37.8342 50.4058C37.7126 50.3032 37.5555 50.2529 37.3969 50.2656C37.2384 50.2784 37.0913 50.3532 36.9877 50.4739C36.8845 50.5971 36.8339 50.7558 36.8467 50.916C36.8594 51.0761 36.9345 51.2249 37.0558 51.3302C37.126 51.3899 37.2092 51.4324 37.2987 51.4544C37.3882 51.4763 37.4816 51.4771 37.5715 51.4567L37.9316 51.2232C38.0219 51.0999 38.062 50.947 38.044 50.7953C38.0259 50.6436 37.951 50.5044 37.8342 50.4058Z" fill="#FFCF01"/>
<path d="M39.2447 47.8282C39.1421 47.9498 39.0917 48.107 39.1045 48.2656C39.1172 48.4241 39.1921 48.5712 39.3127 48.6748C39.4359 48.7779 39.5947 48.8286 39.7548 48.8158C39.915 48.8031 40.0637 48.728 40.1691 48.6067C40.2716 48.4851 40.322 48.3279 40.3092 48.1694C40.2965 48.0109 40.2216 47.8638 40.101 47.7601C39.9778 47.657 39.819 47.6064 39.6589 47.6191C39.4987 47.6319 39.35 47.707 39.2447 47.8282Z" fill="#FFCF01"/>
<path d="M44.5873 42.4564C44.4641 42.3533 44.3053 42.3027 44.1452 42.3154C43.985 42.3281 43.8363 42.4032 43.7309 42.5245C43.6544 42.6155 43.607 42.7274 43.5947 42.8456L44.1007 42.9819C44.3245 42.9819 44.5386 43.0695 44.7624 43.0987C44.7995 42.9862 44.8026 42.8654 44.7715 42.7512C44.7403 42.637 44.6763 42.5345 44.5873 42.4564Z" fill="#FFCF01"/>
<path d="M46.7576 43.0005L46.6895 43.1076C46.9911 43.0589 47.2928 43.0005 47.5944 42.9227C47.4713 42.8266 47.3161 42.7811 47.1606 42.7956C47.005 42.8101 46.8609 42.8834 46.7576 43.0005Z" fill="#FFCF01"/>
<path d="M41.3076 33.4366C41.231 33.5277 41.1831 33.6394 41.1698 33.7576C41.1565 33.8758 41.1785 33.9954 41.2329 34.1011C41.2874 34.2069 41.3719 34.2942 41.4759 34.3521C41.5798 34.4099 41.6986 34.4358 41.8172 34.4264C41.9358 34.4169 42.0489 34.3726 42.1424 34.2991C42.2359 34.2255 42.3056 34.1259 42.3427 34.0128C42.3797 33.8998 42.3825 33.7783 42.3507 33.6637C42.3189 33.549 42.2539 33.4463 42.1639 33.3685C42.0407 33.2654 41.882 33.2148 41.7218 33.2275C41.5617 33.2403 41.4129 33.3154 41.3076 33.4366Z" fill="#FFCF01"/>
<path d="M44.4895 31.5775C44.5927 31.4543 44.6433 31.2956 44.6305 31.1354C44.6178 30.9753 44.5427 30.8265 44.4214 30.7212C44.2998 30.6186 44.1427 30.5683 43.9841 30.581C43.8256 30.5938 43.6785 30.6686 43.5748 30.7893C43.5228 30.849 43.4833 30.9184 43.4585 30.9936C43.4338 31.0687 43.4243 31.1481 43.4306 31.2269C43.437 31.3058 43.459 31.3826 43.4955 31.4529C43.5319 31.5231 43.5821 31.5853 43.643 31.6359C43.7633 31.7396 43.9197 31.7916 44.0782 31.7807C44.2368 31.7698 44.3845 31.6968 44.4895 31.5775Z" fill="#FFCF01"/>
<path d="M45.8334 28.1418C45.7335 28.2616 45.6838 28.4154 45.6949 28.571C45.7059 28.7266 45.7768 28.8718 45.8926 28.9763C46.0084 29.0808 46.1601 29.1364 46.316 29.1314C46.4719 29.1264 46.6198 29.0612 46.7287 28.9495L46.2713 28.8814C46.4757 28.6965 46.6703 28.5019 46.8552 28.317C46.8175 28.2229 46.7573 28.1393 46.68 28.0737C46.5584 27.9712 46.4013 27.9208 46.2427 27.9336C46.0842 27.9463 45.9371 28.0212 45.8334 28.1418Z" fill="#FFCF01"/>
<path d="M48.0993 25.4856C48.0464 25.5454 48.006 25.6152 47.9803 25.6908C47.9546 25.7663 47.9442 25.8463 47.9496 25.9259C47.9551 26.0056 47.9763 26.0834 48.012 26.1548C48.0477 26.2262 48.0972 26.2898 48.1577 26.3419L48.255 26.4003C48.4365 26.0478 48.5863 25.6798 48.7026 25.3007C48.5949 25.2717 48.4811 25.2736 48.3744 25.3063C48.2676 25.339 48.1723 25.4012 48.0993 25.4856Z" fill="#FFCF01"/>
<path d="M42.223 36.2865C42.1199 36.4096 42.0693 36.5684 42.082 36.7285C42.0947 36.8887 42.1698 37.0374 42.2911 37.1428C42.4202 37.2473 42.5854 37.2963 42.7506 37.2789C42.9158 37.2616 43.0673 37.1794 43.1718 37.0503C43.2763 36.9213 43.3253 36.756 43.3079 36.5909C43.2906 36.4257 43.2084 36.2742 43.0793 36.1697C42.9501 36.0721 42.7875 36.0296 42.6271 36.0515C42.4667 36.0734 42.3214 36.1578 42.223 36.2865Z" fill="#FFCF01"/>
<path d="M45.4046 34.4185C45.4905 34.2954 45.5275 34.1448 45.5083 33.996C45.4891 33.8472 45.4152 33.7108 45.3009 33.6136C45.1867 33.5164 45.0403 33.4652 44.8903 33.47C44.7403 33.4749 44.5976 33.5355 44.4899 33.64C44.4379 33.6996 44.3983 33.7691 44.3736 33.8442C44.3488 33.9194 44.3393 33.9987 44.3457 34.0776C44.352 34.1565 44.3741 34.2333 44.4105 34.3035C44.447 34.3738 44.4971 34.436 44.558 34.4866C44.617 34.5398 44.6863 34.5805 44.7617 34.6061C44.837 34.6316 44.9167 34.6415 44.996 34.6351C45.0753 34.6287 45.1524 34.6062 45.2227 34.569C45.2929 34.5317 45.3548 34.4805 45.4046 34.4185Z" fill="#FFCF01"/>
<path d="M46.7477 30.9924C46.6874 31.051 46.6399 31.1215 46.6084 31.1994C46.5769 31.2774 46.562 31.3611 46.5648 31.4451C46.5675 31.5292 46.5878 31.6117 46.6243 31.6875C46.6608 31.7632 46.7127 31.8305 46.7767 31.885C46.8408 31.9395 46.9155 31.98 46.9961 32.0039C47.0767 32.0278 47.1614 32.0346 47.2448 32.0239C47.3282 32.0131 47.4085 31.9851 47.4804 31.9415C47.5523 31.898 47.6143 31.8399 47.6624 31.7709C47.7144 31.7113 47.754 31.6418 47.7787 31.5667C47.8035 31.4915 47.813 31.4122 47.8067 31.3333C47.8003 31.2544 47.7783 31.1776 47.7418 31.1074C47.7053 31.0371 47.6552 30.9749 47.5943 30.9243C47.4727 30.8218 47.3156 30.7714 47.157 30.7842C46.9985 30.7969 46.8514 30.8718 46.7477 30.9924Z" fill="#FFCF01"/>
<path d="M45.2878 36.8312C45.2274 36.8897 45.18 36.9602 45.1485 37.0382C45.117 37.1161 45.1021 37.1998 45.1048 37.2839C45.1075 37.3679 45.1278 37.4504 45.1643 37.5262C45.2008 37.6019 45.2528 37.6692 45.3168 37.7237C45.3808 37.7782 45.4555 37.8187 45.5362 37.8426C45.6168 37.8666 45.7015 37.8734 45.7849 37.8626C45.8683 37.8519 45.9485 37.8238 46.0204 37.7803C46.0923 37.7367 46.1543 37.6786 46.2025 37.6097C46.2628 37.5511 46.3103 37.4806 46.3418 37.4026C46.3733 37.3247 46.3882 37.241 46.3854 37.157C46.3827 37.0729 46.3624 36.9904 46.3259 36.9146C46.2894 36.8389 46.2375 36.7716 46.1735 36.7171C46.1094 36.6626 46.0347 36.6221 45.9541 36.5982C45.8735 36.5743 45.7888 36.5674 45.7054 36.5782C45.622 36.5889 45.5418 36.617 45.4698 36.6606C45.3979 36.7041 45.3359 36.7622 45.2878 36.8312Z" fill="#FFCF01"/>
<path d="M48.4796 34.963C48.5329 34.9039 48.5735 34.8346 48.5991 34.7593C48.6246 34.684 48.6345 34.6042 48.6281 34.525C48.6217 34.4457 48.5992 34.3685 48.562 34.2983C48.5247 34.228 48.4735 34.1661 48.4115 34.1163C48.3208 34.0384 48.209 33.9893 48.0903 33.975C47.9716 33.9608 47.8513 33.9821 47.7447 34.0363C47.6382 34.0905 47.5501 34.1752 47.4918 34.2795C47.4334 34.3839 47.4074 34.5032 47.417 34.6224C47.4266 34.7416 47.4713 34.8552 47.5456 34.9489C47.6199 35.0426 47.7204 35.1121 47.8342 35.1486C47.9481 35.185 48.0702 35.1869 48.1851 35.1538C48.3 35.1208 48.4025 35.0544 48.4796 34.963Z" fill="#FFCF01"/>
<path d="M49.8122 31.5286C49.7587 31.5885 49.7179 31.6586 49.6922 31.7347C49.6666 31.8108 49.6566 31.8913 49.663 31.9713C49.6694 32.0514 49.6919 32.1293 49.7293 32.2004C49.7666 32.2715 49.818 32.3342 49.8804 32.3849C50.0019 32.4874 50.1591 32.5378 50.3177 32.5251C50.4762 32.5123 50.6233 32.4375 50.7269 32.3168C50.8301 32.1936 50.8807 32.0349 50.8679 31.8747C50.8552 31.7146 50.7801 31.5658 50.6588 31.4605C50.5372 31.3579 50.3801 31.3075 50.2215 31.3203C50.063 31.3331 49.9159 31.4079 49.8122 31.5286Z" fill="#FFCF01"/>
<path d="M46.2018 39.6831C46.1498 39.7428 46.1102 39.8123 46.0855 39.8874C46.0607 39.9626 46.0512 40.0419 46.0576 40.1208C46.0639 40.1997 46.086 40.2765 46.1224 40.3467C46.1589 40.4169 46.209 40.4792 46.2699 40.5298C46.3606 40.6077 46.4724 40.6568 46.5911 40.6711C46.7098 40.6853 46.8301 40.664 46.9366 40.6098C47.0432 40.5556 47.1312 40.4709 47.1896 40.3665C47.2479 40.2622 47.274 40.1429 47.2644 40.0237C47.2548 39.9045 47.21 39.7909 47.1357 39.6972C47.0614 39.6035 46.961 39.534 46.8471 39.4975C46.7333 39.461 46.6112 39.4592 46.4963 39.4923C46.3814 39.5253 46.2789 39.5917 46.2018 39.6831Z" fill="#FFCF01"/>
<path d="M49.3744 37.815C49.4276 37.756 49.4683 37.6867 49.4938 37.6113C49.5194 37.536 49.5293 37.4563 49.5229 37.377C49.5165 37.2977 49.494 37.2206 49.4567 37.1503C49.4195 37.0801 49.3683 37.0182 49.3062 36.9684C49.2466 36.9164 49.1771 36.8769 49.102 36.8521C49.0268 36.8273 48.9475 36.8178 48.8686 36.8242C48.7897 36.8305 48.7129 36.8526 48.6427 36.8891C48.5724 36.9255 48.5102 36.9756 48.4596 37.0365C48.3993 37.095 48.3518 37.1656 48.3203 37.2435C48.2888 37.3215 48.274 37.4052 48.2767 37.4892C48.2794 37.5732 48.2997 37.6558 48.3362 37.7315C48.3727 37.8073 48.4246 37.8746 48.4887 37.9291C48.5527 37.9836 48.6274 38.024 48.708 38.048C48.7886 38.0719 48.8733 38.0787 48.9567 38.068C49.0401 38.0572 49.1204 38.0292 49.1923 37.9856C49.2642 37.942 49.3262 37.8839 49.3744 37.815Z" fill="#FFCF01"/>
<path d="M51.6413 35.1674C51.7178 35.0763 51.7658 34.9647 51.779 34.8464C51.7923 34.7282 51.7703 34.6087 51.7159 34.5029C51.6614 34.3971 51.5769 34.3098 51.473 34.252C51.369 34.1941 51.2503 34.1682 51.1317 34.1777C51.0131 34.1871 50.8999 34.2314 50.8064 34.305C50.7129 34.3786 50.6432 34.4781 50.6062 34.5912C50.5691 34.7043 50.5663 34.8257 50.5981 34.9404C50.6299 35.055 50.6949 35.1577 50.7849 35.2355C50.9081 35.3386 51.0669 35.3893 51.227 35.3765C51.3872 35.3638 51.5359 35.2887 51.6413 35.1674Z" fill="#FFCF01"/>
<path d="M49.1903 40.1594C49.1377 40.2185 49.0975 40.2874 49.0719 40.3622C49.0464 40.437 49.036 40.5161 49.0414 40.595C49.0469 40.6738 49.068 40.7508 49.1036 40.8214C49.1392 40.892 49.1885 40.9548 49.2487 41.006C49.3085 41.0589 49.3783 41.0993 49.4539 41.125C49.5295 41.1507 49.6094 41.1611 49.689 41.1557C49.7687 41.1503 49.8465 41.1291 49.9179 41.0934C49.9893 41.0576 50.0529 41.0081 50.105 40.9476C50.2081 40.8244 50.2588 40.6657 50.246 40.5055C50.2333 40.3454 50.1582 40.1966 50.0369 40.0913C49.9153 39.9888 49.7581 39.9384 49.5996 39.9512C49.441 39.9639 49.294 40.0388 49.1903 40.1594Z" fill="#FFCF01"/>
<path d="M52.3722 38.292C52.4242 38.2324 52.4637 38.163 52.4885 38.0878C52.5133 38.0126 52.5227 37.9333 52.5164 37.8544C52.51 37.7755 52.488 37.6987 52.4515 37.6285C52.415 37.5582 52.3649 37.496 52.304 37.4455C52.2133 37.3676 52.1015 37.3184 51.9828 37.3041C51.8641 37.2899 51.7439 37.3112 51.6373 37.3654C51.5308 37.4197 51.4427 37.5043 51.3844 37.6086C51.326 37.713 51.3 37.8323 51.3096 37.9515C51.3191 38.0707 51.3639 38.1843 51.4382 38.278C51.5125 38.3717 51.6129 38.4412 51.7268 38.4777C51.8407 38.5141 51.9628 38.516 52.0777 38.4829C52.1926 38.4499 52.2951 38.3835 52.3722 38.292Z" fill="#FFCF01"/>
<path d="M30.175 37.7759C31.0374 38.5119 32.0988 38.9755 33.2248 39.1083C34.3508 39.241 35.4909 39.0367 36.5008 38.5214C37.5107 38.0061 38.345 37.2028 38.8983 36.2131C39.4516 35.2235 39.699 34.092 39.6091 32.9618C39.5193 31.8315 39.0962 30.7534 38.3934 29.8636C37.6907 28.9739 36.7399 28.3125 35.6612 27.9633C34.5825 27.614 33.4245 27.5925 32.3336 27.9015C31.2427 28.2105 30.268 28.8361 29.5327 29.6992C28.5475 30.8556 28.0617 32.356 28.1821 33.8704C28.3025 35.3849 29.0193 36.7896 30.175 37.7759Z" fill="#FDDC05"/>
<path d="M30.1945 36.4042C30.3788 36.6306 30.584 36.8392 30.8076 37.027C31.1726 37.3471 31.5865 37.6066 32.0337 37.7957L32.1213 37.5719C31.7022 37.3897 31.312 37.1471 30.9633 36.8518C30.7518 36.6712 30.5565 36.4726 30.3794 36.2582L30.1945 36.4042ZM29.1533 33.7671C29.1873 34.248 29.2956 34.7207 29.4744 35.1683L29.6885 35.0808C29.5257 34.6528 29.4242 34.204 29.3869 33.7476L29.1533 33.7671ZM29.815 30.9938C29.5635 31.4063 29.3796 31.8563 29.2701 32.3269L29.5036 32.3853C29.6032 31.9345 29.7775 31.5037 30.0194 31.1105L29.815 30.9938ZM32.0434 29.3103L31.9461 29.0962C31.505 29.294 31.0978 29.56 30.7394 29.8844L30.8951 30.0596C31.2381 29.7535 31.6252 29.501 32.0434 29.3103ZM34.7778 28.7654C34.303 28.6763 33.8174 28.6599 33.3376 28.7167V28.9502C33.7921 28.8773 34.2552 28.8773 34.7097 28.9502L34.7778 28.7654ZM37.2884 30.118C37.1911 30.0109 37.084 29.9136 36.977 29.8163C36.717 29.5987 36.4368 29.4065 36.1401 29.2422L36.0234 29.4563C36.309 29.6073 36.5767 29.7901 36.8213 30.0012C36.9283 30.0888 37.0256 30.1861 37.123 30.2834L37.2884 30.118ZM38.5729 32.6577C38.4949 32.1801 38.3439 31.7174 38.1252 31.2857L37.9209 31.3927C38.1256 31.8037 38.2667 32.2433 38.3393 32.6967L38.5729 32.6577ZM38.1739 35.4895C38.3822 35.0525 38.5232 34.5867 38.5923 34.1077H38.3588C38.293 34.5632 38.1584 35.0061 37.9598 35.4214L38.1739 35.4895ZM36.2277 37.5622C36.6478 37.3275 37.0286 37.0288 37.3565 36.6766L37.1814 36.5112C36.8732 36.85 36.5116 37.1359 36.111 37.3578L36.2277 37.5622ZM33.4349 38.1558C33.9162 38.2027 34.4017 38.1764 34.8751 38.0779V37.8444C34.4242 37.9384 33.9617 37.9646 33.503 37.9222L33.4349 38.1558Z" fill="white"/>
</svg>
