<svg width="68" height="68" viewBox="0 0 68 68" fill="none" xmlns="http://www.w3.org/2000/svg">
<path d="M34 68C52.7777 68 68 52.7777 68 34C68 15.2223 52.7777 0 34 0C15.2223 0 0 15.2223 0 34C0 52.7777 15.2223 68 34 68Z" fill="url(#paint0_radial_7926_32699)"/>
<path d="M10.5294 14.6646C10.7223 14.4151 10.9445 14.1897 11.1911 13.9932C11.4149 13.8274 11.6925 13.7511 11.9696 13.7791C12.0966 13.7825 12.2218 13.8089 12.3394 13.8569L12.5048 13.9445C12.5629 13.9755 12.6182 14.0113 12.6702 14.0516C12.7781 14.1493 12.8729 14.2605 12.9524 14.3824C13.0484 14.5228 13.0993 14.6892 13.0984 14.8592C13.1008 15.063 13.061 15.2651 12.9816 15.4528C13.2241 15.2445 13.5051 15.0858 13.8088 14.9857C14.0621 14.931 14.3242 14.931 14.5775 14.9857C14.8683 15.0312 15.141 15.1558 15.3657 15.3458C15.6352 15.5703 15.8345 15.8675 15.9398 16.2021C16.0763 16.5694 16.0763 16.9734 15.9398 17.3406C15.8036 17.7412 15.5959 18.1137 15.3268 18.4402L13.6336 20.513L13.2541 20.2016L13.6141 19.7734L9.66338 16.5427L9.30334 16.9709L8.92383 16.6692L10.5294 14.6646ZM12.2615 15.9005C12.3189 15.8031 12.3491 15.6923 12.3491 15.5793C12.3491 15.4664 12.3189 15.3555 12.2615 15.2582C12.189 15.1368 12.1007 15.0255 11.9988 14.9274C11.8594 14.8095 11.6849 14.7411 11.5025 14.7328C11.3353 14.7306 11.1717 14.7817 11.0354 14.8787C10.8665 15.0138 10.7131 15.1671 10.5781 15.3361L10.4224 15.5307L11.7653 16.6206L12.0669 16.241C12.1647 16.1446 12.241 16.0285 12.2907 15.9005H12.2615ZM15.0349 17.798C15.1108 17.603 15.131 17.3908 15.0933 17.1849C15.0612 16.9992 14.9881 16.823 14.8792 16.6692C14.7862 16.5315 14.6749 16.4071 14.5483 16.2994C14.4284 16.2011 14.2938 16.1223 14.1494 16.0659C13.9845 16.0046 13.8095 15.9749 13.6336 15.9783C13.4284 15.9831 13.2289 16.0473 13.0595 16.1632C12.8624 16.2925 12.6881 16.4536 12.5437 16.64L12.4562 16.747L12.2518 16.9903L14.4121 18.7516L14.5191 18.6154L14.6748 18.4305L14.7721 18.3137C14.7921 18.2711 14.8183 18.2318 14.85 18.197C14.9351 18.0719 15.0069 17.9381 15.0641 17.798H15.0349Z" fill="white"/>
<path d="M14.5576 10.6363L16.1924 10.5391L16.2897 11.0353L14.7036 11.337L14.5576 10.6363ZM14.9177 12.709L15.2972 12.5436L15.3848 12.748C15.5266 12.3478 15.7757 11.9944 16.1048 11.7262C16.2203 11.6291 16.3479 11.5474 16.4843 11.483C16.6437 11.4263 16.8115 11.3967 16.9806 11.3954C17.1927 11.3951 17.3998 11.4596 17.5742 11.5803C17.79 11.7232 17.9806 11.9008 18.1386 12.1057L19.5885 13.8476L19.9486 13.5459L20.2113 13.867L19.0825 14.8401C18.9545 14.7715 18.8339 14.69 18.7225 14.5969C18.6873 15.0737 18.4715 15.5192 18.1192 15.8424L17.8759 16.0176C17.7182 16.0984 17.5464 16.148 17.3699 16.1636C17.1342 16.1895 16.8958 16.1526 16.679 16.0565C16.5004 15.974 16.3438 15.8507 16.2216 15.6965C16.033 15.458 15.9149 15.1715 15.881 14.8693C15.8492 14.5195 15.9538 14.1708 16.173 13.8962C16.4326 13.5528 16.7332 13.2423 17.0682 12.9718L17.2726 12.7966L17.0974 12.602C17.0235 12.5369 16.9418 12.4813 16.8541 12.4366C16.7943 12.3898 16.7232 12.3597 16.648 12.3494C16.5727 12.3392 16.4961 12.3491 16.426 12.3782L16.1924 12.5144C16.0313 12.6502 15.9186 12.8346 15.8713 13.0399C15.7935 13.2885 15.7574 13.5483 15.7643 13.8087L15.3848 13.9644L14.9177 12.709ZM16.7666 14.1687C16.7516 14.2767 16.7605 14.3866 16.7924 14.4908C16.8243 14.595 16.8786 14.6909 16.9514 14.772C17.0089 14.8316 17.0707 14.887 17.1363 14.9374C17.2257 14.9919 17.3249 15.0283 17.4282 15.0445C17.5437 15.0689 17.6631 15.0689 17.7786 15.0445L18.0121 14.9277C18.1332 14.8259 18.2212 14.6904 18.2651 14.5385C18.2907 14.426 18.2936 14.3095 18.2735 14.1958C18.2535 14.0822 18.2109 13.9737 18.1483 13.8768C17.9874 13.6126 17.8051 13.362 17.6034 13.1275C17.3618 13.315 17.1371 13.5234 16.932 13.7503C16.8405 13.8725 16.7834 14.017 16.7666 14.1687Z" fill="white"/>
<path d="M18.0313 8.40827L18.1286 8.3304C18.2669 8.25094 18.4291 8.22335 18.5859 8.25257C18.671 8.26902 18.7516 8.30361 18.8221 8.35398C18.8926 8.40436 18.9515 8.46932 18.9946 8.54448L19.1114 8.77802C19.1601 8.89479 19.1114 9.05051 18.9849 9.25486C18.9671 9.28758 18.9441 9.31716 18.9168 9.34243L18.7903 9.42027L18.6443 9.49813C18.548 9.51834 18.4486 9.51834 18.3524 9.49813C18.2787 9.49813 18.207 9.47422 18.148 9.43001C18.0748 9.36584 18.0123 9.29025 17.9631 9.20618C17.8807 9.08574 17.8424 8.9405 17.8548 8.79506C17.8672 8.64963 17.9296 8.51299 18.0313 8.40827ZM19.5785 9.38136L19.6758 9.59545L19.7536 9.73166L21.5441 12.651L21.9431 12.4077L22.1572 12.7483L20.4251 13.8187L20.211 13.4684L20.5905 13.2348L19.0627 10.7631L18.7416 11.094L18.4886 10.6853L19.5785 9.38136Z" fill="white"/>
<path d="M23.1789 7.5721L23.4805 7.92243L23.646 8.08784C23.7247 7.86303 23.8398 7.65266 23.9865 7.46507C24.0963 7.32871 24.2409 7.22449 24.405 7.16341L24.6385 7.09529C24.7452 7.08206 24.853 7.08206 24.9596 7.09529H25.0764L25.3392 7.02716C25.4016 7.00272 25.4605 6.96998 25.5143 6.92985C25.5881 6.86346 25.6534 6.78832 25.7089 6.70605L26.069 6.83253V7.0661V7.37749L25.9522 10.6665V10.9196V11.1142L25.2808 11.3769L25.1251 11.1044L25.0375 10.9974C24.9867 10.9411 24.9314 10.889 24.8721 10.8417L22.7312 8.78847L22.4588 9.1096L22.1279 8.79821L23.1789 7.5721ZM25.1251 7.92243H24.6872C24.5545 7.90935 24.4209 7.90935 24.2882 7.92243C24.1253 7.99996 23.9872 8.12123 23.8892 8.27273L25.3683 9.78104L25.417 7.83485H25.2613L25.1251 7.92243Z" fill="white"/>
<path d="M27.0136 4.65192H27.1206C27.1991 4.63184 27.2808 4.62754 27.361 4.63923C27.4412 4.65093 27.5182 4.67838 27.5877 4.72004C27.6633 4.76268 27.7286 4.82137 27.779 4.89198C27.8295 4.9626 27.8638 5.0434 27.8797 5.12872V5.38174C27.8797 5.50824 27.8115 5.64447 27.6169 5.80016L27.5196 5.84883C27.4775 5.87302 27.4313 5.88949 27.3834 5.89748H27.2179C27.1203 5.8939 27.0243 5.87073 26.9357 5.82935C26.8662 5.80495 26.8076 5.75669 26.7703 5.69314C26.7164 5.61305 26.6768 5.52413 26.6536 5.43041C26.6048 5.27915 26.6148 5.11504 26.6815 4.9708C26.7482 4.82655 26.8668 4.71271 27.0136 4.65192ZM28.1618 6.09211V6.32564V6.48134L28.9403 9.78986L29.3977 9.68284L29.495 10.0818L27.5488 10.5392L27.4612 10.1499L27.8991 10.0429L27.2374 7.21116L26.819 7.42525L26.7119 6.94844L28.1618 6.09211Z" fill="white"/>
<path d="M33.5232 6.95806L30.8278 8.2912C30.9746 8.56191 31.1892 8.78993 31.4505 8.95293C31.67 9.09418 31.9299 9.15916 32.1901 9.13782C32.3964 9.12233 32.5963 9.05903 32.7739 8.95293C32.994 8.81502 33.1829 8.63272 33.3286 8.41771L33.6984 8.67072C33.471 9.02606 33.1729 9.3308 32.8226 9.56598C32.5162 9.77898 32.1618 9.91271 31.7911 9.95522H31.2948C31.1824 9.9609 31.07 9.94435 30.964 9.90654C30.8262 9.85189 30.6929 9.78685 30.565 9.71194C30.2699 9.53201 30.0281 9.27673 29.8644 8.97238C29.7785 8.8136 29.7069 8.64752 29.6503 8.47609C29.5939 8.31916 29.5579 8.15564 29.5433 7.98954C29.4874 7.53791 29.5796 7.08034 29.806 6.6856C29.9684 6.36883 30.2075 6.09779 30.5016 5.89721C30.7957 5.69663 31.1353 5.57292 31.4895 5.53735H31.9371C32.0464 5.52957 32.1561 5.54618 32.2582 5.58599C32.3894 5.63373 32.5163 5.69234 32.6377 5.76117C32.871 5.88052 33.0664 6.06246 33.2021 6.28662L33.4649 6.71479L33.5232 6.95806ZM31.4797 4.5837L30.5845 5.25514L30.0493 4.90484L31.3727 3.93175L32.8615 4.64209L32.4042 5.08973L31.4797 4.5837ZM32.1804 6.5299C32.0904 6.39327 31.9675 6.28152 31.8229 6.20499C31.6783 6.12845 31.5168 6.08961 31.3532 6.09202C31.2285 6.10372 31.1068 6.13663 30.9932 6.18934C30.8748 6.25099 30.7768 6.34562 30.711 6.4618C30.6417 6.59189 30.5863 6.72885 30.5456 6.87049C30.5408 6.94177 30.5408 7.01329 30.5456 7.08457C30.5411 7.1656 30.5411 7.24681 30.5456 7.32784C30.5579 7.48706 30.5906 7.64404 30.6429 7.79494L32.3944 6.92887L32.3166 6.71479C32.282 6.65158 32.2357 6.59548 32.1804 6.54938V6.5299ZM33.7568 3.19218L32.4334 4.09716L32.1414 3.66899L33.3578 2.58887L33.7568 3.19218Z" fill="white"/>
<path d="M35.4791 4.58301L35.8684 4.69006V5.10849V5.54639V5.62423L36.7247 5.6729L36.5301 6.29567H35.8392L35.7419 8.32944C35.7419 8.58244 35.7419 8.77706 35.7419 8.90356C35.7397 8.95524 35.7522 9.00647 35.7781 9.05127C35.8039 9.09607 35.842 9.13261 35.8878 9.15657C35.9565 9.19551 36.0329 9.21877 36.1116 9.2247C36.1852 9.24209 36.2619 9.24209 36.3355 9.2247C36.4212 9.18811 36.5027 9.14243 36.5787 9.08845L36.8123 9.40959C36.628 9.59026 36.4097 9.73249 36.17 9.82801C35.9503 9.92844 35.7109 9.97831 35.4694 9.97397C35.3919 9.98464 35.3133 9.98464 35.2359 9.97397C35.153 9.95052 35.0742 9.91443 35.0023 9.86694C34.9219 9.82188 34.8518 9.76051 34.7965 9.68678C34.7412 9.61305 34.702 9.52858 34.6812 9.43878C34.628 9.15993 34.6084 8.87571 34.6228 8.59219L34.7396 6.32486H34.2822V5.85776C34.5484 5.8071 34.7986 5.69368 35.012 5.52691C35.2281 5.24592 35.3868 4.9252 35.4791 4.58301Z" fill="white"/>
<path d="M39.9943 8.87487L39.7121 9.94528L40.1694 10.062L40.0624 10.461L38.1162 9.94528L38.2232 9.55605L38.6514 9.67282L39.8678 5.02141H39.391L39.5077 4.5738L41.6388 4.45703L41.522 4.9241H41.0355L40.5879 6.62702H40.6365C40.8374 6.55127 41.0464 6.49902 41.2593 6.47132H41.5512C41.6502 6.47559 41.7482 6.49195 41.8432 6.51999C42.0606 6.57092 42.2637 6.67075 42.4368 6.81191C42.6178 6.90929 42.7691 7.05388 42.8746 7.23033C42.9671 7.38445 43.0236 7.55741 43.0401 7.73636C43.0468 7.89681 43.0304 8.05739 42.9914 8.21317C42.9632 8.34662 42.9139 8.47474 42.8454 8.59269C42.7729 8.71412 42.677 8.81993 42.5633 8.90406C42.4296 9.02825 42.2701 9.1213 42.0962 9.17653C41.8959 9.23651 41.6908 9.27884 41.4831 9.30303L42.0767 10.5583L42.5438 10.6751L42.4368 11.0741L40.763 10.6362C40.725 10.4781 40.6695 10.3247 40.5976 10.1788L39.9943 8.87487ZM41.9405 8.24236C41.9982 8.09973 42.0124 7.9432 41.9812 7.79252C41.95 7.64184 41.8749 7.50378 41.7653 7.39577C41.6187 7.2647 41.4509 7.15941 41.269 7.08437C40.9962 7.01994 40.71 7.0438 40.4516 7.1525L40.0527 8.68998L41.0258 8.4467L41.2496 8.88461C41.4238 8.84765 41.583 8.75955 41.7069 8.63159C41.8164 8.52528 41.8939 8.39046 41.9307 8.24236H41.9405Z" fill="white"/>
<path d="M46.1344 10.3344C46.2025 10.1884 46.2511 10.0619 46.2901 9.9646C46.322 9.86635 46.3448 9.76537 46.3582 9.66294C46.3912 9.52526 46.374 9.38033 46.3095 9.25426C46.2569 9.15135 46.1712 9.06908 46.0662 9.02069L45.8522 8.9526C45.7746 8.94322 45.6962 8.94322 45.6186 8.9526C45.5379 8.94165 45.4561 8.94165 45.3753 8.9526L45.1515 9.03043L44.0519 11.3756L44.4704 11.5702L44.2952 11.94L42.4561 11.0739L42.6312 10.7042L43.0399 10.8988L45.0931 6.54905L44.6261 6.48092L44.8207 6.0625L46.9323 6.34468L46.728 6.78258L46.2511 6.70475L45.4435 8.40767C45.7269 8.36531 46.0133 8.34579 46.2998 8.34928C46.5275 8.34784 46.7529 8.39424 46.9615 8.4855C47.1467 8.57501 47.3071 8.70867 47.4286 8.87473C47.562 9.06412 47.6177 9.29748 47.5843 9.52672C47.5644 9.66799 47.5352 9.80778 47.4967 9.94515C47.4444 10.1089 47.3793 10.2683 47.3021 10.422L46.329 12.4558L46.7377 12.6504L46.5625 13.0201L44.7234 12.1541L44.8985 11.7843L45.317 11.9789L46.1344 10.3344Z" fill="white"/>
<path d="M49.823 10.1794L50.0857 10.5103L49.9106 10.6465C50.3343 10.6822 50.7392 10.8375 51.0783 11.0941C51.2035 11.1769 51.3151 11.2787 51.4091 11.3958C51.5111 11.5271 51.5811 11.6804 51.6135 11.8434C51.6766 12.0495 51.6766 12.2698 51.6135 12.4759C51.5246 12.72 51.4 12.9495 51.2437 13.1571L49.9008 14.9962L50.2901 15.2784L50.0468 15.6093L48.8596 14.753C48.8888 14.6118 48.9345 14.4746 48.9959 14.3443C48.5268 14.4217 48.0457 14.3248 47.6433 14.0718L47.4097 13.8772C47.2899 13.7494 47.2002 13.5965 47.147 13.4296C47.0617 13.2065 47.0349 12.9653 47.0691 12.7289C47.1099 12.5365 47.1893 12.3544 47.3027 12.1937C47.4888 11.9524 47.738 11.7672 48.0228 11.6585C48.35 11.5239 48.7172 11.5239 49.0445 11.6585C49.4438 11.8189 49.8202 12.0316 50.1636 12.291L50.3874 12.4467L50.5333 12.2229C50.5747 12.1355 50.6073 12.0442 50.6306 11.9504C50.6664 11.883 50.6851 11.8078 50.6851 11.7315C50.6851 11.6552 50.6664 11.58 50.6306 11.5126L50.436 11.3277C50.2601 11.2102 50.054 11.146 49.8424 11.1428C49.5827 11.1343 49.3232 11.1671 49.0737 11.2401L48.8304 10.9092L49.823 10.1794ZM48.8499 12.3397C48.7436 12.3534 48.6415 12.3902 48.5508 12.4473C48.46 12.5044 48.3828 12.5806 48.3244 12.6705C48.2721 12.7373 48.2325 12.8132 48.2076 12.8944C48.1861 12.997 48.1861 13.1031 48.2076 13.2057C48.2179 13.3227 48.2545 13.4358 48.3147 13.5366C48.3645 13.6058 48.4198 13.6709 48.4801 13.7312C48.6068 13.8254 48.7602 13.8765 48.918 13.8772C49.0334 13.8759 49.1472 13.8511 49.2527 13.8043C49.3581 13.7574 49.4528 13.6895 49.531 13.6047C49.7463 13.3796 49.9448 13.1389 50.1246 12.8846C49.8765 12.7021 49.6164 12.5363 49.3462 12.3884C49.1975 12.3313 49.0363 12.3145 48.8791 12.3397H48.8499ZM52.3141 10.5297L50.7182 10.3351L50.7863 9.8291H52.4211L52.3141 10.5297Z" fill="white"/>
<path d="M20.4255 55.1638H20.805V55.6309L18.8588 55.7671V55.3C18.9307 55.2806 18.9995 55.2511 19.0631 55.2124C19.1383 55.1706 19.2044 55.1144 19.2578 55.047C19.313 54.9696 19.3465 54.8789 19.3551 54.7843C19.3711 54.6525 19.3544 54.5188 19.3064 54.395C19.2604 54.2696 19.191 54.1541 19.1021 54.0544L18.9172 53.8793C18.744 53.7439 18.5455 53.6447 18.3333 53.5873C18.0859 53.5388 17.8314 53.5388 17.584 53.5873C17.2592 53.6507 16.953 53.7871 16.6888 53.9863C16.39 54.1875 16.1241 54.4337 15.9006 54.7161C15.7323 54.9347 15.5917 55.1733 15.4821 55.4265C15.3518 55.735 15.2792 56.0648 15.2681 56.3996C15.2506 56.7645 15.3312 57.1274 15.5016 57.4505C15.6369 57.6972 15.8148 57.9179 16.0271 58.1025C16.2694 58.3098 16.5671 58.4417 16.8834 58.482H17.4381H17.7689V59.0075C17.2988 59.1203 16.8086 59.1203 16.3385 59.0075C15.9051 58.8982 15.4981 58.703 15.1416 58.4334L14.9664 58.2874C14.9004 58.2269 14.8386 58.1618 14.7815 58.0928L14.5772 57.869C14.3327 57.59 14.1591 57.2562 14.0712 56.8959C13.9541 56.4427 13.9541 55.9673 14.0712 55.5141C14.1911 55.0332 14.4098 54.5825 14.7134 54.1907C14.9069 53.9356 15.1326 53.7067 15.3848 53.5095C15.6828 53.2992 16.0109 53.1352 16.3579 53.0229C16.8289 52.87 17.3305 52.8366 17.8176 52.9256C18.3257 52.9956 18.8077 53.1931 19.2188 53.4998C19.4865 53.7115 19.7225 53.9606 19.9195 54.2393C20.1383 54.5172 20.3094 54.8296 20.4255 55.1638Z" fill="white"/>
<path d="M21.0484 56.9849L21.3598 57.2671L21.2041 57.4325C21.6282 57.4032 22.0523 57.4907 22.4302 57.6855C22.5674 57.7525 22.695 57.8376 22.8097 57.9385C22.9215 58.0631 23.0134 58.2042 23.0821 58.3569C23.1729 58.5513 23.1968 58.7703 23.1502 58.9797C23.0995 59.2334 23.0144 59.4789 22.8973 59.7095L21.8658 61.7044L22.2939 61.9185L22.109 62.2882L20.7954 61.6168C20.8071 61.4719 20.8332 61.3284 20.8732 61.1886C20.4222 61.3421 19.9305 61.3248 19.4914 61.14L19.2384 60.9746C19.0946 60.8707 18.9778 60.7339 18.8978 60.5756C18.7833 60.3703 18.723 60.1392 18.7227 59.9042C18.7224 59.7066 18.7726 59.5124 18.8686 59.3398C19.008 59.0655 19.229 58.8411 19.5011 58.6975C19.797 58.5312 20.1457 58.4859 20.4742 58.571C20.8901 58.6704 21.2921 58.8207 21.6711 59.0186L21.9144 59.1451C21.9564 59.067 21.9922 58.9856 22.0215 58.9019C22.0632 58.8104 22.0832 58.7105 22.0798 58.6099C22.0975 58.536 22.0961 58.4588 22.0756 58.3856C22.0552 58.3124 22.0165 58.2456 21.9631 58.1915L21.749 58.0358C21.5584 57.9445 21.3444 57.914 21.1359 57.9482C20.8799 57.9813 20.6305 58.0535 20.3964 58.1623L20.0947 57.8801L21.0484 56.9849ZM20.4548 59.2619C20.3499 59.2902 20.2526 59.3416 20.1702 59.4123C20.0877 59.4831 20.022 59.5713 19.978 59.6706C19.9448 59.7459 19.9187 59.824 19.9001 59.9042C19.8761 60.0066 19.8761 60.1131 19.9001 60.2155C19.9267 60.3313 19.9764 60.4405 20.0461 60.5367L20.2504 60.7021C20.3908 60.7758 20.5509 60.803 20.7078 60.7799C20.822 60.7597 20.9309 60.7165 21.0279 60.653C21.1249 60.5894 21.208 60.5068 21.2722 60.4102C21.451 60.1566 21.6104 59.8898 21.749 59.6122C21.4763 59.4683 21.1933 59.3447 20.9024 59.2425C20.7543 59.2066 20.5992 59.2133 20.4548 59.2619ZM22.6929 56.7027L21.5836 56.7903L21.3208 56.2064L22.9556 56.0993L23.8411 57.4909L23.2086 57.6271L22.6929 56.7027ZM23.3935 54.9316L24.1331 56.3815L23.7049 56.6735L22.7999 55.3403L23.3935 54.9316Z" fill="white"/>
<path d="M25.6217 59.6126C25.8946 59.5265 26.1747 59.4646 26.4585 59.4277C26.68 59.3815 26.9085 59.3815 27.13 59.4277C27.3253 59.4916 27.5022 59.6018 27.6457 59.7488C27.7268 59.8308 27.7909 59.9281 27.8343 60.035C27.8778 60.1418 27.8996 60.2562 27.8987 60.3716C27.9084 60.5109 27.9084 60.6507 27.8987 60.79C27.8731 60.9615 27.834 61.1307 27.7819 61.296L27.1202 63.4466L27.5581 63.5828L27.4414 63.972L25.4952 63.3785L25.6119 62.9892L26.0596 63.1254L26.6045 61.335C26.645 61.2074 26.6775 61.0774 26.7018 60.9457C26.7114 60.8454 26.7114 60.7444 26.7018 60.6441C26.7103 60.503 26.6727 60.363 26.5948 60.2451C26.5262 60.1494 26.4264 60.0805 26.3126 60.0505C26.2415 60.041 26.1695 60.041 26.0985 60.0505C26.0212 60.0368 25.9422 60.0368 25.8649 60.0505L25.6217 60.1283L25.4173 60.2353L24.668 62.7168L25.1157 62.853L24.9892 63.2422L23.043 62.6486L23.1597 62.2594L23.5879 62.3859L24.4442 59.6028H23.9771L24.1134 59.1357H25.7968L25.6995 59.3401V59.4861L25.6217 59.6126Z" fill="white"/>
<path d="M31.4892 64.4481L31.4114 65.7423H31.9563V66.1607L29.8447 66.0342V65.6158H30.2923L30.5648 61.0909L30.1075 61.1784V60.6919L31.7325 60.2832V60.4584V60.6238L32.0536 60.4973L32.4234 60.3805C32.642 60.3213 32.8688 60.2983 33.0949 60.3124C33.3642 60.3288 33.6252 60.4125 33.8539 60.5557C34.1381 60.7242 34.36 60.9802 34.4864 61.2855C34.6503 61.627 34.7461 61.9972 34.7686 62.3754C34.7461 62.7545 34.6572 63.1267 34.5059 63.475C34.3842 63.8034 34.1631 64.0858 33.8733 64.2826C33.6432 64.4375 33.3905 64.5557 33.1241 64.6329C32.9137 64.6829 32.6979 64.7058 32.4818 64.701C32.3173 64.6869 32.1544 64.6576 31.9953 64.6135C31.8215 64.5588 31.6522 64.4905 31.4892 64.4091V64.4481ZM31.898 61.1492L31.6741 61.2855L31.5671 63.0857C31.5448 63.2862 31.5448 63.4886 31.5671 63.689C31.6029 63.8497 31.7009 63.9896 31.8396 64.0783C31.9864 64.1898 32.1619 64.2573 32.3456 64.2729C32.5012 64.2717 32.6556 64.2454 32.8029 64.195C32.983 64.1393 33.138 64.0222 33.2408 63.8642C33.3548 63.7134 33.4375 63.5414 33.4841 63.3582C33.5313 63.1931 33.5606 63.0235 33.5717 62.8522C33.5862 62.5709 33.56 62.2891 33.4938 62.0153C33.4407 61.786 33.334 61.5726 33.1824 61.3925C33.0707 61.2706 32.9391 61.1686 32.7932 61.0909C32.6799 61.0389 32.5577 61.0091 32.4332 61.0033C32.3429 60.9891 32.251 60.9891 32.1607 61.0033C32.0789 61.0399 32.0034 61.0892 31.9369 61.1492H31.898Z" fill="white"/>
<path d="M38.3212 62.0247C38.3212 61.869 38.2725 61.7327 38.253 61.6354C38.2292 61.5342 38.1933 61.4362 38.146 61.3435C38.1024 61.207 38.0084 61.0922 37.8832 61.0224C37.7844 60.9616 37.6661 60.9408 37.5524 60.964L37.3481 61.0127C37.2738 61.044 37.2049 61.0867 37.1437 61.1392C37.0751 61.1863 37.0101 61.2383 36.9491 61.2948L36.8129 61.4797L37.134 64.0585L37.5913 64.0001L37.64 64.399L35.6257 64.652V64.2433L36.0733 64.1947L35.4797 59.4265L35.0515 59.6211L34.9932 59.1541L36.9394 58.2588L36.9977 58.7453L36.5501 58.94L36.7837 60.8083C36.9989 60.6171 37.2301 60.4446 37.4746 60.2926C37.6675 60.1729 37.8826 60.0934 38.1071 60.059C38.3115 60.033 38.5192 60.0598 38.7104 60.1369C38.8174 60.1809 38.9147 60.2457 38.9965 60.3275C39.0784 60.4094 39.1432 60.5067 39.1872 60.6137C39.2475 60.7388 39.2963 60.8691 39.3332 61.0029C39.3805 61.1684 39.413 61.3377 39.4305 61.5089L39.7127 63.7373H40.1603L40.209 64.1363L38.1946 64.3893L38.1363 63.9806L38.6034 63.9222L38.3212 62.0247Z" fill="white"/>
<path d="M40.6943 59.523H41.1224V59.7566C41.4071 59.439 41.7743 59.2066 42.1831 59.0851C42.3268 59.0341 42.4782 59.0078 42.6307 59.0073C42.7956 59.0074 42.9584 59.0439 43.1075 59.1143C43.3094 59.1898 43.4806 59.3301 43.5941 59.5133C43.743 59.7253 43.8518 59.9627 43.9152 60.2139L44.5866 62.3742L45.0343 62.2379L45.1608 62.6272L43.7498 63.0554C43.6589 62.9443 43.5806 62.8236 43.5162 62.6953C43.2974 63.1195 42.9303 63.4485 42.4848 63.6198L42.1928 63.6879C41.9871 63.7036 41.7804 63.6743 41.5872 63.602C41.3939 63.5297 41.2187 63.4162 41.0738 63.2694C40.938 63.1261 40.838 62.9527 40.7818 62.7634C40.6945 62.4681 40.6945 62.1538 40.7818 61.8585C40.8316 61.6912 40.914 61.5355 41.0242 61.4002C41.1345 61.2649 41.2703 61.1528 41.4241 61.0703C41.793 60.8489 42.1887 60.6756 42.6015 60.5545L42.8643 60.4766C42.8378 60.3902 42.8052 60.3056 42.767 60.2237C42.7274 60.1353 42.675 60.0533 42.6113 59.9804C42.572 59.9141 42.5166 59.8589 42.4502 59.8198C42.3839 59.7806 42.3087 59.7589 42.2317 59.7566H41.969C41.769 59.825 41.5932 59.9501 41.463 60.1166C41.3001 60.3214 41.1719 60.5515 41.0835 60.7978H40.6748L40.6943 59.523ZM42.4848 57.7228L41.3657 58.8808L41.0057 58.5305L41.9788 57.2168L42.4848 57.7228ZM41.8425 61.6152C41.7907 61.7096 41.7595 61.8139 41.7512 61.9213C41.7428 62.0287 41.7573 62.1366 41.7939 62.2379C41.8198 62.3168 41.8558 62.392 41.9009 62.4618C41.9581 62.5494 42.0347 62.6226 42.1247 62.6759C42.2208 62.74 42.331 62.78 42.4458 62.7926C42.5331 62.8023 42.6213 62.8023 42.7086 62.7926C42.8596 62.7472 42.9924 62.6552 43.0881 62.5299C43.2249 62.3384 43.2809 62.1007 43.2438 61.8682C43.194 61.5618 43.1225 61.2594 43.0297 60.9632C42.7318 61.0477 42.442 61.1584 42.1636 61.294C42.0177 61.3541 41.8925 61.4556 41.8036 61.586L41.8425 61.6152Z" fill="white"/>
<path d="M44.8795 57.0436L45.2688 56.9561L45.4245 57.355L45.5996 57.7443V57.8221L46.3781 57.4718L46.4852 58.1043L45.8624 58.3962L46.7284 60.2354C46.8055 60.4125 46.8932 60.5847 46.9912 60.7511C47.0147 60.7959 47.0495 60.8339 47.0922 60.8612C47.1348 60.8885 47.1839 60.9042 47.2344 60.9068C47.315 60.9087 47.3949 60.8921 47.468 60.8582C47.5354 60.8215 47.5949 60.7719 47.6431 60.7122C47.7026 60.6417 47.7518 60.563 47.7891 60.4787L48.1491 60.6538C48.0685 60.8986 47.9431 61.1262 47.7794 61.3252C47.6364 61.5224 47.4455 61.6799 47.2247 61.7826C47.1559 61.8229 47.0799 61.8493 47.0009 61.8605C46.9173 61.8758 46.8315 61.8758 46.7479 61.8605C46.6547 61.8592 46.5629 61.8376 46.4789 61.7973C46.3949 61.7569 46.3206 61.6988 46.2613 61.6269C46.0832 61.408 45.9359 61.1657 45.8234 60.9068L44.8503 58.8439L44.4416 59.0385L44.2373 58.62C44.4526 58.4496 44.623 58.2292 44.7336 57.9778C44.8315 57.6762 44.8808 57.3608 44.8795 57.0436Z" fill="white"/>
<path d="M51.5355 56.2926C51.4382 56.1661 51.3506 56.0688 51.2825 55.991C51.214 55.9128 51.1354 55.8441 51.0489 55.7866C50.9436 55.6934 50.8099 55.6385 50.6694 55.6309C50.5526 55.6344 50.44 55.6753 50.3483 55.7477C50.2897 55.7887 50.2373 55.8378 50.1926 55.8936C50.1424 55.9547 50.103 56.0238 50.0758 56.098C50.0382 56.1724 50.0088 56.2507 49.9882 56.3316V56.5651L51.5355 58.6475L51.9052 58.375L52.1485 58.6962L50.5137 59.9028L50.2704 59.5817L50.6402 59.3092L47.7793 55.4168L47.5068 55.8645L47.2344 55.4849L48.4799 53.7236L48.7621 54.1129L48.4702 54.5021L49.5893 56.0202C49.6787 55.7461 49.796 55.4819 49.9396 55.232C50.0456 55.0326 50.1913 54.8571 50.3677 54.7162C50.5347 54.5965 50.7285 54.5197 50.9321 54.4924C51.047 54.4747 51.1643 54.4811 51.2766 54.5113C51.3888 54.5415 51.4936 54.5947 51.5841 54.6675C51.702 54.7447 51.8099 54.8362 51.9052 54.94C52.0269 55.0596 52.1377 55.1899 52.2361 55.3293L53.579 57.1392L53.939 56.8667L54.1823 57.1976L52.5475 58.4042L52.3042 58.0734L52.6837 57.8009L51.5355 56.2926Z" fill="white"/>
<path d="M54.5034 52.0593L54.2699 52.468L53.9196 52.1371L54.6494 50.6094L54.7662 50.7553L54.9121 50.9013L57.3935 53.227L57.6952 52.8962L57.9969 53.1783L56.9459 54.3071L56.7999 54.2001L56.6248 54.0444C56.5838 54.3344 56.5087 54.6186 56.401 54.891C56.3207 55.1213 56.195 55.3331 56.0312 55.5138C55.8964 55.662 55.7254 55.7726 55.5349 55.8349C55.4414 55.8759 55.3403 55.8971 55.2381 55.8971C55.136 55.8971 55.0349 55.8759 54.9414 55.8349C54.7048 55.7258 54.4904 55.5741 54.3088 55.3873L54.1629 55.251L52.7616 53.9179L52.5281 54.3266L52.1777 53.9957L52.9076 52.4777L53.0535 52.6626L53.1606 52.7697L54.7078 54.2196C54.8585 54.3728 55.0248 54.5098 55.2041 54.6283C55.2606 54.6662 55.3244 54.6919 55.3915 54.7036C55.4585 54.7153 55.5273 54.7129 55.5933 54.6964C55.7205 54.659 55.8372 54.5924 55.9339 54.5018L56.0117 54.3947L56.0896 54.2293C56.1254 54.1422 56.1483 54.0505 56.1577 53.9568C56.1824 53.8414 56.1824 53.722 56.1577 53.6065L54.5034 52.0593Z" fill="white"/>
<path d="M55.7388 48.9663L56.0113 49.0441L56.42 49.1025C56.356 48.8746 56.3265 48.6385 56.3324 48.4019C56.3421 48.2396 56.3923 48.0824 56.4784 47.9445C56.5352 47.8546 56.6039 47.7727 56.6827 47.7012L56.9065 47.4677L56.9941 47.3899L57.1401 47.205C57.179 47.1484 57.2085 47.086 57.2276 47.0201C57.244 46.9267 57.244 46.8312 57.2276 46.7379L57.5974 46.6309L57.6947 46.8449L57.8115 47.0493L60.2151 50.6498C60.335 50.8153 60.4454 50.9875 60.5459 51.1655C60.6195 51.2878 60.6783 51.4185 60.7211 51.5547C60.7892 51.7333 60.7892 51.9308 60.7211 52.1094L60.5459 52.4402C60.4382 52.5987 60.3069 52.7398 60.1567 52.8587L59.4269 52.1483C59.5502 52.0735 59.6537 51.97 59.7285 51.8466C59.793 51.7475 59.8422 51.6393 59.8745 51.5255C59.9035 51.4205 59.9035 51.3095 59.8745 51.2044C59.8465 51.117 59.8107 51.0323 59.7674 50.9514L59.6215 50.7568L56.0697 50.2605V50.6789L55.6123 50.6303L55.7388 48.9663ZM57.5099 48.1197L57.1693 48.3824C57.0572 48.4558 56.9557 48.5442 56.8676 48.6451C56.7892 48.8022 56.7492 48.9756 56.7508 49.1512L58.8333 49.5112L57.7045 47.8959L57.6169 48.0224L57.5099 48.1197Z" fill="white"/>
<path d="M40.013 44.7922C40.4314 44.5879 40.9861 43.9943 41.424 43.9845C41.8619 43.9748 42.0273 44.3835 41.7159 44.8506C41.2002 45.6583 39.6822 45.9502 38.7966 46.2032C37.5183 46.5926 36.178 46.7379 34.8459 46.6314C32.7829 46.4562 30.827 45.921 28.7154 45.921C27.4282 45.9857 26.1613 46.2687 24.969 46.7579C23.811 46.2811 26.0394 45.162 26.4286 45.016C27.8448 44.5401 29.3603 44.4395 30.827 44.7241C33.8825 45.2496 37.1618 46.1837 40.013 44.7922Z" fill="#258ACB"/>
<path d="M30.0685 42.6991C29.9517 42.0957 28.5893 41.8817 28.0249 41.7843C26.6626 41.5703 25.3003 41.4827 23.9379 41.1324C22.7897 40.8307 22.0793 40.6069 22.1572 39.3322C22.235 38.0574 22.8773 38.7872 23.5487 38.2131C23.2885 37.9481 23.0886 37.6301 22.9626 37.2808C22.8366 36.9315 22.7876 36.5591 22.8189 36.189C22.9843 35.3716 24.5997 34.2429 25.3879 34.8559L30.0685 42.6991Z" fill="#258ACB"/>
<path d="M48.1584 26.088C48.8201 25.7085 46.0468 24.677 45.7451 24.5408C43.7337 23.5828 41.6633 22.754 39.5465 22.0594C37.9604 21.5728 36.1699 20.9792 34.4961 21.3782C33.8052 21.5339 33.0559 22.0107 33.776 22.6822C33.2214 22.6822 29.2998 22.5265 30.3215 23.9667C28.9741 23.8011 27.6092 24.074 26.4292 24.7451C25.7675 25.0679 25.1959 25.5493 24.7652 26.1464C24.5705 26.4286 23.977 27.4114 24.1035 27.752C24.23 28.0926 25.5826 27.9855 26.0496 28.005C27.7747 27.9754 29.4952 27.8193 31.1973 27.5379C34.9967 26.9953 38.8239 26.6704 42.6604 26.5648C44.2317 26.5885 45.8006 26.6957 47.3605 26.8859C47.7205 26.8859 49.1023 26.8373 48.8104 26.1756L48.1584 26.088Z" fill="#258ACB"/>
<path d="M22.8197 29.3395C21.4671 31.9279 19.229 26.9068 18.7035 26.1672C17.1855 24.0459 15.5799 22.6933 12.9525 22.6641C12.8552 24.6103 12.865 27.403 13.8478 29.1157C14.4432 30.2732 15.3719 31.2257 16.5141 31.8501C17.2536 32.181 18.1294 32.2491 18.8592 32.6286C18.1243 33.384 17.3339 34.0833 16.4946 34.7207C15.4948 35.6893 14.6774 36.8297 14.0813 38.0877C13.7602 38.7007 13.4877 39.3527 13.1861 39.9852C12.8844 40.6177 12.612 40.861 13.0888 41.4448C13.5461 41.8873 14.1029 42.2137 14.7125 42.3965C15.322 42.5794 15.9665 42.6134 16.5919 42.4958C19.5112 42.0773 19.5112 38.8175 19.628 36.5696C19.6357 35.4972 19.9757 34.4535 20.6011 33.5822C20.8604 33.16 21.1894 32.7849 21.5742 32.4729C22.0899 32.1128 23.7345 32.0642 23.8512 31.7041L22.8197 29.3395Z" fill="#258ACB"/>
<path d="M22.0206 32.7157C22.4133 34.2232 23.037 35.661 23.8695 36.9778C24.6758 38.2619 25.6294 39.4474 26.7109 40.5102C27.8065 41.4811 28.978 42.3629 30.214 43.1473C32.3759 44.6973 34.969 45.531 37.6291 45.5314C41.1563 45.6536 44.6742 45.0987 47.9925 43.8966C50.3381 42.9992 52.3684 41.4326 53.8311 39.3911C54.1655 38.9203 54.471 38.4296 54.7458 37.9217C55.1643 37.0167 55.8746 36.102 55.6703 35.09C54.6972 30.9349 51.2135 27.6361 47.6033 25.5439C47.1151 25.3564 46.6144 25.2036 46.1047 25.0866C45.5797 24.9754 45.0454 24.9135 44.5089 24.9017C43.9704 24.8563 43.4352 24.8174 42.9032 24.7849C42.3583 24.7849 41.8231 24.7265 41.2879 24.7168C40.091 24.7168 38.9038 24.7168 37.7264 24.7168H37.5512C36.6365 24.7168 35.7023 24.8239 34.7681 24.9212C33.644 25.0385 32.5267 25.2139 31.4207 25.4466C30.6228 25.612 29.8248 25.8164 29.0366 26.0597C28.2484 26.3029 27.6159 26.5268 26.9347 26.8187C26.2535 27.1106 25.8156 27.315 25.2707 27.5972C24.9593 27.7723 24.6479 27.9475 24.2976 28.1324C23.8009 28.4306 23.3488 28.7975 22.9548 29.2222C22.5073 29.6721 22.1856 30.2314 22.0216 30.8443C21.8577 31.4573 21.8574 32.1025 22.0206 32.7157Z" fill="#FCEE23"/>
<path d="M46.8644 28.3956C46.5206 28.6516 46.2532 28.9966 46.091 29.3935C45.9288 29.7903 45.8781 30.2238 45.9442 30.6474C46.0103 31.0709 46.1907 31.4684 46.4661 31.797C46.7414 32.1255 47.1012 32.3727 47.5067 32.5118C49.1804 32.9984 50.3481 31.2468 50.0757 29.7871C50.0596 29.4226 49.9413 29.0698 49.7343 28.7692C49.5273 28.4687 49.24 28.2323 48.9052 28.0872C48.5703 27.9421 48.2014 27.8941 47.8406 27.9486C47.4797 28.0031 47.1415 28.158 46.8644 28.3956Z" fill="white"/>
<path d="M47.3891 31.4113C46.3479 30.8664 46.8734 29.2219 47.934 29.037C49.5883 28.7645 49.3742 32.4331 47.3891 31.4113Z" fill="#010101"/>
<path d="M47.6515 30.175C46.7368 30.3793 46.6784 28.6958 47.5931 28.9586C48.1283 29.1143 48.2256 30.0387 47.6515 30.175Z" fill="white"/>
<path d="M40.8703 28.4146C40.9333 29.3627 41.0601 30.3055 41.2498 31.2366C41.4347 32.0248 42.0283 33.426 42.3883 31.9761C42.6466 30.4889 42.9877 29.0172 43.4101 27.568C43.702 26.7603 44.0524 25.8164 44.4805 24.9017C43.4101 24.8141 42.33 24.746 41.2595 24.7168C40.8985 25.914 40.7664 27.1685 40.8703 28.4146Z" fill="#258ACB"/>
<path d="M34.7393 24.9309C34.7393 25.4466 34.8463 25.9527 34.9144 26.41C35.0604 27.3345 35.8875 29.884 37.065 29.8937C37.172 28.9206 36.9385 27.8794 37.065 26.8479C37.132 26.1241 37.2889 25.4116 37.532 24.7266C36.6076 24.7266 35.6734 24.8336 34.7393 24.9309Z" fill="#258ACB"/>
<path d="M29.0176 26.0691C29.1125 26.7833 29.3885 27.4613 29.8194 28.0387C30.2504 28.6161 30.8218 29.0737 31.4795 29.3679C31.4795 28.93 31.1876 28.4921 31.1195 28.0445C31.0682 27.4313 31.1142 26.8139 31.2557 26.2151C31.2946 25.9621 31.3433 25.7091 31.4017 25.4561C30.594 25.6215 29.7961 25.8258 29.0176 26.0691Z" fill="#258ACB"/>
<path d="M25.2422 27.6457C25.4033 28.0671 25.6799 28.4347 26.0401 28.7063C26.4391 29.008 26.9646 29.2318 27.1203 28.755C27.276 28.2782 26.9159 27.6165 26.9062 27.198V26.8672C26.3418 27.0618 25.7871 27.3245 25.2422 27.6457Z" fill="#258ACB"/>
<path d="M40.6948 36.4045C39.7854 36.7835 38.7764 36.8519 37.8242 36.5991C37.5322 37.3484 37.7171 38.5453 38.7973 38.448C37.8242 39.5184 38.5443 40.7542 39.9747 40.3942C39.9747 41.1337 40.4807 41.9414 41.3079 41.5035C41.8917 41.1921 42.1642 40.1606 42.3783 39.5573C42.8084 38.4547 43.1056 37.3049 43.2638 36.132C43.3319 35.5482 43.4779 34.7502 42.787 34.9643C42.0961 35.1784 41.3565 36.0542 40.6948 36.4045Z" fill="#258ACB"/>
<path d="M48.8983 36.9685C48.7134 37.2409 48.9567 37.8248 49.5794 38.2627C49.9168 38.521 50.309 38.6983 50.7257 38.781C51.1424 38.8636 51.5726 38.8495 51.983 38.7395C52.4257 38.5327 52.8185 38.2326 53.1343 37.8597C53.4501 37.4868 53.6814 37.05 53.8124 36.5792C54.0362 35.6061 53.102 34.9444 52.4793 35.8786C51.8565 36.8128 51.2824 37.708 50.0368 37.0561C49.4529 36.7252 49.0345 36.7641 48.8983 36.9685Z" fill="#F89822"/>
<path d="M33.6598 42.8166C37.922 44.1789 42.5345 44.7628 46.748 43.128C47.8008 42.7117 48.8056 42.1832 49.7451 41.5516C51.2362 41.1287 52.6196 40.3922 53.8029 39.3913C52.3402 41.4327 50.31 42.9994 47.9644 43.8967C44.6461 45.0989 41.1281 45.6538 37.6009 45.5315C34.9408 45.5312 32.3477 44.6974 30.1859 43.1474C28.9498 42.3631 27.7784 41.4813 26.6827 40.5104C25.6012 39.4476 24.6476 38.2621 23.8413 36.978C23.0088 35.6612 22.3852 34.2234 21.9924 32.7158C21.8945 32.3612 21.8518 31.9936 21.8659 31.626C22.9558 33.9614 24.7852 35.8006 26.4687 37.7662C28.336 40.1 30.8308 41.8522 33.6598 42.8166Z" fill="#FEBC18"/>
<path d="M18.0699 28.5514C18.2548 28.7168 18.7316 29.2325 19.043 29.0963C19.7241 28.7655 18.9554 27.1501 18.751 26.7706C18.2825 25.886 17.6365 25.1075 16.8535 24.4838C16.4136 24.0756 15.923 23.7257 15.3939 23.4426C14.6251 23.102 14.3332 23.647 14.7613 24.2892C15.0241 24.6882 15.423 24.9704 15.6566 25.3791C15.8901 25.7878 16.0556 26.2062 16.3086 26.6052L16.4156 26.7511C16.9084 27.4026 17.4623 28.0054 18.0699 28.5514Z" fill="#5EBCEA"/>
<path d="M55.7188 17.7197V23.2858" stroke="white" stroke-miterlimit="10" stroke-linecap="round"/>
<path d="M53.3066 19.1123L58.1235 21.8953" stroke="white" stroke-miterlimit="10" stroke-linecap="round"/>
<path d="M53.3066 21.8953L58.1235 19.1123" stroke="white" stroke-miterlimit="10" stroke-linecap="round"/>
<path fill-rule="evenodd" clip-rule="evenodd" d="M57.042 29.3387C57.7081 29.6743 58.4529 29.8226 59.1967 29.7678C59.9406 29.7129 60.6556 29.457 61.2653 29.0273C60.9545 29.7058 60.4636 30.2859 59.8459 30.7046C59.2281 31.1233 58.5074 31.3644 57.7621 31.4017C57.3448 30.7893 57.0964 30.0777 57.042 29.3387Z" fill="#FAA21B"/>
<path fill-rule="evenodd" clip-rule="evenodd" d="M58.8826 25.5254C58.9219 26.2714 59.1649 26.9924 59.5852 27.6101C60.0055 28.2277 60.5871 28.7183 61.2667 29.0285C60.5227 29.0975 59.7741 28.9617 59.1017 28.6358C58.4294 28.3099 57.8589 27.8064 57.4521 27.1796C57.7659 26.5396 58.2341 25.9878 58.8145 25.574L58.8826 25.5254Z" fill="#FAA21B"/>
<path fill-rule="evenodd" clip-rule="evenodd" d="M63.0754 25.214C62.4497 25.6212 61.9474 26.1921 61.6232 26.8645C61.299 27.537 61.1651 28.2854 61.2362 29.0286C60.8015 28.4211 60.5425 27.7056 60.4876 26.9607C60.4326 26.2157 60.5839 25.47 60.9248 24.8053C61.6649 24.7538 62.4058 24.8946 63.0754 25.214Z" fill="#FAA21B"/>
<path fill-rule="evenodd" clip-rule="evenodd" d="M65.4889 28.7153C64.8242 28.3744 64.0785 28.2231 63.3335 28.278C62.5885 28.333 61.8731 28.592 61.2656 29.0267C61.5759 28.3471 62.0665 27.7655 62.6841 27.3452C63.3017 26.9248 64.0227 26.6818 64.7687 26.6426C65.182 27.2606 65.4299 27.9742 65.4889 28.7153Z" fill="#FAA21B"/>
<path fill-rule="evenodd" clip-rule="evenodd" d="M63.64 32.5122C63.602 31.7683 63.3605 31.0492 62.9418 30.4332C62.5231 29.8171 61.9433 29.3279 61.2656 29.0188C62.0077 28.9452 62.7557 29.078 63.4271 29.4025C64.0984 29.727 64.6671 30.2307 65.0704 30.8579C64.7663 31.5013 64.3002 32.0546 63.7178 32.4636L63.64 32.5122Z" fill="#FAA21B"/>
<path fill-rule="evenodd" clip-rule="evenodd" d="M59.4268 32.8321C60.0509 32.4257 60.5521 31.8565 60.8763 31.1859C61.2004 30.5153 61.3352 29.7689 61.2659 29.0273C61.6986 29.6357 61.9564 30.351 62.0112 31.0955C62.0661 31.84 61.916 32.5853 61.5773 33.2506C60.8363 33.2991 60.0955 33.1549 59.4268 32.8321Z" fill="#FAA21B"/>
<path fill-rule="evenodd" clip-rule="evenodd" d="M57.451 27.1777C57.8578 27.8045 58.4282 28.308 59.1006 28.6339C59.7729 28.9598 60.5216 29.0956 61.2655 29.0266C60.6559 29.4563 59.9409 29.7122 59.197 29.7671C58.4532 29.8219 57.7084 29.6736 57.0423 29.338C56.9917 28.5948 57.1324 27.8511 57.451 27.1777Z" fill="#FDBC4E"/>
<path fill-rule="evenodd" clip-rule="evenodd" d="M60.9545 24.8037C60.6136 25.4684 60.4624 26.2141 60.5173 26.9591C60.5722 27.704 60.8312 28.4195 61.2659 29.027C60.5863 28.7167 60.0048 28.2261 59.5844 27.6085C59.1641 26.9909 58.9211 26.2699 58.8818 25.5238C59.4978 25.1066 60.2125 24.8583 60.9545 24.8037Z" fill="#FDBC4E"/>
<path fill-rule="evenodd" clip-rule="evenodd" d="M64.7694 26.6735C64.0234 26.7128 63.3024 26.9558 62.6848 27.3761C62.0672 27.7964 61.5766 28.378 61.2663 29.0576C61.1867 28.3126 61.3134 27.56 61.6326 26.8821C61.9518 26.2042 62.4512 25.6271 63.0763 25.2139C63.7181 25.5248 64.2706 25.9935 64.6819 26.5762L64.7694 26.6735Z" fill="#FDBC4E"/>
<path fill-rule="evenodd" clip-rule="evenodd" d="M65.0704 30.8674C64.6671 30.2401 64.0984 29.7364 63.4271 29.4119C62.7557 29.0873 62.0077 28.9546 61.2656 29.0282C61.8731 28.5935 62.5885 28.3345 63.3335 28.2796C64.0785 28.2246 64.8242 28.3759 65.4889 28.7168C65.541 29.458 65.3966 30.1998 65.0704 30.8674Z" fill="#FDBC4E"/>
<path fill-rule="evenodd" clip-rule="evenodd" d="M61.577 33.2506C61.9157 32.5853 62.0658 31.84 62.0109 31.0955C61.9561 30.351 61.6983 29.6357 61.2656 29.0273C61.9433 29.3364 62.5231 29.8256 62.9418 30.4417C63.3605 31.0577 63.602 31.7769 63.64 32.5208C63.029 32.9423 62.3171 33.1941 61.577 33.2506Z" fill="#FDBC4E"/>
<path fill-rule="evenodd" clip-rule="evenodd" d="M57.7627 31.4017C58.508 31.3644 59.2287 31.1233 59.8464 30.7046C60.4641 30.2859 60.9551 29.7058 61.2658 29.0273C61.3351 29.7689 61.2003 30.5153 60.8762 31.1859C60.5521 31.8565 60.0508 32.4257 59.4267 32.8321C58.7833 32.528 58.23 32.0619 57.8211 31.4795L57.7627 31.4017Z" fill="#FDBC4E"/>
<path d="M10.5767 27.2085L6.88862 25.3402L6.5383 25.165L5.85714 26.5079L4.44615 29.2715C4.39394 29.1039 4.30843 28.9485 4.19472 28.8147C4.08102 28.681 3.94147 28.5715 3.78445 28.493C3.54794 28.3713 3.28059 28.3226 3.01635 28.353C2.75211 28.3835 2.50287 28.4917 2.30022 28.664C2.09757 28.8363 1.95064 29.0649 1.87808 29.3208C1.80552 29.5767 1.81059 29.8484 1.89265 30.1014C1.97471 30.3544 2.13006 30.5773 2.339 30.7419C2.54794 30.9065 2.80106 31.0054 3.06625 31.026C3.33145 31.0465 3.59677 30.9878 3.82858 30.8574C4.06039 30.7269 4.24823 30.5306 4.3683 30.2932L6.20745 26.6831L9.8955 28.5514L8.48449 31.3247C8.37221 30.9844 8.13123 30.7015 7.81307 30.5365C7.49888 30.4015 7.14502 30.3915 6.82369 30.5084C6.50235 30.6254 6.23773 30.8605 6.08381 31.1659C5.92989 31.4712 5.89826 31.8238 5.99537 32.1517C6.09249 32.4796 6.31104 32.7581 6.60643 32.9303C6.76283 33.0109 6.93363 33.0597 7.10898 33.0739C7.28433 33.0881 7.46077 33.0675 7.62812 33.0133C7.79547 32.959 7.95042 32.8721 8.08404 32.7577C8.21766 32.6433 8.32731 32.5035 8.40666 32.3465L10.2458 28.7265L10.927 27.3934L10.5767 27.2085Z" fill="#F5CB15"/>
<path d="M65.1779 41.8623L64.6816 41.6386L64.3215 41.4829L64.7108 41.4245L65.2557 41.3369L65.6644 41.2493L66.0342 41.152L65.6644 41.0547L65.2557 40.9671L64.7108 40.8795L64.3215 40.8212L64.6816 40.6655L65.1779 40.4416L65.5573 40.247L65.8882 40.0621H65.5087H65.0903L64.5453 40.1108L64.1464 40.1692L64.4578 39.9259L64.8859 39.5756L65.1973 39.2836C65.291 39.2024 65.3789 39.1147 65.4601 39.0209L65.1 39.1182L64.701 39.2545L64.1853 39.4393L63.8155 39.595L64.0491 39.3226C64.1658 39.1669 64.2729 39.0112 64.3605 38.875C64.448 38.7387 64.5356 38.6219 64.594 38.5246C64.6524 38.4273 64.7886 38.1938 64.7886 38.1938L64.4578 38.3884C64.3366 38.4594 64.2196 38.5374 64.1074 38.6219L63.6598 38.9333L63.3387 39.1766C63.3941 39.0561 63.4428 38.9327 63.4847 38.8068C63.5625 38.6219 63.6306 38.4468 63.6793 38.2911C63.7279 38.1354 63.7766 37.9992 63.8155 37.8921C63.8544 37.7851 63.9128 37.5223 63.9128 37.5223C63.9128 37.5223 63.8058 37.6196 63.6501 37.7948C63.4944 37.97 63.4652 37.9797 63.3582 38.1062C63.2511 38.2327 63.1343 38.3689 63.0078 38.5344L62.7646 38.8458C62.7646 38.7095 62.7646 38.5733 62.8132 38.4468C62.8619 38.3203 62.8132 38.0673 62.8716 37.9019C62.93 37.7364 62.8716 37.6002 62.8716 37.4834C62.8716 37.3666 62.8716 37.1039 62.8716 37.1039C62.8716 37.1039 62.7938 37.2207 62.6867 37.425C62.5797 37.6294 62.5602 37.6586 62.4921 37.8045L62.2683 38.3105C62.2099 38.4273 62.1613 38.5441 62.1126 38.6706L62.0542 38.2814C61.9958 37.8824 61.9277 37.5515 61.879 37.3083C61.8304 37.065 61.7818 36.9385 61.7818 36.9385C61.7417 37.0596 61.7092 37.1831 61.6844 37.3083C61.6261 37.5321 61.5677 37.8629 61.4995 38.2814C61.4995 38.4079 61.4995 38.5441 61.4509 38.6803C61.3925 38.5538 61.3439 38.4273 61.2952 38.3105C61.1298 37.9408 60.9838 37.6391 60.8768 37.425C60.7697 37.2109 60.6822 37.1039 60.6822 37.1039C60.6822 37.1039 60.6822 37.2401 60.6822 37.4834C60.6822 37.7267 60.6821 38.0478 60.7502 38.4565C60.7502 38.583 60.7503 38.7192 60.7989 38.8555L60.5556 38.5441C60.3613 38.284 60.15 38.0369 59.9231 37.8045L59.6604 37.5321C59.6604 37.5321 59.6604 37.6683 59.7577 37.9019C59.855 38.1354 59.9329 38.4468 60.0788 38.8166C60.1275 38.9333 60.1761 39.0598 60.2345 39.1863L59.9134 38.9431C59.5923 38.7095 59.3101 38.5246 59.1057 38.3981L58.7846 38.2035L58.9695 38.5344C59.096 38.729 59.2809 39.0112 59.5242 39.3323L59.7674 39.6534L59.3977 39.4977C59.0181 39.3518 58.7067 39.2447 58.4732 39.1766L58.1132 39.0793L58.3759 39.342C58.5511 39.5075 58.8041 39.7313 59.1154 39.9746L59.4366 40.2275L59.0376 40.1789C58.6386 40.1789 58.3078 40.1108 58.0645 40.101H57.6947L58.0158 40.2859C58.2299 40.393 58.5316 40.5487 58.8917 40.7044L59.2711 40.8601L58.8625 40.9185C58.4732 40.9769 58.1424 41.045 57.8894 41.0936L57.5293 41.1909L57.8894 41.2882C58.1229 41.2882 58.4538 41.405 58.8625 41.4634L59.2711 41.5218L58.8917 41.6775C58.5316 41.8332 58.2299 41.9889 58.0158 42.0959L57.6947 42.2808H58.0645C58.3078 42.2808 58.6386 42.2808 59.0376 42.2127L59.4366 42.1543L59.1154 42.4073C58.8041 42.6506 58.5511 42.8744 58.3759 43.0398L58.1132 43.3025L58.4732 43.2052C58.7067 43.1371 59.0181 43.0301 59.3977 42.8841L59.7674 42.7284L59.5242 43.0495C59.2809 43.3706 59.096 43.6529 58.9695 43.8572L58.7846 44.1783L59.1057 43.9837C59.3101 43.8669 59.5923 43.6723 59.9134 43.4388L60.2345 43.1955C60.1761 43.322 60.1275 43.4485 60.0788 43.5653C59.9329 43.9448 59.8258 44.2562 59.7577 44.4897C59.6896 44.7233 59.6604 44.8498 59.6604 44.8498L59.9231 44.5773C60.1479 44.3465 60.3591 44.1028 60.5556 43.8475L60.7989 43.5264C60.7989 43.6626 60.7989 43.7988 60.7502 43.9253C60.7502 44.3243 60.6822 44.6552 60.6822 44.8984C60.6822 45.1417 60.6822 45.2682 60.6822 45.2682C60.6822 45.2682 60.76 45.1514 60.8768 44.9471C60.9935 44.7427 61.1298 44.4313 61.2952 44.0713C61.3439 43.9545 61.3925 43.828 61.4509 43.7015C61.4509 43.8377 61.4509 43.9642 61.4995 44.0907C61.5482 44.2172 61.5677 44.4702 61.5969 44.6357C61.6261 44.8011 61.6552 44.9374 61.6844 45.0541C61.7099 45.1759 61.7423 45.2961 61.7818 45.4142L61.879 45.0541C61.879 44.9374 61.9374 44.7914 61.9666 44.6357C61.9958 44.48 62.025 44.2951 62.0542 44.0907C62.0834 43.8864 62.0542 43.8377 62.1126 43.7015C62.1126 43.828 62.2099 43.9545 62.2683 44.0713L62.4921 44.5676C62.5602 44.7135 62.6283 44.84 62.6867 44.9471C62.7451 45.0541 62.8716 45.2682 62.8716 45.2682C62.8779 45.145 62.8779 45.0216 62.8716 44.8984C62.8716 44.7719 62.8716 44.6357 62.8716 44.4703C62.8716 44.3048 62.8716 44.12 62.8132 43.9253C62.7548 43.7307 62.8132 43.6626 62.7646 43.5264L63.0078 43.8475L63.3582 44.2659C63.4484 44.3761 63.5459 44.4802 63.6501 44.5773C63.8058 44.7524 63.9128 44.8498 63.9128 44.8498C63.9128 44.8498 63.9128 44.7135 63.8155 44.4897C63.7182 44.2659 63.7377 44.2367 63.6793 44.081C63.6209 43.9253 63.5625 43.7502 63.4944 43.5653C63.4263 43.3804 63.3971 43.322 63.3387 43.1955L63.6598 43.4388L64.1074 43.7599L64.4578 43.9837L64.7886 44.1783C64.7886 44.1783 64.7205 44.0518 64.594 43.8572C64.5233 43.7327 64.4453 43.6125 64.3605 43.4972C64.2729 43.3609 64.1658 43.2052 64.0491 43.0495L63.8058 42.7284L64.1756 42.8841L64.6913 43.069L65.0903 43.2052L65.4503 43.3025C65.3691 43.2088 65.2813 43.121 65.1876 43.0398L64.8762 42.7576C64.7497 42.6506 64.6037 42.5241 64.448 42.4073L64.1366 42.164L64.5356 42.2127L65.0805 42.2613H65.499H65.8785L65.5476 42.0764L65.1779 41.8623Z" fill="#FBB03B"/>
<path d="M61.8114 43.0984C62.8863 43.0984 63.7576 42.2271 63.7576 41.1522C63.7576 40.0774 62.8863 39.2061 61.8114 39.2061C60.7366 39.2061 59.8652 40.0774 59.8652 41.1522C59.8652 42.2271 60.7366 43.0984 61.8114 43.0984Z" fill="#F79421"/>
<path d="M7.98921 48.4508C7.83351 47.8961 4.54445 40.5979 7.9211 39.6442C8.78715 39.4009 9.16665 39.7415 9.72132 40.3838C10.4706 41.2498 11.1323 43.5755 11.4632 44.7433V44.8698C11.5507 45.1812 12.0178 46.5921 12.1054 46.8938L10.8696 47.3609C10.4998 46.5727 10.2273 45.5996 9.95486 44.9087H9.82836L8.25195 45.5801C8.25195 45.5801 8.31032 45.7456 8.32005 45.8039C8.49511 46.2945 8.69652 46.7753 8.92338 47.2441C8.92338 47.2441 9.11801 47.6528 9.13747 47.6917V47.7988C9.19585 48.0031 7.97948 48.3924 7.95029 48.4021C7.9211 48.4118 7.99894 48.4702 7.98921 48.4508ZM7.98921 44.2275L9.54617 43.6534L9.49751 43.5172C8.8358 41.8726 8.82607 41.8629 8.81634 41.8532C8.68984 41.5612 8.49522 41.1817 7.98921 41.3179C7.16207 41.5515 7.93082 43.7312 7.98921 44.1886V44.2275Z" fill="#E3DC9B"/>
<defs>
<radialGradient id="paint0_radial_7926_32699" cx="0" cy="0" r="1" gradientUnits="userSpaceOnUse" gradientTransform="translate(34 34) scale(34)">
<stop stop-color="#FFCC0E"/>
<stop offset="0.94" stop-color="#F8971D"/>
</radialGradient>
</defs>
</svg>
