<svg width="68" height="68" viewBox="0 0 68 68" fill="none" xmlns="http://www.w3.org/2000/svg">
<path d="M34 68C52.7777 68 68 52.7777 68 34C68 15.2223 52.7777 0 34 0C15.2223 0 0 15.2223 0 34C0 52.7777 15.2223 68 34 68Z" fill="#9E6FB0"/>
<path d="M11.9987 13.3023C12.1901 13.3039 12.374 13.3767 12.5145 13.5067C12.5998 13.5754 12.6648 13.666 12.7025 13.7689C12.7403 13.8718 12.7492 13.983 12.7285 14.0905C12.6623 14.3065 12.5743 14.5152 12.4658 14.7133C12.3073 14.9798 12.239 15.2904 12.2712 15.5988C12.3859 15.9468 12.603 16.252 12.894 16.4746C13.164 16.7212 13.5041 16.8777 13.8671 16.9223C14.1025 16.8654 14.3158 16.7401 14.4801 16.5622C14.6534 16.3389 14.7642 16.0736 14.8012 15.7935C14.8213 15.6939 14.8646 15.6005 14.9278 15.521C14.975 15.4616 15.036 15.4146 15.1056 15.384C15.1751 15.3535 15.251 15.3404 15.3267 15.3458C15.4814 15.3536 15.6274 15.4197 15.7354 15.5307C15.9279 15.709 16.0719 15.9334 16.1538 16.1827C16.189 16.726 16.015 17.2622 15.6673 17.6813C15.4831 17.8825 15.2738 18.0591 15.0445 18.2067L14.2952 18.596C14.0582 18.6634 13.8114 18.6897 13.5654 18.6738C13.1923 18.6289 12.8335 18.5027 12.5145 18.3041C12.1681 18.1176 11.842 17.8959 11.5414 17.6423C11.3331 17.4736 11.1525 17.2733 11.0062 17.0487C10.7233 16.4413 10.6058 15.77 10.6656 15.1026C10.6887 14.7604 10.7885 14.4278 10.9575 14.1295C11.0934 13.9243 11.2395 13.7262 11.3954 13.5359C11.4748 13.4579 11.5692 13.397 11.673 13.3569C11.7767 13.3167 11.8876 13.2982 11.9987 13.3023Z" fill="white"/>
<path d="M13.7207 10.8302C13.7245 10.5942 13.7539 10.3593 13.8083 10.1296C13.8282 9.88241 13.9311 9.64923 14.1002 9.46789C14.3499 9.33241 14.64 9.29099 14.9176 9.35112C15.2066 9.3506 15.4899 9.43153 15.735 9.58466C15.7937 9.65903 15.8215 9.75308 15.8129 9.8474C15.8144 9.89435 15.8046 9.94098 15.7843 9.98333C15.764 10.0257 15.7337 10.0625 15.6961 10.0907C15.6433 10.1314 15.5778 10.152 15.5112 10.1491C15.3294 10.1469 15.149 10.1174 14.976 10.0615C14.9146 10.0347 14.8484 10.0209 14.7814 10.0209C14.7144 10.0209 14.6482 10.0347 14.5868 10.0615C14.5284 10.0615 14.4797 10.2756 14.4505 10.5772C14.4452 10.7658 14.4124 10.9527 14.3532 11.1319C14.3164 11.1642 14.2729 11.188 14.2258 11.2015C14.1786 11.2149 14.1291 11.2177 14.0808 11.2097C13.9795 11.1923 13.8889 11.1366 13.8278 11.054C13.7779 10.9871 13.7415 10.9111 13.7207 10.8302ZM14.8592 11.4141C14.7531 11.6123 14.6873 11.8296 14.6656 12.0534C14.6439 12.2772 14.6667 12.5031 14.7327 12.718C14.863 13.1563 15.0223 13.5854 15.2096 14.0025C15.3352 14.2043 15.4716 14.3992 15.6183 14.5864C15.8274 14.8714 16.0965 15.1072 16.4065 15.2773C16.7287 15.4374 17.0791 15.5332 17.4379 15.5595C17.8155 15.4655 18.1677 15.2894 18.4694 15.0437C18.8113 14.7592 19.1154 14.4322 19.3744 14.0706C19.496 13.6876 19.496 13.2763 19.3744 12.8932C19.164 12.4628 18.8955 12.0634 18.5765 11.706C18.0926 11.1914 17.4534 10.8496 16.7568 10.7329C16.0593 10.7018 15.3777 10.9465 14.8592 11.4141ZM16.5622 13.5354C16.4629 13.3906 16.3904 13.2291 16.3481 13.0586C16.2702 12.7959 16.2605 12.6402 16.3481 12.5721C16.4902 12.4426 16.6653 12.3551 16.8541 12.3191C16.9454 12.2945 17.0419 12.2971 17.1317 12.3264C17.2216 12.3558 17.301 12.4107 17.3601 12.4845C17.7007 12.9029 17.7007 13.2532 17.3601 13.5257C17.0195 13.7982 16.747 13.7982 16.533 13.5354H16.5622Z" fill="white"/>
<path d="M20.4258 6.94816C20.4258 6.76328 20.5523 6.58812 20.9415 6.43242C21.3308 6.27673 21.7395 6.25725 21.866 6.51026C21.9391 6.63082 22.001 6.75785 22.0509 6.88977L22.1773 7.19144C22.2038 7.25163 22.2265 7.31336 22.2455 7.37631L22.2941 7.50282C22.4985 7.9991 22.6834 8.25211 22.8391 8.27158C22.9948 8.29104 23.1407 8.05748 23.1602 7.75582C23.1602 7.61959 23.1602 7.32767 23.1602 6.89951C23.1574 6.77022 23.1905 6.6427 23.2558 6.53106C23.3211 6.41942 23.416 6.32802 23.53 6.26698C23.7535 6.18835 23.9973 6.18835 24.2209 6.26698C24.3335 6.29169 24.4388 6.3424 24.5283 6.41505C24.6179 6.4877 24.6892 6.5803 24.7366 6.68542C24.7431 6.75013 24.7431 6.81533 24.7366 6.88004C24.7661 7.51946 24.5503 8.14602 24.1333 8.63162C24.5306 8.64747 24.9153 8.77569 25.2426 9.0014C25.5829 9.21451 25.8614 9.51313 26.0503 9.86745C26.1023 9.9634 26.1254 10.0724 26.1168 10.1812C26.1081 10.29 26.0682 10.394 26.0016 10.4805C25.8805 10.6607 25.7074 10.7999 25.5053 10.8795C25.3341 10.9548 25.1437 10.9752 24.9604 10.9379C24.7729 10.8152 24.6027 10.6679 24.4544 10.5C24.2992 10.3274 24.1299 10.1679 23.9484 10.0231C23.8845 9.9631 23.8055 9.92147 23.7198 9.90263C23.6342 9.88379 23.5451 9.88844 23.4618 9.9161L23.3353 9.98422C23.2935 10.0567 23.2715 10.1389 23.2715 10.2226C23.2715 10.3063 23.2935 10.3886 23.3353 10.461C23.4722 10.7332 23.6458 10.9853 23.8511 11.2103C23.8997 11.5022 23.7246 11.7261 23.3451 11.8818C23.1518 11.9758 22.9328 12.0032 22.7223 11.9596C22.6212 11.9412 22.5263 11.8978 22.4464 11.8331C22.3664 11.7685 22.3041 11.6849 22.2649 11.5898C21.6162 10.221 21.2172 9.34522 21.068 8.96247C20.8069 8.30694 20.5923 7.63385 20.4258 6.94816Z" fill="white"/>
<path d="M25.7578 4.98234C25.7578 4.73907 25.9232 4.58337 26.2833 4.50552C26.4288 4.48905 26.5757 4.48905 26.7212 4.50552C26.9353 4.50552 27.0617 4.50552 27.0715 4.61256C27.1626 4.71251 27.2205 4.83835 27.2369 4.97262C27.2869 5.249 27.3162 5.52872 27.3245 5.80947C27.3328 6.09021 27.362 6.36995 27.4121 6.64633C27.4704 6.89933 27.5386 7.01611 27.6359 6.99664C27.7731 6.94462 27.9064 6.88284 28.0349 6.81177C28.209 6.71289 28.3955 6.63762 28.5895 6.58795C28.861 6.52867 29.1391 6.50577 29.4166 6.51984C29.9421 6.59768 30.3119 7.16208 30.5357 8.20329C30.666 8.63496 30.7025 9.0895 30.6427 9.53643C30.6427 9.66293 30.4481 9.76997 30.1465 9.82836C29.9612 9.89691 29.7576 9.89691 29.5723 9.82836C29.4985 9.76733 29.4379 9.69181 29.3944 9.60645C29.3509 9.52109 29.3253 9.42771 29.3194 9.33209C29.3194 9.24451 29.3193 9.10827 29.2512 8.93311C29.2383 8.80246 29.2189 8.67256 29.1928 8.54388C29.1053 8.14491 28.9204 7.97948 28.6479 8.03787C28.4625 8.09129 28.2879 8.17692 28.1322 8.29087C28.0251 8.34925 27.9959 8.49522 28.0543 8.74822C28.0543 8.84553 28.1127 8.9915 28.1614 9.16666C28.21 9.34182 28.2587 9.48778 28.2781 9.58509C28.3043 9.71351 28.3043 9.84591 28.2781 9.97433C28.2781 10.1592 28.0835 10.2857 27.6943 10.3636C27.305 10.4414 27.052 10.4122 26.9644 10.2565C26.4844 8.62172 26.16 7.37616 25.9913 6.51984C25.8743 6.01407 25.7962 5.50006 25.7578 4.98234Z" fill="white"/>
<path d="M33.5427 4.38863C34.4574 4.38863 34.9343 4.89464 34.9635 5.98451C34.8564 6.72406 34.4866 7.1133 33.8347 7.12303C33.6647 7.126 33.4949 7.10967 33.3287 7.07437C33.1633 7.03283 32.9931 7.0132 32.8226 7.01599C32.7976 7.00622 32.7698 7.00622 32.7448 7.01599C32.7026 7.04009 32.6682 7.07586 32.6457 7.11901C32.6233 7.16215 32.6138 7.21085 32.6183 7.25926C32.622 7.35381 32.6601 7.44374 32.7253 7.51226C32.7892 7.58713 32.8739 7.64133 32.9686 7.66796C33.2244 7.73473 33.4845 7.78351 33.7471 7.81394C33.9916 7.80157 34.2276 7.72063 34.4283 7.58039C34.5234 7.53823 34.6259 7.51508 34.7299 7.51226C34.8038 7.50678 34.878 7.51793 34.9471 7.54487C35.0161 7.57181 35.0782 7.61387 35.1289 7.66796C35.1769 7.72372 35.213 7.7888 35.2347 7.85912C35.2565 7.92944 35.2635 8.0035 35.2554 8.07666C35.2545 8.3265 35.1874 8.57165 35.0608 8.78703C34.8624 8.9899 34.6237 9.149 34.3601 9.25412C34.125 9.35164 33.8748 9.40761 33.6206 9.41954C33.3484 9.41158 33.0778 9.37571 32.8129 9.3125C32.3458 9.1568 32.0831 9.0595 32.0247 9.03031C31.8189 8.91317 31.6346 8.76178 31.4797 8.58268C31.1103 8.14219 30.9162 7.5809 30.9348 7.00626C30.9287 6.8035 30.9484 6.60077 30.9932 6.40293C31.1878 5.31307 31.6647 4.68055 32.4431 4.45674C32.7448 4.45674 33.0075 4.38864 33.2021 4.37891L33.5427 4.38863ZM32.9491 5.93585C33.0381 5.98655 33.1387 6.01337 33.2411 6.0137C33.3384 6.00347 33.4318 5.9701 33.5135 5.91639C33.5541 5.89352 33.5868 5.85908 33.6076 5.81747C33.6284 5.77586 33.6363 5.72898 33.6303 5.68285C33.632 5.63503 33.6201 5.58769 33.596 5.54635C33.5719 5.50501 33.5365 5.47136 33.4941 5.4493C33.4115 5.4002 33.3176 5.37337 33.2216 5.37145C33.1176 5.37854 33.0171 5.41204 32.9297 5.46877C32.8897 5.49295 32.857 5.52732 32.8347 5.56837C32.8125 5.60942 32.8016 5.65566 32.8032 5.70232C32.8055 5.75047 32.8202 5.79721 32.8457 5.83809C32.8713 5.87897 32.9069 5.91263 32.9491 5.93585Z" fill="white"/>
<path d="M37.2799 9.39957C37.2799 9.60392 36.9977 9.67205 36.5208 9.59421C36.044 9.51636 35.791 9.38012 35.791 9.17577C35.7982 8.31771 35.8763 7.4617 36.0245 6.61652C36.0843 5.97348 36.2521 5.34513 36.5208 4.75791C36.5805 4.64885 36.6762 4.56394 36.7916 4.51777C36.9071 4.47161 37.0349 4.46705 37.1533 4.5049C37.2793 4.52177 37.3994 4.56847 37.5036 4.64113C37.5588 4.67172 37.6044 4.71704 37.6354 4.77202C37.6663 4.827 37.6813 4.8895 37.6788 4.95253C37.6702 4.99753 37.6702 5.04376 37.6788 5.08876C37.6788 5.08876 37.6788 5.14714 37.7956 5.15687C37.8465 5.17802 37.9011 5.18891 37.9562 5.18891C38.0113 5.18891 38.0658 5.17802 38.1167 5.15687C38.2218 5.07176 38.3449 5.01185 38.4767 4.98172C38.6886 4.93847 38.9071 4.93847 39.119 4.98172C39.5043 5.03635 39.8533 5.23876 40.0921 5.54612C40.2108 5.68909 40.296 5.8568 40.3414 6.03696C40.3869 6.21712 40.3915 6.40516 40.3548 6.58732C40.3293 7.02748 40.2805 7.46598 40.2089 7.90101C40.1208 8.61318 39.9375 9.31031 39.6639 9.97371C39.5666 10.1099 39.3136 10.1489 38.9244 10.0808C38.5352 10.0126 38.3794 9.89586 38.36 9.71097C38.3155 9.53534 38.3155 9.35139 38.36 9.17577C38.36 9.04926 38.4184 8.86438 38.467 8.62111C38.5157 8.37783 38.5449 8.18321 38.5643 8.05671C38.7103 7.20039 38.6422 6.77222 38.3697 6.77222H37.9416C37.7956 6.77222 37.6983 6.87925 37.6399 7.07387C37.6001 7.2241 37.5708 7.37692 37.5523 7.53123C37.562 7.37553 37.4745 8.06643 37.2799 9.39957Z" fill="white"/>
<path d="M47.6722 8.06674C47.7243 8.24811 47.7069 8.44239 47.6235 8.61167C47.5966 8.67994 47.5559 8.74196 47.504 8.79386C47.4522 8.84575 47.3902 8.88641 47.3219 8.91332C46.9188 8.85059 46.5129 8.80838 46.1055 8.78683C45.9016 8.76671 45.6962 8.80664 45.5146 8.90173C45.3331 8.99682 45.1833 9.14291 45.0837 9.32202C44.9961 9.58745 44.9961 9.87401 45.0837 10.1394C45.2066 10.3468 45.3853 10.5154 45.5995 10.626C45.8579 10.7326 46.1406 10.7662 46.4169 10.7233C46.5202 10.731 46.6219 10.754 46.7185 10.7914C46.7851 10.8227 46.8445 10.8673 46.8931 10.9226C46.9417 10.9778 46.9783 11.0425 47.0007 11.1125C47.0205 11.1846 47.0246 11.2601 47.0129 11.334C47.0011 11.4078 46.9738 11.4783 46.9326 11.5407C46.8229 11.7637 46.6504 11.9497 46.4364 12.0759C46.1686 12.1723 45.8829 12.2089 45.5995 12.1829C45.3468 12.1677 45.0992 12.105 44.8697 11.998C44.6305 11.8694 44.4055 11.7162 44.1982 11.5407C43.8479 11.1807 43.6533 10.9763 43.6241 10.9276C43.4874 10.7302 43.3884 10.5091 43.3322 10.2757C43.204 9.71747 43.2872 9.13158 43.5657 8.63113C43.6451 8.44347 43.7534 8.26944 43.8868 8.11539C44.3915 7.69772 45.0004 7.42525 45.6482 7.32719C45.9838 7.2451 46.3343 7.2451 46.6699 7.32719C46.9082 7.39777 47.1421 7.48224 47.3705 7.58019C47.5176 7.70845 47.6227 7.87797 47.6722 8.06674Z" fill="white"/>
<path d="M51.8369 11.1512C51.9061 11.8575 51.7457 12.5673 51.3795 13.1752C51.1065 13.5784 50.779 13.9419 50.4064 14.2554C50.0715 14.4728 49.6763 14.5784 49.2776 14.557C48.8479 14.4208 48.4412 14.2207 48.071 13.9634C47.7528 13.7375 47.4872 13.4454 47.2925 13.1071C47.2293 12.7531 47.2293 12.3907 47.2925 12.0367C47.3714 11.6826 47.5276 11.3503 47.7499 11.0636C47.8914 10.87 48.0441 10.6848 48.2072 10.5089C48.554 10.2124 48.9251 9.94549 49.3166 9.71102C49.5043 9.58852 49.7147 9.50476 49.9352 9.46465C50.1558 9.42455 50.3822 9.42891 50.6011 9.47747C50.9094 9.6585 51.1779 9.90015 51.3903 10.1878C51.6027 10.4755 51.7546 10.8032 51.8369 11.1512ZM49.2582 12.4649C49.6182 12.7276 49.9588 12.64 50.2313 12.2021C50.2836 12.1227 50.3115 12.0297 50.3115 11.9345C50.3115 11.8394 50.2836 11.7464 50.2313 11.6669C50.1505 11.4894 50.0183 11.3402 49.8518 11.2388C49.7739 11.2388 49.6182 11.2388 49.3944 11.3847C49.2382 11.4679 49.0995 11.5802 48.9857 11.7156C48.8398 11.9589 48.9176 12.2216 49.2582 12.4649Z" fill="white"/>
<path d="M51.5648 16.4649C51.4188 16.6206 51.1755 16.5136 50.8447 16.1632C50.5138 15.8129 50.3971 15.5405 50.5138 15.3848C51.0446 14.7082 51.6304 14.0768 52.2654 13.4969C52.7015 13.0218 53.2148 12.6238 53.7834 12.3195C53.8982 12.2697 54.0266 12.2608 54.1471 12.2945C54.2676 12.3282 54.3728 12.4023 54.4451 12.5044C54.5315 12.5968 54.5978 12.7062 54.6397 12.8255C54.661 12.8856 54.6668 12.9501 54.6566 13.013C54.6464 13.0759 54.6206 13.1353 54.5814 13.1855L54.4938 13.2829C54.4925 13.3062 54.4962 13.3295 54.5046 13.3513C54.513 13.3731 54.5258 13.3929 54.5424 13.4094C54.5734 13.4554 54.6156 13.4929 54.6649 13.5184C54.7142 13.5439 54.7691 13.5566 54.8246 13.5553C54.9627 13.5612 55.0983 13.5943 55.2236 13.6526C55.422 13.7347 55.601 13.8573 55.7491 14.0127C56.0211 14.2874 56.1748 14.6576 56.1772 15.0442C56.1795 15.2275 56.1424 15.4092 56.0686 15.5771C55.9947 15.7449 55.8858 15.895 55.7491 16.0173C55.4961 16.3092 55.1944 16.6206 54.8343 16.9904C54.3304 17.5038 53.7612 17.9488 53.1412 18.3138C52.9757 18.3138 52.7519 18.2359 52.4795 17.944C52.207 17.6521 52.1681 17.4672 52.2654 17.3115C52.3627 17.1558 52.3822 17.1071 52.606 16.8931L53.0244 16.5135L53.4526 16.134C54.0851 15.5404 54.2894 15.1609 54.0753 14.9955L53.725 14.7425C53.6083 14.6549 53.472 14.6841 53.3066 14.8009C53.1805 14.8936 53.0632 14.9979 52.9563 15.1123L51.5648 16.4649Z" fill="white"/>
<path d="M24.7078 56.3708C24.7803 56.552 24.7803 56.7541 24.7078 56.9352C24.6631 57.0349 24.5927 57.1208 24.5037 57.1841C24.4148 57.2474 24.3105 57.2858 24.2018 57.2953C23.9763 57.2809 23.752 57.2516 23.5303 57.2077C23.2313 57.1261 22.9139 57.1432 22.6253 57.2564C22.3229 57.4619 22.0891 57.7534 21.9539 58.0932C21.7842 58.4262 21.723 58.8039 21.7788 59.1734C21.8955 59.3879 22.0756 59.5612 22.2945 59.6696C22.5553 59.7801 22.8423 59.8139 23.1216 59.7669C23.2252 59.7648 23.328 59.7847 23.4233 59.8253C23.4918 59.8547 23.5523 59.9001 23.5997 59.9577C23.6471 60.0152 23.68 60.0833 23.6957 60.1562C23.7264 60.3088 23.7023 60.4673 23.6276 60.6038C23.5107 60.8383 23.3325 61.0367 23.1119 61.1779C22.8448 61.2903 22.5529 61.3306 22.2653 61.2947C22.0125 61.2874 21.764 61.2277 21.5355 61.1195C21.2944 60.9902 21.0691 60.8335 20.864 60.6525L20.2899 60.0394C20.1614 59.8293 20.0693 59.599 20.0174 59.3582C19.9562 58.9842 19.9829 58.6011 20.0953 58.2392C20.1848 57.8703 20.3119 57.5116 20.4748 57.1688C20.5843 56.9255 20.7286 56.6993 20.9029 56.4973C21.4125 56.0569 22.0308 55.7612 22.6934 55.641C23.0334 55.5676 23.385 55.5676 23.725 55.641C23.9632 55.7154 24.1971 55.8032 24.4256 55.9037C24.5716 56.0214 24.6715 56.1868 24.7078 56.3708Z" fill="white"/>
<path d="M25.6222 56.8777C25.7292 56.6539 25.953 56.5955 26.3131 56.6928C26.4509 56.7355 26.5844 56.7909 26.712 56.8582C26.9067 56.9652 26.9943 57.0528 26.9748 57.1307C27.0178 57.2569 27.0178 57.3937 26.9748 57.5199C26.8893 57.7864 26.7852 58.0465 26.6634 58.2984C26.5493 58.5557 26.4486 58.8188 26.3617 59.0866C26.2936 59.3396 26.3034 59.4758 26.3617 59.4953C26.5105 59.5113 26.6606 59.5113 26.8094 59.4953C27.0057 59.4902 27.2018 59.5099 27.3932 59.5537C27.6604 59.6324 27.9182 59.7401 28.162 59.8748C28.5901 60.1862 28.668 60.8479 28.3858 61.8891C28.2999 62.3289 28.1244 62.7463 27.87 63.1152C27.7824 63.2223 27.5878 63.232 27.2862 63.1152C27.0904 63.0813 26.9119 62.9818 26.7802 62.833C26.7105 62.6513 26.7105 62.4503 26.7802 62.2686C26.7802 62.181 26.8483 62.0545 26.9067 61.8891C26.9526 61.7649 26.9916 61.6382 27.0234 61.5096C27.1305 61.1204 27.0234 60.8966 26.7704 60.8187C26.5845 60.7778 26.3919 60.7778 26.206 60.8187C26.0795 60.8187 25.9919 60.9355 25.9238 61.1885C25.9238 61.2761 25.8654 61.422 25.8265 61.6069C25.8063 61.7481 25.7771 61.8879 25.7389 62.0253C25.7138 62.157 25.657 62.2806 25.5735 62.3854C25.4957 62.5411 25.2621 62.5703 24.8826 62.4632C24.5031 62.3562 24.2793 62.2102 24.2793 62.0253C24.6101 60.3614 24.8826 59.1061 25.1162 58.2595C25.2552 57.7885 25.4242 57.327 25.6222 56.8777Z" fill="white"/>
<path d="M29.8354 58.6683C30.3356 58.3339 30.9467 58.2082 31.5384 58.318C31.8349 58.3129 32.1289 58.373 32.3996 58.4941C32.6703 58.6151 32.9112 58.7942 33.105 59.0187C33.3191 59.1744 33.4359 59.6025 33.4651 60.3129C33.4985 60.7891 33.4985 61.2671 33.4651 61.7433C33.4443 62.3587 33.3124 62.9653 33.0758 63.5338C32.998 63.7868 32.7839 63.9036 32.4238 63.8744C32.0638 63.8452 31.9762 63.7479 31.9568 63.5727C31.6711 63.6642 31.37 63.6973 31.0713 63.6701C30.4933 63.6527 29.9436 63.4161 29.5337 63.0084C29.2926 62.6295 29.1863 62.1803 29.2321 61.7336C29.2392 61.565 29.2819 61.3998 29.3574 61.2489C29.4329 61.0979 29.5394 60.9647 29.67 60.8578C29.8234 60.7272 30.0016 60.6288 30.1938 60.5687C30.3861 60.5085 30.5885 60.4877 30.789 60.5075C31.16 60.5629 31.5187 60.6814 31.8497 60.8578C32.0541 60.8578 32.1708 60.7702 32.1903 60.5367C32.1977 60.3804 32.1606 60.2251 32.0833 60.0891C32.0023 59.9568 31.8837 59.8518 31.7427 59.7874C31.5727 59.7137 31.392 59.6677 31.2075 59.6512C30.9914 59.6411 30.7757 59.6776 30.575 59.7582C30.4223 59.8212 30.262 59.8637 30.0982 59.8847C29.9727 59.8642 29.8551 59.8104 29.7576 59.729C29.649 59.5613 29.5946 59.3643 29.6019 59.1646C29.6011 59.0697 29.6216 58.9758 29.6621 58.8898C29.7025 58.8039 29.7618 58.7282 29.8354 58.6683ZM30.4679 57.16C30.4698 57.1127 30.482 57.0663 30.5039 57.0242C30.5258 56.9822 30.5567 56.9455 30.5944 56.9168C30.6327 56.8872 30.6766 56.8659 30.7235 56.8542C30.7704 56.8425 30.8193 56.8406 30.8669 56.8487C30.9831 56.9169 31.0828 57.0099 31.1588 57.1211C31.2199 57.1988 31.2964 57.2631 31.3835 57.31C31.4705 57.3569 31.5663 57.3853 31.6648 57.3936C31.828 57.4134 31.9924 57.3679 32.1222 57.2671C32.239 57.1698 32.3168 57.0919 32.3849 57.0238C32.4419 57.0059 32.5031 57.0059 32.5601 57.0238C32.6065 57.0257 32.652 57.037 32.6938 57.0571C32.7356 57.0771 32.7729 57.1056 32.8034 57.1406C32.8554 57.2141 32.8795 57.3038 32.8715 57.3936C32.7759 57.6133 32.6027 57.79 32.3849 57.8899C32.1606 58.0374 31.8935 58.1058 31.6259 58.0845C31.3931 58.0666 31.1687 57.9895 30.9739 57.8607C30.793 57.7518 30.6372 57.6059 30.5166 57.4325C30.4792 57.3571 30.4624 57.2732 30.4679 57.1892V57.16ZM30.5166 61.9477C30.5067 61.9983 30.5095 62.0506 30.5248 62.0998C30.5401 62.1491 30.5673 62.1938 30.6042 62.2299C30.6932 62.2733 30.7884 62.3028 30.8864 62.3175C31.0237 62.3517 31.1674 62.3517 31.3048 62.3175C31.3732 62.3052 31.4359 62.2711 31.4832 62.2202C31.5306 62.1693 31.5602 62.1044 31.5675 62.0353C31.5675 61.8017 31.4021 61.6363 31.0226 61.539C30.9629 61.5224 30.9002 61.5199 30.8394 61.5317C30.7786 61.5435 30.7214 61.5693 30.6723 61.6071C30.5761 61.7066 30.5205 61.8385 30.5166 61.9769V61.9477Z" fill="white"/>
<path d="M38.6126 63.3682C38.5649 63.4573 38.493 63.5311 38.4052 63.581C38.3174 63.631 38.2172 63.655 38.1163 63.6504C37.8827 63.6504 37.7368 63.6018 37.6784 63.4363C37.5583 63.2087 37.498 62.9542 37.5032 62.6968L37.4448 62.1129C37.4448 61.7431 37.3476 61.568 37.2794 61.5875C37.2113 61.6069 37.1627 61.8307 37.2113 62.2978C37.2113 62.2978 37.2113 62.3562 37.2113 62.4146C37.2113 62.473 37.2113 62.5605 37.2113 62.5995V62.9109C37.2356 63.1145 37.2356 63.3203 37.2113 63.5239C37.2113 63.592 37.0945 63.6602 36.9291 63.7185C36.8153 63.7563 36.6979 63.7824 36.5788 63.7964C36.2869 63.7964 36.1117 63.7964 36.0339 63.6115C35.9954 63.5054 35.9756 63.3935 35.9755 63.2807C35.9755 63.1833 35.9755 63.0471 35.9755 62.8525C35.9755 62.6579 35.9755 62.5314 35.9755 62.434C35.9236 61.9929 35.8457 61.7788 35.7419 61.7918C35.6544 61.7918 35.6349 62.0837 35.6933 62.6676C35.6933 62.9498 35.7711 63.2806 35.8295 63.6407C35.7614 63.8061 35.5862 63.8937 35.3235 63.9229C35.2104 63.9372 35.096 63.9372 34.9829 63.9229C34.8175 63.9229 34.7202 63.8353 34.7007 63.7672C34.4937 62.8731 34.3474 61.9661 34.2628 61.0523C34.1637 60.4465 34.1637 59.8286 34.2628 59.2228C34.3082 58.9893 34.5126 58.853 34.8759 58.8141C35.197 58.8141 35.3819 58.8141 35.4306 59.0088L35.5473 59.4466C35.5266 59.352 35.5329 59.2534 35.5656 59.1622C35.5983 59.071 35.6561 58.9908 35.7322 58.9309C35.879 58.8021 36.0631 58.7237 36.2577 58.7071C36.4288 58.6851 36.6023 58.7236 36.748 58.8161C36.8937 58.9085 37.0025 59.0489 37.0556 59.2131C37.0556 58.8239 37.2794 58.6195 37.5908 58.5903C37.7147 58.5753 37.8401 58.5991 37.9499 58.6583C38.0597 58.7176 38.1484 58.8094 38.2039 58.9212C38.3886 59.572 38.5028 60.2408 38.5445 60.916C38.6632 61.7279 38.686 62.551 38.6126 63.3682Z" fill="white"/>
<path d="M44.2954 56.8678C44.3803 56.9075 44.4562 56.9643 44.5181 57.0346C44.5801 57.1049 44.6268 57.1873 44.6555 57.2765C44.6841 57.3426 44.6989 57.4138 44.6989 57.4857C44.6989 57.5577 44.6841 57.6289 44.6555 57.6949C44.3297 57.9432 44.0208 58.2131 43.7311 58.5026C43.5757 58.6364 43.4633 58.8129 43.4079 59.0103C43.3525 59.2076 43.3566 59.4169 43.4197 59.612C43.5391 59.8629 43.7373 60.0679 43.984 60.1958C44.2163 60.2611 44.4621 60.2611 44.6944 60.1958C44.9487 60.0762 45.1669 59.8916 45.3269 59.6606C45.4001 59.59 45.4859 59.5339 45.5799 59.4952C45.647 59.4639 45.72 59.4477 45.794 59.4477C45.868 59.4477 45.9411 59.4639 46.0081 59.4952C46.0756 59.5286 46.135 59.5764 46.1821 59.6352C46.2292 59.6941 46.2628 59.7625 46.2806 59.8358C46.3666 60.0693 46.3835 60.3227 46.3292 60.5656C46.2155 60.8262 46.0461 61.0587 45.8329 61.2467C45.6472 61.4183 45.4332 61.5566 45.2004 61.6555C44.9417 61.7431 44.6741 61.8018 44.4025 61.8306H43.5656C43.3294 61.7946 43.1018 61.7155 42.8942 61.5971C42.4001 61.3055 42.0272 60.8462 41.8433 60.3028C41.7696 60.1153 41.7205 59.9191 41.6973 59.719C41.7313 59.0647 41.9507 58.4336 42.3298 57.8993C42.5046 57.5993 42.7523 57.3483 43.0499 57.1695C43.1277 57.1208 43.3515 57.004 43.7116 56.8386C43.9036 56.7796 44.1103 56.7899 44.2954 56.8678Z" fill="white"/>
<path d="M44.9967 55.7494C44.9091 55.5256 44.9967 55.3115 45.3275 55.1169C45.4555 55.0477 45.589 54.9892 45.7265 54.9417C45.9406 54.8736 46.0574 54.8736 46.0963 54.9417C46.2147 55.0045 46.3101 55.1034 46.3688 55.2239C46.5111 55.4672 46.6347 55.7209 46.7385 55.9829C46.8424 56.245 46.966 56.4987 47.1083 56.7419C47.2348 56.9658 47.3516 57.0436 47.4294 56.9949C47.544 56.9026 47.6484 56.7982 47.7408 56.6836C47.8731 56.5355 48.0235 56.4048 48.1884 56.2943C48.4262 56.1471 48.6811 56.0294 48.9475 55.944C49.4632 55.8467 50.0081 56.2457 50.5628 57.1604C50.8358 57.5184 51.0223 57.9347 51.1077 58.3767C51.1077 58.513 51.0104 58.6589 50.7477 58.8244C50.5893 58.9464 50.3928 59.0085 50.193 58.9995C50.0665 58.9995 49.9303 58.8438 49.7843 58.6103C49.7843 58.5422 49.6773 58.4254 49.5995 58.26L49.4048 57.9097C49.1907 57.5691 48.9669 57.4718 48.7236 57.6275C48.5647 57.7357 48.4291 57.8747 48.3247 58.0362C48.2371 58.114 48.2663 58.2697 48.4025 58.4935C48.4774 58.6145 48.5586 58.7314 48.6458 58.8438C48.7626 58.9995 48.8404 59.1163 48.8988 59.2039C48.9694 59.3138 49.0189 59.4359 49.0448 59.5639C49.1032 59.7293 48.9669 59.924 48.6264 60.1283C48.2858 60.3327 48.0328 60.3911 47.8965 60.2743C46.9234 58.8925 46.1741 57.8318 45.7168 57.0825C45.4441 56.6566 45.2034 56.211 44.9967 55.7494Z" fill="white"/>
<path d="M48.5287 53.6272C48.4657 53.4477 48.4657 53.2521 48.5287 53.0725C48.6001 52.8982 48.7179 52.7468 48.8693 52.6347C49.0073 52.5177 49.1705 52.4345 49.3461 52.3914C49.4301 52.3601 49.5207 52.3509 49.6092 52.3645C49.6978 52.3781 49.7814 52.4142 49.8521 52.4692C49.9262 52.5204 49.9919 52.5828 50.0468 52.6541C50.1456 52.7639 50.2129 52.8984 50.2414 53.0434C50.28 53.1903 50.2626 53.3464 50.1927 53.4812C50.1872 53.533 50.1872 53.5852 50.1927 53.6369V53.8802C50.2099 53.9186 50.2135 53.9617 50.2028 54.0024C50.1922 54.0431 50.1681 54.0789 50.1343 54.104C50.0946 54.1325 50.047 54.1479 49.9981 54.1479C49.9492 54.1479 49.9016 54.1325 49.8619 54.104H49.8132C49.7616 54.073 49.7155 54.0336 49.677 53.9873C49.6493 53.9537 49.6289 53.9147 49.6171 53.8728C49.6054 53.8309 49.6026 53.787 49.6089 53.744C49.6322 53.6577 49.6615 53.5732 49.6964 53.491C49.7216 53.4377 49.7346 53.3796 49.7346 53.3207C49.7346 53.2618 49.7216 53.2036 49.6964 53.1504C49.6509 53.1059 49.5934 53.0755 49.531 53.0628C49.4834 53.0314 49.4275 53.0147 49.3705 53.0147C49.3134 53.0147 49.2576 53.0314 49.2099 53.0628C49.1338 53.1287 49.074 53.2113 49.0352 53.3042C48.9964 53.397 48.9796 53.4976 48.9861 53.598C48.8304 53.7245 48.7136 53.744 48.6358 53.598C48.6049 53.6206 48.5668 53.631 48.5287 53.6272ZM49.9689 55.0577C49.9689 54.8533 50.0565 54.6392 50.3582 54.396C50.6598 54.1527 50.9517 54.0456 51.1658 54.1235C51.6011 54.4548 51.9819 54.8521 52.2946 55.3009C52.6499 55.6944 52.957 56.1289 53.2093 56.5952C53.2677 56.7768 53.1217 57.0103 52.7714 57.2958C52.4503 57.5683 52.207 57.6558 52.0513 57.578C51.5589 57.2264 51.1282 56.7956 50.7766 56.3032C50.4235 55.9488 50.1484 55.5246 49.9689 55.0577Z" fill="white"/>
<path d="M37.873 28.7642C39.0408 26.818 39.3424 24.6869 40.6269 22.8575C41.2304 21.9879 41.9253 21.1854 42.6996 20.4637C43.9744 19.2863 46.5044 18.2742 47.2732 20.6389C48.4409 24.2393 46.3001 28.2777 45.7454 31.8197C45.5605 33.1334 45.0642 35.0018 45.4243 36.3738C45.5605 36.9285 45.9595 36.9674 45.7454 37.561C45.3172 38.719 43.6046 39.1764 42.5342 39.1764C41.7236 39.3291 40.8851 39.1876 40.1696 38.7774C39.5757 38.2814 39.1086 37.6509 38.8072 36.9382C38.4961 36.022 38.3255 35.064 38.3012 34.0968L37.873 28.7642Z" fill="#F16383"/>
<path d="M44.1789 36.8125C42.7679 37.6104 41.357 37.5813 39.8389 37.9413L39.5762 38.0191C39.5873 38.8271 39.766 39.624 40.101 40.3593C40.436 41.0946 40.92 41.7524 41.5224 42.291C42.5928 41.4542 43.634 40.5978 44.7239 39.7318L44.1789 36.8125Z" fill="#EFC11D"/>
<path d="M27.8016 44.9376C24.8289 45.0004 21.8557 44.8377 18.9075 44.451C16.2218 44.0521 13.0689 42.0669 12.8938 39.0795C12.5337 33.6107 20.4061 34.2141 24.0552 33.6789C26.7215 33.2993 27.461 29.9227 27.9476 27.6456C28.3702 25.0822 29.4914 22.6848 31.188 20.7172C31.8696 20.0642 32.755 19.6653 33.6957 19.5873C34.6364 19.5094 35.5753 19.7571 36.3551 20.289C38.0164 21.4131 39.3415 22.9669 40.1891 24.7847C41.3179 27.5678 41.0455 30.8277 41.1622 33.7859C41.3083 34.9547 41.2788 36.1387 41.0747 37.2988C40.7146 38.6027 39.362 40.3835 37.9413 40.4516L27.8016 44.9376Z" fill="#F3809F"/>
<path d="M34.0485 22.5951C33.9967 22.5896 33.9446 22.5896 33.8928 22.5951C33.5226 22.5936 33.1615 22.7094 32.8613 22.9259C32.6884 23.0488 32.5343 23.1964 32.404 23.3638C32.0622 23.7016 31.8518 24.1501 31.8104 24.6288C31.7461 24.8558 31.7579 25.0976 31.844 25.3173C31.9301 25.5369 32.0858 25.7224 32.2872 25.8452C32.4868 26.0371 32.7213 26.1891 32.9781 26.2928C33.1232 26.4067 33.2932 26.4846 33.4741 26.5201C33.6551 26.5556 33.8419 26.5478 34.0193 26.4972C34.2662 26.478 34.5056 26.4032 34.7196 26.2785C34.9336 26.1538 35.1167 25.9824 35.2551 25.7771C35.4086 25.5458 35.5084 25.2832 35.5471 25.0083L35.6055 24.7164C35.6833 23.6947 35.2649 22.4102 34.0485 22.5951ZM34.0485 25.8355C34.1067 25.8086 34.1621 25.776 34.2139 25.7382C34.2195 25.7638 34.2195 25.7904 34.2139 25.816L34.0485 25.8355Z" fill="#F7ABC1"/>
<path d="M16.7478 37.0957C16.4262 37.1035 16.1105 37.1836 15.8241 37.3302C15.5377 37.4768 15.288 37.686 15.0936 37.9423C14.2275 39.2074 15.4439 40.4529 16.5727 40.8616C17.1014 41.0528 17.6774 41.07 18.2165 40.9107C18.7557 40.7514 19.2299 40.4239 19.5698 39.9761C19.8596 39.6042 20.0045 39.1398 19.9777 38.6691C19.9508 38.1984 19.754 37.7534 19.4238 37.4169C19.0364 37.1522 18.5909 36.9849 18.1251 36.929C17.6593 36.8731 17.1869 36.9303 16.7478 37.0957Z" fill="#F7ABC1"/>
<path d="M32.5399 41.6394C30.6392 40.9118 28.8927 39.8323 27.3922 38.4573C26.8181 37.8832 25.7185 36.4138 26.1175 35.4699C26.6916 34.1465 28.9297 35.2266 29.5427 35.9175C30.0316 36.667 30.4178 37.4787 30.691 38.3308C31.1873 39.411 31.8976 40.3841 32.2869 41.5128L32.5399 41.6394Z" fill="#F16383"/>
<path d="M34.7592 40.5585C33.1439 39.3421 32.6475 37.9214 31.908 36.1601C31.4703 34.9483 31.2082 33.6802 31.1295 32.3942C30.8222 31.2755 30.9011 30.0859 31.3534 29.0176C31.6677 28.2865 32.2198 27.683 32.92 27.3049C33.2915 27.1146 33.7143 27.0487 34.1261 27.1171C34.5378 27.1854 34.9167 27.3843 35.2068 27.6844C35.8588 28.3753 35.742 29.6306 35.7809 30.4869C35.8199 31.3433 35.8685 32.5986 35.8491 33.6203C35.7007 35.0486 35.4602 36.4658 35.1289 37.863C35.0108 38.8313 34.9717 39.8077 35.0122 40.7823C35.0774 41.2523 35.0576 41.7303 34.9538 42.1933L34.7592 40.5585Z" fill="#F16383"/>
<path d="M29.6214 42.6514C27.7839 42.0591 26.1154 41.0346 24.7559 39.664C23.5785 38.6325 22.5664 38.3503 21.389 39.5375C21.1401 39.7223 20.9543 39.9794 20.8568 40.2737C20.7593 40.5679 20.7549 40.8851 20.844 41.182C21.136 41.8632 22.109 41.8924 22.6929 42.087C24.3903 42.7158 26.164 43.115 27.9671 43.2741C28.129 43.2888 28.2918 43.2888 28.4537 43.2741L29.6214 42.6514Z" fill="#F16383"/>
<path d="M28.2104 42.9424C27.8749 43.1249 27.55 43.3263 27.2373 43.5457C27.1241 44.4551 27.2302 45.3784 27.5468 46.2384C27.8634 47.0984 28.3812 47.8701 29.057 48.489C29.4268 48.4015 29.816 48.2944 30.2053 48.1776C29.4009 47.5925 28.784 46.786 28.4298 45.8565C28.0756 44.927 27.9994 43.9145 28.2104 42.9424Z" fill="#EFC11D"/>
<path d="M30.9442 41.4141C30.5939 41.5892 30.2533 41.7644 29.903 41.959C29.358 42.2607 28.7547 42.5818 28.1806 42.9321C27.9747 43.9089 28.0583 44.9246 28.4213 45.8546C28.7843 46.7845 29.4109 47.5883 30.2241 48.1674C31.2848 47.8462 32.3941 47.4278 33.4548 46.9899C32.6639 46.2925 32.0309 45.4343 31.5979 44.4728C31.165 43.5113 30.9421 42.4685 30.9442 41.4141Z" fill="#FFD772"/>
<path d="M32.044 40.8994C31.6742 41.0648 31.3044 41.2303 30.9444 41.4152C30.9409 42.4713 31.1631 43.5159 31.5961 44.4792C32.0291 45.4425 32.6629 46.3022 33.455 47.0007L34.7103 46.4558C33.8792 45.7874 33.2084 44.9415 32.747 43.98C32.2856 43.0185 32.0454 41.9659 32.044 40.8994Z" fill="#EFC11D"/>
<path d="M35.0897 39.6621C34.0485 40.0416 33.0365 40.4406 32.0439 40.8979C32.0454 41.9644 32.2856 43.017 32.747 43.9785C33.2083 44.94 33.8792 45.786 34.7102 46.4543C35.8779 45.9288 36.9094 45.4034 37.6295 44.9947C35.9071 43.827 35.1871 41.91 35.0897 39.6621Z" fill="#FFD772"/>
<path d="M36.3744 39.2061C35.9463 39.3423 35.5278 39.4883 35.1191 39.6342C35.2165 41.8821 35.9365 43.7991 37.6978 44.9668C38.1065 44.743 38.4374 44.5484 38.6709 44.4024C36.8999 43.2249 35.7419 41.4442 36.3744 39.2061Z" fill="#EFC11D"/>
<path d="M39.5757 38.0186C38.4761 38.3299 37.4641 38.8554 36.3742 39.2252C35.7417 41.4439 36.8996 43.2246 38.6318 44.4313L38.7193 44.3729C39.6924 43.7014 40.6655 43.0008 41.5316 42.2904C40.9275 41.7527 40.4417 41.0953 40.105 40.3599C39.7683 39.6246 39.588 38.8272 39.5757 38.0186Z" fill="#FFD772"/>
<path d="M27.237 43.5459C25.865 44.519 24.7751 45.7451 24.9016 47.4383C25.0281 49.1315 26.7991 49.0634 29.0567 48.5281C28.3751 47.9052 27.8538 47.1271 27.537 46.2598C27.2202 45.3924 27.1173 44.4615 27.237 43.5459Z" fill="#FFD772"/>
<path d="M51.1461 33.3666C48.9274 29.8537 44.2371 30.9825 41.493 33.2984C38.2428 35.5755 37.8536 40.1101 41.2205 42.4553C44.1398 44.2361 49.7448 44.2069 51.0974 40.295C52.0705 37.9693 52.4014 35.4393 51.1461 33.3666Z" fill="#EFC11D"/>
<path d="M44.8105 40.0045C46.3091 39.8391 49.17 39.5374 50.4156 38.2432C50.2307 39.0022 49.0824 42.0188 48.0315 42.3302C47.1752 42.5929 45.0636 40.9581 44.8105 40.0045Z" fill="#5C2F22"/>
<path d="M46.8544 31.2663C46.7555 30.149 46.9501 29.0254 47.4188 28.0064C47.6953 27.4577 48.1289 27.0038 48.6644 26.7024C48.83 26.5922 49.0181 26.5202 49.215 26.4916C49.4119 26.463 49.6127 26.4785 49.8029 26.537C50.0887 26.6389 50.3365 26.8256 50.5133 27.0722C50.63 27.9869 50.3089 28.1815 49.5402 27.6658C49.5402 27.9869 50.0754 27.9869 50.0462 27.6658C49.9683 26.6343 48.7617 27.1209 48.9952 27.9675C49.3553 29.2617 51.3696 28.3859 51.0874 27.2474C50.7176 25.7488 48.9271 25.7196 47.9151 26.5759C47.3068 27.1827 46.8465 27.9215 46.5697 28.7348C46.293 29.5482 46.2072 30.4144 46.3192 31.2663C46.3192 31.5874 46.8447 31.5874 46.835 31.2663H46.8544Z" fill="#EFC11D"/>
<path d="M42.3298 32.8328C41.7276 31.9789 41.2615 31.0368 40.948 30.04C40.7608 29.493 40.7074 28.9091 40.7923 28.3371C40.8253 28.172 40.8915 28.0153 40.9869 27.8765C41.0822 27.7376 41.2047 27.6196 41.3469 27.5295C41.5802 27.3679 41.8622 27.2923 42.1449 27.3154C42.972 27.364 42.9818 27.6949 42.1449 28.2885C42.0476 28.5999 42.5341 28.7361 42.6314 28.4247C42.9039 27.5489 41.2983 27.5781 41.5513 28.6291C41.8821 30.0498 44.2565 28.921 43.4099 27.4224C42.5633 25.9238 40.6269 26.9845 40.2863 28.1814C39.8289 29.7481 40.9966 31.8208 41.8724 33.0469C42.0573 33.3097 42.4952 33.0469 42.3103 32.7939L42.3298 32.8328Z" fill="#EFC11D"/>
<path d="M42.0771 38.933C42.9672 38.6752 43.7996 38.249 44.5293 37.6777C45.1715 37.162 43.5562 34.1746 41.7949 35.0504C40.0336 35.9261 41.104 38.6411 42.0771 38.933Z" fill="white"/>
<path d="M42.4658 38.6899C43.168 38.4857 43.8274 38.156 44.412 37.7168C44.9278 37.2983 43.6627 34.9045 42.2226 35.6051C40.7824 36.3058 41.6874 38.4563 42.4658 38.6899Z" fill="#341A14"/>
<path d="M43.205 36.1601C43.2277 36.2093 43.2405 36.2624 43.2425 36.3165C43.2445 36.3706 43.2358 36.4246 43.2168 36.4753C43.1978 36.526 43.1689 36.5724 43.1318 36.6119C43.0947 36.6513 43.0501 36.683 43.0006 36.705C42.9528 36.7303 42.9004 36.7458 42.8465 36.7507C42.7926 36.7556 42.7383 36.7497 42.6867 36.7334C42.6351 36.7171 42.5873 36.6907 42.5459 36.6558C42.5046 36.6208 42.4706 36.5781 42.446 36.5299C42.3969 36.4292 42.3899 36.3132 42.4264 36.2074C42.4629 36.1015 42.5399 36.0145 42.6406 35.9655C42.7412 35.9165 42.8572 35.9094 42.9631 35.9459C43.0689 35.9824 43.156 36.0595 43.205 36.1601Z" fill="white"/>
<path d="M47.6718 36.1309C48.569 36.1245 49.4569 35.9495 50.2895 35.6152C51.0387 35.3038 50.3673 32.1023 48.4503 32.4331C46.5333 32.764 46.8447 35.5957 47.6718 36.1309Z" fill="white"/>
<path d="M48.0996 36.0045C48.8198 36.0027 49.5331 35.8639 50.2015 35.5958C50.7951 35.3427 50.2599 32.7835 48.7321 33.0462C47.2044 33.309 47.4379 35.5763 48.0996 36.0045Z" fill="#341A14"/>
<path d="M49.4726 33.8541C49.4839 33.9582 49.4549 34.0626 49.3915 34.1458C49.3282 34.2291 49.2353 34.2849 49.132 34.3018C49.0808 34.3131 49.0278 34.3139 48.9763 34.3042C48.9248 34.2946 48.8757 34.2746 48.8321 34.2455C48.7885 34.2165 48.7512 34.1789 48.7225 34.135C48.6937 34.0912 48.6741 34.042 48.6649 33.9904C48.6468 33.8833 48.672 33.7734 48.735 33.6849C48.798 33.5963 48.8935 33.5365 49.0006 33.5184C49.1077 33.5003 49.2176 33.5256 49.3061 33.5885C49.3946 33.6515 49.4545 33.747 49.4726 33.8541Z" fill="white"/>
<path d="M61.5189 28.5023L59.631 27.9671C59.5877 27.952 59.5409 27.9494 59.4961 27.9597C59.4513 27.9701 59.4104 27.9929 59.378 28.0255L57.86 29.2711C57.8195 29.3032 57.771 29.3237 57.7198 29.3302C57.6685 29.3366 57.6164 29.3289 57.5692 29.3078C57.5221 29.2868 57.4816 29.2531 57.4522 29.2106C57.4228 29.1681 57.4057 29.1183 57.4026 29.0667L57.3248 27.1205C57.3238 27.0757 57.3117 27.0318 57.2896 26.9928C57.2675 26.9537 57.2362 26.9207 57.1983 26.8967L55.544 25.8458C55.4986 25.8182 55.4619 25.7784 55.4381 25.731C55.4143 25.6835 55.4044 25.6303 55.4095 25.5775C55.4146 25.5246 55.4345 25.4743 55.4669 25.4322C55.4993 25.3902 55.5429 25.3581 55.5927 25.3398L57.4026 24.6099C57.4439 24.5916 57.4808 24.5648 57.5109 24.5313C57.5411 24.4977 57.5639 24.4582 57.5778 24.4153L58.0643 22.4691C58.0769 22.4177 58.1037 22.3708 58.1417 22.3339C58.1796 22.2969 58.2272 22.2714 58.279 22.2602C58.3308 22.2491 58.3846 22.2527 58.4344 22.2707C58.4842 22.2887 58.528 22.3204 58.5606 22.3621L59.7673 23.8996C59.7946 23.9374 59.8316 23.9673 59.8744 23.9861C59.9171 24.0049 59.9641 24.012 60.0105 24.0066L61.9567 23.8898C62.0092 23.8865 62.0616 23.8978 62.1079 23.9227C62.1543 23.9475 62.1928 23.9848 62.2191 24.0303C62.2454 24.0758 62.2585 24.1278 62.2568 24.1803C62.2552 24.2329 62.2389 24.284 62.2097 24.3277L61.1199 25.9528C61.0958 25.9924 61.0831 26.0378 61.0831 26.0842C61.0831 26.1305 61.0958 26.1759 61.1199 26.2155L61.84 28.045C61.8896 28.0914 61.9208 28.1543 61.9277 28.2219C61.9347 28.2896 61.9171 28.3574 61.878 28.4131C61.8389 28.4687 61.7811 28.5084 61.7151 28.5248C61.6491 28.5412 61.5794 28.5332 61.5189 28.5023Z" fill="white"/>
<path d="M13.137 52.07L11.2492 51.5348C11.2042 51.52 11.156 51.5175 11.1098 51.5278C11.0635 51.5381 11.0209 51.5607 10.9865 51.5932L9.47816 52.8291C9.43771 52.8612 9.38921 52.8817 9.33794 52.8882C9.28666 52.8946 9.23459 52.8869 9.1874 52.8658C9.14022 52.8448 9.09972 52.8111 9.07034 52.7686C9.04096 52.7261 9.02383 52.6763 9.02081 52.6247L8.94297 50.6785C8.94193 50.6337 8.92982 50.5898 8.90775 50.5508C8.88568 50.5117 8.85434 50.4787 8.81646 50.4547L7.16219 49.4038C7.1168 49.3762 7.08012 49.3364 7.05632 49.289C7.03252 49.2415 7.02258 49.1883 7.02766 49.1355C7.03274 49.0826 7.05263 49.0323 7.08504 48.9902C7.11744 48.9482 7.16106 48.9161 7.21086 48.8978L9.05 48.2263C9.09233 48.2097 9.13021 48.1835 9.16062 48.1497C9.19103 48.116 9.21312 48.0755 9.22515 48.0317L9.72144 46.1341C9.73401 46.0827 9.76081 46.0358 9.79877 45.9989C9.83672 45.962 9.88431 45.9365 9.93608 45.9253C9.98785 45.9141 10.0417 45.9178 10.0915 45.9358C10.1413 45.9538 10.1851 45.9854 10.2177 46.0271L11.4244 47.5646C11.4517 47.6025 11.4887 47.6323 11.5315 47.6511C11.5742 47.67 11.6212 47.677 11.6676 47.6716L13.6138 47.5549C13.6663 47.5515 13.7187 47.5629 13.765 47.5877C13.8114 47.6125 13.8499 47.6498 13.8762 47.6953C13.9025 47.7409 13.9156 47.7928 13.9139 47.8454C13.9123 47.8979 13.896 47.949 13.8668 47.9928L12.7672 49.6178C12.7481 49.659 12.7382 49.7038 12.7382 49.7492C12.7382 49.7946 12.7481 49.8394 12.7672 49.8806L13.4971 51.7003C13.5174 51.751 13.5226 51.8065 13.5121 51.8602C13.5015 51.9138 13.4755 51.9632 13.4374 52.0023C13.3993 52.0415 13.3506 52.0688 13.2973 52.0808C13.2439 52.0928 13.1883 52.0891 13.137 52.07Z" fill="white"/>
<path d="M57.9387 38.2334C56.6304 38.8222 55.609 39.9058 55.0983 41.2464C54.5875 42.5871 54.6292 44.0756 55.214 45.3857C55.4456 45.9041 55.7772 46.3716 56.19 46.7615C56.6027 47.1514 57.0884 47.4559 57.6192 47.6575C58.15 47.8591 58.7153 47.9539 59.2828 47.9365C59.8503 47.919 60.4088 47.7896 60.9261 47.5557C61.341 47.3712 61.7154 47.1068 62.028 46.7776C62.3406 46.4483 62.5853 46.0607 62.7479 45.6368C62.9106 45.213 62.9881 44.7612 62.9761 44.3073C62.964 43.8535 62.8626 43.4065 62.6777 42.9918C62.3777 42.3214 61.824 41.7973 61.1381 41.5346C60.4521 41.2719 59.69 41.292 59.0188 41.5906C58.4848 41.831 58.0674 42.2728 57.8578 42.8196C57.6481 43.3665 57.6632 43.9741 57.8998 44.5099C57.9946 44.723 58.1305 44.9153 58.2998 45.0757C58.4691 45.2361 58.6685 45.3615 58.8864 45.4447C59.1043 45.5279 59.3365 45.5672 59.5696 45.5604C59.8027 45.5536 60.0323 45.5009 60.245 45.4051C60.588 45.2501 60.8555 44.9652 60.9887 44.6131C61.1219 44.2609 61.1099 43.8703 60.9553 43.527C60.8943 43.3913 60.8071 43.2689 60.6987 43.167C60.5903 43.065 60.4627 42.9856 60.3234 42.9331C60.1841 42.8807 60.0359 42.8563 59.8871 42.8613C59.7384 42.8664 59.5921 42.9008 59.4567 42.9627C59.348 43.0111 59.25 43.0805 59.1681 43.1669C59.0863 43.2533 59.0223 43.355 58.9798 43.4662C58.9373 43.5774 58.9172 43.6959 58.9205 43.8149C58.9239 43.9338 58.9507 44.051 58.9994 44.1596C59.0392 44.2474 59.0961 44.3265 59.1667 44.3923C59.2374 44.458 59.3203 44.5091 59.4108 44.5426C59.5013 44.5761 59.5975 44.5913 59.6939 44.5874C59.7904 44.5834 59.885 44.5604 59.9725 44.5196" stroke="#FFD772" stroke-width="0.75" stroke-miterlimit="10" stroke-linecap="round"/>
<path d="M17.0684 28.6188C15.4867 28.4923 13.9913 27.8456 12.816 26.7796C12.6329 26.5991 12.4873 26.3841 12.3878 26.1471C12.2091 25.7468 12.1606 25.3005 12.2493 24.8712C12.3379 24.4419 12.5591 24.0513 12.8817 23.7545C13.2043 23.4577 13.612 23.2697 14.0472 23.2171C14.4824 23.1645 14.9231 23.25 15.3071 23.4614C15.4285 23.0174 15.6924 22.6256 16.058 22.3461C16.4236 22.0666 16.8709 21.9149 17.3311 21.9141C17.7426 21.911 18.1459 22.0282 18.4917 22.2512C18.8374 22.4742 19.1105 22.7933 19.2773 23.1694C19.3748 23.4079 19.4308 23.6613 19.4427 23.9187C19.5984 25.5243 18.3529 28.1127 17.5939 28.5409H17.516C17.3735 28.5964 17.2213 28.6229 17.0684 28.6188ZM14.2951 24.0647C14.1273 24.0664 13.9616 24.1028 13.8085 24.1717C13.6585 24.2362 13.5227 24.3298 13.4091 24.4472C13.2954 24.5645 13.2061 24.7031 13.1464 24.8552C13.0867 25.0072 13.0577 25.1695 13.0611 25.3328C13.0645 25.4961 13.1003 25.6571 13.1663 25.8065C13.2263 25.95 13.3158 26.0793 13.429 26.186C14.4367 27.0825 15.7056 27.6317 17.0489 27.7527H17.1365C17.9925 26.6725 18.4771 25.345 18.5183 23.9674C18.5117 23.8127 18.4753 23.6607 18.4113 23.5197C18.3036 23.28 18.1228 23.0804 17.8948 22.9497C17.6668 22.8189 17.4033 22.7636 17.142 22.7917C16.8807 22.8197 16.6349 22.9298 16.4399 23.106C16.2449 23.2822 16.1107 23.5156 16.0564 23.7727C16.0356 23.8931 15.9858 24.0065 15.9111 24.1032C15.8365 24.1999 15.7394 24.2769 15.6282 24.3274C15.543 24.3672 15.4498 24.3872 15.3558 24.3858C15.207 24.385 15.0616 24.3411 14.9373 24.2593C14.7439 24.1395 14.5225 24.0724 14.2951 24.0647Z" fill="#F3809F"/>
<path d="M7.99902 27.8682V33.5608" stroke="#FFD772" stroke-width="0.75" stroke-miterlimit="10" stroke-linecap="round"/>
<path d="M5.53711 29.2891L10.4707 32.1402" stroke="#FFD772" stroke-width="0.75" stroke-miterlimit="10" stroke-linecap="round"/>
<path d="M5.53711 32.1402L10.4707 29.2891" stroke="#FFD772" stroke-width="0.75" stroke-miterlimit="10" stroke-linecap="round"/>
</svg>
