<svg width="68" height="68" viewBox="0 0 68 68" fill="none" xmlns="http://www.w3.org/2000/svg">
<path d="M34 68C52.7777 68 68 52.7777 68 34C68 15.2223 52.7777 0 34 0C15.2223 0 0 15.2223 0 34C0 52.7777 15.2223 68 34 68Z" fill="#20ADC7"/>
<path d="M11.8134 17.6813L11.7161 17.7592C11.3275 17.5658 10.8936 17.4817 10.4608 17.5159C10.2454 17.5378 10.0384 17.6111 9.85722 17.7296C9.67603 17.8482 9.52595 18.0085 9.41958 18.1971C9.26927 18.4241 9.1975 18.6941 9.21524 18.9658C9.23018 19.2219 9.31058 19.4698 9.44877 19.6859C9.5853 19.9177 9.75588 20.1276 9.95479 20.3087C10.1405 20.4832 10.3426 20.6397 10.5581 20.7758C10.7721 20.9111 11.0006 21.0221 11.2393 21.1066C11.4873 21.2078 11.7503 21.267 12.0177 21.2818C12.2758 21.313 12.5375 21.2761 12.7768 21.1747C13.0248 21.0708 13.2328 20.89 13.3704 20.659C13.4993 20.4758 13.5899 20.2685 13.6367 20.0494C13.6835 19.8303 13.6857 19.6041 13.643 19.3842C13.6003 19.1643 13.5136 18.9553 13.3882 18.7697C13.2627 18.5841 13.1011 18.4257 12.913 18.3041V18.1971L14.217 18.5766C14.1891 18.9821 14.1174 19.3834 14.0029 19.7735C13.8724 20.1924 13.6858 20.5918 13.4482 20.9607C13.0911 21.5801 12.5255 22.0526 11.8523 22.2938C11.5397 22.4008 11.2088 22.4439 10.8792 22.4203C10.4984 22.3698 10.1332 22.2369 9.80883 22.0311C9.47745 21.8337 9.19474 21.5643 8.98169 21.2429C8.79398 20.9494 8.67737 20.6162 8.64112 20.2698C8.56139 19.5589 8.73357 18.8426 9.12766 18.2457C9.53675 17.5359 10.1109 16.9351 10.8014 16.4941L11.8134 17.6813Z" fill="white"/>
<path d="M15.0146 13.4083C15.3021 13.3778 15.5927 13.4118 15.8654 13.5078C16.1381 13.6037 16.386 13.7592 16.591 13.9629C16.8026 14.1605 16.9674 14.4028 17.0734 14.6722C17.1795 14.9415 17.2241 15.2311 17.2041 15.5199C17.1489 16.0989 16.8981 16.6419 16.4931 17.0594C16.088 17.4768 15.5528 17.7438 14.9757 17.8164C14.6891 17.8441 14.3999 17.8078 14.129 17.7102C13.858 17.6126 13.6121 17.4561 13.409 17.252C13.1954 17.0581 13.0291 16.8178 12.9228 16.5496C12.8165 16.2814 12.7731 15.9924 12.796 15.7048C12.8322 15.1235 13.0817 14.576 13.4966 14.1673C13.8889 13.7321 14.4311 13.461 15.0146 13.4083ZM13.4479 14.8485C13.4463 15.0438 13.4896 15.2369 13.5744 15.4128C13.6642 15.598 13.7718 15.774 13.8956 15.9383C14.0118 16.0868 14.1386 16.2267 14.2751 16.3568C14.4084 16.4875 14.5515 16.6079 14.7032 16.7168C14.8706 16.8438 15.0538 16.9485 15.2482 17.0282C15.4266 17.1033 15.619 17.1398 15.8126 17.1352C16.0049 17.1173 16.1844 17.031 16.3186 16.892C16.4588 16.7526 16.539 16.5641 16.5424 16.3665C16.5471 16.1719 16.5071 15.9788 16.4256 15.8021C16.3358 15.617 16.2283 15.441 16.1045 15.2766C15.9859 15.1302 15.8592 14.9905 15.725 14.8582C15.5904 14.7249 15.4438 14.6044 15.2871 14.4981C15.1229 14.3742 14.943 14.2727 14.7519 14.1965C14.576 14.1131 14.3817 14.0763 14.1875 14.0894C13.991 14.1024 13.8067 14.1893 13.6718 14.3327C13.5378 14.4723 13.4584 14.6553 13.4479 14.8485Z" fill="white"/>
<path d="M17.5645 11.735C17.5034 11.4554 17.5294 11.1637 17.639 10.8993C17.7486 10.6348 17.9365 10.4103 18.1775 10.2559C18.3228 10.1486 18.4879 10.0709 18.6632 10.0275C18.8385 9.98411 19.0207 9.97574 19.1993 10.0029C19.3755 10.0336 19.5434 10.1004 19.6925 10.1992C19.8415 10.2981 19.9685 10.4267 20.0653 10.577L21.2136 12.2216C21.2483 12.2866 21.2955 12.344 21.3526 12.3906C21.4097 12.4371 21.4755 12.4718 21.5462 12.4926C21.6168 12.5135 21.6909 12.52 21.7642 12.5119C21.8374 12.5038 21.9082 12.4812 21.9726 12.4454L22.031 12.5427L21.1552 13.1168L20.3378 13.7201L20.2697 13.6228C20.5032 13.4185 20.513 13.1655 20.2697 12.8541L19.248 11.3847C19.1109 11.1692 18.9282 10.9865 18.7127 10.8495C18.607 10.7808 18.4836 10.7443 18.3576 10.7443C18.2315 10.7443 18.1081 10.7808 18.0024 10.8495C17.8826 10.9462 17.7965 11.0782 17.7563 11.2268C17.7161 11.3753 17.7239 11.5328 17.7786 11.6766C17.8128 11.8421 17.8684 12.0024 17.944 12.1534C18.0016 12.2842 18.0734 12.4082 18.1581 12.5232L18.6738 13.2628C18.8142 13.4861 18.9919 13.6836 19.1993 13.8466C19.2807 13.9068 19.3755 13.9462 19.4755 13.9614C19.5756 13.9767 19.6778 13.9674 19.7734 13.9342L19.8318 14.0315L19.608 14.1872L19.1604 14.4694L18.9366 14.6154L18.7225 14.7711L18.2943 15.0922C18.226 15.1481 18.1545 15.2001 18.0802 15.2479L18.0121 15.1506C18.0755 15.0748 18.1193 14.9845 18.1397 14.8878C18.1601 14.7911 18.1564 14.6909 18.1289 14.5959C18.0486 14.344 17.9269 14.1073 17.7688 13.8953L16.7957 12.5719C16.6942 12.404 16.5404 12.274 16.3579 12.2021C16.2382 12.1598 16.1077 12.1598 15.9881 12.2021L15.9297 12.1048C16.3237 11.781 16.6974 11.4333 17.0488 11.0636L17.5645 11.735Z" fill="white"/>
<path d="M27.0132 8.02809H26.8867C26.7849 7.69727 26.5846 7.40534 26.3126 7.19122C26.179 7.081 26.0183 7.00846 25.8472 6.98109C25.6762 6.95372 25.5009 6.97251 25.3395 7.03553C25.1469 7.09794 24.9818 7.22517 24.8724 7.39557C24.7697 7.56341 24.7096 7.75383 24.6973 7.95024C24.6734 8.15715 24.6734 8.36612 24.6973 8.57302C24.731 8.7647 24.7798 8.95342 24.8432 9.13742C24.9566 9.54798 25.1824 9.9187 25.4952 10.2078C25.6498 10.3401 25.8378 10.4273 26.0386 10.4599C26.2394 10.4925 26.4452 10.4692 26.6337 10.3927C26.9053 10.3035 27.1363 10.1207 27.2857 9.87697C27.4356 9.63134 27.51 9.34712 27.4998 9.05957L27.7723 9.1958C27.7522 9.58332 27.5973 9.95162 27.3344 10.237C27.0664 10.5152 26.7312 10.7196 26.3613 10.8306C25.8357 11.0219 25.2563 11.001 24.7459 10.7722C24.4907 10.653 24.2634 10.4813 24.079 10.2684C23.8946 10.0555 23.7571 9.80603 23.6755 9.53639C23.5705 9.26977 23.5256 8.98325 23.5441 8.69729C23.5626 8.41132 23.644 8.13298 23.7826 7.88212C24.0877 7.38049 24.5707 7.01221 25.1352 6.85064C25.4236 6.75233 25.7257 6.6998 26.0304 6.69495C26.3364 6.68738 26.6425 6.70691 26.9451 6.75333L27.0132 8.02809Z" fill="white"/>
<path d="M29.4459 6.67472C29.5068 6.44918 29.6205 6.24139 29.7777 6.0686C29.935 5.89582 30.1311 5.763 30.3499 5.68119C30.5688 5.59937 30.8039 5.5709 31.0359 5.59815C31.268 5.6254 31.4901 5.70757 31.684 5.83786C31.83 5.94495 31.9515 6.08192 32.0405 6.23964C32.1294 6.39736 32.1837 6.57222 32.1998 6.75257L32.4722 8.69876C32.4798 8.84761 32.5449 8.98769 32.6539 9.08938C32.7629 9.19108 32.9071 9.24641 33.0561 9.2437V9.35074L32.0149 9.46751L31.0418 9.63294V9.52589C31.3435 9.44805 31.47 9.22423 31.4213 8.84473L31.178 7.07369C31.148 6.81934 31.0651 6.57407 30.9347 6.3536C30.8711 6.24392 30.7756 6.15627 30.6608 6.10236C30.546 6.04845 30.4175 6.03086 30.2925 6.05194C30.1414 6.06845 29.9993 6.13171 29.8859 6.23289C29.7725 6.33407 29.6935 6.46812 29.66 6.61634C29.5741 7.02381 29.5741 7.4447 29.66 7.85217L29.7476 8.51387C29.7741 8.77628 29.8431 9.03263 29.9519 9.27289C29.9958 9.36369 30.0613 9.44228 30.1428 9.50169C30.2243 9.5611 30.3191 9.59949 30.419 9.61347V9.72051H30.1465L29.6113 9.76917H29.3486H29.0859L28.5604 9.86648H28.2977V9.75944C28.3865 9.71671 28.4643 9.65411 28.525 9.57649C28.5858 9.49887 28.6279 9.4083 28.648 9.31181C28.6917 9.04763 28.6917 8.77806 28.648 8.51387L28.2101 5.26373C28.205 5.13035 28.1485 5.00411 28.0523 4.91156C27.9561 4.81901 27.8278 4.76736 27.6943 4.76745V4.66041C28.2033 4.5327 28.7038 4.37346 29.1929 4.18359L29.4459 6.67472Z" fill="white"/>
<path d="M35.985 8.93211C35.8484 9.13931 35.6693 9.3151 35.4596 9.44785C35.2425 9.57632 34.9908 9.63413 34.7395 9.61327C34.3607 9.61068 33.9901 9.50288 33.6691 9.30188C33.5436 9.21548 33.4382 9.10307 33.3601 8.9723C33.282 8.84152 33.2329 8.69545 33.2163 8.54402C33.1997 8.3926 33.2159 8.23937 33.2638 8.09476C33.3117 7.95015 33.3902 7.81756 33.4939 7.706C33.6725 7.52516 33.8932 7.39143 34.1362 7.31676C34.4098 7.22276 34.6943 7.1639 34.9827 7.14161C35.2644 7.11701 35.5477 7.11701 35.8293 7.14161H36.0045V6.81075C36.0045 6.11985 35.771 5.75981 35.1774 5.73062C34.5838 5.70142 34.1362 6.11985 33.8734 6.95672H33.7566L33.5036 5.75008L33.9999 5.63331L34.4962 5.52627C34.8172 5.46935 35.1442 5.45301 35.4693 5.47761C35.9126 5.4723 36.3434 5.62397 36.6857 5.90577C36.8426 6.09469 36.9583 6.31435 37.0254 6.55065C37.0924 6.78694 37.1093 7.03464 37.0749 7.27784L37.0263 8.75695C37.0263 9.15592 37.1333 9.39919 37.396 9.48677V9.60354L36.1115 9.53542L35.985 8.93211ZM34.6811 3.89146C34.6811 4.30016 34.9438 4.52398 35.4401 4.55317C35.6303 4.58251 35.8245 4.53854 35.9834 4.43015C36.1424 4.32176 36.2543 4.15704 36.2964 3.96931H36.6759C36.6774 4.30042 36.548 4.61869 36.3159 4.85483C36.1934 4.97031 36.0473 5.05793 35.8877 5.11168C35.7282 5.16543 35.5589 5.18403 35.3914 5.16622C34.613 5.16622 34.2529 4.6894 34.2918 3.85254L34.6811 3.89146ZM35.9948 7.37515H35.8585C35.518 7.3347 35.174 7.41382 34.8854 7.59896C34.7443 7.69889 34.6297 7.83181 34.5517 7.98615C34.4737 8.14049 34.4346 8.31157 34.4378 8.48448C34.4267 8.67883 34.4742 8.87205 34.574 9.03914C34.6241 9.12397 34.6952 9.19449 34.7804 9.24391C34.8656 9.29333 34.9621 9.32 35.0606 9.32134C35.2058 9.32931 35.3498 9.29127 35.4721 9.21265C35.5944 9.13403 35.6887 9.01883 35.7418 8.88345C35.811 8.74765 35.8633 8.60385 35.8975 8.45529C35.9118 8.31618 35.9118 8.17597 35.8975 8.03686L35.9948 7.37515Z" fill="white"/>
<path d="M39.8285 6.81304C40.0147 6.5847 40.2691 6.42187 40.5545 6.34834C40.8398 6.27481 41.1412 6.29444 41.4146 6.40434C41.6904 6.44888 41.9408 6.5916 42.1196 6.80619C42.2984 7.02078 42.3937 7.29279 42.3877 7.57206C42.5752 7.35687 42.8223 7.20222 43.0978 7.12772C43.3732 7.05322 43.6646 7.06224 43.935 7.15363C44.11 7.19699 44.2744 7.2754 44.4182 7.38411C44.5621 7.49283 44.6823 7.6296 44.7718 7.78614C44.8585 7.94378 44.9118 8.11754 44.9285 8.29665C44.9453 8.47575 44.9251 8.65639 44.8691 8.82735L44.295 10.7735C44.2395 10.9119 44.2399 11.0664 44.2962 11.2044C44.3524 11.3424 44.4602 11.4531 44.5967 11.5131V11.6201L43.6236 11.2893L42.6505 11.0363V10.9195C42.9521 10.9779 43.1662 10.8222 43.2635 10.4622L43.7209 8.92466C43.8253 8.63167 43.8684 8.32031 43.8474 8.00995C43.8393 7.88112 43.7907 7.75814 43.7085 7.65855C43.6264 7.55895 43.5149 7.48782 43.39 7.45529C43.2623 7.42122 43.1273 7.42618 43.0024 7.46954C42.8775 7.5129 42.7685 7.59267 42.6894 7.69856C42.4853 7.92824 42.3356 8.20098 42.2515 8.4965L41.8039 10.034C41.7752 10.1017 41.7604 10.1743 41.7601 10.2478C41.7597 10.3213 41.774 10.3941 41.8021 10.462C41.8302 10.5299 41.8714 10.5915 41.9235 10.6433C41.9756 10.6952 42.0375 10.7361 42.1055 10.7638V10.8709L41.1324 10.5497L40.1593 10.287V10.18C40.4707 10.2286 40.6751 10.0826 40.7821 9.71287L41.2297 8.18511C41.3412 7.87358 41.3844 7.5417 41.3563 7.21201C41.3496 7.08273 41.3016 6.959 41.2192 6.85912C41.1368 6.75924 41.0246 6.6885 40.8989 6.65735C40.7702 6.62565 40.635 6.63276 40.5103 6.67778C40.3856 6.72281 40.277 6.80373 40.1983 6.91035C39.992 7.13325 39.8448 7.40421 39.7701 7.69856L39.4684 8.67166C39.3859 8.92272 39.3465 9.18592 39.3517 9.45014C39.3532 9.54991 39.3799 9.64769 39.4292 9.73443C39.4785 9.82117 39.5489 9.89408 39.6339 9.94642V10.0535L39.3711 9.97561L38.8651 9.80045L38.4953 9.73233L38.2423 9.66422L37.7266 9.52798L37.4639 9.45987V9.35283C37.563 9.35248 37.6607 9.32846 37.7487 9.28276C37.8367 9.23707 37.9125 9.17101 37.9699 9.09009C38.1158 8.86937 38.2243 8.62607 38.291 8.37L38.7483 6.82278C38.8061 6.63576 38.8061 6.43567 38.7483 6.24865C38.696 6.13505 38.6069 6.04246 38.4953 5.98591V5.86914C38.9852 5.9817 39.4829 6.05653 39.9842 6.09295L39.8285 6.81304Z" fill="white"/>
<path d="M50.9316 13.0876L50.8538 12.9806C51.0668 12.7001 51.186 12.3596 51.1943 12.0075C51.2035 11.8374 51.1679 11.668 51.0911 11.516C51.0142 11.364 50.8988 11.2349 50.7565 11.1414C50.5947 11.0187 50.3949 10.9567 50.1921 10.9663C49.9948 10.9815 49.8043 11.045 49.6374 11.1512C49.4575 11.2571 49.2936 11.3881 49.1508 11.5404C49.0141 11.6772 48.8873 11.8235 48.7713 11.9783C48.5101 12.3111 48.3422 12.7074 48.2848 13.1266C48.2683 13.3306 48.3075 13.5352 48.3984 13.7186C48.4892 13.902 48.6282 14.0573 48.8005 14.1678C49.0351 14.3349 49.321 14.4142 49.6082 14.3916C49.8952 14.372 50.1697 14.2669 50.3964 14.0899L50.4451 14.3819C50.1211 14.5966 49.7315 14.6897 49.3455 14.6446C48.9609 14.5835 48.5969 14.4299 48.2848 14.197C47.8233 13.8825 47.5023 13.401 47.3895 12.8541C47.3347 12.5771 47.3393 12.2916 47.403 12.0164C47.4668 11.7413 47.5882 11.4829 47.7593 11.2582C47.9153 11.0172 48.1228 10.8137 48.3667 10.6623C48.6106 10.5109 48.8851 10.4153 49.1703 10.3824C49.7547 10.3261 50.338 10.5008 50.7954 10.869C51.0451 11.0474 51.2651 11.2642 51.4473 11.5112C51.6325 11.7522 51.7954 12.0095 51.9339 12.28L50.9316 13.0876Z" fill="white"/>
<path d="M53.443 14.2566C53.7087 14.1538 53.9996 14.1351 54.2763 14.203C54.553 14.2709 54.8022 14.422 54.9902 14.6361C55.1218 14.7618 55.2267 14.9128 55.2986 15.08C55.3705 15.2472 55.408 15.4272 55.4086 15.6092C55.4072 15.7929 55.3675 15.9743 55.2921 16.1418C55.2167 16.3094 55.1073 16.4594 54.9707 16.5823L53.5208 17.9641C53.4047 18.0562 53.3287 18.1897 53.3087 18.3366C53.2887 18.4836 53.3264 18.6325 53.4138 18.7523L53.3359 18.8301L52.6256 18.0517L51.9055 17.3413L51.9931 17.2537C52.2266 17.4613 52.4796 17.4321 52.7521 17.1661L54.0658 15.9108C54.2594 15.7391 54.4123 15.5263 54.5134 15.2881C54.5659 15.1731 54.581 15.0446 54.5565 14.9207C54.5321 14.7967 54.4694 14.6836 54.3772 14.5972C54.2766 14.4828 54.1423 14.4034 53.9937 14.3701C53.8451 14.3369 53.6897 14.3517 53.55 14.4123C53.1831 14.5845 52.8528 14.8257 52.5769 15.1226L52.1001 15.5897C51.9024 15.7657 51.7348 15.9728 51.6038 16.2028C51.5561 16.2909 51.5312 16.3896 51.5312 16.4898C51.5312 16.5901 51.5561 16.6887 51.6038 16.7769L51.526 16.8547L51.3411 16.6504L50.9908 16.2514L50.8059 16.0568L50.621 15.8719L50.2318 15.5021L50.0469 15.3075L50.1345 15.2297C50.2206 15.2783 50.3178 15.3038 50.4167 15.3038C50.5155 15.3038 50.6127 15.2783 50.6988 15.2297C50.9393 15.1181 51.157 14.963 51.3411 14.7723L53.7155 12.4953C53.82 12.4143 53.8887 12.2957 53.9069 12.1648C53.925 12.0339 53.8913 11.901 53.8128 11.7946L53.8906 11.7168C54.2944 12.0638 54.7166 12.3887 55.1556 12.6899L53.443 14.2566Z" fill="white"/>
<path d="M55.0379 19.7835C54.6292 20.0754 54.5027 20.3771 54.6681 20.6885L54.5708 20.7469L54.4151 20.5328L54.1232 20.0754L53.9772 19.8614L53.8215 19.6473L53.4907 19.2288L53.335 19.005L53.4323 18.9466C53.6658 19.1899 53.9967 19.1705 54.4054 18.8883L56.2445 17.5843C56.3363 17.5193 56.4003 17.4222 56.4237 17.3122C56.4472 17.2022 56.4283 17.0875 56.371 16.9907L56.4586 16.9323C56.7884 17.321 57.1392 17.6913 57.5095 18.0417L55.0379 19.7835ZM58.2491 15.7549C58.4972 15.9248 58.7117 16.1393 58.8816 16.3874C59.0105 16.5603 59.088 16.766 59.1054 16.981C59.1247 17.0777 59.1187 17.1778 59.088 17.2715C59.0573 17.3653 59.003 17.4495 58.9303 17.5162C58.8666 17.5628 58.7939 17.5955 58.7168 17.6123C58.6397 17.6291 58.5599 17.6295 58.4826 17.6135C58.4127 17.5967 58.3443 17.5739 58.2783 17.5454L57.9572 17.5162L57.8307 17.4675C57.7895 17.4531 57.7452 17.45 57.7024 17.4585C57.6596 17.4671 57.6198 17.487 57.5874 17.5162L57.4414 17.3216C57.5249 17.2626 57.622 17.2257 57.7236 17.2145C57.7979 17.2054 57.8731 17.2054 57.9474 17.2145C58.0638 17.229 58.1814 17.229 58.2978 17.2145C58.4127 17.1963 58.5223 17.1531 58.6189 17.088C58.8427 16.9226 58.8913 16.7474 58.7454 16.5431C58.7057 16.4884 58.6548 16.4427 58.596 16.4091C58.5373 16.3756 58.4721 16.3549 58.4048 16.3485C58.2474 16.3429 58.0918 16.3835 57.9572 16.4652L57.8404 16.3679L58.2491 15.7549Z" fill="white"/>
<path d="M15.2969 53.5202V53.4034C15.5948 53.085 15.8 52.6913 15.8905 52.2649C15.93 52.0519 15.9189 51.8326 15.8581 51.6246C15.7972 51.4167 15.6883 51.226 15.5402 51.068C15.3625 50.8626 15.1238 50.7195 14.859 50.6593C14.6099 50.5966 14.3491 50.5966 14.1 50.6593C13.8398 50.727 13.5908 50.8319 13.3605 50.9706C13.137 51.0964 12.9281 51.2465 12.7377 51.4183C12.5492 51.5841 12.3795 51.7701 12.2317 51.9729C12.0663 52.1865 11.932 52.4224 11.8327 52.6736C11.7375 52.9111 11.7007 53.1681 11.7257 53.4229C11.7532 53.6929 11.8696 53.9461 12.0565 54.1429C12.1943 54.3199 12.3669 54.4668 12.5636 54.5746C12.7603 54.6823 12.9769 54.7488 13.2002 54.7697C13.4235 54.7907 13.6488 54.7658 13.8621 54.6965C14.0754 54.6272 14.2722 54.515 14.4406 54.3668L14.5379 54.4251L13.8081 55.5637C13.4246 55.4256 13.0587 55.2427 12.7182 55.0187C12.3576 54.7735 12.0305 54.4824 11.7451 54.1527C11.2451 53.624 10.9516 52.9334 10.918 52.2065C10.9041 51.8732 10.9639 51.5409 11.0931 51.2334C11.2474 50.8831 11.4766 50.5708 11.7646 50.3187C12.0429 50.0604 12.3753 49.8676 12.7377 49.7543C13.0734 49.6615 13.4251 49.6416 13.7692 49.6959C14.4714 49.8249 15.1074 50.1927 15.5694 50.7371C16.1333 51.3354 16.5469 52.0592 16.776 52.8487L15.2969 53.5202Z" fill="white"/>
<path d="M16.8834 57.7533C16.6539 57.8422 16.4093 57.8852 16.1633 57.8798C15.9129 57.8586 15.6736 57.7675 15.4724 57.617C15.1655 57.3979 14.9207 57.1028 14.762 56.7607C14.6841 56.5914 14.6564 56.4033 14.6823 56.2187C14.7082 56.0341 14.7865 55.8609 14.908 55.7195C15.0566 55.5223 15.2704 55.3844 15.5113 55.3303C15.7579 55.2736 16.014 55.2736 16.2606 55.3303C16.539 55.4079 16.8069 55.519 17.0585 55.6611C17.3128 55.7937 17.5539 55.9501 17.7786 56.1282L17.9149 56.2255L18.1192 55.9531C18.5279 55.4081 18.5084 54.98 18.0316 54.6005C17.5548 54.2209 16.9515 54.328 16.2703 54.8826H16.1535L16.6206 53.7441L17.0975 53.9193L17.5645 54.1139C17.8697 54.2507 18.1572 54.4239 18.4209 54.6296C18.7887 54.8763 19.0576 55.2451 19.1799 55.6709C19.2061 55.9144 19.1807 56.1608 19.1052 56.3939C19.0298 56.6269 18.906 56.8415 18.742 57.0235L17.8273 58.2301C17.584 58.5512 17.5451 58.8237 17.7202 59.0378L17.6521 59.1351L16.679 58.3566L16.8834 57.7533ZM17.7689 56.4396L17.6618 56.3618C17.3903 56.1304 17.0455 56.0029 16.6888 56.0017C16.5162 56.0084 16.3476 56.056 16.1971 56.1406C16.0465 56.2252 15.9182 56.3443 15.8227 56.4883C15.7007 56.6404 15.6323 56.8285 15.6281 57.0235C15.6226 57.1205 15.6411 57.2174 15.6818 57.3056C15.7225 57.3938 15.7843 57.4707 15.8616 57.5295C15.9813 57.6136 16.124 57.6588 16.2703 57.6588C16.4166 57.6588 16.5594 57.6136 16.679 57.5295C16.8134 57.4548 16.9377 57.3632 17.0488 57.257C17.1461 57.1597 17.2434 57.0527 17.331 56.9456L17.7689 56.4396ZM17.5256 53.4327L19.0339 52.9365L19.6859 53.423L19.608 55.0481L19.2091 54.7561L19.0339 53.6663L17.9343 53.7441L17.5256 53.4327ZM20.1043 54.1334L19.8027 53.3549C19.6178 52.8781 19.5691 52.5861 19.6664 52.4596C19.7637 52.3331 19.9876 52.265 20.2211 52.4596C20.3041 52.5198 20.3655 52.6051 20.3962 52.7029C20.3962 52.7029 20.3962 52.7808 20.3962 52.8391V53.0046L20.4644 54.4739L20.1043 54.1334Z" fill="white"/>
<path d="M21.2426 57.4821C21.4575 57.294 21.7254 57.1771 22.0094 57.1475C22.2934 57.1179 22.5797 57.177 22.8288 57.3167C22.992 57.3917 23.1388 57.4982 23.2607 57.6301C23.3826 57.7621 23.4772 57.9168 23.5391 58.0855C23.5974 58.256 23.6189 58.437 23.6022 58.6165C23.5854 58.796 23.5307 58.9699 23.4418 59.1267L22.5466 60.9172C22.5052 60.9788 22.4767 61.0481 22.4626 61.121C22.4486 61.1938 22.4493 61.2688 22.4647 61.3414C22.4801 61.414 22.5099 61.4827 22.5524 61.5436C22.5949 61.6044 22.6492 61.6561 22.712 61.6956L22.6536 61.793L21.7389 61.2967L20.8144 60.8685V60.7615C21.1064 60.8685 21.3399 60.7615 21.5053 60.4209L22.313 58.825C22.4388 58.6011 22.512 58.3515 22.5271 58.0952C22.535 57.97 22.506 57.8451 22.4437 57.7362C22.3815 57.6272 22.2887 57.5389 22.1768 57.4821C22.0349 57.4203 21.8769 57.4059 21.7261 57.441C21.5754 57.476 21.44 57.5587 21.3399 57.6768C21.212 57.7859 21.0977 57.9101 20.9993 58.0465C20.9121 58.1617 20.8371 58.2856 20.7755 58.4163L20.3668 59.2142C20.2455 59.4509 20.1571 59.703 20.1041 59.9635C20.09 60.0619 20.1003 60.1622 20.1343 60.2555C20.1682 60.3489 20.2247 60.4324 20.2987 60.4987L20.25 60.6058L20.0068 60.4793L19.5397 60.2165L19.3061 60.0998L19.0726 59.983L18.586 59.7592L18.3428 59.6424L18.3914 59.5451C18.5047 59.5823 18.6265 59.5846 18.741 59.5516C18.8556 59.5187 18.9576 59.452 19.0337 59.3602C19.2201 59.1709 19.3716 58.9502 19.4813 58.7082L20.2111 57.2681C20.3116 57.1018 20.3495 56.9051 20.3182 56.7134C20.2937 56.5892 20.2244 56.4784 20.1235 56.402V56.3047C20.5948 56.5035 21.0792 56.6693 21.5735 56.801L21.2426 57.4821Z" fill="white"/>
<path d="M28.1907 60.0591C28.3522 59.825 28.5812 59.6457 28.8471 59.5449C29.1131 59.444 29.4034 59.4265 29.6795 59.4947C29.9333 59.5412 30.1741 59.6417 30.3857 59.7895C30.5972 59.9372 30.7745 60.1287 30.9056 60.351C31.1851 60.7935 31.286 61.3257 31.1878 61.8398C31.1021 62.383 30.8135 62.8734 30.3801 63.2119C30.1789 63.377 29.9438 63.4957 29.6916 63.5596C29.4393 63.6235 29.176 63.6311 28.9205 63.5817C28.6768 63.5503 28.442 63.4704 28.2297 63.3467C28.0174 63.223 27.8321 63.0581 27.6846 62.8616L27.5095 63.8347C27.4814 63.9209 27.4713 64.0119 27.4799 64.1022C27.4884 64.1925 27.5155 64.28 27.5593 64.3594C27.603 64.4388 27.6627 64.5083 27.7345 64.5637C27.8063 64.619 27.8887 64.6591 27.9766 64.6813V64.8078L26.8672 64.5742L25.7871 64.4088V64.3018C25.8699 64.3067 25.9529 64.2935 26.0301 64.2633C26.1074 64.2331 26.1772 64.1864 26.2347 64.1266C26.3339 63.9995 26.3977 63.8484 26.4196 63.6887L27.0716 60.1369C27.1397 59.7769 27.0716 59.5531 26.7797 59.4752V59.3682H27.5484C27.8209 59.3682 28.0642 59.3682 28.2782 59.3682L28.1907 60.0591ZM28.6577 63.2411C29.3292 63.3579 29.7671 62.8324 29.9812 61.6647C30.1952 60.497 29.9812 59.8353 29.3195 59.7185C28.6577 59.6017 28.2101 60.1175 27.996 61.2949C27.782 62.4723 27.996 63.1146 28.6577 63.2508V63.2411Z" fill="white"/>
<path d="M33.4063 60.7105C33.5129 60.4449 33.6993 60.2189 33.9398 60.0637C34.1804 59.9086 34.4632 59.832 34.7492 59.8445C34.9272 59.8358 35.1053 59.8633 35.2725 59.9252C35.4397 59.987 35.5927 60.0821 35.7223 60.2045C35.8519 60.3302 35.9536 60.4819 36.0206 60.6496C36.0877 60.8172 36.1187 60.9972 36.1115 61.1776V63.1822C36.1034 63.2551 36.1099 63.3289 36.1305 63.3993C36.1511 63.4697 36.1855 63.5353 36.2317 63.5923C36.2778 63.6493 36.3348 63.6966 36.3994 63.7315C36.464 63.7663 36.5348 63.788 36.6078 63.7953V63.912H35.5568H34.5837V63.7953C34.8951 63.7953 35.0411 63.552 35.0411 63.1725V61.4014C35.0526 61.1436 35.0026 60.8868 34.8951 60.6522C34.8488 60.5337 34.7667 60.4326 34.6604 60.3629C34.554 60.2931 34.4286 60.2582 34.3015 60.2629C34.1483 60.259 33.9977 60.3028 33.8704 60.3882C33.7431 60.4736 33.6456 60.5964 33.5912 60.7397C33.4535 61.1331 33.394 61.5496 33.416 61.9658V62.6275C33.4116 62.8942 33.4477 63.1599 33.5231 63.4157C33.556 63.5097 33.6112 63.5943 33.6842 63.6621C33.7571 63.7299 33.8454 63.779 33.9415 63.805V63.9218H33.6301H33.0949H32.5694H32.0342H31.7715V63.805C31.8658 63.7745 31.9517 63.7226 32.0226 63.6534C32.0935 63.5842 32.1475 63.4995 32.1802 63.406C32.2563 63.1539 32.2892 62.8907 32.2775 62.6275V59.3579C32.2913 59.2266 32.2532 59.0951 32.1714 58.9915C32.0896 58.8879 31.9705 58.8203 31.8396 58.8033V58.6768C32.3577 58.6213 32.8715 58.5303 33.3771 58.4043L33.4063 60.7105Z" fill="white"/>
<path d="M40.1792 62.6183C40.0949 62.8511 39.9623 63.0634 39.79 63.2411C39.611 63.4146 39.3837 63.53 39.138 63.572C38.7724 63.6772 38.3845 63.6772 38.0189 63.572C37.8415 63.5157 37.6839 63.4097 37.5649 63.2665C37.4459 63.1234 37.3704 62.9491 37.3475 62.7643C37.2967 62.5244 37.3384 62.2742 37.4643 62.0637C37.5986 61.8461 37.7819 61.6628 37.9995 61.5285C38.2434 61.3747 38.5047 61.2506 38.7779 61.1587C39.0483 61.0657 39.3247 60.9909 39.6051 60.9349H39.7608L39.7024 60.604C39.5759 59.9326 39.2158 59.6309 38.6417 59.7574C38.0676 59.8839 37.6686 60.3802 37.6686 61.256L37.5616 61.3047L37.0264 60.1953L37.4837 59.9618L37.9411 59.7477C38.252 59.6101 38.5789 59.512 38.9142 59.4558C39.3446 59.3426 39.8016 59.3911 40.1987 59.592C40.3963 59.7344 40.5612 59.9175 40.6821 60.129C40.8029 60.3405 40.877 60.5755 40.8993 60.8181L41.1912 62.307C41.2593 62.7059 41.4442 62.9103 41.7264 62.9297V63.0465L40.4419 63.2509L40.1792 62.6183ZM38.1065 59.1347L38.8266 57.8502C38.8737 57.7609 38.9291 57.6761 38.992 57.5972C39.0659 57.5292 39.1566 57.4822 39.2548 57.4609C39.537 57.4609 39.6926 57.4609 39.7413 57.7334C39.79 58.0059 39.6537 58.074 39.3813 58.3173L38.6028 59.0374L38.1065 59.1347ZM39.8192 61.0809H39.6829C39.3457 61.1259 39.0336 61.2837 38.7974 61.5285C38.6831 61.6598 38.6029 61.8173 38.5638 61.987C38.5248 62.1568 38.5281 62.3335 38.5736 62.5016C38.6095 62.6973 38.7046 62.8773 38.8461 63.0173C38.9162 63.0844 39.0014 63.1336 39.0946 63.1607C39.1878 63.1878 39.2861 63.192 39.3813 63.173C39.5239 63.144 39.654 63.0712 39.7534 62.9648C39.8528 62.8584 39.9166 62.7237 39.9359 62.5794C39.973 62.4332 39.9893 62.2825 39.9846 62.1318C39.9835 61.991 39.9672 61.8507 39.9359 61.7134L39.8192 61.0809Z" fill="white"/>
<path d="M43.3607 62.4047C43.0979 62.502 42.9033 62.3463 42.7671 61.9571L42.3876 60.9159L41.8329 59.3005L41.3269 59.4757L41.2588 59.0767C41.5433 58.9386 41.7829 58.7226 41.9497 58.4539C42.1235 58.1872 42.2548 57.895 42.3389 57.5879H42.4168L42.7574 58.561L43.6331 58.2593V58.6778L42.9033 58.9308L43.6526 61.13C43.7122 61.3491 43.8147 61.5542 43.9543 61.7333C44.0162 61.8116 44.1015 61.8681 44.1979 61.8943C44.2942 61.9206 44.3964 61.9153 44.4895 61.8792V61.9863L43.3607 62.4047Z" fill="white"/>
<path d="M47.6623 56.9746C47.6123 56.6943 47.6488 56.4054 47.767 56.1464C47.8852 55.8874 48.0795 55.6705 48.3241 55.5247C48.4722 55.4201 48.6399 55.3464 48.8171 55.308C48.9943 55.2695 49.1774 55.2671 49.3555 55.3009C49.5307 55.3407 49.6959 55.4156 49.8414 55.521C49.9869 55.6263 50.1096 55.76 50.2021 55.9139L51.2823 57.6071C51.351 57.7397 51.4687 57.8403 51.6104 57.8876C51.7522 57.9348 51.9067 57.925 52.0413 57.8601L52.0997 57.9574L51.1947 58.4926L50.3578 59.0667L50.2994 58.9694C50.3549 58.9236 50.4006 58.867 50.4337 58.8031C50.4668 58.7392 50.4866 58.6692 50.4921 58.5975C50.4975 58.5257 50.4885 58.4536 50.4654 58.3854C50.4423 58.3172 50.4057 58.2544 50.3578 58.2007L49.3847 56.6924C49.2564 56.4681 49.0762 56.2779 48.8592 56.1377C48.7544 56.0666 48.6307 56.0286 48.5041 56.0286C48.3774 56.0286 48.2537 56.0666 48.1489 56.1377C48.0187 56.214 47.9159 56.3293 47.8547 56.4672C47.7936 56.6052 47.7774 56.7588 47.8083 56.9065C47.9034 57.3116 48.0751 57.6947 48.3143 58.0353L48.6744 58.5997C48.8092 58.8269 48.9801 59.0307 49.1804 59.203C49.2572 59.268 49.3496 59.312 49.4485 59.3307C49.5474 59.3495 49.6494 59.3423 49.7448 59.31L49.8031 59.4073L49.5793 59.5533L49.1123 59.8258L48.8884 59.962L48.6646 60.108L48.2267 60.4096L48.0029 60.5556L47.9445 60.4583C48.0097 60.3853 48.0562 60.2976 48.0799 60.2026C48.1037 60.1077 48.104 60.0084 48.0808 59.9133C48.0116 59.6547 47.8962 59.4108 47.7402 59.1932L45.9984 56.4394C45.9396 56.32 45.8362 56.2286 45.7105 56.1848C45.5849 56.1411 45.4471 56.1487 45.3269 56.2058L45.2588 56.1085C45.6715 55.7817 46.0616 55.4273 46.4265 55.0479L47.6623 56.9746Z" fill="white"/>
<path d="M54.5912 54.6492C54.685 54.9146 54.6991 55.2016 54.6317 55.4748C54.5643 55.7481 54.4182 55.9956 54.2116 56.1867C54.0733 56.3309 53.9046 56.4424 53.7178 56.5131C53.5309 56.5838 53.3306 56.612 53.1315 56.5954C52.7512 56.5268 52.4069 56.3271 52.1584 56.031L50.9226 54.7465C50.7864 54.6103 50.6112 54.6006 50.3874 54.7465L50.2998 54.659L50.8058 54.0654C50.981 53.8416 51.1464 53.6275 51.2924 53.4231L51.74 53.9681L52.4114 54.6979L52.9272 55.2428C53.0938 55.4378 53.3038 55.5911 53.5402 55.6905C53.6542 55.7441 53.7821 55.7608 53.906 55.7381C54.0299 55.7154 54.1436 55.6545 54.2311 55.564C54.3413 55.4605 54.4172 55.3258 54.4485 55.1779C54.4799 55.03 54.4651 54.8761 54.4063 54.7368C54.2758 54.4012 54.077 54.0963 53.8224 53.8416L52.9758 52.9463C52.9389 52.8986 52.8927 52.8589 52.84 52.8295C52.7873 52.8002 52.7292 52.7818 52.6692 52.7754C52.6092 52.769 52.5486 52.7749 52.4909 52.7925C52.4332 52.8102 52.3797 52.8393 52.3336 52.8782L52.2557 52.8004C52.4503 52.5863 52.6158 52.3819 52.7715 52.2068C52.9272 52.0316 53.1023 51.7786 53.2385 51.584C53.8613 52.2652 54.4938 52.9463 55.1847 53.6275C55.587 54.0557 55.9275 54.2016 56.2065 54.0654L56.2941 54.153L55.321 55.0677L54.5912 54.6492Z" fill="white"/>
<path d="M53.7148 51.2325L53.89 51.0087L54.396 50.347L55.0577 49.3739L55.155 49.442C55.0986 49.5437 55.0653 49.6567 55.0577 49.7728C55.0567 49.8307 55.0705 49.8879 55.0977 49.939C55.125 49.99 55.1648 50.0333 55.2134 50.0648C55.3254 50.1316 55.4528 50.1685 55.5832 50.1718L57.4126 50.4151L56.6049 48.9846C56.5447 48.8634 56.4583 48.757 56.3519 48.6732C56.2457 48.6037 56.1186 48.5734 55.9925 48.5877C55.8663 48.6019 55.7491 48.6597 55.661 48.7511L55.5637 48.683L55.807 48.3716L56.0503 48.0699L56.2644 47.7488C56.3347 47.6303 56.4127 47.5165 56.4979 47.4082L56.5855 47.4763C56.5247 47.6993 56.5247 47.9345 56.5855 48.1575C56.6172 48.2702 56.6562 48.3807 56.7023 48.4883C56.7023 48.5759 56.7801 48.6732 56.8385 48.79L58.1327 51.3784C58.393 51.8063 58.562 52.2834 58.629 52.7797C58.5832 53.2179 58.4183 53.6352 58.1522 53.9863L57.3931 52.8575L57.5099 52.7992C57.5628 52.8309 57.6234 52.8477 57.6851 52.8477C57.7468 52.8477 57.8073 52.8309 57.8602 52.7992C57.9741 52.7638 58.0733 52.692 58.1424 52.5948C58.3565 52.3029 58.2981 52.0304 57.9673 51.7969C57.6858 51.6264 57.3701 51.52 57.0428 51.4855L54.8728 51.1157C54.6564 51.088 54.4373 51.088 54.2209 51.1157C54.0518 51.1292 53.89 51.1899 53.7538 51.2909L53.7148 51.2325Z" fill="white"/>
<path d="M64.2242 34.6621L62.132 34.0588C62.0837 34.0458 62.033 34.0444 61.984 34.0545C61.935 34.0646 61.8891 34.0861 61.8498 34.1171L60.1761 35.5087C60.1309 35.5449 60.0766 35.5678 60.0191 35.5748C59.9617 35.5818 59.9034 35.5727 59.8509 35.5484C59.7983 35.5242 59.7535 35.4858 59.7216 35.4375C59.6897 35.3892 59.6718 35.333 59.6701 35.2751L59.5825 33.0857C59.5826 33.0355 59.5703 32.9861 59.5465 32.9419C59.5227 32.8977 59.4882 32.8602 59.4463 32.8327L57.6071 31.6747C57.5587 31.6422 57.52 31.5971 57.4952 31.5443C57.4705 31.4915 57.4605 31.4329 57.4665 31.3749C57.4726 31.3169 57.4942 31.2616 57.5293 31.215C57.5644 31.1683 57.6114 31.1321 57.6655 31.1103L59.709 30.3707C59.7549 30.3537 59.7962 30.3265 59.83 30.2911C59.8637 30.2556 59.8889 30.213 59.9036 30.1664L60.4388 28.0645C60.4562 28.0093 60.4882 27.9598 60.5314 27.9213C60.5746 27.8828 60.6274 27.8566 60.6843 27.8457C60.7411 27.8347 60.7999 27.8393 60.8543 27.859C60.9087 27.8786 60.9568 27.9127 60.9935 27.9574L62.3364 29.6604C62.3664 29.7008 62.4063 29.7329 62.4524 29.7533C62.4984 29.7738 62.549 29.782 62.5991 29.7771L64.7594 29.6409C64.8181 29.6361 64.8769 29.648 64.9291 29.6753C64.9813 29.7026 65.0247 29.7441 65.0542 29.795C65.0838 29.8459 65.0982 29.9042 65.096 29.9631C65.0938 30.0219 65.0749 30.0789 65.0416 30.1274L63.796 31.9374C63.7722 31.9824 63.7597 32.0325 63.7597 32.0834C63.7597 32.1343 63.7722 32.1844 63.796 32.2293L64.594 34.2534C64.6135 34.3066 64.6181 34.3642 64.6072 34.4199C64.5964 34.4756 64.5705 34.5273 64.5325 34.5694C64.4944 34.6114 64.4456 34.6423 64.3912 34.6586C64.3369 34.675 64.2791 34.6762 64.2242 34.6621Z" fill="#F5B2D0"/>
<path d="M63.1339 44.6456L61.8494 44.2758C61.8213 44.2595 61.7894 44.251 61.7569 44.251C61.7245 44.251 61.6926 44.2595 61.6645 44.2758L60.6136 45.1418C60.5854 45.1659 60.551 45.1815 60.5143 45.1866C60.4776 45.1918 60.4402 45.1864 60.4065 45.1711C60.3728 45.1558 60.3441 45.1312 60.3239 45.1001C60.3037 45.0691 60.2928 45.0329 60.2924 44.9959L60.2438 43.6335C60.2435 43.6023 60.2354 43.5716 60.22 43.5444C60.2047 43.5172 60.1828 43.4943 60.1562 43.4778L58.9301 42.8161C58.8972 42.8002 58.8694 42.7753 58.85 42.7443C58.8306 42.7134 58.8203 42.6775 58.8203 42.641C58.8203 42.6044 58.8306 42.5686 58.85 42.5376C58.8694 42.5066 58.8972 42.4818 58.9301 42.4658L60.2146 41.9987C60.2451 41.9897 60.2723 41.972 60.2931 41.9478C60.3138 41.9237 60.3271 41.894 60.3314 41.8625L60.6719 40.5391C60.6833 40.5045 60.7036 40.4736 60.7309 40.4495C60.7582 40.4255 60.7914 40.4091 60.8271 40.4022C60.8628 40.3953 60.8997 40.398 60.934 40.4101C60.9683 40.4221 60.9988 40.4432 61.0223 40.471L61.8689 41.5414C61.8885 41.5663 61.9137 41.5863 61.9424 41.5998C61.9711 41.6133 62.0026 41.62 62.0343 41.6192L63.3966 41.5316C63.4331 41.5314 63.4689 41.541 63.5004 41.5593C63.5319 41.5776 63.5579 41.604 63.5758 41.6358C63.5937 41.6676 63.6027 41.7035 63.602 41.74C63.6013 41.7764 63.5909 41.812 63.5718 41.843L62.8128 42.9718C62.7965 42.9999 62.788 43.0318 62.788 43.0643C62.788 43.0967 62.7965 43.1286 62.8128 43.1567L63.309 44.4217C63.3131 44.4481 63.3118 44.475 63.3051 44.5007C63.2984 44.5265 63.2864 44.5507 63.27 44.5716C63.2536 44.5926 63.233 44.61 63.2096 44.6227C63.1862 44.6354 63.1604 44.6432 63.1339 44.6456Z" fill="#D4EEF8"/>
<path d="M56.1183 27.0032L55.3593 26.3318C55.3404 26.3196 55.3184 26.3131 55.296 26.3131C55.2736 26.3131 55.2516 26.3196 55.2327 26.3318L54.2597 26.5653C54.2329 26.5716 54.205 26.5702 54.179 26.5613C54.153 26.5524 54.1301 26.5364 54.1128 26.5151C54.0955 26.4937 54.0846 26.4679 54.0813 26.4407C54.0781 26.4134 54.0825 26.3858 54.0942 26.361L54.5127 25.4365C54.5246 25.4158 54.5309 25.3923 54.5309 25.3684C54.5309 25.3445 54.5246 25.321 54.5127 25.3003L53.9872 24.4342C53.971 24.4121 53.9619 24.3856 53.961 24.3582C53.9601 24.3308 53.9675 24.3038 53.9822 24.2807C53.9969 24.2576 54.0183 24.2394 54.0435 24.2286C54.0687 24.2178 54.0965 24.2149 54.1234 24.2201L55.0965 24.3272C55.1433 24.3276 55.1885 24.3102 55.223 24.2785L55.8847 23.5098C55.902 23.4893 55.9247 23.4739 55.9501 23.4655C55.9756 23.457 56.0029 23.4557 56.029 23.4617C56.0552 23.4678 56.0792 23.4809 56.0983 23.4997C56.1175 23.5185 56.1312 23.5421 56.1377 23.5682L56.3421 24.5413C56.3458 24.5653 56.3559 24.5879 56.3713 24.6067C56.3867 24.6255 56.4068 24.6399 56.4297 24.6483L57.4028 25.0375C57.4274 25.0495 57.4482 25.0682 57.4628 25.0914C57.4774 25.1146 57.4851 25.1415 57.4851 25.1689C57.4851 25.1963 57.4774 25.2232 57.4628 25.2464C57.4482 25.2697 57.4274 25.2883 57.4028 25.3003L56.527 25.8063C56.5039 25.8159 56.4842 25.8321 56.4704 25.8529C56.4565 25.8737 56.4491 25.8981 56.4491 25.9231L56.3713 26.8962C56.3729 26.9262 56.3653 26.9559 56.3494 26.9814C56.3335 27.0069 56.3101 27.0269 56.2824 27.0386C56.2547 27.0503 56.2241 27.0532 56.1947 27.0469C56.1654 27.0405 56.1387 27.0253 56.1183 27.0032Z" fill="#FCD527"/>
<path d="M35.8101 29.943C32.8908 32.7552 28.6968 33.1445 26.4295 30.7993C24.1622 28.4542 24.6779 24.2698 27.5874 21.4576C30.497 18.6453 34.7008 18.2464 36.9681 20.5915C39.2354 22.9367 38.7197 27.121 35.8101 29.943Z" fill="#FFCB0A"/>
<path d="M30.2628 32.385C29.5433 32.402 28.8278 32.2738 28.159 32.0079C27.4902 31.7421 26.8819 31.3441 26.3704 30.8377C24.0934 28.4731 24.6091 24.2499 27.5381 21.4182C29.0192 19.9308 31.0157 19.0702 33.114 19.0146C33.8338 18.9953 34.55 19.1225 35.2191 19.3885C35.8882 19.6544 36.4963 20.0536 37.0064 20.5618C39.2834 22.9167 38.7677 27.14 35.8387 29.9717C34.358 31.4609 32.362 32.3248 30.2628 32.385ZM33.1821 19.1022C31.1052 19.1595 29.1297 20.013 27.6646 21.4863C24.7454 24.2888 24.2588 28.4536 26.5067 30.7696C27.0052 31.2668 27.5995 31.6577 28.2535 31.9186C28.9075 32.1795 29.6076 32.3051 30.3115 32.2876C32.3859 32.2319 34.3588 31.3779 35.8192 29.9036C38.7385 27.1108 39.2348 22.9459 36.9869 20.6202C36.482 20.1179 35.8797 19.7242 35.217 19.4631C34.5543 19.2021 33.8453 19.0793 33.1335 19.1022H33.1821Z" fill="#83301A"/>
<g style="mix-blend-mode:multiply" opacity="0.5">
<g style="mix-blend-mode:multiply" opacity="0.5">
<path d="M36.9678 20.591C36.3588 19.9678 35.5972 19.5149 34.7589 19.2773C35.5173 19.5708 36.1783 20.071 36.6668 20.7212C37.1553 21.3714 37.4517 22.1455 37.5225 22.9557C37.795 24.9018 35.9169 26.2058 32.764 26.2058C31.4042 26.3082 30.0796 26.6872 28.8715 27.3198C27.6634 27.9523 26.5972 28.8249 25.7383 29.8841C25.9322 30.2174 26.1677 30.5247 26.4389 30.7988C28.7062 33.144 32.9003 32.745 35.8196 29.9425C38.7389 27.14 39.2351 22.9362 36.9678 20.591Z" fill="#FFCB0A"/>
</g>
</g>
<path d="M29.6799 52.7901C29.6521 52.7904 29.6244 52.7845 29.5992 52.7727C29.5739 52.7609 29.5516 52.7436 29.534 52.7219C28.52 51.4651 27.8548 49.9635 27.6055 48.368C27.3561 46.7725 27.5312 45.1395 28.1133 43.6332C28.1381 43.5989 28.1739 43.5742 28.2147 43.5631C28.2556 43.552 28.299 43.5553 28.3377 43.5724C28.3764 43.5895 28.4081 43.6193 28.4275 43.657C28.4469 43.6946 28.4527 43.7377 28.4441 43.7792C27.8896 45.2244 27.7253 46.7901 27.9679 48.319C28.2105 49.8478 28.8513 51.2858 29.8259 52.4884C29.8587 52.5243 29.8769 52.5711 29.8769 52.6198C29.8769 52.6684 29.8587 52.7153 29.8259 52.7511C29.788 52.7637 29.747 52.7637 29.7091 52.7511L29.6799 52.7901Z" fill="#010101"/>
<path d="M30.6226 53.2778C30.6191 53.1978 30.5991 53.1194 30.564 53.0474C30.5288 52.9754 30.4792 52.9114 30.4183 52.8594C29.9901 52.4312 28.7446 52.5772 28.2385 52.7329C26.1659 53.3849 23.8012 55.3116 26.7692 54.9808C27.2946 54.9224 30.574 54.2217 30.6226 53.2778Z" fill="#FFCB0A"/>
<path d="M26.1664 55.0675C25.6409 55.0675 25.3587 54.9507 25.3295 54.7269C25.242 54.1528 26.8768 53.1116 28.2488 52.6834C28.6195 52.5797 29.0025 52.5274 29.3874 52.5277C29.7706 52.4941 30.1534 52.5975 30.4675 52.8196C30.5346 52.8754 30.5886 52.9454 30.6256 53.0244C30.6626 53.1035 30.6817 53.1897 30.6816 53.277C30.6816 54.2501 27.1687 54.9799 26.7892 55.0188C26.5829 55.0484 26.3748 55.0646 26.1664 55.0675ZM29.3679 52.625C28.9932 52.6226 28.6199 52.6717 28.2586 52.771C26.8281 53.2186 25.3393 54.2306 25.4171 54.7172C25.4171 54.8923 25.6993 54.9799 26.1664 54.9799C26.3641 54.9926 26.5623 54.9926 26.76 54.9799C27.3244 54.9215 30.5259 54.2112 30.5745 53.3256C30.5731 53.2504 30.5549 53.1764 30.5212 53.109C30.4875 53.0417 30.4393 52.9827 30.3799 52.9364C30.0905 52.7153 29.7316 52.6049 29.3679 52.625Z" fill="#83301A"/>
<path d="M39.7025 42.5635C39.6551 42.5636 39.6095 42.5454 39.5751 42.5128C39.5406 42.4802 39.5201 42.4357 39.5176 42.3883C39.5176 42.3393 39.5371 42.2923 39.5717 42.2576C39.6064 42.2229 39.6534 42.2034 39.7025 42.2034C42.7952 42.1332 45.8815 41.8896 48.9469 41.4736C48.9946 41.465 49.0437 41.4755 49.0838 41.5028C49.1238 41.5301 49.1515 41.5721 49.161 41.6196C49.1695 41.6673 49.159 41.7164 49.1317 41.7565C49.1045 41.7965 49.0625 41.8242 49.015 41.8337C45.9305 42.2544 42.8245 42.498 39.7122 42.5635H39.7025Z" fill="#010101"/>
<path d="M50.9227 41.3948C50.9227 41.3948 50.3097 42.9128 49.5507 42.8252C48.7917 42.7377 48.7235 41.4532 49.6383 39.3805C50.553 37.3078 51.3704 36.4612 51.6526 37.3662C51.9348 38.2711 51.4969 39.9935 50.9227 41.3948Z" fill="#FFCB0A"/>
<path d="M49.609 42.8745H49.5409C49.4417 42.8624 49.3468 42.8271 49.2639 42.7712C49.181 42.7154 49.1126 42.6408 49.0641 42.5534C48.7527 41.9987 48.9473 40.8407 49.5993 39.3616C50.2513 37.8825 50.8935 36.9775 51.3217 36.9775C51.4871 36.9775 51.6136 37.104 51.6915 37.357C51.9931 38.3301 51.4871 40.1401 50.9616 41.4149C50.9325 41.4732 50.3681 42.8745 49.609 42.8745ZM51.3217 37.0359C51.02 37.0359 50.4362 37.649 49.6772 39.3714C49.0544 40.8018 48.85 41.9598 49.142 42.4755C49.1821 42.5514 49.2404 42.616 49.3118 42.6636C49.3832 42.7111 49.4653 42.7402 49.5507 42.748H49.609C50.2999 42.748 50.8741 41.3467 50.8741 41.337C51.4385 39.9844 51.8472 38.2231 51.6039 37.3473C51.5358 37.1722 51.4482 37.0651 51.3217 37.0651V37.0359Z" fill="#83301A"/>
<path d="M47.6518 35.6146C45.5896 35.4757 43.5442 35.15 41.5408 34.6415C41.5138 34.6392 41.4876 34.6309 41.4641 34.6172C41.4406 34.6036 41.4205 34.585 41.405 34.5627C41.3895 34.5404 41.3792 34.5149 41.3747 34.4882C41.3701 34.4614 41.3715 34.434 41.3788 34.4079C41.3861 34.3817 41.399 34.3575 41.4167 34.3369C41.4344 34.3163 41.4564 34.2999 41.4811 34.2887C41.5058 34.2776 41.5327 34.2721 41.5599 34.2725C41.587 34.2729 41.6137 34.2793 41.6381 34.2912C43.6191 34.7963 45.6416 35.122 47.681 35.2643C47.7283 35.2692 47.7719 35.2922 47.8028 35.3285C47.8336 35.3647 47.8492 35.4114 47.8465 35.4589C47.8416 35.5045 47.82 35.5467 47.7859 35.5773C47.7517 35.6078 47.7074 35.6246 47.6616 35.6244L47.6518 35.6146Z" fill="#010101"/>
<path d="M47.6523 35.6151C47.6523 35.6151 47.7205 33.8051 47.9637 33.7468C48.207 33.6884 48.3238 35.2064 48.3238 35.2064C48.3238 35.2064 49.5207 33.7468 49.8515 33.7468C50.1824 33.7468 49.0925 35.2648 49.0925 35.2648C49.0925 35.2648 50.5814 34.9631 50.5814 35.6054C50.5814 36.2476 49.0925 36.0043 49.0925 36.0043C49.0925 36.0043 49.9099 36.6077 49.8515 37.0358C49.7932 37.464 48.0805 36.7926 47.6523 35.6151Z" fill="#FFCB0A"/>
<path d="M48.4217 36.6781C48.7734 36.9533 49.1882 37.1365 49.6286 37.2111C49.8427 37.2111 49.8913 37.1041 49.8524 37.0554C49.901 36.7148 49.434 36.2867 49.2004 36.0823C49.3461 36.0944 49.4926 36.0944 49.6383 36.0823C50.446 36.0823 50.6114 35.8001 50.6114 35.5958C50.6114 35.3914 50.4654 35.1384 49.794 35.1384C49.5853 35.1425 49.3771 35.162 49.1712 35.1968C49.4145 34.8562 50.0275 33.9415 49.9302 33.7469C49.9211 33.729 49.9072 33.7141 49.8899 33.7037C49.8727 33.6934 49.853 33.6881 49.8329 33.6885C49.5215 33.6885 48.6263 34.7492 48.3441 35.08C48.2954 34.5837 48.1884 33.6885 47.9548 33.6885C47.6921 33.7858 47.6143 35.2065 47.6143 35.6347C47.7925 36.0442 48.07 36.4028 48.4217 36.6781Z" fill="#83301A"/>
<path d="M21.6521 41.1912C21.624 41.1932 21.5958 41.188 21.5702 41.1761C21.5447 41.1641 21.5226 41.1459 21.5061 41.123C21.4733 41.0872 21.4551 41.0403 21.4551 40.9917C21.4551 40.943 21.4733 40.8962 21.5061 40.8603C22.6812 40.0576 23.6485 38.9869 24.3281 37.7367C24.3374 37.7142 24.3514 37.694 24.369 37.6772C24.3866 37.6604 24.4075 37.6475 24.4304 37.6393C24.4533 37.631 24.4777 37.6276 24.5019 37.6293C24.5262 37.631 24.5498 37.6377 24.5714 37.6491C24.6149 37.6701 24.6484 37.7074 24.6647 37.7529C24.6811 37.7983 24.679 37.8484 24.6589 37.8924C23.9605 39.1994 22.9595 40.3205 21.7396 41.162C21.7047 41.172 21.6676 41.172 21.6326 41.162L21.6521 41.1912Z" fill="#010101"/>
<path d="M21.8172 40.9379C21.8172 40.9379 22.2162 42.2808 22.0021 42.3976C21.788 42.5143 21.4182 41.6969 21.4182 41.6969C21.4182 41.6969 20.9317 42.9814 20.6008 42.9814C20.27 42.9814 20.6008 41.512 20.6008 41.512C20.6008 41.512 19.8029 42.6408 19.5596 41.9986C19.3163 41.3563 20.2602 41.298 20.2602 41.298C20.2602 41.298 19.5012 40.9963 19.7153 40.5681C19.9294 40.14 21.4863 40.5097 21.8172 40.9379Z" fill="#FFCB0A"/>
<path d="M20.6007 43.0208C20.5779 43.0216 20.5553 43.0167 20.5349 43.0065C20.5145 42.9963 20.4969 42.9811 20.4839 42.9624C20.3185 42.7677 20.4255 42.0574 20.4839 41.6973C20.3185 41.9017 20.0071 42.2423 19.7638 42.2423C19.6997 42.2415 19.6379 42.2188 19.5883 42.1782C19.5388 42.1375 19.5046 42.0812 19.4914 42.0185C19.4547 41.9513 19.4355 41.876 19.4355 41.7995C19.4355 41.723 19.4547 41.6477 19.4914 41.5806C19.6321 41.4092 19.8351 41.3007 20.0558 41.2789C19.8639 41.1888 19.7067 41.0384 19.6081 40.8507C19.5863 40.8035 19.575 40.752 19.575 40.6999C19.575 40.6478 19.5863 40.5964 19.6081 40.5491C19.6762 40.4129 19.8709 40.335 20.1725 40.335C20.7704 40.3315 21.3513 40.5342 21.8171 40.9091C21.9046 41.24 22.2063 42.3007 21.9728 42.4272H21.9046C21.71 42.4272 21.4765 41.999 21.3792 41.7849C21.3013 42.1352 20.9121 43.0208 20.6007 43.0208ZM20.6007 41.4735V41.5222C20.5326 41.8433 20.3963 42.7288 20.5423 42.904C20.5497 42.9083 20.5581 42.9105 20.5666 42.9105C20.5752 42.9105 20.5836 42.9083 20.591 42.904C20.8148 42.904 21.1845 42.1352 21.3694 41.6487C21.3694 41.6487 21.3694 41.6487 21.4181 41.6487C21.5446 41.9309 21.7781 42.3396 21.9046 42.3396C22.0117 42.2715 21.9046 41.5611 21.7003 40.9383C21.2518 40.5913 20.7007 40.403 20.1336 40.4031C19.8709 40.4031 19.7054 40.4615 19.6471 40.5685C19.6304 40.6052 19.6218 40.645 19.6218 40.6853C19.6218 40.7256 19.6304 40.7654 19.6471 40.8021C19.7444 41.0648 20.1823 41.24 20.1823 41.24C20.1865 41.2474 20.1888 41.2558 20.1888 41.2643C20.1888 41.2729 20.1865 41.2812 20.1823 41.2886C20.1823 41.2886 19.686 41.2886 19.5303 41.5708C19.5013 41.6264 19.4861 41.6882 19.4861 41.7509C19.4861 41.8135 19.5013 41.8753 19.5303 41.9309C19.5303 42.0379 19.6276 42.0963 19.7152 42.0963C19.9584 42.0963 20.3574 41.6195 20.4839 41.4346C20.5423 41.4735 20.552 41.4735 20.5715 41.4735H20.6007Z" fill="#83301A"/>
<path d="M20.1433 33.6484C20.1003 33.6494 20.0583 33.6353 20.0246 33.6087C19.9909 33.5821 19.9675 33.5445 19.9584 33.5025C19.9526 33.4537 19.9654 33.4046 19.9943 33.3649C20.0231 33.3252 20.0659 33.2979 20.1141 33.2884C21.8657 33.0159 25.2715 32.1596 25.3104 32.1499C25.3341 32.1441 25.3586 32.143 25.3827 32.1467C25.4068 32.1504 25.4299 32.1588 25.4507 32.1715C25.4714 32.1841 25.4895 32.2008 25.5039 32.2205C25.5182 32.2401 25.5285 32.2624 25.5342 32.2861C25.54 32.3091 25.541 32.3331 25.5371 32.3565C25.5333 32.3799 25.5248 32.4023 25.512 32.4223C25.4993 32.4424 25.4826 32.4596 25.463 32.473C25.4434 32.4863 25.4213 32.4956 25.398 32.5002C25.398 32.5002 21.9435 33.376 20.1725 33.6484H20.1433Z" fill="#010101"/>
<path d="M20.114 33.2903C20.0108 32.8804 19.9779 32.4559 20.0167 32.035C20.0848 31.3051 19.1993 31.276 19.5594 32.8913C18.5279 32.4631 17.8565 31.7041 17.6716 32.0058C17.4867 32.3074 18.0122 33.0762 18.8004 33.3195C17.5256 33.7184 17.3115 33.7184 17.4867 33.9909C17.6618 34.2634 19.3161 33.6503 18.9561 34.4191C18.596 35.1878 18.3138 35.4797 18.8588 35.4797C19.4037 35.4797 20.1432 34.059 20.114 33.2903Z" fill="#FFCB0A"/>
<path d="M18.8585 35.528C18.6833 35.528 18.5763 35.528 18.5276 35.4209C18.479 35.3139 18.5276 35.0901 18.732 34.7592L18.9169 34.3992C18.935 34.3612 18.9444 34.3196 18.9444 34.2775C18.9444 34.2354 18.935 34.1939 18.9169 34.1559C18.9169 34.0878 18.7612 34.0586 18.5568 34.0586H18.1384H17.7491C17.5642 34.0586 17.4669 34.0586 17.428 33.9613C17.4005 33.9358 17.3805 33.9033 17.3702 33.8673C17.3599 33.8312 17.3597 33.7931 17.3696 33.7569C17.3696 33.6304 17.6324 33.5623 18.2162 33.3872L18.6249 33.2704C18.1874 33.0833 17.8389 32.7348 17.6518 32.2973C17.6202 32.2355 17.6038 32.1672 17.6038 32.0978C17.6038 32.0284 17.6202 31.9601 17.6518 31.8983C17.6693 31.8698 17.6936 31.846 17.7224 31.829C17.7512 31.8121 17.7838 31.8024 17.8173 31.801C18.0581 31.8651 18.2832 31.9777 18.479 32.1319C18.8054 32.3639 19.1542 32.5627 19.5202 32.7254C19.3895 32.3324 19.4139 31.9042 19.5883 31.5285C19.6111 31.5001 19.64 31.4772 19.6728 31.4614C19.7057 31.4457 19.7416 31.4375 19.778 31.4375C19.8145 31.4375 19.8504 31.4457 19.8833 31.4614C19.9161 31.4772 19.945 31.5001 19.9678 31.5285C20.0167 31.5913 20.0523 31.6633 20.0724 31.7403C20.0925 31.8173 20.0966 31.8975 20.0846 31.9762C20.0424 32.3906 20.0754 32.8093 20.1819 33.212C20.1327 33.9316 19.849 34.6152 19.3742 35.1582C19.3222 35.2551 19.2487 35.3389 19.1593 35.403C19.0699 35.4671 18.967 35.5098 18.8585 35.528ZM18.586 33.971C18.732 33.971 18.9461 33.971 19.0239 34.1072C19.052 34.1578 19.0668 34.2148 19.0668 34.2727C19.0668 34.3306 19.052 34.3875 19.0239 34.4381L18.839 34.7981C18.693 35.0803 18.586 35.2944 18.6347 35.3723C18.6702 35.3998 18.7109 35.4199 18.7543 35.4316C18.7978 35.4433 18.8431 35.4463 18.8877 35.4404C19.0582 35.4159 19.2121 35.325 19.3158 35.1874C19.7808 34.6601 20.055 33.9918 20.0943 33.2898C19.9936 32.8795 19.964 32.4549 20.0067 32.0345C20.0165 31.968 20.013 31.9002 19.9963 31.835C19.9796 31.7698 19.95 31.7087 19.9094 31.655C19.8958 31.6369 19.8782 31.6222 19.8579 31.6121C19.8376 31.6019 19.8153 31.5967 19.7926 31.5967C19.77 31.5967 19.7476 31.6019 19.7274 31.6121C19.7071 31.6222 19.6895 31.6369 19.6759 31.655C19.6175 31.7329 19.4423 32.0248 19.6759 32.8617C19.6759 32.8617 19.6759 32.8617 19.6759 32.9103C19.2749 32.7408 18.8932 32.5287 18.5374 32.2778C18.1773 32.0443 17.9243 31.8789 17.8367 32.0151C17.8153 32.0642 17.8042 32.1172 17.8042 32.1708C17.8042 32.2244 17.8153 32.2774 17.8367 32.3265C17.9442 32.5478 18.0966 32.7443 18.2843 32.9035C18.4719 33.0627 18.6907 33.181 18.9266 33.2509C18.9326 33.2666 18.9326 33.2839 18.9266 33.2996L18.3817 33.465C17.8854 33.6207 17.6226 33.6985 17.5934 33.7764C17.5643 33.8542 17.5934 33.8445 17.5934 33.9029C17.5934 33.9613 17.6713 33.9613 17.8464 33.9613H18.226L18.586 33.971Z" fill="#83301A"/>
<path d="M36.6857 28.0749C36.6539 28.0841 36.6202 28.0841 36.5884 28.0749C36.5492 28.0473 36.5216 28.0062 36.5108 27.9595C36.5001 27.9129 36.5069 27.8638 36.53 27.8219L40.9673 20.6015C40.9793 20.5801 40.9955 20.5615 41.0151 20.5468C41.0346 20.5321 41.0571 20.5217 41.0809 20.5162C41.1047 20.5107 41.1295 20.5103 41.1535 20.5149C41.1775 20.5195 41.2003 20.5291 41.2203 20.5431C41.2588 20.569 41.2861 20.6083 41.2969 20.6534C41.3077 20.6984 41.3012 20.7459 41.2787 20.7864L36.8414 28.0068C36.8257 28.034 36.803 28.0565 36.7756 28.0719C36.7482 28.0873 36.7171 28.0951 36.6857 28.0943V28.0749Z" fill="#010101"/>
<path d="M41.1327 20.8234C41.1327 20.8234 40.0137 19.9087 40.1596 19.4514C40.3056 18.994 40.9575 20.0352 40.9575 20.0352C40.9575 20.0352 41.23 18.994 41.4733 18.9356C41.7166 18.8772 41.7458 20.0936 41.7458 20.0936C41.7458 20.0936 42.1447 19.4222 42.4756 19.393C42.8064 19.3638 42.2615 20.1812 42.2615 20.1812C42.2615 20.1812 43.2346 19.8212 43.3611 20.3077C43.4876 20.7942 41.989 21.2808 41.1327 20.8234Z" fill="#FFCB0A"/>
<path d="M41.9499 21.0587C41.6592 21.0635 41.3718 20.9966 41.113 20.8641C41.0643 20.8641 39.955 19.891 40.1399 19.4433C40.1399 19.3168 40.2469 19.2974 40.3053 19.2974C40.5194 19.2974 40.8308 19.7255 40.9573 19.9202C41.0352 19.6282 41.259 18.9471 41.4828 18.8887C41.6969 18.8887 41.7552 19.5796 41.7747 19.9493C41.9109 19.745 42.2029 19.3752 42.4656 19.346C42.4925 19.3425 42.5199 19.3471 42.5441 19.3593C42.5684 19.3714 42.5885 19.3905 42.6018 19.4141C42.6153 19.4376 42.6203 19.4678 42.6188 19.5025C42.6218 19.5456 42.604 19.6113 42.5733 19.6879C42.5181 19.833 42.4244 19.9953 42.3586 20.105C42.5416 20.048 42.7314 20.0153 42.923 20.0077C43.2733 20.0077 43.3706 20.1634 43.3998 20.2997C43.4047 20.3509 43.3985 20.4026 43.3817 20.4513C43.365 20.5 43.3379 20.5445 43.3025 20.5819C42.9287 20.9072 42.445 21.0777 41.9499 21.0587Z" fill="#83301A"/>
<g style="mix-blend-mode:multiply" opacity="0.5">
<g style="mix-blend-mode:multiply" opacity="0.5">
<path d="M32.1993 25.1253C31.7579 25.4534 31.2058 25.5963 30.6606 25.5236C30.1154 25.4509 29.6201 25.1684 29.28 24.7361C29.0642 24.2338 29.0339 23.6712 29.1944 23.1486C29.3549 22.6261 29.6959 22.1775 30.1564 21.8829C30.6169 21.5884 31.1671 21.467 31.7088 21.5404C32.2505 21.6139 32.7485 21.8774 33.114 22.2839C33.3667 22.7825 33.4123 23.3606 33.241 23.8927C33.0697 24.4248 32.6954 24.8677 32.1993 25.1253Z" fill="#FFCB0A"/>
</g>
</g>
<path d="M32.8325 24.561C31.6161 25.3395 30.1565 25.2325 29.5726 24.3178C28.9887 23.4031 29.5045 22.031 30.7209 21.2525C31.9372 20.474 33.3969 20.5811 33.9807 21.4958C34.5646 22.4105 34.0488 23.7826 32.8325 24.561Z" fill="#FEFDEB"/>
<path d="M31.1487 25.1255C30.8355 25.1434 30.5229 25.0813 30.2403 24.9451C29.9577 24.809 29.7144 24.6031 29.5333 24.347C29.3875 24.1041 29.3018 23.83 29.2831 23.5474C29.2645 23.2648 29.3136 22.9818 29.4263 22.7219C29.6836 22.0956 30.1335 21.5674 30.7108 21.2136C31.2207 20.8805 31.8144 20.6983 32.4234 20.6881C32.7379 20.6684 33.0521 20.7307 33.3352 20.8689C33.6184 21.007 33.8608 21.2164 34.0388 21.4763C34.1845 21.7174 34.2702 21.9899 34.2889 22.271C34.3075 22.5521 34.2584 22.8335 34.1458 23.0917C33.8996 23.7187 33.4554 24.2483 32.8808 24.6C32.3653 24.9366 31.7643 25.1189 31.1487 25.1255ZM32.404 20.7757C31.812 20.789 31.2356 20.9676 30.74 21.2915C30.1879 21.6369 29.7588 22.1476 29.5139 22.7511C29.4073 22.9985 29.3605 23.2675 29.3774 23.5363C29.3943 23.8052 29.4744 24.0662 29.6112 24.2983C29.7838 24.5418 30.0155 24.7373 30.2844 24.8667C30.5533 24.996 30.8507 25.055 31.1487 25.0379C31.7406 25.0246 32.317 24.846 32.8127 24.5221C33.367 24.1793 33.7968 23.6677 34.0388 23.0625C34.1477 22.8173 34.1957 22.5495 34.1788 22.2818C34.1618 22.0141 34.0804 21.7545 33.9415 21.525C33.7713 21.2784 33.5403 21.0799 33.271 20.9486C33.0017 20.8174 32.7031 20.7578 32.404 20.7757Z" fill="#83301A"/>
<g style="mix-blend-mode:multiply">
<g style="mix-blend-mode:multiply">
<path d="M34.0973 21.7207C34.1646 22.2115 34.0805 22.7111 33.8562 23.1528C33.6319 23.5945 33.278 23.9572 32.842 24.1924C31.6938 24.9319 30.312 24.8249 29.767 23.9686C29.5902 23.6416 29.5161 23.2689 29.5543 22.8992C29.5925 22.5294 29.7412 22.1798 29.9811 21.8959C29.6608 22.2017 29.448 22.6028 29.3743 23.0395C29.3007 23.4762 29.3701 23.9249 29.5724 24.3189C30.1563 25.2336 31.6159 25.3406 32.8323 24.5621C33.3379 24.3064 33.7399 23.8841 33.9704 23.3665C34.2008 22.8489 34.2456 22.2676 34.0973 21.7207Z" fill="#F2EFDA"/>
</g>
</g>
<path d="M33.1343 23.7332C32.9541 23.9268 32.707 24.0446 32.4431 24.0627C32.1793 24.0807 31.9184 23.9977 31.7135 23.8305C31.5858 23.6003 31.5509 23.3299 31.616 23.0748C31.6812 22.8197 31.8414 22.5992 32.0639 22.4584C32.148 22.3562 32.2521 22.2721 32.3698 22.2115C32.4875 22.1509 32.6163 22.1149 32.7484 22.1058C32.8805 22.0967 33.013 22.1147 33.1379 22.1585C33.2628 22.2024 33.3775 22.2714 33.4748 22.3611C33.6035 22.5902 33.6399 22.8597 33.5766 23.1146C33.5133 23.3696 33.3551 23.5908 33.1343 23.7332Z" fill="#381B0D"/>
<path d="M33.1441 23.3544C33.1014 23.4088 33.0483 23.4543 32.988 23.4882C32.9277 23.5221 32.8612 23.5437 32.7925 23.5518C32.7238 23.56 32.6541 23.5545 32.5876 23.5356C32.521 23.5168 32.4588 23.4849 32.4045 23.442C32.3351 23.3228 32.3125 23.1819 32.3413 23.047C32.3701 22.912 32.4481 22.7927 32.5602 22.7122C32.6494 22.6065 32.7754 22.5386 32.9127 22.5223C33.05 22.5061 33.1884 22.5426 33.2998 22.6246C33.374 22.7426 33.3992 22.8848 33.3701 23.0211C33.341 23.1574 33.26 23.277 33.1441 23.3544Z" fill="white"/>
<g style="mix-blend-mode:multiply" opacity="0.5">
<g style="mix-blend-mode:multiply" opacity="0.5">
<path d="M28.6875 22.6044C28.4738 22.7336 28.2274 22.7987 27.9777 22.792C27.7281 22.7853 27.4856 22.7069 27.2791 22.5664C27.0727 22.4258 26.9109 22.2289 26.8131 21.9991C26.7153 21.7693 26.6856 21.5162 26.7274 21.27C26.7693 21.0238 26.881 20.7947 27.0492 20.6101C27.2175 20.4255 27.4352 20.2932 27.6765 20.2287C27.9178 20.1643 28.1726 20.1705 28.4104 20.2466C28.6483 20.3228 28.8593 20.4656 29.0184 20.6582C29.2262 20.9622 29.3079 21.3351 29.2462 21.6982C29.1845 22.0612 28.9841 22.3862 28.6875 22.6044Z" fill="#FFCB0A"/>
</g>
</g>
<path d="M29.0567 22.1767C28.78 22.4751 28.3986 22.6548 27.9923 22.6784C27.586 22.702 27.1864 22.5675 26.877 22.3032C26.6669 21.954 26.6002 21.537 26.6909 21.1396C26.7816 20.7423 27.0227 20.3956 27.3635 20.1721C27.6403 19.8745 28.0206 19.6945 28.4262 19.6691C28.8318 19.6438 29.2317 19.775 29.5433 20.0359C29.7539 20.3866 29.8209 20.8051 29.7302 21.2041C29.6396 21.603 29.3983 21.9515 29.0567 22.1767Z" fill="#FEFDEB"/>
<path d="M27.7916 22.731C27.6097 22.743 27.4275 22.7133 27.2589 22.6441C27.0902 22.575 26.9396 22.4683 26.8185 22.3321C26.6022 21.973 26.532 21.5446 26.6226 21.1353C26.7131 20.726 26.9574 20.3672 27.305 20.1329C27.6738 19.814 28.1411 19.6319 28.6284 19.6171C28.8097 19.6025 28.9918 19.63 29.1607 19.6975C29.3295 19.765 29.4804 19.8707 29.6015 20.0064C29.8203 20.3648 29.8918 20.7939 29.8011 21.2039C29.7104 21.6139 29.4645 21.9728 29.115 22.2056C28.748 22.5286 28.2802 22.7144 27.7916 22.731ZM28.6674 19.7047C28.2019 19.7178 27.7565 19.8973 27.4121 20.2107C27.0799 20.4249 26.8436 20.7594 26.7529 21.1441C26.6621 21.5288 26.724 21.9337 26.9255 22.2737C27.0352 22.3928 27.1695 22.4866 27.319 22.5488C27.4685 22.611 27.6298 22.6399 27.7916 22.6337C28.255 22.6192 28.6988 22.4437 29.0469 22.1374C29.3774 21.9218 29.6117 21.5865 29.7006 21.202C29.7895 20.8174 29.7261 20.4133 29.5237 20.0745C29.4147 19.9512 29.2794 19.854 29.1278 19.79C28.9762 19.7261 28.8122 19.6969 28.6479 19.7047H28.6674Z" fill="#83301A"/>
<g style="mix-blend-mode:multiply">
<g style="mix-blend-mode:multiply">
<path d="M29.6408 20.1719C29.7282 20.4916 29.7164 20.8303 29.6069 21.1431C29.4974 21.4559 29.2955 21.728 29.0278 21.9235C28.7689 22.2069 28.4099 22.3785 28.0268 22.4021C27.6436 22.4257 27.2663 22.2994 26.9745 22.05C26.8348 21.8448 26.7601 21.6024 26.7601 21.3542C26.7601 21.106 26.8348 20.8635 26.9745 20.6584C26.7898 20.8904 26.6852 21.1761 26.6764 21.4726C26.6676 21.7691 26.7552 22.0604 26.9259 22.303C27.2353 22.5673 27.6349 22.7017 28.0412 22.6782C28.4475 22.6546 28.8289 22.4748 29.1056 22.1765C29.4073 21.9512 29.6242 21.6308 29.7213 21.2671C29.8184 20.9034 29.7901 20.5175 29.6408 20.1719Z" fill="#F2EFDA"/>
</g>
</g>
<path d="M29.2703 21.6809C29.1494 21.8617 28.9621 21.9876 28.749 22.0313C28.5359 22.075 28.3141 22.033 28.1318 21.9144C28.0156 21.7342 27.9622 21.5206 27.9799 21.3069C27.9976 21.0932 28.0854 20.8913 28.2296 20.7326C28.3739 20.5739 28.5665 20.4673 28.7776 20.4294C28.9887 20.3915 29.2063 20.4243 29.3968 20.5229C29.5279 20.6954 29.5879 20.9117 29.5644 21.1271C29.5409 21.3425 29.4356 21.5407 29.2703 21.6809Z" fill="#381B0D"/>
<path d="M29.2419 21.4088C29.1814 21.5055 29.0863 21.5754 28.976 21.6044C28.8657 21.6333 28.7485 21.619 28.6483 21.5645C28.4926 21.438 28.5218 21.1655 28.697 20.9514C28.7575 20.8547 28.8526 20.7848 28.9629 20.7559C29.0732 20.7269 29.1904 20.7412 29.2906 20.7957C29.3601 20.8857 29.3937 20.9983 29.3847 21.1117C29.3757 21.225 29.3248 21.3309 29.2419 21.4088Z" fill="white"/>
<path d="M33.2612 20.0557C33.2434 20.0375 33.2334 20.013 33.2334 19.9876C33.2334 19.9621 33.2434 19.9376 33.2612 19.9195C33.4266 19.754 37.8445 15.3167 40.4621 15.9006C40.4864 15.9074 40.5071 15.9234 40.5198 15.9452C40.5325 15.967 40.5362 15.9928 40.5302 16.0173C40.5234 16.0416 40.5074 16.0623 40.4856 16.075C40.4638 16.0877 40.438 16.0914 40.4135 16.0855C37.9029 15.5113 33.4364 19.9778 33.3877 20.0557C33.3741 20.0625 33.3591 20.0661 33.3439 20.0661C33.3287 20.0661 33.3137 20.0625 33.3001 20.0557H33.2612Z" fill="#83301A"/>
<path d="M40.6373 16.601C40.3454 16.7469 40.034 16.7275 39.9465 16.5426C39.8589 16.3577 40.034 16.1144 40.326 15.9685C40.6179 15.8225 40.9293 15.8517 41.0168 16.0268C41.1044 16.202 40.9293 16.455 40.6373 16.601Z" fill="#FFCB0A"/>
<path d="M40.2668 16.7474C40.1965 16.7536 40.1259 16.7405 40.0625 16.7097C39.9991 16.6788 39.9452 16.6313 39.9067 16.5723C39.8094 16.3679 39.9846 16.0857 40.3057 15.93C40.4259 15.8672 40.5593 15.8339 40.6949 15.8327C40.7654 15.8243 40.8369 15.8363 40.9007 15.8673C40.9646 15.8984 41.0181 15.9472 41.055 16.0079C41.1523 16.2025 40.9771 16.4847 40.656 16.6404C40.5365 16.7062 40.4031 16.7429 40.2668 16.7474ZM40.6949 15.9203C40.573 15.9227 40.4533 15.9526 40.3446 16.0079C40.0819 16.1441 39.9164 16.3776 39.9846 16.5236C40.0527 16.6696 40.1305 16.6501 40.2668 16.6501C40.3887 16.6477 40.5084 16.6178 40.6171 16.5625C40.8798 16.436 41.0452 16.1928 40.9771 16.0468C40.9459 16.0022 40.9032 15.9669 40.8535 15.9446C40.8038 15.9224 40.749 15.9139 40.6949 15.9203Z" fill="#83301A"/>
<path d="M31.4401 20.0067C31.4316 19.9985 31.4248 19.9887 31.4201 19.9778C31.4155 19.967 31.4131 19.9553 31.4131 19.9435C31.4131 19.9316 31.4155 19.9199 31.4201 19.9091C31.4248 19.8982 31.4316 19.8884 31.4401 19.8802C32.8115 18.1369 33.5463 15.9774 33.5225 13.7594C33.5211 13.7471 33.5224 13.7347 33.5262 13.7229C33.53 13.7111 33.5362 13.7003 33.5445 13.6911C33.5527 13.6819 33.5629 13.6746 33.5742 13.6696C33.5855 13.6646 33.5977 13.662 33.6101 13.6621C33.6101 13.6621 33.6977 13.6621 33.7074 13.7497C33.7341 16.0132 32.9855 18.2177 31.5861 19.997C31.5713 20.0055 31.5545 20.01 31.5374 20.01C31.5203 20.01 31.5035 20.0055 31.4888 19.997L31.4401 20.0067Z" fill="#83301A"/>
<path d="M33.6885 13.788C33.5912 14.1772 33.3382 14.4497 33.1241 14.401C32.91 14.3524 32.8127 13.9826 32.9198 13.5934C33.0268 13.2041 33.2701 12.9219 33.4842 12.9803C33.6982 13.0387 33.7955 13.3987 33.6885 13.788Z" fill="#FFCB0A"/>
<path d="M33.1825 14.4507H33.1144C33.0461 14.4297 32.9856 14.3889 32.9405 14.3335C32.8954 14.278 32.8679 14.2104 32.8614 14.1393C32.8131 13.9576 32.8131 13.7664 32.8614 13.5846C32.9587 13.2148 33.1923 12.9424 33.4161 12.9424H33.4842C33.5507 12.9664 33.6093 13.0081 33.6539 13.063C33.6985 13.1178 33.7273 13.1838 33.7372 13.2538C33.7855 13.4355 33.7855 13.6267 33.7372 13.8084C33.6301 14.1782 33.4063 14.4507 33.1825 14.4507ZM33.4258 13.0202C33.2506 13.0202 33.0463 13.2732 32.9587 13.6041C32.9141 13.7698 32.9141 13.9444 32.9587 14.1101C32.9587 14.2463 33.056 14.3339 33.1436 14.3534C33.2312 14.3728 33.5718 14.1296 33.6593 13.7792C33.704 13.6135 33.704 13.439 33.6593 13.2732C33.6593 13.137 33.562 13.0494 33.4744 13.03L33.4258 13.0202Z" fill="#83301A"/>
<path d="M33.1733 45.7742C38.0962 45.7742 42.0869 41.5264 42.0869 36.2865C42.0869 31.0466 38.0962 26.7988 33.1733 26.7988C28.2505 26.7988 24.2598 31.0466 24.2598 36.2865C24.2598 41.5264 28.2505 45.7742 33.1733 45.7742Z" fill="#FFCB0A"/>
<path d="M33.1732 45.8139C28.2298 45.8139 24.2109 41.542 24.2109 36.2873C24.2109 31.0326 28.2298 26.751 33.1732 26.751C38.1165 26.751 42.1256 31.0326 42.1256 36.2873C42.1256 41.542 38.1068 45.8139 33.1732 45.8139ZM33.1732 26.8483C28.3077 26.8483 24.2985 31.0813 24.2985 36.2873C24.2985 41.4934 28.2785 45.7361 33.1732 45.7361C38.0678 45.7361 42.0381 41.5031 42.0381 36.3068C42.0381 31.1105 38.0581 26.8483 33.1732 26.8483Z" fill="#83301A"/>
<path d="M29.8936 45.1023C30.9312 45.5406 32.0465 45.7656 33.1729 45.764C34.3312 45.7619 35.4768 45.5235 36.5398 45.0634C34.3566 44.5155 32.0702 44.5289 29.8936 45.1023Z" fill="#010101"/>
<path d="M41.4145 39.8967C38.6666 38.5015 35.6315 37.7652 32.5496 37.7462C29.8573 37.7293 27.196 38.3214 24.7648 39.4783C24.4346 38.4667 24.2671 37.4091 24.2686 36.3449C24.2686 31.0902 28.2874 26.8086 33.2308 26.8086C38.1741 26.8086 42.1833 31.0902 42.1833 36.3449C42.185 37.5579 41.9675 38.7612 41.541 39.8967H41.4145ZM32.5301 37.6489C35.6107 37.6691 38.6448 38.4018 41.3951 39.7897C41.8067 38.6777 42.0176 37.5015 42.0178 36.3158C42.0178 31.1097 38.0379 26.8767 33.1529 26.8767C28.268 26.8767 24.2783 31.1097 24.2783 36.3158C24.2783 37.3535 24.4425 38.3848 24.7648 39.3713C27.1963 38.2131 29.8564 37.6145 32.5496 37.6197L32.5301 37.6489Z" fill="#83301A"/>
<path d="M24.7559 39.4102C24.8703 39.7418 25.0035 40.0667 25.1548 40.3833C27.6917 39.3951 30.3986 38.9174 33.1205 38.9775C35.8423 39.0376 38.5255 39.6344 41.0163 40.7336C41.172 40.4222 41.3082 40.1011 41.4347 39.7605C38.8691 38.4225 36.0292 37.6948 33.1363 37.634C30.2433 37.5733 27.3754 38.1811 24.7559 39.4102Z" fill="#010101"/>
<path d="M26.04 41.9694C26.5377 42.6534 27.1271 43.2657 27.7916 43.7891C31.3709 42.7612 35.1631 42.7309 38.7584 43.7015C39.4248 43.1378 40.0079 42.4826 40.4905 41.7553C35.8084 40.0642 30.67 40.1403 26.04 41.9694Z" fill="#010101"/>
<g style="mix-blend-mode:multiply" opacity="0.5">
<g style="mix-blend-mode:multiply" opacity="0.5">
<path d="M33.1737 26.7988C28.2498 26.7988 24.2601 31.0415 24.2601 36.2865C24.2472 37.88 24.6212 39.4527 25.35 40.8698C26.9458 41.1033 30.8285 41.2396 33.0277 37.717C33.6213 36.4811 33.9035 37.5807 34.3122 38.3592C34.7209 39.1377 37.864 42.2516 41.1239 40.5779C41.758 39.2496 42.0903 37.7974 42.097 36.3254C42.0775 31.0415 38.0878 26.7988 33.1737 26.7988Z" fill="#FFCB0A"/>
</g>
</g>
<g opacity="0.9">
<path opacity="0.9" d="M33.9414 29.5729C33.9414 29.5729 36.4715 23.1407 43.2734 22.8975C47.6231 22.9558 51.0582 27.2861 45.3753 31.1882C42.7479 32.7355 35.1967 32.9885 33.9414 29.5729Z" fill="#C5E8F3"/>
<path opacity="0.9" d="M40.1691 32.3256C36.8703 32.3256 34.5251 31.3525 33.9023 29.5814C34.4248 28.3705 35.1414 27.253 36.0237 26.2729C36.9333 25.2372 38.0443 24.3976 39.289 23.8053C40.5338 23.2131 41.8861 22.8806 43.2635 22.8281C45.6573 22.8281 47.7009 24.1321 48.2361 25.9128C48.5474 26.9443 48.5961 28.9878 45.3946 31.2065C43.7663 31.9892 41.9751 32.3728 40.1691 32.3256ZM33.9899 29.5717C34.6127 31.2357 36.9092 32.2282 40.1691 32.2282C41.9436 32.2736 43.7038 31.9002 45.307 31.1384C48.4599 28.9586 48.421 26.9541 48.1096 25.9518C47.5841 24.2099 45.5698 22.9644 43.2441 22.9352C36.7438 23.1784 34.1456 29.1922 33.9899 29.5717Z" fill="#83301A"/>
</g>
<path d="M34.0684 29.7084V29.6403C34.117 29.5916 39.0506 24.4926 44.7724 23.3152C44.7815 23.3108 44.7915 23.3086 44.8016 23.3086C44.8117 23.3086 44.8217 23.3108 44.8308 23.3152C44.8371 23.3236 44.8405 23.3338 44.8405 23.3444C44.8405 23.3549 44.8371 23.3651 44.8308 23.3736C39.0895 24.5413 34.1754 29.6111 34.1267 29.6695L34.0684 29.7084Z" fill="#83301A"/>
<path d="M40.6166 32.2667C39.0013 31.358 37.5532 30.1797 36.335 28.783V28.7246C36.335 28.7246 36.335 28.7246 36.3933 28.7246C37.6059 30.1103 39.0435 31.2815 40.6458 32.1888V32.2472L40.6166 32.2667Z" fill="#83301A"/>
<path d="M44.5485 31.5673C42.6997 31.0516 38.4764 28.0836 38.4375 28.0544V27.9863C38.4375 27.9863 38.4375 27.9863 38.5056 27.9863C38.5737 27.9863 42.7483 30.9737 44.5777 31.4895C44.5777 31.4895 44.5777 31.4895 44.5777 31.5479C44.5703 31.5521 44.562 31.5544 44.5534 31.5544C44.5449 31.5544 44.5365 31.5521 44.5291 31.5479L44.5485 31.5673Z" fill="#83301A"/>
<path d="M40.3443 27.4228C40.338 27.4143 40.3346 27.4041 40.3346 27.3936C40.3346 27.383 40.338 27.3728 40.3443 27.3644C40.4652 26.6355 40.3053 25.8878 39.8967 25.2722C39.8896 25.2623 39.8857 25.2504 39.8857 25.2382C39.8857 25.2259 39.8896 25.214 39.8967 25.2041C39.8967 25.2041 39.9551 25.2041 39.9648 25.2041C40.3857 25.8401 40.5492 26.6123 40.4222 27.3644L40.3443 27.4228Z" fill="#83301A"/>
<path d="M37.5227 28.3362C37.5138 28.3271 37.5088 28.3148 37.5088 28.3021C37.5088 28.2894 37.5138 28.2771 37.5227 28.268C37.8157 27.7511 37.9997 27.1796 38.0633 26.5888C38.1269 25.998 38.0687 25.4005 37.8925 24.833H37.9703C37.9703 24.8914 38.5834 26.1564 37.6103 28.3459L37.5227 28.3362Z" fill="#83301A"/>
<g opacity="0.9">
<path opacity="0.9" d="M34.6026 30.1652C34.6026 30.1652 32.7148 33.7949 34.7291 37.1813C35.0908 37.8812 35.6449 38.4632 36.3262 38.8588C37.0075 39.2544 37.7876 39.4472 38.5748 39.4145C39.3619 39.3818 40.1234 39.1249 40.7695 38.6741C41.4156 38.2233 41.9195 37.5974 42.2219 36.8699C43.6913 33.9019 39.7016 29.9998 34.6026 30.1652Z" fill="#C5E8F3"/>
<path opacity="0.9" d="M38.3982 39.4882C37.64 39.4667 36.9011 39.2446 36.2567 38.8446C35.6122 38.4446 35.0853 37.881 34.7296 37.2111C32.7251 33.8442 34.6031 30.1659 34.6031 30.1659H34.9534C36.3032 30.1309 37.6414 30.4223 38.8544 31.0153C40.0674 31.6082 41.1193 32.4852 41.9208 33.5717C42.267 34.0542 42.4806 34.619 42.5404 35.2098C42.6001 35.8005 42.5039 36.3966 42.2614 36.9387C41.9171 37.68 41.3736 38.311 40.6914 38.7613C40.0091 39.2115 39.2152 39.4632 38.3982 39.4882ZM34.6713 30.2243C34.5156 30.5454 32.9197 33.9804 34.8075 37.1625C35.1544 37.8191 35.6698 38.3717 36.3009 38.7633C36.9319 39.1549 37.6558 39.3715 38.3982 39.3909C39.2086 39.3694 39.9966 39.1208 40.6727 38.6736C41.3488 38.2263 41.8858 37.5982 42.2225 36.8608C42.4545 36.3315 42.5451 35.751 42.4854 35.1761C42.4257 34.6013 42.2177 34.0518 41.8819 33.5815C41.0924 32.5045 40.0526 31.6361 38.8522 31.0511C37.6518 30.4662 36.327 30.1824 34.9924 30.2243H34.6713Z" fill="#83301A"/>
</g>
<path d="M40.1896 36.5298C38.872 36.0746 37.5077 35.7678 36.1221 35.6151V35.5664C36.1221 35.5664 36.1221 35.5664 36.1707 35.5664C37.5668 35.7139 38.9413 36.0208 40.2675 36.4811C40.2675 36.4811 40.2675 36.4811 40.2675 36.5395L40.1896 36.5298Z" fill="#83301A"/>
<path d="M36.8118 39.1188C36.8044 39.1231 36.796 39.1253 36.7875 39.1253C36.7789 39.1253 36.7705 39.1231 36.7632 39.1188C36.532 38.2994 36.4789 37.4401 36.6075 36.5985C36.6075 36.5856 36.6126 36.5732 36.6217 36.5641C36.6308 36.5549 36.6432 36.5498 36.6561 36.5498C36.669 36.5498 36.6814 36.5549 36.6905 36.5641C36.6996 36.5732 36.7048 36.5856 36.7048 36.5985C36.5649 37.4227 36.6148 38.2681 36.8507 39.0701V39.1285L36.8118 39.1188Z" fill="#83301A"/>
<path d="M41.4154 32.9478C39.9174 32.7593 38.4032 32.7365 36.9002 32.8797H36.8516V32.831C38.3614 32.6984 39.881 32.7212 41.3862 32.8991C41.3862 32.8991 41.3862 32.8991 41.3862 32.9575L41.4154 32.9478Z" fill="#83301A"/>
<path d="M42.4658 34.9534C41.5511 34.7782 38.301 34.642 38.2718 34.6323C38.2426 34.6225 38.2718 34.6323 38.2718 34.6323C38.2718 34.6323 41.5608 34.7685 42.4853 34.9534C42.4853 34.9534 42.4853 34.9534 42.4853 35.002C42.4853 35.0507 42.4853 35.002 42.4853 35.002L42.4658 34.9534Z" fill="#83301A"/>
<g opacity="0.7">
<path opacity="0.7" d="M33.0659 30.1665C33.0659 30.1665 28.648 19.2581 21.2136 22.1287C17.3212 23.5592 17.3212 30.8088 25.9915 31.9959C30.7791 32.3755 32.5112 31.305 33.0659 30.1665Z" fill="#C5E8F3"/>
<path opacity="0.7" d="M27.9867 32.1129C27.3737 32.1129 26.7023 32.1129 26.0405 32.0155C21.0486 31.3344 19.0051 28.6486 18.7521 26.3716C18.6165 25.4757 18.7891 24.5604 19.2417 23.7755C19.6943 22.9905 20.4 22.3825 21.2432 22.051C22.0333 21.7387 22.875 21.577 23.7246 21.5742C26.8093 21.5742 29.2128 23.8999 30.6822 25.8461C31.6658 27.1715 32.4951 28.6047 33.1539 30.118C32.5019 31.4317 30.7893 32.1129 27.9867 32.1129ZM23.6759 21.6618C22.8359 21.6655 22.004 21.8272 21.2237 22.1386C20.398 22.4605 19.7069 23.0544 19.2645 23.8224C18.8222 24.5903 18.6551 25.4861 18.791 26.3619C19.0343 28.6097 21.0583 31.2273 26.0016 31.9182C26.712 31.9864 27.3834 32.0155 27.9478 32.0155C30.692 32.0155 32.3851 31.383 32.969 30.1375C32.823 29.6801 29.3783 21.6423 23.6759 21.6423V21.6618Z" fill="#83301A"/>
</g>
<path d="M29.4166 30.7887C25.7577 30.7887 19.8802 28.57 19.8218 28.5506C19.7635 28.5311 19.8218 28.5506 19.8218 28.4922H19.8802C19.9483 28.4922 26.799 31.1001 30.2826 30.6817H30.3313V30.7303C30.0506 30.767 29.7677 30.7833 29.4847 30.779L29.4166 30.7887Z" fill="#83301A"/>
<path d="M23.7725 29.7378V29.6794L25.3489 27.3342C25.358 27.3253 25.3702 27.3203 25.3829 27.3203C25.3957 27.3203 25.4079 27.3253 25.417 27.3342V27.4023L23.8308 29.7475L23.7725 29.7378Z" fill="#83301A"/>
<path d="M26.3612 27.6364C26.3538 27.6407 26.3454 27.6429 26.3368 27.6429C26.3283 27.6429 26.3199 27.6407 26.3125 27.6364V27.578L28.7161 26.7217H28.7744V26.7801L26.3612 27.6364Z" fill="#83301A"/>
<g opacity="0.9">
<path opacity="0.9" d="M32.9395 30.167C32.9395 30.167 34.224 35.7428 30.3803 39.1C26.5366 42.4572 20.8148 38.7011 24.1914 34.7697C25.2523 33.4396 26.5774 32.3439 28.0832 31.5517C29.5889 30.7595 31.2424 30.288 32.9395 30.167Z" fill="#C5E8F3"/>
<path opacity="0.9" d="M27.0527 40.4229C26.3053 40.4531 25.5644 40.273 24.9142 39.9032C24.264 39.5333 23.7305 38.9886 23.3744 38.3307C23.1304 37.7191 23.0751 37.0483 23.2156 36.4049C23.356 35.7615 23.6859 35.1749 24.1626 34.7206C25.2229 33.3866 26.549 32.2877 28.0567 31.4937C29.5644 30.6996 31.2207 30.2278 32.9205 30.1081C32.9279 30.1038 32.9363 30.1016 32.9448 30.1016C32.9534 30.1016 32.9618 30.1038 32.9691 30.1081C32.9691 30.1665 34.205 35.752 30.3904 39.08C29.4824 39.9254 28.2932 40.4038 27.0527 40.4229ZM32.8913 30.1957C31.2084 30.3213 29.5695 30.7932 28.0775 31.5819C26.5855 32.3706 25.2726 33.459 24.221 34.7789C23.757 35.2209 23.4358 35.7917 23.2988 36.4177C23.1618 37.0437 23.2152 37.6964 23.4522 38.2918C23.7986 38.9351 24.3191 39.4679 24.9541 39.8293C25.5891 40.1907 26.313 40.366 27.043 40.3353C28.2647 40.3264 29.4399 39.8654 30.3418 39.0411C33.9617 35.8883 33.0081 30.6919 32.901 30.1665L32.8913 30.1957Z" fill="#83301A"/>
</g>
<path d="M26.6924 40.2871C26.6924 40.2871 26.6924 40.2871 26.6924 40.2287C28.911 37.5527 32.891 30.2253 32.9299 30.1475H32.9883C32.9883 30.1475 32.9883 30.1475 32.9883 30.2156C32.9883 30.2837 28.9694 37.6208 26.741 40.3066L26.6924 40.2871Z" fill="#83301A"/>
<path d="M23.8018 38.6028V38.5444C25.5857 34.9476 28.4693 32.0129 32.0342 30.166C32.0342 30.166 32.0342 30.166 32.0925 30.166C32.1509 30.166 32.0925 30.2147 32.0925 30.2244C28.5367 32.0424 25.653 34.9466 23.8602 38.5152L23.8018 38.6028Z" fill="#83301A"/>
<g style="mix-blend-mode:multiply">
<g style="mix-blend-mode:multiply" opacity="0.9">
<g style="mix-blend-mode:multiply" opacity="0.9">
<path d="M34.2539 30.1673C36.1223 32.9504 42.9145 32.639 45.3764 31.1404C47.3226 29.817 48.1497 28.4547 48.2957 27.248C46.5928 29.4472 42.2333 33.3104 34.2539 30.1673Z" fill="#C5E8F3"/>
</g>
</g>
</g>
<g style="mix-blend-mode:multiply" opacity="0.9">
<g style="mix-blend-mode:multiply" opacity="0.9">
<g style="mix-blend-mode:multiply" opacity="0.9">
<path d="M37.6979 38.1363C34.7105 37.387 34.1753 33.5919 34.0975 31.7139C33.8436 32.6263 33.7722 33.5799 33.8875 34.52C34.0027 35.4601 34.3022 36.3682 34.7689 37.1924C35.1307 37.8923 35.6848 38.4743 36.3661 38.8699C37.0473 39.2656 37.8275 39.4584 38.6146 39.4257C39.4018 39.393 40.1632 39.1361 40.8093 38.6853C41.4555 38.2345 41.9594 37.6085 42.2618 36.881C42.3485 36.7035 42.417 36.5177 42.4661 36.3263C41.9728 37.1018 41.2419 37.697 40.3826 38.0232C39.5233 38.3494 38.5816 38.3891 37.6979 38.1363Z" fill="#C5E8F3"/>
</g>
</g>
</g>
<g style="mix-blend-mode:multiply" opacity="0.9">
<g style="mix-blend-mode:multiply" opacity="0.9">
<g style="mix-blend-mode:multiply" opacity="0.9">
<path d="M32.9396 30.166H32.8228C32.7158 31.7716 32.1125 37.3767 28.9304 38.7487C28.096 39.1081 27.1956 39.2886 26.2872 39.2785C25.3787 39.2685 24.4825 39.0681 23.6562 38.6903C24.824 40.4906 27.9963 41.2009 30.4193 39.0893C34.2241 35.7224 32.9396 30.166 32.9396 30.166Z" fill="#C5E8F3"/>
</g>
</g>
</g>
<g style="mix-blend-mode:multiply" opacity="0.9">
<g style="mix-blend-mode:multiply" opacity="0.7">
<g style="mix-blend-mode:multiply" opacity="0.7">
<path d="M23.676 30.6035C22.4964 30.1264 21.4432 29.3826 20.5991 28.4304C19.755 27.4782 19.1428 26.3435 18.8105 25.1152C18.3726 27.7621 20.309 31.1679 26.0211 31.9269C30.546 32.3356 32.3463 31.4014 32.9885 30.2921C31.5486 31.0063 29.9724 31.4036 28.366 31.4573C26.7596 31.5111 25.1604 31.2199 23.676 30.6035Z" fill="#C5E8F3"/>
</g>
</g>
</g>
<path d="M8.2128 24.3761C7.88707 24.5244 7.60145 24.7483 7.37973 25.0293C7.158 25.3103 7.00658 25.6401 6.93805 25.9914C6.92645 26.0605 6.89943 26.1262 6.859 26.1835C6.81857 26.2407 6.76576 26.2882 6.7045 26.3223C6.63869 26.3451 6.56853 26.3525 6.49939 26.3441C6.43024 26.3357 6.36393 26.3116 6.30553 26.2736C5.90201 26.032 5.43217 25.9249 4.96382 25.9678C4.49548 26.0106 4.05287 26.2012 3.69987 26.5119C3.34688 26.8227 3.10176 27.2376 2.99992 27.6967C2.89807 28.1559 2.94476 28.6355 3.13324 29.0664C3.24863 29.321 3.41031 29.552 3.61005 29.7476C4.95293 31.2461 8.40741 32.19 9.20535 31.9273C9.92544 31.5089 11.5408 28.3171 11.3267 26.3125C11.3142 26.0333 11.2481 25.7591 11.1321 25.5049C11.015 25.2387 10.8465 24.9983 10.6362 24.7974C10.426 24.5965 10.1781 24.4391 9.90686 24.3342C9.63563 24.2293 9.34636 24.179 9.05565 24.1862C8.76494 24.1934 8.47852 24.2579 8.2128 24.3761Z" fill="#FCD527"/>
<path d="M12.7669 42.417C12.5281 42.4202 12.2936 42.4811 12.0835 42.5947C11.8733 42.7082 11.6938 42.8709 11.5603 43.069C11.5338 43.1053 11.5004 43.1361 11.462 43.1595C11.4236 43.1828 11.3809 43.1984 11.3365 43.2052C11.2898 43.2015 11.2446 43.1873 11.2042 43.1638C11.1637 43.1402 11.1291 43.1078 11.1029 43.069C10.9646 42.8756 10.782 42.7181 10.5704 42.6098C10.3588 42.5014 10.1243 42.4453 9.88657 42.4462C9.69361 42.4487 9.50303 42.4893 9.32572 42.5654C9.14842 42.6416 8.98786 42.752 8.85322 42.8903C8.71858 43.0285 8.6125 43.192 8.54102 43.3712C8.46955 43.5505 8.43408 43.7421 8.43665 43.935C8.44074 44.1193 8.48038 44.301 8.55342 44.4702C9.11417 45.7196 10.1203 46.7153 11.3754 47.263C12.6268 46.6905 13.6217 45.6748 14.1682 44.4118C14.2439 44.1912 14.266 43.9558 14.2326 43.7249C14.1993 43.4941 14.1115 43.2745 13.9764 43.0843C13.8414 42.8942 13.6631 42.7389 13.4561 42.6313C13.2492 42.5237 13.0196 42.4669 12.7864 42.4656L12.7669 42.417Z" fill="#FCD527"/>
<path d="M8.76667 33.0469L7.1416 40.4521" stroke="#FBB03B" stroke-miterlimit="10" stroke-linecap="round"/>
<path d="M5.15723 34.1934L10.7525 39.3021" stroke="#FBB03B" stroke-miterlimit="10" stroke-linecap="round"/>
<path d="M4.33984 37.901L11.57 35.6045" stroke="#FBB03B" stroke-miterlimit="10" stroke-linecap="round"/>
</svg>
