<svg width="32" height="32" viewBox="0 0 32 32" fill="none" xmlns="http://www.w3.org/2000/svg">
<path fill-rule="evenodd" clip-rule="evenodd" d="M5.73244 6C5.5568 6.30363 5.30363 6.5568 5 6.73244V25.2676C5.30363 25.4432 5.5568 25.6964 5.73244 26H26.2676C26.4432 25.6964 26.6964 25.4432 27 25.2676V6.73244C26.6964 6.5568 26.4432 6.30363 26.2676 6L5.73244 6ZM4 29C4.74028 29 5.38663 28.5978 5.73244 28H26.2676C26.6134 28.5978 27.2597 29 28 29C29.1046 29 30 28.1046 30 27C30 26.2597 29.5978 25.6134 29 25.2676V6.73244C29.5978 6.38663 30 5.74028 30 5C30 3.89543 29.1046 3 28 3C27.2597 3 26.6134 3.4022 26.2676 4L5.73244 4C5.38663 3.4022 4.74028 3 4 3C2.89543 3 2 3.89543 2 5C2 5.74028 2.4022 6.38663 3 6.73244V25.2676C2.4022 25.6134 2 26.2597 2 27C2 28.1046 2.89543 29 4 29ZM12.2667 12.1333C12.2667 13.3115 11.3115 14.2667 10.1333 14.2667C8.95513 14.2667 8 13.3115 8 12.1333C8 10.9551 8.95513 10 10.1333 10C11.3115 10 12.2667 10.9551 12.2667 12.1333ZM14.8571 17.7333L11.8095 15.3333L8 21.7333H24L18.6667 12.1333L14.8571 17.7333Z" fill="#3D8AD8"/>
</svg>
