<svg width="68" height="68" viewBox="0 0 68 68" fill="none" xmlns="http://www.w3.org/2000/svg">
<path d="M66.3043 22.8914C66.3043 22.8397 66.3043 22.7891 66.3043 22.7374C66.3043 13.0873 59.3243 4.25 48.829 4.25C40.4902 4.25 35.6538 10.2438 34.0043 15.8532C32.3549 10.2438 27.5185 4.25 19.1797 4.25C8.68436 4.25 1.70433 13.0873 1.70433 22.7374C1.70433 22.7891 1.70433 22.8397 1.70433 22.8914C1.64834 24.9909 1.70433 46.3563 33.9903 63.7714H33.9957C66.3043 46.3563 66.356 24.9909 66.3043 22.8914Z" fill="#F0466A"/>
<path d="M22.3652 56.3815C25.6824 58.8793 29.5294 61.3632 33.9932 63.7717C66.3041 46.3566 66.3557 24.9913 66.3041 22.8918C66.3041 22.8401 66.3041 22.7895 66.3041 22.7378C66.3037 21.5277 66.1934 20.3201 65.9746 19.1299C55.7968 43.6714 35.5932 52.9157 22.3652 56.3815Z" fill="#DD2E53"/>
<path d="M3.49329 24.9371C3.49329 24.9371 3.26718 6.54766 22.3662 6.3291C22.3662 6.3291 9.36973 9.48481 3.49329 24.9371Z" fill="#FF6283"/>
</svg>
