<svg width="68" height="68" viewBox="0 0 68 68" fill="none" xmlns="http://www.w3.org/2000/svg">
<path d="M34 68C52.7777 68 68 52.7777 68 34C68 15.2223 52.7777 0 34 0C15.2223 0 0 15.2223 0 34C0 52.7777 15.2223 68 34 68Z" fill="#DD2E53"/>
<path d="M15.5982 15.7064C15.5398 15.9205 15.4717 16.1443 15.3939 16.3973C15.316 16.6504 15.209 16.8839 15.1117 17.1174C15.0143 17.351 14.8976 17.5553 14.7808 17.7597C14.6581 17.9696 14.5215 18.1712 14.3721 18.363C14.1285 18.6706 13.8398 18.9396 13.5158 19.1609C13.2216 19.3562 12.8903 19.4887 12.5427 19.5502C12.2222 19.6215 11.89 19.6215 11.5696 19.5502C11.2139 19.4602 10.8819 19.2942 10.5965 19.0636C10.2112 18.7629 9.90128 18.3764 9.6915 17.9348C9.4718 17.4728 9.33667 16.9752 9.29254 16.4655C9.252 15.9414 9.30472 15.4142 9.44823 14.9085C9.61224 14.3874 9.88412 13.9066 10.2462 13.4975C10.3708 13.3159 10.5306 13.1611 10.7161 13.0425C10.9017 12.9238 11.1092 12.8436 11.3263 12.8066C11.5403 12.7866 11.7561 12.8108 11.9604 12.8778C12.1646 12.9447 12.3529 13.053 12.5135 13.1959C12.8162 13.4354 13.0593 13.7419 13.2238 14.0911C13.4122 14.4567 13.5372 14.8515 13.5936 15.2588C13.6619 15.6581 13.6619 16.0661 13.5936 16.4655C13.5279 16.8185 13.3814 17.1516 13.1655 17.4386C13.0236 17.6357 12.8224 17.7823 12.5913 17.857C12.4947 17.8828 12.3933 17.8857 12.2953 17.8655C12.1973 17.8452 12.1054 17.8023 12.0269 17.7402C11.7189 17.4958 11.5056 17.1517 11.4236 16.7671C11.3278 16.346 11.3048 15.9115 11.3555 15.4826C11.3852 15.0595 11.4503 14.6396 11.5501 14.2273L11.6864 14.276C11.6214 14.6622 11.5824 15.0523 11.5696 15.4437C11.5601 15.8809 11.596 16.3179 11.6766 16.7477C11.7171 17.0884 11.8796 17.4029 12.134 17.6332C12.1745 17.6704 12.2221 17.6991 12.2739 17.7175C12.3257 17.7359 12.3807 17.7436 12.4356 17.7402C12.4857 17.7349 12.534 17.7192 12.5776 17.694C12.6212 17.6689 12.659 17.6349 12.6886 17.5943C12.8705 17.3251 12.9594 17.0039 12.9416 16.6795C12.9478 16.2341 12.8987 15.7896 12.7957 15.3561C12.6908 14.9106 12.5409 14.477 12.3481 14.0619C12.2213 13.7518 12.0287 13.473 11.7837 13.2445C11.6562 13.1442 11.5057 13.0773 11.3458 13.0499C11.1918 13.022 11.0331 13.0389 10.8884 13.0985C10.7401 13.1543 10.6116 13.2525 10.5186 13.3807C10.2571 13.7331 10.1358 14.1701 10.1781 14.6068C10.2094 15.1446 10.3277 15.6737 10.5284 16.1735C10.734 16.7164 10.9983 17.2353 11.3166 17.7208C11.5521 18.1202 11.8474 18.4812 12.1924 18.7912C12.3847 18.956 12.63 19.0458 12.8833 19.0442C13.1263 19.0403 13.3629 18.9659 13.5644 18.8301C13.7873 18.6888 13.982 18.5073 14.1386 18.2949C14.3359 18.0476 14.5117 17.7839 14.664 17.5067C14.81 17.2245 14.9365 16.9423 15.0533 16.6504C15.17 16.3584 15.2868 16.0178 15.4133 15.6773L15.5982 15.7064Z" fill="white"/>
<path d="M18.6538 12.1938C18.5475 12.4068 18.3985 12.5956 18.2159 12.7484C18.0466 12.8908 17.8518 12.9997 17.6418 13.0695C17.7454 13.5177 17.7454 13.9837 17.6418 14.4319C17.5062 14.8166 17.263 15.1543 16.9412 15.405C16.6768 15.6615 16.3343 15.8225 15.9681 15.8623C15.8203 15.8593 15.6752 15.8227 15.5437 15.7553C15.4121 15.6879 15.2977 15.5913 15.2091 15.4731C14.9603 15.1612 14.7901 14.7941 14.7128 14.4027C14.6205 13.9729 14.6205 13.5285 14.7128 13.0987C14.7935 12.7206 14.995 12.3791 15.2869 12.1256C15.3356 12.1256 15.3745 12.1256 15.4037 12.1256C15.4329 12.1256 15.4037 12.2521 15.4718 12.4954C15.5399 12.7387 15.5788 13.0209 15.647 13.3225C15.7301 13.6531 15.8342 13.9782 15.9584 14.2956C16.0726 14.5707 16.2231 14.8293 16.406 15.0644C16.4807 15.1561 16.5831 15.2209 16.6979 15.2493C16.7469 15.2626 16.7984 15.2633 16.8477 15.2514C16.8971 15.2395 16.9426 15.2153 16.9801 15.1812C17.311 14.899 17.3207 14.2762 16.9801 13.3128C16.5086 13.2514 16.0759 13.0195 15.7637 12.6608C15.5913 12.4746 15.4793 12.2405 15.4426 11.9894C15.4318 11.89 15.4467 11.7894 15.4859 11.6974C15.5251 11.6054 15.5872 11.525 15.6664 11.4639C15.7826 11.3608 15.9298 11.2991 16.0849 11.2888C16.2485 11.2822 16.4106 11.3228 16.5519 11.4055C16.7269 11.5063 16.8819 11.6382 17.0093 11.7948C17.2953 12.1312 17.4867 12.5375 17.564 12.9722C17.7513 12.9267 17.9249 12.8366 18.07 12.7095C18.2499 12.5541 18.3985 12.3659 18.5079 12.1548L18.6538 12.1938ZM16.3476 12.1938C15.9973 11.7753 15.7637 11.6294 15.6372 11.7267C15.5107 11.824 15.5691 11.8532 15.6372 11.9699C15.6713 12.1014 15.7382 12.2219 15.8319 12.3203C15.9817 12.4904 16.1554 12.6379 16.3476 12.7581C16.5299 12.8819 16.7301 12.9771 16.9412 13.0403C16.7713 12.7396 16.5725 12.456 16.3476 12.1938Z" fill="white"/>
<path d="M20.0364 12.5531V12.6115C20.0364 12.6115 20.085 12.5434 20.0364 12.485C20.0364 12.2612 20.0364 11.9108 19.9585 11.4438C19.9247 11.013 19.9247 10.5803 19.9585 10.1495C19.9798 9.77229 20.0619 9.40096 20.2018 9.04994C20.3709 8.75207 20.6346 8.51919 20.9511 8.38824C21.0263 8.33882 21.111 8.30552 21.1998 8.29045C21.2886 8.27538 21.3795 8.27885 21.4668 8.30066C21.5473 8.32853 21.6215 8.37213 21.685 8.42893C21.7484 8.48573 21.8 8.5546 21.8366 8.63151C21.8774 8.70901 21.91 8.79054 21.9339 8.87478L22.1383 10.7042C22.1494 10.829 22.1823 10.9509 22.2356 11.0643C22.3426 11.2589 22.508 11.2881 22.7319 11.1713C22.8216 11.118 22.9034 11.0525 22.9751 10.9767C23.0491 10.8972 23.1174 10.8127 23.1795 10.7237L23.3546 10.422L23.5103 10.1593L23.6076 10.2079C23.4766 10.5161 23.303 10.8043 23.0919 11.0643C22.8975 11.2978 22.6637 11.4954 22.401 11.6481C22.1645 11.791 21.8876 11.8525 21.6128 11.8233C21.496 11.8073 21.3847 11.7636 21.2883 11.6959C21.1918 11.6282 21.1129 11.5384 21.0581 11.434C20.9886 11.3078 20.9456 11.1687 20.9316 11.0253L20.6592 8.93317V8.84559C20.591 8.84559 20.5521 8.91371 20.5521 8.93317C20.3768 9.40756 20.2783 9.90686 20.2602 10.4123C20.2602 10.9475 20.2602 11.6092 20.2602 12.3585C20.2707 12.449 20.2707 12.5404 20.2602 12.6309C20.2381 12.6995 20.2016 12.7625 20.1531 12.8158C20.0915 12.8799 20.019 12.9326 19.9391 12.9715C19.764 13.0865 19.5522 13.1316 19.3455 13.098C19.258 13.0777 19.176 13.0384 19.1054 12.9829C19.0348 12.9274 18.9772 12.8571 18.9368 12.7769C18.8712 12.6448 18.8253 12.5039 18.8005 12.3585L18.46 10.1203L19.5693 9.14725L20.0364 12.5531Z" fill="white"/>
<path d="M31.2554 8.15484C31.0597 8.41397 30.815 8.63218 30.5353 8.79708C30.2313 8.96414 29.9029 9.08236 29.5622 9.14739C29.3428 9.17907 29.1199 9.17907 28.9005 9.14739C28.7294 9.122 28.5682 9.05146 28.4334 8.94304C28.2637 9.10479 28.0701 9.23937 27.8593 9.34201C27.6371 9.46487 27.3976 9.55345 27.1489 9.60475C26.9754 9.6386 26.797 9.6386 26.6235 9.60475C26.4669 9.57919 26.3214 9.50812 26.205 9.4004C26.0784 9.26647 25.9968 9.09638 25.9715 8.91385C25.9092 8.61868 25.9092 8.31377 25.9715 8.0186C26.0481 7.67838 26.1726 7.35076 26.3413 7.04551C26.5008 6.73412 26.7151 6.45395 26.9738 6.21837C27.1929 6.00891 27.4657 5.8641 27.762 5.79994C27.9065 5.77085 28.0554 5.77085 28.1999 5.79994C28.3585 5.81929 28.5111 5.87238 28.6475 5.95564L28.8129 4.71007L27.2268 5.0312L27.5576 4.36949L28.92 4.10675L29.027 3.35747L30.3601 2.82227L30.1947 3.85375L31.1678 3.66886L30.8759 4.3111L30.1363 4.45707L29.6206 8.27161C29.5965 8.35753 29.5965 8.44842 29.6206 8.53434C29.6297 8.58036 29.6483 8.62399 29.6751 8.66251C29.7019 8.70102 29.7363 8.73358 29.7763 8.75816C29.8836 8.79449 29.9998 8.79449 30.1071 8.75816C30.5319 8.63365 30.9065 8.37824 31.1775 8.02833L31.2554 8.15484ZM28.1609 5.95564C28.0788 5.97729 28.0028 6.0175 27.9387 6.07318C27.8746 6.12885 27.8241 6.1985 27.7912 6.27676C27.6821 6.45851 27.6002 6.6552 27.5479 6.86062C27.4895 7.05524 27.4311 7.27905 27.3825 7.51259C27.3241 7.93102 27.2852 8.22295 27.2657 8.40784C27.2501 8.56965 27.2501 8.73258 27.2657 8.89439C27.3241 9.16686 27.4798 9.28363 27.723 9.23497C27.849 9.20682 27.9681 9.15389 28.0734 9.07928C28.1804 9.0106 28.2757 8.92517 28.3556 8.82627L28.2972 8.67058V8.56354C28.2972 8.56354 28.2972 8.45649 28.2972 8.36892L28.6475 6.18918C28.5901 6.11515 28.5162 6.05551 28.4318 6.01497C28.3473 5.97443 28.2546 5.95412 28.1609 5.95564Z" fill="white"/>
<path d="M36.5199 7.41542C36.3021 7.511 36.0669 7.56069 35.829 7.56139C35.606 7.55688 35.3855 7.51409 35.177 7.43488C34.9631 7.84113 34.6564 8.19119 34.2818 8.45663C33.9253 8.67592 33.513 8.78744 33.0946 8.77776C32.7502 8.78687 32.4111 8.69192 32.1215 8.50529C32.0131 8.40786 31.9279 8.28733 31.8724 8.15259C31.8168 8.01784 31.7922 7.87234 31.8004 7.72681C31.8113 7.32654 31.9216 6.93528 32.1215 6.58829C32.3298 6.20933 32.6149 5.87793 32.9584 5.61519C33.2673 5.36488 33.6507 5.22452 34.0482 5.21622C34.1066 5.21622 34.1358 5.21622 34.1358 5.28434C34.1358 5.35246 34.0774 5.40111 33.9509 5.61519C33.8244 5.82927 33.6882 6.07255 33.5519 6.35475C33.4111 6.65104 33.2908 6.95667 33.1919 7.26946C33.0905 7.55074 33.0347 7.84638 33.0265 8.14524C33.0229 8.26307 33.057 8.37895 33.1238 8.4761C33.1539 8.51703 33.1936 8.54995 33.2394 8.572C33.2852 8.59406 33.3357 8.60456 33.3865 8.6026C33.8244 8.6026 34.2234 8.13551 34.6126 7.19161C34.2905 6.84172 34.1132 6.38268 34.1163 5.90712C34.1014 5.65675 34.1661 5.40807 34.3012 5.19676C34.3576 5.11259 34.4346 5.04426 34.5249 4.99827C34.6152 4.95228 34.7157 4.93016 34.817 4.93402C34.9708 4.9312 35.1212 4.97907 35.2451 5.07026C35.3748 5.17001 35.4729 5.30521 35.5273 5.4595C35.5939 5.65339 35.6236 5.85801 35.6149 6.06282C35.6208 6.50355 35.5065 6.93756 35.2841 7.31811C35.4563 7.40353 35.6464 7.44688 35.8387 7.44461C36.0717 7.43712 36.3019 7.39108 36.5199 7.30838V7.41542ZM33.2405 9.36161C33.3191 9.46124 33.3604 9.58513 33.3573 9.71193C33.3601 9.77427 33.3503 9.83653 33.3285 9.89503C33.3068 9.95352 33.2736 10.0071 33.2308 10.0525C33.1881 10.1027 33.134 10.1421 33.0732 10.1675C33.0123 10.1929 32.9463 10.2035 32.8805 10.1985C32.8193 10.2012 32.7583 10.1893 32.7025 10.164C32.6467 10.1386 32.5976 10.1004 32.5594 10.0525C32.4808 9.9567 32.4394 9.8358 32.4426 9.71193C32.441 9.58832 32.4823 9.46798 32.5594 9.37135C32.5996 9.32258 32.6501 9.28332 32.7074 9.2564C32.7646 9.22948 32.827 9.21557 32.8902 9.21565C32.9492 9.21825 33.0071 9.23248 33.0605 9.25753C33.1139 9.28259 33.1619 9.31796 33.2016 9.36161H33.2405ZM34.7586 5.95578C34.7586 5.41084 34.6905 5.14811 34.525 5.14811C34.3596 5.14811 34.3888 5.19676 34.3401 5.29407C34.2806 5.41825 34.2538 5.55559 34.2623 5.69304C34.2583 5.9214 34.2945 6.14868 34.3693 6.36448C34.4257 6.57475 34.5143 6.775 34.6321 6.95807C34.6996 6.62514 34.729 6.28562 34.7197 5.94605L34.7586 5.95578Z" fill="white"/>
<path d="M39.9746 8.75729C39.7465 8.86442 39.5086 8.94915 39.2642 9.01029C39.026 9.07441 38.781 9.11033 38.5344 9.11733C38.2832 9.12657 38.0318 9.10698 37.7851 9.05895C37.4025 9.00254 37.0332 8.87725 36.6952 8.68917C36.556 8.61617 36.4445 8.4996 36.3777 8.35728C36.311 8.21496 36.2926 8.0547 36.3255 7.90096C36.3841 7.57345 36.5173 7.26381 36.7147 6.99598C36.9185 6.70139 37.1721 6.44455 37.464 6.23697C37.757 6.02078 38.0867 5.85925 38.4371 5.76015C38.7511 5.65961 39.0842 5.63296 39.4102 5.6823C39.5158 5.69046 39.6181 5.72278 39.7092 5.77678C39.8003 5.83077 39.8778 5.90499 39.9357 5.99369C40.0338 6.17507 40.0648 6.38528 40.0232 6.58728C39.9824 6.80152 39.8984 7.00519 39.7762 7.18588C39.6541 7.36657 39.4964 7.52048 39.3129 7.63823C39.1515 7.74221 38.9577 7.78373 38.7679 7.755C38.7173 7.74795 38.6687 7.73048 38.6251 7.70368C38.5816 7.67688 38.5441 7.64134 38.5149 7.5993C38.4862 7.56267 38.466 7.52004 38.4559 7.47457C38.4458 7.4291 38.446 7.38194 38.4566 7.33657C38.4676 7.26835 38.4922 7.20305 38.529 7.14454C38.5658 7.08604 38.614 7.03552 38.6706 6.99598C38.824 6.89024 38.9869 6.79902 39.1572 6.72352C39.3231 6.65686 39.4827 6.57544 39.634 6.48024C39.6832 6.45268 39.7259 6.41501 39.7595 6.36973C39.793 6.32444 39.8166 6.27256 39.8286 6.21751C39.8432 6.18886 39.8507 6.15719 39.8507 6.12506C39.8507 6.09294 39.8432 6.06127 39.8286 6.03262C39.8086 6.0074 39.7835 5.9866 39.7551 5.97153C39.7266 5.95646 39.6953 5.94744 39.6632 5.94504C39.5476 5.92807 39.4298 5.93578 39.3174 5.96765C39.205 5.99952 39.1007 6.05482 39.0112 6.12993C38.7718 6.29978 38.5642 6.51061 38.3982 6.75271C38.2064 7.00644 38.0432 7.28057 37.9116 7.57011C37.7976 7.79866 37.7126 8.04057 37.6586 8.2902C37.6416 8.36367 37.6407 8.43994 37.6558 8.51382C37.6709 8.5877 37.7017 8.65746 37.7462 8.71837C37.8512 8.83789 37.9968 8.91417 38.1549 8.93245C38.3295 8.95181 38.5057 8.95181 38.6804 8.93245C38.8613 8.92152 39.0406 8.89218 39.2156 8.84487C39.4102 8.84487 39.6632 8.7281 39.9746 8.63079V8.75729Z" fill="white"/>
<path d="M47.0887 6.53998L45.6972 8.05801L46.3297 8.32074L45.9502 8.54455L45.4636 8.3402L43.9942 9.94581C43.9113 9.9911 43.8461 10.0631 43.8094 10.1502C43.7904 10.1896 43.7805 10.2329 43.7805 10.2767C43.7805 10.3205 43.7904 10.3637 43.8094 10.4032C43.8253 10.448 43.8511 10.4887 43.8848 10.5224C43.9184 10.556 43.9591 10.5818 44.004 10.5978C44.2052 10.6767 44.4205 10.7132 44.6365 10.7048L45.4442 10.6464V10.7535C45.0966 10.8328 44.7389 10.8591 44.3835 10.8313C44.0487 10.8132 43.7195 10.7375 43.4104 10.6075C43.1613 10.5114 42.9475 10.3417 42.7973 10.121C42.742 10.0212 42.7129 9.90905 42.7129 9.79498C42.7129 9.68091 42.742 9.56872 42.7973 9.469C42.8441 9.36894 42.9065 9.27697 42.9822 9.19653L44.2764 7.79527L43.8191 7.60065L44.1791 7.36711L44.5197 7.51307L45.6874 6.24805L47.0887 6.53998Z" fill="white"/>
<path d="M49.9197 12.5928C49.686 12.5591 49.4611 12.4798 49.258 12.3593C49.0704 12.2367 48.9029 12.0857 48.7617 11.9117C48.3718 12.1459 47.9312 12.2827 47.4772 12.3106C47.0441 12.3307 46.6154 12.215 46.2511 11.9798C45.9321 11.8125 45.676 11.5461 45.5213 11.2208C45.4734 11.0814 45.4599 10.9325 45.482 10.7868C45.504 10.6411 45.5609 10.5029 45.6478 10.3839C45.8649 10.0469 46.1626 9.76935 46.5139 9.57624C46.8902 9.34799 47.3121 9.20515 47.7497 9.15781C48.1436 9.10167 48.5449 9.18056 48.8882 9.38162C48.8882 9.38162 48.9563 9.44973 48.8882 9.48866L48.5574 9.66382C48.3433 9.79032 48.1 9.92655 47.8373 10.1017C47.5609 10.2771 47.2974 10.4723 47.0491 10.6856C46.8194 10.8791 46.6194 11.1053 46.4555 11.357C46.3915 11.455 46.3608 11.571 46.3679 11.6879C46.3749 11.7384 46.3934 11.7867 46.4221 11.8289C46.4508 11.8711 46.4889 11.9061 46.5333 11.9311C46.9031 12.1549 47.5064 11.9311 48.3044 11.357C48.2183 10.8916 48.3048 10.4107 48.5476 10.0044C48.6648 9.78194 48.8485 9.60163 49.0731 9.48866C49.167 9.44825 49.2693 9.43156 49.3711 9.44004C49.4729 9.44853 49.5711 9.48193 49.657 9.53731C49.7885 9.61633 49.8909 9.73582 49.9489 9.8779C49.994 10.0336 49.994 10.199 49.9489 10.3547C49.9012 10.5509 49.8224 10.7382 49.7154 10.9094C49.4825 11.2965 49.1452 11.6101 48.7423 11.8144C48.8507 11.9731 48.9896 12.1088 49.151 12.2133C49.3556 12.3306 49.5798 12.4098 49.8127 12.4469L49.9197 12.5928ZM49.1704 10.4034C49.4526 9.94601 49.5207 9.67355 49.3845 9.58597C49.3488 9.56128 49.3063 9.54805 49.2629 9.54805C49.2194 9.54805 49.177 9.56128 49.1412 9.58597C49.027 9.6626 48.9334 9.76621 48.8688 9.88763C48.6461 10.2752 48.5318 10.7155 48.5379 11.1624C48.7722 10.9298 48.9839 10.6757 49.1704 10.4034ZM50.6982 8.66153C50.5606 9.01237 50.4849 9.38441 50.4744 9.76113L50.2019 9.5957L50.1435 9.26485L50.0268 8.98265C50.0268 8.98265 50.0268 8.83668 49.9197 8.71018L49.5499 8.78803C49.4023 8.8225 49.2529 8.84849 49.1023 8.86588L48.8493 8.71991C49.2879 8.64082 49.7053 8.47185 50.0754 8.22363L50.6982 8.66153ZM52.5276 9.187L52.1092 9.27458L51.5837 9.33296H51.1458L50.8344 9.13834C50.995 9.08154 51.1484 9.00644 51.2918 8.91453C51.4184 8.81881 51.5357 8.71129 51.6421 8.59341L52.5276 9.187Z" fill="white"/>
<path d="M54.4538 11.4838L52.6828 12.525L53.2082 12.9726L52.7801 13.0699L52.3811 12.7294L50.5127 13.8387C50.4196 13.8636 50.3353 13.9142 50.2695 13.9847C50.241 14.018 50.2195 14.0567 50.2061 14.0985C50.1928 14.1402 50.1878 14.1842 50.1916 14.2279C50.2036 14.3237 50.2524 14.411 50.3279 14.4712C50.4992 14.6015 50.6942 14.6974 50.902 14.7534C51.1616 14.8252 51.4247 14.8836 51.6902 14.9286V15.0453C51.3338 15.0173 50.9832 14.9387 50.649 14.8118C50.3387 14.6935 50.0495 14.5259 49.7927 14.3155C49.5759 14.1512 49.416 13.9232 49.3353 13.6635C49.3042 13.5544 49.3012 13.4391 49.3268 13.3285C49.3523 13.2179 49.4054 13.1155 49.4813 13.031C49.5591 12.9485 49.6474 12.8765 49.744 12.8169L51.3788 11.8438L50.9993 11.5227L51.408 11.4059L51.6999 11.659L53.1888 10.7734L54.4538 11.4838Z" fill="white"/>
<path d="M8.13477 47.7591C8.36917 47.259 8.71944 46.822 9.15652 46.4844C9.6262 46.1411 10.1902 45.9509 10.7719 45.9395C11.3522 45.9395 11.9248 46.0727 12.4456 46.3287C13.0007 46.5802 13.5182 46.9077 13.9831 47.3018C14.4275 47.6931 14.8258 48.1339 15.1703 48.6155C15.4727 49.0267 15.7151 49.4789 15.8903 49.9583C16.0217 50.3097 16.0488 50.6916 15.9682 51.0579C15.8774 51.3809 15.6736 51.6606 15.3941 51.8461C15.0679 52.091 14.673 52.2271 14.2653 52.2354C13.8496 52.2379 13.4382 52.1517 13.0586 51.9824C12.658 51.8082 12.2818 51.5825 11.9396 51.3109C11.6128 51.0532 11.31 50.7666 11.0346 50.4546L11.1903 50.6687C11.3536 50.8831 11.4636 51.1333 11.5114 51.3985C11.5497 51.6696 11.5497 51.9448 11.5114 52.2159C11.4767 52.4449 11.454 52.6755 11.4433 52.9068C11.4522 53.0768 11.5134 53.24 11.6185 53.3739C11.7159 53.5118 11.8379 53.6306 11.9785 53.7242C12.1704 53.8408 12.3764 53.9323 12.5915 53.9967L12.4067 54.1232C12.1789 54.047 11.9602 53.9459 11.7547 53.8215C11.5385 53.7014 11.3361 53.5578 11.1514 53.3934C10.975 53.2313 10.8153 53.052 10.6745 52.8582C10.482 52.5973 10.3461 52.2989 10.2756 51.9824C10.2222 51.6929 10.2222 51.3961 10.2756 51.1066C10.362 50.7721 10.4793 50.4463 10.6259 50.1335L10.2367 50.26C10.1104 50.3049 9.98 50.3375 9.84742 50.3573C9.72493 50.3768 9.60013 50.3768 9.47764 50.3573C9.3517 50.3292 9.23262 50.2762 9.12732 50.2016C8.81491 50.0112 8.53282 49.7751 8.29046 49.501C8.57589 49.4628 8.85643 49.3943 9.12732 49.2966L10.2464 48.9074C10.7037 48.7225 11.093 48.5765 11.4044 48.4695C11.7221 48.373 12.0477 48.3047 12.3775 48.2652C12.6865 48.2478 12.9964 48.2642 13.3019 48.3138C13.6331 48.3599 13.959 48.4381 14.275 48.5474C14.5753 48.6576 14.8651 48.7943 15.1411 48.9561V49.102C14.8143 49.1109 14.4888 49.1467 14.168 49.2091C13.8398 49.2619 13.5149 49.3334 13.1949 49.4231L12.105 49.754L11.1319 50.0654L10.9665 50.114C11.3419 50.4272 11.7659 50.677 12.2218 50.8536C12.6684 51.0385 13.1497 51.1248 13.6328 51.1066C14.0977 51.0988 14.5491 50.9494 14.927 50.6784C15.0781 50.5808 15.2054 50.4506 15.2997 50.2974C15.394 50.1442 15.4528 49.9718 15.4719 49.7929C15.4827 49.382 15.3444 48.9811 15.0827 48.6641C14.7372 48.1775 14.305 47.7586 13.8079 47.4283C13.3167 47.1002 12.774 46.8568 12.2023 46.7082C11.6582 46.5563 11.0894 46.5133 10.5286 46.5817C10.0142 46.6365 9.52215 46.8207 9.09813 47.1169C8.8202 47.2942 8.59502 47.5429 8.44616 47.837L8.13477 47.7591Z" fill="white"/>
<path d="M15.988 56.781C15.8831 56.8287 15.7876 56.8946 15.7058 56.9756C15.589 57.1216 15.6084 57.2676 15.7933 57.4233C15.9459 57.5388 16.117 57.6277 16.2993 57.686C16.5212 57.77 16.7538 57.8224 16.9902 57.8417V58.0169C16.6586 58.0028 16.3308 57.9405 16.0171 57.832C15.6945 57.7374 15.3959 57.5748 15.1414 57.3551C14.9884 57.2449 14.8656 57.098 14.784 56.928C14.7024 56.7581 14.6647 56.5704 14.6743 56.382C14.4445 56.3541 14.2209 56.2883 14.0126 56.1874C13.787 56.089 13.5771 55.9579 13.3898 55.7982C13.1738 55.6198 13.026 55.3723 12.9714 55.0976C12.9521 54.9729 12.9624 54.8455 13.0012 54.7255C13.0401 54.6056 13.1065 54.4964 13.1952 54.4067C13.332 54.2558 13.4892 54.1248 13.6623 54.0174C14.2263 53.6137 14.9185 53.4303 15.6084 53.5017C15.8416 53.5279 16.0704 53.5835 16.2896 53.6671C16.4969 53.7363 16.6886 53.8454 16.854 53.9882C16.9594 54.0707 17.0454 54.1754 17.1059 54.2948C17.1664 54.4141 17.2 54.5454 17.2043 54.6791L18.4207 55.3798L15.988 56.781ZM16.8832 54.2996C16.6497 54.105 16.2118 54.1634 15.5695 54.4748C15.2519 54.6256 14.9433 54.7945 14.6451 54.9808C14.4404 55.0959 14.2536 55.2401 14.0904 55.409C13.9055 55.6133 13.9055 55.7982 14.0904 55.9344C14.2927 56.0761 14.5265 56.1663 14.7716 56.1972L14.8689 56.022C14.9803 55.9145 15.1085 55.8257 15.2484 55.7593L17.0681 54.7862C17.0763 54.6964 17.0639 54.6059 17.0318 54.5216C16.9998 54.4372 16.949 54.3613 16.8832 54.2996ZM18.8294 53.7158C18.631 54.0412 18.4957 54.401 18.4304 54.7764L18.1872 54.5624C18.1872 54.4748 18.1385 54.3872 18.119 54.2802C18.0996 54.1731 18.0315 54.1245 18.0315 53.9785C18.0315 53.8325 17.9828 53.7742 17.9536 53.6282H17.5838H17.0584L16.8345 53.4433C17.2939 53.4351 17.747 53.3359 18.1677 53.1514L18.8294 53.7158ZM20.542 54.5137C20.4029 54.5282 20.2627 54.5282 20.1236 54.5137H19.5592H19.1602L18.8683 54.2704C19.0423 54.233 19.2118 54.1775 19.3743 54.105C19.5128 54.0349 19.6433 53.9501 19.7636 53.852L20.542 54.5137Z" fill="white"/>
<path d="M22.079 55.7492L20.4831 57.0434L21.0669 57.4034L20.6582 57.5689L20.2106 57.2964L18.5272 58.6685C18.4384 58.7016 18.3631 58.7632 18.3131 58.8436C18.2796 58.9246 18.2796 59.0156 18.3131 59.0966C18.3251 59.1415 18.3459 59.1835 18.3743 59.2203C18.4027 59.257 18.4381 59.2878 18.4785 59.3107C18.6672 59.4173 18.8759 59.4835 19.0915 59.5053C19.3588 59.5459 19.6289 59.5654 19.8992 59.5637V59.6805C19.5405 59.7086 19.1797 59.6824 18.8288 59.6026C18.5034 59.533 18.1912 59.4114 17.9044 59.2426C17.6706 59.1085 17.4812 58.9089 17.3594 58.6685C17.3049 58.5685 17.2764 58.4564 17.2764 58.3425C17.2764 58.2286 17.3049 58.1165 17.3594 58.0165C17.4196 57.9232 17.4953 57.8409 17.5832 57.7732L19.0624 56.5763L18.6439 56.3136L19.0332 56.1384L19.3543 56.333L20.6972 55.2432L22.079 55.7492Z" fill="white"/>
<path d="M28.3656 62.8123C28.061 62.9597 27.7304 63.0456 27.3925 63.0653C27.0634 63.0784 26.7344 63.0356 26.4194 62.9388C26.2006 62.89 25.9927 62.8009 25.8064 62.6761C25.6638 62.5846 25.5519 62.4524 25.4853 62.2966C25.2567 62.3582 25.0213 62.3909 24.7846 62.3939C24.5323 62.3953 24.2806 62.3658 24.0354 62.3063C23.8647 62.2597 23.7034 62.184 23.5585 62.0825C23.4279 61.9879 23.3294 61.8554 23.2763 61.703C23.223 61.5286 23.223 61.3422 23.2763 61.1678C23.3652 60.8791 23.5107 60.6112 23.7045 60.3796C23.9301 60.1025 24.1919 59.857 24.483 59.6497C24.7816 59.4476 25.1099 59.2933 25.4561 59.1924C25.7488 59.1101 26.0586 59.1101 26.3513 59.1924C26.4942 59.2299 26.6293 59.2925 26.7503 59.3773C26.8794 59.4709 26.9913 59.5861 27.0812 59.7179L27.7623 58.6669L26.2054 58.2388L26.799 57.8009L28.1321 58.1706L28.57 57.5479L29.9907 57.6744L29.3874 58.5209L30.3605 58.774L29.8156 59.2216L29.0273 58.988L26.8573 62.1993C26.7906 62.2586 26.7432 62.3365 26.7211 62.4231C26.6997 62.4653 26.6886 62.512 26.6886 62.5593C26.6886 62.6066 26.6997 62.6533 26.7211 62.6955C26.7908 62.7817 26.8863 62.8431 26.9936 62.8707C27.4316 62.9556 27.8852 62.8976 28.2878 62.7053L28.3656 62.8123ZM26.5849 59.4551C26.501 59.4387 26.4145 59.4416 26.3319 59.4635C26.2493 59.4854 26.1728 59.5258 26.1081 59.5816C25.9301 59.6939 25.7694 59.8316 25.6312 59.9903C25.4758 60.1539 25.3296 60.3261 25.1933 60.5061C24.9501 60.8466 24.7846 61.0899 24.6873 61.2554C24.6019 61.3913 24.5364 61.5387 24.4927 61.6932C24.4149 61.9657 24.4927 62.1311 24.7457 62.1993C24.8677 62.2244 24.9935 62.2244 25.1155 62.1993C25.2429 62.1855 25.3676 62.1526 25.4853 62.1019V61.9365C25.4835 61.9041 25.4835 61.8716 25.4853 61.8392C25.4853 61.8392 25.5437 61.7516 25.5826 61.6738L26.8671 59.8833C26.8544 59.7956 26.8225 59.7117 26.7737 59.6377C26.725 59.5637 26.6605 59.5014 26.5849 59.4551Z" fill="white"/>
<path d="M33.1918 63.0173C33.1438 63.1232 33.1079 63.2342 33.0848 63.3481C33.0848 63.5428 33.1918 63.6401 33.4254 63.6595C33.6174 63.6568 33.8079 63.6239 33.9897 63.5622C34.2151 63.4961 34.4309 63.4013 34.632 63.28L34.7098 63.3773C34.4358 63.5602 34.1378 63.7043 33.8243 63.8055C33.5122 63.9157 33.1819 63.9652 32.8512 63.9515C32.6614 63.9571 32.4732 63.9157 32.3034 63.8307C32.1336 63.7458 31.9875 63.6201 31.8781 63.4649C31.673 63.5755 31.4536 63.6574 31.2262 63.7082C30.9868 63.7614 30.7411 63.781 30.4963 63.7666C30.2355 63.761 29.9832 63.6724 29.7762 63.5136C29.6813 63.4257 29.6095 63.3158 29.567 63.1936C29.5246 63.0715 29.5129 62.9407 29.533 62.8129C29.5511 62.6119 29.6003 62.4149 29.6789 62.2291C29.7621 62.0008 29.8698 61.7822 30 61.5771C30.1313 61.3728 30.2847 61.1835 30.4574 61.0127C30.5985 60.868 30.759 60.7436 30.9342 60.6429C31.1374 60.5283 31.3528 60.4369 31.5765 60.3705C31.7841 60.3056 32.0012 60.276 32.2187 60.2829C32.3541 60.2857 32.4873 60.3187 32.6084 60.3792C32.7296 60.4398 32.8358 60.5266 32.9193 60.6332L34.3206 60.4678L33.1918 63.0173ZM32.4231 60.5067C32.1214 60.5067 31.81 60.7889 31.45 61.4798C31.2811 61.7933 31.1347 62.1185 31.0121 62.4529C30.9186 62.6708 30.8532 62.8997 30.8175 63.1341C30.8175 63.4065 30.905 63.5525 31.1288 63.5622C31.376 63.5549 31.6172 63.4846 31.8295 63.3579V63.1632C31.8555 63.0107 31.9047 62.863 31.9754 62.7253L32.8415 60.8375C32.8012 60.7544 32.7426 60.6815 32.6701 60.6242C32.5977 60.5669 32.5132 60.5268 32.4231 60.5067ZM34.2428 59.1249L33.9119 59.3974L33.4351 59.7282L33.114 59.9618H32.7442C32.8606 59.8366 32.9588 59.6958 33.0361 59.5433C33.1108 59.4021 33.1664 59.2516 33.2015 59.0957L34.2428 59.1249Z" fill="white"/>
<path d="M36.3156 63.5729V63.6605C36.3156 63.6605 36.3837 63.6605 36.3935 63.5632L36.7048 62.5901C36.8345 62.1783 36.9906 61.7752 37.1719 61.3834C37.3288 61.027 37.5424 60.6984 37.8044 60.4104C38.0326 60.1707 38.3337 60.0133 38.6608 59.9627C38.7495 59.9437 38.8411 59.9434 38.9299 59.9618C39.0187 59.9803 39.1027 60.017 39.1765 60.0698C39.3002 60.1838 39.3766 60.34 39.3906 60.5077C39.4003 60.595 39.4003 60.6831 39.3906 60.7704L38.904 62.5512C38.882 62.6734 38.882 62.7987 38.904 62.9209C38.904 63.135 39.0695 63.2323 39.3225 63.2031C39.4269 63.1841 39.5283 63.1514 39.6241 63.1058C39.7222 63.0679 39.8141 63.0154 39.8966 62.9501C39.9958 62.8858 40.0901 62.8143 40.1788 62.7361L40.4221 62.5414L40.4999 62.629C40.264 62.8671 39.9953 63.0702 39.702 63.2323C39.434 63.3826 39.1402 63.4816 38.8359 63.5243C38.5664 63.5705 38.2892 63.526 38.0477 63.3978C37.9454 63.3391 37.858 63.2577 37.7922 63.1598C37.7263 63.0619 37.6839 62.9502 37.6682 62.8334C37.6401 62.6887 37.6401 62.5401 37.6682 62.3955L38.1839 60.3617V60.2839C38.1361 60.2715 38.0859 60.2715 38.038 60.2839C37.705 60.6612 37.4325 61.088 37.2303 61.5489C37.0162 62.0354 36.773 62.6582 36.52 63.4075C36.4908 63.4929 36.4516 63.5746 36.4032 63.6508C36.3599 63.7089 36.3031 63.7557 36.2378 63.787C36.1544 63.8235 36.0657 63.8465 35.975 63.8551C35.7688 63.8989 35.5537 63.8642 35.3717 63.7578C35.2307 63.6444 35.1399 63.4802 35.1187 63.3005C35.0906 63.1591 35.0906 63.0136 35.1187 62.8723L35.6344 60.6536L36.9968 60.206L36.3156 63.5729Z" fill="white"/>
<path d="M44.4413 62.0532C44.9613 61.6748 45.4263 61.2262 45.8231 60.7201L45.9301 60.8368C45.7939 61.012 45.6674 61.1677 45.5312 61.3137C45.3949 61.4596 45.249 61.6153 45.0933 61.771L44.451 62.3257C44.4233 62.5984 44.351 62.8646 44.2369 63.1139C44.1221 63.3578 43.9639 63.5787 43.7699 63.7659C43.573 63.9543 43.3371 64.0971 43.079 64.1843C42.9117 64.2406 42.7305 64.2406 42.5632 64.1843C42.4948 64.1723 42.4311 64.1413 42.3795 64.0949C42.3279 64.0484 42.2904 63.9883 42.2713 63.9216C42.2355 63.8158 42.2284 63.7025 42.2506 63.5931C42.2729 63.4837 42.3236 63.3822 42.3978 63.2988C42.6216 63.0406 42.8966 62.8318 43.2055 62.6857V62.1797C42.9638 62.4249 42.6668 62.6084 42.3394 62.7149C42.0761 62.8172 41.7888 62.8408 41.5123 62.783C41.3896 62.7543 41.277 62.693 41.1862 62.6057C41.0955 62.5184 41.0299 62.4082 40.9965 62.2867C40.8954 61.9728 40.8525 61.643 40.87 61.3137C40.8849 60.9803 40.9539 60.6517 41.0744 60.3406C41.1927 60.0152 41.3709 59.7148 41.5998 59.455C41.815 59.2449 42.0743 59.0853 42.3589 58.988C42.5189 58.9339 42.6862 58.9044 42.8551 58.9004C43.0183 58.8981 43.1803 58.9278 43.332 58.988L44.4705 58.3457L44.4413 62.0532ZM42.7092 58.988C42.5693 59.0363 42.4539 59.1376 42.3881 59.2701C42.2934 59.4721 42.2373 59.6899 42.2226 59.9124C42.1782 60.2967 42.1587 60.6835 42.1642 61.0704C42.1642 61.4012 42.1642 61.6348 42.1642 61.771C42.1721 61.9006 42.1983 62.0283 42.2421 62.1505C42.3199 62.3841 42.4562 62.4716 42.6508 62.4035C42.7682 62.3588 42.8744 62.2891 42.9622 62.1992C43.0499 62.109 43.1252 62.0076 43.186 61.8975V59.1534C43.1333 59.08 43.0592 59.0247 42.9738 58.9951C42.8884 58.9654 42.796 58.963 42.7092 58.988ZM42.5924 63.3863C42.5312 63.4577 42.4879 63.5425 42.4659 63.6339C42.4439 63.7252 42.4439 63.8205 42.4659 63.9118C42.4764 63.9436 42.4942 63.9725 42.5178 63.9961C42.5415 64.0198 42.5704 64.0376 42.6021 64.0481C42.636 64.0625 42.6724 64.07 42.7092 64.07C42.746 64.07 42.7824 64.0625 42.8162 64.0481C43.1081 63.9507 43.2346 63.5615 43.186 62.8803C42.9489 63.0097 42.7456 63.1931 42.5924 63.4155V63.3863Z" fill="white"/>
<path d="M50.3966 58.6281L50.4453 58.7352C50.4453 58.7352 50.4453 58.6476 50.4453 58.5308C50.4327 58.3937 50.4132 58.2573 50.3869 58.1221C50.3869 57.9762 50.3869 57.8594 50.3285 57.7718C50.2701 57.6842 50.3285 57.5869 50.2701 57.4604C50.2117 57.3339 50.1825 57.0225 50.1241 56.7111C50.068 56.4225 50.0387 56.1293 50.0366 55.8353C50.0278 55.5701 50.0708 55.3057 50.1631 55.0569C50.2537 54.8182 50.4128 54.6117 50.6204 54.4633C50.7851 54.3265 50.9903 54.2478 51.2043 54.2395C51.2932 54.2349 51.3819 54.2531 51.4619 54.2923C51.5419 54.3314 51.6106 54.3903 51.6616 54.4633C51.7343 54.5687 51.7855 54.6874 51.8122 54.8127C51.8389 54.9379 51.8407 55.0672 51.8173 55.1931C51.7782 55.5419 51.6546 55.8759 51.4573 56.1662C51.2416 56.5087 50.976 56.817 50.6691 57.0809C50.8346 56.9483 51.014 56.8341 51.2043 56.7403C51.3436 56.6717 51.4966 56.6351 51.6519 56.6333C51.8638 56.6287 52.0757 56.645 52.2844 56.6819C52.4149 56.724 52.5536 56.7344 52.6889 56.7124C52.8242 56.6905 52.9524 56.6366 53.0629 56.5554C53.2414 56.3899 53.3695 56.1774 53.4327 55.9424L53.5689 55.991C53.4251 56.5764 53.0808 57.0928 52.5958 57.4507C52.417 57.5845 52.2111 57.6775 51.9925 57.7231C51.7614 57.7709 51.523 57.7709 51.2919 57.7231C51.0039 57.6507 50.7261 57.5429 50.4647 57.402C50.4647 57.402 50.4647 57.5577 50.5523 57.7815C50.6006 57.9671 50.6364 58.1556 50.6594 58.3459C50.6842 58.4908 50.6842 58.6389 50.6594 58.7838C50.6178 58.9236 50.5326 59.0464 50.4161 59.1341C50.3306 59.2024 50.2323 59.2531 50.1271 59.2832C50.0219 59.3132 49.9117 59.3221 49.803 59.3093C49.7044 59.2946 49.6097 59.2603 49.5245 59.2085C49.4393 59.1567 49.3652 59.0884 49.3067 59.0076C49.2147 58.8801 49.1516 58.734 49.1219 58.5795L47.6914 53.9962L48.6645 52.9258L50.3966 58.6281ZM50.7567 56.4679C50.8132 56.2288 50.8394 55.9836 50.8345 55.738C50.8351 55.5558 50.7845 55.3771 50.6885 55.2223C50.601 55.1055 50.5037 55.0861 50.4063 55.1639C50.309 55.2418 50.2993 55.3293 50.2798 55.5239C50.2567 55.7699 50.2567 56.0175 50.2798 56.2635C50.3175 56.5906 50.3727 56.9154 50.4453 57.2366C50.5815 56.9947 50.6861 56.7364 50.7567 56.4679Z" fill="white"/>
<path d="M54.8826 55.0959V55.1543C54.9161 55.1199 54.9612 55.0991 55.0091 55.0959C54.9715 55.017 54.939 54.9357 54.9118 54.8526C54.8534 54.7067 54.795 54.5607 54.7367 54.4439C54.6101 54.1033 54.4934 53.7919 54.4058 53.4708C54.3029 53.1536 54.228 52.828 54.182 52.4977C54.1319 52.1753 54.1319 51.8471 54.182 51.5246C54.2096 51.2355 54.3289 50.9627 54.5226 50.7462C54.5731 50.6772 54.6372 50.6193 54.7107 50.5758C54.7843 50.5323 54.866 50.5042 54.9507 50.4932C55.0252 50.4909 55.0992 50.5045 55.168 50.533C55.2368 50.5615 55.2987 50.6043 55.3497 50.6586C55.4806 50.7757 55.5865 50.918 55.6611 51.077L56.3617 52.5464C56.4407 52.6805 56.5354 52.8046 56.6439 52.9162C56.6674 52.9483 56.6982 52.9745 56.7337 52.9925C56.7692 53.0106 56.8084 53.02 56.8483 53.02C56.8881 53.02 56.9274 53.0106 56.9629 52.9925C56.9984 52.9745 57.0291 52.9483 57.0526 52.9162C57.1287 52.8288 57.1911 52.7304 57.2375 52.6242C57.2856 52.5308 57.3247 52.4331 57.3543 52.3323C57.3543 52.235 57.4029 52.0988 57.4419 51.9333C57.4808 51.7679 57.4419 51.6609 57.4419 51.6414H57.5878C57.5424 52.2869 57.2975 52.9024 56.8872 53.4027C56.7129 53.6199 56.4745 53.7765 56.206 53.8503C56.1006 53.8811 55.9892 53.8847 55.882 53.8609C55.7748 53.8371 55.6754 53.7866 55.593 53.7141C55.5331 53.6499 55.4778 53.5816 55.4275 53.5097C55.3568 53.4064 55.2919 53.2992 55.2329 53.1886L54.3766 51.4176C54.3389 51.6725 54.3389 51.9315 54.3766 52.1863C54.5067 53.1114 54.7184 54.0232 55.0091 54.911C55.062 55.0261 55.0792 55.1543 55.0584 55.2793C55.0375 55.4042 54.9797 55.52 54.8923 55.6116C54.8042 55.7079 54.694 55.7814 54.5712 55.8257C54.4446 55.8697 54.3085 55.8794 54.1769 55.8538C54.0453 55.8281 53.9228 55.7681 53.8219 55.6798C53.73 55.5975 53.6598 55.4939 53.6176 55.3781L51.2627 50.931L52.0314 49.666L54.8826 55.0959Z" fill="white"/>
<path d="M59.7872 48.0606C59.7865 48.4652 59.7308 48.8678 59.6217 49.2575C59.5024 49.6573 59.3254 50.0376 59.0963 50.3863C58.9235 50.6832 58.6917 50.9415 58.4151 51.1453C58.2996 51.2306 58.1597 51.2767 58.0161 51.2767C57.8725 51.2767 57.7327 51.2306 57.6172 51.1453C57.3329 50.9669 57.0825 50.7396 56.8776 50.4739C56.6632 50.2033 56.4985 49.8969 56.3911 49.5689C56.283 49.2565 56.2399 48.9254 56.2646 48.5958C56.2798 48.2495 56.3873 47.9135 56.5759 47.6227C56.8776 47.1459 57.1987 47.0194 57.549 47.2334C57.7065 47.3465 57.8383 47.4918 57.9356 47.6595C58.0328 47.8272 58.0935 48.0137 58.1134 48.2065C58.2186 48.73 58.2186 49.2692 58.1134 49.7927L58.3373 49.9581C58.4077 50.0241 58.4928 50.0725 58.5855 50.0994C58.6782 50.1264 58.7759 50.131 58.8708 50.113C58.9656 50.0949 59.0549 50.0548 59.1313 49.9957C59.2076 49.9367 59.269 49.8605 59.3103 49.7732C59.5956 49.2418 59.7334 48.6437 59.7093 48.0411L59.7872 48.0606ZM57.841 49.1212C57.7828 48.903 57.7113 48.6885 57.6269 48.479C57.5517 48.2775 57.4606 48.0822 57.3544 47.8951C57.2787 47.7535 57.1723 47.6305 57.043 47.5351C56.9899 47.514 56.9307 47.514 56.8776 47.5351C56.8225 47.5453 56.7736 47.5768 56.7414 47.6227C56.6635 47.7492 56.7414 47.9438 56.8484 48.2163C56.9989 48.506 57.1782 48.7798 57.3836 49.0337C57.6074 49.3159 57.7923 49.5397 57.948 49.7051C57.9268 49.5065 57.8844 49.3108 57.8215 49.1212H57.841Z" fill="white"/>
<path d="M60.7695 46.7966H60.8278C60.8278 46.7966 60.8278 46.7187 60.7695 46.6798L60.0688 45.9111C59.774 45.6061 59.5009 45.281 59.2514 44.938C59.0405 44.6403 58.8764 44.3122 58.7649 43.9649C58.6551 43.6498 58.6551 43.3068 58.7649 42.9918C58.7942 42.9067 58.8403 42.8284 58.9005 42.7616C58.9607 42.6947 59.0337 42.6406 59.1152 42.6025C59.2723 42.5453 59.4446 42.5453 59.6017 42.6025C59.6836 42.6368 59.7619 42.6791 59.8353 42.729L61.1295 44.0427C61.2116 44.137 61.315 44.2104 61.4312 44.2568C61.6355 44.3444 61.7912 44.2568 61.8788 44.0427C61.9207 43.9436 61.9469 43.8385 61.9566 43.7313C61.9664 43.6277 61.9664 43.5235 61.9566 43.4199C61.9648 43.3033 61.9648 43.1862 61.9566 43.0696C61.9566 42.9334 61.9566 42.8361 61.9566 42.768H62.0734C62.1603 43.0849 62.2028 43.4124 62.1999 43.7411C62.1951 44.0453 62.1324 44.3458 62.015 44.6266C61.9245 44.887 61.7454 45.1074 61.509 45.2493C61.4098 45.3124 61.2966 45.3498 61.1794 45.3583C61.0622 45.3668 60.9448 45.3461 60.8376 45.298C60.7035 45.24 60.5814 45.1575 60.4775 45.0547L58.9011 43.5756V43.5075C58.9011 43.5756 58.9011 43.6243 58.9011 43.6437C59.0588 44.1221 59.292 44.5722 59.592 44.9769C59.9164 45.4115 60.3348 45.9273 60.8473 46.5241C60.9087 46.5916 60.961 46.6669 61.003 46.7479C61.0225 46.8179 61.0225 46.892 61.003 46.962C60.9917 47.0522 60.9688 47.1405 60.9349 47.2247C60.8651 47.4219 60.727 47.5876 60.5456 47.6918C60.4627 47.7277 60.3733 47.7462 60.2829 47.7462C60.1925 47.7462 60.1031 47.7277 60.0202 47.6918C59.8889 47.6328 59.7675 47.554 59.6601 47.4583L58.0059 45.9111L58.2881 44.5001L60.7695 46.7966Z" fill="white"/>
<path d="M59.3874 23.7337L57.2953 23.1401C57.2471 23.1255 57.196 23.1232 57.1468 23.1334C57.0975 23.1436 57.0515 23.166 57.0131 23.1985L55.3393 24.5803C55.2942 24.6165 55.2398 24.6394 55.1824 24.6464C55.1249 24.6534 55.0666 24.6443 55.0141 24.62C54.9615 24.5958 54.9168 24.5574 54.8849 24.5091C54.8529 24.4608 54.8351 24.4046 54.8333 24.3467L54.7458 22.1865C54.7458 22.1352 54.7323 22.0848 54.7067 22.0404C54.6811 21.996 54.6442 21.9591 54.5998 21.9335L52.7704 20.7657C52.7215 20.7347 52.6822 20.6905 52.657 20.6383C52.6318 20.5862 52.6216 20.528 52.6277 20.4703C52.6338 20.4127 52.6558 20.3579 52.6913 20.3121C52.7268 20.2663 52.7744 20.2313 52.8288 20.2111L54.8723 19.4618C54.9188 19.4432 54.9605 19.4142 54.9942 19.3772C55.0279 19.3401 55.0528 19.2958 55.0669 19.2477L55.6021 17.1458C55.6183 17.0899 55.6494 17.0394 55.6921 16.9998C55.7347 16.9602 55.7874 16.9329 55.8444 16.921C55.9013 16.909 55.9605 16.9127 56.0155 16.9317C56.0706 16.9508 56.1194 16.9844 56.1568 17.029L57.4899 18.732C57.5221 18.7731 57.5636 18.8059 57.6109 18.8279C57.6583 18.8499 57.7102 18.8604 57.7624 18.8585L59.9226 18.7222C59.9813 18.7174 60.0402 18.7293 60.0923 18.7566C60.1445 18.7839 60.1879 18.8254 60.2175 18.8764C60.247 18.9273 60.2615 18.9856 60.2593 19.0444C60.257 19.1032 60.2381 19.1602 60.2048 19.2088L58.9982 21.0382C58.9766 21.0838 58.9653 21.1337 58.9653 21.1842C58.9653 21.2347 58.9766 21.2845 58.9982 21.3301L59.7961 23.3444C59.815 23.4006 59.8175 23.461 59.8033 23.5186C59.789 23.5761 59.7587 23.6284 59.7157 23.6692C59.6728 23.7101 59.6191 23.7379 59.561 23.7493C59.5028 23.7607 59.4426 23.7553 59.3874 23.7337Z" fill="#F5B2D0"/>
<path d="M17.9243 36.6665L16.0852 36.1216C16.0398 36.1117 15.9927 36.1118 15.9474 36.1219C15.902 36.132 15.8594 36.1518 15.8224 36.18L14.3141 37.4255C14.275 37.4617 14.226 37.4856 14.1734 37.4943C14.1208 37.5029 14.0668 37.4959 14.0181 37.4742C13.9694 37.4524 13.9281 37.4169 13.8995 37.3719C13.8708 37.3269 13.8559 37.2745 13.8568 37.2212L13.7789 35.275C13.7795 35.2285 13.7682 35.1826 13.7461 35.1418C13.7239 35.1009 13.6917 35.0663 13.6524 35.0414L11.9982 33.9905C11.9521 33.9646 11.9146 33.9258 11.8902 33.8789C11.8658 33.8321 11.8555 33.7791 11.8607 33.7265C11.8658 33.6739 11.8862 33.6239 11.9192 33.5827C11.9523 33.5415 11.9966 33.5107 12.0468 33.4942L13.886 32.8131C13.9292 32.7979 13.9678 32.7722 13.9985 32.7382C14.0291 32.7041 14.0506 32.663 14.0611 32.6184L14.5574 30.6722C14.57 30.6208 14.5968 30.5739 14.6347 30.537C14.6727 30.5 14.7203 30.4745 14.772 30.4634C14.8238 30.4522 14.8777 30.4558 14.9275 30.4738C14.9773 30.4918 15.021 30.5235 15.0537 30.5652L16.2603 32.1124C16.2909 32.1466 16.3284 32.1738 16.3704 32.1923C16.4123 32.2108 16.4578 32.22 16.5036 32.2195L18.4498 32.093C18.5023 32.0896 18.5546 32.101 18.601 32.1258C18.6474 32.1506 18.6859 32.1879 18.7122 32.2334C18.7385 32.2789 18.7515 32.3309 18.7499 32.3835C18.7482 32.436 18.7319 32.4871 18.7028 32.5309L17.6032 34.1657C17.5841 34.2068 17.5741 34.2516 17.5741 34.297C17.5741 34.3424 17.5841 34.3872 17.6032 34.4284L18.333 36.2481C18.3605 36.2749 18.3824 36.3069 18.3975 36.3422C18.4126 36.3775 18.4207 36.4155 18.4211 36.4539C18.4216 36.4923 18.4144 36.5304 18.4002 36.566C18.3859 36.6017 18.3647 36.6342 18.3379 36.6617C18.3111 36.6891 18.2791 36.711 18.2438 36.7262C18.2085 36.7413 18.1705 36.7493 18.1321 36.7497C18.0937 36.7502 18.0556 36.7431 18.0199 36.7288C17.9843 36.7145 17.9518 36.6934 17.9243 36.6665Z" fill="#DD2E53"/>
<path d="M63.5238 31.1106L62.2102 30.77C62.1509 30.7457 62.0845 30.7457 62.0253 30.77L60.9743 31.6458C60.9462 31.6699 60.9117 31.6854 60.8751 31.6906C60.8384 31.6958 60.801 31.6904 60.7673 31.6751C60.7336 31.6597 60.7049 31.6351 60.6847 31.6041C60.6645 31.573 60.6536 31.5369 60.6532 31.4998V30.1375C60.6518 30.1041 60.6421 30.0715 60.6252 30.0426C60.6082 30.0138 60.5844 29.9896 60.5559 29.9721L59.4076 29.2422C59.3747 29.2263 59.347 29.2014 59.3276 29.1704C59.3081 29.1395 59.2979 29.1036 59.2979 29.0671C59.2979 29.0305 59.3081 28.9947 59.3276 28.9637C59.347 28.9327 59.3747 28.9079 59.4076 28.8919L60.6921 28.4248C60.7207 28.4125 60.746 28.3938 60.7663 28.3702C60.7865 28.3466 60.8011 28.3187 60.8089 28.2886L61.1495 26.9652C61.1596 26.9299 61.1791 26.898 61.2059 26.8728C61.2326 26.8477 61.2657 26.8302 61.3015 26.8223C61.3374 26.8143 61.3747 26.8161 61.4096 26.8276C61.4445 26.839 61.4756 26.8597 61.4998 26.8873L62.3367 27.9675C62.3583 27.992 62.3855 28.011 62.4159 28.0229C62.4464 28.0347 62.4793 28.0391 62.5118 28.0356L63.8741 27.9577C63.9103 27.9553 63.9465 27.9631 63.9785 27.9801C64.0105 27.9972 64.0371 28.0228 64.0554 28.0542C64.0736 28.0856 64.0827 28.1214 64.0816 28.1577C64.0805 28.1939 64.0693 28.2292 64.0493 28.2594L63.2903 29.3979C63.2758 29.4249 63.2682 29.4549 63.2682 29.4855C63.2682 29.5161 63.2758 29.5462 63.2903 29.5731L63.7671 30.8478C63.7827 30.8827 63.7877 30.9213 63.7815 30.959C63.7753 30.9966 63.7582 31.0316 63.7323 31.0596C63.7064 31.0876 63.6728 31.1073 63.6357 31.1164C63.5987 31.1255 63.5598 31.1234 63.5238 31.1106Z" fill="#D4EEF8"/>
<path d="M5.5271 30.4583C5.25464 30.4583 5.12813 30.2929 5.16706 30.0983C5.20605 29.9503 5.2794 29.8136 5.38114 29.6993C5.56603 29.4658 5.78011 29.2128 6.01365 28.9403L6.70455 28.1229L9.21514 25.2036L9.57518 24.7657C9.90332 24.5989 10.2829 24.5641 10.6359 24.6684C10.8597 24.7365 10.9473 24.9506 10.8986 25.3204L10.7526 26.1864C10.7526 26.1864 10.7526 26.2448 10.7526 26.2837L10.412 28.8235C10.3517 29.2815 10.3257 29.7434 10.3342 30.2053C10.3171 30.5177 10.3988 30.8275 10.5677 31.0908C10.2394 31.2455 9.86624 31.2766 9.5168 31.1784C9.22487 31.1006 9.09837 30.8086 9.11783 30.2832C9.11783 30.0983 9.11783 29.8745 9.11783 29.6117L9.18595 28.9306C9.06118 28.9814 8.92147 28.9814 8.79671 28.9306C8.34908 28.8722 7.91119 28.7943 7.4733 28.7165C7.29863 28.7728 7.14345 28.8774 7.02567 29.0181L6.79213 29.3003L6.6267 29.5339L6.56832 29.6117C6.48721 29.7325 6.41564 29.8594 6.35424 29.9912C6.29911 30.124 6.2694 30.2659 6.26666 30.4097C6.025 30.4698 5.77455 30.4863 5.5271 30.4583ZM9.09837 28.3467H9.27353C9.42922 27.4515 9.54599 26.5659 9.63357 25.7194L7.74576 28.0937L9.09837 28.3467Z" fill="#F8D62D"/>
<path d="M65.9656 35.0124C65.9656 34.3215 65.6542 33.9323 65.1093 33.835C64.7894 33.7803 64.4608 33.8537 64.1946 34.0393C63.8869 34.2505 63.6254 34.5219 63.4258 34.8373C63.1889 35.1763 62.993 35.5421 62.842 35.9271C62.6973 36.2917 62.5897 36.6698 62.5209 37.0559C62.336 38.029 62.6279 38.6323 63.4064 38.7686C63.75 38.8121 64.0989 38.7872 64.4329 38.6953C64.7669 38.6035 65.0795 38.4465 65.3526 38.2334C65.3716 38.3852 65.3716 38.5389 65.3526 38.6907C65.2942 38.9924 64.9925 39.2259 64.3795 39.3914C63.827 39.5561 63.243 39.5861 62.6766 39.4789C61.4018 39.2551 60.8958 38.3891 61.1683 36.91C61.353 35.8126 61.9306 34.82 62.7933 34.1172C63.1821 33.7748 63.6354 33.5134 64.1265 33.3484C64.6134 33.1924 65.1307 33.1557 65.6348 33.2414C65.9836 33.2868 66.3169 33.4135 66.6079 33.6112C66.7187 33.6876 66.8051 33.7943 66.8569 33.9185C66.9087 34.0428 66.9236 34.1793 66.8998 34.3118C66.8219 34.6621 66.5203 34.8859 65.9656 35.0124Z" fill="#F8D62D"/>
<path d="M6.52012 38.5537L6.35469 38.0477C6.28657 37.853 6.21846 37.6292 6.14061 37.3762L5.8876 36.6075L5.6054 35.6344C5.5081 35.323 5.40106 35.0213 5.31348 34.7197L6.20873 34.4277L6.93855 36.6172C7.07532 36.4933 7.21822 36.3764 7.36671 36.2669C7.5521 36.1423 7.7556 36.0471 7.97003 35.9847C8.26659 35.8796 8.57997 35.8301 8.89447 35.8387C9.14887 35.8551 9.3957 35.9318 9.61456 36.0625C9.83819 36.1911 10.0309 36.3671 10.179 36.5783C10.3451 36.8179 10.4761 37.0801 10.5682 37.3568C10.6532 37.6345 10.6991 37.9227 10.7044 38.2131C10.7085 38.465 10.6552 38.7146 10.5487 38.9429C10.4402 39.171 10.2804 39.3708 10.0816 39.5268C9.83043 39.7159 9.54684 39.8577 9.24479 39.9452C8.93245 40.0563 8.60319 40.1123 8.27169 40.1106C8.01035 40.1038 7.75404 40.0372 7.52241 39.916C7.30261 39.7943 7.11304 39.6247 6.96774 39.4197C6.80023 39.1829 6.66599 38.9243 6.56877 38.651L6.52012 38.5537ZM7.49321 38.5537C7.56336 38.776 7.66145 38.9886 7.78514 39.1862C7.87375 39.3289 7.99779 39.4462 8.14519 39.5268C8.27312 39.5991 8.41673 39.6392 8.56362 39.6435C8.72332 39.6428 8.88157 39.6131 9.03071 39.556C9.18442 39.5138 9.32941 39.4446 9.45887 39.3516C9.58245 39.2704 9.68034 39.1556 9.74107 39.0208C9.81048 38.8743 9.85017 38.7155 9.85784 38.5537C9.83898 38.3221 9.79326 38.0935 9.7216 37.8725L9.63403 37.5806C9.56489 37.3531 9.46328 37.1368 9.33237 36.9383C9.24092 36.7902 9.118 36.6639 8.97232 36.5685C8.84292 36.4901 8.69541 36.4465 8.54416 36.442C8.38453 36.4436 8.22643 36.4733 8.07707 36.5296C7.92108 36.5655 7.77489 36.6352 7.64891 36.734C7.53111 36.831 7.43778 36.9543 7.37644 37.094C7.32577 37.2509 7.30919 37.4168 7.32779 37.5806C7.3465 37.8153 7.39222 38.0472 7.46402 38.2715L7.49321 38.5537Z" fill="#D4EEF8"/>
<path d="M42.008 48.9565C42.2433 48.1538 42.3613 47.3213 42.3583 46.4848V45.4436C42.2837 43.2365 41.3544 41.1447 39.7667 39.6098C38.179 38.0748 36.057 37.2168 33.8486 37.2168C31.6402 37.2168 29.5182 38.0748 27.9305 39.6098C26.3428 41.1447 25.4135 43.2365 25.3389 45.4436V46.4848C25.3423 47.3222 25.4668 48.1547 25.7086 48.9565H42.008Z" fill="#2A81BA"/>
<path d="M36.8314 37.65C36.834 38.0235 36.7626 38.3938 36.6215 38.7396C36.4803 39.0854 36.2721 39.3999 36.0089 39.6649C35.7457 39.9299 35.4327 40.1403 35.0878 40.2838C34.743 40.4273 34.3732 40.5012 33.9997 40.5012C33.2487 40.5012 32.5284 40.2028 31.9974 39.6718C31.4663 39.1407 31.168 38.4205 31.168 37.6695V34.069C31.168 33.318 31.4663 32.5977 31.9974 32.0667C32.5284 31.5356 33.2487 31.2373 33.9997 31.2373C34.7507 31.2373 35.471 31.5356 36.002 32.0667C36.5331 32.5977 36.8314 33.318 36.8314 34.069V37.65Z" fill="#DEB896"/>
<path d="M34.4576 18.1191C27.354 18.5181 24.4153 25.2714 23.6562 27.4414V28.8232C23.6562 34.5352 28.2979 37.7951 34.01 37.7951C39.5567 37.7951 44.0816 34.8174 44.354 29.3389C44.1886 28.2685 42.4857 17.6909 34.4576 18.1191Z" fill="#F3C8A1"/>
<path d="M45.8231 22.9839C46.0018 22.7565 46.0979 22.4751 46.0956 22.186C46.0969 22.0126 46.0639 21.8408 45.9984 21.6802C45.933 21.5197 45.8364 21.3738 45.7143 21.2507C45.5922 21.1277 45.4469 21.0301 45.2869 20.9635C45.1269 20.8968 44.9553 20.8625 44.7819 20.8625C44.8112 20.2436 44.6271 19.6334 44.2605 19.1339C43.8938 18.6345 43.3668 18.276 42.7676 18.1184V18.0308C42.7676 17.2979 42.4764 16.595 41.9582 16.0767C41.4399 15.5584 40.737 15.2672 40.004 15.2672C39.4655 15.2675 38.9385 15.4229 38.486 15.7149C38.3377 15.0168 37.9663 14.3859 37.428 13.9174C36.8896 13.4489 36.2135 13.1682 35.5016 13.1176C34.7898 13.0671 34.0808 13.2495 33.4816 13.6372C32.8825 14.025 32.4258 14.5971 32.1803 15.2672C31.8921 14.8232 31.4724 14.4802 30.9797 14.2864C30.4871 14.0926 29.9462 14.0576 29.4327 14.1862C28.9191 14.3149 28.4586 14.6008 28.1156 15.004C27.7725 15.4071 27.564 15.9075 27.5192 16.435C27.2578 16.3528 26.9855 16.3102 26.7115 16.3085C26.0482 16.3085 25.4121 16.5719 24.9431 17.0409C24.4741 17.5099 24.2107 18.146 24.2107 18.8093C24.1954 18.9646 24.1954 19.1211 24.2107 19.2764C23.8351 19.3894 23.4908 19.5879 23.2048 19.8563C22.9188 20.1247 22.6988 20.4557 22.5621 20.8233C22.4254 21.1909 22.3757 21.5852 22.417 21.9753C22.4582 22.3653 22.5892 22.7405 22.7997 23.0715C21.2232 24.103 22.3326 26.2535 22.3326 26.2535C21.0092 28.443 22.9651 29.3771 22.9651 29.3771L24.3663 29.5231C24.7838 29.2848 25.0982 28.9004 25.2491 28.4441C25.4001 27.9877 25.3768 27.4916 25.1837 27.0514C25.1837 27.0514 27.2175 26.38 26.3028 24.6771C26.3028 24.6771 27.7041 24.7257 27.9473 23.5678C27.9473 23.5678 28.7258 24.2392 29.6405 22.7406C29.6405 22.7406 32.1122 23.7137 33.2702 22.2638C33.2702 22.2638 35.9851 23.6651 37.8243 22.2638C38.1922 22.8878 38.7625 23.3671 39.4405 23.622C40.1186 23.8769 40.8634 23.8921 41.5512 23.6651C41.5512 23.6651 41.2496 25.4361 42.7481 25.9032C42.7481 25.9032 42.2616 27.645 43.478 28.0343C43.478 28.0343 43.2347 30.3502 43.8672 30.3502H45.5604C45.5604 30.3502 46.5335 27.7423 45.901 26.3119C46.1098 25.7798 46.2104 25.2115 46.1971 24.6401C46.1837 24.0686 46.0566 23.5056 45.8231 22.9839Z" fill="#D5B090"/>
<path d="M30.2146 28.1132C30.2165 28.3369 30.1519 28.5561 30.0291 28.743C29.9062 28.9299 29.7306 29.0761 29.5245 29.163C29.3185 29.2499 29.0912 29.2737 28.8716 29.2312C28.652 29.1888 28.4499 29.082 28.2911 28.9246C28.1323 28.7671 28.0238 28.566 27.9794 28.3468C27.9351 28.1275 27.9569 27.9001 28.042 27.6932C28.1272 27.4864 28.2718 27.3095 28.4577 27.1851C28.6435 27.0606 28.8621 26.9941 29.0858 26.9941C29.3835 26.9941 29.6691 27.1117 29.8805 27.3213C30.0919 27.5309 30.212 27.8155 30.2146 28.1132Z" fill="white"/>
<path d="M29.4853 28.3468C29.4001 28.3468 29.3184 28.313 29.2582 28.2527C29.198 28.1925 29.1641 28.1108 29.1641 28.0257C29.1668 27.9538 29.1943 27.885 29.242 27.8311H29.0863C28.9439 27.8311 28.8047 27.8733 28.6862 27.9524C28.5678 28.0315 28.4755 28.144 28.421 28.2756C28.3665 28.4072 28.3523 28.5519 28.38 28.6916C28.4078 28.8313 28.4764 28.9596 28.5771 29.0603C28.6778 29.161 28.8061 29.2296 28.9458 29.2574C29.0855 29.2852 29.2303 29.2709 29.3619 29.2164C29.4934 29.1619 29.6059 29.0696 29.685 28.9512C29.7642 28.8328 29.8064 28.6936 29.8064 28.5511C29.806 28.4457 29.7792 28.342 29.7285 28.2495C29.6971 28.2819 29.6592 28.3073 29.6173 28.3241C29.5754 28.3408 29.5304 28.3486 29.4853 28.3468Z" fill="#231F20"/>
<path d="M40.072 28.1132C40.0739 28.3369 40.0094 28.5561 39.8865 28.743C39.7637 28.9299 39.588 29.0761 39.382 29.163C39.1759 29.2499 38.9486 29.2737 38.729 29.2312C38.5094 29.1888 38.3074 29.082 38.1485 28.9246C37.9897 28.7671 37.8812 28.566 37.8369 28.3468C37.7925 28.1275 37.8143 27.9001 37.8994 27.6932C37.9846 27.4864 38.1292 27.3095 38.3151 27.1851C38.5009 27.0606 38.7195 26.9941 38.9432 26.9941C39.2409 26.9941 39.5265 27.1117 39.738 27.3213C39.9494 27.5309 40.0694 27.8155 40.072 28.1132Z" fill="white"/>
<path d="M39.3417 28.3468C39.2566 28.3468 39.1749 28.313 39.1147 28.2527C39.0544 28.1925 39.0206 28.1108 39.0206 28.0257C39.0238 27.9555 39.0475 27.8879 39.0887 27.8311H38.9428C38.8003 27.8311 38.6611 27.8733 38.5427 27.9524C38.4243 28.0315 38.332 28.144 38.2775 28.2756C38.223 28.4072 38.2087 28.5519 38.2365 28.6916C38.2643 28.8313 38.3329 28.9596 38.4336 29.0603C38.5343 29.161 38.6626 29.2296 38.8023 29.2574C38.942 29.2852 39.0867 29.2709 39.2183 29.2164C39.3499 29.1619 39.4624 29.0696 39.5415 28.9512C39.6206 28.8328 39.6628 28.6936 39.6628 28.5511C39.6624 28.4457 39.6357 28.342 39.585 28.2495C39.5536 28.2819 39.5157 28.3073 39.4737 28.3241C39.4318 28.3408 39.3868 28.3486 39.3417 28.3468Z" fill="#231F20"/>
<path d="M31.2168 31.4697C31.2168 32.1743 31.4967 32.85 31.9949 33.3482C32.4931 33.8464 33.1688 34.1263 33.8734 34.1263C34.5779 34.1263 35.2536 33.8464 35.7518 33.3482C36.25 32.85 36.5299 32.1743 36.5299 31.4697H31.2168Z" fill="#F16161"/>
<path d="M33.7948 31.1484H33.2596C33.2327 31.1484 33.2109 31.1702 33.2109 31.1971V31.9853C33.2109 32.0122 33.2327 32.034 33.2596 32.034H33.7948C33.8217 32.034 33.8435 32.0122 33.8435 31.9853V31.1971C33.8435 31.1702 33.8217 31.1484 33.7948 31.1484Z" fill="white"/>
<path d="M34.4764 31.1484H33.9412C33.9144 31.1484 33.8926 31.1702 33.8926 31.1971V31.9853C33.8926 32.0122 33.9144 32.034 33.9412 32.034H34.4764C34.5033 32.034 34.5251 32.0122 34.5251 31.9853V31.1971C34.5251 31.1702 34.5033 31.1484 34.4764 31.1484Z" fill="white"/>
<path d="M32.832 33.923C33.4962 34.195 34.2406 34.195 34.9047 33.923C34.8142 33.724 34.6684 33.5554 34.4846 33.4371C34.3009 33.3188 34.0869 33.2559 33.8684 33.2559C33.6498 33.2559 33.4359 33.3188 33.2521 33.4371C33.0684 33.5554 32.9225 33.724 32.832 33.923Z" fill="#F7A1A1"/>
<path d="M26.4189 26.7312C26.4784 26.538 26.5787 26.3598 26.713 26.2087C26.8473 26.0576 27.0125 25.9371 27.1974 25.8554C27.3639 25.7858 27.5425 25.75 27.7229 25.75C27.9033 25.75 28.0819 25.7858 28.2484 25.8554" fill="#3B2416"/>
<path d="M39.4395 25.904C39.6153 25.8039 39.8109 25.7433 40.0126 25.7265C40.2142 25.7097 40.4172 25.7371 40.6072 25.8067C40.7761 25.8681 40.931 25.9626 41.063 26.0845C41.195 26.2065 41.3014 26.3536 41.3759 26.5171" fill="#3B2416"/>
<path d="M35.1778 29.0371C35.5184 29.2025 35.4989 29.6501 35.4211 29.9226C35.3436 30.1858 35.2033 30.4262 35.0124 30.6232C34.865 30.7774 34.6885 30.9007 34.493 30.9859C34.2975 31.0711 34.0871 31.1165 33.8738 31.1195C33.6587 31.1195 33.4459 31.0755 33.2484 30.9901C33.0509 30.9048 32.873 30.7799 32.7256 30.6232C32.5334 30.431 32.3928 30.1933 32.3169 29.9323C32.239 29.6501 32.2196 29.2025 32.5602 29.0371C32.9105 29.1441 33.0564 28.9203 33.1927 28.7938L33.4749 28.4532C33.6306 28.2878 33.7473 28.2002 33.8738 28.2002C34.0003 28.2002 34.1171 28.2878 34.2631 28.4629L34.5745 28.823C34.6815 28.9203 34.8372 29.1441 35.1778 29.0371Z" fill="#AA8E74"/>
<path d="M45.7357 22.3918C45.9118 22.1593 46.0074 21.8758 46.0081 21.5841C46.0056 21.2365 45.8664 20.9038 45.6206 20.658C45.3748 20.4122 45.0421 20.273 44.6945 20.2704C44.7019 19.6642 44.5068 19.0727 44.1402 18.5898C43.7736 18.1069 43.2564 17.76 42.6704 17.6041C42.6757 17.5719 42.6757 17.5391 42.6704 17.5068C42.6656 17.0112 42.528 16.526 42.2719 16.1016C42.0159 15.6772 41.6509 15.3291 41.2147 15.0937C40.7786 14.8582 40.2873 14.744 39.792 14.7628C39.2968 14.7816 38.8156 14.9328 38.3985 15.2006C38.2469 14.5039 37.8735 13.8751 37.3345 13.4084C36.7954 12.9417 36.1197 12.6622 35.4085 12.6118C34.6972 12.5614 33.9888 12.7427 33.3893 13.1288C32.7898 13.5148 32.3316 14.0846 32.0831 14.753C31.797 14.3072 31.3781 13.9624 30.8856 13.7673C30.3931 13.5723 29.8517 13.5367 29.3379 13.6657C28.8241 13.7947 28.3637 14.0817 28.0218 14.4863C27.6798 14.8909 27.4734 15.3926 27.4317 15.9207C27.1714 15.8338 26.8985 15.791 26.6241 15.7942C25.9599 15.7942 25.3228 16.0574 24.8522 16.5261C24.3817 16.9948 24.116 17.6309 24.1135 18.295C24.0981 18.4504 24.0981 18.6068 24.1135 18.7621C23.7379 18.8752 23.3936 19.0737 23.1076 19.3421C22.8216 19.6104 22.6016 19.9414 22.4649 20.309C22.3282 20.6767 22.2786 21.071 22.3198 21.461C22.361 21.8511 22.492 22.2263 22.7025 22.5572C21.1163 23.5887 22.2354 25.7392 22.2354 25.7392C20.9509 27.9287 22.8971 28.8239 22.8971 28.8239L24.2984 28.9699C24.7175 28.7332 25.034 28.3495 25.1868 27.893C25.3395 27.4365 25.3177 26.9396 25.1255 26.4982C25.1255 26.4982 27.1593 25.8171 26.2348 24.1239C26.2348 24.1239 27.6458 24.1725 27.8891 23.0146C27.8891 23.0146 28.6578 23.686 29.5823 22.1874C29.5823 22.1874 32.0442 23.1605 33.2119 21.7106C33.2119 21.7106 35.9171 23.1119 37.7563 21.7106C38.1255 22.3333 38.6959 22.8114 39.3735 23.0662C40.0511 23.321 40.7953 23.3371 41.4832 23.1119C41.4832 23.1119 41.1524 24.8537 42.651 25.3403C42.651 25.3403 42.1644 27.0821 43.3711 27.4713C43.3711 27.4713 43.1375 29.7873 43.7603 29.7873H45.4535C45.4535 29.7873 46.4752 27.1794 45.7941 25.749C46.0089 25.2138 46.1144 24.641 46.1043 24.0645C46.0943 23.4879 45.969 22.9192 45.7357 22.3918Z" fill="#3B2416"/>
<path d="M25.2907 20.4551C25.2809 20.3352 25.2809 20.2148 25.2907 20.095C25.3103 19.8391 25.3804 19.5897 25.4968 19.361C25.6132 19.1323 25.7737 18.9289 25.9691 18.7625C26.1645 18.5961 26.3908 18.4699 26.6351 18.3913C26.8794 18.3127 27.1368 18.2832 27.3926 18.3045C27.6034 18.3263 27.8099 18.3788 28.0056 18.4602C28.0804 17.9699 28.3396 17.5266 28.7303 17.2209C29.1209 16.9153 29.6135 16.7703 30.1075 16.8157C30.4575 16.8426 30.7938 16.9636 31.0806 17.166C30.8282 16.8695 30.4926 16.6556 30.1174 16.5518C29.7421 16.4481 29.3443 16.4593 28.9754 16.584C28.6066 16.7087 28.2836 16.9411 28.0483 17.2513C27.8129 17.5615 27.676 17.9352 27.6553 18.324C27.4535 18.2617 27.2437 18.2289 27.0325 18.2267C26.5163 18.2267 26.0213 18.4317 25.6563 18.7967C25.2914 19.1617 25.0863 19.6567 25.0863 20.1729C25.0767 20.2862 25.0767 20.4001 25.0863 20.5135L25.2907 20.4551Z" fill="#603A17"/>
<path d="M37.6295 18.5869C37.7217 18.5286 37.8195 18.4797 37.9214 18.4409C38.1314 18.3562 38.3562 18.3142 38.5826 18.3174C38.809 18.3207 39.0324 18.369 39.2399 18.4596C39.4474 18.5502 39.6348 18.6813 39.791 18.8452C39.9472 19.009 40.0692 19.2024 40.1498 19.414C40.2174 19.5883 40.2568 19.7723 40.2666 19.9589C40.6792 19.8271 41.1261 19.8538 41.5202 20.0337C41.9142 20.2136 42.227 20.5339 42.3977 20.932C42.5096 21.2163 42.5464 21.5246 42.5047 21.8273C42.6244 21.5118 42.6498 21.1683 42.5779 20.8386C42.506 20.5089 42.3398 20.2071 42.0997 19.9701C41.8595 19.733 41.5557 19.5708 41.2251 19.5032C40.8945 19.4356 40.5514 19.4654 40.2374 19.5892C40.2153 19.4022 40.1592 19.2208 40.072 19.054C39.8693 18.6475 39.5136 18.3382 39.0829 18.194C38.6522 18.0499 38.182 18.0827 37.7755 18.2852C37.6877 18.3314 37.6032 18.3834 37.5225 18.4409C37.5646 18.4845 37.6006 18.5336 37.6295 18.5869Z" fill="#603A17"/>
<path d="M25.2716 30.0099C25.2716 30.3856 25.1601 30.7528 24.9512 31.0651C24.7422 31.3773 24.4453 31.6205 24.098 31.7639C23.7507 31.9072 23.3687 31.9442 23.0003 31.8702C22.632 31.7962 22.2939 31.6145 22.0289 31.3482C21.7639 31.0818 21.584 30.7428 21.5118 30.3741C21.4397 30.0053 21.4787 29.6235 21.6238 29.2769C21.7689 28.9304 22.0137 28.6347 22.327 28.4274C22.6403 28.2201 23.0081 28.1104 23.3838 28.1123C23.8815 28.1271 24.3546 28.3321 24.7057 28.685C25.0569 29.038 25.2594 29.5121 25.2716 30.0099Z" fill="#F3C8A1"/>
<path d="M46.5236 30.0098C46.5333 30.3967 46.4274 30.7776 46.2195 31.104C46.0117 31.4304 45.7112 31.6874 45.3565 31.8422C45.0019 31.997 44.6091 32.0425 44.2284 31.973C43.8478 31.9035 43.4965 31.7221 43.2194 31.452C42.9423 31.1818 42.7521 30.8352 42.673 30.4564C42.5938 30.0776 42.6294 29.6839 42.7752 29.3254C42.921 28.9669 43.1703 28.6601 43.4913 28.444C43.8123 28.2279 44.1905 28.1124 44.5774 28.1123C45.0853 28.1121 45.5731 28.3105 45.9367 28.665C46.3003 29.0195 46.5109 29.5022 46.5236 30.0098Z" fill="#F3C8A1"/>
<path d="M24.2207 40.4917L25.5247 39.2656L33.9614 42.4574L42.5344 39.2656L43.8481 40.1609L33.9614 43.81L24.2207 40.4917Z" fill="#E6E7E7"/>
<path d="M23.5879 39.9844L33.9611 43.3999L44.344 39.9844L42.9817 51.5642L33.9611 53.9191L24.9502 51.5642L23.5879 39.9844Z" fill="#BE202E"/>
<path d="M25.2709 49.3749C26.2652 49.3749 27.0712 48.5689 27.0712 47.5746C27.0712 46.5804 26.2652 45.7744 25.2709 45.7744C24.2767 45.7744 23.4707 46.5804 23.4707 47.5746C23.4707 48.5689 24.2767 49.3749 25.2709 49.3749Z" fill="#F3C8A1"/>
<path d="M42.8256 49.3749C43.8199 49.3749 44.6258 48.5689 44.6258 47.5746C44.6258 46.5804 43.8199 45.7744 42.8256 45.7744C41.8314 45.7744 41.0254 46.5804 41.0254 47.5746C41.0254 48.5689 41.8314 49.3749 42.8256 49.3749Z" fill="#F3C8A1"/>
<path d="M24.3079 29.2215C23.9807 28.8746 23.5374 28.6599 23.0624 28.6182C22.8279 28.6167 22.5955 28.6614 22.3784 28.7499C22.1613 28.8384 21.9639 28.9689 21.7973 29.1339C21.6856 29.2485 21.623 29.4021 21.623 29.5621C21.623 29.7221 21.6856 29.8758 21.7973 29.9903C21.8552 30.0469 21.9236 30.0916 21.9988 30.1216C22.0739 30.1517 22.1543 30.1666 22.2352 30.1654C22.3946 30.1613 22.5469 30.099 22.6634 29.9903L22.751 29.9124L22.6342 30.0097C22.7138 29.9291 22.8019 29.8573 22.8969 29.7956L22.751 29.8638C22.8345 29.8275 22.9231 29.8046 23.0137 29.7956H22.8483H23.0818H22.9261C23.0127 29.8092 23.0975 29.832 23.1791 29.8638L23.0721 29.7956C23.1873 29.8418 23.2954 29.904 23.3932 29.9805L23.2667 29.8832L23.4419 30.0389C23.558 30.1513 23.7133 30.2141 23.8749 30.2141C24.0365 30.2141 24.1918 30.1513 24.3079 30.0389C24.4153 29.9222 24.4749 29.7694 24.4749 29.6108C24.4749 29.4522 24.4153 29.2993 24.3079 29.1826V29.2215Z" fill="#B6987C"/>
<path d="M44.4115 30.0777L44.5867 29.9221L44.4699 30.0194C44.5656 29.945 44.6703 29.8829 44.7813 29.8345L44.6354 29.8929C44.7203 29.8611 44.8084 29.8382 44.8981 29.8247H44.7327H44.9662H44.8105C44.8982 29.8324 44.9838 29.8555 45.0635 29.8929L44.9176 29.7955C45.0278 29.8455 45.1323 29.9075 45.2289 29.9804L45.1024 29.8831L45.19 29.961C45.309 30.072 45.4652 30.1344 45.6279 30.1361C45.7073 30.1365 45.786 30.1213 45.8595 30.0912C45.9329 30.0612 45.9997 30.0169 46.0561 29.961C46.1129 29.9053 46.1577 29.8386 46.1879 29.765C46.218 29.6914 46.2327 29.6123 46.2312 29.5328C46.229 29.3731 46.1664 29.2201 46.0561 29.1046C45.8895 28.9396 45.6921 28.8092 45.475 28.7206C45.2579 28.6321 45.0255 28.5874 44.7911 28.5889C44.3194 28.6329 43.88 28.8474 43.5552 29.1922C43.4987 29.2483 43.4539 29.315 43.4233 29.3885C43.3927 29.462 43.377 29.5408 43.377 29.6204C43.377 29.7 43.3927 29.7788 43.4233 29.8523C43.4539 29.9258 43.4987 29.9925 43.5552 30.0486C43.6697 30.1603 43.8234 30.2228 43.9834 30.2228C44.1434 30.2228 44.297 30.1603 44.4115 30.0486V30.0777Z" fill="#B6987C"/>
<path d="M34.3503 34.2246C34.287 34.2944 34.2187 34.3594 34.146 34.4193L34.2627 34.3317C34.1768 34.3996 34.0818 34.4552 33.9805 34.4971L34.1265 34.4387C34.0449 34.4705 33.96 34.4933 33.8735 34.5068H34.0292H33.7762H33.9416C33.851 34.4979 33.7624 34.4749 33.6789 34.4387L33.8249 34.5068C33.7089 34.4539 33.6008 34.3851 33.5037 34.3025L33.6205 34.3998H33.5718C33.4564 34.2894 33.3034 34.2269 33.1437 34.2246C32.9843 34.2287 32.832 34.291 32.7155 34.3998C32.6589 34.4576 32.6142 34.5261 32.5841 34.6012C32.5541 34.6764 32.5392 34.7567 32.5404 34.8377C32.5377 34.9174 32.5519 34.9967 32.5821 35.0705C32.6123 35.1443 32.6577 35.2109 32.7155 35.2659C33.0613 35.5872 33.5183 35.7617 33.9903 35.7524C34.2313 35.7279 34.4656 35.6586 34.6812 35.548C34.8779 35.4338 35.058 35.293 35.2164 35.1296C35.2776 35.0738 35.327 35.0061 35.3613 34.9307C35.3957 34.8552 35.4144 34.7736 35.4163 34.6907C35.4182 34.6078 35.4033 34.5254 35.3725 34.4485C35.3416 34.3715 35.2955 34.3017 35.2369 34.243C35.1783 34.1844 35.1084 34.1383 35.0314 34.1075C34.9545 34.0766 34.8721 34.0617 34.7892 34.0636C34.7064 34.0656 34.6247 34.0843 34.5493 34.1186C34.4738 34.153 34.4062 34.2023 34.3503 34.2636V34.2246Z" fill="#CFAD8B"/>
</svg>
