<svg width="68" height="68" viewBox="0 0 68 68" fill="none" xmlns="http://www.w3.org/2000/svg">
<path d="M34 68C52.7777 68 68 52.7777 68 34C68 15.2223 52.7777 0 34 0C15.2223 0 0 15.2223 0 34C0 52.7777 15.2223 68 34 68Z" fill="#D1335D"/>
<path d="M13.906 18.3236C13.906 18.5474 13.8281 18.781 13.7795 19.034C13.7308 19.287 13.6529 19.54 13.5848 19.7833C13.5167 20.0266 13.4194 20.2504 13.3318 20.4645C13.2298 20.6844 13.1161 20.8988 12.9913 21.1067C12.7855 21.4393 12.5295 21.738 12.2322 21.9922C11.967 22.2191 11.6594 22.3911 11.3273 22.4982C11.0119 22.5925 10.6796 22.6158 10.3542 22.5664C10.0085 22.5087 9.67776 22.383 9.38107 22.1966C8.98476 21.9326 8.65232 21.5835 8.40797 21.1748C8.12778 20.7432 7.93593 20.2603 7.84356 19.7541C7.74616 19.2397 7.74616 18.7115 7.84356 18.1971C7.9245 17.6863 8.10647 17.1967 8.37878 16.757C8.47909 16.5633 8.61669 16.3914 8.7837 16.2511C8.9507 16.1108 9.1438 16.0049 9.35188 15.9396C9.56263 15.8946 9.78043 15.8938 9.99148 15.9374C10.2025 15.9809 10.4022 16.0678 10.578 16.1925C10.9075 16.3971 11.1868 16.6732 11.3954 17.0002C11.6193 17.341 11.7869 17.7155 11.8916 18.1096C11.9943 18.503 12.0305 18.9108 11.9987 19.3162C11.9812 19.6818 11.8706 20.0368 11.6776 20.3477C11.563 20.5592 11.3816 20.7268 11.1618 20.8245C11.0693 20.8632 10.9688 20.879 10.8688 20.8706C10.7688 20.8621 10.6724 20.8296 10.5877 20.7759C10.2536 20.5651 10.0027 20.2454 9.87733 19.8709C9.73148 19.4619 9.65901 19.0303 9.66325 18.5961C9.66537 18.1617 9.70772 17.7285 9.78976 17.3019H9.926C9.89773 17.6906 9.89773 18.0809 9.926 18.4696C9.96176 18.9067 10.05 19.338 10.1887 19.7541C10.2653 20.0862 10.4587 20.3798 10.7337 20.5812C10.8244 20.6441 10.9363 20.6686 11.0451 20.6493C11.0941 20.6417 11.1408 20.6228 11.1813 20.5941C11.2218 20.5654 11.2551 20.5277 11.2786 20.4839C11.4417 20.1874 11.4968 19.8434 11.4343 19.5108C11.3879 19.0654 11.2866 18.6274 11.1326 18.2069C10.9822 17.7769 10.783 17.3655 10.5391 16.9808C10.3775 16.6845 10.1513 16.4284 9.87733 16.2315C9.74232 16.1469 9.58862 16.0968 9.42971 16.0855C9.27318 16.0759 9.11733 16.1131 8.9821 16.1925C8.8425 16.2636 8.72478 16.3713 8.64151 16.5039C8.42891 16.8893 8.35994 17.3375 8.44688 17.769C8.54011 18.3103 8.72089 18.8329 8.9821 19.3162C9.25106 19.8345 9.57748 20.3208 9.95519 20.7661C10.2413 21.1432 10.5863 21.4718 10.9769 21.7392C11.1845 21.8903 11.4433 21.9532 11.697 21.9144C11.9384 21.8834 12.1652 21.7818 12.349 21.6224C12.5505 21.4486 12.7244 21.2452 12.8647 21.0191C13.0254 20.7513 13.1653 20.4715 13.2832 20.1823C13.3994 19.887 13.497 19.5848 13.5751 19.2773C13.6627 18.9756 13.7405 18.635 13.8184 18.2555L13.906 18.3236Z" fill="white"/>
<path d="M16.5622 14.4996C16.483 14.7217 16.3568 14.9241 16.1925 15.0932C16.0396 15.2549 15.8582 15.3869 15.6572 15.4824C15.8052 15.9171 15.8485 16.3805 15.7837 16.835C15.6956 17.2432 15.4931 17.6178 15.1999 17.9152C14.9723 18.1954 14.6569 18.3908 14.3046 18.4698C14.159 18.4819 14.0126 18.4611 13.8761 18.4089C13.7397 18.3567 13.6167 18.2744 13.5164 18.1681C13.2367 17.8996 13.0292 17.565 12.9131 17.195C12.7643 16.7809 12.7111 16.3385 12.7574 15.9008C12.7849 15.5027 12.9461 15.1255 13.2148 14.8304C13.2148 14.8304 13.2926 14.7818 13.3315 14.8304C13.3705 14.8791 13.3315 14.9569 13.4386 15.1905C13.5456 15.424 13.5943 15.6965 13.711 15.9982C13.8248 16.3032 13.9615 16.5992 14.1198 16.8837C14.257 17.1492 14.4342 17.392 14.6452 17.6038C14.7273 17.6909 14.8377 17.746 14.9566 17.7595C15.0057 17.7637 15.0552 17.7562 15.1009 17.7376C15.1465 17.719 15.1872 17.6898 15.2194 17.6524C15.521 17.341 15.4626 16.728 15.0345 15.8035C14.5597 15.7898 14.1063 15.6029 13.7597 15.278C13.5694 15.1151 13.4335 14.8978 13.3705 14.6553C13.3502 14.5564 13.3547 14.4539 13.3836 14.3572C13.4125 14.2604 13.4648 14.1723 13.5359 14.1006C13.6423 13.9862 13.7818 13.908 13.9349 13.8768C14.097 13.8592 14.2609 13.8826 14.4117 13.9449C14.5962 14.0277 14.7643 14.1431 14.908 14.2855C15.2272 14.5901 15.4619 14.9723 15.5891 15.3948C15.7691 15.3274 15.9319 15.2211 16.0659 15.0834C16.2188 14.9075 16.3405 14.7067 16.426 14.4898L16.5622 14.4996ZM14.2755 14.7429C13.8862 14.3731 13.6332 14.2466 13.5164 14.3633C13.4678 14.412 13.4678 14.4996 13.5164 14.6066C13.5702 14.732 13.6498 14.8448 13.75 14.9375C13.915 15.0882 14.102 15.2129 14.3046 15.3072C14.5011 15.4099 14.7106 15.4852 14.9274 15.5311C14.7397 15.2452 14.521 14.9809 14.2755 14.7429Z" fill="white"/>
<path d="M17.9726 14.7131V14.7715C17.9726 14.7715 18.0212 14.7033 17.9726 14.645C17.9726 14.4211 17.8655 14.0806 17.7877 13.6232C17.7092 13.1957 17.6604 12.7632 17.6417 12.329C17.6252 11.951 17.6713 11.5729 17.778 11.2099C17.8614 10.8913 18.0543 10.6123 18.3229 10.4217C18.3923 10.3636 18.4735 10.3213 18.5609 10.2978C18.6483 10.2743 18.7397 10.27 18.8289 10.2855C18.9907 10.3246 19.1306 10.426 19.2181 10.5677C19.2715 10.639 19.3141 10.7177 19.3447 10.8012L19.7339 12.6014C19.7606 12.7247 19.8066 12.8429 19.8701 12.9518C19.8963 12.9933 19.9316 13.0283 19.9734 13.0541C20.0152 13.0798 20.0623 13.0957 20.1112 13.1004C20.16 13.1051 20.2093 13.0985 20.2553 13.0812C20.3012 13.0639 20.3426 13.0362 20.3761 13.0004C20.46 12.9394 20.5353 12.8674 20.6 12.7863C20.6673 12.7016 20.7259 12.6103 20.7751 12.5139C20.8294 12.4128 20.8781 12.3088 20.9211 12.2025L21.0476 11.9203H21.1546C21.0536 12.243 20.9096 12.5507 20.7265 12.835C20.554 13.0865 20.3401 13.307 20.0939 13.487C19.8756 13.6525 19.6089 13.7414 19.3349 13.74C19.2182 13.7344 19.1043 13.7027 19.0015 13.6471C18.8988 13.5915 18.8098 13.5135 18.7413 13.4188C18.6592 13.2952 18.6029 13.1562 18.5759 13.0102L18.0894 10.9666V10.8791C18.0475 10.9039 18.0111 10.937 17.9823 10.9764C17.8602 11.4659 17.8174 11.9719 17.8558 12.4749C17.8558 13.0101 17.9629 13.6718 18.0796 14.4211C18.0934 14.5147 18.0934 14.6098 18.0796 14.7033C18.0692 14.7751 18.0388 14.8425 17.9921 14.898C17.9388 14.9681 17.8727 15.0275 17.7974 15.0731C17.7195 15.1415 17.6283 15.1932 17.5295 15.225C17.4308 15.2568 17.3266 15.2681 17.2233 15.258C17.1341 15.246 17.0486 15.2145 16.9729 15.1657C16.8972 15.117 16.8332 15.0521 16.7854 14.9758C16.7005 14.8597 16.6409 14.7271 16.6103 14.5866L16.0361 12.3874L17.0092 11.3559L17.9726 14.7131Z" fill="white"/>
<path d="M27.208 9.64257C27.0612 9.84627 26.895 10.0353 26.7118 10.207C26.5311 10.3721 26.3319 10.5158 26.1182 10.6351C25.9035 10.7642 25.6751 10.8687 25.437 10.9465C25.0724 11.079 24.6862 11.1417 24.2985 11.1314C24.1419 11.1375 23.9878 11.091 23.8608 10.9993C23.7338 10.9076 23.6412 10.7759 23.5978 10.6254C23.4911 10.3127 23.4611 9.97898 23.5103 9.65228C23.5491 9.29453 23.6478 8.94584 23.8022 8.6208C23.961 8.29706 24.1713 8.00128 24.425 7.74502C24.6545 7.50597 24.9382 7.32572 25.2521 7.21954C25.347 7.17087 25.452 7.14551 25.5586 7.14551C25.6652 7.14551 25.7703 7.17087 25.8652 7.21954C26.0373 7.32705 26.1651 7.49282 26.2252 7.68664C26.2882 7.89451 26.3113 8.11242 26.2933 8.32889C26.2729 8.54784 26.2066 8.76002 26.0987 8.95165C26.0039 9.12141 25.8523 9.25233 25.6705 9.32143C25.6243 9.3407 25.5747 9.35063 25.5246 9.35063C25.4745 9.35063 25.4249 9.3407 25.3786 9.32143C25.296 9.27852 25.2332 9.20529 25.2034 9.11709C25.1769 9.05392 25.1633 8.98609 25.1633 8.91759C25.1633 8.84909 25.1769 8.78129 25.2034 8.71812C25.2867 8.54889 25.3878 8.38905 25.5051 8.24131C25.6217 8.1071 25.7229 7.9602 25.8068 7.80341C25.8375 7.75654 25.8578 7.70357 25.8662 7.64815C25.8746 7.59273 25.8709 7.53617 25.8554 7.4823C25.8325 7.41983 25.7875 7.36788 25.7289 7.33631C25.6655 7.3168 25.5977 7.3168 25.5343 7.33631C25.4258 7.37973 25.3269 7.44423 25.2434 7.52607C25.1598 7.60791 25.0934 7.70548 25.0478 7.81315C24.9221 8.07718 24.84 8.35976 24.8045 8.64999C24.7691 8.9734 24.7691 9.29969 24.8045 9.62309C24.8142 9.87654 24.8534 10.128 24.9213 10.3724C24.9414 10.4448 24.977 10.5119 25.0258 10.569C25.0745 10.6262 25.1351 10.672 25.2034 10.7032C25.3502 10.7622 25.5141 10.7622 25.6608 10.7032C25.8291 10.6506 25.9896 10.5753 26.1376 10.4794C26.2949 10.385 26.4417 10.2741 26.5755 10.1486C26.7215 10.0221 26.9064 9.83717 27.1399 9.5939L27.208 9.64257Z" fill="white"/>
<path d="M28.2398 9.76019V9.83803V9.8867V9.83803C28.2753 9.756 28.3045 9.67145 28.3274 9.58504L28.4539 9.15688C28.5707 8.8163 28.6777 8.5049 28.7944 8.18378C28.9202 7.87733 29.0699 7.58124 29.2421 7.29826C29.4098 7.00635 29.6196 6.74076 29.8649 6.51005C30.0729 6.30867 30.3379 6.17615 30.6239 6.13053C30.7075 6.10834 30.7948 6.1038 30.8802 6.1172C30.9657 6.1306 31.0474 6.16167 31.1202 6.2084C31.2327 6.30542 31.3054 6.44054 31.3245 6.58789C31.3527 6.76191 31.3527 6.93934 31.3245 7.11337L30.9255 8.68978C30.9135 8.84524 30.9135 9.00142 30.9255 9.15688C30.9281 9.19655 30.9397 9.23511 30.9594 9.26967C30.9791 9.30422 31.0063 9.33384 31.0391 9.35632C31.0719 9.37881 31.1094 9.39357 31.1487 9.39947C31.188 9.40537 31.2282 9.40228 31.2661 9.39041C31.3819 9.37489 31.494 9.33861 31.597 9.28336C31.6932 9.24161 31.7846 9.18942 31.8694 9.12769L32.1906 8.87467L32.4144 8.68978L32.5117 8.79681C32.0692 9.2668 31.4907 9.58663 30.8574 9.71152C30.5814 9.76288 30.2963 9.72896 30.04 9.61424C29.9399 9.57309 29.8523 9.50658 29.7858 9.42127C29.7192 9.33595 29.6761 9.23477 29.6605 9.12769C29.6508 9.04038 29.6508 8.95224 29.6605 8.86493C29.6605 8.76762 29.6605 8.64114 29.6605 8.48544L30.1276 6.53925C30.1276 6.53925 30.1276 6.53923 30.1276 6.49057H30.0789C29.8975 6.67038 29.7405 6.87321 29.6118 7.09389C29.1243 7.94027 28.7077 8.82557 28.3663 9.74071C28.3358 9.865 28.2683 9.97714 28.1727 10.0623C28.0772 10.1474 27.9581 10.2015 27.8311 10.2176C27.7062 10.2463 27.5764 10.2463 27.4516 10.2176C27.3283 10.1694 27.2183 10.0927 27.1305 9.99373C27.0406 9.88914 26.9831 9.76065 26.965 9.62395C26.9322 9.50617 26.9322 9.38168 26.965 9.26391L27.9381 4.3303L29.3297 3.84375L28.2398 9.76019Z" fill="white"/>
<path d="M35.9946 8.70906C35.9442 8.81323 35.9113 8.92502 35.8973 9.03991C35.8973 9.23453 35.9946 9.33186 36.2281 9.3416C36.4207 9.34456 36.6121 9.31156 36.7925 9.24428C37.0198 9.17909 37.2362 9.0807 37.4348 8.95233L37.5126 9.04965C37.2461 9.2416 36.9503 9.38946 36.6368 9.48755C36.3263 9.6045 35.9953 9.65747 35.6637 9.64325C35.4744 9.65269 35.2858 9.61387 35.1156 9.53047C34.9454 9.44706 34.7992 9.3218 34.6906 9.16642C34.4867 9.27961 34.2669 9.36161 34.0387 9.40969C33.8004 9.47004 33.5542 9.49302 33.3088 9.47781C33.0457 9.47781 32.7896 9.39245 32.579 9.23454C32.4861 9.14521 32.4156 9.03516 32.3733 8.9134C32.3311 8.79164 32.3182 8.6616 32.3357 8.53391C32.3549 8.33408 32.4007 8.13771 32.472 7.95004C32.6416 7.49304 32.9033 7.07575 33.2407 6.72396C33.3818 6.57929 33.5423 6.45484 33.7175 6.35418C33.9186 6.23293 34.1345 6.13808 34.3598 6.07197C34.5672 6.00597 34.7845 5.97635 35.002 5.9844C35.136 5.98985 35.2673 6.0229 35.3879 6.08151C35.5085 6.14012 35.6156 6.22302 35.7027 6.32499L37.0942 6.14981L35.9946 8.70906ZM35.2064 6.19848C34.9047 6.19848 34.5933 6.49041 34.2333 7.17158C34.0767 7.4883 33.937 7.81313 33.8148 8.14468C33.7214 8.36259 33.656 8.59145 33.6202 8.82583C33.6202 9.09829 33.7078 9.24426 33.9316 9.25399C34.1782 9.24309 34.4185 9.17301 34.6322 9.04965V8.85505C34.6564 8.69892 34.7057 8.54773 34.7782 8.4074L35.6248 6.50988C35.5823 6.4304 35.5227 6.36129 35.4504 6.30747C35.378 6.25364 35.2947 6.21643 35.2064 6.19848ZM37.1526 4.75829C37.0288 5.02889 36.842 5.26585 36.6076 5.44921C36.3669 5.62743 36.069 5.71057 35.7708 5.68274C35.6806 5.68633 35.5906 5.67084 35.5067 5.63731C35.4229 5.60377 35.3471 5.55293 35.2842 5.48811C35.2316 5.42515 35.1924 5.35213 35.169 5.27349C35.1456 5.19486 35.1384 5.11225 35.148 5.03075C35.1538 4.89054 35.1834 4.75234 35.2356 4.62207H35.4302C35.4302 4.93346 35.5664 5.09889 35.8973 5.10862C36.026 5.13177 36.1578 5.13177 36.2865 5.10862C36.4262 5.08052 36.5607 5.03131 36.6855 4.96266C36.7862 4.91696 36.8783 4.85443 36.958 4.77777H37.1526V4.75829Z" fill="white"/>
<path d="M38.2134 9.44835C38.2097 9.47742 38.2097 9.50684 38.2134 9.53592C38.2113 9.55533 38.2113 9.5749 38.2134 9.59431H38.2815L38.8946 8.91316C39.2155 8.55037 39.5566 8.20599 39.9163 7.88168C40.207 7.62821 40.5353 7.42139 40.8894 7.26862C41.193 7.12186 41.5414 7.09747 41.8625 7.2005C41.9538 7.22058 42.0399 7.2595 42.1154 7.3148C42.1908 7.3701 42.2538 7.44054 42.3004 7.5216C42.3592 7.6818 42.3592 7.85769 42.3004 8.01789C42.2639 8.12268 42.2114 8.22116 42.1447 8.30981L40.5975 10.2074C40.5703 10.2222 40.5496 10.2464 40.5391 10.2755C40.5391 10.2755 40.5391 10.3339 40.5391 10.3436C40.5391 10.3533 40.6072 10.3436 40.6559 10.2852L41.376 9.48728C41.6441 9.18193 41.93 8.89273 42.2323 8.62121C42.5258 8.369 42.8534 8.15937 43.2054 7.99844C43.5092 7.85408 43.8555 7.82636 44.1785 7.92058C44.294 7.95499 44.4004 8.01483 44.4899 8.09573C44.5696 8.16912 44.627 8.26361 44.6553 8.36822C44.6895 8.47254 44.6895 8.58502 44.6553 8.68933C44.6289 8.77473 44.5859 8.85407 44.5288 8.92287L43.254 10.5285C43.2142 10.5915 43.1846 10.6605 43.1665 10.7328C43.1457 10.771 43.1344 10.8136 43.1334 10.857C43.1324 10.9004 43.1419 10.9435 43.1609 10.9825C43.18 11.0215 43.2081 11.0554 43.2429 11.0814C43.2777 11.1074 43.3182 11.1247 43.3611 11.1318C43.5755 11.1817 43.7986 11.1817 44.0131 11.1318C44.2395 11.1008 44.4638 11.0552 44.6845 10.9956V11.1221C44.4595 11.1998 44.2284 11.2584 43.9936 11.2972C43.7799 11.3162 43.565 11.3162 43.3514 11.2972C43.1496 11.2878 42.95 11.2518 42.7578 11.1902C42.4924 11.1212 42.2588 10.9631 42.0961 10.7426C42.0267 10.6507 41.9808 10.5434 41.9621 10.4298C41.9435 10.3162 41.9527 10.1998 41.989 10.0906C42.0373 9.94738 42.1133 9.81511 42.2128 9.70136L43.5654 8.07628V8.00815H43.4778C43.2262 8.13968 42.9825 8.28591 42.748 8.44606C42.5145 8.61148 42.2907 8.78664 42.0766 8.9618C41.8625 9.13696 41.6971 9.29265 41.5706 9.41915L40.8018 10.149C40.7285 10.2408 40.6434 10.3226 40.5488 10.3923C40.4947 10.4303 40.4301 10.4507 40.3639 10.4506C40.2581 10.4443 40.1535 10.4247 40.0525 10.3923C39.9539 10.368 39.8615 10.3235 39.781 10.2615C39.7006 10.1995 39.634 10.1214 39.5854 10.0322C39.5167 9.85036 39.5167 9.64965 39.5854 9.4678C39.6435 9.30908 39.7221 9.15862 39.819 9.02018L41.1619 7.36591C41.1001 7.36545 41.0394 7.38232 40.9867 7.41458C40.7459 7.54864 40.5121 7.69477 40.2861 7.85245C40.0565 8.01244 39.8356 8.18463 39.6244 8.36822C39.42 8.54338 39.2157 8.73799 39.0113 8.93261C38.807 9.12723 38.6026 9.35105 38.3983 9.58459C38.3277 9.68258 38.2295 9.75713 38.1161 9.79865C38.0024 9.83649 37.8795 9.83649 37.7658 9.79865C37.5501 9.74641 37.3623 9.61428 37.2403 9.4289C37.1514 9.2577 37.1339 9.05828 37.1916 8.87422C37.2487 8.7221 37.3309 8.58066 37.4349 8.4558L38.7389 6.7334L40.1985 6.86965L38.2134 9.44835Z" fill="white"/>
<path d="M49.9685 14.8297C49.7193 14.8218 49.4716 14.7892 49.2289 14.7323C48.9864 14.6845 48.751 14.606 48.5283 14.4988C48.3026 14.3893 48.0876 14.259 47.886 14.1096C47.5694 13.8838 47.2986 13.5997 47.0881 13.2727C46.9918 13.1507 46.9395 12.9999 46.9395 12.8445C46.9395 12.6892 46.9918 12.5383 47.0881 12.4164C47.2925 12.1507 47.5513 11.9318 47.8471 11.7741C48.4875 11.4423 49.219 11.3295 49.9295 11.453C50.2605 11.5041 50.5743 11.6343 50.8443 11.8325C50.934 11.8878 51.0098 11.9631 51.0655 12.0526C51.1212 12.1421 51.1554 12.2433 51.1654 12.3483C51.1731 12.5524 51.1075 12.7526 50.9805 12.9127C50.8487 13.084 50.6831 13.2264 50.494 13.3311C50.3044 13.4437 50.0911 13.5104 49.8712 13.5257C49.6774 13.5499 49.4819 13.4975 49.3262 13.3797C49.2858 13.3535 49.2513 13.3191 49.2248 13.2789C49.1982 13.2386 49.1803 13.1933 49.1721 13.1458C49.1638 13.0983 49.1655 13.0497 49.177 13.0028C49.1884 12.956 49.2094 12.9121 49.2386 12.8737C49.2769 12.8167 49.3273 12.7689 49.3862 12.7336C49.445 12.6982 49.5109 12.6763 49.5792 12.6694C49.7667 12.6475 49.9561 12.6475 50.1436 12.6694C50.3215 12.6892 50.501 12.6892 50.6788 12.6694C50.7352 12.6676 50.7904 12.6537 50.8408 12.6285C50.8912 12.6033 50.9356 12.5674 50.9708 12.5234C50.9846 12.4946 50.9918 12.463 50.9918 12.431C50.9918 12.399 50.9846 12.3674 50.9708 12.3385C50.9642 12.3067 50.9514 12.2766 50.933 12.2499C50.9146 12.2231 50.8911 12.2003 50.8637 12.1828C50.7684 12.1164 50.6606 12.0701 50.5469 12.0467C50.4331 12.0233 50.3158 12.0233 50.202 12.0466C49.9093 12.0933 49.6264 12.1887 49.3652 12.3288C49.0834 12.4712 48.8161 12.6407 48.5672 12.8348C48.3574 12.9854 48.1705 13.1657 48.0125 13.37C47.9664 13.4286 47.9323 13.4957 47.9123 13.5675C47.8922 13.6394 47.8866 13.7144 47.8958 13.7884C47.9352 13.9423 48.0329 14.0749 48.1682 14.1582C48.3058 14.2642 48.4562 14.3525 48.6159 14.4209C48.7858 14.4938 48.9616 14.5524 49.1413 14.5961C49.3262 14.6448 49.589 14.6934 49.9101 14.7421L49.9685 14.8297Z" fill="white"/>
<path d="M50.4264 15.7455H50.368V15.7942H50.4751L50.7281 15.7164C50.8734 15.6796 51.0164 15.6341 51.1562 15.5801C51.4968 15.4828 51.8179 15.3952 52.1293 15.3271C52.45 15.2561 52.7751 15.2074 53.1024 15.1812C53.4284 15.1602 53.7557 15.1831 54.0755 15.2493C54.3599 15.3034 54.6212 15.4425 54.8248 15.6482C54.8891 15.7064 54.9412 15.7768 54.9779 15.8553C55.0147 15.9339 55.0354 16.0189 55.0389 16.1056C55.0355 16.1805 55.0165 16.2538 54.9829 16.3209C54.9494 16.3879 54.9022 16.4472 54.8443 16.4948C54.7135 16.613 54.5616 16.7054 54.3966 16.7673L52.8786 17.3414C52.7386 17.4104 52.6051 17.4919 52.4796 17.5847C52.4474 17.6092 52.4212 17.6408 52.4032 17.6771C52.3852 17.7134 52.3758 17.7534 52.3758 17.7939C52.3758 17.8344 52.3852 17.8744 52.4032 17.9107C52.4212 17.947 52.4474 17.9786 52.4796 18.0031C52.5559 18.0847 52.6446 18.1536 52.7424 18.2075C52.8356 18.2611 52.9333 18.3067 53.0343 18.3437L53.4235 18.4702L53.7057 18.5481V18.6843C53.0679 18.5886 52.476 18.296 52.0126 17.8474C51.8114 17.652 51.6726 17.4015 51.6136 17.1274C51.5928 17.02 51.5998 16.9092 51.6339 16.8053C51.6679 16.7014 51.7279 16.608 51.8082 16.5338C51.8722 16.4723 51.9442 16.42 52.0223 16.3781L52.3532 16.2126L54.1923 15.5023H54.241H54.2896V15.4536C54.0348 15.4152 53.7757 15.4152 53.5209 15.4536C52.535 15.5266 51.5578 15.6894 50.6016 15.9402C50.4821 15.9838 50.3524 15.9904 50.2291 15.9592C50.1059 15.9279 49.9949 15.8603 49.9107 15.765C49.8199 15.6694 49.7551 15.5521 49.7228 15.4243C49.6904 15.2965 49.6914 15.1625 49.7258 15.0352C49.7574 14.9034 49.8287 14.7845 49.9301 14.6946C50.0233 14.6138 50.1329 14.554 50.2513 14.5194L54.8832 12.5732L56.0801 13.4393L50.4264 15.7455Z" fill="white"/>
<path d="M54.4547 19.6181C54.3468 19.6575 54.2426 19.7064 54.1433 19.7641C54.0753 19.8054 54.0264 19.8718 54.0071 19.949C54.001 19.9973 54.0047 20.0464 54.0181 20.0932C54.0315 20.14 54.0542 20.1837 54.085 20.2215C54.1593 20.3281 54.2555 20.4176 54.3671 20.4842C54.5122 20.5758 54.6653 20.6539 54.8245 20.7177L55.1845 20.8734V20.9902C54.9756 20.9344 54.7733 20.8561 54.5812 20.7566C54.3989 20.6649 54.2289 20.5504 54.0752 20.4161C53.9218 20.2727 53.7847 20.1128 53.6665 19.9393C53.5121 19.7075 53.4093 19.4454 53.3649 19.1705C53.3428 19.061 53.3531 18.9474 53.3946 18.8437C53.4361 18.74 53.5069 18.6507 53.5984 18.5867C53.6984 18.5231 53.8115 18.4831 53.9293 18.4699L56.2258 17.886L57.2864 18.8591L54.4547 19.6181ZM57.7925 17.1659C57.8786 17.1173 57.9758 17.0918 58.0746 17.0918C58.1735 17.0918 58.2707 17.1173 58.3568 17.1659C58.5688 17.252 58.7489 17.4016 58.8726 17.5941C58.9355 17.6822 58.9817 17.7812 59.0088 17.886C59.0336 17.9818 59.0336 18.0822 59.0088 18.1779C58.9706 18.2746 58.9024 18.3564 58.8142 18.4115C58.7648 18.4379 58.7096 18.4517 58.6536 18.4517C58.5976 18.4517 58.5425 18.4379 58.4931 18.4115L58.0454 18.1877C57.8606 18.0806 57.7535 18.0417 57.7049 18.0709C57.6562 18.1001 57.6076 18.1779 57.6465 18.2363C57.6915 18.2923 57.7527 18.3331 57.8217 18.3531L57.6951 18.4407C57.6951 18.4407 57.627 18.4407 57.5589 18.3823C57.4949 18.3406 57.4389 18.2879 57.3935 18.2266C57.3156 18.1098 57.2864 18.0125 57.3156 17.9444C57.3578 17.8553 57.4256 17.7808 57.5103 17.7303C57.5904 17.677 57.6878 17.6562 57.7827 17.6719C57.9075 17.6889 58.029 17.725 58.1428 17.779C58.2494 17.8301 58.3601 17.8724 58.4736 17.9055C58.5044 17.9183 58.5375 17.9249 58.5709 17.9249C58.6043 17.9249 58.6374 17.9183 58.6682 17.9055C58.6989 17.8732 58.7192 17.8326 58.7266 17.7887C58.7424 17.738 58.7424 17.6837 58.7266 17.633C58.6406 17.5064 58.5134 17.4136 58.3666 17.3703C58.3036 17.3433 58.2357 17.3293 58.1671 17.3293C58.0985 17.3293 58.0306 17.3433 57.9676 17.3703V17.3119L57.7925 17.1659Z" fill="white"/>
<path d="M9.03059 50.3674C8.85543 50.2312 8.67054 50.0755 8.47592 49.9004C8.11763 49.5653 7.79182 49.1971 7.50282 48.8008C7.35411 48.6057 7.22382 48.3972 7.11359 48.178C6.92838 47.8335 6.79711 47.4627 6.72436 47.0784C6.65568 46.738 6.65568 46.3873 6.72436 46.0469C6.79997 45.7219 6.94986 45.4188 7.16226 45.1614C7.38151 44.886 7.65681 44.6605 7.96992 44.4997C8.4064 44.2717 8.88875 44.1454 9.38092 44.1299C9.89021 44.1071 10.3991 44.1831 10.8795 44.3537C11.3771 44.5191 11.8393 44.7766 12.2418 45.1127C12.6408 45.4448 12.9713 45.8513 13.2149 46.3097C13.3303 46.4968 13.4069 46.7052 13.4404 46.9224C13.4738 47.1397 13.4633 47.3615 13.4095 47.5747C13.3494 47.7867 13.2445 47.9833 13.1018 48.1512C12.9591 48.3191 12.7819 48.4543 12.5824 48.5478C12.2389 48.7262 11.8599 48.8259 11.4731 48.8397C10.6549 48.8822 9.84526 48.6567 9.16684 48.1975C8.86226 47.9948 8.61174 47.7209 8.43702 47.3995C8.31108 47.196 8.25631 46.9564 8.28132 46.7183C8.29461 46.617 8.33263 46.5205 8.39203 46.4374C8.45142 46.3542 8.53038 46.287 8.62191 46.2415C8.97264 46.0616 9.37425 46.0067 9.76041 46.0858C10.1857 46.1685 10.5938 46.3231 10.9671 46.5432C11.3405 46.7626 11.6923 47.0167 12.018 47.3022L11.9207 47.4093C11.6107 47.1946 11.2854 47.0027 10.9476 46.8351C10.5508 46.6435 10.1327 46.4998 9.70203 46.407C9.3803 46.3167 9.03756 46.3372 8.72893 46.4653C8.63149 46.5145 8.55536 46.5975 8.51485 46.6989C8.47698 46.7925 8.47698 46.8972 8.51485 46.9908C8.68848 47.2676 8.94837 47.4796 9.25441 47.5941C9.66071 47.7785 10.0892 47.9093 10.5292 47.9834C10.9775 48.0733 11.4344 48.1125 11.8915 48.1001C12.2263 48.1086 12.5588 48.0421 12.8646 47.9055C13.0081 47.8355 13.1299 47.728 13.2173 47.5944C13.3046 47.4607 13.3543 47.306 13.3609 47.1465C13.3615 46.9909 13.3248 46.8374 13.2538 46.6989C13.0406 46.3185 12.6939 46.0307 12.2807 45.8912C11.7662 45.6987 11.2241 45.5903 10.6751 45.5701C10.0956 45.5411 9.51459 45.577 8.94302 45.6771C8.47706 45.7436 8.02412 45.8815 7.60014 46.0858C7.37347 46.1988 7.19419 46.3884 7.09414 46.621C7.00532 46.8433 6.9784 47.0854 7.01627 47.3217C7.06273 47.584 7.15149 47.8371 7.27903 48.071C7.42456 48.35 7.59731 48.6141 7.79477 48.8592C7.99 49.1094 8.20128 49.3467 8.42728 49.5695C8.64136 49.7933 8.90409 50.0366 9.18629 50.2994L9.03059 50.3674Z" fill="white"/>
<path d="M12.0178 53.452C11.9066 53.4829 11.8013 53.5322 11.7064 53.5979C11.5604 53.7244 11.5604 53.8704 11.7064 54.0553C11.8383 54.1899 11.9891 54.3046 12.154 54.3959C12.3636 54.5114 12.5856 54.6028 12.8157 54.6683V54.7851C12.4949 54.7201 12.1863 54.6051 11.901 54.4445C11.6009 54.2935 11.3331 54.0852 11.1128 53.8315C10.9921 53.7029 10.9029 53.5482 10.8523 53.3793C10.8016 53.2104 10.7909 53.0321 10.8209 52.8584C10.5997 52.7844 10.39 52.6796 10.1981 52.547C9.98955 52.414 9.80251 52.2499 9.64343 52.0605C9.46855 51.8655 9.35958 51.6203 9.33203 51.3598C9.33466 51.2322 9.36679 51.107 9.42587 50.9939C9.48496 50.8808 9.56941 50.7829 9.67262 50.7078C9.83041 50.5849 10.0038 50.4834 10.1884 50.4062C10.641 50.2158 11.1278 50.1198 11.6188 50.124C11.8203 50.1354 12.0196 50.1713 12.2124 50.231C12.4375 50.2932 12.6535 50.3848 12.8546 50.5035C13.0468 50.6077 13.2184 50.7462 13.3607 50.9122C13.4465 51.0136 13.5106 51.1316 13.5491 51.2588C13.5876 51.386 13.5996 51.5197 13.5845 51.6517L14.6744 52.547L12.0178 53.452ZM13.3023 51.1555C13.1174 50.9219 12.6698 50.9122 11.9789 51.1068C11.6285 51.2171 11.3042 51.3339 11.0058 51.4571C10.786 51.5388 10.5769 51.6466 10.383 51.7782C10.1786 51.9534 10.1397 52.1286 10.2857 52.3037C10.4632 52.4746 10.6806 52.5983 10.9182 52.6638L11.035 52.5081C11.1662 52.4268 11.3067 52.3615 11.4534 52.3134L13.3996 51.642C13.4215 51.5594 13.425 51.4731 13.4098 51.389C13.3947 51.3049 13.3613 51.2252 13.312 51.1555H13.3023ZM15.2485 50.8927C15.0002 51.1783 14.8087 51.5085 14.6841 51.8658L14.47 51.6128C14.47 51.5252 14.47 51.4377 14.47 51.3306C14.47 51.2236 14.47 51.1165 14.47 51.0192C14.47 50.9219 14.47 50.8052 14.47 50.6592H14.1099L13.6429 50.6008L13.458 50.377C13.9006 50.4358 14.3504 50.4061 14.7814 50.2894L15.2485 50.8927ZM16.0367 51.0192C15.988 51.1263 15.9296 51.3014 15.8518 51.5447L15.6085 51.2528C15.5592 50.7837 15.5592 50.3108 15.6085 49.8418L16.28 50.6397C16.2039 50.7601 16.1387 50.8872 16.0853 51.0192H16.0367Z" fill="white"/>
<path d="M13.7883 56.0989V56.1475C13.7883 56.1475 13.8661 56.1475 13.9245 56.1475L14.8976 55.6804C15.2852 55.4888 15.685 55.323 16.0945 55.1841C16.4518 55.0628 16.8265 55.0004 17.2038 54.9993C17.5327 54.9936 17.8531 55.1039 18.1088 55.3107C18.1847 55.3589 18.2492 55.4231 18.2979 55.4987C18.3466 55.5743 18.3784 55.6595 18.391 55.7485C18.3959 55.9165 18.3368 56.08 18.2256 56.2059C18.1689 56.2753 18.1071 56.3404 18.0407 56.4005L16.4156 57.2666C16.3041 57.3248 16.205 57.4041 16.1237 57.5001C15.9777 57.6753 16.0069 57.8407 16.2015 57.9964C16.2852 58.0653 16.3808 58.1181 16.4837 58.1521C16.5815 58.1902 16.6824 58.2195 16.7854 58.2397L17.1357 58.2981H17.4374V58.4148C17.1064 58.4103 16.7781 58.3545 16.4643 58.2494C16.1713 58.1615 15.8974 58.0196 15.6566 57.831C15.4366 57.6676 15.2787 57.4343 15.209 57.1693C15.175 57.0563 15.1696 56.9367 15.1934 56.8212C15.2172 56.7056 15.2694 56.5979 15.3452 56.5075C15.4411 56.3966 15.5565 56.3043 15.6858 56.2351L17.5152 55.2036H17.6028C17.5347 55.1452 17.4957 55.1258 17.4763 55.1258C16.9704 55.1399 16.4705 55.2385 15.9972 55.4177C15.4912 55.6026 14.8781 55.8556 14.158 56.1864C14.0787 56.2284 13.9934 56.258 13.905 56.274C13.835 56.2935 13.761 56.2935 13.691 56.274C13.6071 56.2397 13.5285 56.1939 13.4574 56.1378C13.2865 56.0176 13.1681 55.8365 13.1266 55.6318C13.1126 55.5434 13.1184 55.453 13.1436 55.3672C13.1689 55.2814 13.2129 55.2022 13.2725 55.1355C13.3651 55.0225 13.4772 54.9269 13.6034 54.8533L15.5496 53.6953L16.8243 54.3668L13.7883 56.0989Z" fill="white"/>
<path d="M24.4643 58.6781L24.2989 58.9505L24.766 59.0965C25.6483 59.4274 25.9726 59.9139 25.7391 60.5561C25.4763 61.2665 24.766 61.7044 23.5983 61.8698C23.8243 62.1114 24.0954 62.3064 24.3962 62.444C24.6024 62.5158 24.8238 62.5325 25.0384 62.4926C25.3472 62.4452 25.6483 62.3569 25.9337 62.2299L26.0115 62.3856C25.6505 62.4965 25.2786 62.5683 24.9022 62.5997C24.5724 62.6345 24.239 62.5911 23.9291 62.4732C23.6073 62.3479 23.318 62.1516 23.0825 61.899C22.6977 61.9011 22.3156 61.8352 21.9537 61.7044L21.1655 62.6775L19.6572 62.5997L20.8639 61.1692C20.6109 60.9649 20.5233 60.7605 20.6011 60.5367C20.679 60.3129 21.0098 60.2059 21.5061 60.3907L22.7322 58.8824C22.4187 58.9618 22.122 59.0969 21.8564 59.2814C21.5697 59.4793 21.3139 59.7187 21.0974 59.9918L21.185 59.7096C21.2388 59.5603 21.3227 59.4237 21.4315 59.3082C21.5403 59.1926 21.6717 59.1007 21.8175 59.0381C22.1481 58.8784 22.5035 58.7764 22.8684 58.7365L23.0825 58.5029L24.4643 58.6781ZM21.1947 60.4978C21.1163 60.5199 21.0477 60.5679 21.0001 60.634C20.9518 60.6947 20.9155 60.7641 20.893 60.8384C20.8958 60.9226 20.9306 61.0027 20.9904 61.0622L21.4477 60.5075C21.3661 60.48 21.2782 60.4766 21.1947 60.4978ZM22.4792 61.6752C22.6151 61.6879 22.752 61.6879 22.8879 61.6752C22.819 61.5921 22.7442 61.514 22.6641 61.4417L22.45 61.2081L22.09 61.6266C22.2151 61.669 22.3475 61.6856 22.4792 61.6752ZM22.9171 61.2373L23.209 61.4709C23.5204 61.2525 23.8046 60.9976 24.0556 60.7118C24.2827 60.4765 24.4613 60.1988 24.5811 59.8945C24.6419 59.738 24.6419 59.5644 24.5811 59.4079C24.5587 59.3398 24.5207 59.2779 24.4699 59.2271C24.4192 59.1764 24.3573 59.1383 24.2891 59.116H24.1237L22.5668 61.0038L22.9171 61.2373Z" fill="white"/>
<path d="M27.5005 63.0566V63.1247V63.1831H27.5492L27.7049 62.969L27.9579 62.5992C28.1623 62.3073 28.3569 62.0349 28.5515 61.7916C28.7661 61.537 28.9969 61.2965 29.2424 61.0715C29.4868 60.8411 29.7659 60.6507 30.0695 60.5071C30.3242 60.3762 30.6125 60.3253 30.8966 60.3611C31.0711 60.3703 31.2352 60.4471 31.354 60.5752C31.434 60.7027 31.4651 60.8548 31.4416 61.0034C31.4072 61.1777 31.3447 61.3453 31.2567 61.4996L30.4198 62.8815C30.3505 63.024 30.2982 63.1743 30.2641 63.3291C30.2641 63.514 30.3225 63.621 30.5171 63.6502C30.6298 63.6702 30.7451 63.6702 30.8577 63.6502C30.9643 63.637 31.0689 63.6108 31.1691 63.5723L31.5486 63.4264L31.8211 63.3193L31.8795 63.4458C31.3198 63.7677 30.6725 63.9039 30.0306 63.8351C29.7539 63.807 29.4924 63.695 29.2813 63.514C29.1966 63.4444 29.1315 63.354 29.0922 63.2516C29.053 63.1493 29.041 63.0385 29.0575 62.9301C29.0718 62.8426 29.098 62.7575 29.1353 62.6771C29.1353 62.5895 29.2229 62.4728 29.291 62.3365L30.2641 60.6531C30.2683 60.6371 30.2683 60.6204 30.2641 60.6044C30.0404 60.7298 29.8315 60.88 29.6413 61.052C28.93 61.7167 28.2788 62.4429 27.6951 63.222C27.6292 63.329 27.5329 63.4139 27.4185 63.4659C27.3041 63.5178 27.1769 63.5346 27.0529 63.514C26.9207 63.4969 26.7959 63.4429 26.6929 63.3583C26.5863 63.2771 26.5025 63.1699 26.4496 63.0469C26.3991 62.9237 26.3823 62.7894 26.4009 62.6576C26.4243 62.5365 26.4706 62.4209 26.5372 62.317L28.9504 57.8992L30.4296 57.8408L27.5005 63.0566Z" fill="white"/>
<path d="M36.0824 62.9692C36.0425 63.0786 36.0195 63.1935 36.0142 63.3098C36.0142 63.4947 36.1407 63.5822 36.3743 63.5725C36.5672 63.5556 36.7553 63.5028 36.9289 63.4168C37.148 63.3239 37.3541 63.2029 37.542 63.0568L37.6198 63.1443C37.3709 63.3611 37.0924 63.5414 36.7927 63.6796C36.4889 63.8292 36.1578 63.9152 35.8196 63.9326C35.6386 63.9558 35.4547 63.9333 35.2846 63.867C35.1146 63.8007 34.964 63.6927 34.8465 63.5531C34.6551 63.6889 34.4454 63.797 34.2237 63.8742C33.9915 63.9553 33.7492 64.0044 33.5036 64.0201C33.2418 64.0397 32.9803 63.9786 32.7543 63.845C32.6522 63.7686 32.5704 63.6683 32.5161 63.553C32.4618 63.4376 32.4367 63.3106 32.443 63.1833C32.435 62.9831 32.458 62.7829 32.5111 62.5897C32.5694 62.3507 32.6543 62.1189 32.7641 61.8988C32.8674 61.681 32.9947 61.4753 33.1436 61.2857C33.2676 61.125 33.4153 60.9839 33.5815 60.8673C33.7697 60.7243 33.9758 60.6066 34.1945 60.517C34.3905 60.4265 34.6018 60.3737 34.8173 60.3613C34.951 60.3461 35.0863 60.3619 35.2129 60.4075C35.3395 60.453 35.4538 60.5271 35.5471 60.624L36.9192 60.3029L36.0824 62.9692ZM35.0217 60.5559C34.7298 60.5559 34.4475 60.9159 34.1945 61.5874C34.0652 61.904 33.9579 62.2291 33.8734 62.5605C33.8011 62.7839 33.7617 63.0166 33.7566 63.2514C33.7566 63.5239 33.8929 63.6601 34.107 63.6504C34.3503 63.6118 34.5806 63.515 34.7784 63.3682L34.7297 63.1735C34.7398 63.0172 34.7726 62.8631 34.8271 62.7162L35.4693 60.77C35.4179 60.6974 35.3512 60.6371 35.2738 60.5934C35.1964 60.5497 35.1103 60.5236 35.0217 60.517V60.5559ZM36.6759 58.9795L36.3743 59.2811C36.2575 59.3979 36.1115 59.5244 35.9461 59.6704L35.6542 59.9234H35.2747C35.3764 59.7847 35.4613 59.6344 35.5277 59.4758C35.579 59.3241 35.6148 59.1676 35.6347 59.0087L36.6759 58.9795Z" fill="white"/>
<path d="M39.8284 57.9961L39.556 60.0493L40.2274 59.9131L40.0425 60.312L39.5268 60.4191L39.2543 62.5696C39.2216 62.6609 39.2216 62.7606 39.2543 62.8518C39.263 62.8955 39.2804 62.937 39.3055 62.9737C39.3305 63.0105 39.3628 63.0419 39.4003 63.0659C39.4419 63.0833 39.4865 63.0923 39.5316 63.0923C39.5767 63.0923 39.6214 63.0833 39.663 63.0659C39.8751 63.0185 40.0743 62.9255 40.2469 62.7935C40.4643 62.6337 40.6722 62.4615 40.8696 62.2777L40.9572 62.3555C40.7136 62.6162 40.4353 62.8421 40.1301 63.027C39.8322 63.211 39.5019 63.3365 39.157 63.3968C38.9004 63.4768 38.6254 63.4768 38.3688 63.3968C38.2629 63.3548 38.1696 63.2861 38.098 63.1974C38.0264 63.1088 37.9789 63.0032 37.9601 62.8908C37.9448 62.781 37.9448 62.6696 37.9601 62.5599L38.2131 60.6721L37.7266 60.7791L37.892 60.3802L38.2618 60.3023L38.4856 58.5897L39.8284 57.9961Z" fill="white"/>
<path d="M45.5603 61.1602V61.238V61.1894V61.1309V60.8682C45.5603 60.7125 45.5603 60.5568 45.5603 60.4206C45.5603 60.0703 45.5603 59.7297 45.5603 59.4475C45.5761 59.1197 45.6217 58.794 45.6966 58.4744C45.7568 58.1338 45.8718 57.8051 46.0372 57.5013C46.1655 57.2453 46.3693 57.0347 46.621 56.898C46.7699 56.8083 46.9467 56.7771 47.1173 56.8104C47.2579 56.8629 47.3729 56.9674 47.4384 57.1023C47.5135 57.265 47.5596 57.4395 47.5747 57.6181L47.7109 59.2334C47.736 59.3869 47.7785 59.5371 47.8374 59.681C47.852 59.7184 47.875 59.7519 47.9047 59.779C47.9343 59.8061 47.9697 59.8261 48.0082 59.8374C48.0467 59.8486 48.0873 59.8509 48.1269 59.8441C48.1664 59.8372 48.2039 59.8214 48.2364 59.7978C48.3372 59.7441 48.4291 59.6752 48.5088 59.5935C48.5879 59.5231 48.6597 59.4449 48.7229 59.3599C48.7716 59.2724 48.8494 59.1653 48.9467 59.0096L49.1024 58.7663L49.2192 58.8344C48.9552 59.4235 48.5081 59.9115 47.9444 60.226C47.7052 60.371 47.4245 60.4326 47.1465 60.4011C47.0383 60.3941 46.9338 60.3591 46.8434 60.2993C46.7529 60.2396 46.6797 60.1573 46.6308 60.0606C46.5885 59.9813 46.5589 59.896 46.5432 59.8075C46.5105 59.6863 46.4877 59.5627 46.4751 59.4378L46.2999 57.4916V57.4429H46.2512C46.13 57.6718 46.0447 57.918 45.9983 58.1728C45.8026 59.1343 45.6918 60.1111 45.6674 61.092C45.6764 61.2199 45.6469 61.3476 45.5827 61.4586C45.5186 61.5695 45.4226 61.6588 45.3073 61.7148C45.1937 61.7746 45.0656 61.8016 44.9375 61.7927C44.8038 61.7915 44.6727 61.7545 44.5581 61.6856C44.4415 61.6159 44.3471 61.5147 44.2856 61.3937C44.2346 61.2839 44.208 61.1644 44.2077 61.0434L43.585 56.0417L44.7527 55.127L45.5603 61.1602Z" fill="white"/>
<path d="M49.6861 54.9212L50.5327 57.4805C50.5691 57.6422 50.6387 57.7947 50.7371 57.9281C50.7579 57.9618 50.786 57.9903 50.8193 58.0116C50.8527 58.0329 50.8904 58.0465 50.9297 58.0511C50.969 58.0558 51.0088 58.0515 51.0462 58.0387C51.0837 58.0258 51.1177 58.0046 51.1458 57.9768C51.3897 57.732 51.57 57.4313 51.6713 57.101L51.574 56.9842C51.49 56.8565 51.4214 56.7193 51.3696 56.5755L50.6982 54.5125L51.6713 53.374L52.4692 55.9235C52.5168 56.083 52.589 56.234 52.6833 56.3711C52.7088 56.4035 52.7413 56.4297 52.7784 56.4477C52.8155 56.4657 52.8562 56.4751 52.8974 56.4751C52.9386 56.4751 52.9793 56.4657 53.0163 56.4477C53.0534 56.4297 53.086 56.4035 53.1115 56.3711C53.252 56.2507 53.3649 56.1013 53.4423 55.9332C53.5568 55.6917 53.6512 55.4411 53.7245 55.184H53.851C53.7887 55.3863 53.714 55.5845 53.6272 55.7775C53.5324 55.9886 53.4183 56.1906 53.2866 56.3809C53.1573 56.5662 53.0034 56.7331 52.8293 56.8771C52.6924 57.0022 52.5244 57.0881 52.3429 57.1258C52.1614 57.1635 51.9731 57.1515 51.7978 57.0912C51.7054 57.3472 51.5847 57.592 51.4377 57.8211C51.2918 58.0256 51.1182 58.209 50.922 58.366C50.7789 58.485 50.6135 58.5743 50.4354 58.6287C50.2861 58.6723 50.1274 58.6723 49.9781 58.6287C49.8353 58.5879 49.7092 58.5027 49.618 58.3855C49.5246 58.2721 49.4581 58.139 49.4234 57.9962L48.7617 55.943L49.6861 54.9212Z" fill="white"/>
<path d="M53.4525 51.2924L54.8343 53.6278C54.8553 53.6729 54.8814 53.7153 54.9122 53.7544L54.9803 53.8711L55.0387 53.9392C55.1846 54.0657 55.3209 54.0657 55.4279 53.9392C55.5243 53.8042 55.5847 53.6468 55.6031 53.4819C55.6298 53.3273 55.6298 53.1693 55.6031 53.0148L54.2894 50.7183L54.99 49.4922L56.8681 52.7034C57.011 52.3891 57.1281 52.0636 57.2184 51.7303C57.303 51.4348 57.3584 51.1317 57.3838 50.8253L57.5493 50.8934C57.5493 51.1173 57.4812 51.3216 57.4422 51.4871C57.4033 51.6525 57.3741 51.7984 57.3352 51.9347C57.2963 52.0709 57.2476 52.2266 57.1892 52.3823C57.133 52.5429 57.0646 52.699 56.9849 52.8494C57.0847 53.0324 57.1568 53.2291 57.199 53.4332C57.2329 53.6362 57.2329 53.8433 57.199 54.0463C57.1767 54.255 57.1209 54.4587 57.0335 54.6496C56.9502 54.8433 56.8387 55.0237 56.7027 55.1848C56.5929 55.3212 56.4483 55.4254 56.2842 55.4865C56.2217 55.5124 56.1532 55.5207 56.0863 55.5104C56.0194 55.5001 55.9566 55.4716 55.9048 55.4281C55.8245 55.3581 55.7643 55.2681 55.7301 55.1672C55.6959 55.0664 55.689 54.9583 55.7101 54.854C55.7902 54.5088 55.9284 54.1797 56.1188 53.8809L55.788 53.2873C55.7296 53.4721 55.6809 53.6376 55.6323 53.7738C55.5847 53.9129 55.5227 54.0466 55.4474 54.1728C55.3832 54.2951 55.3049 54.4094 55.2139 54.5134C55.1454 54.6092 55.0585 54.6904 54.9582 54.7522C54.8579 54.814 54.7464 54.8552 54.63 54.8734C54.5253 54.8815 54.4201 54.8675 54.3212 54.8323C54.2223 54.797 54.1319 54.7415 54.0559 54.6691C53.9201 54.5493 53.805 54.4079 53.7153 54.2506L52.7422 52.5282L53.4525 51.2924ZM56.0702 54.5231C56.0238 54.6445 55.9975 54.7727 55.9923 54.9026C55.9888 54.9701 56.002 55.0375 56.0309 55.0986C56.0598 55.1597 56.1033 55.2128 56.1577 55.2529C56.2142 55.3027 56.2868 55.3304 56.3621 55.3308C56.3978 55.3275 56.4325 55.3172 56.4642 55.3005C56.496 55.2838 56.5241 55.261 56.547 55.2335C56.6157 55.1555 56.6538 55.0552 56.654 54.9513C56.673 54.8516 56.673 54.7493 56.654 54.6496C56.6139 54.5389 56.5651 54.4315 56.5081 54.3285L56.3426 54.0366C56.1967 54.2604 56.1188 54.4258 56.0702 54.5426V54.5231Z" fill="white"/>
<path d="M13.0496 28.7843L11.9305 27.928C11.9019 27.9135 11.8702 27.9059 11.8381 27.9059C11.806 27.9059 11.7743 27.9135 11.7456 27.928L10.4125 28.3562C10.3764 28.3673 10.3378 28.3682 10.3013 28.3587C10.2647 28.3493 10.2314 28.3298 10.2052 28.3026C10.179 28.2754 10.1608 28.2414 10.1527 28.2045C10.1447 28.1675 10.147 28.1291 10.1595 28.0934L10.6266 26.77C10.6428 26.7419 10.6513 26.71 10.6513 26.6776C10.6513 26.6451 10.6428 26.6132 10.6266 26.5851L9.79944 25.4466C9.7777 25.4155 9.76509 25.3788 9.763 25.3409C9.76092 25.303 9.76946 25.2652 9.78765 25.2319C9.80584 25.1985 9.83297 25.1709 9.86599 25.1521C9.89901 25.1333 9.93662 25.1241 9.97459 25.1255H11.3759C11.4076 25.1262 11.439 25.1196 11.4678 25.1061C11.4965 25.0926 11.5217 25.0726 11.5413 25.0476L12.3781 23.9091C12.3989 23.8779 12.4283 23.8533 12.4627 23.8383C12.4972 23.8234 12.5352 23.8187 12.5722 23.8249C12.6092 23.8311 12.6437 23.8478 12.6714 23.8731C12.6991 23.8984 12.7189 23.9312 12.7285 23.9675L13.1274 25.3201C13.1355 25.3516 13.1513 25.3805 13.1734 25.4043C13.1955 25.4281 13.2231 25.446 13.2539 25.4564L14.5968 25.8942C14.6322 25.9068 14.6634 25.9289 14.687 25.958C14.7107 25.9872 14.7259 26.0222 14.7309 26.0594C14.7359 26.0966 14.7306 26.1345 14.7155 26.1689C14.7005 26.2032 14.6762 26.2328 14.6455 26.2543L13.4875 27.0425C13.4608 27.0611 13.4389 27.0858 13.4236 27.1146C13.4084 27.1434 13.4003 27.1754 13.3999 27.2079V28.6189C13.4162 28.6644 13.415 28.7144 13.3965 28.7591C13.378 28.8037 13.3435 28.8399 13.2998 28.8606C13.2561 28.8812 13.2062 28.8848 13.16 28.8707C13.1137 28.8567 13.0744 28.8258 13.0496 28.7843Z" fill="#F5CB15"/>
<path d="M60.9348 34.3503L59.6211 33.9806C59.5925 33.966 59.5608 33.9585 59.5287 33.9585C59.4966 33.9585 59.4649 33.966 59.4362 33.9806L58.3853 34.8466C58.3578 34.8703 58.3242 34.8858 58.2884 34.8913C58.2525 34.8969 58.2159 34.8923 58.1825 34.8782C58.1491 34.864 58.1203 34.8408 58.0994 34.8112C58.0785 34.7815 58.0663 34.7466 58.0642 34.7104L58.0155 33.3383C58.0143 33.3061 58.0046 33.2748 57.9876 33.2475C57.9705 33.2202 57.9466 33.1979 57.9182 33.1827L56.7699 32.4528C56.737 32.4369 56.7093 32.412 56.6899 32.381C56.6705 32.35 56.6602 32.3142 56.6602 32.2776C56.6602 32.2411 56.6705 32.2053 56.6899 32.1743C56.7093 32.1433 56.737 32.1184 56.7699 32.1025L58.0544 31.6257C58.0849 31.6166 58.1122 31.5989 58.1329 31.5748C58.1536 31.5506 58.1669 31.521 58.1712 31.4894L58.5118 30.166C58.5231 30.1315 58.5435 30.1006 58.5708 30.0765C58.598 30.0524 58.6313 30.0361 58.667 30.0291C58.7027 30.0222 58.7396 30.0249 58.7739 30.037C58.8082 30.0491 58.8387 30.0701 58.8621 30.0979L59.699 31.1683C59.7201 31.194 59.7469 31.2144 59.7773 31.2279C59.8077 31.2414 59.8409 31.2477 59.8741 31.2462L61.2365 31.1586C61.2729 31.1584 61.3087 31.168 61.3402 31.1863C61.3718 31.2046 61.3978 31.231 61.4157 31.2628C61.4335 31.2945 61.4426 31.3305 61.4419 31.3669C61.4412 31.4034 61.4307 31.4389 61.4116 31.47L60.6429 32.5988C60.6185 32.658 60.6185 32.7245 60.6429 32.7837L61.1489 34.0584C61.1697 34.0915 61.1801 34.13 61.1787 34.169C61.1773 34.208 61.1642 34.2457 61.1411 34.2772C61.118 34.3087 61.086 34.3325 61.0492 34.3455C61.0124 34.3586 60.9726 34.3603 60.9348 34.3503Z" fill="white"/>
<path d="M59.379 27.6652L58.62 26.984C58.6005 26.9738 58.5788 26.9684 58.5568 26.9684C58.5347 26.9684 58.513 26.9738 58.4935 26.984L57.5204 27.2176C57.4937 27.2238 57.4657 27.2224 57.4398 27.2136C57.4138 27.2047 57.3908 27.1887 57.3735 27.1673C57.3563 27.146 57.3454 27.1202 57.3421 27.0929C57.3388 27.0657 57.3433 27.038 57.355 27.0132L57.7734 26.0888C57.7854 26.0681 57.7917 26.0446 57.7917 26.0206C57.7917 25.9967 57.7854 25.9732 57.7734 25.9525L57.2479 25.0865C57.2318 25.0644 57.2226 25.0378 57.2218 25.0105C57.2209 24.9831 57.2283 24.956 57.243 24.9329C57.2577 24.9098 57.279 24.8917 57.3042 24.8809C57.3294 24.8701 57.3573 24.8671 57.3842 24.8724L58.3573 24.9794C58.3812 24.9789 58.4048 24.9734 58.4266 24.9634C58.4483 24.9533 58.4678 24.9389 58.4838 24.921L59.1455 24.1523C59.1634 24.1318 59.1868 24.1167 59.2129 24.1088C59.239 24.1009 59.2668 24.1005 59.2932 24.1076C59.3195 24.1147 59.3434 24.129 59.362 24.1489C59.3806 24.1689 59.3932 24.1936 59.3985 24.2204L59.6028 25.1935C59.6065 25.2175 59.6166 25.2402 59.632 25.259C59.6474 25.2778 59.6676 25.2922 59.6904 25.3006L60.6635 25.6898C60.6882 25.7017 60.709 25.7204 60.7236 25.7436C60.7381 25.7669 60.7458 25.7937 60.7458 25.8212C60.7458 25.8486 60.7381 25.8754 60.7236 25.8987C60.709 25.9219 60.6882 25.9406 60.6635 25.9525L59.7877 26.4585C59.7661 26.4675 59.7474 26.4822 59.7337 26.5011C59.7199 26.52 59.7117 26.5423 59.7099 26.5656L59.632 27.5387C59.6389 27.5704 59.635 27.6034 59.621 27.6327C59.607 27.6619 59.5837 27.6857 59.5547 27.7002C59.5256 27.7147 59.4926 27.7192 59.4608 27.7128C59.429 27.7065 59.4003 27.6897 59.379 27.6652Z" fill="#FCD527"/>
<path d="M61.6454 46.1437C60.0389 46.0131 58.5203 45.3564 57.3248 44.2754C57.1421 44.0889 56.9938 43.8714 56.8869 43.6331C56.6617 43.1156 56.6511 42.5299 56.8572 42.0045C57.0633 41.4791 57.4695 41.0569 57.9865 40.8306C58.2793 40.7065 58.5959 40.6483 58.9137 40.66C59.2315 40.6718 59.5429 40.7533 59.8257 40.8987C59.9493 40.4488 60.217 40.0519 60.5879 39.7689C60.9589 39.4859 61.4124 39.3324 61.8789 39.332C62.2922 39.3318 62.6966 39.4524 63.0424 39.6788C63.3881 39.9053 63.6602 40.2278 63.8251 40.6068C63.9324 40.8494 63.9919 41.1104 64.0003 41.3755C64.156 43.0006 62.8909 45.628 62.1222 46.0659H62.0444C61.9167 46.1142 61.7818 46.1405 61.6454 46.1437ZM58.8039 41.5604C58.6293 41.5575 58.4564 41.5941 58.2979 41.6675C58.1455 41.732 58.0074 41.8263 57.8918 41.9448C57.7762 42.0633 57.6854 42.2037 57.6247 42.3578C57.564 42.5118 57.5346 42.6764 57.5383 42.8419C57.5419 43.0074 57.5785 43.1705 57.646 43.3217C57.7105 43.468 57.8031 43.6002 57.9184 43.711C58.9436 44.6207 60.2321 45.1797 61.5967 45.3069H61.694C62.5595 44.2118 63.0506 42.8679 63.0953 41.4729C63.093 41.3124 63.06 41.1538 62.998 41.0058C62.8996 40.7804 62.7377 40.5886 62.5321 40.4538C62.3264 40.319 62.0859 40.247 61.84 40.2467C61.6659 40.2485 61.4939 40.2849 61.334 40.3538C61.1472 40.4355 60.9832 40.5615 60.856 40.7209C60.7288 40.8803 60.6424 41.0682 60.6042 41.2685C60.5831 41.3913 60.5321 41.507 60.4558 41.6054C60.3794 41.7039 60.28 41.782 60.1663 41.8329C60.0773 41.8717 59.9812 41.8916 59.8841 41.8913C59.7326 41.8882 59.5847 41.8445 59.4559 41.7648C59.2606 41.6399 59.0356 41.5694 58.8039 41.5604Z" fill="white" stroke="white" stroke-width="0.25" stroke-miterlimit="10"/>
<path d="M6.97708 31.0811C7.38986 31.1779 7.77921 31.356 8.12238 31.605C8.46556 31.854 8.7557 32.1689 8.97583 32.5313C9.19597 32.8936 9.34168 33.2962 9.4045 33.7155C9.46732 34.1348 9.44598 34.5625 9.34169 34.9734C9.264 35.3017 9.12218 35.6114 8.92437 35.8847C8.72656 36.1579 8.47667 36.3894 8.18908 36.5657C7.9015 36.7421 7.58191 36.8598 7.24865 36.9122C6.9154 36.9646 6.57507 36.9506 6.24725 36.871C5.98566 36.8082 5.73903 36.6944 5.52153 36.536C5.30403 36.3777 5.11994 36.178 4.97981 35.9484C4.83967 35.7187 4.74627 35.4637 4.70493 35.1979C4.6636 34.932 4.67514 34.6607 4.73894 34.3993C4.83625 33.9802 5.09579 33.6169 5.46062 33.3888C5.82545 33.1608 6.26579 33.0868 6.68513 33.1829C7.02345 33.266 7.31537 33.4792 7.49754 33.7761C7.67971 34.073 7.73744 34.4298 7.65823 34.7691C7.6252 34.9034 7.56599 35.0298 7.484 35.1412C7.402 35.2526 7.29886 35.3466 7.18044 35.4181C7.06201 35.4895 6.93064 35.5368 6.79388 35.5574C6.65712 35.5779 6.51766 35.5713 6.38347 35.5378C6.17629 35.4847 5.99733 35.3542 5.88332 35.1733C5.76931 34.9923 5.72889 34.7745 5.77042 34.5647C5.81198 34.392 5.92033 34.2427 6.07172 34.1497C6.22311 34.0567 6.40521 34.0275 6.5781 34.0684C6.64747 34.0844 6.71295 34.1141 6.77072 34.1557C6.82848 34.1972 6.87735 34.2499 6.91451 34.3106C6.95166 34.3714 6.97634 34.4389 6.98708 34.5092C6.99783 34.5796 6.99442 34.6514 6.97708 34.7204C6.94935 34.8303 6.88013 34.9251 6.78396 34.985C6.68779 35.0448 6.57215 35.0651 6.46134 35.0415" stroke="white" stroke-width="0.75" stroke-miterlimit="10" stroke-linecap="round"/>
<path d="M43.1573 20.5807C41.6814 20.5485 40.2198 20.8764 38.899 21.536C37.5782 22.1955 36.438 23.1668 35.5769 24.366C35.4087 24.5974 35.1916 24.7889 34.941 24.9268C34.6904 25.0647 34.4125 25.1457 34.127 25.164C33.8434 25.1333 33.5701 25.0408 33.3262 24.8928C33.0824 24.7448 32.8741 24.545 32.716 24.3076C31.4893 22.4294 29.6119 21.0707 27.4445 20.4922C25.277 19.9138 22.9723 20.1565 20.9728 21.1737C18.9734 22.1909 17.4202 23.9109 16.6116 26.0034C15.803 28.096 15.796 30.4135 16.5918 32.5108C18.9856 40.4805 30.2151 50.0266 33.6307 50.4158C37.0657 50.1531 48.6553 41.0644 51.3605 33.2017C51.8101 32.1453 52.0513 31.012 52.0709 29.864C52.0954 28.6691 51.8843 27.4811 51.4496 26.3678C51.0149 25.2545 50.3651 24.2378 49.5373 23.3757C48.7096 22.5137 47.7201 21.8231 46.6254 21.3435C45.5307 20.8639 44.3522 20.6047 43.1573 20.5807Z" fill="white"/>
<path d="M42.4371 21.6713C41.0703 21.6431 39.7172 21.9482 38.4948 22.5602C37.2723 23.1723 36.2173 24.0729 35.4211 25.1842C35.2826 25.4161 35.0852 25.6071 34.8489 25.7378C34.6126 25.8685 34.3458 25.9343 34.0758 25.9283C33.8058 25.9224 33.5422 25.845 33.3119 25.704C33.0815 25.563 32.8927 25.3635 32.7645 25.1258C31.7722 23.6252 30.3261 22.4811 28.6374 21.8605C26.9487 21.24 25.1059 21.1755 23.378 21.6765C21.6501 22.1775 20.1276 23.2177 19.0327 24.6453C17.9379 26.0729 17.3281 27.813 17.2923 29.6118C17.2735 30.675 17.4585 31.732 17.8372 32.7257C20.0462 40.1018 30.4388 48.9375 33.6111 49.2683C36.7932 49.0251 47.5264 40.6078 50.037 33.329C50.4475 32.3475 50.6718 31.2981 50.6987 30.2345C50.743 27.9985 49.8977 25.8364 48.3486 24.2233C46.7994 22.6103 44.6731 21.6784 42.4371 21.6324V21.6713Z" fill="#F5CB15"/>
</svg>
