<svg width="68" height="68" viewBox="0 0 68 68" fill="none" xmlns="http://www.w3.org/2000/svg">
<path d="M34 68C52.7777 68 68 52.7777 68 34C68 15.2223 52.7777 0 34 0C15.2223 0 0 15.2223 0 34C0 52.7777 15.2223 68 34 68Z" fill="url(#paint0_radial_7926_32660)"/>
<path d="M7.47313 19.8621C7.6538 19.5148 7.90979 19.2122 8.22241 18.9766C8.32703 18.9045 8.41908 18.8158 8.49487 18.7139C8.52732 18.6417 8.55337 18.5668 8.57272 18.49C8.57014 18.4544 8.57014 18.4186 8.57272 18.383C8.6094 18.3219 8.6588 18.2694 8.71757 18.2291C8.77634 18.1888 8.8431 18.1616 8.91331 18.1494C9.32275 18.0715 9.74658 18.1404 10.1102 18.3441C10.2377 18.3964 10.349 18.4816 10.4328 18.591C10.5166 18.7005 10.5698 18.8301 10.587 18.9668C10.6007 19.1077 10.5737 19.2496 10.5092 19.3756C10.4577 19.4834 10.3768 19.5745 10.2756 19.6383C10.1528 19.6903 10.0197 19.7137 9.88641 19.7064C9.70814 19.6967 9.52947 19.6967 9.3512 19.7064C9.23199 19.7262 9.11688 19.7656 9.01061 19.8232C8.74845 19.9545 8.53155 20.1612 8.38783 20.4168C8.33285 20.5288 8.30427 20.652 8.30427 20.7768C8.30427 20.9016 8.33285 21.0248 8.38783 21.1369C8.51477 21.3924 8.72379 21.598 8.98142 21.7207C9.37564 21.93 9.82069 22.0244 10.2659 21.9932C10.5389 21.9857 10.8046 21.9039 11.0344 21.7564C11.2642 21.6089 11.4494 21.4014 11.5699 21.1563C11.6693 20.9611 11.7351 20.7506 11.7645 20.5335C11.8098 20.3481 11.8098 20.1545 11.7645 19.9691C11.7303 19.8748 11.7303 19.7715 11.7645 19.6772C11.7861 19.6357 11.8181 19.6005 11.8573 19.5749C11.8965 19.5493 11.9416 19.5343 11.9883 19.5313C12.101 19.5137 12.2163 19.5306 12.3192 19.5799C12.4742 19.6734 12.6071 19.7996 12.7084 19.9497C12.827 20.0989 12.9131 20.2713 12.9614 20.4557C12.9648 20.5783 12.945 20.7005 12.903 20.8158C12.8677 20.9559 12.8481 21.0995 12.8446 21.2439C12.836 21.6711 12.7294 22.0905 12.5332 22.47C12.3133 22.8746 12.0117 23.2292 11.6477 23.5112C11.2257 23.8433 10.7177 24.0481 10.1834 24.1015C9.64902 24.155 9.11052 24.0548 8.63111 23.8129C8.11247 23.5429 7.69828 23.1081 7.45366 22.5771C7.22237 22.0891 7.12498 21.5484 7.17146 21.0104C7.1923 20.611 7.29498 20.2202 7.47313 19.8621Z" fill="white"/>
<path d="M12.1629 15.7347C12.4467 15.3767 12.8341 15.115 13.2722 14.9854C13.5883 14.8962 13.9211 14.8841 14.2428 14.9501C14.5646 15.0162 14.8657 15.1584 15.1211 15.3649C15.3415 15.556 15.5131 15.797 15.6214 16.0679C15.7297 16.3387 15.7717 16.6315 15.7439 16.9219C15.7265 17.5518 15.4928 18.1566 15.0822 18.6345C14.7381 19.0828 14.2378 19.3851 13.6809 19.4811C13.425 19.5143 13.165 19.4924 12.9183 19.4169C12.6716 19.3414 12.4439 19.214 12.2505 19.0432C12.0198 18.861 11.8335 18.6288 11.7054 18.3642C11.5773 18.0996 11.5108 17.8094 11.5109 17.5155C11.5036 16.8622 11.7355 16.2288 12.1629 15.7347ZM12.6689 16.5716C12.6329 16.612 12.607 16.6605 12.5935 16.713C12.5799 16.7655 12.5791 16.8204 12.591 16.8732C12.6185 16.9935 12.6874 17.1003 12.7857 17.1749C12.9645 17.3061 13.1532 17.4232 13.3501 17.5252C13.5757 17.6433 13.8099 17.7441 14.0507 17.8269C14.1363 17.8691 14.2335 17.8814 14.327 17.862C14.4204 17.8426 14.5047 17.7926 14.5664 17.7198C14.7124 17.5447 14.6735 17.3501 14.4399 17.1652C14.2418 17.0026 14.0265 16.8622 13.7977 16.7467C13.582 16.6273 13.3535 16.5327 13.1165 16.4645C13.0396 16.4367 12.9562 16.4319 12.8767 16.451C12.7971 16.47 12.7249 16.5119 12.6689 16.5716Z" fill="white"/>
<path d="M18.8198 11.58L19.7443 12.6407C19.7918 12.7073 19.8554 12.7608 19.9291 12.7964C20.0528 12.8327 20.1801 12.8556 20.3087 12.8645C20.3717 12.8805 20.4269 12.9184 20.4644 12.9715C20.5214 13.0398 20.5526 13.1259 20.5526 13.2148C20.5526 13.3037 20.5214 13.3898 20.4644 13.4581C20.2328 13.7568 19.961 14.0221 19.6567 14.2463C19.4609 14.4265 19.2332 14.5684 18.9852 14.6647C18.9172 14.6892 18.8433 14.692 18.7737 14.6729C18.704 14.6537 18.6419 14.6135 18.596 14.5577C18.5697 14.5275 18.5527 14.4903 18.5473 14.4506C18.5388 14.3698 18.5388 14.2882 18.5473 14.2074C18.5473 14.0517 18.3625 13.7305 17.9635 13.2343C17.8029 13.0061 17.5935 12.8166 17.3504 12.6796C17.2797 12.6471 17.2007 12.6371 17.1241 12.6511C17.0475 12.665 16.977 12.7021 16.9223 12.7575C16.8616 12.7943 16.8128 12.8479 16.7818 12.9117C16.7507 12.9755 16.7387 13.047 16.7471 13.1175C16.8035 13.3253 16.9105 13.5158 17.0585 13.6722L17.5548 14.2852C17.6221 14.3697 17.6971 14.4479 17.7786 14.5188C17.898 14.574 18.0217 14.6196 18.1484 14.655C18.202 14.6787 18.2489 14.7155 18.2846 14.762C18.3819 14.8788 18.3722 15.0345 18.2846 15.2388C18.0846 15.5186 17.8415 15.7649 17.5645 15.9687C16.9807 16.426 16.5914 16.5428 16.4065 16.3093C16.376 16.2682 16.353 16.222 16.3384 16.173C16.3291 16.1019 16.3291 16.03 16.3384 15.9589C16.3629 15.8863 16.3629 15.8077 16.3384 15.7351C16.2666 15.5924 16.1784 15.4585 16.0757 15.3362C15.9005 15.0832 15.7059 14.8301 15.5016 14.5674C15.4307 14.4673 15.3416 14.3814 15.2388 14.3144C15.1335 14.2872 15.023 14.2872 14.9177 14.3144C14.8633 14.3238 14.8074 14.3199 14.7549 14.303C14.7023 14.286 14.6547 14.2566 14.616 14.2171C14.5865 14.1752 14.5668 14.1272 14.5583 14.0767C14.5499 14.0262 14.553 13.9743 14.5674 13.9252C14.6386 13.7264 14.7333 13.537 14.8496 13.3608C14.9923 13.1272 15.1383 12.9131 15.2875 12.7185C15.3772 12.5784 15.4852 12.4507 15.6086 12.339C15.6364 12.315 15.6691 12.2974 15.7043 12.2873C15.7396 12.2772 15.7767 12.2749 15.8129 12.2806C15.8509 12.2844 15.8878 12.2958 15.9212 12.3142C15.9547 12.3326 15.9841 12.3576 16.0076 12.3877L16.0757 12.4655V12.5142C16.1535 12.6115 16.2314 12.6309 16.319 12.5628C16.4065 12.4947 16.3871 12.4461 16.3871 12.3196C16.3783 12.1314 16.4165 11.944 16.498 11.7741C16.5795 11.6043 16.7019 11.4574 16.8542 11.3465C17.0858 11.1404 17.3813 11.0201 17.691 11.0059C17.8811 10.9938 18.0706 11.0378 18.236 11.1324C18.4527 11.2503 18.6496 11.4014 18.8198 11.58Z" fill="white"/>
<path d="M23.4606 7.56088C23.8665 7.37962 24.3187 7.32863 24.7548 7.41492C24.9278 7.43207 25.0931 7.49529 25.2334 7.59797C25.3738 7.70065 25.484 7.83905 25.5527 7.99879C25.5959 8.0952 25.6183 8.19966 25.6183 8.30532C25.6183 8.41097 25.5959 8.51543 25.5527 8.61184C25.4637 8.79059 25.3109 8.92947 25.1246 9.00108C25.0399 9.04883 24.9444 9.07392 24.8472 9.07392C24.7501 9.07392 24.6545 9.04883 24.5699 9.00108C24.4671 8.90902 24.3727 8.80808 24.2877 8.69942C24.2338 8.61689 24.1526 8.55602 24.0582 8.52753C23.9639 8.49905 23.8625 8.50478 23.7719 8.54372C23.7055 8.57207 23.6469 8.61609 23.6011 8.67201C23.5554 8.72793 23.5239 8.7941 23.5092 8.86486C23.452 9.02198 23.452 9.19428 23.5092 9.35141C23.5667 9.49896 23.6532 9.6335 23.7635 9.74714C23.8738 9.86078 24.0057 9.95122 24.1515 10.0131C24.2702 10.0687 24.3998 10.0975 24.531 10.0975C24.6621 10.0975 24.7917 10.0687 24.9105 10.0131C25.0159 9.97132 25.117 9.91917 25.2121 9.85741C25.3117 9.77595 25.406 9.68821 25.4943 9.59468C25.5174 9.55877 25.5516 9.5314 25.5917 9.51682C25.6346 9.49806 25.681 9.4884 25.7279 9.4884C25.7748 9.4884 25.8211 9.49806 25.8641 9.51682C25.9591 9.56918 26.0343 9.6512 26.0782 9.75035C26.122 9.88306 26.122 10.0264 26.0782 10.1591C26.0358 10.3282 25.9597 10.4871 25.8544 10.6262C25.6049 10.9651 25.2687 11.2306 24.8813 11.3949C24.4105 11.5974 23.8837 11.6284 23.3924 11.4825C23.1063 11.4012 22.8427 11.2555 22.6217 11.0564C22.4007 10.8574 22.2283 10.6103 22.1177 10.3342C22.0082 10.0697 21.9584 9.78435 21.9719 9.4984C21.9853 9.21246 22.0617 8.93301 22.1955 8.67997C22.4628 8.16219 22.9141 7.76303 23.4606 7.56088Z" fill="white"/>
<path d="M28.2204 6.12077C28.6651 6.01718 29.1311 6.05458 29.5536 6.22779C29.8502 6.35361 30.1134 6.54688 30.3223 6.79221C30.5405 7.04205 30.6913 7.34351 30.7602 7.66799C30.8206 7.95338 30.8096 8.24929 30.7281 8.5294C30.6466 8.8095 30.4972 9.06513 30.2931 9.27359C29.8931 9.76728 29.3373 10.1104 28.7167 10.2467C28.1659 10.393 27.5798 10.3197 27.0819 10.0423C26.8618 9.90976 26.6725 9.73186 26.5266 9.52046C26.3806 9.30905 26.2813 9.06898 26.2353 8.81623C26.1653 8.52972 26.1613 8.23104 26.2237 7.94277C26.2861 7.6545 26.4132 7.3842 26.5953 7.15225C26.9897 6.61807 27.5692 6.25026 28.2204 6.12077ZM28.1523 4.36918C28.3708 4.32616 28.5955 4.32616 28.814 4.36918C28.906 4.37645 28.9939 4.41026 29.067 4.46649C29.0964 4.48497 29.1219 4.5091 29.142 4.5375C29.162 4.56589 29.1762 4.598 29.1838 4.63193C29.1838 4.75843 29.1254 4.92384 28.9405 5.12819C28.637 5.50801 28.2101 5.76966 27.7339 5.86775C27.4679 5.92614 27.3122 5.85803 27.2668 5.66341C27.2514 5.60935 27.2514 5.55204 27.2668 5.49797C27.3246 5.40845 27.3897 5.32385 27.4614 5.24499C27.5244 5.17751 27.5829 5.106 27.6365 5.0309C27.6501 4.99651 27.6501 4.95824 27.6365 4.92385C27.622 4.88361 27.5987 4.84708 27.5684 4.81682C27.5684 4.81682 27.5684 4.81682 27.5684 4.75844C27.5684 4.70005 27.5684 4.63192 27.7144 4.56381C27.8474 4.47302 27.9958 4.40707 28.1523 4.36918ZM28.0939 7.09386C28.0418 7.10361 27.9926 7.1254 27.9504 7.1575C27.9081 7.1896 27.874 7.23112 27.8506 7.27875C27.8056 7.39454 27.8056 7.52301 27.8506 7.6388C27.9014 7.8542 27.9765 8.06312 28.0745 8.26156C28.1741 8.4957 28.2946 8.72041 28.4345 8.933C28.4741 9.0198 28.5416 9.09089 28.6262 9.13497C28.7108 9.17904 28.8077 9.19356 28.9016 9.17628C29.1254 9.17628 29.213 8.95246 29.1546 8.66054C29.0946 8.40947 29.0099 8.165 28.9016 7.93071C28.8091 7.70229 28.6882 7.48649 28.5415 7.28847C28.4967 7.21327 28.4293 7.15405 28.349 7.11914C28.2687 7.08422 28.1795 7.07539 28.0939 7.09386Z" fill="white"/>
<path d="M36.219 6.67584L36.1412 8.02843C36.1259 8.16871 36.1604 8.30988 36.2385 8.4274C36.2712 8.47551 36.3145 8.51546 36.3652 8.54414C36.4158 8.57282 36.4723 8.58949 36.5304 8.59284C36.6769 8.58595 36.8199 8.546 36.9488 8.47605C36.9686 8.46656 36.9902 8.46164 37.0121 8.46164C37.034 8.46164 37.0556 8.46656 37.0753 8.47605C37.1337 8.47605 37.1921 8.47605 37.2408 8.60255C37.2871 8.67866 37.3108 8.76646 37.3089 8.85557C37.2954 8.94933 37.2614 9.03896 37.2093 9.11803C37.1571 9.1971 37.0881 9.26365 37.0072 9.31292C36.6055 9.61537 36.1072 9.76069 35.606 9.72161C35.2391 9.70724 34.8913 9.55425 34.6329 9.29347C34.5122 9.1638 34.4203 9.01004 34.3633 8.84232C34.3062 8.67461 34.2854 8.49674 34.302 8.32038L34.4188 6.47147C34.4269 6.43297 34.4269 6.3932 34.4188 6.3547H34.302H33.8933C33.8155 6.3547 33.7668 6.35471 33.7473 6.30606C33.7288 6.24915 33.7288 6.18782 33.7473 6.13091V5.95573C33.7481 5.91969 33.7585 5.88451 33.7773 5.85375C33.7961 5.82299 33.8227 5.79774 33.8544 5.78058L35.7519 4.73936C35.8064 4.72751 35.8628 4.72751 35.9173 4.73936H36.2385C36.2898 4.74009 36.3388 4.76107 36.3747 4.79774C36.3941 4.85785 36.3941 4.92252 36.3747 4.98263V5.51785C36.3747 5.5957 36.3747 5.65409 36.3747 5.67355C36.3956 5.69244 36.4203 5.70658 36.4472 5.71498C36.4741 5.72338 36.5025 5.72583 36.5304 5.7222L37.27 5.77084C37.3047 5.76597 37.3401 5.76866 37.3737 5.77874C37.4072 5.78882 37.4383 5.80604 37.4646 5.82922C37.4798 5.90633 37.4798 5.98568 37.4646 6.06279V6.29632C37.4678 6.38865 37.4441 6.47991 37.3964 6.55904C37.3684 6.58612 37.3345 6.60635 37.2974 6.61817C37.2603 6.62999 37.2209 6.63307 37.1824 6.62717L36.4623 6.57853C36.4113 6.56443 36.3575 6.56443 36.3066 6.57853C36.2696 6.60305 36.2395 6.63653 36.219 6.67584Z" fill="white"/>
<path d="M40.17 6.49033L39.7321 8.76737C39.7157 8.90311 39.7157 9.04032 39.7321 9.17606C39.7634 9.27722 39.8165 9.37025 39.8878 9.44852C39.9464 9.49538 39.9931 9.55541 40.0241 9.6237C40.0395 9.67777 40.0395 9.73505 40.0241 9.78911C39.956 10.1297 39.4986 10.2173 38.6423 10.0519C38.2696 9.99322 37.9063 9.88521 37.5621 9.73073C37.4785 9.69728 37.4096 9.6352 37.3675 9.55558C37.3512 9.5171 37.3428 9.47574 37.3428 9.43394C37.3428 9.39215 37.3512 9.35078 37.3675 9.3123C37.3699 9.25369 37.3942 9.19811 37.4356 9.1566C37.5151 9.09464 37.6038 9.0454 37.6984 9.01065C37.799 8.9491 37.8774 8.85704 37.9222 8.74789C38.0009 8.554 38.0564 8.3515 38.0876 8.14458C38.0876 8.057 38.0876 7.9013 38.1655 7.65803C38.2433 7.41475 38.2141 7.27853 38.2141 7.2396C38.2152 7.17942 38.1994 7.12014 38.1684 7.06852C38.1374 7.0169 38.0926 6.97504 38.0389 6.94769C37.9756 6.91312 37.9241 6.86029 37.8911 6.79608C37.8582 6.73188 37.8452 6.65925 37.8541 6.58761C37.8541 6.42219 38.0195 6.3249 38.2433 6.27625C38.5652 6.22099 38.8902 6.18523 39.2164 6.16919C39.4819 6.14619 39.7489 6.14619 40.0143 6.16919C40.1506 6.2146 40.2025 6.32166 40.17 6.49033ZM39.7127 4.61223C39.9048 4.64425 40.0856 4.72464 40.2382 4.84579C40.2916 4.89168 40.3316 4.9512 40.3539 5.01803C40.3762 5.08487 40.3799 5.1565 40.3647 5.22529C40.3455 5.32556 40.299 5.41861 40.2303 5.49416C40.1616 5.5697 40.0734 5.62482 39.9754 5.65345C39.5826 5.78202 39.1624 5.80219 38.759 5.71183C38.6026 5.68295 38.4555 5.61614 38.3309 5.51723C38.2682 5.46481 38.2206 5.39652 38.1933 5.31951C38.1659 5.2425 38.1596 5.15957 38.1752 5.07933C38.2141 4.85227 38.4087 4.70629 38.759 4.64142C39.0631 4.57771 39.376 4.56783 39.6835 4.61223H39.7127Z" fill="white"/>
<path d="M44.0517 9.67384L42.271 9.07052C42.1931 9.07052 42.1444 9.08998 42.125 9.12891C42.0994 9.2234 42.0957 9.32249 42.1142 9.41862C42.1328 9.51476 42.1731 9.6054 42.232 9.68358C42.3447 9.87575 42.5199 10.0234 42.7283 10.102C42.8677 10.142 43.0115 10.1648 43.1565 10.1701C43.297 10.1731 43.4374 10.16 43.5749 10.1312C43.6513 10.1101 43.732 10.1101 43.8084 10.1312C43.8468 10.1507 43.8805 10.1781 43.9073 10.2117C43.9342 10.2452 43.9535 10.2842 43.9641 10.3258C43.9932 10.4176 43.9932 10.5162 43.9641 10.608C43.9117 10.7103 43.8374 10.7999 43.7467 10.8705C43.6559 10.9412 43.5508 10.991 43.4387 11.0167C42.9404 11.1872 42.3995 11.1872 41.9012 11.0167C41.4097 10.8668 40.9906 10.5412 40.7237 10.102C40.5995 9.88487 40.5138 9.6478 40.4707 9.40137C40.4208 9.0747 40.4508 8.74079 40.5583 8.42827C40.6995 8.02476 40.9741 7.68149 41.3368 7.45518C41.6526 7.2354 42.0231 7.10741 42.4072 7.0854C42.7071 7.06723 43.0077 7.10687 43.2927 7.20216C43.7441 7.33688 44.1314 7.63077 44.3826 8.0293C44.5016 8.21999 44.5841 8.4312 44.6258 8.6521C44.6853 8.87526 44.6853 9.11008 44.6258 9.33325C44.5838 9.47819 44.499 9.60708 44.3826 9.70303C44.3297 9.72776 44.2713 9.73809 44.2132 9.73296C44.1551 9.72784 44.0994 9.70744 44.0517 9.67384ZM43.9544 5.35329C44.0937 5.42424 44.2139 5.52771 44.3047 5.65494C44.4708 5.83601 44.6206 6.03139 44.7524 6.23881C44.8493 6.38052 44.934 6.53026 45.0054 6.68642C45.0384 6.77087 45.0384 6.86473 45.0054 6.94918C44.994 6.98667 44.9753 7.02148 44.9502 7.05157C44.9251 7.08166 44.8942 7.10642 44.8594 7.12433C44.8244 7.14081 44.7862 7.14936 44.7475 7.14936C44.7088 7.14936 44.6706 7.14081 44.6356 7.12433C44.4251 7.01835 44.2394 6.86912 44.0906 6.68642C44.0006 6.60384 43.9064 6.5259 43.8084 6.45289C43.7474 6.39507 43.6786 6.34596 43.6041 6.30693C43.4016 6.26756 43.1935 6.26756 42.991 6.30693C42.7798 6.35665 42.56 6.35665 42.3488 6.30693C42.3089 6.29513 42.2719 6.27519 42.2401 6.2484C42.2083 6.2216 42.1823 6.18853 42.1639 6.15123C42.147 6.1129 42.1383 6.07148 42.1383 6.02959C42.1383 5.98771 42.147 5.94629 42.1639 5.90796C42.2036 5.80612 42.28 5.72282 42.378 5.67442C42.5582 5.57871 42.7472 5.50049 42.9424 5.44086C43.266 5.32259 43.6153 5.29237 43.9544 5.35329ZM42.6018 8.38934L42.9813 8.52559C43.1467 8.52559 43.2538 8.5256 43.3024 8.37963C43.3511 8.26118 43.3511 8.12831 43.3024 8.00985C43.2757 7.95118 43.2362 7.89912 43.187 7.85745C43.1378 7.81577 43.08 7.78551 43.0177 7.76877C42.9554 7.75204 42.8902 7.74927 42.8267 7.76067C42.7632 7.77206 42.703 7.79735 42.6505 7.8347C42.5472 7.89763 42.4683 7.99367 42.4266 8.10717C42.4122 8.13409 42.4046 8.16417 42.4046 8.19474C42.4046 8.22531 42.4122 8.2554 42.4266 8.28232C42.4707 8.33737 42.5327 8.37524 42.6018 8.38934ZM46.1244 5.11001C46.332 5.18073 46.5261 5.28601 46.6985 5.42141C46.7725 5.47849 46.8324 5.55172 46.8737 5.63549C46.8879 5.66768 46.8952 5.70246 46.8952 5.73765C46.8952 5.77283 46.8879 5.80764 46.8737 5.83983C46.8737 5.95661 46.6791 6.05392 46.4163 6.15123C45.9563 6.31141 45.4557 6.31141 44.9956 6.15123C44.7426 6.06365 44.6453 5.92743 44.7037 5.73281C44.7197 5.67767 44.754 5.62961 44.801 5.59656L45.0929 5.47979L45.3557 5.38248C45.3732 5.37722 45.3889 5.36711 45.4009 5.35334C45.413 5.33957 45.4209 5.32271 45.4238 5.30464C45.4379 5.26365 45.4379 5.21913 45.4238 5.17813C45.4192 5.15894 45.4192 5.13895 45.4238 5.11975C45.4238 5.05163 45.5211 5.02243 45.6476 5.0127C45.8138 5.01972 45.978 5.05256 46.1341 5.11001H46.1244Z" fill="white"/>
<path d="M49.3453 11.6867L48.6933 12.942C48.6504 13.0096 48.6237 13.0862 48.6155 13.1658C48.6306 13.2936 48.6533 13.4203 48.6836 13.5453C48.6974 13.5742 48.7046 13.6058 48.7046 13.6378C48.7046 13.6698 48.6974 13.7014 48.6836 13.7302C48.6375 13.8056 48.5671 13.8631 48.4839 13.8931C48.4008 13.9232 48.3099 13.9241 48.2263 13.8956C47.8619 13.7854 47.5148 13.6249 47.1948 13.4188C46.9568 13.3037 46.7423 13.1453 46.5623 12.9517C46.5203 12.8937 46.4977 12.8239 46.4977 12.7523C46.4977 12.6806 46.5203 12.6108 46.5623 12.5528C46.5805 12.5144 46.6114 12.4834 46.6498 12.4652C46.7219 12.4298 46.7967 12.4005 46.8736 12.3776C47.0293 12.3776 47.2532 12.037 47.5743 11.4921C47.7265 11.2566 47.8261 10.9911 47.8662 10.7136C47.8696 10.6368 47.8502 10.5606 47.8104 10.4948C47.7705 10.429 47.7121 10.3765 47.6424 10.3438C47.5806 10.307 47.51 10.2875 47.438 10.2875C47.3661 10.2875 47.2955 10.307 47.2337 10.3438C47.0651 10.4772 46.9287 10.6468 46.8347 10.8401L46.4455 11.531C46.3865 11.6214 46.3406 11.7197 46.3092 11.8229C46.2988 11.9525 46.2988 12.0827 46.3092 12.2122C46.3237 12.2664 46.3237 12.3234 46.3092 12.3776C46.2314 12.5138 46.0757 12.5625 45.8519 12.5236C45.5077 12.4357 45.1794 12.2945 44.8788 12.1051C44.2268 11.7451 43.9836 11.424 44.1392 11.132C44.1615 11.0857 44.195 11.0456 44.2365 11.0153C44.3075 11.0042 44.3797 11.0042 44.4506 11.0153C44.5268 11.0105 44.599 10.9796 44.655 10.9277C44.7571 10.804 44.8513 10.674 44.9372 10.5385C45.0994 10.2855 45.2648 10.013 45.4335 9.72104C45.5067 9.61969 45.5565 9.5034 45.5794 9.38048C45.5679 9.27294 45.5312 9.16961 45.4724 9.07882C45.4468 9.03091 45.4335 8.97743 45.4335 8.92313C45.4335 8.86882 45.4468 8.81534 45.4724 8.76743C45.4975 8.72185 45.5341 8.68355 45.5784 8.65627C45.6227 8.62899 45.6734 8.61364 45.7254 8.61173C45.9378 8.60475 46.1503 8.62436 46.3579 8.67011L47.1072 8.83555C47.2719 8.87254 47.4318 8.92802 47.584 9.00096C47.6163 9.01952 47.6443 9.04474 47.6661 9.07493C47.6879 9.10513 47.703 9.13962 47.7105 9.17611C47.7392 9.24795 47.7392 9.32809 47.7105 9.39993L47.6619 9.47777V9.52644C47.6035 9.64321 47.6132 9.72107 47.6619 9.77946C47.7105 9.83784 47.7981 9.77946 47.9149 9.77946C48.0907 9.69687 48.2844 9.65981 48.4782 9.67172C48.6721 9.68362 48.8598 9.74408 49.0242 9.84755C49.2969 9.99624 49.5151 10.2281 49.647 10.5093C49.7264 10.6827 49.7567 10.8745 49.7346 11.0639C49.6348 11.2888 49.5038 11.4985 49.3453 11.6867Z" fill="white"/>
<path d="M55.6417 13.6625L54.4545 14.6842L54.3864 14.7426C54.3864 14.7426 54.3864 14.8107 54.3864 14.8399C54.4475 14.851 54.5101 14.851 54.5713 14.8399C54.9455 14.8875 55.2905 15.0669 55.5444 15.3459C55.7915 15.6092 55.9275 15.9578 55.9239 16.319C55.918 16.5656 55.8604 16.8083 55.7548 17.0312C55.6492 17.2542 55.4979 17.4525 55.3108 17.6132C55.037 17.8638 54.7083 18.0467 54.3511 18.1473C53.9938 18.2479 53.618 18.2633 53.2537 18.1923C52.8894 18.1214 52.5468 17.966 52.2535 17.7387C51.9601 17.5114 51.7241 17.2184 51.5644 16.8834C51.4511 16.6325 51.3725 16.3673 51.3308 16.0952C51.3308 16.0952 51.3308 16.0174 51.3308 16.0076C51.2627 15.9523 51.1874 15.9065 51.107 15.8714C51.0295 15.8377 50.9623 15.7839 50.9124 15.7157C50.8054 15.5989 50.7859 15.5016 50.8638 15.4335C50.8903 15.4034 50.9237 15.38 50.9611 15.3654C51.1556 15.2661 51.3384 15.1454 51.506 15.0053C51.7103 14.8496 52.012 14.5772 52.4207 14.1977L53.2381 13.4581C53.3689 13.3453 53.4864 13.218 53.5884 13.0786C53.608 13.0411 53.6183 12.9993 53.6183 12.957C53.6183 12.9146 53.608 12.8729 53.5884 12.8353C53.5488 12.7292 53.5258 12.6176 53.5203 12.5045C53.5319 12.4262 53.5696 12.3542 53.6274 12.3001C53.7636 12.1736 54.0166 12.2028 54.4058 12.3682C54.6527 12.4803 54.8874 12.6173 55.1065 12.7769C55.3297 12.925 55.5354 13.0981 55.7195 13.2927C55.7587 13.3116 55.7904 13.3431 55.8096 13.3821C55.8288 13.4211 55.8343 13.4655 55.8254 13.508C55.8164 13.5506 55.7934 13.5889 55.7601 13.6169C55.7268 13.6449 55.6851 13.661 55.6417 13.6625ZM54.075 15.6087C54.038 15.5599 53.9889 15.5216 53.9326 15.4977C53.8762 15.4738 53.8146 15.4651 53.7539 15.4724C53.6091 15.5255 53.479 15.6122 53.3744 15.7254C53.0513 16.0052 52.7519 16.3112 52.4791 16.6401C52.4491 16.6692 52.4252 16.704 52.4089 16.7424C52.3926 16.7809 52.3842 16.8222 52.3842 16.864C52.3842 16.9057 52.3926 16.9471 52.4089 16.9855C52.4252 17.024 52.4491 17.0587 52.4791 17.0878C52.5367 17.158 52.6128 17.2107 52.6987 17.2399C52.7847 17.2692 52.8772 17.2738 52.9656 17.2532C53.2057 17.1833 53.4236 17.0526 53.5982 16.8737C53.8793 16.6516 54.0808 16.3443 54.1723 15.9979C54.1899 15.9254 54.1903 15.8498 54.1734 15.7771C54.1565 15.7044 54.1228 15.6367 54.075 15.5795V15.6087Z" fill="white"/>
<path d="M54.7068 21.8075C54.8054 21.9459 54.8503 22.1153 54.8333 22.2843C54.8213 22.3572 54.7933 22.4264 54.7512 22.487C54.7091 22.5476 54.6541 22.598 54.59 22.6347C54.4998 22.6868 54.3974 22.7142 54.2932 22.7142C54.189 22.7142 54.0867 22.6868 53.9964 22.6347C53.7077 22.4945 53.4647 22.2752 53.2958 22.0022C53.2069 21.8709 53.1688 21.7118 53.1888 21.5545C53.2026 21.4824 53.2313 21.4139 53.2733 21.3536C53.3152 21.2933 53.3693 21.2424 53.432 21.2042C53.5144 21.1536 53.6074 21.1229 53.7036 21.1145C53.7999 21.106 53.8968 21.1201 53.9867 21.1556C54.1352 21.2182 54.2731 21.3036 54.3954 21.4086C54.5205 21.5234 54.6257 21.6583 54.7068 21.8075ZM58.3462 19.2385C58.5907 19.6248 58.7129 20.0759 58.6965 20.5328C58.6781 20.8547 58.5848 21.1679 58.424 21.4475C58.2602 21.7352 58.0258 21.9763 57.7428 22.1481C57.4936 22.3013 57.2103 22.3904 56.9182 22.4074C56.6262 22.4244 56.3344 22.3687 56.0691 22.2454C55.4838 22.0202 54.9906 21.6057 54.6679 21.068C54.3431 20.6003 54.2172 20.0228 54.3175 19.4624C54.3665 19.2095 54.4691 18.97 54.6185 18.7602C54.7679 18.5503 54.9606 18.375 55.1836 18.246C55.4334 18.0895 55.7147 17.9901 56.0074 17.9548C56.3 17.9195 56.5969 17.9491 56.8768 18.0417C57.5033 18.2511 58.0279 18.6889 58.3462 19.2678V19.2385ZM57.3731 19.4526C57.3489 19.4027 57.3117 19.3601 57.2656 19.3293C57.2194 19.2985 57.1658 19.2806 57.1103 19.2775C56.9867 19.2617 56.8617 19.2929 56.76 19.3651C56.579 19.4889 56.4096 19.629 56.254 19.7835C56.0686 19.9588 55.8962 20.1474 55.7383 20.3479C55.6704 20.4136 55.6267 20.5003 55.6143 20.5939C55.602 20.6875 55.6216 20.7826 55.6701 20.8636C55.7967 21.068 55.9816 21.0875 56.2443 20.9318C56.4624 20.7956 56.6648 20.6357 56.8476 20.4549C57.0292 20.2944 57.1895 20.1113 57.3244 19.91C57.3738 19.8516 57.4062 19.7809 57.4183 19.7054C57.4303 19.63 57.4214 19.5526 57.3925 19.4818L57.3731 19.4526ZM59.8156 18.1098C59.8798 18.2499 59.9098 18.4034 59.9031 18.5574C59.9263 18.8001 59.9263 19.0445 59.9031 19.2872C59.8905 19.4615 59.8612 19.6343 59.8156 19.803C59.791 19.8907 59.7358 19.9667 59.6599 20.017C59.6248 20.0335 59.5866 20.0421 59.5479 20.0421C59.5093 20.0421 59.471 20.0335 59.436 20.017C59.3978 20.0109 59.3614 19.9964 59.3294 19.9745C59.2975 19.9526 59.2707 19.9239 59.2512 19.8905C59.1608 19.6711 59.1113 19.4369 59.1052 19.1996C59.0937 19.0817 59.0741 18.9646 59.0468 18.8493C59.0397 18.7646 59.0166 18.6821 58.9787 18.606C58.8393 18.4554 58.6746 18.3302 58.4921 18.2363C58.2925 18.1436 58.1163 18.0073 57.9764 17.8373C57.9603 17.8005 57.952 17.7607 57.952 17.7205C57.952 17.6803 57.9603 17.6406 57.9764 17.6038C58.0018 17.5215 58.0575 17.452 58.1321 17.4092C58.2327 17.3727 58.3429 17.3727 58.4435 17.4092C58.6449 17.4469 58.8409 17.509 59.0273 17.594C59.3404 17.7002 59.6194 17.8884 59.835 18.139L59.8156 18.1098Z" fill="white"/>
<path d="M17.5054 51.8766C17.7899 52.1486 18.0094 52.4812 18.1476 52.8497C18.1859 52.9695 18.2452 53.0816 18.3228 53.1806L18.5174 53.3168C18.5527 53.3351 18.5854 53.358 18.6147 53.385C18.6634 53.4364 18.6999 53.498 18.7218 53.5653C18.7437 53.6326 18.7503 53.704 18.7412 53.7742C18.7272 54.1917 18.5611 54.5897 18.2741 54.8932C18.1868 54.9993 18.0741 55.0817 17.9466 55.1327C17.819 55.1837 17.6807 55.2018 17.5443 55.1852C17.4008 55.1607 17.2684 55.0928 17.1648 54.9906C17.075 54.9159 17.0133 54.8129 16.9896 54.6986C16.9578 54.5675 16.9578 54.4308 16.9896 54.2997C17.0373 54.1305 17.0731 53.9581 17.0967 53.7839C17.1158 53.6614 17.1158 53.5367 17.0967 53.4141C17.0429 53.1275 16.8998 52.8652 16.688 52.6648C16.6041 52.5734 16.4989 52.5041 16.3817 52.4634C16.2645 52.4226 16.139 52.4116 16.0165 52.4313C15.7309 52.4787 15.4719 52.6272 15.2867 52.8497C14.9806 53.1688 14.7685 53.5661 14.6737 53.998C14.6095 54.2652 14.619 54.5448 14.7013 54.807C14.7835 55.0692 14.9354 55.3042 15.1407 55.4868C15.2992 55.6342 15.4798 55.7557 15.6759 55.8469C15.8483 55.9334 16.0378 55.9799 16.2306 55.9831C16.3298 55.9705 16.4302 55.9948 16.5128 56.0512C16.5479 56.0821 16.5737 56.1221 16.5875 56.1668C16.6012 56.2114 16.6023 56.259 16.5907 56.3042C16.5783 56.4167 16.5306 56.5223 16.4544 56.6059C16.3222 56.7294 16.1667 56.8253 15.9971 56.8881C15.8212 56.9596 15.6321 56.9928 15.4424 56.9854C15.3199 56.956 15.2042 56.9032 15.1018 56.8297C14.9774 56.7627 14.8471 56.7074 14.7126 56.6643C14.3032 56.5337 13.9278 56.3144 13.613 56.022C13.282 55.7045 13.0232 55.3195 12.854 54.8932C12.638 54.3834 12.5836 53.8196 12.6983 53.2779C12.7942 52.7326 13.0574 52.2307 13.4515 51.8419C13.8456 51.453 14.351 51.1965 14.8975 51.1079C15.4275 51.0194 15.9714 51.0731 16.4739 51.2636C16.8534 51.4009 17.2034 51.6089 17.5054 51.8766Z" fill="white"/>
<path d="M20.4347 56.08C20.7986 56.2888 21.0854 56.6096 21.2521 56.9947C21.323 57.1704 21.3498 57.3609 21.3299 57.5493C21.2811 57.7729 21.1885 57.9846 21.0575 58.1721L20.7364 58.6781C20.5804 58.9006 20.4621 59.1472 20.386 59.408C20.38 59.4532 20.38 59.499 20.386 59.5442C20.4229 59.5913 20.4654 59.6338 20.5125 59.6707C20.5379 59.7006 20.5518 59.7385 20.5518 59.7777C20.5518 59.8169 20.5379 59.8549 20.5125 59.8848C20.4293 60.0037 20.3098 60.0925 20.172 60.1378C20.0056 60.2061 19.826 60.236 19.6465 60.2254C19.426 60.2208 19.2109 60.157 19.0237 60.0405C18.9125 59.9811 18.8167 59.8964 18.744 59.7934C18.6714 59.6903 18.6238 59.5716 18.6053 59.4469C18.6053 59.3593 18.6053 59.3009 18.5274 59.2717C18.4507 59.2531 18.3706 59.2531 18.2939 59.2717C17.9528 59.3009 17.6115 59.219 17.3208 59.0382C17.0602 58.8889 16.8502 58.6653 16.7175 58.3959C16.6517 58.2358 16.625 58.0624 16.6396 57.8899C16.6511 57.7175 16.7045 57.5504 16.7953 57.4034C16.8697 57.2839 16.9692 57.1821 17.0868 57.1048C17.2044 57.0275 17.3373 56.9767 17.4765 56.9557C18.0401 56.8762 18.6125 57.0193 19.0724 57.3547C19.1535 57.4132 19.2465 57.453 19.3448 57.4715C19.3448 57.4715 19.4519 57.4131 19.5103 57.3158C19.6313 57.1475 19.7143 56.9549 19.7535 56.7514C19.7662 56.6918 19.7598 56.6297 19.7354 56.5738C19.711 56.518 19.6697 56.4712 19.6173 56.44C19.5509 56.3971 19.4724 56.3766 19.3935 56.3816C19.2763 56.4044 19.1621 56.4404 19.0529 56.4887C18.9146 56.5603 18.7611 56.5977 18.6053 56.5977C18.4495 56.5977 18.296 56.5603 18.1577 56.4887C18.1057 56.4598 18.0599 56.4208 18.0232 56.374C17.9864 56.3272 17.9594 56.2735 17.9436 56.2162C17.9295 56.1616 17.9274 56.1047 17.9375 56.0492C17.9476 55.9938 17.9696 55.9412 18.002 55.8951C18.0791 55.7766 18.1967 55.6901 18.3328 55.6518C18.5046 55.5926 18.6868 55.5694 18.868 55.5837C19.4248 55.6081 19.9653 55.7794 20.4347 56.08ZM18.9848 57.8996C18.8755 57.8558 18.7535 57.8558 18.6442 57.8996C18.5227 57.9358 18.4188 58.0155 18.3523 58.1235C18.2891 58.2146 18.2583 58.3242 18.2647 58.4349C18.2695 58.4824 18.2851 58.5282 18.3104 58.5686C18.3358 58.6091 18.37 58.6433 18.4107 58.6684C18.5955 58.7754 18.7804 58.6684 18.9653 58.3765C19.0253 58.2962 19.0653 58.2028 19.0821 58.104C19.0878 58.0641 19.0816 58.0235 19.0643 57.9871C19.047 57.9508 19.0193 57.9203 18.9848 57.8996ZM21.3008 54.4257C21.4198 54.5254 21.5132 54.6522 21.5732 54.7955C21.6909 55.0078 21.7917 55.2291 21.8749 55.4572C21.9365 55.6218 21.9853 55.791 22.0208 55.9632C22.0471 56.0488 22.0471 56.1403 22.0208 56.2259C21.9752 56.2898 21.9105 56.3375 21.836 56.3622C21.8005 56.3769 21.7625 56.3845 21.724 56.3845C21.6856 56.3845 21.6476 56.3769 21.6121 56.3622C21.4335 56.2055 21.2851 56.0176 21.1742 55.8075C21.1104 55.7018 21.0388 55.601 20.9602 55.5058C20.9125 55.4408 20.8569 55.382 20.7947 55.3307C20.6022 55.2571 20.3975 55.2207 20.1914 55.2236C19.9731 55.2251 19.7572 55.1786 19.5589 55.0874C19.522 55.0674 19.4899 55.0396 19.4647 55.006C19.4395 54.9724 19.4218 54.9338 19.4129 54.8928C19.4008 54.8072 19.4217 54.7203 19.4713 54.6495C19.5365 54.563 19.6291 54.5012 19.7341 54.4744C19.9321 54.4252 20.1339 54.3927 20.3374 54.377C20.6575 54.3122 20.9888 54.3289 21.3008 54.4257ZM22.4977 53.9002C22.6352 53.9778 22.7573 54.0801 22.8577 54.2019C22.9356 54.2992 22.955 54.377 22.9161 54.4354C22.894 54.4684 22.8638 54.4952 22.8285 54.5133L22.7701 54.5619C22.7629 54.5788 22.7592 54.597 22.7592 54.6154C22.7592 54.6338 22.7629 54.652 22.7701 54.669C22.7943 54.7581 22.8236 54.8459 22.8577 54.9317C22.9064 55.0263 22.9393 55.1282 22.955 55.2334C22.959 55.2895 22.9416 55.3451 22.9064 55.3891C22.7993 55.5545 22.6339 55.574 22.4004 55.3891C21.9897 55.1284 21.678 54.7379 21.5148 54.2797C21.4175 54.017 21.3981 53.8321 21.5148 53.7251C21.6316 53.618 21.7094 53.5791 21.9041 53.5986C22.1214 53.6649 22.3232 53.7741 22.4977 53.9197V53.9002Z" fill="white"/>
<path d="M26.371 60.4096L25.9233 61.7427C25.9078 61.8231 25.9078 61.9057 25.9233 61.986C25.954 62.1098 25.9964 62.2303 26.0498 62.346C26.0742 62.4053 26.0742 62.4717 26.0498 62.5309C26.0176 62.6121 25.9584 62.6796 25.8821 62.7221C25.8059 62.7646 25.7174 62.7796 25.6314 62.7645C25.2524 62.7167 24.8821 62.6151 24.5318 62.4628C24.2799 62.3851 24.0453 62.2595 23.8409 62.093C23.7839 62.048 23.7428 61.986 23.7235 61.916C23.7042 61.846 23.7079 61.7716 23.7339 61.7038C23.7459 61.6651 23.7697 61.631 23.802 61.6065L24.0161 61.4897C24.1523 61.4216 24.3372 61.0908 24.561 60.5166C24.6793 60.264 24.7391 59.9879 24.7361 59.709C24.7274 59.632 24.6958 59.5594 24.6456 59.5004C24.5953 59.4415 24.5286 59.3989 24.454 59.3781C24.3929 59.3391 24.322 59.3184 24.2496 59.3184C24.1772 59.3184 24.1063 59.3391 24.0452 59.3781C23.897 59.5304 23.7898 59.718 23.7339 59.923L23.4517 60.6626C23.4061 60.7611 23.3766 60.8662 23.3641 60.974C23.368 61.1056 23.3876 61.2363 23.4225 61.3632C23.4417 61.42 23.4417 61.4816 23.4225 61.5384C23.3738 61.6843 23.2279 61.7525 22.9943 61.7427C22.659 61.7027 22.3312 61.6141 22.0212 61.48C21.3336 61.2205 21.0416 60.948 21.1454 60.6626C21.1554 60.6125 21.1831 60.5676 21.2233 60.5361C21.2872 60.5001 21.356 60.4739 21.4276 60.4582C21.4647 60.4521 21.5001 60.4385 21.5318 60.4185C21.5636 60.3984 21.591 60.3723 21.6125 60.3415C21.6993 60.2055 21.7742 60.0622 21.8363 59.9133C21.9628 59.6311 22.0796 59.3392 22.1964 59.0278C22.2465 58.9167 22.2793 58.7985 22.2937 58.6775C22.267 58.5716 22.2134 58.4743 22.138 58.3953C22.1002 58.3565 22.0736 58.3082 22.0609 58.2556C22.0482 58.2029 22.0498 58.1478 22.0658 58.0961C22.0817 58.0443 22.1113 57.9978 22.1514 57.9614C22.1915 57.925 22.2406 57.9001 22.2937 57.8893C22.504 57.8676 22.7159 57.8676 22.9262 57.8893L23.7047 57.9379C23.8691 57.9527 24.0319 57.982 24.1912 58.0255C24.2276 58.0374 24.2606 58.0577 24.2877 58.0847C24.3147 58.1118 24.335 58.1448 24.3469 58.1812C24.3616 58.2167 24.3692 58.2547 24.3692 58.2931C24.3692 58.3315 24.3616 58.3695 24.3469 58.405C24.3522 58.4339 24.3522 58.4636 24.3469 58.4926C24.3427 58.5118 24.3427 58.5317 24.3469 58.551C24.2983 58.6678 24.3469 58.7456 24.4248 58.7845C24.4678 58.7921 24.512 58.7899 24.5541 58.7781C24.5962 58.7663 24.6352 58.7452 24.668 58.7164C24.8294 58.6032 25.0173 58.5339 25.2134 58.5151C25.4096 58.4964 25.6072 58.5288 25.7871 58.6094C26.0781 58.7116 26.3277 58.9065 26.4975 59.164C26.6005 59.3246 26.6608 59.5088 26.6726 59.6992C26.6113 59.9508 26.5094 60.1908 26.371 60.4096Z" fill="white"/>
<path d="M31.8978 59.856C32.0015 59.8519 32.1048 59.8719 32.1995 59.9144C32.2151 59.9479 32.2232 59.9844 32.2232 60.0214C32.2232 60.0584 32.2151 60.0949 32.1995 60.1285C32.1995 60.2258 32.1995 60.2744 32.2871 60.2842C32.3832 60.2503 32.4747 60.2045 32.5595 60.1479C32.6998 60.0689 32.8505 60.0099 33.0072 59.9728C33.1664 59.9348 33.3301 59.9185 33.4937 59.9241C33.8331 59.9422 34.153 60.0882 34.389 60.3328C34.5835 60.5305 34.73 60.7702 34.8171 61.0334C34.9175 61.3241 34.9604 61.6314 34.9436 61.9384C34.9364 62.2466 34.8642 62.5498 34.7318 62.8282C34.5993 63.1065 34.4095 63.3538 34.1749 63.5538C34.01 63.7053 33.8168 63.8229 33.6064 63.8997C33.396 63.9765 33.1725 64.0111 32.9488 64.0014C32.7068 63.9819 32.4715 63.9123 32.2579 63.797C32.2225 63.7904 32.1862 63.7904 32.1508 63.797C32.0632 63.797 32.0243 63.8749 32.0146 64.0306C32.0021 64.1178 32.0126 64.2068 32.045 64.2887C32.0774 64.3706 32.1307 64.4426 32.1995 64.4977C32.2808 64.5544 32.3558 64.6197 32.4233 64.6923C32.4411 64.7427 32.4411 64.7976 32.4233 64.848C32.4149 64.9288 32.3827 65.0052 32.3307 65.0676C32.2787 65.13 32.2093 65.1755 32.1314 65.1983C31.8882 65.2843 31.6287 65.3142 31.3724 65.2859C30.8451 65.2696 30.3301 65.1224 29.8738 64.8577C29.7856 64.8175 29.7106 64.7533 29.6572 64.6724C29.6039 64.5915 29.5744 64.4972 29.5721 64.4003C29.5694 64.3687 29.5732 64.3369 29.5833 64.3068C29.5933 64.2767 29.6094 64.2489 29.6305 64.2252C29.685 64.1712 29.7518 64.1311 29.8251 64.1084C29.8958 64.0796 29.958 64.0332 30.0056 63.9736C30.0533 63.914 30.085 63.8431 30.0976 63.7678C30.1819 63.2918 30.234 62.8107 30.2533 62.3277C30.2846 61.9586 30.2846 61.5874 30.2533 61.2183L30.0587 61.1599C29.9767 61.1458 29.9035 61.1005 29.8543 61.0334C29.8028 60.9671 29.7784 60.8836 29.7862 60.7999C29.7932 60.6966 29.8383 60.5995 29.9127 60.5274C30.023 60.4282 30.152 60.3521 30.2922 60.3036C30.7928 60.0504 31.3384 59.8983 31.8978 59.856ZM32.2092 61.3935L32.0827 62.4833C32.0875 62.5286 32.0875 62.5743 32.0827 62.6196C32.082 62.6589 32.0904 62.6978 32.1072 62.7332C32.1241 62.7687 32.149 62.7998 32.18 62.8239C32.2627 62.8817 32.3614 62.9123 32.4622 62.9115C32.832 62.9115 33.0363 62.639 33.0655 62.0357C33.1163 61.7433 33.0499 61.4427 32.8806 61.1989C32.8414 61.1483 32.7913 61.1072 32.734 61.0786C32.6767 61.0499 32.6138 61.0345 32.5498 61.0334C32.3357 61.0237 32.2287 61.1405 32.1995 61.3935H32.2092Z" fill="white"/>
<path d="M37.3177 58.4149L37.5124 60.0789C37.5124 60.2735 37.5902 60.3611 37.7459 60.3417C37.8043 60.3417 37.8627 60.2833 37.9113 60.186C37.9936 59.9903 38.1277 59.8208 38.2992 59.6956C38.4706 59.5704 38.673 59.4944 38.8844 59.4756C39.0676 59.436 39.2572 59.4364 39.4402 59.4767C39.6233 59.517 39.7955 59.5963 39.9451 59.7092C40.0748 59.8055 40.1785 59.9325 40.2468 60.0789C40.3329 60.2878 40.3918 60.507 40.4219 60.7309L40.6749 62.1516C40.6845 62.2476 40.7143 62.3405 40.7625 62.4241C40.8358 62.4954 40.9175 62.5575 41.0058 62.609C41.044 62.6273 41.0772 62.6545 41.1026 62.6884C41.1281 62.7223 41.1449 62.7618 41.1517 62.8036C41.2004 63.0955 40.7917 63.2999 39.9354 63.4264C39.079 63.5529 38.7676 63.4264 38.719 63.2026C38.7132 63.1671 38.7132 63.131 38.719 63.0955L38.826 62.8815C38.9217 62.5179 38.9217 62.1357 38.826 61.7721C38.8059 61.5105 38.7331 61.2556 38.6119 61.0228C38.5654 60.9296 38.4902 60.8537 38.3974 60.8064C38.3046 60.7591 38.199 60.7429 38.0962 60.7601C38.0261 60.7687 37.9592 60.7946 37.9014 60.8353C37.8437 60.8761 37.7969 60.9304 37.7654 60.9936C37.728 61.1537 37.728 61.3202 37.7654 61.4802L37.8821 62.2392C37.914 62.4304 37.9595 62.619 38.0184 62.8036C38.0746 62.8913 38.1473 62.9673 38.2324 63.0274C38.291 63.0726 38.3294 63.139 38.3395 63.2123C38.3395 63.514 38.0184 63.7183 37.2496 63.8351C36.3349 63.9713 35.8581 63.8838 35.8094 63.5724C35.7935 63.5184 35.7935 63.4609 35.8094 63.4069C35.8653 63.3307 35.9307 63.2621 36.0041 63.2026C36.1144 63.0186 36.1558 62.8013 36.1208 62.5895C36.0894 62.0679 36.0309 61.5482 35.9457 61.0326C35.8911 60.6366 35.8163 60.2436 35.7218 59.8551C35.7032 59.795 35.6735 59.7389 35.6343 59.6897C35.5833 59.6455 35.5236 59.6123 35.4591 59.5924C35.284 59.534 35.1867 59.4464 35.1672 59.3394C35.1575 59.2742 35.165 59.2076 35.1889 59.1462C35.2128 59.0848 35.2522 59.0306 35.3034 58.9891C35.5111 58.8385 35.7366 58.7143 35.9749 58.6193C36.3266 58.4474 36.6997 58.3231 37.0842 58.2495C37.2204 58.2203 37.2983 58.2787 37.3177 58.4149Z" fill="white"/>
<path d="M42.8646 58.3575C43.2536 58.1958 43.6862 58.1718 44.0907 58.2894C44.2748 58.3393 44.4425 58.4366 44.5772 58.5716C44.722 58.7467 44.831 58.9483 44.8984 59.1652L45.093 59.7296C45.1616 59.9902 45.2806 60.2348 45.4433 60.4497C45.492 60.4983 45.5309 60.5276 45.5601 60.5276C45.6181 60.5362 45.6772 60.5362 45.7352 60.5276C45.7544 60.5233 45.7743 60.523 45.7936 60.5266C45.8129 60.5302 45.8313 60.5377 45.8477 60.5486C45.864 60.5595 45.878 60.5736 45.8888 60.5901C45.8996 60.6065 45.9069 60.625 45.9104 60.6443C45.9538 60.7837 45.9538 60.9331 45.9104 61.0725C45.8593 61.2411 45.7731 61.397 45.6574 61.5298C45.5128 61.6983 45.329 61.8287 45.1222 61.9093C45.0066 61.9576 44.8814 61.9784 44.7564 61.9699C44.6314 61.9615 44.5101 61.9241 44.4021 61.8607C44.3734 61.8462 44.3418 61.8386 44.3096 61.8386C44.2775 61.8386 44.2459 61.8462 44.2172 61.8607C44.1685 61.8607 44.1102 61.9288 44.0518 62.0261C43.8706 62.2974 43.6032 62.4997 43.2928 62.6003C43.0155 62.7144 42.71 62.7415 42.417 62.6781C42.2497 62.6307 42.0962 62.5439 41.9694 62.4251C41.8417 62.3076 41.7448 62.1606 41.6871 61.9969C41.6412 61.8667 41.6236 61.7282 41.6353 61.5906C41.6471 61.4531 41.688 61.3195 41.7553 61.199C42.0473 60.7178 42.5148 60.3689 43.0592 60.2259C43.1596 60.205 43.2512 60.154 43.322 60.0799C43.322 60.0799 43.322 59.9631 43.322 59.8658C43.263 59.6632 43.1637 59.4745 43.03 59.3112C42.9908 59.264 42.9373 59.2309 42.8776 59.2169C42.8179 59.2028 42.7553 59.2086 42.6992 59.2333C42.626 59.2557 42.5637 59.3042 42.524 59.3696C42.4629 59.4727 42.417 59.5841 42.3878 59.7004C42.3654 59.8554 42.3059 60.0026 42.2144 60.1297C42.1229 60.2567 42.0021 60.3598 41.8623 60.4302C41.7522 60.4696 41.6318 60.4696 41.5217 60.4302C41.4702 60.4065 41.4238 60.3728 41.3854 60.3311C41.347 60.2893 41.3172 60.2403 41.2979 60.187C41.2497 60.0517 41.2497 59.9038 41.2979 59.7685C41.3592 59.5981 41.4553 59.4424 41.5801 59.3112C41.9207 58.8897 42.3626 58.5616 42.8646 58.3575ZM42.5045 56.6449C42.708 56.561 42.9269 56.5212 43.1468 56.5281C43.2378 56.5257 43.3281 56.5458 43.4095 56.5865C43.4437 56.6002 43.4745 56.6213 43.4997 56.6482C43.5249 56.6751 43.544 56.7072 43.5555 56.7422C43.5555 56.859 43.5555 57.0341 43.3901 57.2677C43.1312 57.6799 42.7401 57.9921 42.2807 58.1532C42.0277 58.2505 41.8623 58.1532 41.7942 58.0169C41.7756 57.9634 41.7756 57.9051 41.7942 57.8515C41.8359 57.7522 41.8881 57.6576 41.9499 57.5693C42.0094 57.4988 42.0585 57.4202 42.0958 57.3358C42.1031 57.3189 42.1068 57.3006 42.1068 57.2823C42.1068 57.2639 42.1031 57.2457 42.0958 57.2287L42.0083 57.1314C42.0041 57.1155 42.0041 57.0987 42.0083 57.0828C42.0083 57.0147 42.0083 56.9465 42.125 56.8687C42.2355 56.7697 42.3645 56.6936 42.5045 56.6449ZM43.3901 60.6249C43.3354 60.6453 43.286 60.6778 43.2456 60.7199C43.2051 60.762 43.1747 60.8127 43.1565 60.8681C43.1322 60.925 43.1196 60.9863 43.1196 61.0482C43.1196 61.11 43.1322 61.1713 43.1565 61.2282C43.1841 61.3381 43.2541 61.4325 43.3511 61.4909C43.3907 61.515 43.4362 61.5277 43.4825 61.5277C43.5288 61.5277 43.5743 61.515 43.6139 61.4909C43.8215 61.426 43.8604 61.2217 43.7307 60.8779C43.705 60.7813 43.6585 60.6917 43.5944 60.6151C43.5628 60.5976 43.5269 60.5893 43.4909 60.591C43.4548 60.5927 43.4199 60.6044 43.3901 60.6249Z" fill="white"/>
<path d="M47.5946 57.2967L48.2465 58.4838C48.3096 58.6079 48.4124 58.7072 48.5385 58.766C48.5913 58.7926 48.6496 58.8064 48.7087 58.8064C48.7679 58.8064 48.8262 58.7926 48.879 58.766C48.997 58.6759 49.0962 58.5635 49.171 58.4352C49.1899 58.3972 49.2206 58.3665 49.2585 58.3476C49.2893 58.3286 49.3246 58.3186 49.3607 58.3186C49.3968 58.3186 49.4322 58.3286 49.4629 58.3476C49.5465 58.381 49.6155 58.4431 49.6575 58.5228C49.6983 58.6095 49.7195 58.7042 49.7195 58.8001C49.7195 58.896 49.6983 58.9906 49.6575 59.0774C49.4778 59.5477 49.1314 59.9356 48.6844 60.1673C48.3607 60.3635 47.9734 60.4263 47.6043 60.3425C47.4331 60.2987 47.2733 60.2187 47.1356 60.1079C46.998 59.9971 46.8857 59.8581 46.8064 59.7002L45.9111 58.0849C45.9111 58.0265 45.8527 57.9973 45.8333 57.9973C45.8138 57.9973 45.7749 57.9973 45.7262 57.9973L45.3662 58.2016C45.3192 58.2196 45.2672 58.2196 45.2202 58.2016C45.1653 58.1683 45.1239 58.1166 45.1034 58.0557L45.0158 57.9C44.9966 57.8712 44.9863 57.8373 44.9863 57.8027C44.9863 57.768 44.9966 57.7342 45.0158 57.7054L46.0571 55.7592C46.0901 55.7139 46.1334 55.6772 46.1836 55.6521L46.4658 55.4867C46.4885 55.4755 46.5134 55.4697 46.5387 55.4697C46.5641 55.4697 46.589 55.4755 46.6117 55.4867C46.6617 55.5254 46.7017 55.5755 46.7285 55.6327L46.9912 56.0997C46.9912 56.1679 47.0593 56.2068 47.0983 56.2165C47.1262 56.2201 47.1546 56.2177 47.1815 56.2093C47.2083 56.2009 47.2331 56.1868 47.254 56.1679L47.9059 55.8176C47.9935 55.7689 48.0519 55.7494 48.1006 55.7689C48.1627 55.8146 48.2128 55.8747 48.2465 55.944L48.3633 56.1581C48.4136 56.2329 48.4407 56.321 48.4412 56.4111C48.4412 56.4793 48.3828 56.5279 48.2952 56.5766L47.6627 56.9269C47.6176 56.9517 47.5805 56.9889 47.5556 57.0339C47.5316 57.0757 47.5224 57.1244 47.5294 57.1721C47.5365 57.2197 47.5594 57.2636 47.5946 57.2967Z" fill="white"/>
<path d="M51.0388 51.7883L52.1774 53.0144C52.3136 53.1637 52.4304 53.1928 52.5277 53.102C52.5435 53.0668 52.5517 53.0287 52.5517 52.9901C52.5517 52.9515 52.5435 52.9134 52.5277 52.8782C52.4794 52.6752 52.4855 52.4631 52.5453 52.2633C52.6051 52.0634 52.7165 51.8828 52.8683 51.7397C52.9931 51.6063 53.1437 51.4996 53.311 51.426C53.4782 51.3524 53.6587 51.3135 53.8414 51.3115C53.9982 51.311 54.1524 51.3512 54.289 51.4283C54.4846 51.548 54.6645 51.6919 54.8242 51.8565L55.8654 52.8296C55.9292 52.9 56.0094 52.9535 56.0989 52.9853C56.1989 53.0009 56.3007 53.0009 56.4006 52.9853C56.4437 52.9777 56.4879 52.9799 56.53 52.9916C56.5721 53.0034 56.611 53.0245 56.6439 53.0533C56.8482 53.2674 56.6439 53.6761 56.0211 54.2795C55.3983 54.8828 55.0967 54.9996 54.9118 54.8147C54.9118 54.8147 54.8534 54.7465 54.8534 54.7271C54.8534 54.7076 54.8534 54.62 54.8534 54.4935C54.7186 54.1402 54.4939 53.8283 54.2014 53.5886C54.025 53.3926 53.8138 53.231 53.5786 53.1118C53.4875 53.0613 53.3819 53.0434 53.2793 53.0611C53.1767 53.0788 53.0832 53.131 53.0142 53.209C52.9598 53.2523 52.9184 53.3097 52.8944 53.3749C52.8703 53.4401 52.8647 53.5106 52.878 53.5788C52.9351 53.7372 53.0324 53.878 53.1602 53.9875L53.7051 54.5325C53.8426 54.6685 53.9889 54.7952 54.143 54.912C54.2438 54.9439 54.3487 54.9603 54.4544 54.9606C54.4912 54.9608 54.5275 54.9687 54.561 54.9838C54.5945 54.9989 54.6245 55.0208 54.649 55.0482C54.8534 55.2623 54.649 55.6418 54.1236 56.1965C53.5981 56.7511 53.0434 57.0528 52.8196 56.829C52.7766 56.7901 52.7461 56.7393 52.732 56.683C52.7266 56.589 52.7266 56.4948 52.732 56.4008C52.732 56.284 52.6445 56.0992 52.4693 55.8462C52.1388 55.4397 51.7846 55.053 51.4086 54.6882C51.136 54.3957 50.8434 54.1226 50.5328 53.8708C50.4843 53.8305 50.428 53.8006 50.3674 53.7832C50.3036 53.7663 50.2366 53.7663 50.1728 53.7832C50.1143 53.8194 50.0469 53.8386 49.9782 53.8386C49.9094 53.8386 49.842 53.8194 49.7836 53.7832C49.7377 53.7367 49.7053 53.6787 49.6899 53.6153C49.6745 53.5519 49.6766 53.4854 49.696 53.4231C49.7698 53.1757 49.8778 52.9399 50.0171 52.7225C50.1945 52.3685 50.4205 52.0409 50.6885 51.7494C50.8442 51.691 50.9513 51.691 51.0388 51.7883Z" fill="white"/>
<path d="M55.6317 48.674L57.4514 49.8611C57.8309 50.1141 58.1131 50.1141 58.2785 49.8611C58.3255 49.7962 58.3494 49.7174 58.3466 49.6373C58.3575 49.5593 58.3403 49.4799 58.298 49.4135C58.1115 49.194 57.8874 49.0095 57.6362 48.8686C57.389 48.699 57.1287 48.5493 56.8578 48.421C56.8097 48.4101 56.7599 48.4101 56.7118 48.421C56.6501 48.4341 56.591 48.4571 56.5367 48.4891C56.4805 48.5267 56.4145 48.5468 56.3469 48.5468C56.2793 48.5468 56.2133 48.5267 56.1571 48.4891C56.0209 48.3918 55.9917 48.2264 56.0793 47.9734C56.2452 47.5056 56.4639 47.0583 56.7313 46.6402C56.7577 46.5892 56.7956 46.545 56.8421 46.5112C56.8885 46.4774 56.9422 46.4549 56.9989 46.4455C57.0555 46.436 57.1136 46.4399 57.1685 46.4568C57.2234 46.4737 57.2736 46.5032 57.3151 46.5429L57.4611 46.6402L57.8503 46.9029L59.3197 47.876C59.3975 47.9247 59.5143 47.876 59.6603 47.8177C59.7099 47.782 59.7695 47.7628 59.8306 47.7628C59.8917 47.7628 59.9512 47.782 60.0009 47.8177C60.1955 47.9442 60.1955 48.2847 60.0009 48.7907C59.8904 49.0991 59.7434 49.3932 59.563 49.6665C59.4949 49.7736 59.4365 49.8417 59.3781 49.8611C59.35 49.8774 59.3181 49.8859 59.2856 49.8859C59.2532 49.8859 59.2213 49.8774 59.1932 49.8611C59.0472 49.7736 58.9499 49.7736 58.9013 49.8611C58.8915 49.8862 58.8915 49.914 58.9013 49.939V50.2407C58.9109 50.5505 58.8261 50.8559 58.658 51.1164C58.5622 51.2978 58.4234 51.453 58.2538 51.5684C58.0842 51.6837 57.8888 51.7557 57.6849 51.7781C57.2492 51.7411 56.8336 51.5789 56.488 51.3111L56.0209 50.9997L55.8652 50.9024C55.7292 50.798 55.5737 50.7219 55.4079 50.6786C55.3016 50.6363 55.1832 50.6363 55.077 50.6786L54.8629 50.7758C54.8184 50.7888 54.7712 50.7888 54.7267 50.7758C54.5515 50.6688 54.5321 50.4645 54.6391 50.1725C54.826 49.6769 55.0675 49.2037 55.3592 48.7616C55.437 48.6383 55.5279 48.6091 55.6317 48.674Z" fill="white"/>
<path d="M60.4384 42.9625L61.5964 43.994C61.8403 44.2038 62.065 44.4351 62.2678 44.6849C62.4245 44.8761 62.5523 45.0892 62.6474 45.3174C62.8222 45.7513 62.8222 46.236 62.6474 46.67C62.5297 46.9964 62.2982 47.2694 61.9954 47.4387C61.8914 47.4917 61.7764 47.5193 61.6597 47.5193C61.543 47.5193 61.4279 47.4917 61.3239 47.4387C61.2335 47.4095 61.1503 47.3614 61.0799 47.2977C61.0094 47.234 60.9533 47.156 60.9152 47.0689C60.8768 46.985 60.8568 46.8937 60.8568 46.8013C60.8568 46.709 60.8768 46.6177 60.9152 46.5338C60.9443 46.4536 60.9896 46.3803 61.0482 46.3184C61.1067 46.2565 61.1774 46.2072 61.2558 46.1737C61.3202 46.1624 61.386 46.1624 61.4504 46.1737H61.7521C61.7999 46.1871 61.851 46.1827 61.8957 46.1612C61.9405 46.1397 61.9759 46.1026 61.9954 46.0569C62.0141 46.0209 62.0239 45.9808 62.0239 45.9401C62.0239 45.8995 62.0141 45.8594 61.9954 45.8234C61.9513 45.7358 61.8743 45.6693 61.7813 45.6385C61.5623 45.6007 61.3385 45.6007 61.1196 45.6385L58.862 45.7747C58.7073 45.7783 58.5537 45.8012 58.4047 45.8429C58.2879 45.9058 58.1826 45.9881 58.0933 46.0861C58.0479 46.1291 57.9899 46.1564 57.9278 46.164C57.8638 46.1789 57.7972 46.1789 57.7332 46.164C57.5191 46.0764 57.451 45.7942 57.5483 45.3271C57.6265 44.975 57.7339 44.6299 57.8694 44.2956C57.948 44.0817 58.0597 43.8814 58.2003 43.702C58.2516 43.6247 58.3278 43.5671 58.4162 43.5388C58.5047 43.5105 58.6001 43.5132 58.6868 43.5463C58.7668 43.5817 58.8321 43.6435 58.8717 43.7215C58.9143 43.7913 58.9748 43.8484 59.0469 43.8869C59.1146 43.8971 59.1835 43.8971 59.2512 43.8869H59.6502C59.8546 43.8869 59.9811 43.8091 60.0005 43.741C60.02 43.6729 60.0005 43.5561 59.874 43.4101C59.7678 43.2784 59.6308 43.1748 59.475 43.1085C59.3749 43.0694 59.2638 43.0694 59.1637 43.1085C59.0542 43.1513 58.9326 43.1513 58.8231 43.1085C58.6966 43.0598 58.6285 42.9333 58.6187 42.7387C58.6181 42.4902 58.6712 42.2446 58.7744 42.0186C58.9788 41.4931 59.2123 41.279 59.4653 41.3763C59.5504 41.4074 59.6201 41.4702 59.6599 41.5515C59.6853 41.6669 59.6853 41.7864 59.6599 41.9018C59.655 42.0334 59.6925 42.163 59.767 42.2716C59.9686 42.5225 60.1934 42.7538 60.4384 42.9625Z" fill="white"/>
<path d="M46.0377 40.4821C47.293 40.4237 48.1299 41.9709 47.7991 43.1873C47.3519 44.3738 46.4723 45.3471 45.3371 45.9119C42.8711 47.4327 40.1153 48.4232 37.2454 48.8202C34.3755 49.2173 31.4543 49.0123 28.668 48.2182L46.0377 40.4821Z" fill="#FFC717"/>
<path d="M50.1823 28.6182C50.3088 27.7814 51.1554 27.2559 51.8366 26.8277C52.0283 26.6714 52.2547 26.5633 52.4968 26.5125C52.7389 26.4617 52.9897 26.4697 53.2281 26.5358C53.4356 26.6514 53.5937 26.8388 53.6726 27.0629C53.7514 27.2869 53.7456 27.5321 53.6563 27.7522C53.484 28.1917 53.1862 28.5707 52.7999 28.8421C52.984 28.7866 53.1779 28.771 53.3685 28.7963C53.5591 28.8216 53.7421 28.8873 53.9054 28.989C54.0686 29.0906 54.2083 29.226 54.3151 29.3859C54.4219 29.5458 54.4934 29.7266 54.5248 29.9163C54.5561 30.1061 54.5467 30.3003 54.4971 30.4861C54.4475 30.6719 54.3588 30.8449 54.2371 30.9938C54.1153 31.1426 53.9632 31.2637 53.7908 31.3491C53.6185 31.4345 53.43 31.4821 53.2378 31.4889C53.812 31.9754 54.4542 32.6079 54.3472 33.367C54.2458 33.8075 53.9771 34.1913 53.5979 34.4374C53.3384 34.6417 53.0388 34.7889 52.7185 34.8694C52.3982 34.9499 52.0645 34.9618 51.7393 34.9044C51.0209 34.6782 50.4177 34.1832 50.0558 33.5227C49.6903 32.8769 49.2421 32.2815 48.7227 31.7516L50.1823 28.6182Z" fill="#FFC717"/>
<path d="M26.7889 25.213C26.524 25.0226 26.3111 24.7686 26.17 24.4744C26.0289 24.1803 25.964 23.8553 25.9812 23.5295C26.011 22.8752 26.1979 22.2377 26.5262 21.6709C27.0893 20.5435 27.964 19.6013 29.0465 18.956C29.5858 18.6382 30.1856 18.4369 30.8073 18.3648C31.4291 18.2927 32.059 18.3516 32.6567 18.5376C34.1358 19.0533 35.2938 20.4837 36.8605 20.5324C38.612 20.6005 40.0717 18.9268 41.8233 18.9852C43.5748 19.0436 44.7426 20.7659 45.2388 22.4397C45.6874 24.0244 45.7409 25.6949 45.3945 27.3051L26.7889 25.213Z" fill="#FFC717"/>
<path d="M19.0436 43.4107C20.1189 45.0112 21.5264 46.3611 23.1704 47.3687C24.8143 48.3762 26.6561 49.0176 28.5703 49.2493C32.4409 49.7002 36.3514 48.8476 39.683 46.8262C42.9797 44.8053 45.7693 42.0557 47.8376 38.7885C49.658 36.272 50.7489 33.3022 50.9904 30.2057C51.0403 29.7366 50.963 29.2626 50.7666 28.8337C50.4379 28.3432 49.9603 27.9714 49.4043 27.773C46.1055 26.2452 42.4174 25.8268 38.8462 25.1748C36.265 24.5324 33.6227 24.167 30.9641 24.085C26.77 24.1823 22.6149 26.0312 18.9853 27.9773C17.4186 28.8337 16.825 29.4954 16.7569 31.2664C16.6623 33.271 16.7437 35.2801 17.0001 37.2704C17.2353 39.4396 17.9321 41.5332 19.0436 43.4107Z" fill="#F16B24"/>
<path d="M18.6545 30.8372C18.6725 31.1924 18.8019 31.5328 19.0243 31.8103C19.2915 32.0612 19.6314 32.2209 19.9951 32.2664C20.3588 32.3118 20.7276 32.2407 21.0483 32.0633C21.5165 31.8537 21.9103 31.5073 22.1778 31.0696C22.4453 30.6318 22.574 30.1234 22.5469 29.6111C22.2257 26.4388 18.4501 28.3169 18.6545 30.8372Z" fill="white"/>
<path d="M50.7958 29.0186C50.1925 34.39 46.5434 39.1193 41.9601 42.4278C36.248 46.5732 29.0374 47.848 22.8193 43.9848C20.6915 42.8041 19.0097 40.9582 18.0316 38.7301C17.6424 37.6499 17.1558 36.5892 16.7666 35.5091C16.7666 36.1027 16.8639 36.706 16.9515 37.2996C17.2057 39.4624 17.919 41.5459 19.0436 43.4107C20.1189 45.0111 21.5264 46.3611 23.1704 47.3686C24.8143 48.3762 26.6561 49.0176 28.5703 49.2492C32.4409 49.7002 36.3514 48.8476 39.683 46.8262C42.9797 44.8053 45.7693 42.0557 47.8376 38.7885C49.658 36.272 50.7489 33.3022 50.9904 30.2057C51.0107 29.8007 50.9444 29.3959 50.7958 29.0186Z" fill="#DF5626"/>
<path d="M19.7437 29.9617C19.6178 30.0724 19.5358 30.2246 19.5126 30.3907C19.4894 30.5567 19.5265 30.7256 19.6172 30.8666C19.6687 30.9303 19.7347 30.9809 19.8096 31.014C19.8846 31.0471 19.9663 31.0619 20.0481 31.0572C20.1299 31.0524 20.2094 31.0282 20.28 30.9866C20.3506 30.945 20.4103 30.8872 20.4541 30.818C20.4929 30.6549 20.4929 30.4849 20.4541 30.3217C20.437 30.2392 20.4378 30.154 20.4562 30.0718C20.4747 29.9896 20.5104 29.9122 20.5611 29.8449C20.6681 29.7184 20.9211 29.7378 20.9601 29.8935C20.8138 30.3558 20.8138 30.852 20.9601 31.3143C21.1309 31.3123 21.2971 31.2582 21.4363 31.159C21.5755 31.0598 21.6809 30.9205 21.7385 30.7596C21.8613 30.5037 21.9073 30.2178 21.8711 29.9363C21.8348 29.6548 21.7178 29.3899 21.5342 29.1735C21.3434 28.9643 21.0866 28.827 20.8068 28.7845C20.5269 28.742 20.241 28.7969 19.9967 28.9399C19.7612 29.0966 19.5973 29.3401 19.5407 29.6172C19.4842 29.8944 19.5397 30.1826 19.695 30.419C19.4712 30.0979 19.6366 30.3509 19.7437 29.9617Z" fill="#231F20"/>
<path d="M42.0962 21.2618C42.3297 21.3396 42.2908 24.1811 41.4831 23.8892C40.6754 23.5972 41.9113 21.2034 42.0962 21.2618Z" fill="#231F20"/>
<path d="M31.1103 20.3956C31.3439 20.4734 31.3147 23.3149 30.507 23.023C29.6993 22.731 30.9254 20.3372 31.1103 20.3956Z" fill="#231F20"/>
<path d="M36.6079 21.8069C36.8414 21.8653 36.8025 24.1229 35.9948 23.9186C35.1872 23.7142 36.423 21.7291 36.6079 21.8069Z" fill="#231F20"/>
<path d="M19.6275 46.8737C19.4497 47.1377 19.33 47.4364 19.2763 47.7501C19.2227 48.0638 19.2362 48.3853 19.3161 48.6934C19.3322 48.7826 19.3698 48.8664 19.4258 48.9377C19.4818 49.0089 19.5544 49.0654 19.6372 49.1021C19.7691 49.1504 19.914 49.1504 20.0459 49.1021C20.4754 48.9219 20.8313 48.6017 21.0557 48.1936C21.2801 47.7855 21.3597 47.3134 21.2817 46.8542C21.3499 47.2921 21.2817 47.7495 21.3499 48.1874C21.3468 48.6383 21.5096 49.0747 21.8072 49.4135C21.9584 49.5792 22.1662 49.6822 22.3897 49.7021C22.6131 49.7219 22.8359 49.6571 23.0138 49.5205C23.1531 49.3751 23.2477 49.1927 23.2863 48.995C23.3049 48.5021 23.2163 48.0109 23.0264 47.5556C22.8366 47.1003 22.5501 46.6917 22.1867 46.358C21.7002 45.7741 21.5542 45.2876 20.8438 45.5697C20.3376 45.8981 19.9198 46.3459 19.6275 46.8737Z" fill="#FFC717"/>
<path d="M16.97 29.9715C17.0858 30.5927 17.3999 31.1595 17.8653 31.5869C17.9022 31.6268 17.9318 31.6729 17.9529 31.7231C17.9529 31.8983 17.7193 31.9566 17.5442 31.8983C17.3556 31.8316 17.1857 31.7209 17.0486 31.5754C16.9115 31.4298 16.8112 31.2536 16.756 31.0614C16.704 30.8675 16.699 30.6639 16.7413 30.4676C16.7836 30.2713 16.872 30.088 16.9992 29.9326L16.97 29.9715Z" fill="#C04628"/>
<path d="M12.65 34.9149C12.4411 34.8066 12.2267 34.7092 12.0077 34.623L11.5407 34.4187L12.0467 34.3506L12.7376 34.2338L13.2728 34.1267C13.5647 34.0586 13.7301 34.0002 13.7301 34.0002C13.7301 34.0002 13.5647 33.9418 13.2728 33.8737L12.7376 33.7667L12.0467 33.6499L11.5407 33.5818L12.0077 33.3775C12.2267 33.2913 12.4411 33.1939 12.65 33.0855L13.1365 32.8422L13.5452 32.6087C13.5452 32.6087 13.3701 32.6087 13.0684 32.6087H12.5235L11.8326 32.6671L11.3266 32.7352L11.7255 32.4238L12.2705 31.9762L12.6694 31.6161L13.01 31.2756L12.5429 31.4021L12.0272 31.5675C11.8326 31.6356 11.6088 31.7135 11.3752 31.8108L10.9081 32.0054L11.2098 31.5967C11.3655 31.3923 11.5017 31.1977 11.6185 31.0226C11.7353 30.8474 11.8326 30.7014 11.9104 30.5749C11.9883 30.4484 12.1537 30.1565 12.1537 30.1565C12.1537 30.1565 11.998 30.2343 11.7353 30.3998L11.2779 30.6917L10.7135 31.1004L10.3048 31.4021L10.4994 30.935C10.5967 30.7014 10.6746 30.4776 10.7427 30.283C10.8108 30.0884 10.8692 29.9035 10.9081 29.7575C10.9471 29.6116 11.0346 29.3002 11.0346 29.3002L10.6941 29.6407L10.334 30.0397C10.1978 30.2051 10.0421 30.3803 9.88639 30.5847L9.575 30.9836C9.575 30.8085 9.62366 30.6431 9.64312 30.4776C9.66258 30.3122 9.69177 29.9911 9.7015 29.7867C9.71123 29.5824 9.7015 29.3878 9.7015 29.2418C9.7015 28.9401 9.7015 28.7553 9.7015 28.7553L9.46795 29.1737L9.22468 29.6602C9.12737 29.8451 9.03006 30.0592 8.92302 30.2927C8.81598 30.5263 8.79652 30.6041 8.72841 30.7695C8.72841 30.5944 8.7284 30.4192 8.66028 30.2635C8.58243 29.7575 8.50459 29.2904 8.42674 29.0374C8.34889 28.7844 8.30997 28.5801 8.30997 28.5801C8.30997 28.5801 8.25158 28.7455 8.18347 29.0374C8.11535 29.3294 8.03751 29.7575 7.95966 30.2635C7.95966 30.4192 7.911 30.5944 7.89154 30.7695L7.68719 30.2927C7.48284 29.8257 7.29795 29.4461 7.15199 29.1737C7.00602 28.9012 6.90871 28.7553 6.90871 28.7553C6.90871 28.7553 6.90871 28.9401 6.90871 29.2418C6.90871 29.5435 6.90872 29.9716 6.99629 30.4776C6.99629 30.6431 6.99629 30.8085 7.06441 30.9934L6.75302 30.5847C6.4319 30.1857 6.1497 29.8646 5.93562 29.6116C5.72153 29.3586 5.60477 29.271 5.60477 29.271C5.60477 29.271 5.60476 29.4462 5.73127 29.7284C5.85777 30.0106 5.95508 30.429 6.13997 30.9058C6.19835 31.0615 6.26647 31.2172 6.33459 31.3826L5.92588 31.0712C5.51718 30.7695 5.15714 30.5263 4.8944 30.3706C4.76247 30.2825 4.62606 30.2013 4.4857 30.1273C4.4857 30.1273 4.56355 30.283 4.72898 30.5458C4.8944 30.8085 5.12795 31.1588 5.42961 31.5188L5.741 31.9275L5.26418 31.7329C4.78736 31.548 4.37866 31.4118 4.08673 31.3242L3.62937 31.1977C3.62937 31.1977 3.74615 31.3242 3.96996 31.5286C4.19378 31.7329 4.5149 32.0248 4.94306 32.346L5.35176 32.6574L4.83602 32.5892C4.33001 32.5406 3.86292 32.5114 3.60018 32.5017C3.33745 32.4919 3.11363 32.5017 3.11363 32.5017L3.53207 32.7352C3.80453 32.8812 4.18404 33.0661 4.65113 33.2704L5.12794 33.4748L4.62194 33.5429C4.11593 33.6207 3.64884 33.6986 3.39583 33.7667L2.93848 33.8932L3.39583 34.0197C3.68776 34.0878 4.11593 34.1657 4.62194 34.2435L5.12794 34.3116L4.65113 34.516C4.18404 34.7203 3.80453 34.9052 3.53207 35.0512L3.11363 35.2944H3.60018C3.90184 35.2944 4.33001 35.2944 4.83602 35.2069L5.35176 35.1388L4.94306 35.4501C4.54409 35.7713 4.22297 36.0535 3.96996 36.2675C3.71696 36.4816 3.62937 36.5984 3.62937 36.5984L4.08673 36.4719C4.37866 36.3843 4.78736 36.2481 5.26418 36.0632L5.741 35.8686L5.42961 36.2773C5.12795 36.686 4.88467 37.046 4.72898 37.3088C4.64087 37.4407 4.55967 37.5771 4.4857 37.7175C4.62606 37.6435 4.76247 37.5623 4.8944 37.4742C5.15714 37.3185 5.51718 37.0752 5.92588 36.7736L6.33459 36.4622C6.26647 36.6276 6.19835 36.7833 6.13997 36.939C5.95508 37.4158 5.81885 37.8245 5.73127 38.1164C5.64369 38.4084 5.60477 38.5738 5.60477 38.5738C5.60477 38.5738 5.73127 38.457 5.93562 38.2332C6.13997 38.0094 6.4319 37.6883 6.75302 37.2601L7.06441 36.8514C7.06441 37.0363 7.06441 37.2017 6.99629 37.3671C6.93791 37.8731 6.91844 38.3403 6.90871 38.603C6.89898 38.8657 6.90871 39.0895 6.90871 39.0895C6.90871 39.0895 7.00602 38.9338 7.15199 38.6711C7.29795 38.4083 7.48284 38.0191 7.68719 37.552C7.75531 37.3963 7.82342 37.2406 7.88181 37.0752C7.88181 37.2504 7.93047 37.4255 7.95966 37.5812C7.98885 37.7369 8.0375 38.0678 8.07643 38.2721L8.18347 38.8073C8.25158 39.0993 8.30997 39.2647 8.30997 39.2647C8.30997 39.2647 8.30997 39.0993 8.43647 38.8073L8.54352 38.2721C8.54352 38.0678 8.62136 37.8342 8.66028 37.5812C8.69921 37.3282 8.66029 37.2504 8.72841 37.085C8.79652 37.2407 8.86464 37.3963 8.92302 37.552C8.98141 37.7077 9.12737 37.9996 9.22468 38.1845L9.46795 38.6711L9.7015 39.0895C9.7015 39.0895 9.7015 38.9047 9.7015 38.603C9.7015 38.457 9.7015 38.2721 9.7015 38.0581C9.7015 37.844 9.7015 37.6201 9.64312 37.3671C9.58473 37.1141 9.64311 37.0363 9.575 36.8611L9.88639 37.2601C10.0421 37.4645 10.1978 37.6396 10.334 37.805L10.6941 38.204L11.0346 38.5446C11.0346 38.5446 11.0346 38.3694 10.9081 38.0873C10.7816 37.8051 10.8108 37.7661 10.7427 37.5618C10.6746 37.3574 10.5967 37.1433 10.4994 36.9098L10.3048 36.4427L10.7135 36.7444L11.2779 37.1531L11.7353 37.445C11.998 37.6104 12.1537 37.6883 12.1537 37.6883C12.1537 37.6883 12.0759 37.5326 11.9104 37.2699C11.745 37.0071 11.7353 36.9876 11.6185 36.8222C11.5017 36.6568 11.3655 36.4524 11.2098 36.2481L10.9081 35.8394L11.3752 36.034C11.6088 36.1313 11.8326 36.2092 12.0272 36.2773L12.5527 36.4427L13.01 36.5692L12.6694 36.2286L12.2705 35.8686L11.7255 35.4209L11.3266 35.1096L11.8326 35.1777L12.5235 35.2361H13.0684C13.3701 35.2361 13.5452 35.2361 13.5452 35.2361L13.1365 35.0025L12.65 34.9149Z" fill="#FBB03B"/>
<path d="M8.33878 36.491C9.71459 36.491 10.8299 35.3757 10.8299 33.9999C10.8299 32.6241 9.71459 31.5088 8.33878 31.5088C6.96297 31.5088 5.84766 32.6241 5.84766 33.9999C5.84766 35.3757 6.96297 36.491 8.33878 36.491Z" fill="#F79421"/>
<path d="M60.458 36.6768C60.45 36.6024 60.45 36.5274 60.458 36.453V36.3849L61.0419 36.1611C62.4042 35.5675 62.5404 35.1879 62.4723 34.6625L62.4236 34.536C62.4094 34.4394 62.369 34.3485 62.3069 34.2732C62.1771 34.2023 62.0341 34.1588 61.8868 34.1454C61.7395 34.132 61.591 34.1491 61.4506 34.1954L61.217 34.3024C61.1696 34.3229 61.1165 34.3263 61.0669 34.3121C61.0172 34.2979 60.974 34.267 60.9446 34.2246C60.9446 34.2246 60.8375 33.9716 60.818 33.9132C60.7986 33.8548 60.6623 33.6213 60.6137 33.4656C60.565 33.3099 61.0029 33.018 61.0613 32.9109C61.1465 32.8004 61.2013 32.6694 61.2201 32.5311C61.2388 32.3928 61.221 32.252 61.1684 32.1227C61.1461 32.06 61.111 32.0026 61.0653 31.9542C61.0195 31.9059 60.9642 31.8676 60.9028 31.842C60.8414 31.8163 60.7752 31.8038 60.7087 31.8052C60.6422 31.8066 60.5766 31.822 60.5164 31.8502C60.2359 31.9819 59.9794 32.1595 59.7574 32.3757L59.6114 32.4244C59.446 32.2784 59.0275 31.9767 59.0373 31.7627C59.0373 31.2177 61.4603 29.6218 62.4528 31.4707C62.5713 31.7387 62.6022 32.0373 62.541 32.3238C62.4799 32.6104 62.3298 32.8703 62.1123 33.0666C62.9881 33.0666 63.5622 33.2515 63.8444 34.1273C63.9952 34.5888 63.9952 35.0864 63.8444 35.548V35.6356C63.7081 36.0053 63.4843 36.6087 61.2949 37.358L60.964 37.4553C60.818 37.4553 60.6624 36.9687 60.6234 36.8422C60.5845 36.7157 60.458 36.6865 60.458 36.6768Z" fill="#86CCF1"/>
<path d="M6.59731 46.0567C6.94789 45.5653 7.42553 45.1784 7.9791 44.9376L8.56297 44.6068C8.84974 44.4874 9.09864 44.2923 9.28305 44.0424C9.40955 43.8283 9.38036 43.7894 9.17601 43.6726C8.97166 43.5558 8.37807 43.838 8.31969 43.7991C8.24184 43.6629 8.09588 43.4099 8.17373 43.2736C8.6992 42.4854 10.7914 43.2737 10.1978 44.3538C9.98882 44.6625 9.69942 44.9081 9.3609 45.0641L8.70893 45.3658C8.26516 45.5845 7.85544 45.8664 7.49256 46.2027C7.91099 46.4459 8.38781 46.5238 8.80624 46.7573C8.87436 46.7573 8.80624 46.8741 8.80624 46.9228L8.62135 47.2925C8.62135 47.3412 8.45593 47.2925 8.417 47.2925L6.61677 46.5433C6.61677 46.5433 6.5 46.4654 6.5 46.407C6.518 46.2867 6.55068 46.1691 6.59731 46.0567Z" fill="#FAAF43"/>
<defs>
<radialGradient id="paint0_radial_7926_32660" cx="0" cy="0" r="1" gradientUnits="userSpaceOnUse" gradientTransform="translate(34 34) scale(34)">
<stop stop-color="#5C81B7"/>
<stop offset="1" stop-color="#496BB3"/>
</radialGradient>
</defs>
</svg>
