<svg width="68" height="68" viewBox="0 0 68 68" fill="none" xmlns="http://www.w3.org/2000/svg">
<path d="M34.0055 3.40039C38.8141 3.40039 45.4422 20.2529 46.1764 20.7095C46.9106 21.1661 64.7125 23.3154 66.1888 26.7824C67.6652 30.2495 53.9681 42.7715 53.6282 43.6224C53.2883 44.4733 56.7112 62.2843 53.8968 64.6161C51.0823 66.9478 34.9879 57.8327 34.0055 57.8271C33.0232 57.8214 17.5768 66.9965 14.1155 64.6172C10.6541 62.2379 14.6332 44.5866 14.3829 43.6236C14.1325 42.6605 0.257549 31.3677 1.82338 26.7824C3.3892 22.1971 21.1979 21.1842 21.8358 20.7095C22.4737 20.2347 29.1982 3.40039 34.0055 3.40039Z" fill="#FFBD39"/>
<path d="M34.005 5.49316C38.4872 5.49316 44.3631 21.8086 45.0474 22.2301C45.7317 22.6516 62.6261 24.0599 64.0016 27.2867C65.3771 30.5135 52.31 41.8879 51.9939 42.6821C51.6778 43.4764 55.1664 60.3787 52.5446 62.5507C49.9228 64.7227 34.9205 55.9271 34.005 55.9214C33.0896 55.9157 18.6946 64.7691 15.4655 62.5507C12.2364 60.3322 16.5509 43.882 16.3175 42.9835C16.0841 42.085 2.54914 31.5605 4.00733 27.2867C5.46552 23.013 22.6681 22.6719 23.2686 22.2301C23.8691 21.7882 29.524 5.49316 34.005 5.49316Z" fill="url(#paint0_linear_7926_33333)"/>
<defs>
<linearGradient id="paint0_linear_7926_33333" x1="19.0175" y1="20.0332" x2="54.3914" y2="62.5246" gradientUnits="userSpaceOnUse">
<stop offset="0.04" stop-color="#FFF466"/>
<stop offset="0.08" stop-color="#FFF466"/>
<stop offset="0.32" stop-color="#FFEC5F"/>
<stop offset="0.69" stop-color="#FFD54D"/>
<stop offset="0.86" stop-color="#FFC943"/>
</linearGradient>
</defs>
</svg>
