<svg width="68" height="68" viewBox="0 0 68 68" fill="none" xmlns="http://www.w3.org/2000/svg">
<path d="M34 68C52.7777 68 68 52.7777 68 34C68 15.2223 52.7777 0 34 0C15.2223 0 0 15.2223 0 34C0 52.7777 15.2223 68 34 68Z" fill="#FAA935"/>
<path d="M5.0013 26.1967C5.02077 25.9357 5.06973 25.6778 5.14726 25.4279C5.31895 24.8242 5.68066 24.2919 6.17874 23.9099C6.52613 23.7283 6.91621 23.6443 7.30754 23.6666C7.91055 23.6477 8.51247 23.7299 9.08831 23.9099C9.77299 24.1037 10.3748 24.5175 10.801 25.0874C10.9694 25.3825 11.0441 25.7219 11.015 26.0605C10.998 26.3917 10.9358 26.7191 10.8301 27.0336C10.7335 27.4993 10.4573 27.9083 10.0614 28.1721C8.92024 28.1093 7.79809 27.8527 6.74314 27.413C6.2098 27.2645 5.69174 27.0658 5.19592 26.8195C5.04996 26.7805 4.98184 26.5956 5.0013 26.1967ZM8.49472 26.3232C8.65041 26.3232 8.74773 26.2162 8.81584 26.0313C8.84393 25.9504 8.84971 25.8634 8.83259 25.7795C8.81547 25.6956 8.77607 25.6178 8.71853 25.5544C8.60662 25.4224 8.45734 25.3274 8.29036 25.282C8.19475 25.239 8.09072 25.218 7.98593 25.2206C7.88114 25.2232 7.77826 25.2493 7.68488 25.2969C7.5915 25.3445 7.50999 25.4125 7.44637 25.4958C7.38275 25.5791 7.33863 25.6756 7.31727 25.7782C7.26861 25.9242 7.31726 26.0215 7.48269 26.0702L7.77462 26.148C7.87095 26.1649 7.96545 26.191 8.05683 26.2259C8.19745 26.2789 8.34488 26.3117 8.49472 26.3232Z" fill="white"/>
<path d="M7.20034 22.1583C7.08283 22.102 6.97918 22.0205 6.8968 21.9196C6.81441 21.8186 6.75531 21.7008 6.72371 21.5744C6.69211 21.448 6.68878 21.3162 6.71398 21.1883C6.73918 21.0605 6.79228 20.9398 6.86949 20.8349C6.94877 20.6502 7.0898 20.4988 7.26845 20.4067C7.46148 20.3449 7.669 20.3449 7.86204 20.4067C7.94643 20.4209 8.02836 20.4471 8.10531 20.4846C8.22263 20.5349 8.32721 20.6108 8.41139 20.7068C8.49558 20.8028 8.55723 20.9164 8.59186 21.0392C8.65266 21.2999 8.61451 21.5738 8.48482 21.8079C8.4346 21.9223 8.35825 22.0232 8.26192 22.1027C8.16558 22.1821 8.05195 22.2378 7.93016 22.2653C7.68227 22.3268 7.42014 22.2884 7.20034 22.1583ZM8.73783 22.713C8.62106 22.5378 8.64052 22.2848 8.80594 21.9442C8.97137 21.6036 9.20492 21.3798 9.43847 21.3603C9.97232 21.4779 10.4845 21.6782 10.9565 21.9539C11.4426 22.163 11.903 22.4275 12.3286 22.7421C12.4551 22.8881 12.4161 23.1703 12.2215 23.579C12.0269 23.9877 11.8517 24.1337 11.6766 24.1239C11.0834 24.0161 10.5136 23.8054 9.99312 23.5012C9.52459 23.3237 9.09739 23.0521 8.73783 22.7032V22.713Z" fill="white"/>
<path d="M7.71735 16.3387C7.69808 16.3955 7.69808 16.4571 7.71735 16.5139C7.71986 16.5592 7.71986 16.6047 7.71735 16.6501C7.74546 16.7024 7.76018 16.7609 7.76018 16.8204C7.76018 16.8798 7.74546 16.9383 7.71735 16.9907C7.70033 17.0246 7.67377 17.0528 7.64092 17.0718C7.60807 17.0908 7.57036 17.0998 7.53246 17.0977C7.45255 17.0991 7.37423 17.0753 7.30866 17.0296C7.13391 16.8917 7.01612 16.6942 6.97781 16.4749C6.96313 16.3782 6.96313 16.2797 6.97781 16.183C6.99723 16.079 7.0369 15.9798 7.09457 15.8911C7.1655 15.7661 7.27465 15.6672 7.40597 15.6089H7.64925C7.69022 15.6074 7.73022 15.596 7.76582 15.5757C7.80142 15.5553 7.83154 15.5267 7.85359 15.4921C7.87323 15.4581 7.88358 15.4195 7.88358 15.3802C7.88358 15.3409 7.87323 15.3023 7.85359 15.2683C7.85359 15.2001 7.80493 15.1321 7.77574 15.0542C7.77446 14.9726 7.79459 14.8921 7.83412 14.8206C7.85878 14.7826 7.89172 14.7505 7.93047 14.727C7.96922 14.7034 8.0128 14.6888 8.05794 14.6844C8.1496 14.6737 8.2422 14.6942 8.32067 14.7428C8.40504 14.8038 8.46939 14.8885 8.50556 14.9861C8.57151 15.1241 8.61426 15.272 8.63207 15.424C8.63845 15.6039 8.58731 15.7811 8.4861 15.93C8.42563 16.0434 8.325 16.1302 8.2039 16.1733H7.94116C7.89105 16.1732 7.84223 16.1892 7.80193 16.219C7.76163 16.2488 7.73197 16.2907 7.71735 16.3387ZM8.16499 17.847C8.10007 17.6177 8.0545 17.3833 8.02875 17.1464C7.98209 17.0181 7.96866 16.8802 7.98973 16.7454C8.0108 16.6106 8.06568 16.4833 8.14925 16.3755C8.23281 16.2676 8.34234 16.1827 8.46761 16.1286C8.59288 16.0745 8.72981 16.0531 8.86562 16.0662C9.1431 15.9932 9.43473 15.9932 9.71221 16.0662C9.79134 16.122 9.84686 16.2053 9.86791 16.2998C9.88844 16.3405 9.89913 16.3855 9.89913 16.4311C9.89913 16.4767 9.88844 16.5218 9.86791 16.5625C9.82881 16.6139 9.77423 16.6514 9.71221 16.6695C9.53884 16.7227 9.35834 16.749 9.177 16.7474C8.97265 16.7474 8.84615 16.8058 8.79749 16.8739C8.7504 17.0492 8.7504 17.2338 8.79749 17.4091C8.85168 17.5887 8.87472 17.7763 8.86562 17.9638C8.84156 18.0071 8.80807 18.0444 8.76765 18.073C8.72723 18.1016 8.6809 18.1208 8.63207 18.1292C8.58222 18.1355 8.5316 18.1319 8.48316 18.1186C8.43471 18.1052 8.3894 18.0824 8.34986 18.0513C8.27015 17.9978 8.2063 17.9239 8.16499 17.8373V17.847ZM9.79006 17.5259C9.68302 17.6913 9.55651 17.9151 9.41055 18.1876C9.27918 18.5985 9.27682 19.0398 9.40382 19.4522C9.53082 19.8645 9.78108 20.228 10.1209 20.4938C10.2619 20.6364 10.4149 20.7666 10.5783 20.8831C11.034 21.2319 11.6018 21.4015 12.1741 21.3599C12.4139 21.3414 12.6481 21.2787 12.865 21.175C12.865 21.175 13.1472 20.9901 13.5559 20.6982C13.7599 20.5226 13.9457 20.327 14.1106 20.1143C14.2473 19.8992 14.346 19.6622 14.4025 19.4137C14.4694 19.1387 14.4694 18.8518 14.4025 18.5768C14.3082 18.3456 14.1495 18.1463 13.9452 18.0027C13.8909 17.9519 13.8263 17.9134 13.7557 17.8898C13.6852 17.8663 13.6104 17.8583 13.5365 17.8664C13.4628 17.8759 13.3922 17.9019 13.3299 17.9423C13.2676 17.9827 13.2151 18.0366 13.1764 18.1C13.1163 18.1838 13.0764 18.2804 13.0597 18.3822C13.0558 18.6268 12.9851 18.8657 12.8553 19.0731C12.7969 19.1412 12.6023 19.3261 12.2715 19.618C12.1953 19.6771 12.1045 19.7141 12.0087 19.7251C11.9138 19.7419 11.816 19.7209 11.7363 19.6667C11.695 19.6397 11.6622 19.6017 11.6416 19.5569C11.6209 19.5122 11.6133 19.4625 11.6195 19.4137C11.6132 19.3914 11.6132 19.3678 11.6195 19.3455C11.718 19.2092 11.8287 19.0822 11.9503 18.9661C12.0789 18.8509 12.1962 18.7238 12.3006 18.5865C12.3881 18.4649 12.4505 18.3271 12.4841 18.1812C12.5178 18.0352 12.5221 17.884 12.4967 17.7364C12.4714 17.5887 12.4169 17.4476 12.3364 17.3213C12.256 17.1949 12.1512 17.0859 12.0282 17.0004C11.1232 16.3971 10.4226 16.4652 9.90682 17.2242C9.95548 17.2339 9.8971 17.3312 9.79006 17.5259ZM10.5977 18.5963C10.5595 18.5687 10.5288 18.532 10.5084 18.4895C10.488 18.447 10.4785 18.4001 10.4809 18.353C10.4788 18.2519 10.5096 18.1529 10.5685 18.0708C10.6251 17.9863 10.7068 17.9216 10.8021 17.8859C10.8423 17.8637 10.8875 17.8522 10.9334 17.8522C10.9794 17.8522 11.0246 17.8637 11.0648 17.8859C11.103 17.9135 11.1338 17.9502 11.1542 17.9927C11.1746 18.0352 11.184 18.0821 11.1816 18.1292C11.1827 18.2256 11.1556 18.3203 11.1037 18.4016C11.0477 18.4889 10.9662 18.5569 10.8702 18.5963C10.828 18.6176 10.7813 18.6288 10.734 18.6288C10.6866 18.6288 10.64 18.6176 10.5977 18.5963Z" fill="white"/>
<path d="M16.2115 17.1072C16.3672 17.2531 16.2699 17.4964 15.9293 17.837C15.5887 18.1776 15.326 18.3041 15.1605 18.1873C14.465 17.6826 13.8139 17.1194 13.2144 16.5039C12.7132 16.0836 12.2886 15.5799 11.9591 15.015C11.9072 14.9024 11.8954 14.7754 11.9254 14.6551C11.9555 14.5348 12.0257 14.4283 12.1245 14.3533C12.2122 14.2634 12.3185 14.1937 12.4359 14.1489C12.4948 14.1244 12.5592 14.116 12.6225 14.1245C12.6858 14.1331 12.7456 14.1583 12.7959 14.1976C12.8231 14.2295 12.8562 14.2559 12.8932 14.2755C12.8932 14.2755 12.9711 14.2755 13.0295 14.2755C13.0722 14.2398 13.1066 14.1951 13.1301 14.1447C13.1536 14.0942 13.1658 14.0392 13.1657 13.9835C13.1633 13.8466 13.1898 13.7106 13.2436 13.5846C13.3181 13.3819 13.4379 13.1988 13.5939 13.0493C13.8494 12.7802 14.1967 12.617 14.567 12.592C14.7484 12.5842 14.9293 12.6158 15.0973 12.6847C15.2653 12.7536 15.4164 12.858 15.5401 12.991C15.8823 13.2659 16.2073 13.5616 16.5132 13.8765C17.0397 14.3604 17.498 14.9136 17.8755 15.521C17.9339 15.6864 17.8171 15.9103 17.5349 16.1925C17.2527 16.4747 17.0678 16.5233 16.9121 16.426C16.7564 16.3287 16.698 16.319 16.484 16.1049C16.2699 15.8908 16.2602 15.8811 16.0947 15.6962L15.6958 15.2875C15.0827 14.6744 14.7227 14.4701 14.5378 14.6939L14.2945 15.054C14.2166 15.1707 14.2361 15.307 14.3626 15.4724C14.4891 15.6378 14.4989 15.6281 14.6837 15.813L16.2115 17.1072Z" fill="white"/>
<path d="M20.3283 8.28077C20.1813 8.10987 20.0479 7.92766 19.9294 7.73584C19.9268 7.70021 19.9268 7.66445 19.9294 7.62882C19.8807 7.42447 20.0461 7.2201 20.4354 7.00602C20.8246 6.79194 21.0679 6.78222 21.243 6.92819C21.4303 7.12095 21.5966 7.33296 21.7393 7.56069L21.8853 7.49257C21.9143 7.47634 21.9464 7.46648 21.9794 7.46364C22.0125 7.4608 22.0458 7.46507 22.0771 7.47612C22.1085 7.48717 22.137 7.50475 22.161 7.52773C22.185 7.5507 22.2038 7.57852 22.2161 7.60934C22.2518 7.65896 22.271 7.71854 22.271 7.77964C22.271 7.84075 22.2518 7.9003 22.2161 7.94993L22.0799 8.04724C22.3232 8.41702 22.5665 8.83544 22.8097 9.28306C23.2188 9.93027 23.5088 10.6454 23.6661 11.3947C23.6661 11.6218 23.5201 11.8748 23.2282 12.1537C23.006 12.3635 22.7574 12.5434 22.4886 12.6889C22.1828 12.8585 21.8555 12.9862 21.5155 13.0684C21.2552 13.1463 20.9779 13.1463 20.7176 13.0684C20.2365 12.8905 19.8357 12.545 19.5888 12.0953C19.4663 11.8891 19.3899 11.6589 19.3647 11.4204C19.3395 11.1819 19.3661 10.9408 19.4428 10.7135C19.6078 10.4377 19.8384 10.207 20.1143 10.0421C20.2939 9.95399 20.4888 9.90114 20.6884 9.88638C20.8307 9.87877 20.9713 9.85262 21.1068 9.80854C21.1277 9.80133 21.146 9.78838 21.1598 9.77116C21.1736 9.75394 21.1822 9.73314 21.1847 9.71123C21.1809 9.49508 21.1205 9.28369 21.0095 9.09817C20.9609 9.01059 20.883 8.90357 20.7954 8.77706C20.4743 8.95222 20.2213 9.07872 20.0267 9.1663C19.9702 9.17668 19.9119 9.16676 19.862 9.13826C19.8121 9.10977 19.7739 9.06454 19.7542 9.0106C19.7123 8.95998 19.6893 8.89631 19.6893 8.83058C19.6893 8.76484 19.7123 8.70118 19.7542 8.65056C19.9387 8.51692 20.1304 8.39347 20.3283 8.28077ZM21.8756 11.0055C21.7393 10.7525 21.5642 10.6649 21.3598 10.7427C21.2583 10.7743 21.1604 10.8167 21.0679 10.8692C20.9769 10.9081 20.9036 10.9795 20.8622 11.0694C20.8209 11.1593 20.8144 11.2614 20.8441 11.3558C20.8586 11.4094 20.8782 11.4615 20.9025 11.5115C20.9998 11.6964 21.2333 11.7256 21.5836 11.6088C21.7043 11.5649 21.8046 11.4783 21.8658 11.3655C21.8946 11.3137 21.9106 11.2557 21.9123 11.1964C21.9139 11.1371 21.9014 11.0783 21.8756 11.0249V11.0055Z" fill="white"/>
<path d="M23.3156 6.76273C23.6511 6.26369 24.1676 5.91472 24.7558 5.78963C25.0243 5.66572 25.3164 5.60156 25.6121 5.60156C25.9078 5.60156 26.2 5.66572 26.4685 5.78963C26.7215 5.84802 27.0037 6.19835 27.3053 6.84059C27.5105 7.2759 27.686 7.72451 27.8308 8.18344C28.0488 8.73833 28.161 9.32912 28.1616 9.92529C28.1616 10.188 28.0351 10.3729 27.6946 10.4897C27.354 10.6065 27.2275 10.5481 27.1399 10.3924C26.9197 10.5919 26.6567 10.7384 26.3711 10.8206C25.8299 11.0317 25.229 11.0317 24.6877 10.8206C24.322 10.5673 24.0541 10.1964 23.9287 9.76959C23.8593 9.61676 23.8234 9.45087 23.8234 9.28305C23.8234 9.11522 23.8593 8.94933 23.9287 8.7965C24.0226 8.61806 24.1509 8.45999 24.3063 8.33139C24.4616 8.20279 24.6408 8.10621 24.8337 8.04722C25.1946 7.94858 25.571 7.91887 25.943 7.95965C26.1473 7.89153 26.2057 7.74555 26.1376 7.52174C26.089 7.37495 25.9932 7.24836 25.8651 7.1617C25.742 7.06662 25.5924 7.0122 25.437 7.006C25.2526 7.006 25.0691 7.03223 24.892 7.08387C24.6895 7.16448 24.5045 7.28341 24.3471 7.43417C24.2307 7.5508 24.0999 7.65216 23.9579 7.73583C23.8336 7.76976 23.7026 7.76976 23.5784 7.73583C23.4129 7.62112 23.2871 7.45795 23.2183 7.26876C23.1968 7.18241 23.1944 7.0924 23.2112 7.00502C23.228 6.91764 23.2637 6.83496 23.3156 6.76273ZM25.2618 9.52632C25.2618 9.65282 25.3591 9.73068 25.4467 9.75014C25.5462 9.77115 25.6489 9.77115 25.7484 9.75014C25.8839 9.72392 26.0129 9.67099 26.1279 9.59444C26.1867 9.55531 26.231 9.49788 26.2539 9.43102C26.2767 9.36417 26.2769 9.29163 26.2544 9.22466C26.1863 9.00085 25.9527 8.923 25.5635 8.98139C25.5025 8.9912 25.4446 9.01468 25.3941 9.05008C25.3435 9.08547 25.3016 9.13184 25.2715 9.18573C25.2144 9.28954 25.1971 9.41066 25.2229 9.52632H25.2618ZM26.4879 11.2779C26.5537 11.2296 26.6257 11.1903 26.702 11.1611C26.8141 11.1285 26.9332 11.1286 27.0452 11.1614C27.1573 11.1941 27.2576 11.2582 27.3345 11.346C27.3953 11.4046 27.439 11.4786 27.461 11.5601C27.4903 11.6524 27.494 11.751 27.4718 11.8452C27.4495 11.9395 27.4021 12.0259 27.3345 12.0953C27.268 12.176 27.1804 12.2366 27.0815 12.2705C27.0061 12.2944 26.9268 12.303 26.848 12.2958C26.7692 12.2886 26.6927 12.2658 26.6229 12.2286C26.5531 12.1915 26.4914 12.1407 26.4415 12.0794C26.3916 12.0181 26.3544 11.9474 26.3322 11.8715C26.2852 11.7732 26.2711 11.6623 26.2921 11.5553C26.3132 11.4484 26.3682 11.3511 26.449 11.2779H26.4879Z" fill="white"/>
<path d="M28.3073 6.03259C28.2587 5.63362 28.3073 5.39036 28.5214 5.31251C28.5954 5.26799 28.6787 5.24131 28.7647 5.23464H29.4751C29.5438 5.23055 29.609 5.20309 29.6599 5.15681C29.6973 5.08746 29.7204 5.01137 29.7281 4.93299C29.6486 4.73722 29.5994 4.5305 29.5821 4.31993C29.5821 4.13504 29.7962 4.00854 30.2438 3.95989C30.3989 3.94045 30.5558 3.94045 30.7109 3.95989C30.925 3.95989 31.0515 4.06693 31.0709 4.17397C31.086 4.33906 31.086 4.50518 31.0709 4.67026C31.0709 4.92327 31.0709 4.98166 31.0709 4.86489C31.0709 5.00113 31.2753 5.0303 31.6353 4.93299C31.8467 4.85515 32.0742 4.83174 32.297 4.86489C32.3846 4.86489 32.4527 5.00111 32.5111 5.186C32.5595 5.31123 32.5922 5.44197 32.6084 5.57523C32.6474 5.86068 32.6084 6.04557 32.4917 6.12991C32.4138 6.22722 32.1705 6.26615 31.7813 6.25641C31.392 6.24668 31.2364 6.2564 31.1974 6.39263C31.115 6.71177 31.115 7.0466 31.1974 7.36573C31.2656 7.8912 31.3726 8.16368 31.5186 8.20261C31.5701 8.21097 31.6227 8.21097 31.6742 8.20261C31.778 8.16733 31.8715 8.1072 31.9467 8.02746C32.0454 7.93275 32.1714 7.87145 32.3068 7.85228H32.5111C32.6523 7.88739 32.7786 7.96679 32.8714 8.07886C32.9642 8.19093 33.0187 8.32979 33.0269 8.47507C33.0405 8.64794 33.0048 8.82111 32.9239 8.97445C32.8429 9.12779 32.72 9.25495 32.5695 9.34111C32.2088 9.60493 31.7868 9.77239 31.3434 9.82766C31.1105 9.87179 30.8699 9.84747 30.6505 9.75767C30.4312 9.66786 30.2426 9.51643 30.1076 9.32166C29.9792 9.10239 29.9058 8.85536 29.8935 8.60158C29.874 8.29699 29.874 7.99146 29.8935 7.68687C29.9118 7.38224 29.9118 7.07678 29.8935 6.77215C29.8935 6.63592 29.8935 6.55808 29.7962 6.53862C29.6976 6.49828 29.591 6.4816 29.4848 6.48995C29.3842 6.51157 29.2863 6.54421 29.1929 6.58726L28.9107 6.67484H28.7647C28.502 6.64565 28.356 6.43156 28.3073 6.03259Z" fill="white"/>
<path d="M37.1424 4.73942C37.2945 4.72488 37.4476 4.72488 37.5997 4.73942C37.989 4.7978 38.1739 4.92431 38.1739 5.1092C38.196 5.15119 38.2076 5.19794 38.2076 5.24542C38.2076 5.2929 38.196 5.33967 38.1739 5.38167L38.0863 5.63465C38.0863 5.69304 38.0863 5.73197 38.2614 5.73197C38.779 5.5216 39.3437 5.45437 39.8962 5.53734L40.266 5.6152C40.341 5.62127 40.4125 5.64949 40.4714 5.69627C40.5303 5.74305 40.574 5.80627 40.5969 5.87793C40.6372 6.02111 40.6372 6.17265 40.5969 6.31583C40.5803 6.44197 40.5407 6.564 40.4801 6.67587C40.4528 6.73111 40.4115 6.77819 40.3602 6.81236C40.309 6.84653 40.2496 6.86659 40.1882 6.8705L38.9621 6.92889C38.6135 6.90909 38.2691 7.01241 37.989 7.2208C37.9336 7.26784 37.8885 7.32585 37.8567 7.39117C37.8249 7.4565 37.807 7.52772 37.8041 7.60033C37.7817 7.86908 37.7817 8.13923 37.8041 8.40798C37.8303 8.67657 37.8303 8.94709 37.8041 9.21567C37.8022 9.27815 37.7864 9.33941 37.7578 9.39498C37.7292 9.45055 37.6885 9.49901 37.6387 9.53678C37.5425 9.64559 37.4171 9.7245 37.2773 9.76417C37.1376 9.80384 36.9895 9.80262 36.8504 9.7606C36.4515 9.69249 36.2277 9.54652 36.179 9.30325C36.1303 9.05997 36.0233 8.74856 36.072 7.94089C36.072 7.37649 36.1595 6.88996 36.2277 6.47153C36.2541 5.90897 36.4251 5.36271 36.7239 4.88538C36.7796 4.83309 36.8456 4.79307 36.9176 4.76793C36.9897 4.74278 37.0663 4.73308 37.1424 4.73942Z" fill="white"/>
<path d="M44.7816 7.21152C45.0411 7.87183 45.0853 8.59725 44.9081 9.28422C44.7727 9.74468 44.5728 10.1837 44.3145 10.5882C44.0593 10.8859 43.7201 11.0996 43.3414 11.2012C42.8915 11.1788 42.4465 11.097 42.018 10.9579C41.6536 10.83 41.3215 10.6241 41.0449 10.3546C40.8768 10.0371 40.7711 9.69024 40.7335 9.33289C40.7128 8.98022 40.7727 8.62747 40.9086 8.30141C40.9866 8.07431 41.0809 7.85313 41.1909 7.63968C41.443 7.25963 41.7227 6.89863 42.0277 6.55956C42.3252 6.21924 42.7447 6.00954 43.1954 5.97569C43.8624 6.17035 44.4298 6.61241 44.7816 7.21152ZM42.6699 9.20638C43.0884 9.35235 43.39 9.20639 43.5749 8.66145C43.6011 8.56967 43.6023 8.47256 43.5784 8.38017C43.5544 8.28777 43.5062 8.20345 43.4387 8.13597C43.3073 7.99955 43.1431 7.89906 42.9619 7.84405C42.8646 7.84405 42.7283 7.93162 42.5532 8.10678C42.4258 8.23231 42.3234 8.38092 42.2515 8.54468C42.125 8.83661 42.271 9.07988 42.6699 9.20638ZM44.1685 5.23613C44.1995 5.32081 44.2386 5.40229 44.2853 5.47941C44.362 5.58386 44.4717 5.65931 44.5967 5.69349C44.7671 5.75132 44.9518 5.75132 45.1221 5.69349C45.2613 5.6366 45.3922 5.56134 45.5114 5.46969C45.5929 5.40581 45.6566 5.32203 45.6963 5.22642C45.7253 5.13791 45.7253 5.04247 45.6963 4.95395C45.6577 4.86954 45.5879 4.8033 45.5017 4.76906C45.4257 4.74516 45.3441 4.74516 45.2681 4.76906L45.0735 4.89557C45.0413 4.91537 45.0043 4.92583 44.9665 4.92583C44.9287 4.92583 44.8916 4.91537 44.8594 4.89557C44.8197 4.88498 44.7835 4.86409 44.7545 4.83505C44.7255 4.80601 44.7046 4.76982 44.694 4.73013C44.694 4.5939 44.6356 4.51606 44.6259 4.4966C44.5342 4.38397 44.4074 4.30519 44.2658 4.27277C44.173 4.25152 44.0765 4.25152 43.9836 4.27277C43.8866 4.28636 43.7917 4.31255 43.7014 4.35064C43.4961 4.44391 43.333 4.61046 43.2441 4.81771C43.2148 4.8928 43.2148 4.97615 43.2441 5.05124C43.2527 5.08769 43.2707 5.12127 43.2963 5.14859C43.3219 5.17591 43.3542 5.19602 43.39 5.20694C43.4468 5.22475 43.5069 5.22964 43.5658 5.22122C43.6248 5.2128 43.6811 5.1913 43.7306 5.1583L43.8474 5.08046C43.9078 5.06289 43.9719 5.06289 44.0323 5.08046C44.0679 5.08988 44.0999 5.10971 44.1242 5.13745C44.1485 5.16519 44.1639 5.19956 44.1685 5.23613Z" fill="white"/>
<path d="M49.9111 9.18525C50.0553 9.24426 50.1924 9.31935 50.3198 9.40908C50.6409 9.64262 50.7479 9.83725 50.6604 10.0027C50.6611 10.0495 50.651 10.0959 50.6307 10.1381C50.6104 10.1803 50.5806 10.2173 50.5436 10.246L50.3587 10.4211C50.3587 10.4795 50.3587 10.5379 50.4658 10.5963C51.0215 10.6411 51.5553 10.8325 52.013 11.1509C52.1146 11.2267 52.212 11.3079 52.3049 11.3942C52.3708 11.431 52.4238 11.4871 52.4568 11.555C52.4899 11.6228 52.5014 11.6991 52.4898 11.7737C52.4615 11.921 52.4018 12.0604 52.3146 12.1824C52.2388 12.2843 52.1468 12.3731 52.0422 12.4451C51.99 12.4791 51.9292 12.4971 51.867 12.4971C51.8048 12.4971 51.744 12.4791 51.6918 12.4451L50.5728 11.9489C50.2768 11.7842 49.9345 11.7226 49.5997 11.7737C49.4609 11.8177 49.3432 11.9113 49.2688 12.0365C49.1261 12.2642 48.9993 12.5016 48.8893 12.7468C48.7856 12.9932 48.6619 13.2308 48.5196 13.4572C48.489 13.5116 48.4471 13.5589 48.3967 13.5958C48.3464 13.6327 48.2887 13.6584 48.2276 13.6712C48.0038 13.7977 47.7411 13.7394 47.42 13.5155C47.0988 13.2917 46.9626 13.0484 47.021 12.8052C47.0794 12.5619 47.1378 12.2505 47.5465 11.5402C47.8287 11.0536 48.0914 10.6449 48.3347 10.2946C48.8504 9.58424 49.2397 9.18527 49.4927 9.10742C49.59 9.07823 49.7359 9.07821 49.9111 9.18525Z" fill="white"/>
<path d="M53.8904 12.3389C54.4851 12.4182 55.0259 12.7252 55.3987 13.1952C55.6249 13.3866 55.8066 13.6251 55.931 13.894C56.0553 14.163 56.1195 14.4558 56.1188 14.7521C56.1772 15.0051 55.9826 15.4138 55.535 15.9685C55.2376 16.3429 54.9123 16.6943 54.5619 17.0195C54.1512 17.4571 53.6671 17.8193 53.1314 18.0899C52.9076 18.2358 52.674 18.1774 52.421 17.9147C52.168 17.652 52.1681 17.5255 52.2654 17.3795C51.9945 17.2597 51.7498 17.0878 51.5453 16.8735C51.1201 16.477 50.8596 15.9352 50.8154 15.3555C50.8819 14.9137 51.0984 14.5082 51.4285 14.2072C51.5432 14.0826 51.6834 13.9842 51.8395 13.9187C51.9957 13.8532 52.1642 13.8222 52.3335 13.8277C52.7385 13.8422 53.1222 14.0131 53.4039 14.3045C53.6488 14.5924 53.84 14.922 53.9683 15.2776C54.1142 15.4236 54.2699 15.4236 54.4451 15.2776C54.5546 15.1664 54.6262 15.0233 54.6494 14.8689C54.6837 14.7185 54.6665 14.5609 54.6008 14.4213C54.5234 14.2524 54.4181 14.0978 54.2894 13.9639C54.1336 13.8158 53.9477 13.703 53.7445 13.6331C53.5854 13.5802 53.4346 13.5048 53.2968 13.4093C53.2163 13.3123 53.1655 13.1939 53.1509 13.0687C53.1742 12.8702 53.2632 12.6852 53.4039 12.5432C53.4646 12.4751 53.5399 12.4214 53.624 12.386C53.7082 12.3506 53.7992 12.3346 53.8904 12.3389ZM52.2362 15.2582C52.1974 15.2918 52.1668 15.3338 52.1466 15.381C52.1264 15.4282 52.117 15.4793 52.1194 15.5306C52.157 15.623 52.2096 15.7085 52.2751 15.7836C52.3614 15.8927 52.4669 15.9851 52.5865 16.0561C52.6456 16.0931 52.7157 16.1085 52.7849 16.0996C52.8541 16.0908 52.9181 16.0582 52.966 16.0074C53.1412 15.842 53.1119 15.5987 52.8881 15.2776C52.8553 15.2245 52.8095 15.1806 52.755 15.1499C52.7005 15.1193 52.6392 15.103 52.5767 15.1025C52.4477 15.1099 52.3262 15.1654 52.2362 15.2582ZM56.041 11.5993C56.1807 11.8458 56.3011 12.1029 56.401 12.3681C56.533 12.6846 56.6436 13.0097 56.7319 13.3412C56.7319 13.4677 56.6735 13.565 56.4886 13.6331C56.3037 13.7012 56.2161 13.7012 56.1578 13.6331C56.0215 13.3606 55.8561 13.0103 55.6809 12.5627C55.5782 12.3261 55.4937 12.0822 55.4279 11.8328C55.4455 11.7749 55.4783 11.7228 55.5227 11.6817C55.5672 11.6407 55.6218 11.6122 55.6809 11.5993C55.7335 11.562 55.7964 11.542 55.8609 11.542C55.9254 11.542 55.9883 11.562 56.041 11.5993Z" fill="white"/>
<path d="M54.465 20.0463C54.2899 20.163 54.0758 20.0463 53.8131 19.6181C53.5503 19.1899 53.4822 18.9272 53.6282 18.791C54.2706 18.2218 54.9572 17.7045 55.6814 17.2438C56.1991 16.8578 56.778 16.5617 57.394 16.368C57.5154 16.3369 57.6439 16.3502 57.7563 16.4056C57.8687 16.4609 57.9577 16.5545 58.0071 16.6696C58.0804 16.7735 58.1272 16.8938 58.1433 17.0199C58.158 17.0805 58.1548 17.144 58.1341 17.2027C58.1134 17.2615 58.076 17.3129 58.0266 17.3508C57.9682 17.3508 57.9292 17.4189 57.9292 17.4384C57.9162 17.4587 57.9093 17.4824 57.9093 17.5065C57.9093 17.5306 57.9162 17.5543 57.9292 17.5746C57.9542 17.6239 57.9899 17.6669 58.0337 17.7006C58.0775 17.7343 58.1282 17.7577 58.1823 17.7692C58.3137 17.799 58.4389 17.8517 58.552 17.9249C58.7323 18.0468 58.8876 18.202 59.0094 18.3823C59.2211 18.7034 59.3012 19.0936 59.2332 19.4721C59.2087 19.6566 59.1425 19.8331 59.0397 19.9882C58.9368 20.1433 58.8 20.273 58.6396 20.3674C58.2984 20.6447 57.941 20.9015 57.5692 21.1362C56.982 21.5422 56.3441 21.8693 55.6717 22.1093C55.4965 22.1093 55.3019 21.9633 55.0878 21.6324C54.8737 21.3016 54.8543 21.107 54.9905 20.9707C55.1267 20.8345 55.1365 20.7858 55.3895 20.6204L55.876 20.3285L56.3626 20.0268C57.0924 19.5597 57.3357 19.2191 57.1897 19.0537L56.8783 18.7423C56.7907 18.645 56.6448 18.6353 56.4599 18.7423C56.275 18.8494 56.275 18.8494 56.0609 18.9856L54.465 20.0463Z" fill="white"/>
<path d="M55.8951 22.799C56.018 22.6772 56.1515 22.5664 56.294 22.4682C56.443 22.4417 56.5966 22.4656 56.7305 22.5361C56.8644 22.6065 56.9711 22.7196 57.0336 22.8574C57.0647 22.945 57.0811 23.037 57.0822 23.1299C56.9844 23.4103 56.9844 23.7156 57.0822 23.9959C57.1847 24.247 57.3612 24.4609 57.5883 24.609C57.6924 24.6916 57.8162 24.7457 57.9475 24.7662C58.0788 24.7867 58.2132 24.7727 58.3376 24.7258C58.4337 24.6962 58.5142 24.6298 58.5614 24.5409C58.5735 24.522 58.58 24.5001 58.58 24.4776C58.58 24.4552 58.5735 24.4333 58.5614 24.4144C58.4716 24.2828 58.3706 24.159 58.2597 24.0446C58.1051 23.8806 57.9771 23.6934 57.8802 23.4899C57.7687 23.1783 57.7386 22.8434 57.7926 22.5168C57.8737 22.2933 58.0029 22.0903 58.1711 21.9222C58.3392 21.7541 58.5422 21.6249 58.7657 21.5437C59.243 21.3474 59.7752 21.3301 60.2643 21.4951C60.5175 21.6064 60.743 21.7723 60.9247 21.9809C61.1064 22.1895 61.2397 22.4356 61.3152 22.7017C61.4428 23.0127 61.5248 23.3404 61.5585 23.6748C61.6093 23.9869 61.5723 24.3071 61.4514 24.5993C61.2612 24.9166 60.9844 25.1732 60.6535 25.3388C60.3436 25.5339 60.0181 25.7031 59.6804 25.8448C58.9652 26.1598 58.1815 26.2871 57.4034 26.2146C57.0321 26.1882 56.6762 26.056 56.3778 25.8335C56.0794 25.611 55.8511 25.3076 55.7199 24.9593C55.5829 24.6049 55.5072 24.2298 55.4961 23.85C55.57 23.48 55.7048 23.1248 55.8951 22.799ZM60.2643 23.6456C60.2795 23.5832 60.2821 23.5184 60.2721 23.4549C60.2621 23.3914 60.2395 23.3306 60.2059 23.2759C60.0113 22.9645 59.8167 22.8477 59.622 22.9256C59.5697 22.948 59.5205 22.9775 59.4761 23.0131C59.3903 23.064 59.3273 23.1459 59.3002 23.2419C59.273 23.3378 59.2837 23.4406 59.3301 23.5289L59.4858 23.8013C59.5928 23.996 59.7875 24.0349 60.0502 23.9278C60.1035 23.9059 60.1508 23.8715 60.1881 23.8274C60.2253 23.7834 60.2515 23.7311 60.2643 23.6748V23.6456Z" fill="white"/>
<path d="M25.953 57.6169C25.9173 57.95 25.8388 58.2771 25.7194 58.59C25.5443 59.1058 25.3399 59.6799 25.0772 60.2929C24.8232 61.0032 24.4442 61.6623 23.9581 62.2391C23.8356 62.3265 23.6945 62.3842 23.546 62.4079C23.3974 62.4315 23.2453 62.4204 23.1018 62.3754C22.7976 62.3264 22.5004 62.2415 22.2163 62.1224C21.8945 61.9904 21.5931 61.8135 21.321 61.5969C21.0858 61.4554 20.9043 61.2398 20.8053 60.9839C20.642 60.4931 20.6662 59.9592 20.8734 59.4853C20.9568 59.263 21.0868 59.0612 21.2546 58.8934C21.4225 58.7256 21.6243 58.5956 21.8465 58.5122C22.1745 58.4573 22.5113 58.4943 22.8196 58.6192C23.0064 58.7023 23.175 58.8213 23.3159 58.9695C23.4096 59.0741 23.514 59.1687 23.6273 59.2517C23.647 59.2612 23.6686 59.2662 23.6905 59.2662C23.7124 59.2662 23.734 59.2612 23.7538 59.2517C23.9249 59.1157 24.0533 58.9333 24.1235 58.7262C24.225 58.4592 24.2968 58.1819 24.3376 57.8991C24.3843 57.6208 24.4559 57.3472 24.5517 57.0817C24.5668 57.0468 24.5864 57.0141 24.6101 56.9844C24.7366 56.819 25.0091 56.819 25.408 56.9844C25.807 57.1498 25.9627 57.3834 25.953 57.6169ZM23.1796 60.653C23.2964 60.3805 23.2575 60.1956 23.0726 60.0788C22.9848 60.0189 22.8901 59.9699 22.7904 59.9329C22.7032 59.8857 22.6014 59.8734 22.5055 59.8988C22.4097 59.9241 22.3271 59.985 22.2747 60.0692C22.2408 60.1114 22.2114 60.157 22.1871 60.2053C22.1092 60.4 22.1871 60.5946 22.5374 60.799C22.6443 60.8668 22.7731 60.8911 22.8974 60.867C22.9593 60.8597 23.018 60.8359 23.0676 60.7983C23.1172 60.7607 23.1559 60.7105 23.1796 60.653Z" fill="white"/>
<path d="M28.9297 58.931C29.825 59.1257 30.1461 59.7581 29.9028 60.8188C29.8656 60.9649 29.7995 61.1021 29.7085 61.2222C29.6174 61.3423 29.5032 61.4431 29.3726 61.5183C29.242 61.5936 29.0976 61.642 28.948 61.6605C28.7984 61.6791 28.6466 61.6675 28.5016 61.6265C28.3344 61.579 28.1716 61.5171 28.015 61.4416L27.5479 61.2665H27.5285C27.4804 61.2795 27.4369 61.3054 27.4026 61.3415C27.3683 61.3775 27.3445 61.4222 27.3338 61.4708C27.323 61.5172 27.3217 61.5652 27.3301 61.6121C27.3385 61.6589 27.3563 61.7035 27.3825 61.7433C27.4203 61.8328 27.4895 61.9055 27.5771 61.9476C27.8086 62.0784 28.0493 62.1922 28.2972 62.2882C28.538 62.3359 28.7873 62.3157 29.0173 62.2298C29.1164 62.2055 29.2199 62.2055 29.3189 62.2298C29.3922 62.2404 29.462 62.2679 29.5228 62.3101C29.5836 62.3523 29.6338 62.4081 29.6693 62.4731C29.6987 62.5406 29.7139 62.6135 29.7139 62.6872C29.7139 62.7609 29.6987 62.8337 29.6693 62.9013C29.6077 63.1454 29.4797 63.3677 29.2995 63.5435C29.0619 63.6969 28.7922 63.7935 28.5113 63.8257C28.2602 63.8697 28.0034 63.8697 27.7523 63.8257C27.4927 63.7514 27.2416 63.6503 27.003 63.5241C26.5748 63.2516 26.351 63.0958 26.3024 63.0569C26.1299 62.8897 25.9853 62.6959 25.8742 62.4828C25.6321 61.9655 25.5837 61.3785 25.738 60.8286C25.7891 60.6316 25.8575 60.4395 25.9423 60.2545C26.3997 59.2814 27.0224 58.7461 27.8204 58.7461C28.1318 58.7461 28.3848 58.8142 28.5794 58.8532L28.9297 58.931ZM27.5868 57.7341C27.5474 57.8308 27.5474 57.9391 27.5868 58.0358C27.6135 58.078 27.6491 58.1138 27.6912 58.1407C27.7332 58.1676 27.7806 58.1849 27.8301 58.1915C28.0056 58.1311 28.17 58.0424 28.3167 57.9287C28.5697 57.7633 28.7351 57.6855 28.8032 57.7049C28.8713 57.7244 28.9686 57.8217 29.0562 58.0066C29.1264 58.1735 29.218 58.3305 29.3287 58.4737C29.3679 58.5295 29.4272 58.5678 29.4941 58.5807C29.538 58.5904 29.5834 58.5902 29.6272 58.5801C29.671 58.57 29.712 58.5503 29.7471 58.5223C29.8232 58.4637 29.8779 58.3816 29.9028 58.2888C29.8599 58.0072 29.7498 57.7402 29.5817 57.5103C29.4469 57.2583 29.2309 57.0594 28.9686 56.9459C28.7215 56.933 28.4766 56.9977 28.268 57.1308C28.0562 57.2394 27.8543 57.3664 27.6647 57.5103C27.622 57.578 27.5954 57.6546 27.5868 57.7341ZM27.9663 60.3031C28.0394 60.3763 28.1298 60.4299 28.2291 60.4588C28.3244 60.4869 28.4257 60.4869 28.521 60.4588C28.5652 60.4454 28.6048 60.4202 28.6357 60.3859C28.6666 60.3516 28.6875 60.3095 28.6962 60.2641C28.7078 60.2189 28.7067 60.1713 28.693 60.1266C28.6792 60.082 28.6534 60.0421 28.6183 60.0112C28.5527 59.9356 28.4636 59.8842 28.3653 59.8652C28.271 59.831 28.1677 59.831 28.0734 59.8652C28.0274 59.877 27.9857 59.9015 27.953 59.9359C27.9203 59.9703 27.898 60.0133 27.8885 60.0598C27.8853 60.099 27.8905 60.1385 27.904 60.1754C27.9174 60.2124 27.9387 60.2459 27.9663 60.2739V60.3031ZM29.1049 56.6734C29.1462 56.7526 29.1951 56.8275 29.2508 56.8973C29.3359 56.9943 29.4536 57.0566 29.5817 57.0724C29.7573 57.1163 29.9426 57.0991 30.1072 57.0237C30.2326 56.9528 30.3473 56.8643 30.4477 56.761C30.5245 56.6908 30.5787 56.5994 30.6034 56.4983C30.6372 56.4106 30.6372 56.3135 30.6034 56.2258C30.5809 56.1861 30.5501 56.1517 30.5132 56.1249C30.4763 56.098 30.4341 56.0794 30.3894 56.0701C30.3133 56.0462 30.2318 56.0462 30.1558 56.0701L29.9807 56.2258C29.955 56.2538 29.9232 56.2755 29.8877 56.289C29.8522 56.3025 29.8141 56.3075 29.7763 56.3037C29.735 56.2954 29.6961 56.278 29.6625 56.2527C29.6288 56.2275 29.6012 56.195 29.5817 56.1577C29.5609 56.0801 29.5315 56.005 29.4941 55.9339C29.3876 55.8376 29.256 55.7735 29.1146 55.749C29.0181 55.7308 28.9191 55.7308 28.8227 55.749C28.7274 55.7766 28.6359 55.8158 28.5502 55.8658C28.3655 55.9883 28.2282 56.1703 28.161 56.3815C28.1364 56.4574 28.1364 56.5391 28.161 56.6151C28.1779 56.6496 28.2025 56.6798 28.2328 56.7034C28.2632 56.727 28.2985 56.7434 28.3361 56.7513C28.4537 56.7671 28.5726 56.7356 28.667 56.6637C28.7068 56.6361 28.7427 56.6034 28.774 56.5664C28.8224 56.5315 28.8798 56.5112 28.9394 56.508C28.9773 56.512 29.0132 56.5271 29.0426 56.5513C29.072 56.5755 29.0937 56.6078 29.1049 56.6442V56.6734Z" fill="white"/>
<path d="M33.2515 59.0577C33.2515 58.8144 33.485 58.6879 33.8548 58.6684C33.9972 58.6561 34.1405 58.6561 34.2829 58.6684C34.5067 58.6684 34.6138 58.7658 34.6138 58.8436C34.6896 58.9516 34.7272 59.0816 34.7208 59.2134C34.7401 59.4952 34.7401 59.7781 34.7208 60.06C34.6854 60.3375 34.6691 60.6171 34.6722 60.8968C34.6722 61.1596 34.7403 61.2861 34.8279 61.2861L35.256 61.1596C35.4415 61.0939 35.6343 61.0514 35.8302 61.0331C36.1108 61.0238 36.3916 61.0466 36.667 61.1012C37.173 61.2666 37.4455 61.8796 37.4941 62.9501C37.5461 63.3939 37.5098 63.8437 37.3871 64.2735C37.3287 64.4 37.1536 64.4681 36.8422 64.4876C36.6462 64.5167 36.4462 64.4753 36.2778 64.3708C36.1555 64.2205 36.0962 64.0287 36.1124 63.8356C36.1023 63.7028 36.1023 63.5694 36.1124 63.4366C36.1124 63.2614 36.1124 63.135 36.1124 63.0377C36.1124 62.6387 35.9469 62.444 35.655 62.4538C35.4658 62.4801 35.282 62.536 35.1101 62.6192C34.9933 62.6192 34.9446 62.8041 34.9544 63.0668C34.9544 63.1641 34.9544 63.3004 34.9544 63.495C34.9544 63.6896 34.9544 63.8258 34.9544 63.9232C34.9791 64.0517 34.9791 64.1838 34.9544 64.3124C34.9544 64.4876 34.7111 64.5849 34.3121 64.6043C33.9132 64.6238 33.6602 64.546 33.6018 64.3708C33.4072 62.6873 33.2806 61.4029 33.2417 60.4784C33.2173 60.005 33.2206 59.5306 33.2515 59.0577Z" fill="white"/>
<path d="M37.4832 59.3098C37.4118 58.713 37.7037 58.3627 38.359 58.2589C38.5554 58.2103 38.7628 58.2344 38.9428 58.327C39.1057 58.4485 39.2305 58.614 39.3029 58.8038C39.3332 58.8835 39.3592 58.9647 39.3807 59.0471C39.4073 59.1719 39.4062 59.3011 39.3776 59.4255C39.3491 59.5498 39.2937 59.6665 39.2153 59.7672C39.0406 59.9691 38.7985 60.1005 38.5341 60.137C38.4125 60.1613 38.2869 60.1573 38.1671 60.1252C38.0473 60.0931 37.9364 60.0339 37.8432 59.9521C37.7415 59.8763 37.6569 59.7799 37.5949 59.6692C37.5329 59.5586 37.4948 59.4361 37.4832 59.3098ZM37.9502 60.8765C38.0184 60.6819 38.2325 60.5457 38.612 60.4776C38.9915 60.4095 39.3029 60.4776 39.4488 60.643C39.6715 61.1428 39.8128 61.675 39.8672 62.2194C39.9889 62.7324 40.0445 63.2589 40.0327 63.7861C39.9938 63.9807 39.7505 64.117 39.3029 64.1948C38.8942 64.2629 38.6412 64.1948 38.5438 64.078C38.2848 63.5351 38.1171 62.9532 38.0476 62.3556C37.9085 61.8755 37.8753 61.3708 37.9502 60.8765Z" fill="white"/>
<path d="M42.2517 58.1526C43.1275 57.8672 43.7308 58.2467 44.0617 59.2912C44.1064 59.4336 44.1222 59.5836 44.1081 59.7322C44.094 59.8808 44.0503 60.0251 43.9795 60.1566C43.9088 60.2881 43.8125 60.4041 43.6962 60.4978C43.58 60.5915 43.4462 60.661 43.3026 60.7021C43.1327 60.7421 42.9605 60.7714 42.7869 60.7897C42.6229 60.8075 42.4603 60.8367 42.3004 60.8773H42.2225C42.19 60.9138 42.1676 60.9581 42.1573 61.0058C42.1471 61.0536 42.1495 61.1032 42.1641 61.1498C42.1959 61.2393 42.2578 61.315 42.3393 61.3638C42.4252 61.4133 42.5223 61.4401 42.6215 61.4417C42.8861 61.4404 43.15 61.4144 43.4097 61.3638C43.643 61.288 43.8492 61.1461 44.0033 60.9552C44.0763 60.8819 44.1667 60.8284 44.266 60.7995C44.3331 60.7682 44.4061 60.752 44.4801 60.752C44.5541 60.752 44.6272 60.7682 44.6942 60.7995C44.7577 60.8392 44.8121 60.8917 44.854 60.9537C44.8959 61.0157 44.9244 61.0858 44.9375 61.1595C45.0069 61.3978 45.0069 61.651 44.9375 61.8893C44.8149 62.1444 44.631 62.365 44.4022 62.5316C44.2094 62.699 43.9842 62.8249 43.7406 62.9013C43.4798 62.9719 43.2123 63.0143 42.9426 63.0279C42.4366 63.0279 42.1641 63.0279 42.1058 63.0279C41.8716 62.9694 41.6482 62.8742 41.444 62.7457C40.9618 62.4281 40.6149 61.9425 40.4709 61.3833C40.4132 61.1896 40.3741 60.9909 40.3542 60.7897C40.2526 60.3724 40.28 59.9341 40.4329 59.5327C40.5858 59.1313 40.857 58.7858 41.2105 58.5419C41.4927 58.4154 41.736 58.3181 41.9209 58.2499L42.2517 58.1526ZM40.4709 57.7828C40.4833 57.8327 40.5062 57.8794 40.5381 57.9197C40.57 57.9599 40.6101 57.9929 40.6558 58.0164C40.6995 58.0386 40.7479 58.0502 40.7969 58.0502C40.846 58.0502 40.8943 58.0386 40.938 58.0164C41.0614 57.875 41.1601 57.7138 41.2299 57.5396C41.3662 57.2671 41.4635 57.1212 41.5316 57.1017C41.5997 57.0822 41.736 57.1017 41.9111 57.2379C42.0547 57.3455 42.2117 57.4339 42.3782 57.5007C42.4409 57.5246 42.5102 57.5246 42.5728 57.5007C42.616 57.4874 42.6558 57.4648 42.6894 57.4345C42.723 57.4043 42.7497 57.3671 42.7675 57.3255C42.8018 57.2346 42.8018 57.1342 42.7675 57.0433C42.5936 56.817 42.3615 56.6421 42.096 56.5373C41.8571 56.3823 41.571 56.3168 41.2884 56.3524C41.1327 56.401 40.9672 56.5762 40.7726 56.8681C40.6427 57.0665 40.535 57.2787 40.4515 57.5007C40.4335 57.5948 40.4402 57.692 40.4709 57.7828ZM40.8407 55.3404C40.8407 55.4669 40.9964 55.4864 41.191 55.428C41.2198 55.3344 41.27 55.2487 41.3375 55.1778C41.4051 55.1069 41.4882 55.0526 41.5803 55.0193C41.6358 54.9996 41.6954 54.9946 41.7534 55.0048C41.8114 55.0151 41.8657 55.0401 41.9111 55.0776C41.9601 55.115 41.9972 55.1657 42.0182 55.2236C42.0182 55.308 41.9792 55.415 41.9014 55.5447L41.7262 55.7491C41.7099 55.7876 41.7015 55.8289 41.7015 55.8707C41.7015 55.9125 41.7099 55.9539 41.7262 55.9924C41.7457 56.0521 41.7753 56.1081 41.8138 56.1578V56.2064C41.8435 56.2429 41.8839 56.2692 41.9293 56.2814C41.9747 56.2936 42.0228 56.2912 42.0668 56.2746C42.1088 56.262 42.1456 56.2364 42.1719 56.2013C42.1982 56.1663 42.2125 56.1237 42.2128 56.0799L42.3198 55.8658C42.3467 55.8197 42.3794 55.7772 42.4171 55.7394C42.5258 55.6353 42.5976 55.4986 42.6215 55.3501C42.6548 55.206 42.6548 55.0563 42.6215 54.9122C42.5941 54.8261 42.5548 54.7442 42.5047 54.669C42.4574 54.5926 42.3915 54.5294 42.3133 54.4852C42.235 54.4409 42.1469 54.4171 42.0571 54.4159C41.8774 54.3888 41.6938 54.4055 41.5219 54.4646C41.3413 54.5149 41.1791 54.6163 41.0548 54.7565C40.93 54.8964 40.8578 55.0753 40.8505 55.2625C40.8449 55.2881 40.8416 55.3142 40.8407 55.3404ZM42.1058 59.8069C42.2041 59.8364 42.309 59.8364 42.4074 59.8069C42.5013 59.7788 42.5833 59.7207 42.6409 59.6415C42.6735 59.607 42.6961 59.5644 42.7063 59.5181C42.7166 59.4719 42.7142 59.4237 42.6993 59.3787C42.686 59.3346 42.6608 59.2949 42.6265 59.264C42.5921 59.2331 42.5501 59.2123 42.5047 59.2036C42.4096 59.1743 42.3079 59.1743 42.2128 59.2036C42.1173 59.2339 42.0328 59.2914 41.9695 59.369C41.9379 59.404 41.9158 59.4466 41.9056 59.4927C41.8954 59.5387 41.8973 59.5867 41.9111 59.6318C41.927 59.678 41.9554 59.7188 41.9932 59.7498C42.0311 59.7807 42.0768 59.8005 42.1252 59.8069H42.1058Z" fill="white"/>
<path d="M46.0173 57.1206C46.134 57.4028 46.2508 57.7142 46.3676 58.0937C46.4691 58.3992 46.5893 58.6982 46.7276 58.989C46.9287 59.3717 47.1623 59.4982 47.4283 59.3685C47.7007 59.2322 47.7202 58.9598 47.4866 58.5316C47.342 58.2532 47.1761 57.9865 46.9904 57.7337C46.6887 57.3444 46.5038 57.0914 46.4357 56.9941C46.387 56.9197 46.3652 56.8308 46.3741 56.7423C46.3829 56.6537 46.4219 56.5709 46.4844 56.5076C46.5965 56.3615 46.7393 56.2419 46.9028 56.1573C47.0854 56.0575 47.2884 56.0009 47.4964 55.9918C47.5983 55.9813 47.7012 55.9943 47.7974 56.0297C47.8935 56.0651 47.9803 56.1221 48.051 56.1962C48.3217 56.4899 48.5539 56.8169 48.7419 57.1693C48.9937 57.6491 49.1927 58.1549 49.3355 58.6776C49.5496 59.4463 49.569 59.9523 49.3842 60.2151C49.3842 60.4778 49.0338 60.7697 48.4111 61.1103C47.7883 61.4509 47.292 61.5774 47.0877 61.4314C46.5975 61.3241 46.1603 61.0487 45.8518 60.653C45.5149 60.2792 45.2271 59.8639 44.9955 59.4171C44.7744 59.0081 44.6045 58.5734 44.4895 58.1229C44.4591 58.0215 44.452 57.9146 44.4689 57.8101C44.4858 57.7056 44.5261 57.6063 44.5868 57.5196C44.7189 57.3299 44.8961 57.176 45.1025 57.072C45.2578 56.9879 45.4252 56.9288 45.5988 56.8968C45.8421 56.8968 45.9978 56.8968 46.0659 57.0428C46.0534 57.0709 46.037 57.0971 46.0173 57.1206Z" fill="white"/>
<path d="M63.0471 35.8591L61.7334 35.4894C61.7065 35.4749 61.6764 35.4673 61.6458 35.4673C61.6153 35.4673 61.5852 35.4749 61.5583 35.4894L60.5073 36.3651C60.4782 36.3883 60.4432 36.403 60.4063 36.4077C60.3694 36.4125 60.3319 36.407 60.2979 36.392C60.2638 36.377 60.2345 36.3529 60.2131 36.3225C60.1917 36.292 60.179 36.2563 60.1765 36.2192L60.1278 34.8568C60.1296 34.8252 60.1224 34.7938 60.1068 34.7662C60.0913 34.7386 60.0682 34.716 60.0402 34.7011L58.8822 33.9616C58.8493 33.9456 58.8216 33.9208 58.8022 33.8898C58.7828 33.8588 58.7725 33.823 58.7725 33.7864C58.7725 33.7499 58.7828 33.714 58.8022 33.6831C58.8216 33.6521 58.8493 33.6272 58.8822 33.6113L60.1667 33.1442C60.1964 33.1319 60.223 33.1133 60.2448 33.0898C60.2666 33.0663 60.2832 33.0384 60.2933 33.0079L60.6338 31.6845C60.6434 31.6499 60.6625 31.6185 60.6889 31.594C60.7152 31.5695 60.7479 31.5528 60.7832 31.5458C60.8185 31.5387 60.855 31.5416 60.8888 31.5541C60.9225 31.5665 60.9522 31.5881 60.9744 31.6164L61.821 32.6868C61.8406 32.7118 61.8658 32.7318 61.8945 32.7453C61.9232 32.7588 61.9547 32.7654 61.9864 32.7647L63.3488 32.6771C63.385 32.6747 63.4211 32.6824 63.4531 32.6995C63.4851 32.7165 63.5118 32.7422 63.53 32.7735C63.5482 32.8049 63.5573 32.8408 63.5562 32.877C63.5551 32.9133 63.5439 32.9485 63.5239 32.9787L62.7649 34.1173C62.7477 34.145 62.7385 34.1771 62.7385 34.2097C62.7385 34.2424 62.7477 34.2744 62.7649 34.3022L63.2709 35.5672C63.2882 35.6015 63.2954 35.6399 63.2918 35.6782C63.2882 35.7164 63.2739 35.7528 63.2505 35.7833C63.2272 35.8138 63.1957 35.8371 63.1597 35.8505C63.1237 35.8639 63.0847 35.8669 63.0471 35.8591Z" fill="white"/>
<path d="M12.2119 45.4229V50.989" stroke="white" stroke-miterlimit="10" stroke-linecap="round"/>
<path d="M9.79883 46.8164L14.6254 49.5995" stroke="white" stroke-miterlimit="10" stroke-linecap="round"/>
<path d="M9.79883 49.5995L14.6254 46.8164" stroke="white" stroke-miterlimit="10" stroke-linecap="round"/>
<path d="M13.0304 33.4057C12.6747 33.3762 12.3171 33.4335 11.9883 33.5724C11.6596 33.7114 11.3694 33.928 11.1426 34.2036C11.1027 34.2617 11.0481 34.3081 10.9845 34.3383C10.9208 34.3684 10.8503 34.3811 10.7802 34.3752C10.71 34.3693 10.6426 34.3449 10.5849 34.3045C10.5272 34.2641 10.4813 34.2091 10.4517 34.1452C10.27 33.8364 10.0171 33.5754 9.71413 33.3842C9.41113 33.1929 9.0668 33.0768 8.70984 33.0456C8.42033 33.0216 8.12893 33.055 7.85233 33.1438C7.57574 33.2326 7.31939 33.3751 7.09794 33.5631C6.87648 33.7511 6.69428 33.9809 6.56178 34.2395C6.42928 34.498 6.34908 34.7801 6.32575 35.0697C6.30501 35.3484 6.33467 35.6286 6.41333 35.8968C6.88041 37.843 9.44939 40.3438 10.3057 40.4898C11.1426 40.4898 14.0911 38.4463 14.8598 36.5974C14.9884 36.3496 15.0646 36.078 15.0836 35.7995C15.1102 35.5066 15.0778 35.2115 14.9883 34.9314C14.8989 34.6513 14.7541 34.392 14.5627 34.1688C14.3713 33.9456 14.137 33.7631 13.8738 33.632C13.6107 33.501 13.3239 33.424 13.0304 33.4057Z" fill="#FCD527"/>
<path d="M55.0483 54.0358H54.9607C54.9147 54.0239 54.873 53.9994 54.8403 53.965C54.8076 53.9306 54.7852 53.8877 54.7758 53.8411L54.4936 51.6419L52.5474 50.6688C52.5056 50.6459 52.4709 50.6121 52.4469 50.571C52.4229 50.5298 52.4106 50.4829 52.4112 50.4353C52.4103 50.3864 52.4237 50.3384 52.4496 50.2969C52.4755 50.2555 52.5128 50.2224 52.5571 50.2018L54.5617 49.2287L54.9217 47.0392C54.9308 46.9929 54.9516 46.9497 54.9823 46.9139C55.013 46.8781 55.0525 46.8508 55.0969 46.8348C55.1423 46.8174 55.1921 46.8146 55.2392 46.8268C55.2863 46.839 55.3284 46.8656 55.3597 46.903L56.8874 48.5183L59.0769 48.1777C59.1247 48.1725 59.173 48.1796 59.2173 48.1984C59.2616 48.2171 59.3003 48.2468 59.3299 48.2848C59.3559 48.3254 59.3697 48.3727 59.3697 48.421C59.3697 48.4693 59.3559 48.5165 59.3299 48.5572L58.2692 50.5034L59.2423 52.4496C59.2683 52.4903 59.2821 52.5376 59.2821 52.5858C59.2821 52.6341 59.2683 52.6814 59.2423 52.7221C59.213 52.7598 59.1739 52.7887 59.1293 52.8059C59.0848 52.823 59.0363 52.8277 58.9893 52.8194L56.8096 52.4009L55.2331 53.9677C55.2084 53.9908 55.1793 54.0088 55.1476 54.0205C55.1158 54.0322 55.0821 54.0374 55.0483 54.0358ZM53.2383 50.3769L54.8731 51.2138C54.9086 51.2344 54.9392 51.2624 54.9627 51.2961C54.9862 51.3297 55.0021 51.368 55.0093 51.4084L55.2429 53.2281L56.5371 51.9436C56.5667 51.9125 56.6035 51.8892 56.6442 51.8756C56.6849 51.8621 56.7283 51.8587 56.7706 51.8658L58.5709 52.2063L57.7437 50.5716C57.725 50.5355 57.7152 50.4954 57.7152 50.4548C57.7152 50.4141 57.725 50.3741 57.7437 50.338L58.6292 48.7324L56.8193 49.0048C56.7784 49.0141 56.7358 49.0118 56.6962 48.998C56.6567 48.9842 56.6218 48.9596 56.5955 48.927L55.3402 47.5938L55.0385 49.4038C55.0327 49.4447 55.0173 49.4836 54.9937 49.5174C54.97 49.5512 54.9387 49.579 54.9023 49.5985L53.2383 50.3769Z" fill="#F5CB15"/>
<path d="M22.4111 49.8324L27.6269 35.1387L35.5382 37.9412L30.3321 52.6447L27.2863 48.6647L22.4111 49.8324Z" fill="#32AC66"/>
<path d="M45.8809 49.8324L40.6651 35.1387L32.7441 37.9412L37.9599 52.6447L41.0057 48.6647L45.8809 49.8324Z" fill="#227D44"/>
<path d="M22.8095 29.7674C22.8121 26.7649 24.0046 23.8859 26.1259 21.761C28.2471 19.6361 31.1241 18.4385 34.1266 18.4308V17.6815L31.7717 15.7354L30.2148 18.3919L27.3441 17.2923L26.7408 20.3089L23.6755 20.1922L24.0745 23.2477L21.1552 24.1332L22.5273 26.887L20.0459 28.6873L22.2354 30.8378L20.4157 33.4068L23.189 34.7302L22.3229 37.6495L25.3785 37.9998L25.5244 41.0748L28.5313 40.4131L29.6601 43.274L32.2875 41.6781L34.1266 43.8189V41.1234C31.1208 41.1157 28.2408 39.9156 26.119 37.7864C23.9972 35.6573 22.8069 32.7733 22.8095 29.7674Z" fill="#FEDE5E"/>
<path d="M22.8096 29.7671C22.8122 32.7696 24.0047 35.6487 26.126 37.7736C28.2472 39.8985 31.1242 41.096 34.1267 41.1037V40.1306C31.373 40.1306 28.7321 39.0367 26.7849 37.0895C24.8377 35.1423 23.7438 32.5014 23.7438 29.7476C23.7438 26.9939 24.8377 24.353 26.7849 22.4058C28.7321 20.4586 31.373 19.3647 34.1267 19.3647V18.3916C32.6367 18.3954 31.162 18.6927 29.7869 19.2664C28.4118 19.8402 27.1631 20.6792 26.1122 21.7355C25.0613 22.7918 24.2288 24.0448 23.6621 25.4228C23.0955 26.8009 22.8058 28.2771 22.8096 29.7671Z" fill="#E4B92C"/>
<path d="M24.2394 29.7667C24.242 27.1436 25.2838 24.6284 27.1368 22.7718C28.9898 20.9151 31.503 19.8683 34.1261 19.8606V19.3838C31.3724 19.3838 28.7314 20.4777 26.7843 22.4249C24.8371 24.3721 23.7432 27.013 23.7432 29.7667C23.7432 32.5205 24.8371 35.1614 26.7843 37.1086C28.7314 39.0558 31.3724 40.1497 34.1261 40.1497V39.6729C31.5038 39.6626 28.9921 38.615 27.1397 36.7589C25.2872 34.9028 24.2446 32.3891 24.2394 29.7667Z" fill="#FEDE5E"/>
<path d="M24.7168 29.7672C24.7194 32.2639 25.7109 34.6578 27.4745 36.425C29.2381 38.1922 31.63 39.1888 34.1266 39.1965V20.3379C31.6292 20.343 29.2358 21.3388 27.4717 23.1065C25.7076 24.8743 24.7168 27.2698 24.7168 29.7672Z" fill="#FEDE5E"/>
<path d="M24.2393 29.7675C24.2444 32.3898 25.287 34.9035 27.1395 36.7596C28.9919 38.6157 31.5036 39.6633 34.1259 39.6736V39.4303C31.5632 39.4303 29.1054 38.4123 27.2933 36.6001C25.4811 34.788 24.4631 32.3302 24.4631 29.7675C24.4631 27.2047 25.4811 24.7469 27.2933 22.9348C29.1054 21.1227 31.5632 20.1046 34.1259 20.1046V19.8613C31.5028 19.869 28.9896 20.9158 27.1366 22.7725C25.2837 24.6291 24.2418 27.1444 24.2393 29.7675Z" fill="white"/>
<path d="M24.7169 29.7674C24.7169 27.2699 25.7076 24.8745 27.4718 23.1067C29.2359 21.3389 31.6293 20.3432 34.1267 20.3381V20.1045C31.564 20.1045 29.1062 21.1226 27.294 22.9347C25.4819 24.7468 24.4639 27.2046 24.4639 29.7674C24.4639 32.3301 25.4819 34.7879 27.294 36.6C29.1062 38.4122 31.564 39.4302 34.1267 39.4302V39.2453C32.8863 39.2415 31.6589 38.9932 30.5145 38.5147C29.3701 38.0362 28.3313 37.3369 27.4574 36.4566C26.5835 35.5764 25.8916 34.5325 25.4214 33.3847C24.9512 32.2369 24.7117 31.0077 24.7169 29.7674Z" fill="white"/>
<path d="M36.2865 41.6295L38.9333 43.1864L40.0232 40.3158L43.0398 40.9288L43.1371 37.8538L46.1829 37.4549L45.2876 34.5356L48.0318 33.1732L46.2315 30.6821L48.3918 28.5024L45.8715 26.7313L47.2046 23.9677L44.2853 23.1114L44.6454 20.0656L41.5704 20.2116L40.9281 17.2144L38.0672 18.353L36.4811 15.7256L34.1846 17.6718V18.4211C37.1912 18.4211 40.0747 19.6155 42.2007 21.7415C44.3268 23.8675 45.5211 26.751 45.5211 29.7577C45.5211 32.7643 44.3268 35.6478 42.2007 37.7738C40.0747 39.8999 37.1912 41.0942 34.1846 41.0942V43.7897L34.35 43.9843L36.2865 41.6295Z" fill="#E4B92C"/>
<path d="M34.1465 19.3844C36.9002 19.3844 39.5411 20.4783 41.4883 22.4255C43.4355 24.3726 44.5294 27.0136 44.5294 29.7673C44.5294 32.521 43.4355 35.162 41.4883 37.1092C39.5411 39.0564 36.9002 40.1502 34.1465 40.1502V41.1233C37.1531 41.1233 40.0366 39.929 42.1626 37.8029C44.2887 35.6769 45.4831 32.7934 45.4831 29.7868C45.4831 26.7801 44.2887 23.8966 42.1626 21.7706C40.0366 19.6446 37.1531 18.4502 34.1465 18.4502V19.4233V19.3844Z" fill="#C0972D"/>
<path d="M44.5294 29.7667C44.5243 27.0146 43.4287 24.3766 41.4827 22.4306C39.5366 20.4845 36.8986 19.3889 34.1465 19.3838V19.8606C36.7738 19.8606 39.2934 20.9043 41.1512 22.762C43.0089 24.6198 44.0526 27.1395 44.0526 29.7667C44.0526 32.394 43.0089 34.9137 41.1512 36.7714C39.2934 38.6292 36.7738 39.6729 34.1465 39.6729V40.1497C36.8986 40.1445 39.5366 39.049 41.4827 37.1029C43.4287 35.1568 44.5243 32.5189 44.5294 29.7667Z" fill="#E4B92C"/>
<path d="M34.1465 39.2453C36.6473 39.2453 39.0457 38.2519 40.814 36.4836C42.5823 34.7152 43.5758 32.3168 43.5758 29.816C43.5758 27.3152 42.5823 24.9168 40.814 23.1485C39.0457 21.3802 36.6473 20.3867 34.1465 20.3867V39.2453Z" fill="#E4B92C"/>
<path d="M34.1465 19.8613V20.3382C36.6473 20.3382 39.0457 21.3316 40.814 23.0999C42.5823 24.8683 43.5758 27.2667 43.5758 29.7675C43.5758 32.2683 42.5823 34.6667 40.814 36.435C39.0457 38.2034 36.6473 39.1968 34.1465 39.1968V39.6736C36.7738 39.6736 39.2934 38.6299 41.1512 36.7722C43.0089 34.9144 44.0526 32.3947 44.0526 29.7675C44.0526 27.1402 43.0089 24.6205 41.1512 22.7628C39.2934 20.905 36.7738 19.8613 34.1465 19.8613Z" fill="#C7C6C5"/>
<path d="M29.8546 35.9858L30.818 31.1203L27.1494 27.7728L32.0733 27.189L34.1265 22.6641L36.2089 27.1695L41.1425 27.7242L37.5032 31.1008L38.4957 35.9566L34.1655 33.5336L29.8546 35.9858Z" fill="#E4B92C"/>
<path d="M34.146 29.3284L27.1494 27.7715L30.818 31.1189L34.146 29.3284Z" fill="#C0972D"/>
<path d="M34.1459 29.3291L29.8545 35.9851L34.1653 33.5329L38.4956 35.9559L34.1459 29.3291Z" fill="#C0972D"/>
<path d="M34.1465 29.3292L41.143 27.7236L37.5037 31.1003L34.1465 29.3292Z" fill="#C0972D"/>
<path d="M34.127 22.6641L34.1464 29.3298L36.2094 27.1695L34.127 22.6641Z" fill="#C0972D"/>
</svg>
