<svg width="68" height="68" viewBox="0 0 68 68" fill="none" xmlns="http://www.w3.org/2000/svg">
<path d="M34 68C52.7777 68 68 52.7777 68 34C68 15.2223 52.7777 0 34 0C15.2223 0 0 15.2223 0 34C0 52.7777 15.2223 68 34 68Z" fill="#20ADC7"/>
<path d="M11.8134 17.6813L11.7161 17.7592C11.3275 17.5658 10.8936 17.4817 10.4608 17.5159C10.2454 17.5378 10.0384 17.6111 9.85722 17.7297C9.67603 17.8482 9.52595 18.0085 9.41958 18.1971C9.26927 18.4241 9.1975 18.6941 9.21524 18.9658C9.23018 19.2219 9.31058 19.4698 9.44877 19.6859C9.5853 19.9177 9.75588 20.1276 9.95479 20.3087C10.1405 20.4833 10.3426 20.6397 10.5581 20.7758C10.7732 20.9093 11.0014 21.0201 11.2393 21.1066C11.4873 21.2078 11.7503 21.267 12.0178 21.2818C12.2758 21.3134 12.5376 21.2765 12.7768 21.1747C13.029 21.0728 13.2386 20.8873 13.3704 20.6493C13.5004 20.4673 13.592 20.2608 13.6395 20.0422C13.687 19.8237 13.6894 19.5977 13.6465 19.3782C13.6037 19.1587 13.5166 18.9503 13.3905 18.7656C13.2644 18.5809 13.1019 18.4239 12.913 18.3041V18.1971L14.217 18.5766C14.1891 18.9821 14.1174 19.3834 14.0029 19.7735C13.8724 20.1924 13.6858 20.5917 13.4482 20.9607C13.0911 21.5801 12.5255 22.0526 11.8523 22.2938C11.5397 22.4009 11.2088 22.4439 10.8792 22.4203C10.4984 22.3698 10.1332 22.237 9.80883 22.0311C9.47745 21.8337 9.19474 21.5644 8.98169 21.2429C8.80232 20.9454 8.68638 20.6141 8.64112 20.2698C8.56139 19.5589 8.73357 18.8427 9.12766 18.2457C9.53675 17.5359 10.1109 16.9351 10.8014 16.4941L11.8134 17.6813Z" fill="white"/>
<path d="M15.0137 13.3986C15.3015 13.3746 15.5911 13.4125 15.863 13.5097C16.1349 13.6068 16.3829 13.7611 16.5903 13.962C16.7977 14.1629 16.9597 14.4059 17.0654 14.6746C17.1711 14.9433 17.2181 15.2316 17.2032 15.5199C17.1468 16.0969 16.8968 16.6378 16.494 17.0548C16.0912 17.4717 15.5592 17.7402 14.9845 17.8165C14.6963 17.8456 14.4053 17.8101 14.1325 17.7125C13.8598 17.6148 13.6123 17.4575 13.4081 17.252C13.1979 17.0555 13.0339 16.8148 12.9279 16.5473C12.8219 16.2797 12.7765 15.992 12.7951 15.7048C12.8528 15.1273 13.1029 14.586 13.5053 14.1678C13.9077 13.7495 14.4389 13.4786 15.0137 13.3986ZM13.447 14.8485C13.4454 15.0438 13.4887 15.237 13.5735 15.4129C13.6633 15.598 13.7709 15.774 13.8947 15.9384C14.0109 16.0869 14.1377 16.2267 14.2742 16.3568C14.4075 16.4876 14.5506 16.608 14.7023 16.7169C14.8734 16.8383 15.0559 16.9426 15.2473 17.0283C15.4257 17.1034 15.6181 17.1398 15.8117 17.1353C16.004 17.1173 16.1835 17.031 16.3177 16.892C16.4574 16.7514 16.5405 16.5644 16.5512 16.3665C16.5471 16.1718 16.5041 15.98 16.4247 15.8021C16.3282 15.6196 16.2141 15.4469 16.0841 15.2864C15.9655 15.14 15.8388 15.0003 15.7046 14.868C15.5701 14.7347 15.4235 14.6142 15.2667 14.5079C15.1026 14.384 14.9226 14.2825 14.7315 14.2063C14.5559 14.1221 14.3614 14.0852 14.1671 14.0992C13.973 14.1107 13.7913 14.198 13.6611 14.3425C13.5299 14.479 13.4536 14.6592 13.447 14.8485Z" fill="white"/>
<path d="M17.5637 11.735C17.5001 11.4564 17.524 11.1649 17.6319 10.9003C17.7399 10.6356 17.9267 10.4106 18.167 10.2559C18.3122 10.1485 18.4773 10.0709 18.6526 10.0275C18.8279 9.98411 19.0101 9.97575 19.1887 10.0029C19.3655 10.0318 19.5341 10.098 19.6834 10.1969C19.8327 10.2959 19.9593 10.4255 20.0548 10.577L21.203 12.2216C21.2377 12.2866 21.2849 12.344 21.342 12.3906C21.3991 12.4371 21.4649 12.4718 21.5356 12.4926C21.6063 12.5135 21.6804 12.52 21.7536 12.5119C21.8268 12.5038 21.8977 12.4812 21.962 12.4454L22.0302 12.5427L21.1446 13.1168L20.3272 13.7201L20.2689 13.6228C20.5024 13.4185 20.5121 13.1655 20.2689 12.8541L19.2958 11.3847C19.1555 11.1686 18.9694 10.9859 18.7508 10.8495C18.6451 10.7808 18.5217 10.7443 18.3956 10.7443C18.2696 10.7443 18.1462 10.7808 18.0405 10.8495C17.9207 10.9462 17.8346 11.0782 17.7944 11.2268C17.7542 11.3753 17.762 11.5328 17.8167 11.6766C17.8499 11.8392 17.9056 11.9964 17.9821 12.1437C18.0412 12.2767 18.1129 12.4038 18.1962 12.5232L18.7119 13.2628C18.8522 13.4891 19.0338 13.6872 19.2471 13.8466C19.3262 13.9075 19.4194 13.9475 19.5181 13.9628C19.6167 13.9781 19.7177 13.9682 19.8115 13.9342L19.8699 14.0315C19.7998 14.0868 19.7249 14.1356 19.6461 14.1775L19.1984 14.4694L18.9844 14.6154L18.7606 14.7711L18.3324 15.0922L18.1183 15.2479L18.0599 15.1506C18.1241 15.0752 18.1676 14.9845 18.1864 14.8873C18.2051 14.7902 18.1984 14.6898 18.167 14.5959C18.0866 14.344 17.965 14.1073 17.8069 13.8953L16.8338 12.5719C16.7309 12.4089 16.5819 12.2802 16.4057 12.2021C16.2854 12.1634 16.1561 12.1634 16.0359 12.2021L15.9678 12.1145C16.3618 11.7907 16.7355 11.443 17.0868 11.0733L17.5637 11.735Z" fill="white"/>
<path d="M27.0224 8.02786H26.8862C26.7878 7.69536 26.5869 7.40244 26.3121 7.19099C26.1784 7.08076 26.0178 7.00822 25.8467 6.98085C25.6756 6.95348 25.5003 6.97227 25.339 7.03529C25.1478 7.10044 24.9836 7.22707 24.8719 7.39536C24.7676 7.56251 24.7074 7.7533 24.6967 7.95C24.6683 8.15662 24.6683 8.36617 24.6967 8.5728C24.7272 8.76423 24.7727 8.95294 24.833 9.13718C24.9501 9.54613 25.1753 9.91593 25.4849 10.2076C25.64 10.3389 25.828 10.4254 26.0285 10.458C26.2291 10.4906 26.4348 10.4679 26.6235 10.3925C26.8976 10.308 27.1301 10.1241 27.2754 9.87674C27.4242 9.63021 27.5017 9.34727 27.4992 9.05934L27.762 9.19556C27.7454 9.58202 27.5939 9.95044 27.3338 10.2368C27.0632 10.5117 26.729 10.7156 26.3607 10.8304C25.8386 11.0222 25.262 11.0012 24.7551 10.772C24.4981 10.6458 24.2687 10.4698 24.0803 10.2542C23.8919 10.0385 23.7483 9.7876 23.6577 9.51596C23.5672 9.24432 23.5315 8.95737 23.5529 8.67183C23.5742 8.3863 23.6521 8.10785 23.782 7.85268C24.0893 7.35298 24.5714 6.98534 25.1346 6.8212C25.4262 6.72189 25.7316 6.66937 26.0396 6.66553C26.3424 6.65828 26.6452 6.67782 26.9446 6.72392L27.0224 8.02786Z" fill="white"/>
<path d="M29.4458 6.67604C29.5161 6.39979 29.6695 6.1518 29.8853 5.96558C30.1011 5.77936 30.3689 5.66389 30.6525 5.63482C31.0135 5.57803 31.3826 5.66162 31.6839 5.86838C31.8272 5.97728 31.9463 6.11487 32.0334 6.27237C32.1205 6.42987 32.1738 6.60382 32.1899 6.78309L32.4624 8.72929C32.47 8.87813 32.5351 9.01819 32.6441 9.11988C32.753 9.22158 32.8972 9.27694 33.0463 9.27422V9.44937L32.0051 9.56613L31.032 9.73157V9.62452C31.3239 9.54667 31.4504 9.32288 31.4017 8.94337L31.1585 7.17232C31.133 6.91696 31.0498 6.67074 30.9152 6.45224C30.8516 6.34256 30.756 6.25489 30.6412 6.20098C30.5265 6.14707 30.398 6.12948 30.2729 6.15056C30.1219 6.16707 29.9797 6.23035 29.8663 6.33153C29.753 6.4327 29.674 6.56675 29.6404 6.71497C29.5546 7.12244 29.5546 7.54332 29.6404 7.95079L29.728 8.61252C29.756 8.87465 29.825 9.13077 29.9324 9.37153C29.9775 9.46134 30.0435 9.53907 30.1247 9.5983C30.2059 9.65753 30.3001 9.69653 30.3995 9.71209V9.81915H30.127L29.5918 9.86779H29.3388H29.076L28.5408 9.96511H28.2781V9.84834C28.3709 9.81139 28.4522 9.75049 28.5137 9.67185C28.5753 9.59321 28.6148 9.49966 28.6284 9.40072C28.6682 9.13949 28.6682 8.87375 28.6284 8.61252L28.1808 5.36235C28.1757 5.22897 28.1192 5.10276 28.023 5.01021C27.9268 4.91766 27.7985 4.866 27.665 4.86609V4.75903C28.1708 4.63133 28.668 4.47209 29.1539 4.28223L29.4458 6.67604Z" fill="white"/>
<path d="M35.9848 8.93306C35.8482 9.14026 35.6691 9.31605 35.4594 9.4488C35.2428 9.5785 34.9907 9.63641 34.7393 9.61424C34.3605 9.61165 33.9899 9.50383 33.6689 9.30284C33.5055 9.20352 33.3749 9.05825 33.2936 8.88519C33.2122 8.71212 33.1837 8.51893 33.2115 8.32974C33.2201 8.08462 33.3208 7.85175 33.4937 7.67775C33.6738 7.49877 33.894 7.36533 34.136 7.28852C34.4096 7.19451 34.6941 7.13566 34.9825 7.11337C35.2675 7.0887 35.554 7.0887 35.8389 7.11337H36.0043V6.77278C36.0043 6.08188 35.7708 5.72185 35.1772 5.69266C34.5836 5.66346 34.136 6.08188 33.8732 6.91874H33.7565L33.5034 5.71211L33.9997 5.59534L34.496 5.48829C34.817 5.43137 35.144 5.41504 35.4691 5.43964C35.9124 5.43433 36.3433 5.586 36.6855 5.86781C36.8446 6.05544 36.9616 6.27499 37.0288 6.51166C37.0959 6.74833 37.1116 6.99664 37.0747 7.23988L36.9969 8.74817C36.9969 9.14713 37.1039 9.39041 37.3666 9.47799V9.59475L36.0919 9.52663L35.9848 8.93306ZM34.6809 3.88268C34.6809 4.29138 34.9436 4.51519 35.4399 4.54438C35.6304 4.57615 35.8258 4.53319 35.9853 4.42441C36.1448 4.31563 36.2562 4.14943 36.2962 3.96052H36.6757C36.6772 4.29162 36.5478 4.6099 36.3157 4.84604C36.1932 4.96152 36.0471 5.04917 35.8876 5.10291C35.728 5.15666 35.5587 5.17525 35.3912 5.15744C34.6225 5.15744 34.2527 4.68061 34.3014 3.84375L34.6809 3.88268ZM35.9946 7.36635H35.8583C35.5178 7.32424 35.1732 7.4035 34.8852 7.59018C34.7459 7.69182 34.6326 7.82511 34.5548 7.97905C34.477 8.133 34.4368 8.30321 34.4376 8.4757C34.4265 8.67005 34.474 8.86327 34.5739 9.03037C34.6239 9.1152 34.695 9.18571 34.7802 9.23513C34.8654 9.28455 34.9619 9.3112 35.0604 9.31255C35.2067 9.3198 35.3516 9.28037 35.474 9.19991C35.5965 9.11945 35.6902 9.00213 35.7416 8.86493C35.8125 8.73328 35.8649 8.59248 35.8973 8.44651C35.9262 8.30852 35.9457 8.16873 35.9556 8.02808L35.9946 7.36635Z" fill="white"/>
<path d="M39.8385 6.85113C40.0143 6.62889 40.2546 6.46656 40.5264 6.38641C40.7983 6.30626 41.0882 6.31223 41.3565 6.40352C41.6323 6.44805 41.8826 6.59078 42.0615 6.80537C42.2403 7.01996 42.3355 7.29197 42.3296 7.57124C42.5174 7.35647 42.7641 7.20145 43.0391 7.12535C43.3141 7.04925 43.6053 7.05542 43.8768 7.14308C44.0522 7.18861 44.2167 7.26893 44.3604 7.37925C44.5042 7.48958 44.6243 7.62767 44.7137 7.78533C44.8003 7.94297 44.8537 8.1167 44.8704 8.29581C44.8871 8.47491 44.8669 8.65555 44.811 8.82652L44.2369 10.7727C44.1823 10.9109 44.1844 11.065 44.2427 11.2016C44.301 11.3382 44.4108 11.4463 44.5483 11.5025V11.6193L43.5752 11.2885L42.6021 11.0355V10.9187C42.9135 10.9771 43.1178 10.8214 43.2248 10.4613L43.6725 8.92383C43.7769 8.63083 43.82 8.31947 43.799 8.00912C43.7923 7.87983 43.7443 7.75612 43.6619 7.65623C43.5796 7.55635 43.4673 7.48563 43.3416 7.45448C43.2139 7.4204 43.0789 7.42537 42.954 7.46873C42.8291 7.51209 42.7201 7.59186 42.641 7.69775C42.4369 7.92743 42.2872 8.20015 42.2031 8.49567L41.7555 10.0332C41.7269 10.1008 41.7119 10.1735 41.7116 10.247C41.7113 10.3205 41.7256 10.3933 41.7537 10.4612C41.7818 10.5291 41.823 10.5907 41.8751 10.6425C41.9272 10.6943 41.9891 10.7353 42.0571 10.763V10.87L41.084 10.5489L40.1109 10.2862V10.1791C40.4126 10.1791 40.617 10.0818 40.724 9.71204L41.1813 8.1843C41.279 7.88645 41.3186 7.57262 41.2981 7.25985C41.2936 7.13139 41.2475 7.00787 41.1668 6.90785C41.0861 6.80783 40.9751 6.7367 40.8505 6.70517C40.7203 6.67271 40.5835 6.67941 40.4571 6.72442C40.3307 6.76943 40.2205 6.85075 40.1401 6.95819C39.938 7.184 39.7914 7.4539 39.712 7.74639L39.42 8.71949C39.3353 8.97025 39.2926 9.23327 39.2935 9.49796C39.2976 9.59718 39.3253 9.69401 39.3744 9.78034C39.4235 9.86667 39.4925 9.94002 39.5757 9.99424V10.1013L39.3227 10.0234L38.807 9.84829L38.5637 9.77042L38.301 9.70233L37.7852 9.56608L37.5322 9.49796V9.39093C37.6314 9.39059 37.7291 9.36657 37.8171 9.32087C37.9051 9.27518 37.9809 9.20912 38.0382 9.1282C38.1858 8.90486 38.2944 8.65808 38.3594 8.39838L38.8167 6.86087C38.8798 6.67469 38.8798 6.47293 38.8167 6.28675C38.768 6.17076 38.6778 6.0771 38.5637 6.02402V5.90723C39.0537 6.01909 39.5514 6.09391 40.0526 6.13105L39.8385 6.85113Z" fill="white"/>
<path d="M50.932 13.0883L50.8541 12.9812C51.0666 12.7005 51.1857 12.3601 51.1947 12.0081C51.2021 11.8397 51.1657 11.6722 51.0889 11.5221C51.0122 11.372 50.8977 11.2444 50.7568 11.1518C50.595 11.029 50.3953 10.9671 50.1924 10.9766C49.9952 10.9919 49.8047 11.0554 49.6377 11.1615C49.4595 11.2699 49.296 11.4007 49.1512 11.5508C49.0145 11.6876 48.8876 11.8339 48.7717 11.9886C48.5088 12.3195 48.3437 12.7172 48.2949 13.1369C48.2763 13.3401 48.3136 13.5445 48.4028 13.728C48.492 13.9116 48.6296 14.0672 48.8009 14.1781C49.0362 14.3438 49.3215 14.4229 49.6085 14.4019C49.8955 14.3824 50.17 14.2773 50.3967 14.1003L50.4454 14.3922C50.1214 14.607 49.7319 14.7001 49.3458 14.655C48.9618 14.5959 48.5998 14.4383 48.2949 14.1976C48.063 14.0466 47.8636 13.851 47.7082 13.6221C47.5528 13.3932 47.4446 13.1356 47.3899 12.8645C47.3375 12.5874 47.3433 12.3024 47.407 12.0276C47.4706 11.7529 47.5907 11.4944 47.7597 11.2686C47.9187 11.033 48.1275 10.8351 48.3713 10.6888C48.615 10.5426 48.8879 10.4515 49.1706 10.422C49.7579 10.3673 50.3436 10.5416 50.8054 10.9085C51.0517 11.0878 51.2684 11.3045 51.4477 11.5508C51.6329 11.7917 51.7957 12.049 51.9342 12.3195L50.932 13.0883Z" fill="white"/>
<path d="M53.4419 14.2547C53.7075 14.1505 53.9987 14.1311 54.2757 14.199C54.5528 14.267 54.802 14.419 54.9892 14.6342C55.1208 14.7599 55.2257 14.9109 55.2976 15.0781C55.3695 15.2453 55.4069 15.4253 55.4076 15.6073C55.4086 15.7914 55.37 15.9736 55.2945 16.1415C55.2189 16.3094 55.1082 16.459 54.9697 16.5804L53.5198 17.9622C53.403 18.0543 53.3272 18.1887 53.309 18.3363C53.2908 18.4839 53.3316 18.6327 53.4225 18.7504L53.3349 18.8283L52.6343 18.0498L51.9142 17.3297L51.992 17.2518C52.2256 17.4562 52.4883 17.427 52.7608 17.1642L54.0452 15.9284C54.2417 15.7593 54.3952 15.5458 54.4929 15.3056C54.5437 15.1911 54.5589 15.0639 54.5363 14.9407C54.5138 14.8174 54.4545 14.7038 54.3664 14.6147C54.2649 14.5017 54.1307 14.4231 53.9824 14.3899C53.8341 14.3568 53.6792 14.3707 53.5392 14.4298C53.1711 14.5999 52.8403 14.8414 52.5662 15.1402L52.0796 15.6073C51.8819 15.7833 51.7143 15.9904 51.5833 16.2203C51.5356 16.3085 51.5106 16.4072 51.5106 16.5074C51.5106 16.6077 51.5356 16.7063 51.5833 16.7945L51.5055 16.8723L51.3206 16.668L50.9703 16.269L50.7854 16.0744L50.6005 15.8895L50.221 15.5197L50.0264 15.3251L50.1139 15.2472C50.2009 15.2933 50.2978 15.3173 50.3961 15.3173C50.4945 15.3173 50.5914 15.2933 50.6783 15.2472C50.9222 15.1373 51.1409 14.9784 51.3206 14.7802L53.6949 12.5128C53.7478 12.4736 53.7922 12.4241 53.8258 12.3675C53.8593 12.3109 53.8813 12.2481 53.8903 12.1829C53.8994 12.1177 53.8954 12.0514 53.8785 11.9877C53.8617 11.9241 53.8324 11.8644 53.7922 11.8122L53.8798 11.7344C54.2783 12.0837 54.6975 12.4087 55.1351 12.7075L53.4419 14.2547Z" fill="white"/>
<path d="M55.077 19.7835C54.6683 20.0754 54.5515 20.3771 54.7072 20.6885L54.6099 20.7468L54.4639 20.5328L54.172 20.0754L54.0163 19.8614L53.8606 19.6473L53.5395 19.2191C53.4836 19.1508 53.4316 19.0793 53.3838 19.005L53.4714 18.9466C53.7146 19.1899 54.0358 19.1705 54.4445 18.8883L56.2836 17.5843C56.3773 17.5208 56.4428 17.4236 56.4664 17.313C56.49 17.2023 56.4698 17.0868 56.4101 16.9907L56.5074 16.9323C56.8312 17.3233 57.1789 17.6938 57.5486 18.0416L55.077 19.7835ZM58.2882 15.7549C58.4239 15.8429 58.5481 15.9475 58.658 16.0663C58.7549 16.1653 58.8429 16.2727 58.9207 16.3874C59.0526 16.5595 59.1335 16.7651 59.1542 16.981C59.1723 17.0909 59.158 17.2037 59.1131 17.3057C59.0682 17.4076 58.9946 17.4943 58.9012 17.5551C58.8376 17.6017 58.7648 17.6345 58.6877 17.6512C58.6106 17.668 58.5309 17.6684 58.4536 17.6524L58.2493 17.5843L57.9963 17.4773L57.8698 17.4286C57.8286 17.4141 57.7843 17.411 57.7415 17.4196C57.6987 17.4281 57.6589 17.4481 57.6265 17.4773L57.4805 17.2826C57.564 17.2236 57.6611 17.1868 57.7627 17.1756C57.837 17.1664 57.9122 17.1664 57.9865 17.1756C58.1025 17.195 58.2209 17.195 58.3368 17.1756C58.4522 17.165 58.5628 17.1248 58.658 17.0588C58.8818 16.8934 58.9304 16.7182 58.7845 16.5139C58.7473 16.4567 58.697 16.4091 58.6378 16.3753C58.5785 16.3414 58.5121 16.3222 58.4439 16.3193C58.2867 16.3154 58.1315 16.3558 57.9963 16.436L57.8892 16.3387L58.2882 15.7549Z" fill="white"/>
<path d="M15.2679 53.4716V53.3548C15.5657 53.0364 15.771 52.6428 15.8615 52.2163C15.901 52.0033 15.8899 51.784 15.829 51.5761C15.7682 51.3682 15.6593 51.1775 15.5112 51.0194C15.3334 50.8141 15.0948 50.6709 14.83 50.6107C14.5809 50.548 14.3201 50.548 14.071 50.6107C13.8108 50.6784 13.5617 50.7833 13.3314 50.9221C13.108 51.0478 12.8991 51.1979 12.7087 51.3697C12.5202 51.5355 12.3505 51.7215 12.2026 51.9244C12.0372 52.1379 11.9029 52.3738 11.8037 52.625C11.7084 52.8625 11.6717 53.1196 11.6966 53.3743C11.7242 53.6443 11.8405 53.8976 12.0275 54.0944C12.1653 54.2713 12.3379 54.4182 12.5346 54.526C12.7312 54.6338 12.9479 54.7002 13.1712 54.7211C13.3945 54.7421 13.6197 54.7172 13.833 54.6479C14.0463 54.5786 14.2432 54.4664 14.4116 54.3182L14.5089 54.3766L13.7791 55.5151C13.3956 55.3771 13.0297 55.1941 12.6892 54.9701C12.3286 54.7249 12.0015 54.4338 11.7161 54.1041C11.2161 53.5755 10.9225 52.8848 10.889 52.1579C10.8677 51.8084 10.9276 51.4586 11.0641 51.1361C11.2184 50.7858 11.4476 50.4736 11.7356 50.2214C12.0139 49.9632 12.3463 49.7704 12.7087 49.657C13.0436 49.5595 13.3963 49.5395 13.7401 49.5987C14.4424 49.7277 15.0784 50.0955 15.5404 50.6399C16.1043 51.2381 16.5178 51.9619 16.747 52.7515L15.2679 53.4716Z" fill="white"/>
<path d="M16.8541 57.7534C16.6246 57.8423 16.38 57.8853 16.134 57.8798C15.8836 57.8586 15.6443 57.7676 15.4431 57.6171C15.1362 57.3979 14.8915 57.1029 14.7327 56.7608C14.6548 56.5915 14.6271 56.4033 14.653 56.2188C14.6789 56.0342 14.7572 55.8609 14.8787 55.7196C15.0273 55.5224 15.2411 55.3844 15.482 55.3303C15.7286 55.2737 15.9847 55.2737 16.2313 55.3303C16.5097 55.4079 16.7776 55.519 17.0292 55.6612C17.2835 55.7938 17.5246 55.9502 17.7493 56.1283L17.8856 56.2256L18.0899 55.9531C18.4986 55.4082 18.4792 54.98 18.0023 54.6005C17.5255 54.221 16.9222 54.3281 16.241 54.8827L16.1242 54.8341L16.5913 53.6955L17.0682 53.8707L17.5353 54.0653C17.8404 54.2021 18.1279 54.3753 18.3916 54.5811C18.7594 54.8278 19.0283 55.1966 19.1506 55.6223C19.1768 55.8659 19.1514 56.1122 19.0759 56.3453C19.0005 56.5783 18.8767 56.7929 18.7127 56.9749L17.798 58.1815C17.5547 58.5026 17.5158 58.7751 17.6909 58.9892L17.6228 59.0865L16.6497 58.308L16.8541 57.7534ZM17.7396 56.4591L17.6326 56.3716C17.358 56.1466 17.0144 56.0229 16.6595 56.0212C16.4879 56.0276 16.3202 56.074 16.1698 56.1568C16.0194 56.2396 15.8905 56.3565 15.7934 56.4981C15.6748 56.6558 15.6069 56.8458 15.5988 57.043C15.5933 57.14 15.6118 57.2369 15.6525 57.3251C15.6932 57.4133 15.755 57.4902 15.8323 57.549C15.952 57.6332 16.0947 57.6784 16.241 57.6784C16.3873 57.6784 16.5301 57.6332 16.6497 57.549C16.7841 57.4743 16.9084 57.3828 17.0195 57.2765C17.1168 57.1792 17.2141 57.0722 17.3017 56.9651L17.7396 56.4591ZM17.4963 53.4523L19.0338 52.9365L19.6858 53.4231L19.6079 55.0481L19.209 54.7562L18.9852 53.6663L17.8856 53.7442L17.4963 53.4523ZM20.075 54.1529L19.7734 53.3744C19.5885 52.8976 19.5398 52.6057 19.6371 52.4792C19.7344 52.3527 19.9583 52.2845 20.1918 52.4792C20.2748 52.5393 20.3362 52.6246 20.367 52.7224C20.367 52.7224 20.367 52.8003 20.367 52.8587V53.0241L20.4351 54.4935L20.075 54.1529Z" fill="white"/>
<path d="M21.2133 57.4812C21.4282 57.2931 21.6961 57.1762 21.9801 57.1466C22.2641 57.1169 22.5504 57.1761 22.7995 57.3158C22.9627 57.3907 23.1095 57.4972 23.2314 57.6292C23.3533 57.7611 23.4479 57.9159 23.5098 58.0845C23.5681 58.2551 23.5896 58.4361 23.5729 58.6156C23.5561 58.795 23.5014 58.9689 23.4125 59.1257L22.5173 60.9162C22.4759 60.9779 22.4474 61.0472 22.4333 61.12C22.4193 61.1929 22.42 61.2678 22.4354 61.3404C22.4508 61.413 22.4806 61.4818 22.5231 61.5426C22.5656 61.6035 22.6199 61.6552 22.6827 61.6947L22.6243 61.792L21.7096 61.2957L20.7852 60.8676V60.7605C21.0771 60.8676 21.3106 60.7605 21.476 60.4199L22.2837 58.8241C22.4095 58.6002 22.4827 58.3506 22.4978 58.0942C22.5057 57.969 22.4767 57.8442 22.4145 57.7353C22.3522 57.6263 22.2594 57.538 22.1475 57.4812C22.0056 57.4194 21.8476 57.405 21.6968 57.44C21.5461 57.4751 21.4107 57.5577 21.3106 57.6758C21.1827 57.785 21.0684 57.9091 20.97 58.0456C20.8828 58.1607 20.8078 58.2847 20.7462 58.4154L20.3375 59.2133C20.2162 59.4499 20.1278 59.702 20.0748 59.9626C20.0607 60.0609 20.071 60.1612 20.105 60.2546C20.1389 60.348 20.1954 60.4315 20.2694 60.4978L20.2208 60.6048L19.9775 60.4783L19.5104 60.2156L19.2768 60.0988L19.0433 59.982L18.5568 59.7582L18.3135 59.6415L18.3621 59.5344C18.4595 59.5576 18.5613 59.5546 18.657 59.5255C18.7528 59.4964 18.8391 59.4424 18.9071 59.369C19.0935 59.1797 19.245 58.959 19.3547 58.717L20.0845 57.2768C20.185 57.1105 20.2229 56.9139 20.1916 56.7222C20.1671 56.598 20.0978 56.4872 19.9969 56.4108V56.3135C20.4682 56.5123 20.9526 56.6781 21.4468 56.8098L21.2133 57.4812Z" fill="white"/>
<path d="M28.1614 60.0503C28.3229 59.8162 28.5519 59.6369 28.8178 59.5361C29.0838 59.4353 29.3741 59.4178 29.6502 59.4859C29.9047 59.5305 30.1463 59.6303 30.3581 59.7783C30.5699 59.9262 30.7468 60.1187 30.8763 60.3422C31.1558 60.7847 31.2567 61.3169 31.1585 61.831C31.0728 62.3742 30.7842 62.8646 30.3508 63.2031C30.1496 63.3682 29.9145 63.4869 29.6623 63.5508C29.41 63.6147 29.1467 63.6223 28.8912 63.5729C28.6475 63.5415 28.4127 63.4616 28.2004 63.3379C27.9881 63.2142 27.8028 63.0493 27.6553 62.8528L27.4802 63.8259C27.4521 63.9121 27.442 64.0031 27.4506 64.0934C27.4591 64.1837 27.4862 64.2712 27.53 64.3506C27.5738 64.4299 27.6334 64.4995 27.7052 64.5549C27.777 64.6102 27.8594 64.6503 27.9473 64.6725V64.799L26.838 64.5654L25.7578 64.4V64.293C25.8406 64.2978 25.9236 64.2847 26.0008 64.2545C26.0781 64.2243 26.1479 64.1776 26.2054 64.1178C26.3046 63.9907 26.3684 63.8396 26.3903 63.6799L27.0423 60.1281C27.1104 59.7681 27.0423 59.5442 26.7504 59.4664V59.3594H27.5191C27.7916 59.3594 28.0349 59.3594 28.2489 59.3594L28.1614 60.0503ZM28.6284 63.2323C29.2999 63.3491 29.7378 62.8236 29.9519 61.6559C30.1659 60.4882 29.9519 59.8264 29.2902 59.7097C28.6285 59.5929 28.1808 60.1086 27.9667 61.2861C27.7527 62.4635 27.9667 63.1155 28.6284 63.242V63.2323Z" fill="white"/>
<path d="M33.377 60.7115C33.4836 60.4459 33.67 60.2199 33.9105 60.0647C34.1511 59.9096 34.4339 59.833 34.7199 59.8455C34.8979 59.8369 35.076 59.8643 35.2432 59.9262C35.4104 59.988 35.5634 60.0831 35.693 60.2055C35.8226 60.3313 35.9243 60.4829 35.9913 60.6506C36.0584 60.8182 36.0894 60.9982 36.0822 61.1786V63.1832C36.0741 63.2561 36.0806 63.3299 36.1012 63.4003C36.1218 63.4707 36.1562 63.5363 36.2024 63.5933C36.2485 63.6503 36.3055 63.6976 36.3701 63.7325C36.4347 63.7673 36.5055 63.789 36.5785 63.7963V63.9422H35.5275H34.5544V63.8255C34.8658 63.8255 35.0118 63.5822 35.0118 63.2027V61.4219C35.0233 61.1641 34.9733 60.9073 34.8658 60.6726C34.8195 60.5542 34.7375 60.4531 34.6311 60.3834C34.5247 60.3136 34.3993 60.2787 34.2722 60.2834C34.119 60.2794 33.9684 60.3232 33.8411 60.4086C33.7139 60.494 33.6163 60.6169 33.5619 60.7602C33.4242 61.1536 33.3647 61.5701 33.3867 61.9863V62.648C33.3823 62.9147 33.4184 63.1804 33.4938 63.4362C33.5267 63.5302 33.5819 63.6148 33.6549 63.6826C33.7278 63.7504 33.8161 63.7994 33.9122 63.8255V63.9422H33.6008H33.0656H32.5401H32.0049H31.7422V63.8255C31.8365 63.795 31.9224 63.7431 31.9933 63.6739C32.0642 63.6047 32.1182 63.52 32.1509 63.4265C32.2263 63.1742 32.2592 62.9111 32.2482 62.648V59.3589C32.262 59.2276 32.2239 59.0961 32.1421 58.9925C32.0603 58.8889 31.9412 58.8213 31.8103 58.8043V58.6875C32.3284 58.632 32.8422 58.541 33.3478 58.415L33.377 60.7115Z" fill="white"/>
<path d="M40.1499 62.6184C40.0656 62.8511 39.933 63.0634 39.7607 63.2411C39.5817 63.4147 39.3544 63.53 39.1087 63.572C38.738 63.6563 38.3515 63.6395 37.9896 63.5233C37.8122 63.467 37.6546 63.361 37.5356 63.2179C37.4166 63.0747 37.3411 62.9004 37.3182 62.7157C37.2674 62.4757 37.3091 62.2255 37.435 62.015C37.5693 61.7974 37.7526 61.6142 37.9702 61.4798C38.2141 61.3261 38.4754 61.202 38.7486 61.1101C39.019 61.017 39.2954 60.9422 39.5758 60.8862H39.7315L39.6731 60.5554C39.5466 59.8742 39.1865 59.5823 38.6124 59.7088C38.0383 59.8353 37.6393 60.3316 37.6393 61.2074H37.5323L36.9971 60.098L37.4544 59.8645L37.9118 59.6504C38.2227 59.5128 38.5496 59.4147 38.8849 59.3585C39.3153 59.2453 39.7723 59.2937 40.1694 59.4947C40.367 59.6371 40.5319 59.8202 40.6528 60.0317C40.7736 60.2432 40.8477 60.4782 40.87 60.7208L41.1619 62.2097C41.23 62.6086 41.4149 62.813 41.6971 62.8324V62.9492L40.4418 63.1828L40.1499 62.6184ZM38.0772 59.1347L38.7973 57.8502C38.8444 57.7608 38.8998 57.6762 38.9627 57.5972C39.034 57.5256 39.1259 57.478 39.2255 57.4609C39.5077 57.4609 39.6633 57.4609 39.712 57.7334C39.7607 58.0059 39.6244 58.074 39.352 58.3173L38.5735 59.0373L38.0772 59.1347ZM39.7899 61.0809H39.6536C39.3164 61.1259 39.0043 61.2837 38.7681 61.5285C38.6538 61.6598 38.5736 61.8173 38.5345 61.987C38.4955 62.1568 38.4988 62.3335 38.5443 62.5016C38.5802 62.6973 38.6753 62.8773 38.8168 63.0173C38.8869 63.0844 38.9721 63.1336 39.0653 63.1607C39.1585 63.1878 39.2568 63.192 39.352 63.173C39.4946 63.144 39.6247 63.0712 39.7241 62.9648C39.8235 62.8585 39.8873 62.7237 39.9066 62.5794C39.9437 62.4332 39.96 62.2826 39.9553 62.1318C39.9542 61.991 39.9379 61.8507 39.9066 61.7134L39.7899 61.0809Z" fill="white"/>
<path d="M43.3316 62.4047C43.0688 62.502 42.8742 62.3463 42.738 61.9571L42.4071 60.9159L41.8524 59.3006L41.3464 59.4757L41.2783 59.0767C41.5628 58.9386 41.8024 58.7226 41.9692 58.4539C42.143 58.1871 42.2743 57.895 42.3585 57.5879H42.4363L42.7769 58.561L43.6527 58.2593V58.6778L42.9229 58.9308L43.6721 61.1299C43.7317 61.3491 43.8342 61.5542 43.9738 61.7333C44.0357 61.8116 44.1211 61.8681 44.2174 61.8943C44.3137 61.9206 44.4159 61.9153 44.509 61.8793V61.9863L43.3316 62.4047Z" fill="white"/>
<path d="M47.633 56.9754C47.5829 56.6951 47.6194 56.4062 47.7376 56.1472C47.8558 55.8882 48.0502 55.6713 48.2947 55.5255C48.4428 55.4209 48.6105 55.3473 48.7877 55.3088C48.9649 55.2704 49.148 55.2679 49.3262 55.3017C49.5022 55.3394 49.6683 55.4134 49.8141 55.5189C49.9599 55.6245 50.082 55.7593 50.1728 55.9147L51.2529 57.6079C51.3216 57.7405 51.4394 57.8411 51.5811 57.8884C51.7228 57.9356 51.8773 57.9258 52.0119 57.8609L52.0703 57.9485L51.1653 58.4934L50.3285 59.0675L50.2701 58.9703C50.3255 58.9244 50.3712 58.8678 50.4043 58.8039C50.4374 58.74 50.4573 58.67 50.4627 58.5983C50.4682 58.5265 50.4591 58.4544 50.436 58.3862C50.413 58.318 50.3764 58.2552 50.3285 58.2015L49.3554 56.6932C49.2271 56.4689 49.0469 56.2787 48.8299 56.1385C48.7242 56.0699 48.6008 56.0333 48.4747 56.0333C48.3486 56.0333 48.2253 56.0699 48.1195 56.1385C47.9896 56.2175 47.8872 56.3347 47.8263 56.474C47.7653 56.6133 47.7488 56.768 47.779 56.917C47.874 57.3221 48.0458 57.7053 48.285 58.0458L48.645 58.6102C48.7798 58.8374 48.9507 59.0412 49.151 59.2135C49.2279 59.2785 49.3202 59.3225 49.4191 59.3413C49.518 59.36 49.6201 59.3529 49.7154 59.3206L49.7738 59.4179L49.55 59.5638L49.0829 59.8363L48.8591 59.9725L48.6353 60.1185L48.1974 60.4202L47.9736 60.5661L47.9152 60.4688C47.9804 60.3958 48.0269 60.3081 48.0506 60.2132C48.0743 60.1182 48.0746 60.0189 48.0514 59.9239C47.9823 59.6653 47.8669 59.4213 47.7108 59.2038L45.9495 56.4402C45.925 56.3768 45.8879 56.319 45.8405 56.2703C45.7931 56.2215 45.7364 56.1828 45.6737 56.1565C45.6111 56.1301 45.5437 56.1167 45.4758 56.117C45.4078 56.1172 45.3406 56.1312 45.2781 56.158L45.21 56.0607C45.6227 55.7338 46.0128 55.3795 46.3777 55L47.633 56.9754Z" fill="white"/>
<path d="M54.5609 54.6493C54.6548 54.9146 54.6689 55.2016 54.6014 55.4749C54.534 55.7481 54.3879 55.9956 54.1814 56.1867C54.0431 56.3309 53.8743 56.4424 53.6875 56.5131C53.5006 56.5838 53.3003 56.612 53.1012 56.5955C52.7209 56.5268 52.3766 56.3271 52.1281 56.031L50.8923 54.7465C50.7561 54.6103 50.5809 54.6006 50.3571 54.7465L50.2695 54.659L50.7755 54.0654C50.9507 53.8416 51.1161 53.6275 51.2621 53.4232L51.7097 53.9681L52.3811 54.6979L52.8969 55.2428C53.0635 55.4378 53.2735 55.5911 53.5099 55.6905C53.6239 55.7441 53.7518 55.7608 53.8757 55.7381C53.9996 55.7154 54.1133 55.6545 54.2008 55.564C54.3111 55.4605 54.387 55.3258 54.4183 55.1779C54.4496 55.03 54.4348 54.8761 54.376 54.7368C54.2455 54.4012 54.0467 54.0963 53.7921 53.8416L52.9455 52.9366C52.8679 52.844 52.7568 52.7859 52.6365 52.7749C52.5161 52.764 52.3964 52.8011 52.3033 52.8782L52.2255 52.8004C52.4201 52.5863 52.5855 52.3819 52.7412 52.2068C52.8969 52.0316 53.072 51.7786 53.2083 51.584C53.8311 52.2652 54.4636 52.9463 55.1545 53.6275C55.5567 54.0557 55.8973 54.2016 56.1762 54.0654L56.2638 54.153L55.2907 55.0677L54.5609 54.6493Z" fill="white"/>
<path d="M53.6865 51.2325L53.8617 51.0086L54.3677 50.3469L55.0294 49.3738L55.1267 49.442C55.0702 49.5437 55.037 49.6567 55.0294 49.7728C55.0284 49.8307 55.0422 49.8879 55.0694 49.939C55.0967 49.9901 55.1365 50.0333 55.1851 50.0647C55.2971 50.1316 55.4245 50.1685 55.5549 50.1718L57.3843 50.4151L56.5766 48.9846C56.5164 48.8634 56.43 48.757 56.3236 48.6732C56.2174 48.6037 56.0903 48.5734 55.9641 48.5876C55.838 48.6018 55.7208 48.6597 55.6327 48.7511L55.5354 48.683L55.7787 48.3716L56.0219 48.0699L56.236 47.7488C56.3064 47.6303 56.3844 47.5165 56.4696 47.4082L56.5572 47.4666C56.496 47.6928 56.496 47.9312 56.5572 48.1575C56.5889 48.2702 56.6279 48.3807 56.6739 48.4883C56.6739 48.5759 56.7518 48.6732 56.8102 48.79L58.1044 51.3784C58.3647 51.8063 58.5337 52.2834 58.6007 52.7797C58.5549 53.2179 58.3899 53.6352 58.1238 53.9863L57.3648 52.8575L57.4816 52.7991C57.5345 52.8309 57.5951 52.8476 57.6568 52.8476C57.7185 52.8476 57.779 52.8309 57.8319 52.7991C57.9458 52.7637 58.0449 52.692 58.1141 52.5948C58.3282 52.3029 58.2698 52.0304 57.939 51.7968C57.6574 51.6263 57.3418 51.52 57.0145 51.4855L54.8445 51.1157C54.6281 51.088 54.409 51.088 54.1925 51.1157C54.0225 51.1246 53.8594 51.1858 53.7254 51.2908L53.6865 51.2325Z" fill="white"/>
<path d="M64.1949 34.6621L62.1027 34.0685C62.0544 34.0556 62.0037 34.0542 61.9547 34.0643C61.9057 34.0744 61.8598 34.0959 61.8205 34.1269L60.1468 35.5184C60.1016 35.5546 60.0473 35.5775 59.9898 35.5845C59.9324 35.5916 59.8741 35.5825 59.8216 35.5582C59.769 35.534 59.7242 35.4955 59.6923 35.4472C59.6604 35.399 59.6425 35.3427 59.6408 35.2849L59.5532 33.1149C59.5533 33.0647 59.541 33.0153 59.5172 32.9711C59.4934 32.927 59.4589 32.8894 59.417 32.8619L57.5778 31.7039C57.5294 31.6714 57.4907 31.6263 57.4659 31.5735C57.4412 31.5207 57.4312 31.4622 57.4373 31.4041C57.4433 31.3461 57.4649 31.2908 57.5 31.2442C57.5351 31.1976 57.5821 31.1614 57.6362 31.1395L59.6797 30.3999C59.7278 30.381 59.7705 30.3508 59.8044 30.3119C59.8383 30.2729 59.8623 30.2263 59.8743 30.1761L60.4095 28.0743C60.4269 28.0191 60.4589 27.9696 60.5021 27.931C60.5453 27.8925 60.5981 27.8664 60.655 27.8554C60.7118 27.8445 60.7706 27.8491 60.825 27.8687C60.8794 27.8884 60.9275 27.9224 60.9642 27.9672L62.3071 29.6701C62.3371 29.7106 62.377 29.7426 62.4231 29.7631C62.4691 29.7836 62.5197 29.7918 62.5698 29.7869L64.7301 29.6507C64.7888 29.6459 64.8476 29.6578 64.8998 29.6851C64.952 29.7123 64.9954 29.7538 65.0249 29.8048C65.0545 29.8557 65.0689 29.914 65.0667 29.9728C65.0645 30.0317 65.0456 30.0887 65.0123 30.1372L63.7667 31.9374C63.7429 31.9824 63.7304 32.0325 63.7304 32.0834C63.7304 32.1343 63.7429 32.1844 63.7667 32.2294L64.5647 34.2534C64.5842 34.3067 64.5888 34.3643 64.5779 34.42C64.5671 34.4757 64.5412 34.5273 64.5032 34.5694C64.4651 34.6115 64.4163 34.6424 64.3619 34.6587C64.3076 34.675 64.2499 34.6762 64.1949 34.6621Z" fill="#F5B2D0"/>
<path d="M63.1047 44.6463L61.791 44.2765C61.7629 44.2602 61.731 44.2517 61.6986 44.2517C61.6661 44.2517 61.6342 44.2602 61.6061 44.2765L60.5552 45.1425C60.527 45.1666 60.4926 45.1821 60.4559 45.1873C60.4193 45.1925 60.3819 45.1871 60.3482 45.1718C60.3144 45.1565 60.2858 45.1318 60.2656 45.1008C60.2454 45.0697 60.2344 45.0336 60.2341 44.9966L60.1854 43.6342C60.1852 43.603 60.177 43.5723 60.1617 43.5451C60.1464 43.5179 60.1244 43.495 60.0978 43.4785L58.9399 42.739C58.9069 42.723 58.8792 42.6982 58.8598 42.6672C58.8404 42.6362 58.8301 42.6004 58.8301 42.5638C58.8301 42.5273 58.8404 42.4914 58.8598 42.4604C58.8792 42.4295 58.9069 42.4046 58.9399 42.3887L60.2243 41.9216C60.2549 41.9125 60.2821 41.8948 60.3028 41.8707C60.3235 41.8465 60.3368 41.8169 60.3411 41.7854L60.6817 40.4619C60.693 40.4274 60.7134 40.3965 60.7407 40.3724C60.768 40.3483 60.8012 40.332 60.8369 40.3251C60.8726 40.3181 60.9095 40.3208 60.9438 40.3329C60.9781 40.345 61.0086 40.366 61.032 40.3938L61.8786 41.4642C61.8982 41.4891 61.9234 41.5092 61.9521 41.5227C61.9808 41.5362 62.0123 41.5428 62.044 41.5421L63.4064 41.4545C63.4428 41.4543 63.4786 41.4639 63.5102 41.4822C63.5417 41.5005 63.5677 41.5269 63.5856 41.5586C63.6034 41.5904 63.6125 41.6264 63.6118 41.6628C63.6111 41.6993 63.6006 41.7348 63.5815 41.7659L62.8225 42.8947C62.8063 42.9228 62.7977 42.9547 62.7977 42.9871C62.7977 43.0196 62.8063 43.0514 62.8225 43.0796L63.3188 44.3446C63.3432 44.3775 63.3566 44.4174 63.357 44.4584C63.3574 44.4994 63.3448 44.5395 63.3211 44.573C63.2973 44.6064 63.2636 44.6315 63.2248 44.6447C63.1859 44.6578 63.1439 44.6584 63.1047 44.6463Z" fill="#D4EEF8"/>
<path d="M56.089 26.9641L55.33 26.2927C55.3111 26.2805 55.2891 26.2741 55.2667 26.2741C55.2443 26.2741 55.2223 26.2805 55.2035 26.2927L54.2304 26.5262C54.2036 26.5325 54.1757 26.5311 54.1497 26.5222C54.1237 26.5133 54.1008 26.4973 54.0835 26.476C54.0662 26.4546 54.0553 26.4289 54.052 26.4016C54.0488 26.3744 54.0532 26.3467 54.0649 26.3219L54.4834 25.3975C54.4953 25.3767 54.5016 25.3532 54.5016 25.3293C54.5016 25.3054 54.4953 25.2819 54.4834 25.2612L53.9579 24.3951C53.9417 24.373 53.9326 24.3465 53.9317 24.3191C53.9308 24.2917 53.9382 24.2647 53.9529 24.2416C53.9676 24.2185 53.989 24.2003 54.0142 24.1895C54.0394 24.1787 54.0672 24.1758 54.0941 24.1811L55.0672 24.2881C55.114 24.2885 55.1592 24.2711 55.1937 24.2395L55.8554 23.4707C55.8727 23.4502 55.8954 23.4349 55.9208 23.4264C55.9463 23.4179 55.9736 23.4167 55.9997 23.4227C56.0259 23.4287 56.0499 23.4418 56.069 23.4606C56.0882 23.4794 56.1019 23.5031 56.1084 23.5291L56.3128 24.5022C56.3165 24.5262 56.3266 24.5488 56.342 24.5676C56.3574 24.5865 56.3775 24.6008 56.4004 24.6092L57.3735 24.9985C57.3981 25.0104 57.419 25.0291 57.4335 25.0523C57.4481 25.0756 57.4558 25.1024 57.4558 25.1298C57.4558 25.1572 57.4481 25.1841 57.4335 25.2074C57.419 25.2306 57.3981 25.2493 57.3735 25.2612L56.4977 25.7672C56.4746 25.7768 56.4549 25.793 56.4411 25.8138C56.4272 25.8346 56.4198 25.859 56.4198 25.884L56.342 26.8571C56.3436 26.8871 56.336 26.9169 56.3201 26.9424C56.3042 26.9679 56.2808 26.9878 56.2531 26.9996C56.2254 27.0113 56.1948 27.0141 56.1654 27.0078C56.1361 27.0015 56.1094 26.9862 56.089 26.9641Z" fill="#FCD527"/>
<path d="M8.18351 24.3762C7.85684 24.5232 7.57041 24.7468 7.3485 25.0279C7.12659 25.3091 6.97576 25.6397 6.90875 25.9916C6.89715 26.0607 6.87013 26.1263 6.8297 26.1836C6.78927 26.2409 6.73647 26.2883 6.67521 26.3224C6.61302 26.3526 6.54482 26.3682 6.47572 26.3682C6.40662 26.3682 6.33841 26.3526 6.27623 26.3224C5.87271 26.0809 5.40287 25.9738 4.93453 26.0166C4.46618 26.0594 4.02357 26.25 3.67057 26.5608C3.31758 26.8715 3.07247 27.2864 2.97062 27.7456C2.86877 28.2047 2.91546 28.6843 3.10394 29.1152C3.21934 29.3698 3.38102 29.6008 3.58076 29.7964C4.92363 31.295 8.37812 32.2388 9.17606 31.9761C9.89615 31.5577 11.5115 28.3659 11.2974 26.3614C11.2849 26.0821 11.2189 25.8079 11.1028 25.5537C10.9857 25.2875 10.8172 25.0471 10.6069 24.8462C10.3967 24.6453 10.1488 24.4879 9.87756 24.383C9.60633 24.2782 9.31707 24.2279 9.02636 24.235C8.73565 24.2422 8.44923 24.3068 8.18351 24.4249V24.3762Z" fill="#FCD527"/>
<path d="M12.7376 42.417C12.4988 42.4202 12.2643 42.4812 12.0542 42.5947C11.8441 42.7082 11.6645 42.871 11.531 43.069C11.5045 43.1053 11.4711 43.1361 11.4327 43.1595C11.3943 43.1829 11.3516 43.1984 11.3072 43.2052C11.2605 43.2015 11.2153 43.1874 11.1749 43.1638C11.1344 43.1402 11.0998 43.1078 11.0736 43.069C10.9354 42.8756 10.7527 42.7182 10.5411 42.6098C10.3295 42.5015 10.095 42.4454 9.85728 42.4462C9.66431 42.4488 9.47373 42.4893 9.29643 42.5655C9.11912 42.6417 8.95857 42.752 8.82393 42.8903C8.68929 43.0286 8.5832 43.192 8.51173 43.3712C8.44025 43.5505 8.40478 43.7421 8.40736 43.9351C8.41144 44.1193 8.45109 44.301 8.52412 44.4702C9.08487 45.7196 10.091 46.7153 11.3461 47.263C12.5902 46.6866 13.5777 45.6714 14.1194 44.4119C14.2049 44.1886 14.2347 43.9478 14.206 43.7104C14.1774 43.473 14.0913 43.2462 13.9551 43.0497C13.819 42.8531 13.6369 42.6928 13.4248 42.5825C13.2126 42.4723 12.9767 42.4155 12.7376 42.417Z" fill="#FCD527"/>
<path d="M8.73835 33.0469L7.11328 40.4521" stroke="#FBB03B" stroke-miterlimit="10" stroke-linecap="round"/>
<path d="M5.12891 34.1934L10.7242 39.3021" stroke="#FBB03B" stroke-miterlimit="10" stroke-linecap="round"/>
<path d="M4.31055 37.901L11.5407 35.6045" stroke="#FBB03B" stroke-miterlimit="10" stroke-linecap="round"/>
<path d="M17.9631 34.4286C17.9656 30.1762 19.6561 26.0987 22.6629 23.0918C25.6698 20.0849 29.7473 18.3945 33.9997 18.3919V15.4727C29.0582 15.5848 24.3568 17.6265 20.9016 21.161C17.4463 24.6955 15.5117 29.442 15.5117 34.3848C15.5117 39.3276 17.4463 44.0741 20.9016 47.6086C24.3568 51.1431 29.0582 53.1848 33.9997 53.2969V50.3776C29.7632 50.3726 25.7004 48.6934 22.6966 45.706C19.6927 42.7185 17.9913 38.665 17.9631 34.4286Z" fill="#FEDE5E"/>
<path d="M17.9639 34.4282C17.969 38.6798 19.6602 42.7558 22.6666 45.7621C25.6729 48.7685 29.7489 50.4597 34.0005 50.4649V49.0247C30.1293 49.0247 26.4166 47.4869 23.6793 44.7495C20.9419 42.0121 19.4041 38.2995 19.4041 34.4282C19.4041 30.557 20.9419 26.8443 23.6793 24.107C26.4166 21.3696 30.1293 19.8318 34.0005 19.8318V18.3916C29.7481 18.3942 25.6706 20.0846 22.6637 23.0915C19.6569 26.0984 17.9664 30.1759 17.9639 34.4282Z" fill="#E4B92C"/>
<path d="M20.834 34.4287C20.834 36.1572 21.1746 37.8688 21.8364 39.4656C22.4981 41.0624 23.4681 42.5132 24.6908 43.735C25.9135 44.9568 27.365 45.9257 28.9623 46.5863C30.5596 47.2469 32.2715 47.5862 34 47.5849V21.2627C30.5081 21.2627 27.1593 22.6498 24.6902 25.1189C22.2211 27.588 20.834 30.9369 20.834 34.4287Z" fill="#E4B92C"/>
<path d="M20.1244 34.4285C20.127 30.7481 21.5895 27.2191 24.1909 24.6158C26.7924 22.0125 30.3204 20.5475 34.0007 20.5424V19.832C30.1295 19.832 26.4169 21.3698 23.6795 24.1072C20.9421 26.8446 19.4043 30.5573 19.4043 34.4285C19.4043 38.2997 20.9421 42.0124 23.6795 44.7497C26.4169 47.4871 30.1295 49.0249 34.0007 49.0249V48.3048C30.3213 48.3022 26.7933 46.8395 24.1915 44.2377C21.5898 41.6359 20.127 38.1079 20.1244 34.4285Z" fill="white"/>
<path d="M20.123 34.4291C20.1256 38.1085 21.5884 41.6365 24.1902 44.2383C26.792 46.8401 30.32 48.3028 33.9994 48.3054V47.5853C32.241 47.6332 30.4907 47.3281 28.8522 46.6882C27.2136 46.0483 25.7198 45.0865 24.4591 43.8597C23.1985 42.6328 22.1964 41.1658 21.5122 39.5452C20.828 37.9246 20.4755 36.1833 20.4755 34.4242C20.4755 32.6651 20.828 30.9238 21.5122 29.3032C22.1964 27.6827 23.1985 26.2156 24.4591 24.9888C25.7198 23.7619 27.2136 22.8001 28.8522 22.1602C30.4907 21.5203 32.241 21.2153 33.9994 21.2631V20.543C30.3191 20.5481 26.7911 22.0131 24.1896 24.6164C21.5881 27.2197 20.1256 30.7487 20.123 34.4291Z" fill="white"/>
<path d="M52.9073 34.4287C52.9047 29.4141 50.9122 24.6054 47.3672 21.0586C43.8222 17.5119 39.0146 15.5169 34 15.5117V18.431C38.2583 18.431 42.3423 20.1226 45.3534 23.1337C48.3645 26.1448 50.0561 30.2288 50.0561 34.4871C50.0561 38.7454 48.3645 42.8294 45.3534 45.8405C42.3423 48.8516 38.2583 50.5432 34 50.5432V53.4625C36.4929 53.46 38.9607 52.965 41.2618 52.006C43.5628 51.047 45.6518 49.6429 47.4086 47.8743C49.1655 46.1057 50.5556 44.0074 51.4992 41.7C52.4429 39.3926 52.9214 36.9216 52.9073 34.4287Z" fill="#E4B92C"/>
<path d="M48.5964 34.4291C48.5964 38.3003 47.0586 42.013 44.3212 44.7503C41.5839 47.4877 37.8712 49.0255 34 49.0255V50.4657C38.2583 50.4657 42.3423 48.7741 45.3534 45.763C48.3645 42.7519 50.0561 38.668 50.0561 34.4096C50.0561 30.1513 48.3645 26.0673 45.3534 23.0562C42.3423 20.0451 38.2583 18.3535 34 18.3535V19.7937C35.9201 19.7937 37.8214 20.1725 39.5948 20.9085C41.3683 21.6445 42.9791 22.7231 44.335 24.0827C45.6909 25.4422 46.7653 27.0559 47.4965 28.8313C48.2278 30.6067 48.6016 32.509 48.5964 34.4291Z" fill="#C0972D"/>
<path d="M47.1563 34.4287C47.1575 32.7002 46.8182 30.9883 46.1576 29.391C45.497 27.7937 44.5281 26.3422 43.3063 25.1195C42.0845 23.8968 40.6338 22.9268 39.0369 22.2651C37.4401 21.6033 35.7285 21.2627 34 21.2627V47.5849C35.7277 47.5849 37.4385 47.2447 39.0347 46.5835C40.6309 45.9223 42.0812 44.9532 43.3029 43.7316C44.5245 42.5099 45.4936 41.0595 46.1548 39.4634C46.816 37.8672 47.1563 36.1564 47.1563 34.4287Z" fill="#C0972D"/>
<path d="M48.5965 34.4285C48.5965 30.5573 47.0586 26.8446 44.3212 24.1072C41.5839 21.3698 37.8712 19.832 34 19.832V20.5424C37.6179 20.6382 41.0555 22.1427 43.5805 24.7355C46.1055 27.3283 47.5185 30.8044 47.5185 34.4236C47.5185 38.0428 46.1055 41.5189 43.5805 44.1117C41.0555 46.7045 37.6179 48.209 34 48.3048V49.0249C35.9168 49.0249 37.8149 48.6474 39.5858 47.9138C41.3567 47.1803 42.9658 46.1051 44.3212 44.7497C45.6767 43.3943 46.7518 41.7852 47.4854 40.0143C48.2189 38.2434 48.5965 36.3453 48.5965 34.4285Z" fill="#C7C6C5"/>
<path d="M47.1563 34.4291C47.1563 37.9183 45.7702 41.2647 43.3029 43.7319C40.8356 46.1992 37.4893 47.5853 34 47.5853V48.3054C37.6179 48.2096 41.0555 46.7051 43.5805 44.1123C46.1055 41.5195 47.5185 38.0434 47.5185 34.4242C47.5185 30.805 46.1055 27.3289 43.5805 24.7361C41.0555 22.1433 37.6179 20.6388 34 20.543V21.2631C35.7285 21.2631 37.4401 21.6037 39.0369 22.2655C40.6338 22.9272 42.0845 23.8972 43.3063 25.1199C44.5281 26.3426 45.497 27.7941 46.1576 29.3914C46.8182 30.9887 47.1575 32.7006 47.1563 34.4291Z" fill="#C7C6C5"/>
<path d="M31.7128 31.5569H24.2979L30.2921 35.9164L28.0053 42.9616L33.9996 38.6021V24.5117L31.7128 31.5569Z" fill="#FEDE5E"/>
<path d="M37.7075 35.9164L43.7018 31.5569H36.2868L34 24.5117V38.6021L39.9943 42.9616L37.7075 35.9164Z" fill="#E4B92C"/>
</svg>
