<svg width="68" height="68" viewBox="0 0 68 68" fill="none" xmlns="http://www.w3.org/2000/svg">
<path d="M33.9945 67.3411C52.411 67.3411 67.3405 52.4136 67.3405 33.9996C67.3405 15.5857 52.411 0.658203 33.9945 0.658203C15.578 0.658203 0.648438 15.5857 0.648438 33.9996C0.648438 52.4136 15.578 67.3411 33.9945 67.3411Z" fill="#F05545"/>
<path d="M67.9326 32.0062C65.8139 32.197 64.7355 33.9147 64.0101 35.1075C63.2848 36.3003 63.0557 36.5866 62.6263 36.5866C62.1968 36.5866 61.92 36.1953 61.2329 35.1075C61.0802 34.8498 60.9084 34.5731 60.708 34.2868C60.6316 34.1819 60.5743 34.0864 60.498 33.991L60.2212 33.6475C60.1258 33.533 60.0304 33.4184 59.9254 33.3135L59.5914 32.9986H59.5436L59.2669 32.7791C59.0229 32.6018 58.7605 32.4514 58.4843 32.3306L58.3029 32.2638C58.1854 32.2157 58.0641 32.1774 57.9403 32.1493C57.8162 32.1493 57.6826 32.092 57.549 32.0634H57.3486C57.2024 32.0539 57.0557 32.0539 56.9095 32.0634C54.5236 32.0634 53.3593 33.9719 52.5862 35.1934C51.8991 36.2812 51.6318 36.6724 51.2024 36.6724C50.7729 36.6724 50.4961 36.2812 49.8185 35.1934C49.1409 34.1055 47.967 32.197 45.7337 32.0825C45.8494 32.7442 45.9069 33.4147 45.9056 34.0864C45.9045 34.6003 45.8694 35.1135 45.8006 35.6228C45.4202 38.4426 44.0428 41.033 41.9175 42.9252C39.7922 44.8174 37.0596 45.8862 34.2144 45.9382H34.0044C31.1329 45.9258 28.3623 44.8774 26.2021 42.9858C24.0419 41.0941 22.6373 38.4863 22.2465 35.6418C22.0766 34.4343 22.0959 33.2077 22.3037 32.0062C20.185 32.197 19.1066 33.9147 18.3813 35.1075C17.6559 36.3003 17.4269 36.5866 16.9974 36.5866C16.5679 36.5866 16.2911 36.1953 15.6135 35.1075C14.8405 33.8574 13.7048 31.9775 11.2807 31.9775C8.85655 31.9775 7.73991 33.886 6.96686 35.1075C6.28925 36.1953 6.0125 36.5866 5.58303 36.5866C5.15356 36.5866 4.87678 36.1953 4.19917 35.1075C3.52156 34.0196 2.2904 32.1111 0.10487 31.9966C0.0571514 32.6551 0.0380859 33.323 0.0380859 34.0005C0.0380859 34.4967 0.0380859 34.9548 0.0380859 35.4796C0.416979 44.234 4.16256 52.5039 10.4932 58.5633C16.8237 64.6228 25.2502 68.0037 34.014 68.0004H34.2239C42.9347 67.9435 51.2915 64.5463 57.5707 58.5095C63.8498 52.4727 67.5725 44.2566 67.9708 35.556C67.9708 35.0311 67.9708 34.5063 67.9708 33.9815C67.9708 33.4566 67.9899 32.6646 67.9326 32.0062Z" fill="#FAA839"/>
<path d="M67.9329 32.0055C65.8141 32.1963 64.7357 33.914 64.0104 35.1068C63.285 36.2996 63.056 36.5859 62.6265 36.5859C62.197 36.5859 61.9203 36.1946 61.2331 35.1068C61.0804 34.8491 60.9086 34.5724 60.7082 34.2861C60.6319 34.1812 60.5746 34.0857 60.4982 33.9903L60.2215 33.6468C60.1261 33.5323 60.0306 33.4178 59.9256 33.3128L59.5916 32.9979H59.5439L59.2671 32.7784C59.0232 32.6011 58.7608 32.4508 58.4845 32.3299L58.3032 32.2631C58.1857 32.215 58.0644 32.1767 57.9405 32.1486C57.8125 32.1099 57.6817 32.0812 57.5492 32.0627H57.3488C57.2026 32.0532 57.056 32.0532 56.9098 32.0627C54.5238 32.0627 53.3595 33.9712 52.5865 35.1927C51.8993 36.2805 51.6321 36.6717 51.2026 36.6717C50.7731 36.6717 50.4964 36.2805 49.8188 35.1927C49.1412 34.1048 47.9672 32.1963 45.734 32.0818C45.2896 29.3298 43.8929 26.8211 41.7877 24.9934C39.6824 23.1657 37.0022 22.1351 34.2146 22.0813H34.0047C31.1876 22.078 28.4605 23.0732 26.3078 24.8902C24.1551 26.7071 22.7162 29.2281 22.2467 32.0055C20.128 32.1963 19.0496 33.914 18.3242 35.1068C17.5989 36.2996 17.3698 36.5859 16.9404 36.5859C16.5109 36.5859 16.2341 36.1946 15.5565 35.1068C14.7835 33.8567 13.6478 31.9769 11.2237 31.9769C8.79953 31.9769 7.68289 33.8854 6.90984 35.1068C6.23223 36.1946 5.95548 36.5859 5.52601 36.5859C5.09654 36.5859 4.81976 36.1946 4.14215 35.1068C3.46454 34.0189 2.23338 32.1104 0.0478516 31.9959C0.556716 23.3395 4.35526 15.2048 10.666 9.25674C16.9768 3.30874 25.3225 -0.00276573 33.9951 1.7332e-06H34.2051C42.842 0.0508857 51.1354 3.38781 57.4002 9.33266C63.665 15.2775 67.4309 23.3842 67.9329 32.0055Z" fill="#F05545"/>
<path d="M22.0843 34.0005C22.0834 34.5497 22.1217 35.0982 22.1989 35.6418C21.8308 36.0284 21.5104 36.4577 21.2445 36.9205C20.481 38.1706 19.3357 40.0505 16.9212 40.0505C14.5066 40.0505 13.3613 38.142 12.5978 36.9205C11.9202 35.8327 11.6434 35.4415 11.2044 35.4415C10.7654 35.4415 10.5077 35.8327 9.8301 36.9205C9.05705 38.1706 7.92134 40.0505 5.50676 40.0505C3.09218 40.0505 1.94692 38.142 1.18342 36.9205C0.629881 36.0236 0.314945 35.6037 0 35.4796C0 34.993 0 34.5254 0 34.0005C0 33.323 6.9898e-06 32.6551 0.0668135 31.9966C2.30006 32.1111 3.41666 33.9051 4.16108 35.1075C4.9055 36.3098 5.11547 36.5866 5.54494 36.5866C5.97441 36.5866 6.25119 36.1953 6.9288 35.1075C7.70185 33.8574 8.83755 31.9775 11.2426 31.9775C13.6476 31.9775 14.8024 33.886 15.5755 35.1075C16.2531 36.1953 16.5298 36.5866 16.9593 36.5866C17.3888 36.5866 17.6656 36.1953 18.3432 35.1075C19.0208 34.0196 20.1469 32.197 22.2657 32.0062C22.1471 32.6644 22.0864 33.3317 22.0843 34.0005Z" fill="#F05545"/>
<path d="M68 33.9988C68 34.5237 68 35.0485 68 35.5733C67.5891 35.965 67.2471 36.4231 66.9883 36.9284C66.2153 38.1689 65.0796 40.0488 62.665 40.0488C60.2504 40.0488 59.1051 38.1403 58.3321 36.9284C57.6545 35.831 57.3777 35.4397 56.9482 35.4397C56.5188 35.4397 56.242 35.831 55.5644 36.9284C54.7914 38.1689 53.6556 40.0488 51.2411 40.0488C48.8265 40.0488 47.6812 38.1403 46.9082 36.9284C46.6447 36.3996 46.2818 35.9266 45.8393 35.5352C45.9989 34.3586 45.9763 33.1646 45.7725 31.9949C48.0057 32.1094 49.1128 33.9034 49.8572 35.1057C50.6016 36.3081 50.8116 36.5944 51.2411 36.5944C51.6705 36.5944 51.9473 36.2031 52.6249 35.1057C53.3979 33.8557 54.5337 31.9854 56.9482 31.9854C59.3628 31.9854 60.4986 33.8939 61.2716 35.1057C61.9492 36.2031 62.226 36.5944 62.665 36.5944C63.104 36.5944 63.3617 36.2031 64.0488 35.1057C64.736 34.0084 65.8526 32.1953 67.9713 32.0044C67.9809 32.6629 68 33.3308 68 33.9988Z" fill="#F05545"/>
<path d="M9.1037 21.8527C8.82451 21.7041 8.56488 21.5214 8.33076 21.3088C8.18865 21.1981 8.0711 21.0592 7.98561 20.9007C7.90013 20.7422 7.84857 20.5676 7.83421 20.3881C7.81985 20.2086 7.84301 20.0281 7.90221 19.858C7.96141 19.6879 8.05536 19.532 8.17808 19.4003C8.27234 19.1896 8.41045 19.0014 8.58324 18.8484C8.75603 18.6953 8.95949 18.5809 9.18002 18.5128C9.7237 18.4863 10.2617 18.6334 10.7164 18.9327L11.079 19.1426L10.4301 20.2972L9.80028 19.9442C9.67658 19.8484 9.52702 19.7919 9.37089 19.7819C9.285 19.7819 9.2182 19.8392 9.16095 19.9537C9.13233 19.9894 9.11298 20.0316 9.10466 20.0765C9.09633 20.1215 9.09927 20.1678 9.11322 20.2114C9.11322 20.2877 9.25636 20.3736 9.44721 20.4786L9.5999 20.5644L11.8806 21.8527C12.0043 21.9389 12.1498 21.9885 12.3004 21.9958C12.3431 21.9834 12.3824 21.9614 12.4155 21.9317C12.4485 21.902 12.4744 21.8652 12.4913 21.824C12.518 21.7856 12.5362 21.7418 12.5444 21.6957C12.5526 21.6496 12.5508 21.6022 12.539 21.5569C12.4345 21.4344 12.3041 21.3366 12.1573 21.2706L12.0428 21.2038L11.2698 20.7648L11.9187 19.6102L12.539 19.9633C13.0377 20.1856 13.4476 20.5686 13.7032 21.0511C13.7626 21.2746 13.772 21.5085 13.7308 21.7361C13.6895 21.9637 13.5986 22.1795 13.4646 22.368C13.3759 22.5823 13.2397 22.7736 13.0661 22.9273C12.8925 23.0811 12.6861 23.1933 12.4626 23.2554C11.922 23.2812 11.3873 23.1341 10.9358 22.8355L9.1037 21.8527Z" fill="white"/>
<path d="M11.6051 18.4449C11.2142 18.2052 10.928 17.827 10.8035 17.3856C10.7935 17.1756 10.8264 16.9657 10.9002 16.7688C10.974 16.5719 11.0872 16.3922 11.2329 16.2405C11.3452 16.0636 11.4916 15.9108 11.6637 15.7912C11.8357 15.6716 12.0299 15.5875 12.2349 15.5439C12.6942 15.5687 13.13 15.7546 13.4659 16.0688L15.0404 17.2902C15.4313 17.5343 15.7171 17.9154 15.842 18.359C15.8558 18.7824 15.7014 19.1941 15.4125 19.5041C15.1797 19.8599 14.8165 20.11 14.401 20.2007C13.9441 20.1778 13.5107 19.9915 13.1796 19.6758L11.6051 18.4449ZM14.4201 18.3781L12.5689 16.9276C12.4577 16.8244 12.3237 16.7492 12.1777 16.7081C12.1367 16.7056 12.0959 16.715 12.0603 16.7354C12.0247 16.7557 11.9958 16.7861 11.9772 16.8226C11.9469 16.8514 11.9254 16.8882 11.9152 16.9288C11.9051 16.9694 11.9067 17.012 11.92 17.0517C11.92 17.0517 12.0345 17.2043 12.2254 17.3666L14.0766 18.8075C14.1917 18.9097 14.3242 18.9905 14.4678 19.046C14.5085 19.0421 14.5477 19.0288 14.5825 19.0073C14.6172 18.9858 14.6465 18.9566 14.6682 18.922C14.6939 18.892 14.7131 18.857 14.7246 18.8192C14.7361 18.7815 14.7396 18.7417 14.735 18.7025C14.6576 18.5707 14.5496 18.4594 14.4201 18.3781Z" fill="white"/>
<path d="M13.0469 14.19L13.8771 13.3979L14.0679 13.5983C14.0592 13.4489 14.082 13.2994 14.1347 13.1594C14.1989 13.022 14.2897 12.8987 14.4019 12.7967C14.5054 12.6826 14.6349 12.5952 14.7795 12.5421C14.9241 12.4889 15.0794 12.4715 15.2321 12.4914C15.3984 12.5319 15.5544 12.6067 15.6902 12.7109C15.8948 12.8596 16.0835 13.0291 16.2532 13.2166L18.7724 15.8503L17.8849 16.6901L15.2989 13.98C15.2076 13.8622 15.0899 13.7674 14.9554 13.7033C14.9139 13.6955 14.871 13.6984 14.831 13.7117C14.7909 13.7251 14.7549 13.7485 14.7264 13.7796C14.6935 13.805 14.6682 13.8388 14.653 13.8775C14.6379 13.9161 14.6336 13.9582 14.6405 13.9991C14.7016 14.1358 14.7892 14.259 14.8981 14.3617L17.4842 17.0718L16.6062 17.9211L13.0469 14.19Z" fill="white"/>
<path d="M17.4746 9.49414L18.4957 8.82617L21.7019 13.7978L20.6713 14.4562L17.4746 9.49414Z" fill="white"/>
<path d="M19.8604 7.42355L20.7192 6.99414L21.4253 7.66211L20.7383 7.9961L19.8604 7.42355ZM20.6142 10.229L20.4615 9.92368C20.3718 9.77114 20.3145 9.60175 20.2932 9.42608C20.2718 9.25041 20.2869 9.07222 20.3375 8.90264C20.5081 8.55612 20.8002 8.28443 21.1581 8.13924C21.5025 7.93385 21.9138 7.87215 22.3032 7.96747C22.6766 8.13336 22.9709 8.4379 23.1239 8.81675L24.7843 12.1757L23.7537 12.691L23.6296 12.4429C23.5893 12.5864 23.5248 12.7219 23.4388 12.8437C23.3388 12.954 23.219 13.0446 23.0857 13.1109C22.9626 13.1826 22.825 13.2258 22.683 13.2373C22.541 13.2489 22.3981 13.2285 22.265 13.1777C21.9759 13.0335 21.7487 12.7894 21.6257 12.4906L21.2822 11.8131C21.1182 11.5238 21.0608 11.1861 21.12 10.8588C21.3485 10.3362 21.6721 9.8606 22.0742 9.4561L21.9979 9.29387C21.952 9.17498 21.8765 9.06984 21.7784 8.98852C21.7211 8.9408 21.6448 8.9408 21.5398 8.98852C21.5001 9.00314 21.4655 9.02894 21.4401 9.0628C21.4147 9.09666 21.3996 9.13714 21.3967 9.17937C21.3961 9.30782 21.4325 9.43372 21.5017 9.54198L21.5971 9.73283L20.6142 10.229ZM22.5227 10.2958C22.4136 10.4525 22.3418 10.632 22.3128 10.8207C22.3008 11.0393 22.3575 11.2562 22.475 11.4409V11.5077L22.58 11.7081C22.6348 11.851 22.7231 11.9787 22.8376 12.0803C22.8724 12.1004 22.9119 12.111 22.9521 12.111C22.9923 12.111 23.0318 12.1004 23.0666 12.0803C23.104 12.0661 23.1375 12.0431 23.1641 12.0131C23.1906 11.9832 23.2096 11.9473 23.2193 11.9085C23.1937 11.7589 23.1455 11.6141 23.0762 11.4791L22.5227 10.2958Z" fill="white"/>
<path d="M25.1962 11.9273L23.7744 6.9747L24.8813 6.6598L24.9577 6.927C25.0299 6.78951 25.127 6.66657 25.244 6.56438C25.3633 6.46459 25.5035 6.39285 25.6543 6.35444C25.813 6.30697 25.9822 6.30697 26.1409 6.35444C26.3039 6.38808 26.4552 6.46375 26.5799 6.57392C26.6452 6.40774 26.7462 6.2579 26.8757 6.13497C26.9971 6.01441 27.1488 5.92871 27.3147 5.88686C27.4594 5.8336 27.6148 5.8162 27.7677 5.83614C27.9206 5.85608 28.0664 5.91278 28.1926 6.00137C28.4893 6.31031 28.6912 6.69773 28.7747 7.11784L29.7862 10.6295L28.6125 10.973L27.5723 7.36595C27.5461 7.21938 27.4838 7.08164 27.391 6.96517C27.356 6.94096 27.3144 6.92799 27.2717 6.92799C27.2291 6.92799 27.1875 6.94096 27.1525 6.96517C27.1119 6.97347 27.074 6.99178 27.0424 7.01845C27.0107 7.04512 26.9862 7.07929 26.9712 7.11784C26.9731 7.26654 26.9955 7.41426 27.0379 7.5568L28.0781 11.1543L26.9043 11.4883L25.8642 7.89078C25.8417 7.74023 25.779 7.59851 25.6829 7.48045C25.6481 7.46035 25.6086 7.44978 25.5684 7.44978C25.5282 7.44978 25.4887 7.46035 25.4539 7.48045C25.3489 7.48045 25.2917 7.5568 25.2726 7.63314C25.2627 7.78257 25.2855 7.93236 25.3394 8.07209L26.37 11.6696L25.1962 11.9273Z" fill="white"/>
<path d="M31.9141 4.47559H33.1355V5.42983C33.2177 5.33679 33.3184 5.26202 33.4313 5.21035C33.6406 5.12571 33.8698 5.1032 34.0915 5.14551C34.3132 5.18782 34.518 5.29316 34.6814 5.44892C34.9068 5.89382 35.0027 6.39309 34.9581 6.88983V8.79833C35.0062 9.21818 34.9299 9.64292 34.7386 10.0198C34.6567 10.1448 34.5425 10.2453 34.4081 10.3108C34.2738 10.3764 34.1242 10.4044 33.9752 10.3919C33.8134 10.4013 33.6512 10.3786 33.4981 10.3251C33.3524 10.2758 33.2234 10.1866 33.1259 10.0675V10.3347H31.9809L31.9141 4.47559ZM33.2309 8.96055C33.2193 9.11317 33.2421 9.26645 33.2977 9.40905C33.3237 9.44114 33.3576 9.46593 33.3961 9.48098C33.4346 9.49604 33.4763 9.50084 33.5172 9.49493C33.5584 9.49519 33.5992 9.48683 33.637 9.4704C33.6748 9.45397 33.7088 9.42982 33.7367 9.3995C33.7676 9.2516 33.7676 9.09891 33.7367 8.95101V6.60356C33.7448 6.4542 33.7221 6.30477 33.6699 6.1646C33.6439 6.13251 33.6099 6.10772 33.5715 6.09267C33.533 6.07761 33.4913 6.07281 33.4504 6.07872C33.4086 6.07284 33.3659 6.07864 33.3272 6.09548C33.2885 6.11232 33.2552 6.13955 33.2309 6.17415C33.1872 6.31608 33.171 6.46508 33.1832 6.6131L33.2309 8.96055Z" fill="white"/>
<path d="M35.9608 6.81336V6.46983C35.9664 6.28666 36.011 6.1068 36.0916 5.94224C36.1722 5.77769 36.287 5.63223 36.4284 5.51558C36.7593 5.32195 37.1501 5.25738 37.5258 5.33427C37.7245 5.34069 37.9198 5.38709 38.1002 5.47071C38.2805 5.55433 38.4421 5.67344 38.5754 5.82094C38.796 6.1662 38.8714 6.58456 38.7854 6.98512L38.3178 10.6971L37.1727 10.554V10.2773C37.0602 10.3783 36.9311 10.459 36.791 10.5158C36.646 10.5439 36.497 10.5439 36.352 10.5158C36.2088 10.5078 36.0692 10.4677 35.9436 10.3983C35.8181 10.3289 35.7098 10.2321 35.6268 10.1151C35.454 9.82883 35.3993 9.48665 35.4741 9.16081L35.5695 8.40695C35.5852 8.07468 35.7208 7.75936 35.9512 7.5195C36.4361 7.22077 36.9687 7.00773 37.5258 6.8897V6.71793C37.5581 6.58952 37.5581 6.4551 37.5258 6.32669C37.506 6.29043 37.4771 6.25993 37.442 6.23819C37.4068 6.21644 37.3666 6.20419 37.3254 6.20264C37.2839 6.19277 37.2405 6.19469 37.2 6.20818C37.1595 6.22167 37.1236 6.24619 37.0964 6.27898C37.0239 6.38573 36.9872 6.51267 36.9914 6.64159V6.85153L35.9608 6.81336ZM37.4876 7.91074C37.3096 7.97844 37.1497 8.08619 37.02 8.22565C36.8937 8.40167 36.8208 8.6104 36.8101 8.82682V8.90316V9.12263C36.7729 9.27305 36.7729 9.43026 36.8101 9.58068C36.8101 9.64747 36.9055 9.6761 37.0105 9.69518C37.0505 9.70187 37.0915 9.70024 37.1309 9.69039C37.1704 9.68054 37.2073 9.66268 37.2395 9.63793C37.3015 9.49891 37.3402 9.3506 37.354 9.19898L37.4876 7.91074ZM36.8864 4.09375L37.8407 4.20826L38.0602 5.1625L37.3063 5.06708L36.8864 4.09375Z" fill="white"/>
<path d="M40.1027 5.85879L41.286 6.14507L40.0932 11.1549L38.9004 10.8686L40.1027 5.85879ZM40.1505 5.6584L40.2745 5.12402L41.4673 5.41029L41.3337 5.93513L40.1505 5.6584Z" fill="white"/>
<path d="M44.5314 7.16602L45.5811 7.6336L45.4666 7.8817C45.5953 7.82301 45.7355 7.79367 45.8769 7.79582C46.0325 7.79619 46.1859 7.83209 46.3254 7.90078C46.4706 7.95239 46.601 8.03836 46.7057 8.15136C46.8104 8.26436 46.8862 8.40102 46.9266 8.54967C46.958 8.71358 46.958 8.88197 46.9266 9.04588C46.8651 9.29128 46.7821 9.53078 46.6785 9.76156L46.2872 10.6299L45.1708 10.1337L45.6002 9.17948C45.6796 9.05018 45.7224 8.90178 45.7242 8.75006C45.7242 8.67372 45.667 8.61647 45.5716 8.56875C45.5356 8.54684 45.4944 8.53524 45.4523 8.53524C45.4102 8.53524 45.3689 8.54684 45.333 8.56875C45.232 8.67765 45.1512 8.80368 45.0944 8.94092L43.5676 12.3667L42.4512 11.8609L44.5314 7.16602Z" fill="white"/>
<path d="M47.3371 10.1994L47.5184 9.9131C47.5992 9.75414 47.7136 9.61464 47.8536 9.50425C47.9937 9.39386 48.156 9.31521 48.3294 9.27376C48.7099 9.2386 49.09 9.34382 49.3982 9.56957C49.5759 9.66177 49.7333 9.78865 49.8612 9.94272C49.989 10.0968 50.0847 10.2749 50.1425 10.4666C50.1706 10.666 50.1588 10.869 50.1081 11.0639C50.0573 11.2588 49.9685 11.4417 49.8467 11.6021L47.8428 14.7702L46.8886 14.1595L47.0317 13.9209C46.8862 13.9425 46.7383 13.9425 46.5927 13.9209C46.4465 13.8947 46.307 13.8396 46.1824 13.7587C46.0564 13.691 45.9473 13.5958 45.863 13.4802C45.7788 13.3645 45.7216 13.2314 45.6957 13.0907C45.6641 12.7683 45.7524 12.4456 45.9438 12.1842L46.3542 11.5449C46.5132 11.2531 46.77 11.0267 47.0794 10.9055C47.6436 10.8365 48.2156 10.8688 48.7684 11.0009L48.8639 10.8578C48.9411 10.7533 48.9933 10.6326 49.0165 10.5047C49.0165 10.4284 49.0165 10.3616 48.8829 10.3043C48.8489 10.2822 48.8091 10.2704 48.7684 10.2704C48.7278 10.2704 48.688 10.2822 48.6539 10.3043C48.5839 10.3043 48.498 10.3998 48.3963 10.5906L48.2817 10.7624L47.3371 10.1994ZM48.2913 11.8407C48.1025 11.8231 47.9124 11.8526 47.7378 11.9266C47.5496 12.0358 47.3946 12.1941 47.2893 12.3846V12.4514L47.1653 12.6423C47.0731 12.7627 47.011 12.9033 46.984 13.0526C46.9889 13.0929 47.0037 13.1314 47.027 13.1647C47.0503 13.1979 47.0814 13.225 47.1176 13.2434C47.1532 13.2611 47.1923 13.2703 47.2321 13.2703C47.2718 13.2703 47.311 13.2611 47.3466 13.2434C47.4628 13.148 47.56 13.0314 47.6329 12.8999L48.2913 11.8407ZM49.694 8.29088L50.591 8.85388L50.5338 9.89402L49.8754 9.48369V9.00657L49.4459 9.20696L48.7875 8.79663L49.694 8.29088ZM50.7151 7.5752L51.5262 8.08095L50.5719 8.56761L49.9231 8.15729L50.7151 7.5752Z" fill="white"/>
<path d="M51.3363 10.9838L51.5749 11.1746L51.9566 10.707L53.0444 11.2891L52.5196 11.9475L52.7581 12.1384L52.157 12.8732L51.9279 12.6823L50.0194 14.9821C49.924 15.087 49.8858 15.1729 49.8954 15.2302C49.9049 15.2874 49.9622 15.3447 50.0576 15.421L49.4946 16.1176C49.3903 16.0828 49.2883 16.0414 49.1893 15.9936C49.0855 15.9434 48.9891 15.8792 48.903 15.8027C48.799 15.7381 48.7101 15.6518 48.6426 15.5497C48.5751 15.4476 48.5304 15.3321 48.5117 15.2111C48.562 14.8927 48.7124 14.5985 48.9411 14.3713L50.9355 11.9189L50.697 11.7185L51.3363 10.9838Z" fill="white"/>
<path d="M54.9051 14.1796L55.1055 14.4086L55.5636 14.0078L56.5178 14.7617L55.888 15.3151L56.0884 15.5442L55.3822 16.174L55.1819 15.9449L52.968 17.9107C52.863 17.9966 52.8058 18.0729 52.8058 18.1302C52.8198 18.2136 52.8599 18.2904 52.9203 18.3496L52.2619 18.9413L51.9851 18.7695C51.8925 18.7011 51.8063 18.6244 51.7275 18.5405C51.5487 18.3706 51.4427 18.138 51.4316 17.8916C51.5372 17.5831 51.7376 17.3159 52.0042 17.1282L54.3707 15.0384L54.1704 14.8094L54.9051 14.1796Z" fill="white"/>
<path d="M55.4777 17.2152C55.8236 16.9156 56.2705 16.7587 56.7278 16.7763C56.9296 16.8277 57.1186 16.9204 57.2828 17.0485C57.4471 17.1766 57.583 17.3374 57.682 17.5206C57.9531 17.8453 58.0866 18.263 58.0541 18.6848C57.8885 19.1135 57.5824 19.4735 57.1858 19.7058L55.5445 20.8414C55.1963 21.1392 54.7526 21.3017 54.2944 21.2994C53.8906 21.1814 53.5485 20.9111 53.3402 20.5456C53.2058 20.3851 53.1046 20.1996 53.0424 19.9998C52.9801 19.7999 52.9581 19.5898 52.9776 19.3814C53.1317 18.9488 53.4366 18.5863 53.8364 18.3603L55.4777 17.2152ZM54.7143 19.9253L56.6228 18.5894C56.8327 18.4462 56.9377 18.3508 56.9472 18.284C56.9673 18.2492 56.9779 18.2097 56.9779 18.1695C56.9779 18.1293 56.9673 18.0898 56.9472 18.055C56.9246 18.0191 56.8937 17.9892 56.8572 17.9676C56.8207 17.946 56.7796 17.9335 56.7373 17.9309C56.5967 17.98 56.4647 18.0508 56.3461 18.1409L54.4376 19.4768C54.3055 19.5533 54.1916 19.6575 54.1036 19.7822C54.1036 19.849 54.1036 19.9158 54.1608 20.0112C54.181 20.0451 54.2087 20.0739 54.2418 20.0954C54.2749 20.1169 54.3125 20.1306 54.3517 20.1352C54.4798 20.0905 54.5969 20.0189 54.6952 19.9253H54.7143ZM58.3977 16.385L58.9989 17.2534L58.5408 18.2077L58.1019 17.5588L58.2832 17.1294H57.8156L57.3671 16.4805L58.3977 16.385ZM59.5905 16.1465L60.1344 16.9194L59.0848 17.0053L58.6458 16.3755L59.5905 16.1465Z" fill="white"/>
<path d="M58.9416 19.5806L59.0847 19.8478L59.6191 19.5615L60.392 20.5158L59.6573 20.9166L59.8004 21.1837L58.9702 21.6227L58.827 21.3555L56.2124 22.7583C56.0884 22.8251 56.0216 22.8823 56.0025 22.9396C56.0042 23.0248 56.0308 23.1077 56.0788 23.1781L55.2868 23.598C55.2037 23.5252 55.1271 23.4454 55.0578 23.3594C54.9844 23.2743 54.9204 23.1815 54.8669 23.0827C54.7974 22.9823 54.7496 22.8684 54.7266 22.7485C54.7036 22.6285 54.7059 22.5051 54.7333 22.3861C54.9036 22.1103 55.1578 21.8963 55.4586 21.7754L58.245 20.2868L58.1018 20.0196L58.9416 19.5806Z" fill="white"/>
<path d="M32.744 29.3719C29.8144 26.2097 28.2508 22.0193 28.3927 17.7109C26.675 18.0163 26.4842 21.2512 26.7991 22.5776C26.1406 22.1768 25.8448 21.4039 25.3868 20.8695C24.0604 22.7017 25.1673 25.1827 25.5108 27.053C24.837 26.6462 24.2553 26.1035 23.8027 25.4594C23.8027 30.6601 25.8544 35.0019 31.3031 36.4333L32.744 29.3719Z" fill="#01A7D1"/>
<path d="M24.767 40.0406C22.6596 40.141 20.5473 40.0419 18.4585 39.7447C17.5885 39.6428 16.7313 39.4509 15.9008 39.1722C15.2857 38.8134 14.6482 38.4946 13.992 38.218C11.3866 37.9317 16.3112 41.1952 16.5688 41.6437C15.3922 41.8182 14.2071 41.9296 13.0186 41.9777C14.0397 43.1323 15.6717 44.5351 17.2942 44.4396C16.8647 45.0313 14.4883 46.205 14.9559 46.9112C15.4236 47.6173 18.0482 46.7775 18.554 46.5867C18.0577 47.7891 17.3896 48.8674 17.4755 50.1556C18.9644 50.919 21.064 48.9819 22.2474 48.1326C23.7744 47.0066 26.1794 46.4436 27.3056 45.8519L24.767 40.0406Z" fill="#01A7D1"/>
<path d="M42.0693 28.5028C43.6223 28.3919 45.1584 28.1103 46.6497 27.6631C46.3158 29.1708 44.7412 29.6479 44.245 30.9362C45.4559 31.2836 46.7459 31.2368 47.9284 30.8026C47.8152 30.8265 47.6981 30.8265 47.5849 30.8026C46.974 31.9875 46.0013 32.9468 44.8081 33.5413L42.0693 28.5028Z" fill="#FFCC5B"/>
<path d="M43.9401 41.4532C45.6007 38.3233 46.2783 35.7278 45.5148 32.2543C44.0165 25.4028 36.9254 24.8016 31.8099 28.0556C27.4866 30.8325 27.9924 37.4168 23.4877 40.0696C22.5334 43.4762 24.3467 45.4229 27.3912 46.673C33.2702 49.0872 40.8384 47.2837 43.9401 41.4532Z" fill="#4BC7EA"/>
<path d="M39.5781 33.321C40.2628 32.8675 40.858 32.2917 41.3339 31.6224C41.7442 31.0212 39.664 28.9124 38.3757 30.0956C37.0875 31.2789 38.6906 33.3114 39.5781 33.321Z" fill="white"/>
<path d="M39.9223 32.9303C40.4672 32.5821 40.9454 32.1394 41.3346 31.623C41.6591 31.1363 39.9987 29.4568 38.9681 30.4015C37.9375 31.3463 39.2066 32.9303 39.9223 32.9303Z" fill="#341A14"/>
<path d="M40.1319 30.5461C40.1868 30.5969 40.2251 30.6631 40.2418 30.7361C40.2585 30.809 40.2528 30.8853 40.2255 30.9549C40.1982 31.0246 40.1505 31.0844 40.0887 31.1266C40.0269 31.1687 39.9538 31.1913 39.879 31.1913C39.8042 31.1913 39.7311 31.1687 39.6693 31.1266C39.6075 31.0844 39.5598 31.0246 39.5325 30.9549C39.5052 30.8853 39.4995 30.809 39.5162 30.7361C39.5329 30.6631 39.5712 30.5969 39.6261 30.5461C39.6938 30.4802 39.7845 30.4434 39.879 30.4434C39.9735 30.4434 40.0642 30.4802 40.1319 30.5461Z" fill="white"/>
<path d="M46.6026 38.0168C45.1561 38.2689 43.6669 38.0375 42.3651 37.3584C41.6875 37.0244 41.134 36.5377 40.4564 36.1656C40.0937 35.9556 40.0078 36.0606 39.6547 36.1656C39.4734 36.2323 39.0725 36.1656 38.9389 36.2705C38.8053 36.3755 38.8053 37.0339 38.853 37.2248C38.1754 37.0148 37.9464 37.8832 37.9845 38.4176C37.202 38.0645 37.3165 39.1905 37.2974 39.6772C36.6389 39.4863 36.7916 40.0207 36.9443 40.5169C36.806 40.4641 36.6531 40.4641 36.5148 40.5169C35.7609 41.0322 37.0111 42.0437 37.3738 42.3109C38.0538 42.8201 38.7943 43.2432 39.5784 43.5705C41.3025 44.2941 43.1408 44.7076 45.0088 44.792C48.4732 44.9733 52.577 44.248 54.982 41.5284C53.8923 41.5167 52.8053 41.6417 51.7467 41.9006C52.892 41.9006 55.0298 38.5416 54.9248 37.3679C54.2376 38.5321 53.0828 38.3222 52.1762 39.0188C52.6423 38.3943 52.9602 37.672 53.1057 36.9065C53.2512 36.141 53.2205 35.3525 53.016 34.6006C50.8782 35.7361 49.3035 37.4824 46.6026 38.0168Z" fill="#01A7D1"/>
<path d="M50.525 49.2856L55.1531 46.4229L56.9948 53.6656C57.1215 54.076 57.1573 54.5091 57.0997 54.9347C57.0274 55.2628 56.8538 55.5599 56.6035 55.784C56.3175 56.0476 55.9696 56.2347 55.592 56.328C55.3931 56.3893 55.1838 56.4091 54.9769 56.3862C54.7701 56.3632 54.5702 56.2979 54.3896 56.1944C54.216 56.0907 54.0654 55.9526 53.9472 55.7885C53.8291 55.6243 53.7458 55.4377 53.7026 55.2401C53.6499 55.029 53.6405 54.8094 53.675 54.5946C53.7094 54.3798 53.787 54.1741 53.903 53.99C54.0306 53.7877 54.1978 53.6132 54.3946 53.4771C54.5914 53.341 54.8137 53.246 55.0481 53.198C55.1968 53.1538 55.351 53.1313 55.5061 53.1312C55.7367 53.1333 55.9666 53.1557 56.1932 53.198L54.9908 48.4745L51.5365 50.6406L52.9201 56.0989C53.0452 56.5129 53.0841 56.9481 53.0346 57.3776C52.9622 57.7182 52.7814 58.0262 52.5193 58.2555C52.2312 58.514 51.8838 58.6976 51.5078 58.7899C51.3116 58.8523 51.1047 58.8742 50.8997 58.8546C50.6947 58.8349 50.4958 58.774 50.315 58.6754C50.1426 58.5725 49.994 58.4343 49.8788 58.2698C49.7637 58.1053 49.6847 57.9184 49.647 57.7212C49.5851 57.5073 49.5693 57.2828 49.6006 57.0624C49.6318 56.8419 49.7094 56.6307 49.8283 56.4425C49.9576 56.2415 50.1253 56.0681 50.3218 55.9321C50.5183 55.7962 50.7398 55.7005 50.9735 55.6504C51.3596 55.5608 51.761 55.5608 52.1472 55.6504L50.525 49.2856Z" fill="white"/>
<path fill-rule="evenodd" clip-rule="evenodd" d="M34.0049 56.6726C34.6567 57.0068 35.3879 57.1552 36.1185 57.1013C36.849 57.0475 37.5506 56.7935 38.1463 56.3672C37.8421 57.0336 37.361 57.6039 36.7553 58.0161C36.1497 58.4283 35.4426 58.6666 34.711 58.7051C34.3058 58.0991 34.0627 57.3993 34.0049 56.6726Z" fill="#FAA21B"/>
<path fill-rule="evenodd" clip-rule="evenodd" d="M35.8178 52.9404C35.855 53.6699 36.0918 54.3751 36.5024 54.9792C36.913 55.5833 37.4816 56.0631 38.1462 56.3662C37.4185 56.4384 36.6849 56.3082 36.0266 55.9899C35.3682 55.6717 34.8105 55.1778 34.415 54.5626C34.7133 53.9317 35.1704 53.3892 35.7415 52.9881L35.8178 52.9404Z" fill="#FAA21B"/>
<path fill-rule="evenodd" clip-rule="evenodd" d="M39.9591 52.6173C39.3445 53.0139 38.8505 53.5714 38.5308 54.2293C38.2112 54.8872 38.0781 55.6201 38.146 56.3484C37.7218 55.7518 37.469 55.0504 37.4151 54.3203C37.3613 53.5902 37.5085 52.8593 37.8407 52.2069C38.5703 52.1603 39.2997 52.3016 39.9591 52.6173Z" fill="#FAA21B"/>
<path fill-rule="evenodd" clip-rule="evenodd" d="M42.2889 56.0621C41.6357 55.733 40.9054 55.5875 40.1759 55.6413C39.4465 55.6951 38.7453 55.9461 38.1475 56.3674C38.4522 55.7021 38.9336 55.1332 39.5394 54.7226C40.1451 54.3121 40.8519 54.0756 41.5828 54.0391C41.9919 54.6396 42.2355 55.3374 42.2889 56.0621Z" fill="#FAA21B"/>
<path fill-rule="evenodd" clip-rule="evenodd" d="M40.4854 59.8021C40.4469 59.0705 40.2086 58.3634 39.7964 57.7578C39.3842 57.1521 38.8139 56.671 38.1475 56.3668C38.877 56.2991 39.6112 56.4323 40.2705 56.7519C40.9298 57.0714 41.4892 57.5653 41.8881 58.1798C41.5805 58.8075 41.1213 59.3486 40.5522 59.7543L40.4854 59.8021Z" fill="#FAA21B"/>
<path fill-rule="evenodd" clip-rule="evenodd" d="M36.3428 60.1079C36.9564 59.7085 37.4489 59.1488 37.7668 58.4893C38.0848 57.8299 38.216 57.0959 38.1463 56.3672C38.5726 56.9629 38.8266 57.6645 38.8804 58.395C38.9343 59.1256 38.786 59.8568 38.4517 60.5086C37.726 60.5583 36.9997 60.4203 36.3428 60.1079Z" fill="#FAA21B"/>
<path fill-rule="evenodd" clip-rule="evenodd" d="M34.4156 54.5264C34.8111 55.1415 35.3688 55.6354 36.0272 55.9536C36.6855 56.2719 37.4191 56.4021 38.1468 56.3299C37.551 56.7562 36.8494 57.0102 36.1189 57.064C35.3884 57.1179 34.6571 56.9695 34.0053 56.6353C33.9542 55.9084 34.0957 55.181 34.4156 54.5264Z" fill="#FDBC4E"/>
<path fill-rule="evenodd" clip-rule="evenodd" d="M37.8414 52.2256C37.5092 52.878 37.362 53.6088 37.4158 54.3389C37.4697 55.069 37.7224 55.7704 38.1467 56.367C37.4822 56.0639 36.9136 55.5842 36.503 54.9801C36.0924 54.376 35.8556 53.6707 35.8184 52.9413C36.4183 52.5295 37.116 52.2827 37.8414 52.2256Z" fill="#FDBC4E"/>
<path fill-rule="evenodd" clip-rule="evenodd" d="M41.5825 54.0375C40.8516 54.0741 40.1448 54.3105 39.5391 54.7211C38.9334 55.1316 38.4519 55.7006 38.1472 56.3659C38.0792 55.6376 38.2123 54.9047 38.532 54.2468C38.8517 53.5889 39.3457 53.0314 39.9603 52.6348C40.5865 52.9362 41.1252 53.3928 41.5252 53.9612L41.5825 54.0375Z" fill="#FDBC4E"/>
<path fill-rule="evenodd" clip-rule="evenodd" d="M41.8881 58.1788C41.4892 57.5643 40.9298 57.0704 40.2705 56.7509C39.6112 56.4313 38.877 56.2981 38.1475 56.3658C38.744 55.9415 39.4454 55.6887 40.1755 55.6349C40.9056 55.581 41.6365 55.7282 42.2889 56.0604C42.3385 56.7892 42.2005 57.5185 41.8881 58.1788Z" fill="#FDBC4E"/>
<path fill-rule="evenodd" clip-rule="evenodd" d="M38.4714 60.5086C38.8057 59.8568 38.954 59.1256 38.9002 58.395C38.8463 57.6645 38.5923 56.9629 38.166 56.3672C38.8325 56.6714 39.4028 57.1525 39.815 57.7582C40.2271 58.3638 40.4654 59.0709 40.5039 59.8025C39.8999 60.2116 39.199 60.4551 38.4714 60.5086Z" fill="#FDBC4E"/>
<path fill-rule="evenodd" clip-rule="evenodd" d="M34.7109 58.7051C35.4425 58.6666 36.1496 58.4283 36.7553 58.0161C37.3609 57.6039 37.842 57.0336 38.1462 56.3672C38.2159 57.0959 38.0847 57.8299 37.7667 58.4893C37.4488 59.1488 36.9563 59.7085 36.3427 60.1079C35.7132 59.803 35.1715 59.3433 34.7682 58.7719L34.7109 58.7051Z" fill="#FDBC4E"/>
<path d="M10.9355 32.2926L9.50417 32.4739C9.40406 32.4845 9.30813 32.5197 9.22489 32.5763C9.14165 32.6329 9.07367 32.7092 9.02704 32.7984L8.35909 34.0771C8.30672 34.1815 8.2263 34.2694 8.12687 34.3307C8.02744 34.3921 7.9129 34.4246 7.79605 34.4246C7.67921 34.4246 7.56469 34.3921 7.46526 34.3307C7.36584 34.2694 7.28542 34.1815 7.23305 34.0771L6.62235 32.7698C6.57819 32.6779 6.51271 32.5979 6.43137 32.5365C6.35003 32.4751 6.25521 32.434 6.15477 32.4167L4.74248 32.1781C4.62736 32.1581 4.52008 32.1064 4.43266 32.0289C4.34523 31.9513 4.28108 31.851 4.24741 31.7391C4.21375 31.6272 4.21187 31.5082 4.242 31.3953C4.27213 31.2824 4.33309 31.1801 4.41804 31.0998L5.46771 30.1456C5.54367 30.0766 5.60161 29.9902 5.63653 29.8937C5.67146 29.7972 5.6823 29.6937 5.6681 29.5921L5.45816 28.1703C5.43795 28.0507 5.4527 27.9277 5.50068 27.8163C5.54866 27.7049 5.62782 27.6097 5.72861 27.5421C5.82941 27.4746 5.94756 27.4376 6.06887 27.4356C6.19017 27.4336 6.30946 27.4667 6.41241 27.5309L7.67203 28.2275C7.76111 28.2768 7.86125 28.3027 7.96306 28.3027C8.06488 28.3027 8.16502 28.2768 8.2541 28.2275L9.54234 27.5977C9.64664 27.5425 9.76453 27.5181 9.88219 27.5275C9.99985 27.537 10.1124 27.5797 10.2066 27.6509C10.3008 27.722 10.3727 27.8186 10.4139 27.9292C10.4551 28.0398 10.464 28.1598 10.4393 28.2753L10.1626 29.6875C10.144 29.7883 10.1499 29.892 10.1798 29.99C10.2097 30.088 10.2627 30.1773 10.3344 30.2505L11.3363 31.2811C11.4043 31.3677 11.4484 31.4706 11.4642 31.5795C11.48 31.6885 11.467 31.7997 11.4264 31.902C11.3859 32.0043 11.3192 32.0942 11.2331 32.1628C11.1469 32.2313 11.0444 32.2761 10.9355 32.2926Z" fill="#FAA839"/>
<path d="M22.533 61.6816H22.4089C22.3418 61.6583 22.2828 61.6162 22.2388 61.5604C22.1949 61.5046 22.1678 61.4374 22.1608 61.3667L21.7409 58.1413L18.8782 56.6527C18.8132 56.6226 18.7585 56.5739 18.7212 56.5128C18.6838 56.4516 18.6654 56.3808 18.6683 56.3092C18.6714 56.2389 18.6935 56.1708 18.7321 56.1121C18.7707 56.0533 18.8245 56.006 18.8877 55.9752L21.8268 54.5916L22.3516 51.3853C22.3622 51.3155 22.3919 51.2501 22.4373 51.1962C22.4828 51.1423 22.5423 51.102 22.6093 51.0799C22.6779 51.06 22.7506 51.0593 22.8196 51.0778C22.8885 51.0963 22.9511 51.1333 23.0006 51.1849L25.2049 53.5705L28.4207 53.0743C28.4917 53.0636 28.5643 53.0731 28.6301 53.1018C28.6959 53.1305 28.7523 53.1772 28.7928 53.2365C28.828 53.2974 28.8465 53.3666 28.8465 53.4369C28.8465 53.5073 28.828 53.5764 28.7928 53.6373L27.2279 56.5L28.6879 59.3628C28.725 59.423 28.7447 59.4924 28.7447 59.5632C28.7447 59.634 28.725 59.7033 28.6879 59.7636C28.6435 59.8202 28.5845 59.8635 28.5171 59.8888C28.4498 59.914 28.3768 59.9202 28.3062 59.9067L25.1094 59.296L22.8001 61.5862C22.7253 61.6487 22.6305 61.6826 22.533 61.6816ZM19.8897 56.3187L22.2658 57.5402C22.3216 57.5695 22.3697 57.6116 22.4061 57.663C22.4426 57.7144 22.4664 57.7736 22.4757 57.836L22.8097 60.4983L24.7182 58.5898C24.7605 58.5456 24.8133 58.5127 24.8717 58.4944C24.9301 58.476 24.9922 58.4728 25.0522 58.4849L27.6859 58.9811L26.4836 56.5859C26.4551 56.5314 26.4403 56.4709 26.4403 56.4094C26.4403 56.3479 26.4551 56.2873 26.4836 56.2328L27.7813 53.8854L25.1285 54.2957C25.0678 54.3041 25.0059 54.2982 24.9479 54.2783C24.8899 54.2584 24.8373 54.2251 24.7945 54.1812L22.9528 52.2727L22.5234 54.916C22.5142 54.9771 22.4903 55.0351 22.4538 55.085C22.4172 55.1349 22.3691 55.1751 22.3135 55.2023L19.8897 56.3187Z" fill="#F5CB15"/>
<path d="M62.9404 39.9064L61.5091 40.0782C61.409 40.0929 61.3138 40.1307 61.2309 40.1887C61.1481 40.2467 61.0799 40.3232 61.0319 40.4122L60.364 41.6813C60.3101 41.7854 60.2286 41.8727 60.1285 41.9336C60.0283 41.9945 59.9134 42.0268 59.7962 42.0268C59.679 42.0268 59.564 41.9945 59.4639 41.9336C59.3637 41.8727 59.2823 41.7854 59.2284 41.6813L58.6272 40.374C58.5859 40.2802 58.5212 40.1985 58.4394 40.1367C58.3575 40.0749 58.2612 40.035 58.1596 40.021L56.7473 39.7728C56.6322 39.7528 56.525 39.7011 56.4375 39.6236C56.3501 39.5461 56.2859 39.4457 56.2523 39.3338C56.2186 39.2219 56.2168 39.1029 56.2469 38.99C56.277 38.8771 56.338 38.7748 56.4229 38.6946L57.4726 37.7403C57.5479 37.6708 57.6054 37.5843 57.6403 37.488C57.6751 37.3917 57.6863 37.2884 57.673 37.1868L57.463 35.765C57.4405 35.6446 57.4536 35.5203 57.5007 35.4073C57.5477 35.2943 57.6267 35.1974 57.728 35.1285C57.8292 35.0597 57.9484 35.0218 58.0708 35.0196C58.1932 35.0174 58.3136 35.051 58.4173 35.1161L59.6769 35.8223C59.7668 35.8691 59.8666 35.8935 59.9679 35.8935C60.0693 35.8935 60.1691 35.8691 60.259 35.8223L61.5472 35.1829C61.6526 35.1308 61.7705 35.1092 61.8875 35.1206C62.0046 35.132 62.1161 35.1759 62.2094 35.2474C62.3027 35.319 62.3742 35.4152 62.4157 35.5252C62.4572 35.6352 62.4671 35.7546 62.4442 35.87L62.1675 37.2823C62.1472 37.383 62.1523 37.4872 62.1823 37.5854C62.2123 37.6837 62.2662 37.773 62.3393 37.8453L63.2935 38.8663C63.3683 38.9495 63.4195 39.0511 63.442 39.1607C63.4645 39.2702 63.4574 39.3838 63.4214 39.4897C63.3855 39.5957 63.322 39.6901 63.2374 39.7633C63.1529 39.8366 63.0504 39.8859 62.9404 39.9064Z" fill="white"/>
<path d="M66.4526 27.5959L63.7903 28.2639L61.9104 30.2583L61.2424 27.5959L59.248 25.7161L61.9104 25.0481L63.7903 23.0537L64.4583 25.7161L66.4526 27.5959Z" fill="#F5CB15"/>
</svg>
