<svg width="22" height="24" viewBox="0 0 22 24" fill="none" xmlns="http://www.w3.org/2000/svg">
<path d="M20.9851 11.1611L1.08721 0.0833045C0.932367 -0.00161762 0.758576 -0.0223137 0.592959 0.0244467C0.427342 0.071207 0.279219 0.182793 0.17171 0.341786C0.0638553 0.501005 0.00343809 0.699293 0.000142347 0.904867C-0.00315339 1.11044 0.0508632 1.3114 0.153534 1.47553L3.85714 11.9994L0.153534 22.5233C0.0514654 22.6877 -0.00226858 22.8884 0.000831709 23.0937C0.003932 23.299 0.0636896 23.4972 0.170652 23.6569C0.277615 23.8166 0.425676 23.9288 0.591416 23.9757C0.757156 24.0225 0.931113 24.0014 1.08577 23.9156L20.9837 12.8378C21.1165 12.7639 21.229 12.6457 21.3078 12.4971C21.3867 12.3485 21.4286 12.1758 21.4286 11.9994C21.4286 11.823 21.3867 11.6503 21.3078 11.5017C21.229 11.3532 21.1165 11.235 20.9837 11.1611H20.9851Z" fill="#3D8AD8"/>
</svg>
